%TF.GenerationSoftware,KiCad,Pcbnew,(5.1.5-0-10_14)*%
%TF.CreationDate,2020-01-28T13:49:23+01:00*%
%TF.ProjectId,multiblade_adapter,6d756c74-6962-46c6-9164-655f61646170,rev?*%
%TF.SameCoordinates,Original*%
%TF.FileFunction,Copper,L5,Inr*%
%TF.FilePolarity,Positive*%
%FSLAX46Y46*%
G04 Gerber Fmt 4.6, Leading zero omitted, Abs format (unit mm)*
G04 Created by KiCad (PCBNEW (5.1.5-0-10_14)) date 2020-01-28 13:49:23*
%MOMM*%
%LPD*%
G04 APERTURE LIST*
%ADD10C,1.500000*%
%ADD11C,0.400000*%
%ADD12C,0.150000*%
G04 APERTURE END LIST*
D10*
X109110000Y-107290000D03*
X109110000Y-104750000D03*
X106570000Y-107290000D03*
X106570000Y-104750000D03*
X104030000Y-107290000D03*
X104030000Y-104750000D03*
X101490000Y-107290000D03*
X101490000Y-104750000D03*
X98950000Y-107290000D03*
X98950000Y-104750000D03*
X96410000Y-107290000D03*
X96410000Y-104750000D03*
X93870000Y-107290000D03*
X93870000Y-104750000D03*
X91330000Y-107290000D03*
X91330000Y-104750000D03*
X88790000Y-107290000D03*
X88790000Y-104750000D03*
X86250000Y-107290000D03*
X86250000Y-104750000D03*
X83710000Y-107290000D03*
X83710000Y-104750000D03*
X81170000Y-107290000D03*
X81170000Y-104750000D03*
X78630000Y-107290000D03*
X78630000Y-104750000D03*
X76090000Y-107290000D03*
X76090000Y-104750000D03*
X73550000Y-107290000D03*
X73550000Y-104750000D03*
X71010000Y-107290000D03*
X71010000Y-104750000D03*
X68470000Y-107290000D03*
X68470000Y-104750000D03*
X65930000Y-107290000D03*
X65930000Y-104750000D03*
X63390000Y-107290000D03*
X63390000Y-104750000D03*
X60850000Y-107290000D03*
X60850000Y-104750000D03*
X109110000Y-123290000D03*
X109110000Y-120750000D03*
X106570000Y-123290000D03*
X106570000Y-120750000D03*
X104030000Y-123290000D03*
X104030000Y-120750000D03*
X101490000Y-123290000D03*
X101490000Y-120750000D03*
X98950000Y-123290000D03*
X98950000Y-120750000D03*
X96410000Y-123290000D03*
X96410000Y-120750000D03*
X93870000Y-123290000D03*
X93870000Y-120750000D03*
X91330000Y-123290000D03*
X91330000Y-120750000D03*
X88790000Y-123290000D03*
X88790000Y-120750000D03*
X86250000Y-123290000D03*
X86250000Y-120750000D03*
X83710000Y-123290000D03*
X83710000Y-120750000D03*
X81170000Y-123290000D03*
X81170000Y-120750000D03*
X78630000Y-123290000D03*
X78630000Y-120750000D03*
X76090000Y-123290000D03*
X76090000Y-120750000D03*
X73550000Y-123290000D03*
X73550000Y-120750000D03*
X71010000Y-123290000D03*
X71010000Y-120750000D03*
X68470000Y-123290000D03*
X68470000Y-120750000D03*
X65930000Y-123290000D03*
X65930000Y-120750000D03*
X63390000Y-123290000D03*
X63390000Y-120750000D03*
X60850000Y-123290000D03*
X60850000Y-120750000D03*
X109110000Y-139290000D03*
X109110000Y-136750000D03*
X106570000Y-139290000D03*
X106570000Y-136750000D03*
X104030000Y-139290000D03*
X104030000Y-136750000D03*
X101490000Y-139290000D03*
X101490000Y-136750000D03*
X98950000Y-139290000D03*
X98950000Y-136750000D03*
X96410000Y-139290000D03*
X96410000Y-136750000D03*
X93870000Y-139290000D03*
X93870000Y-136750000D03*
X91330000Y-139290000D03*
X91330000Y-136750000D03*
X88790000Y-139290000D03*
X88790000Y-136750000D03*
X86250000Y-139290000D03*
X86250000Y-136750000D03*
X83710000Y-139290000D03*
X83710000Y-136750000D03*
X81170000Y-139290000D03*
X81170000Y-136750000D03*
X78630000Y-139290000D03*
X78630000Y-136750000D03*
X76090000Y-139290000D03*
X76090000Y-136750000D03*
X73550000Y-139290000D03*
X73550000Y-136750000D03*
X71010000Y-139290000D03*
X71010000Y-136750000D03*
X68470000Y-139290000D03*
X68470000Y-136750000D03*
X65930000Y-139290000D03*
X65930000Y-136750000D03*
X63390000Y-139290000D03*
X63390000Y-136750000D03*
X60850000Y-139290000D03*
X60850000Y-136750000D03*
X109110000Y-155290000D03*
X109110000Y-152750000D03*
X106570000Y-155290000D03*
X106570000Y-152750000D03*
X104030000Y-155290000D03*
X104030000Y-152750000D03*
X101490000Y-155290000D03*
X101490000Y-152750000D03*
X98950000Y-155290000D03*
X98950000Y-152750000D03*
X96410000Y-155290000D03*
X96410000Y-152750000D03*
X93870000Y-155290000D03*
X93870000Y-152750000D03*
X91330000Y-155290000D03*
X91330000Y-152750000D03*
X88790000Y-155290000D03*
X88790000Y-152750000D03*
X86250000Y-155290000D03*
X86250000Y-152750000D03*
X83710000Y-155290000D03*
X83710000Y-152750000D03*
X81170000Y-155290000D03*
X81170000Y-152750000D03*
X78630000Y-155290000D03*
X78630000Y-152750000D03*
X76090000Y-155290000D03*
X76090000Y-152750000D03*
X73550000Y-155290000D03*
X73550000Y-152750000D03*
X71010000Y-155290000D03*
X71010000Y-152750000D03*
X68470000Y-155290000D03*
X68470000Y-152750000D03*
X65930000Y-155290000D03*
X65930000Y-152750000D03*
X63390000Y-155290000D03*
X63390000Y-152750000D03*
X60850000Y-155290000D03*
X60850000Y-152750000D03*
D11*
X25500000Y-148000000D03*
X25500000Y-142000000D03*
X25500000Y-136000000D03*
X25500000Y-124000000D03*
X25500000Y-130000000D03*
X25500000Y-112000000D03*
X25500000Y-118000000D03*
X34500000Y-112000000D03*
X34500000Y-118000000D03*
X34500000Y-124000000D03*
X34500000Y-130000000D03*
X34500000Y-136000000D03*
X34500000Y-148000000D03*
X104013000Y-111760000D03*
X55626000Y-107315000D03*
X60850000Y-116823000D03*
X60850000Y-132190000D03*
X56038000Y-155290000D03*
X104030000Y-143273000D03*
X30000000Y-156182000D03*
X29972000Y-103886000D03*
X34500000Y-142000000D03*
X106736500Y-150043500D03*
X109333000Y-149987000D03*
X111760000Y-149987000D03*
X106570000Y-143239000D03*
X109110000Y-143239000D03*
X104013000Y-127127000D03*
X106570000Y-127110000D03*
X109110000Y-127110000D03*
X106570000Y-111743000D03*
X109093000Y-111760000D03*
X25000000Y-120250000D03*
X35000000Y-120250000D03*
X25500000Y-119750000D03*
X34500000Y-119750000D03*
X25000000Y-119250000D03*
X35000000Y-119250000D03*
X25522000Y-118750000D03*
X34500000Y-118750000D03*
X25000000Y-117250000D03*
X35000000Y-117250000D03*
X25500000Y-116750000D03*
X34500000Y-116750000D03*
X25000000Y-116250000D03*
X35000000Y-116250000D03*
X25500000Y-115750000D03*
X34500000Y-115750000D03*
X25000000Y-115250000D03*
X34864000Y-115250000D03*
X25500000Y-114750000D03*
X34500000Y-114750000D03*
X25000000Y-114250000D03*
X35000000Y-114250000D03*
X25500000Y-113750000D03*
X34500000Y-113750000D03*
X25000000Y-113250000D03*
X35000000Y-113250000D03*
X25527000Y-112750000D03*
X34500000Y-112750000D03*
X25000000Y-111250000D03*
X35000000Y-111250000D03*
X25527000Y-110750000D03*
X34500000Y-110750000D03*
X34500000Y-120750000D03*
X25500000Y-120750000D03*
X35000000Y-121250000D03*
X25054000Y-121250000D03*
X34460000Y-121750000D03*
X25500000Y-121750000D03*
X35000000Y-122250000D03*
X25197000Y-122250000D03*
X34500000Y-122750000D03*
X25500000Y-122750000D03*
X35000000Y-123250000D03*
X25086000Y-123250000D03*
X34500000Y-124750000D03*
X25500000Y-124750000D03*
X35000000Y-125250000D03*
X25000000Y-125250000D03*
X34500000Y-125750000D03*
X25500000Y-125750000D03*
X35000000Y-126250000D03*
X25007000Y-126250000D03*
X34500000Y-126750000D03*
X25500000Y-126750000D03*
X35000000Y-127250000D03*
X25000000Y-127250000D03*
X34500000Y-127750000D03*
X25500000Y-127750000D03*
X35000000Y-128250000D03*
X25000000Y-128250000D03*
X34500000Y-128750000D03*
X25500000Y-128750000D03*
X35000000Y-129250000D03*
X25000000Y-129250000D03*
X25000000Y-139250000D03*
X35000000Y-139250000D03*
X25500000Y-138750000D03*
X34500000Y-138750000D03*
X25000000Y-138250000D03*
X35000000Y-138250000D03*
X25500000Y-137750000D03*
X34500000Y-137750000D03*
X25000000Y-137250000D03*
X35000000Y-137250000D03*
X25500000Y-136750000D03*
X34500000Y-136750000D03*
X25000000Y-135250000D03*
X35000000Y-135250000D03*
X25500000Y-134750000D03*
X34500000Y-134750000D03*
X25008000Y-134250000D03*
X35000000Y-134250000D03*
X25508000Y-133750000D03*
X34500000Y-133750000D03*
X25000000Y-133250000D03*
X35000000Y-133250000D03*
X25500000Y-132750000D03*
X34500000Y-132750000D03*
X25000000Y-132250000D03*
X35000000Y-132250000D03*
X25500000Y-131750000D03*
X34500000Y-131750000D03*
X25000000Y-131250000D03*
X35000000Y-131250000D03*
X25500000Y-130750000D03*
X34500000Y-130750000D03*
X54991000Y-144145000D03*
X25500000Y-139750000D03*
X57277000Y-144145000D03*
X25000000Y-140250000D03*
X59944000Y-144145000D03*
X25500000Y-140750000D03*
X62865000Y-144399000D03*
X25000000Y-141250000D03*
X65405000Y-144526000D03*
X25525000Y-142750000D03*
X68326000Y-144653000D03*
X25000000Y-143250000D03*
X70660000Y-144780000D03*
X25541000Y-143750000D03*
X73279000Y-144907000D03*
X25000000Y-144250000D03*
X75779500Y-144819500D03*
X25500000Y-144750000D03*
X78359000Y-144780000D03*
X25000000Y-145250000D03*
X80899000Y-144859000D03*
X25500000Y-145750000D03*
X83566000Y-144907000D03*
X25000000Y-146250000D03*
X85900000Y-144780000D03*
X25500000Y-146750000D03*
X88606500Y-144946500D03*
X25000000Y-147250000D03*
X91107000Y-144907000D03*
X25500000Y-148750000D03*
X93726000Y-144986000D03*
X25000000Y-149250000D03*
D12*
X22032000Y-115250000D02*
X25000000Y-115250000D01*
X20275010Y-113493010D02*
X22032000Y-115250000D01*
X20275010Y-104184990D02*
X20275010Y-113493010D01*
X24184990Y-100275010D02*
X20275010Y-104184990D01*
X79605001Y-101703001D02*
X78177010Y-100275010D01*
X79605001Y-105725001D02*
X79605001Y-101703001D01*
X78177010Y-100275010D02*
X24184990Y-100275010D01*
X81170000Y-107290000D02*
X79605001Y-105725001D01*
X20575020Y-113031020D02*
X22294000Y-114750000D01*
X20575020Y-104309258D02*
X20575020Y-113031020D01*
X75683020Y-100575020D02*
X24309258Y-100575020D01*
X24309258Y-100575020D02*
X20575020Y-104309258D01*
X77065001Y-101957001D02*
X75683020Y-100575020D01*
X22294000Y-114750000D02*
X25500000Y-114750000D01*
X77065001Y-105725001D02*
X77065001Y-101957001D01*
X78630000Y-107290000D02*
X77065001Y-105725001D01*
X20875030Y-112696030D02*
X22429000Y-114250000D01*
X24433526Y-100875030D02*
X20875030Y-104433526D01*
X72808030Y-100875030D02*
X24433526Y-100875030D01*
X22429000Y-114250000D02*
X25000000Y-114250000D01*
X20875030Y-104433526D02*
X20875030Y-112696030D01*
X74525001Y-102592001D02*
X72808030Y-100875030D01*
X74525001Y-105725001D02*
X74525001Y-102592001D01*
X76090000Y-107290000D02*
X74525001Y-105725001D01*
X22818000Y-113750000D02*
X25500000Y-113750000D01*
X21209000Y-112141000D02*
X22818000Y-113750000D01*
X21209000Y-104523834D02*
X21209000Y-112141000D01*
X68878042Y-101175040D02*
X24557794Y-101175040D01*
X71985001Y-104281999D02*
X68878042Y-101175040D01*
X71985001Y-105725001D02*
X71985001Y-104281999D01*
X24557794Y-101175040D02*
X21209000Y-104523834D01*
X73550000Y-107290000D02*
X71985001Y-105725001D01*
X69445001Y-104281999D02*
X66638052Y-101475050D01*
X69445001Y-105725001D02*
X69445001Y-104281999D01*
X71010000Y-107290000D02*
X69445001Y-105725001D01*
X66638052Y-101475050D02*
X24682062Y-101475050D01*
X24682062Y-101475050D02*
X21509010Y-104648102D01*
X21509010Y-104648102D02*
X21509010Y-111679010D01*
X23080000Y-113250000D02*
X25000000Y-113250000D01*
X21509010Y-111679010D02*
X23080000Y-113250000D01*
X66905001Y-104281999D02*
X64398062Y-101775060D01*
X66905001Y-105725001D02*
X66905001Y-104281999D01*
X68470000Y-107290000D02*
X66905001Y-105725001D01*
X24843940Y-101775060D02*
X21809020Y-104809980D01*
X64398062Y-101775060D02*
X24843940Y-101775060D01*
X21809020Y-104809980D02*
X21809020Y-111090020D01*
X23469000Y-112750000D02*
X25527000Y-112750000D01*
X21809020Y-111090020D02*
X23469000Y-112750000D01*
X64954999Y-104871997D02*
X62158072Y-102075070D01*
X64954999Y-106314999D02*
X64954999Y-104871997D01*
X65930000Y-107290000D02*
X64954999Y-106314999D01*
X62158072Y-102075070D02*
X51340930Y-102075070D01*
X22109030Y-109993030D02*
X23366000Y-111250000D01*
X22109030Y-105144970D02*
X22109030Y-109993030D01*
X25178930Y-102075070D02*
X22109030Y-105144970D01*
X23366000Y-111250000D02*
X25000000Y-111250000D01*
X51340930Y-102075070D02*
X25178930Y-102075070D01*
X62414999Y-103943999D02*
X60846080Y-102375080D01*
X62414999Y-106314999D02*
X62414999Y-103943999D01*
X63390000Y-107290000D02*
X62414999Y-106314999D01*
X60846080Y-102375080D02*
X25303198Y-102375080D01*
X25303198Y-102375080D02*
X22479000Y-105199278D01*
X22479000Y-105199278D02*
X22479000Y-109728000D01*
X23501000Y-110750000D02*
X25527000Y-110750000D01*
X22479000Y-109728000D02*
X23501000Y-110750000D01*
X61318001Y-124265001D02*
X55812001Y-124265001D01*
X61825001Y-123758001D02*
X61318001Y-124265001D01*
X61825001Y-122314999D02*
X61825001Y-123758001D01*
X63390000Y-120750000D02*
X61825001Y-122314999D01*
X52297000Y-120750000D02*
X34500000Y-120750000D01*
X55812001Y-124265001D02*
X52297000Y-120750000D01*
X63557991Y-124565011D02*
X55477011Y-124565011D01*
X65180001Y-121499999D02*
X65180001Y-122017999D01*
X64365001Y-123758001D02*
X63557991Y-124565011D01*
X64365001Y-122832999D02*
X64365001Y-123758001D01*
X65180001Y-122017999D02*
X64365001Y-122832999D01*
X65930000Y-120750000D02*
X65180001Y-121499999D01*
X52162000Y-121250000D02*
X35000000Y-121250000D01*
X55477011Y-124565011D02*
X52162000Y-121250000D01*
X52154000Y-121750000D02*
X34460000Y-121750000D01*
X67494999Y-121725001D02*
X67494999Y-123168003D01*
X55372000Y-124968000D02*
X52154000Y-121750000D01*
X65695002Y-124968000D02*
X55372000Y-124968000D01*
X67494999Y-123168003D02*
X65695002Y-124968000D01*
X68470000Y-120750000D02*
X67494999Y-121725001D01*
X52229722Y-122250000D02*
X35000000Y-122250000D01*
X69445001Y-123758001D02*
X67854002Y-125349000D01*
X69445001Y-122314999D02*
X69445001Y-123758001D01*
X55328722Y-125349000D02*
X52229722Y-122250000D01*
X67854002Y-125349000D02*
X55328722Y-125349000D01*
X71010000Y-120750000D02*
X69445001Y-122314999D01*
X71985001Y-123758001D02*
X70013002Y-125730000D01*
X71985001Y-122314999D02*
X71985001Y-123758001D01*
X73550000Y-120750000D02*
X71985001Y-122314999D01*
X70013002Y-125730000D02*
X55245000Y-125730000D01*
X52265000Y-122750000D02*
X34500000Y-122750000D01*
X55245000Y-125730000D02*
X52265000Y-122750000D01*
X54529010Y-126030010D02*
X51749000Y-123250000D01*
X72252992Y-126030010D02*
X54529010Y-126030010D01*
X75114999Y-123168003D02*
X72252992Y-126030010D01*
X75114999Y-121725001D02*
X75114999Y-123168003D01*
X51749000Y-123250000D02*
X35000000Y-123250000D01*
X76090000Y-120750000D02*
X75114999Y-121725001D01*
X74492982Y-126330020D02*
X53686020Y-126330020D01*
X77654999Y-123168003D02*
X74492982Y-126330020D01*
X77654999Y-121725001D02*
X77654999Y-123168003D01*
X78630000Y-120750000D02*
X77654999Y-121725001D01*
X52106000Y-124750000D02*
X34500000Y-124750000D01*
X53686020Y-126330020D02*
X52106000Y-124750000D01*
X79605001Y-122314999D02*
X79605001Y-123758001D01*
X79605001Y-123758001D02*
X76732972Y-126630030D01*
X81170000Y-120750000D02*
X79605001Y-122314999D01*
X76732972Y-126630030D02*
X53224030Y-126630030D01*
X51844000Y-125250000D02*
X35000000Y-125250000D01*
X53224030Y-126630030D02*
X51844000Y-125250000D01*
X76822992Y-142540010D02*
X52624010Y-142540010D01*
X79605001Y-139758001D02*
X76822992Y-142540010D01*
X79605001Y-138314999D02*
X79605001Y-139758001D01*
X81170000Y-136750000D02*
X79605001Y-138314999D01*
X44334000Y-134250000D02*
X35000000Y-134250000D01*
X52624010Y-142540010D02*
X44334000Y-134250000D01*
X77065001Y-139758001D02*
X74583002Y-142240000D01*
X77065001Y-139375659D02*
X77065001Y-139758001D01*
X78630000Y-137810660D02*
X77065001Y-139375659D01*
X78630000Y-136750000D02*
X78630000Y-137810660D01*
X74583002Y-142240000D02*
X53086000Y-142240000D01*
X44596000Y-133750000D02*
X34500000Y-133750000D01*
X53086000Y-142240000D02*
X44596000Y-133750000D01*
X72517952Y-141765050D02*
X53373050Y-141765050D01*
X74525001Y-139758001D02*
X72517952Y-141765050D01*
X74525001Y-138314999D02*
X74525001Y-139758001D01*
X76090000Y-136750000D02*
X74525001Y-138314999D01*
X44858000Y-133250000D02*
X35000000Y-133250000D01*
X53373050Y-141765050D02*
X44858000Y-133250000D01*
X70277962Y-141465040D02*
X53835040Y-141465040D01*
X71985001Y-139375659D02*
X71985001Y-139758001D01*
X73550000Y-137810660D02*
X71985001Y-139375659D01*
X71985001Y-139758001D02*
X70277962Y-141465040D01*
X73550000Y-136750000D02*
X73550000Y-137810660D01*
X45120000Y-132750000D02*
X34500000Y-132750000D01*
X53835040Y-141465040D02*
X45120000Y-132750000D01*
X45509000Y-132250000D02*
X35000000Y-132250000D01*
X54424031Y-141165031D02*
X45509000Y-132250000D01*
X68037971Y-141165031D02*
X54424031Y-141165031D01*
X69445001Y-139758001D02*
X68037971Y-141165031D01*
X69445001Y-138314999D02*
X69445001Y-139758001D01*
X71010000Y-136750000D02*
X69445001Y-138314999D01*
X65797981Y-140865021D02*
X54759021Y-140865021D01*
X67494999Y-139168003D02*
X65797981Y-140865021D01*
X67494999Y-137725001D02*
X67494999Y-139168003D01*
X68470000Y-136750000D02*
X67494999Y-137725001D01*
X45644000Y-131750000D02*
X34500000Y-131750000D01*
X54759021Y-140865021D02*
X45644000Y-131750000D01*
X63557991Y-140565011D02*
X55221011Y-140565011D01*
X64954999Y-139168003D02*
X63557991Y-140565011D01*
X64954999Y-137725001D02*
X64954999Y-139168003D01*
X65930000Y-136750000D02*
X64954999Y-137725001D01*
X45906000Y-131250000D02*
X35000000Y-131250000D01*
X55221011Y-140565011D02*
X45906000Y-131250000D01*
X46168000Y-130750000D02*
X34500000Y-130750000D01*
X55683001Y-140265001D02*
X46168000Y-130750000D01*
X61318001Y-140265001D02*
X55683001Y-140265001D01*
X61825001Y-139758001D02*
X61318001Y-140265001D01*
X61825001Y-138314999D02*
X61825001Y-139758001D01*
X63390000Y-136750000D02*
X61825001Y-138314999D01*
X84685001Y-152871997D02*
X91125998Y-146431000D01*
X84685001Y-154314999D02*
X84685001Y-152871997D01*
X83710000Y-155290000D02*
X84685001Y-154314999D01*
X91125998Y-146431000D02*
X114173000Y-146431000D01*
X114173000Y-146431000D02*
X117602000Y-149860000D01*
X117602000Y-157099000D02*
X114976010Y-159724990D01*
X117602000Y-149860000D02*
X117602000Y-157099000D01*
X22564990Y-159724990D02*
X20275010Y-157435010D01*
X114976010Y-159724990D02*
X22564990Y-159724990D01*
X20275010Y-157435010D02*
X20275010Y-146602990D01*
X22128000Y-144750000D02*
X20275010Y-146602990D01*
X25500000Y-144750000D02*
X22128000Y-144750000D01*
X22860000Y-159385000D02*
X20701000Y-157226000D01*
X114891722Y-159385000D02*
X22860000Y-159385000D01*
X20701000Y-157226000D02*
X20701000Y-146939000D01*
X117301990Y-156974732D02*
X114891722Y-159385000D01*
X20701000Y-146939000D02*
X22390000Y-145250000D01*
X22390000Y-145250000D02*
X25000000Y-145250000D01*
X113965010Y-146731010D02*
X117301990Y-150067990D01*
X93365988Y-146731010D02*
X113965010Y-146731010D01*
X87814999Y-152281999D02*
X93365988Y-146731010D01*
X87814999Y-153725001D02*
X87814999Y-152281999D01*
X117301990Y-150067990D02*
X117301990Y-156974732D01*
X86250000Y-155290000D02*
X87814999Y-153725001D01*
X23281444Y-159044444D02*
X21209000Y-156972000D01*
X22479000Y-145669000D02*
X22560000Y-145750000D01*
X114808000Y-159004000D02*
X114808000Y-159044444D01*
X22560000Y-145750000D02*
X25500000Y-145750000D01*
X117001980Y-156810020D02*
X114808000Y-159004000D01*
X90354999Y-153725001D02*
X90354999Y-152281999D01*
X117001980Y-150275980D02*
X117001980Y-156810020D01*
X21209000Y-156972000D02*
X21209000Y-146939000D01*
X95605978Y-147031020D02*
X113757020Y-147031020D01*
X88790000Y-155290000D02*
X90354999Y-153725001D01*
X21209000Y-146939000D02*
X22479000Y-145669000D01*
X113757020Y-147031020D02*
X117001980Y-150275980D01*
X114808000Y-159044444D02*
X23281444Y-159044444D01*
X90354999Y-152281999D02*
X95605978Y-147031020D01*
X22660000Y-146250000D02*
X25000000Y-146250000D01*
X21717000Y-147193000D02*
X22660000Y-146250000D01*
X23405712Y-158744434D02*
X21717000Y-157055722D01*
X114559566Y-158744434D02*
X23405712Y-158744434D01*
X113422030Y-147331030D02*
X116586000Y-150495000D01*
X116586000Y-156718000D02*
X114559566Y-158744434D01*
X91330000Y-155290000D02*
X92305001Y-154314999D01*
X116586000Y-150495000D02*
X116586000Y-156718000D01*
X21717000Y-157055722D02*
X21717000Y-147193000D01*
X97845968Y-147331030D02*
X113422030Y-147331030D01*
X92305001Y-152871997D02*
X97845968Y-147331030D01*
X92305001Y-154314999D02*
X92305001Y-152871997D01*
X94845001Y-152871997D02*
X100085958Y-147631040D01*
X94845001Y-154314999D02*
X94845001Y-152871997D01*
X93870000Y-155290000D02*
X94845001Y-154314999D01*
X100085958Y-147631040D02*
X113297762Y-147631040D01*
X113297762Y-147631040D02*
X116183361Y-150516639D01*
X116205000Y-150538278D02*
X116205000Y-156674722D01*
X116183361Y-150516639D02*
X116205000Y-150538278D01*
X116205000Y-156674722D02*
X114510722Y-158369000D01*
X25500000Y-146750000D02*
X22922000Y-146750000D01*
X22922000Y-146750000D02*
X22098000Y-147574000D01*
X22098000Y-147574000D02*
X22098000Y-156972000D01*
X114510722Y-158369000D02*
X40381000Y-158369000D01*
X33655000Y-158369000D02*
X23495000Y-158369000D01*
X40381000Y-158369000D02*
X33655000Y-158369000D01*
X22098000Y-156972000D02*
X23495000Y-158369000D01*
X97159999Y-154540001D02*
X96410000Y-155290000D01*
X97385001Y-154314999D02*
X97159999Y-154540001D01*
X102325948Y-147931050D02*
X97385001Y-152871997D01*
X115697000Y-156464000D02*
X115697000Y-150495000D01*
X114173000Y-157988000D02*
X115697000Y-156464000D01*
X115697000Y-150495000D02*
X113133050Y-147931050D01*
X22479000Y-147955000D02*
X22479000Y-156718000D01*
X97385001Y-152871997D02*
X97385001Y-154314999D01*
X23749000Y-157988000D02*
X114173000Y-157988000D01*
X22479000Y-156718000D02*
X23749000Y-157988000D01*
X25000000Y-147250000D02*
X23184000Y-147250000D01*
X23184000Y-147250000D02*
X22479000Y-147955000D01*
X113133050Y-147931050D02*
X102325948Y-147931050D01*
X22987000Y-156671990D02*
X22987000Y-149479000D01*
X99925001Y-152296999D02*
X103990940Y-148231060D01*
X24003000Y-157687990D02*
X22987000Y-156671990D01*
X114048732Y-157687990D02*
X24003000Y-157687990D01*
X113008782Y-148231060D02*
X115396990Y-150619268D01*
X98950000Y-155290000D02*
X99925001Y-154314999D01*
X103990940Y-148231060D02*
X113008782Y-148231060D01*
X23716000Y-148750000D02*
X25500000Y-148750000D01*
X22987000Y-149479000D02*
X23716000Y-148750000D01*
X115396990Y-150619268D02*
X115396990Y-156339732D01*
X99925001Y-154314999D02*
X99925001Y-152296999D01*
X115396990Y-156339732D02*
X114048732Y-157687990D01*
X25000000Y-149250000D02*
X24105000Y-149250000D01*
X24105000Y-149250000D02*
X23368000Y-149987000D01*
X23368000Y-149987000D02*
X23368000Y-156337000D01*
X23368000Y-156337000D02*
X24418980Y-157387980D01*
X24418980Y-157387980D02*
X113884020Y-157387980D01*
X114935000Y-156337000D02*
X114935000Y-150581556D01*
X113884020Y-157387980D02*
X114935000Y-156337000D01*
X114935000Y-150581556D02*
X112884514Y-148531070D01*
X102239999Y-154540001D02*
X101490000Y-155290000D01*
X106805928Y-148531070D02*
X102465001Y-152871997D01*
X102465001Y-154314999D02*
X102239999Y-154540001D01*
X102465001Y-152871997D02*
X102465001Y-154314999D01*
X112884514Y-148531070D02*
X106805928Y-148531070D01*
M02*
