%TF.GenerationSoftware,KiCad,Pcbnew,(5.1.5-0-10_14)*%
%TF.CreationDate,2020-01-28T13:49:23+01:00*%
%TF.ProjectId,multiblade_adapter,6d756c74-6962-46c6-9164-655f61646170,rev?*%
%TF.SameCoordinates,Original*%
%TF.FileFunction,Copper,L1,Top*%
%TF.FilePolarity,Positive*%
%FSLAX46Y46*%
G04 Gerber Fmt 4.6, Leading zero omitted, Abs format (unit mm)*
G04 Created by KiCad (PCBNEW (5.1.5-0-10_14)) date 2020-01-28 13:49:23*
%MOMM*%
%LPD*%
G04 APERTURE LIST*
%ADD10C,1.500000*%
%ADD11C,0.400000*%
%ADD12C,0.150000*%
G04 APERTURE END LIST*
D10*
X109110000Y-107290000D03*
X109110000Y-104750000D03*
X106570000Y-107290000D03*
X106570000Y-104750000D03*
X104030000Y-107290000D03*
X104030000Y-104750000D03*
X101490000Y-107290000D03*
X101490000Y-104750000D03*
X98950000Y-107290000D03*
X98950000Y-104750000D03*
X96410000Y-107290000D03*
X96410000Y-104750000D03*
X93870000Y-107290000D03*
X93870000Y-104750000D03*
X91330000Y-107290000D03*
X91330000Y-104750000D03*
X88790000Y-107290000D03*
X88790000Y-104750000D03*
X86250000Y-107290000D03*
X86250000Y-104750000D03*
X83710000Y-107290000D03*
X83710000Y-104750000D03*
X81170000Y-107290000D03*
X81170000Y-104750000D03*
X78630000Y-107290000D03*
X78630000Y-104750000D03*
X76090000Y-107290000D03*
X76090000Y-104750000D03*
X73550000Y-107290000D03*
X73550000Y-104750000D03*
X71010000Y-107290000D03*
X71010000Y-104750000D03*
X68470000Y-107290000D03*
X68470000Y-104750000D03*
X65930000Y-107290000D03*
X65930000Y-104750000D03*
X63390000Y-107290000D03*
X63390000Y-104750000D03*
X60850000Y-107290000D03*
X60850000Y-104750000D03*
X109110000Y-123290000D03*
X109110000Y-120750000D03*
X106570000Y-123290000D03*
X106570000Y-120750000D03*
X104030000Y-123290000D03*
X104030000Y-120750000D03*
X101490000Y-123290000D03*
X101490000Y-120750000D03*
X98950000Y-123290000D03*
X98950000Y-120750000D03*
X96410000Y-123290000D03*
X96410000Y-120750000D03*
X93870000Y-123290000D03*
X93870000Y-120750000D03*
X91330000Y-123290000D03*
X91330000Y-120750000D03*
X88790000Y-123290000D03*
X88790000Y-120750000D03*
X86250000Y-123290000D03*
X86250000Y-120750000D03*
X83710000Y-123290000D03*
X83710000Y-120750000D03*
X81170000Y-123290000D03*
X81170000Y-120750000D03*
X78630000Y-123290000D03*
X78630000Y-120750000D03*
X76090000Y-123290000D03*
X76090000Y-120750000D03*
X73550000Y-123290000D03*
X73550000Y-120750000D03*
X71010000Y-123290000D03*
X71010000Y-120750000D03*
X68470000Y-123290000D03*
X68470000Y-120750000D03*
X65930000Y-123290000D03*
X65930000Y-120750000D03*
X63390000Y-123290000D03*
X63390000Y-120750000D03*
X60850000Y-123290000D03*
X60850000Y-120750000D03*
X109110000Y-139290000D03*
X109110000Y-136750000D03*
X106570000Y-139290000D03*
X106570000Y-136750000D03*
X104030000Y-139290000D03*
X104030000Y-136750000D03*
X101490000Y-139290000D03*
X101490000Y-136750000D03*
X98950000Y-139290000D03*
X98950000Y-136750000D03*
X96410000Y-139290000D03*
X96410000Y-136750000D03*
X93870000Y-139290000D03*
X93870000Y-136750000D03*
X91330000Y-139290000D03*
X91330000Y-136750000D03*
X88790000Y-139290000D03*
X88790000Y-136750000D03*
X86250000Y-139290000D03*
X86250000Y-136750000D03*
X83710000Y-139290000D03*
X83710000Y-136750000D03*
X81170000Y-139290000D03*
X81170000Y-136750000D03*
X78630000Y-139290000D03*
X78630000Y-136750000D03*
X76090000Y-139290000D03*
X76090000Y-136750000D03*
X73550000Y-139290000D03*
X73550000Y-136750000D03*
X71010000Y-139290000D03*
X71010000Y-136750000D03*
X68470000Y-139290000D03*
X68470000Y-136750000D03*
X65930000Y-139290000D03*
X65930000Y-136750000D03*
X63390000Y-139290000D03*
X63390000Y-136750000D03*
X60850000Y-139290000D03*
X60850000Y-136750000D03*
X109110000Y-155290000D03*
X109110000Y-152750000D03*
X106570000Y-155290000D03*
X106570000Y-152750000D03*
X104030000Y-155290000D03*
X104030000Y-152750000D03*
X101490000Y-155290000D03*
X101490000Y-152750000D03*
X98950000Y-155290000D03*
X98950000Y-152750000D03*
X96410000Y-155290000D03*
X96410000Y-152750000D03*
X93870000Y-155290000D03*
X93870000Y-152750000D03*
X91330000Y-155290000D03*
X91330000Y-152750000D03*
X88790000Y-155290000D03*
X88790000Y-152750000D03*
X86250000Y-155290000D03*
X86250000Y-152750000D03*
X83710000Y-155290000D03*
X83710000Y-152750000D03*
X81170000Y-155290000D03*
X81170000Y-152750000D03*
X78630000Y-155290000D03*
X78630000Y-152750000D03*
X76090000Y-155290000D03*
X76090000Y-152750000D03*
X73550000Y-155290000D03*
X73550000Y-152750000D03*
X71010000Y-155290000D03*
X71010000Y-152750000D03*
X68470000Y-155290000D03*
X68470000Y-152750000D03*
X65930000Y-155290000D03*
X65930000Y-152750000D03*
X63390000Y-155290000D03*
X63390000Y-152750000D03*
X60850000Y-155290000D03*
X60850000Y-152750000D03*
D11*
X25500000Y-148000000D03*
X25500000Y-142000000D03*
X25500000Y-136000000D03*
X25500000Y-124000000D03*
X25500000Y-130000000D03*
X25500000Y-112000000D03*
X25500000Y-118000000D03*
X34500000Y-112000000D03*
X34500000Y-118000000D03*
X34500000Y-124000000D03*
X34500000Y-130000000D03*
X34500000Y-136000000D03*
X34500000Y-148000000D03*
X104013000Y-111760000D03*
X55626000Y-107315000D03*
X60850000Y-116823000D03*
X60850000Y-132190000D03*
X56038000Y-155290000D03*
X104030000Y-143273000D03*
X30000000Y-156182000D03*
X29972000Y-103886000D03*
X34500000Y-142000000D03*
X106736500Y-150043500D03*
X109333000Y-149987000D03*
X111760000Y-149987000D03*
X106570000Y-143239000D03*
X109110000Y-143239000D03*
X104013000Y-127127000D03*
X106570000Y-127110000D03*
X109110000Y-127110000D03*
X106570000Y-111743000D03*
X109093000Y-111760000D03*
X25000000Y-120250000D03*
X35000000Y-120250000D03*
X25500000Y-119750000D03*
X34500000Y-119750000D03*
X25000000Y-119250000D03*
X35000000Y-119250000D03*
X25522000Y-118750000D03*
X34500000Y-118750000D03*
X25000000Y-117250000D03*
X35000000Y-117250000D03*
X25500000Y-116750000D03*
X34500000Y-116750000D03*
X25000000Y-116250000D03*
X35000000Y-116250000D03*
X25500000Y-115750000D03*
X34500000Y-115750000D03*
X25000000Y-115250000D03*
X34864000Y-115250000D03*
X25500000Y-114750000D03*
X34500000Y-114750000D03*
X25000000Y-114250000D03*
X35000000Y-114250000D03*
X25500000Y-113750000D03*
X34500000Y-113750000D03*
X25000000Y-113250000D03*
X35000000Y-113250000D03*
X25527000Y-112750000D03*
X34500000Y-112750000D03*
X25000000Y-111250000D03*
X35000000Y-111250000D03*
X25527000Y-110750000D03*
X34500000Y-110750000D03*
X34500000Y-120750000D03*
X25500000Y-120750000D03*
X35000000Y-121250000D03*
X25054000Y-121250000D03*
X34460000Y-121750000D03*
X25500000Y-121750000D03*
X35000000Y-122250000D03*
X25197000Y-122250000D03*
X34500000Y-122750000D03*
X25500000Y-122750000D03*
X35000000Y-123250000D03*
X25086000Y-123250000D03*
X34500000Y-124750000D03*
X25500000Y-124750000D03*
X35000000Y-125250000D03*
X25000000Y-125250000D03*
X34500000Y-125750000D03*
X25500000Y-125750000D03*
X35000000Y-126250000D03*
X25007000Y-126250000D03*
X34500000Y-126750000D03*
X25500000Y-126750000D03*
X35000000Y-127250000D03*
X25000000Y-127250000D03*
X34500000Y-127750000D03*
X25500000Y-127750000D03*
X35000000Y-128250000D03*
X25000000Y-128250000D03*
X34500000Y-128750000D03*
X25500000Y-128750000D03*
X35000000Y-129250000D03*
X25000000Y-129250000D03*
X25000000Y-139250000D03*
X35000000Y-139250000D03*
X25500000Y-138750000D03*
X34500000Y-138750000D03*
X25000000Y-138250000D03*
X35000000Y-138250000D03*
X25500000Y-137750000D03*
X34500000Y-137750000D03*
X25000000Y-137250000D03*
X35000000Y-137250000D03*
X25500000Y-136750000D03*
X34500000Y-136750000D03*
X25000000Y-135250000D03*
X35000000Y-135250000D03*
X25500000Y-134750000D03*
X34500000Y-134750000D03*
X25008000Y-134250000D03*
X35000000Y-134250000D03*
X25508000Y-133750000D03*
X34500000Y-133750000D03*
X25000000Y-133250000D03*
X35000000Y-133250000D03*
X25500000Y-132750000D03*
X34500000Y-132750000D03*
X25000000Y-132250000D03*
X35000000Y-132250000D03*
X25500000Y-131750000D03*
X34500000Y-131750000D03*
X25000000Y-131250000D03*
X35000000Y-131250000D03*
X25500000Y-130750000D03*
X34500000Y-130750000D03*
X54991000Y-144145000D03*
X25500000Y-139750000D03*
X57277000Y-144145000D03*
X25000000Y-140250000D03*
X59944000Y-144145000D03*
X25500000Y-140750000D03*
X62865000Y-144399000D03*
X25000000Y-141250000D03*
X65405000Y-144526000D03*
X25525000Y-142750000D03*
X68326000Y-144653000D03*
X25000000Y-143250000D03*
X70660000Y-144780000D03*
X25541000Y-143750000D03*
X73279000Y-144907000D03*
X25000000Y-144250000D03*
X75779500Y-144819500D03*
X25500000Y-144750000D03*
X78359000Y-144780000D03*
X25000000Y-145250000D03*
X80899000Y-144859000D03*
X25500000Y-145750000D03*
X83566000Y-144907000D03*
X25000000Y-146250000D03*
X85900000Y-144780000D03*
X25500000Y-146750000D03*
X88606500Y-144946500D03*
X25000000Y-147250000D03*
X91107000Y-144907000D03*
X25500000Y-148750000D03*
X93726000Y-144986000D03*
X25000000Y-149250000D03*
D12*
X60850000Y-105810660D02*
X60850000Y-107290000D01*
X60850000Y-104750000D02*
X60850000Y-105810660D01*
X60850000Y-120750000D02*
X60850000Y-123290000D01*
X60850000Y-136750000D02*
X60850000Y-139290000D01*
X60850000Y-153810660D02*
X60850000Y-155290000D01*
X60850000Y-152750000D02*
X60850000Y-153810660D01*
X104030000Y-155290000D02*
X104030000Y-152750000D01*
X104030000Y-139290000D02*
X104030000Y-136750000D01*
X104030000Y-122229340D02*
X104030000Y-120750000D01*
X104030000Y-123290000D02*
X104030000Y-122229340D01*
X104030000Y-107290000D02*
X104030000Y-104750000D01*
X104030000Y-107290000D02*
X104030000Y-111743000D01*
X104030000Y-111743000D02*
X104013000Y-111760000D01*
X104013000Y-111760000D02*
X104030000Y-111743000D01*
X104013000Y-111760000D02*
X104013000Y-111760000D01*
X60850000Y-155290000D02*
X56038000Y-155290000D01*
X60850000Y-136750000D02*
X60850000Y-132190000D01*
X60850000Y-132063000D02*
X60960000Y-131953000D01*
X60850000Y-119689340D02*
X60833000Y-119672340D01*
X60850000Y-120750000D02*
X60850000Y-119689340D01*
X60850000Y-120750000D02*
X60850000Y-116823000D01*
X55626000Y-107315000D02*
X55626000Y-107315000D01*
X60850000Y-116823000D02*
X60850000Y-116823000D01*
X60850000Y-132190000D02*
X60850000Y-132063000D01*
X56038000Y-155290000D02*
X55849000Y-155290000D01*
X104030000Y-139290000D02*
X104030000Y-143273000D01*
X104030000Y-143273000D02*
X104030000Y-143273000D01*
X106570000Y-136750000D02*
X106570000Y-139290000D01*
X106570000Y-139290000D02*
X106570000Y-143239000D01*
X109110000Y-136750000D02*
X109110000Y-139290000D01*
X109110000Y-139290000D02*
X109110000Y-143239000D01*
X109110000Y-154229340D02*
X109110000Y-152750000D01*
X109110000Y-155290000D02*
X109110000Y-154229340D01*
X109110000Y-152750000D02*
X111760000Y-150100000D01*
X111760000Y-150100000D02*
X111760000Y-149987000D01*
X106570000Y-154229340D02*
X106570000Y-152750000D01*
X106570000Y-155290000D02*
X106570000Y-154229340D01*
X106570000Y-152750000D02*
X109333000Y-149987000D01*
X104030000Y-152750000D02*
X106736500Y-150043500D01*
X106736500Y-150043500D02*
X106793000Y-149987000D01*
X109333000Y-149987000D02*
X109333000Y-149987000D01*
X111760000Y-149987000D02*
X111760000Y-149987000D01*
X106570000Y-143239000D02*
X106570000Y-143239000D01*
X109110000Y-143239000D02*
X109110000Y-143239000D01*
X106570000Y-121810660D02*
X106570000Y-123290000D01*
X106570000Y-120750000D02*
X106570000Y-121810660D01*
X109110000Y-120750000D02*
X109110000Y-123290000D01*
X109110000Y-123290000D02*
X109110000Y-127110000D01*
X106570000Y-123290000D02*
X106570000Y-127110000D01*
X104030000Y-124350660D02*
X104013000Y-124367660D01*
X104030000Y-123290000D02*
X104030000Y-124350660D01*
X104013000Y-124367660D02*
X104013000Y-127127000D01*
X104013000Y-127127000D02*
X104013000Y-127127000D01*
X106570000Y-127110000D02*
X106570000Y-127110000D01*
X109110000Y-127110000D02*
X109110000Y-127110000D01*
X106570000Y-104750000D02*
X106570000Y-107290000D01*
X106570000Y-107290000D02*
X106570000Y-111743000D01*
X109110000Y-104750000D02*
X109110000Y-107290000D01*
X106570000Y-111743000D02*
X106570000Y-111743000D01*
X109093000Y-111760000D02*
X109093000Y-111760000D01*
X55651000Y-107290000D02*
X55626000Y-107315000D01*
X60850000Y-107290000D02*
X55651000Y-107290000D01*
X109110000Y-111743000D02*
X109093000Y-111760000D01*
X109110000Y-107290000D02*
X109110000Y-111743000D01*
X20275010Y-118573010D02*
X21952000Y-120250000D01*
X20275010Y-104565990D02*
X20275010Y-118573010D01*
X97735010Y-100275010D02*
X24565990Y-100275010D01*
X21952000Y-120250000D02*
X25000000Y-120250000D01*
X99925001Y-102465001D02*
X97735010Y-100275010D01*
X24565990Y-100275010D02*
X20275010Y-104565990D01*
X99925001Y-104664341D02*
X99925001Y-102465001D01*
X101490000Y-106229340D02*
X99925001Y-104664341D01*
X101490000Y-107290000D02*
X101490000Y-106229340D01*
X20575020Y-118448742D02*
X21876278Y-119750000D01*
X20575020Y-104690258D02*
X20575020Y-118448742D01*
X24690258Y-100575020D02*
X20575020Y-104690258D01*
X95241020Y-100575020D02*
X24690258Y-100575020D01*
X21876278Y-119750000D02*
X25500000Y-119750000D01*
X97385001Y-102719001D02*
X95241020Y-100575020D01*
X97385001Y-104628003D02*
X97385001Y-102719001D01*
X98950000Y-106193002D02*
X97385001Y-104628003D01*
X98950000Y-107290000D02*
X98950000Y-106193002D01*
X20875030Y-117903030D02*
X22222000Y-119250000D01*
X20875030Y-104981970D02*
X20875030Y-117903030D01*
X24981970Y-100875030D02*
X20875030Y-104981970D01*
X96410000Y-107290000D02*
X94845001Y-105725001D01*
X94845001Y-102973001D02*
X92747030Y-100875030D01*
X94845001Y-105725001D02*
X94845001Y-102973001D01*
X22222000Y-119250000D02*
X25000000Y-119250000D01*
X92747030Y-100875030D02*
X24981970Y-100875030D01*
X92305001Y-105725001D02*
X92305001Y-103608001D01*
X93870000Y-107290000D02*
X92305001Y-105725001D01*
X92305001Y-103608001D02*
X90043000Y-101346000D01*
X90043000Y-101346000D02*
X24935278Y-101346000D01*
X21209000Y-105072278D02*
X21209000Y-117094000D01*
X24935278Y-101346000D02*
X21209000Y-105072278D01*
X22865000Y-118750000D02*
X25522000Y-118750000D01*
X21209000Y-117094000D02*
X22865000Y-118750000D01*
X90354999Y-104871997D02*
X87129012Y-101646010D01*
X90354999Y-106314999D02*
X90354999Y-104871997D01*
X91330000Y-107290000D02*
X90354999Y-106314999D01*
X87129012Y-101646010D02*
X25059546Y-101646010D01*
X25059546Y-101646010D02*
X21509010Y-105196546D01*
X21509010Y-105196546D02*
X21509010Y-116378010D01*
X22381000Y-117250000D02*
X25000000Y-117250000D01*
X21509010Y-116378010D02*
X22381000Y-117250000D01*
X87814999Y-104871997D02*
X85051002Y-102108000D01*
X87814999Y-106314999D02*
X87814999Y-104871997D01*
X88790000Y-107290000D02*
X87814999Y-106314999D01*
X85051002Y-102108000D02*
X25021834Y-102108000D01*
X25021834Y-102108000D02*
X21809020Y-105320814D01*
X21809020Y-105320814D02*
X21809020Y-115916020D01*
X22643000Y-116750000D02*
X25500000Y-116750000D01*
X21809020Y-115916020D02*
X22643000Y-116750000D01*
X84685001Y-103862001D02*
X83439000Y-102616000D01*
X84685001Y-105725001D02*
X84685001Y-103862001D01*
X86250000Y-107290000D02*
X84685001Y-105725001D01*
X83439000Y-102616000D02*
X25146000Y-102616000D01*
X25146000Y-102616000D02*
X22109030Y-105652970D01*
X22109030Y-105652970D02*
X22109030Y-115327030D01*
X23032000Y-116250000D02*
X25000000Y-116250000D01*
X22109030Y-115327030D02*
X23032000Y-116250000D01*
X22409040Y-114738040D02*
X23421000Y-115750000D01*
X25189278Y-102997000D02*
X22409040Y-105777238D01*
X80860002Y-102997000D02*
X25189278Y-102997000D01*
X22409040Y-105777238D02*
X22409040Y-114738040D01*
X82145001Y-104281999D02*
X80860002Y-102997000D01*
X82145001Y-105725001D02*
X82145001Y-104281999D01*
X23421000Y-115750000D02*
X25500000Y-115750000D01*
X83710000Y-107290000D02*
X82145001Y-105725001D01*
X34782842Y-125750000D02*
X34500000Y-125750000D01*
X82145001Y-123758001D02*
X80153002Y-125750000D01*
X82145001Y-122314999D02*
X82145001Y-123758001D01*
X80153002Y-125750000D02*
X34782842Y-125750000D01*
X83710000Y-120750000D02*
X82145001Y-122314999D01*
X35282842Y-126250000D02*
X35000000Y-126250000D01*
X84685001Y-123975999D02*
X82411000Y-126250000D01*
X84685001Y-122314999D02*
X84685001Y-123975999D01*
X82411000Y-126250000D02*
X35282842Y-126250000D01*
X86250000Y-120750000D02*
X84685001Y-122314999D01*
X87225001Y-122314999D02*
X87225001Y-124102999D01*
X88790000Y-120750000D02*
X87225001Y-122314999D01*
X84578000Y-126750000D02*
X34500000Y-126750000D01*
X87225001Y-124102999D02*
X84578000Y-126750000D01*
X89765001Y-123758001D02*
X86269002Y-127254000D01*
X89765001Y-122314999D02*
X89765001Y-123758001D01*
X91330000Y-120750000D02*
X89765001Y-122314999D01*
X86265002Y-127250000D02*
X35000000Y-127250000D01*
X86269002Y-127254000D02*
X86265002Y-127250000D01*
X92305001Y-123758001D02*
X88301002Y-127762000D01*
X92305001Y-122314999D02*
X92305001Y-123758001D01*
X93870000Y-120750000D02*
X92305001Y-122314999D01*
X88289002Y-127750000D02*
X34500000Y-127750000D01*
X88301002Y-127762000D02*
X88289002Y-127750000D01*
X35282842Y-128250000D02*
X35000000Y-128250000D01*
X94845001Y-123758001D02*
X90353002Y-128250000D01*
X90353002Y-128250000D02*
X35282842Y-128250000D01*
X94845001Y-122314999D02*
X94845001Y-123758001D01*
X96410000Y-120750000D02*
X94845001Y-122314999D01*
X97385001Y-123758001D02*
X92365002Y-128778000D01*
X97385001Y-122314999D02*
X97385001Y-123758001D01*
X98950000Y-120750000D02*
X97385001Y-122314999D01*
X92337002Y-128750000D02*
X34500000Y-128750000D01*
X92365002Y-128778000D02*
X92337002Y-128750000D01*
X99925001Y-123758001D02*
X94397002Y-129286000D01*
X99925001Y-122314999D02*
X99925001Y-123758001D01*
X101490000Y-120750000D02*
X99925001Y-122314999D01*
X94361002Y-129250000D02*
X35000000Y-129250000D01*
X94397002Y-129286000D02*
X94361002Y-129250000D01*
X96612933Y-143070069D02*
X47947069Y-143070069D01*
X100514999Y-139168003D02*
X96612933Y-143070069D01*
X100514999Y-137725001D02*
X100514999Y-139168003D01*
X101490000Y-136750000D02*
X100514999Y-137725001D01*
X44127000Y-139250000D02*
X35000000Y-139250000D01*
X47947069Y-143070069D02*
X44127000Y-139250000D01*
X94372943Y-142770059D02*
X48409059Y-142770059D01*
X97974999Y-139168003D02*
X94372943Y-142770059D01*
X97974999Y-137725001D02*
X97974999Y-139168003D01*
X98950000Y-136750000D02*
X97974999Y-137725001D01*
X44389000Y-138750000D02*
X34500000Y-138750000D01*
X48409059Y-142770059D02*
X44389000Y-138750000D01*
X95434999Y-139168003D02*
X92132953Y-142470049D01*
X95434999Y-137725001D02*
X95434999Y-139168003D01*
X92132953Y-142470049D02*
X48617049Y-142470049D01*
X96410000Y-136750000D02*
X95434999Y-137725001D01*
X44397000Y-138250000D02*
X35000000Y-138250000D01*
X48617049Y-142470049D02*
X44397000Y-138250000D01*
X89892963Y-142170039D02*
X49206039Y-142170039D01*
X92305001Y-138314999D02*
X92305001Y-139758001D01*
X92305001Y-139758001D02*
X89892963Y-142170039D01*
X93870000Y-136750000D02*
X92305001Y-138314999D01*
X44786000Y-137750000D02*
X34500000Y-137750000D01*
X49206039Y-142170039D02*
X44786000Y-137750000D01*
X87652973Y-141870029D02*
X49541029Y-141870029D01*
X89765001Y-139758001D02*
X87652973Y-141870029D01*
X89765001Y-138314999D02*
X89765001Y-139758001D01*
X91330000Y-136750000D02*
X89765001Y-138314999D01*
X44921000Y-137250000D02*
X35000000Y-137250000D01*
X49541029Y-141870029D02*
X44921000Y-137250000D01*
X85412982Y-141570020D02*
X50257020Y-141570020D01*
X87814999Y-137725001D02*
X87814999Y-139168003D01*
X87814999Y-139168003D02*
X85412982Y-141570020D01*
X88790000Y-136750000D02*
X87814999Y-137725001D01*
X45437000Y-136750000D02*
X34500000Y-136750000D01*
X50257020Y-141570020D02*
X45437000Y-136750000D01*
X85274999Y-139168003D02*
X83172992Y-141270010D01*
X85274999Y-137725001D02*
X85274999Y-139168003D01*
X83172992Y-141270010D02*
X51481010Y-141270010D01*
X86250000Y-136750000D02*
X85274999Y-137725001D01*
X45461000Y-135250000D02*
X35000000Y-135250000D01*
X51481010Y-141270010D02*
X45461000Y-135250000D01*
X82734999Y-139168003D02*
X80933002Y-140970000D01*
X82734999Y-137725001D02*
X82734999Y-139168003D01*
X83710000Y-136750000D02*
X82734999Y-137725001D01*
X80933002Y-140970000D02*
X52832000Y-140970000D01*
X46612000Y-134750000D02*
X34500000Y-134750000D01*
X52832000Y-140970000D02*
X46612000Y-134750000D01*
X20275010Y-141776990D02*
X22302000Y-139750000D01*
X20275010Y-157054010D02*
X20275010Y-141776990D01*
X22945990Y-159724990D02*
X20275010Y-157054010D01*
X117602000Y-149860000D02*
X117602000Y-155067000D01*
X112944010Y-159724990D02*
X22945990Y-159724990D01*
X114173000Y-146431000D02*
X117602000Y-149860000D01*
X63390000Y-155290000D02*
X64954999Y-153725001D01*
X70805998Y-146431000D02*
X114173000Y-146431000D01*
X64954999Y-152281999D02*
X70805998Y-146431000D01*
X22302000Y-139750000D02*
X25500000Y-139750000D01*
X117602000Y-155067000D02*
X112944010Y-159724990D01*
X64954999Y-153725001D02*
X64954999Y-152281999D01*
X66905001Y-154314999D02*
X66905001Y-152871997D01*
X66905001Y-152871997D02*
X72964998Y-146812000D01*
X65930000Y-155290000D02*
X66905001Y-154314999D01*
X72964998Y-146812000D02*
X114129722Y-146812000D01*
X114129722Y-146812000D02*
X117301990Y-149984268D01*
X117301990Y-149984268D02*
X117301990Y-154859010D01*
X117301990Y-154859010D02*
X112776000Y-159385000D01*
X112776000Y-159385000D02*
X23030278Y-159385000D01*
X23030278Y-159385000D02*
X20575020Y-156929742D01*
X20575020Y-156929742D02*
X20575020Y-142111980D01*
X22437000Y-140250000D02*
X25000000Y-140250000D01*
X20575020Y-142111980D02*
X22437000Y-140250000D01*
X70034999Y-152281999D02*
X75204988Y-147112010D01*
X70034999Y-153725001D02*
X70034999Y-152281999D01*
X68470000Y-155290000D02*
X70034999Y-153725001D01*
X75204988Y-147112010D02*
X114005454Y-147112010D01*
X116967000Y-150073556D02*
X116967000Y-154769722D01*
X114005454Y-147112010D02*
X116967000Y-150073556D01*
X116967000Y-154769722D02*
X112651732Y-159084990D01*
X112651732Y-159084990D02*
X23154546Y-159084990D01*
X23154546Y-159084990D02*
X20955000Y-156885444D01*
X22401722Y-140750000D02*
X20955000Y-142196722D01*
X25500000Y-140750000D02*
X22401722Y-140750000D01*
X20955000Y-156885444D02*
X20955000Y-142200000D01*
X72574999Y-152281999D02*
X77282998Y-147574000D01*
X72574999Y-153725001D02*
X72574999Y-152281999D01*
X71010000Y-155290000D02*
X72574999Y-153725001D01*
X77282998Y-147574000D02*
X114043166Y-147574000D01*
X114043166Y-147574000D02*
X116666990Y-150197824D01*
X116666990Y-150197824D02*
X116666990Y-154605010D01*
X23278814Y-158784980D02*
X21255010Y-156761176D01*
X112487020Y-158784980D02*
X23278814Y-158784980D01*
X116666990Y-154605010D02*
X112487020Y-158784980D01*
X22326000Y-141250000D02*
X21255010Y-142320990D01*
X25000000Y-141250000D02*
X22326000Y-141250000D01*
X21255010Y-156761176D02*
X21255010Y-142320990D01*
X75114999Y-152281999D02*
X79522988Y-147874010D01*
X75114999Y-153725001D02*
X75114999Y-152281999D01*
X73550000Y-155290000D02*
X75114999Y-153725001D01*
X79522988Y-147874010D02*
X113918898Y-147874010D01*
X116205000Y-150160112D02*
X116205000Y-154559000D01*
X113918898Y-147874010D02*
X116205000Y-150160112D01*
X112395000Y-158369000D02*
X111760000Y-158369000D01*
X113093500Y-157670500D02*
X112395000Y-158369000D01*
X116205000Y-154559000D02*
X113093500Y-157670500D01*
X23287112Y-158369000D02*
X111760000Y-158369000D01*
X21636010Y-156717898D02*
X23287112Y-158369000D01*
X21636010Y-144098990D02*
X21636010Y-156717898D01*
X22985000Y-142750000D02*
X21636010Y-144098990D01*
X25525000Y-142750000D02*
X22985000Y-142750000D01*
X23501000Y-143250000D02*
X25000000Y-143250000D01*
X22098000Y-156718000D02*
X22098000Y-144653000D01*
X22098000Y-144653000D02*
X23501000Y-143250000D01*
X112351722Y-157988000D02*
X23368000Y-157988000D01*
X23368000Y-157988000D02*
X22098000Y-156718000D01*
X115904990Y-154434732D02*
X112351722Y-157988000D01*
X115904990Y-150284380D02*
X115904990Y-154434732D01*
X81727998Y-148209000D02*
X113829610Y-148209000D01*
X77654999Y-152281999D02*
X81727998Y-148209000D01*
X77654999Y-153725001D02*
X77654999Y-152281999D01*
X113829610Y-148209000D02*
X115904990Y-150284380D01*
X76090000Y-155290000D02*
X77654999Y-153725001D01*
X23763000Y-143750000D02*
X25541000Y-143750000D01*
X22479000Y-156591000D02*
X22479000Y-145034000D01*
X79605001Y-154314999D02*
X79605001Y-152871997D01*
X23495000Y-157607000D02*
X22479000Y-156591000D01*
X79605001Y-152871997D02*
X83886998Y-148590000D01*
X22479000Y-145034000D02*
X23763000Y-143750000D01*
X83886998Y-148590000D02*
X113538000Y-148590000D01*
X78630000Y-155290000D02*
X79605001Y-154314999D01*
X70136002Y-157607000D02*
X69977000Y-157607000D01*
X69977000Y-157607000D02*
X23495000Y-157607000D01*
X112014000Y-157607000D02*
X115379500Y-154241500D01*
X69977000Y-157607000D02*
X112014000Y-157607000D01*
X115379500Y-150431500D02*
X115443000Y-150495000D01*
X115379500Y-154241500D02*
X115379500Y-150431500D01*
X113538000Y-148590000D02*
X115379500Y-150431500D01*
X82145001Y-152871997D02*
X86045998Y-148971000D01*
X82145001Y-154314999D02*
X82145001Y-152871997D01*
X81170000Y-155290000D02*
X82145001Y-154314999D01*
X86045998Y-148971000D02*
X108077000Y-148971000D01*
X108077000Y-148971000D02*
X108204000Y-148971000D01*
X24279000Y-144250000D02*
X25000000Y-144250000D01*
X23876000Y-157226000D02*
X22860000Y-156210000D01*
X108077000Y-148971000D02*
X113494722Y-148971000D01*
X114935000Y-150411278D02*
X114935000Y-154261722D01*
X22860000Y-156210000D02*
X22860000Y-145669000D01*
X22860000Y-145669000D02*
X24279000Y-144250000D01*
X113494722Y-148971000D02*
X114935000Y-150411278D01*
X50165000Y-157226000D02*
X111887000Y-157226000D01*
X114935000Y-154261722D02*
X111887000Y-157226000D01*
X50165000Y-157226000D02*
X23876000Y-157226000D01*
M02*
