%TF.GenerationSoftware,KiCad,Pcbnew,(5.1.5-0-10_14)*%
%TF.CreationDate,2020-01-28T13:49:23+01:00*%
%TF.ProjectId,multiblade_adapter,6d756c74-6962-46c6-9164-655f61646170,rev?*%
%TF.SameCoordinates,Original*%
%TF.FileFunction,Soldermask,Bot*%
%TF.FilePolarity,Negative*%
%FSLAX46Y46*%
G04 Gerber Fmt 4.6, Leading zero omitted, Abs format (unit mm)*
G04 Created by KiCad (PCBNEW (5.1.5-0-10_14)) date 2020-01-28 13:49:23*
%MOMM*%
%LPD*%
G04 APERTURE LIST*
%ADD10R,3.100000X1.600000*%
%ADD11R,1.600000X0.700000*%
%ADD12R,1.600000X0.300000*%
%ADD13C,1.500000*%
G04 APERTURE END LIST*
D10*
X30000000Y-106050000D03*
X30000000Y-153950000D03*
D11*
X26950000Y-112000000D03*
X33050000Y-112000000D03*
X26950000Y-118000000D03*
X33050000Y-118000000D03*
X26950000Y-124000000D03*
X33050000Y-124000000D03*
X26950000Y-130000000D03*
X33050000Y-130000000D03*
X26950000Y-136000000D03*
X33050000Y-136000000D03*
X26950000Y-142000000D03*
X33050000Y-142000000D03*
X26950000Y-148000000D03*
X33050000Y-148000000D03*
D12*
X33050000Y-109250000D03*
X33050000Y-109750000D03*
X33050000Y-110250000D03*
X33050000Y-110750000D03*
X33050000Y-111250000D03*
X26950000Y-109250000D03*
X26950000Y-109750000D03*
X26950000Y-110250000D03*
X26950000Y-110750000D03*
X26950000Y-111250000D03*
X33050000Y-112750000D03*
X33050000Y-113250000D03*
X33050000Y-113750000D03*
X33050000Y-114250000D03*
X33050000Y-114750000D03*
X33050000Y-115250000D03*
X33050000Y-115750000D03*
X33050000Y-116250000D03*
X33050000Y-116750000D03*
X33050000Y-117250000D03*
X26950000Y-112750000D03*
X26950000Y-113250000D03*
X26950000Y-113750000D03*
X26950000Y-114250000D03*
X26950000Y-114750000D03*
X26950000Y-115250000D03*
X26950000Y-115750000D03*
X26950000Y-116250000D03*
X26950000Y-116750000D03*
X26950000Y-117250000D03*
X33050000Y-118750000D03*
X33050000Y-119250000D03*
X33050000Y-119750000D03*
X33050000Y-120250000D03*
X33050000Y-120750000D03*
X33050000Y-121250000D03*
X33050000Y-121750000D03*
X33050000Y-122250000D03*
X33050000Y-122750000D03*
X33050000Y-123250000D03*
X26950000Y-118750000D03*
X26950000Y-119250000D03*
X26950000Y-119750000D03*
X26950000Y-120250000D03*
X26950000Y-120750000D03*
X26950000Y-121250000D03*
X26950000Y-121750000D03*
X26950000Y-122250000D03*
X26950000Y-122750000D03*
X26950000Y-123250000D03*
X33050000Y-124750000D03*
X33050000Y-125250000D03*
X33050000Y-125750000D03*
X33050000Y-126250000D03*
X33050000Y-126750000D03*
X33050000Y-127250000D03*
X33050000Y-127750000D03*
X33050000Y-128250000D03*
X33050000Y-128750000D03*
X33050000Y-129250000D03*
X26950000Y-124750000D03*
X26950000Y-125250000D03*
X26950000Y-125750000D03*
X26950000Y-126250000D03*
X26950000Y-126750000D03*
X26950000Y-127250000D03*
X26950000Y-127750000D03*
X26950000Y-128250000D03*
X26950000Y-128750000D03*
X26950000Y-129250000D03*
X33050000Y-130750000D03*
X33050000Y-131250000D03*
X33050000Y-131750000D03*
X33050000Y-132250000D03*
X33050000Y-132750000D03*
X33050000Y-133250000D03*
X33050000Y-133750000D03*
X33050000Y-134250000D03*
X33050000Y-134750000D03*
X33050000Y-135250000D03*
X26950000Y-130750000D03*
X26950000Y-131250000D03*
X26950000Y-131750000D03*
X26950000Y-132250000D03*
X26950000Y-132750000D03*
X26950000Y-133250000D03*
X26950000Y-133750000D03*
X26950000Y-134250000D03*
X26950000Y-134750000D03*
X26950000Y-135250000D03*
X33050000Y-136750000D03*
X33050000Y-137250000D03*
X33050000Y-137750000D03*
X33050000Y-138250000D03*
X33050000Y-138750000D03*
X33050000Y-139250000D03*
X33050000Y-139750000D03*
X33050000Y-140250000D03*
X33050000Y-140750000D03*
X33050000Y-141250000D03*
X26950000Y-136750000D03*
X26950000Y-137250000D03*
X26950000Y-137750000D03*
X26950000Y-138250000D03*
X26950000Y-138750000D03*
X26950000Y-139250000D03*
X26950000Y-139750000D03*
X26950000Y-140250000D03*
X26950000Y-140750000D03*
X26950000Y-141250000D03*
X33050000Y-142750000D03*
X33050000Y-143250000D03*
X33050000Y-143750000D03*
X33050000Y-144250000D03*
X33050000Y-144750000D03*
X33050000Y-145250000D03*
X33050000Y-145750000D03*
X33050000Y-146250000D03*
X33050000Y-146750000D03*
X33050000Y-147250000D03*
X26950000Y-142750000D03*
X26950000Y-143250000D03*
X26950000Y-143750000D03*
X26950000Y-144250000D03*
X26950000Y-144750000D03*
X26950000Y-145250000D03*
X26950000Y-145750000D03*
X26950000Y-146250000D03*
X26950000Y-146750000D03*
X26950000Y-147250000D03*
X33050000Y-148750000D03*
X33050000Y-149250000D03*
X33050000Y-149750000D03*
X33050000Y-150250000D03*
X33050000Y-150750000D03*
X26950000Y-148750000D03*
X26950000Y-149250000D03*
X26950000Y-149750000D03*
X26950000Y-150250000D03*
X26950000Y-150750000D03*
D13*
X109110000Y-107290000D03*
X109110000Y-104750000D03*
X106570000Y-107290000D03*
X106570000Y-104750000D03*
X104030000Y-107290000D03*
X104030000Y-104750000D03*
X101490000Y-107290000D03*
X101490000Y-104750000D03*
X98950000Y-107290000D03*
X98950000Y-104750000D03*
X96410000Y-107290000D03*
X96410000Y-104750000D03*
X93870000Y-107290000D03*
X93870000Y-104750000D03*
X91330000Y-107290000D03*
X91330000Y-104750000D03*
X88790000Y-107290000D03*
X88790000Y-104750000D03*
X86250000Y-107290000D03*
X86250000Y-104750000D03*
X83710000Y-107290000D03*
X83710000Y-104750000D03*
X81170000Y-107290000D03*
X81170000Y-104750000D03*
X78630000Y-107290000D03*
X78630000Y-104750000D03*
X76090000Y-107290000D03*
X76090000Y-104750000D03*
X73550000Y-107290000D03*
X73550000Y-104750000D03*
X71010000Y-107290000D03*
X71010000Y-104750000D03*
X68470000Y-107290000D03*
X68470000Y-104750000D03*
X65930000Y-107290000D03*
X65930000Y-104750000D03*
X63390000Y-107290000D03*
X63390000Y-104750000D03*
X60850000Y-107290000D03*
X60850000Y-104750000D03*
X109110000Y-123290000D03*
X109110000Y-120750000D03*
X106570000Y-123290000D03*
X106570000Y-120750000D03*
X104030000Y-123290000D03*
X104030000Y-120750000D03*
X101490000Y-123290000D03*
X101490000Y-120750000D03*
X98950000Y-123290000D03*
X98950000Y-120750000D03*
X96410000Y-123290000D03*
X96410000Y-120750000D03*
X93870000Y-123290000D03*
X93870000Y-120750000D03*
X91330000Y-123290000D03*
X91330000Y-120750000D03*
X88790000Y-123290000D03*
X88790000Y-120750000D03*
X86250000Y-123290000D03*
X86250000Y-120750000D03*
X83710000Y-123290000D03*
X83710000Y-120750000D03*
X81170000Y-123290000D03*
X81170000Y-120750000D03*
X78630000Y-123290000D03*
X78630000Y-120750000D03*
X76090000Y-123290000D03*
X76090000Y-120750000D03*
X73550000Y-123290000D03*
X73550000Y-120750000D03*
X71010000Y-123290000D03*
X71010000Y-120750000D03*
X68470000Y-123290000D03*
X68470000Y-120750000D03*
X65930000Y-123290000D03*
X65930000Y-120750000D03*
X63390000Y-123290000D03*
X63390000Y-120750000D03*
X60850000Y-123290000D03*
X60850000Y-120750000D03*
X109110000Y-139290000D03*
X109110000Y-136750000D03*
X106570000Y-139290000D03*
X106570000Y-136750000D03*
X104030000Y-139290000D03*
X104030000Y-136750000D03*
X101490000Y-139290000D03*
X101490000Y-136750000D03*
X98950000Y-139290000D03*
X98950000Y-136750000D03*
X96410000Y-139290000D03*
X96410000Y-136750000D03*
X93870000Y-139290000D03*
X93870000Y-136750000D03*
X91330000Y-139290000D03*
X91330000Y-136750000D03*
X88790000Y-139290000D03*
X88790000Y-136750000D03*
X86250000Y-139290000D03*
X86250000Y-136750000D03*
X83710000Y-139290000D03*
X83710000Y-136750000D03*
X81170000Y-139290000D03*
X81170000Y-136750000D03*
X78630000Y-139290000D03*
X78630000Y-136750000D03*
X76090000Y-139290000D03*
X76090000Y-136750000D03*
X73550000Y-139290000D03*
X73550000Y-136750000D03*
X71010000Y-139290000D03*
X71010000Y-136750000D03*
X68470000Y-139290000D03*
X68470000Y-136750000D03*
X65930000Y-139290000D03*
X65930000Y-136750000D03*
X63390000Y-139290000D03*
X63390000Y-136750000D03*
X60850000Y-139290000D03*
X60850000Y-136750000D03*
X109110000Y-155290000D03*
X109110000Y-152750000D03*
X106570000Y-155290000D03*
X106570000Y-152750000D03*
X104030000Y-155290000D03*
X104030000Y-152750000D03*
X101490000Y-155290000D03*
X101490000Y-152750000D03*
X98950000Y-155290000D03*
X98950000Y-152750000D03*
X96410000Y-155290000D03*
X96410000Y-152750000D03*
X93870000Y-155290000D03*
X93870000Y-152750000D03*
X91330000Y-155290000D03*
X91330000Y-152750000D03*
X88790000Y-155290000D03*
X88790000Y-152750000D03*
X86250000Y-155290000D03*
X86250000Y-152750000D03*
X83710000Y-155290000D03*
X83710000Y-152750000D03*
X81170000Y-155290000D03*
X81170000Y-152750000D03*
X78630000Y-155290000D03*
X78630000Y-152750000D03*
X76090000Y-155290000D03*
X76090000Y-152750000D03*
X73550000Y-155290000D03*
X73550000Y-152750000D03*
X71010000Y-155290000D03*
X71010000Y-152750000D03*
X68470000Y-155290000D03*
X68470000Y-152750000D03*
X65930000Y-155290000D03*
X65930000Y-152750000D03*
X63390000Y-155290000D03*
X63390000Y-152750000D03*
X60850000Y-155290000D03*
X60850000Y-152750000D03*
M02*
