%TF.GenerationSoftware,KiCad,Pcbnew,(5.1.5-0-10_14)*%
%TF.CreationDate,2020-01-28T13:49:23+01:00*%
%TF.ProjectId,multiblade_adapter,6d756c74-6962-46c6-9164-655f61646170,rev?*%
%TF.SameCoordinates,Original*%
%TF.FileFunction,Soldermask,Top*%
%TF.FilePolarity,Negative*%
%FSLAX46Y46*%
G04 Gerber Fmt 4.6, Leading zero omitted, Abs format (unit mm)*
G04 Created by KiCad (PCBNEW (5.1.5-0-10_14)) date 2020-01-28 13:49:23*
%MOMM*%
%LPD*%
G04 APERTURE LIST*
%ADD10C,1.500000*%
G04 APERTURE END LIST*
D10*
X109110000Y-107290000D03*
X109110000Y-104750000D03*
X106570000Y-107290000D03*
X106570000Y-104750000D03*
X104030000Y-107290000D03*
X104030000Y-104750000D03*
X101490000Y-107290000D03*
X101490000Y-104750000D03*
X98950000Y-107290000D03*
X98950000Y-104750000D03*
X96410000Y-107290000D03*
X96410000Y-104750000D03*
X93870000Y-107290000D03*
X93870000Y-104750000D03*
X91330000Y-107290000D03*
X91330000Y-104750000D03*
X88790000Y-107290000D03*
X88790000Y-104750000D03*
X86250000Y-107290000D03*
X86250000Y-104750000D03*
X83710000Y-107290000D03*
X83710000Y-104750000D03*
X81170000Y-107290000D03*
X81170000Y-104750000D03*
X78630000Y-107290000D03*
X78630000Y-104750000D03*
X76090000Y-107290000D03*
X76090000Y-104750000D03*
X73550000Y-107290000D03*
X73550000Y-104750000D03*
X71010000Y-107290000D03*
X71010000Y-104750000D03*
X68470000Y-107290000D03*
X68470000Y-104750000D03*
X65930000Y-107290000D03*
X65930000Y-104750000D03*
X63390000Y-107290000D03*
X63390000Y-104750000D03*
X60850000Y-107290000D03*
X60850000Y-104750000D03*
X109110000Y-123290000D03*
X109110000Y-120750000D03*
X106570000Y-123290000D03*
X106570000Y-120750000D03*
X104030000Y-123290000D03*
X104030000Y-120750000D03*
X101490000Y-123290000D03*
X101490000Y-120750000D03*
X98950000Y-123290000D03*
X98950000Y-120750000D03*
X96410000Y-123290000D03*
X96410000Y-120750000D03*
X93870000Y-123290000D03*
X93870000Y-120750000D03*
X91330000Y-123290000D03*
X91330000Y-120750000D03*
X88790000Y-123290000D03*
X88790000Y-120750000D03*
X86250000Y-123290000D03*
X86250000Y-120750000D03*
X83710000Y-123290000D03*
X83710000Y-120750000D03*
X81170000Y-123290000D03*
X81170000Y-120750000D03*
X78630000Y-123290000D03*
X78630000Y-120750000D03*
X76090000Y-123290000D03*
X76090000Y-120750000D03*
X73550000Y-123290000D03*
X73550000Y-120750000D03*
X71010000Y-123290000D03*
X71010000Y-120750000D03*
X68470000Y-123290000D03*
X68470000Y-120750000D03*
X65930000Y-123290000D03*
X65930000Y-120750000D03*
X63390000Y-123290000D03*
X63390000Y-120750000D03*
X60850000Y-123290000D03*
X60850000Y-120750000D03*
X109110000Y-139290000D03*
X109110000Y-136750000D03*
X106570000Y-139290000D03*
X106570000Y-136750000D03*
X104030000Y-139290000D03*
X104030000Y-136750000D03*
X101490000Y-139290000D03*
X101490000Y-136750000D03*
X98950000Y-139290000D03*
X98950000Y-136750000D03*
X96410000Y-139290000D03*
X96410000Y-136750000D03*
X93870000Y-139290000D03*
X93870000Y-136750000D03*
X91330000Y-139290000D03*
X91330000Y-136750000D03*
X88790000Y-139290000D03*
X88790000Y-136750000D03*
X86250000Y-139290000D03*
X86250000Y-136750000D03*
X83710000Y-139290000D03*
X83710000Y-136750000D03*
X81170000Y-139290000D03*
X81170000Y-136750000D03*
X78630000Y-139290000D03*
X78630000Y-136750000D03*
X76090000Y-139290000D03*
X76090000Y-136750000D03*
X73550000Y-139290000D03*
X73550000Y-136750000D03*
X71010000Y-139290000D03*
X71010000Y-136750000D03*
X68470000Y-139290000D03*
X68470000Y-136750000D03*
X65930000Y-139290000D03*
X65930000Y-136750000D03*
X63390000Y-139290000D03*
X63390000Y-136750000D03*
X60850000Y-139290000D03*
X60850000Y-136750000D03*
X109110000Y-155290000D03*
X109110000Y-152750000D03*
X106570000Y-155290000D03*
X106570000Y-152750000D03*
X104030000Y-155290000D03*
X104030000Y-152750000D03*
X101490000Y-155290000D03*
X101490000Y-152750000D03*
X98950000Y-155290000D03*
X98950000Y-152750000D03*
X96410000Y-155290000D03*
X96410000Y-152750000D03*
X93870000Y-155290000D03*
X93870000Y-152750000D03*
X91330000Y-155290000D03*
X91330000Y-152750000D03*
X88790000Y-155290000D03*
X88790000Y-152750000D03*
X86250000Y-155290000D03*
X86250000Y-152750000D03*
X83710000Y-155290000D03*
X83710000Y-152750000D03*
X81170000Y-155290000D03*
X81170000Y-152750000D03*
X78630000Y-155290000D03*
X78630000Y-152750000D03*
X76090000Y-155290000D03*
X76090000Y-152750000D03*
X73550000Y-155290000D03*
X73550000Y-152750000D03*
X71010000Y-155290000D03*
X71010000Y-152750000D03*
X68470000Y-155290000D03*
X68470000Y-152750000D03*
X65930000Y-155290000D03*
X65930000Y-152750000D03*
X63390000Y-155290000D03*
X63390000Y-152750000D03*
X60850000Y-155290000D03*
X60850000Y-152750000D03*
M02*
