%TF.GenerationSoftware,KiCad,Pcbnew,(5.1.5-0-10_14)*%
%TF.CreationDate,2020-01-28T13:49:23+01:00*%
%TF.ProjectId,multiblade_adapter,6d756c74-6962-46c6-9164-655f61646170,rev?*%
%TF.SameCoordinates,Original*%
%TF.FileFunction,Legend,Bot*%
%TF.FilePolarity,Positive*%
%FSLAX46Y46*%
G04 Gerber Fmt 4.6, Leading zero omitted, Abs format (unit mm)*
G04 Created by KiCad (PCBNEW (5.1.5-0-10_14)) date 2020-01-28 13:49:23*
%MOMM*%
%LPD*%
G04 APERTURE LIST*
%ADD10C,0.250000*%
%ADD11C,0.150000*%
%ADD12C,0.200000*%
%ADD13C,0.254000*%
G04 APERTURE END LIST*
D10*
X27300000Y-108380000D02*
G75*
G03X27300000Y-108380000I-120000J0D01*
G01*
D11*
X26340000Y-107020000D02*
X26340000Y-106900000D01*
D12*
X28150000Y-105470000D02*
X26340000Y-107020000D01*
D13*
X33650000Y-105450000D02*
X31900000Y-105450000D01*
X26350000Y-105450000D02*
X28100000Y-105450000D01*
X26350000Y-154550000D02*
X26350000Y-151300000D01*
X26350000Y-105450000D02*
X26350000Y-108700000D01*
X26350000Y-154550000D02*
X28100000Y-154550000D01*
X33650000Y-105450000D02*
X33650000Y-108700000D01*
X33650000Y-154550000D02*
X31900000Y-154550000D01*
X33650000Y-154550000D02*
X33650000Y-151300000D01*
X29174523Y-149176666D02*
X30081666Y-149176666D01*
X30263095Y-149116190D01*
X30384047Y-148995238D01*
X30444523Y-148813809D01*
X30444523Y-148692857D01*
X29174523Y-150386190D02*
X29174523Y-149781428D01*
X29779285Y-149720952D01*
X29718809Y-149781428D01*
X29658333Y-149902380D01*
X29658333Y-150204761D01*
X29718809Y-150325714D01*
X29779285Y-150386190D01*
X29900238Y-150446666D01*
X30202619Y-150446666D01*
X30323571Y-150386190D01*
X30384047Y-150325714D01*
X30444523Y-150204761D01*
X30444523Y-149902380D01*
X30384047Y-149781428D01*
X30323571Y-149720952D01*
X29999285Y-130642380D02*
X29999285Y-130219047D01*
X30664523Y-130219047D02*
X29394523Y-130219047D01*
X29394523Y-130823809D01*
X29394523Y-131186666D02*
X30664523Y-132033333D01*
X29394523Y-132033333D02*
X30664523Y-131186666D01*
X30664523Y-133182380D02*
X30664523Y-132456666D01*
X30664523Y-132819523D02*
X29394523Y-132819523D01*
X29575952Y-132698571D01*
X29696904Y-132577619D01*
X29757380Y-132456666D01*
X29394523Y-133968571D02*
X29394523Y-134089523D01*
X29455000Y-134210476D01*
X29515476Y-134270952D01*
X29636428Y-134331428D01*
X29878333Y-134391904D01*
X30180714Y-134391904D01*
X30422619Y-134331428D01*
X30543571Y-134270952D01*
X30604047Y-134210476D01*
X30664523Y-134089523D01*
X30664523Y-133968571D01*
X30604047Y-133847619D01*
X30543571Y-133787142D01*
X30422619Y-133726666D01*
X30180714Y-133666190D01*
X29878333Y-133666190D01*
X29636428Y-133726666D01*
X29515476Y-133787142D01*
X29455000Y-133847619D01*
X29394523Y-133968571D01*
X30301666Y-134875714D02*
X30301666Y-135480476D01*
X30664523Y-134754761D02*
X29394523Y-135178095D01*
X30664523Y-135601428D01*
X30180714Y-136024761D02*
X30180714Y-136992380D01*
X30664523Y-138262380D02*
X30664523Y-137536666D01*
X30664523Y-137899523D02*
X29394523Y-137899523D01*
X29575952Y-137778571D01*
X29696904Y-137657619D01*
X29757380Y-137536666D01*
X29817857Y-139350952D02*
X30664523Y-139350952D01*
X29334047Y-139048571D02*
X30241190Y-138746190D01*
X30241190Y-139532380D01*
X29394523Y-140258095D02*
X29394523Y-140379047D01*
X29455000Y-140500000D01*
X29515476Y-140560476D01*
X29636428Y-140620952D01*
X29878333Y-140681428D01*
X30180714Y-140681428D01*
X30422619Y-140620952D01*
X30543571Y-140560476D01*
X30604047Y-140500000D01*
X30664523Y-140379047D01*
X30664523Y-140258095D01*
X30604047Y-140137142D01*
X30543571Y-140076666D01*
X30422619Y-140016190D01*
X30180714Y-139955714D01*
X29878333Y-139955714D01*
X29636428Y-140016190D01*
X29515476Y-140076666D01*
X29455000Y-140137142D01*
X29394523Y-140258095D01*
X30604047Y-141165238D02*
X30664523Y-141346666D01*
X30664523Y-141649047D01*
X30604047Y-141770000D01*
X30543571Y-141830476D01*
X30422619Y-141890952D01*
X30301666Y-141890952D01*
X30180714Y-141830476D01*
X30120238Y-141770000D01*
X30059761Y-141649047D01*
X29999285Y-141407142D01*
X29938809Y-141286190D01*
X29878333Y-141225714D01*
X29757380Y-141165238D01*
X29636428Y-141165238D01*
X29515476Y-141225714D01*
X29455000Y-141286190D01*
X29394523Y-141407142D01*
X29394523Y-141709523D01*
X29455000Y-141890952D01*
X30180714Y-142435238D02*
X30180714Y-143402857D01*
X30604047Y-143947142D02*
X30664523Y-144128571D01*
X30664523Y-144430952D01*
X30604047Y-144551904D01*
X30543571Y-144612380D01*
X30422619Y-144672857D01*
X30301666Y-144672857D01*
X30180714Y-144612380D01*
X30120238Y-144551904D01*
X30059761Y-144430952D01*
X29999285Y-144189047D01*
X29938809Y-144068095D01*
X29878333Y-144007619D01*
X29757380Y-143947142D01*
X29636428Y-143947142D01*
X29515476Y-144007619D01*
X29455000Y-144068095D01*
X29394523Y-144189047D01*
X29394523Y-144491428D01*
X29455000Y-144672857D01*
X29394523Y-145035714D02*
X30664523Y-145459047D01*
X29394523Y-145882380D01*
M02*
