%TF.GenerationSoftware,KiCad,Pcbnew,(5.1.5-0-10_14)*%
%TF.CreationDate,2020-01-28T13:49:23+01:00*%
%TF.ProjectId,multiblade_adapter,6d756c74-6962-46c6-9164-655f61646170,rev?*%
%TF.SameCoordinates,Original*%
%TF.FileFunction,Legend,Top*%
%TF.FilePolarity,Positive*%
%FSLAX46Y46*%
G04 Gerber Fmt 4.6, Leading zero omitted, Abs format (unit mm)*
G04 Created by KiCad (PCBNEW (5.1.5-0-10_14)) date 2020-01-28 13:49:23*
%MOMM*%
%LPD*%
G04 APERTURE LIST*
%ADD10C,0.350000*%
%ADD11C,0.200000*%
%ADD12C,0.254000*%
G04 APERTURE END LIST*
D10*
X59290000Y-104730000D02*
G75*
G03X59290000Y-104730000I-100000J0D01*
G01*
D11*
X112710000Y-103000000D02*
X112710000Y-109100000D01*
X57250000Y-103000000D02*
X112710000Y-103000000D01*
X57250000Y-109100000D02*
X57250000Y-103000000D01*
X112710000Y-109100000D02*
X57250000Y-109100000D01*
D10*
X59290000Y-120730000D02*
G75*
G03X59290000Y-120730000I-100000J0D01*
G01*
D11*
X112710000Y-119000000D02*
X112710000Y-125100000D01*
X57250000Y-119000000D02*
X112710000Y-119000000D01*
X57250000Y-125100000D02*
X57250000Y-119000000D01*
X112710000Y-125100000D02*
X57250000Y-125100000D01*
D10*
X59290000Y-136730000D02*
G75*
G03X59290000Y-136730000I-100000J0D01*
G01*
D11*
X112710000Y-135000000D02*
X112710000Y-141100000D01*
X57250000Y-135000000D02*
X112710000Y-135000000D01*
X57250000Y-141100000D02*
X57250000Y-135000000D01*
X112710000Y-141100000D02*
X57250000Y-141100000D01*
D10*
X59290000Y-152730000D02*
G75*
G03X59290000Y-152730000I-100000J0D01*
G01*
D11*
X112710000Y-151000000D02*
X112710000Y-157100000D01*
X57250000Y-151000000D02*
X112710000Y-151000000D01*
X57250000Y-157100000D02*
X57250000Y-151000000D01*
X112710000Y-157100000D02*
X57250000Y-157100000D01*
D12*
X59026666Y-101454523D02*
X59026666Y-102361666D01*
X58966190Y-102543095D01*
X58845238Y-102664047D01*
X58663809Y-102724523D01*
X58542857Y-102724523D01*
X60296666Y-102724523D02*
X59570952Y-102724523D01*
X59933809Y-102724523D02*
X59933809Y-101454523D01*
X59812857Y-101635952D01*
X59691904Y-101756904D01*
X59570952Y-101817380D01*
X59900476Y-110138809D02*
X59779523Y-110078333D01*
X59719047Y-110017857D01*
X59658571Y-109896904D01*
X59658571Y-109836428D01*
X59719047Y-109715476D01*
X59779523Y-109655000D01*
X59900476Y-109594523D01*
X60142380Y-109594523D01*
X60263333Y-109655000D01*
X60323809Y-109715476D01*
X60384285Y-109836428D01*
X60384285Y-109896904D01*
X60323809Y-110017857D01*
X60263333Y-110078333D01*
X60142380Y-110138809D01*
X59900476Y-110138809D01*
X59779523Y-110199285D01*
X59719047Y-110259761D01*
X59658571Y-110380714D01*
X59658571Y-110622619D01*
X59719047Y-110743571D01*
X59779523Y-110804047D01*
X59900476Y-110864523D01*
X60142380Y-110864523D01*
X60263333Y-110804047D01*
X60323809Y-110743571D01*
X60384285Y-110622619D01*
X60384285Y-110380714D01*
X60323809Y-110259761D01*
X60263333Y-110199285D01*
X60142380Y-110138809D01*
X61533333Y-109594523D02*
X60928571Y-109594523D01*
X60868095Y-110199285D01*
X60928571Y-110138809D01*
X61049523Y-110078333D01*
X61351904Y-110078333D01*
X61472857Y-110138809D01*
X61533333Y-110199285D01*
X61593809Y-110320238D01*
X61593809Y-110622619D01*
X61533333Y-110743571D01*
X61472857Y-110804047D01*
X61351904Y-110864523D01*
X61049523Y-110864523D01*
X60928571Y-110804047D01*
X60868095Y-110743571D01*
X62682380Y-110017857D02*
X62682380Y-110864523D01*
X62380000Y-109534047D02*
X62077619Y-110441190D01*
X62863809Y-110441190D01*
X63589523Y-109594523D02*
X63710476Y-109594523D01*
X63831428Y-109655000D01*
X63891904Y-109715476D01*
X63952380Y-109836428D01*
X64012857Y-110078333D01*
X64012857Y-110380714D01*
X63952380Y-110622619D01*
X63891904Y-110743571D01*
X63831428Y-110804047D01*
X63710476Y-110864523D01*
X63589523Y-110864523D01*
X63468571Y-110804047D01*
X63408095Y-110743571D01*
X63347619Y-110622619D01*
X63287142Y-110380714D01*
X63287142Y-110078333D01*
X63347619Y-109836428D01*
X63408095Y-109715476D01*
X63468571Y-109655000D01*
X63589523Y-109594523D01*
X64557142Y-110380714D02*
X65524761Y-110380714D01*
X66673809Y-110017857D02*
X66673809Y-110864523D01*
X66371428Y-109534047D02*
X66069047Y-110441190D01*
X66855238Y-110441190D01*
X67943809Y-109594523D02*
X67339047Y-109594523D01*
X67278571Y-110199285D01*
X67339047Y-110138809D01*
X67460000Y-110078333D01*
X67762380Y-110078333D01*
X67883333Y-110138809D01*
X67943809Y-110199285D01*
X68004285Y-110320238D01*
X68004285Y-110622619D01*
X67943809Y-110743571D01*
X67883333Y-110804047D01*
X67762380Y-110864523D01*
X67460000Y-110864523D01*
X67339047Y-110804047D01*
X67278571Y-110743571D01*
X68790476Y-109594523D02*
X68911428Y-109594523D01*
X69032380Y-109655000D01*
X69092857Y-109715476D01*
X69153333Y-109836428D01*
X69213809Y-110078333D01*
X69213809Y-110380714D01*
X69153333Y-110622619D01*
X69092857Y-110743571D01*
X69032380Y-110804047D01*
X68911428Y-110864523D01*
X68790476Y-110864523D01*
X68669523Y-110804047D01*
X68609047Y-110743571D01*
X68548571Y-110622619D01*
X68488095Y-110380714D01*
X68488095Y-110078333D01*
X68548571Y-109836428D01*
X68609047Y-109715476D01*
X68669523Y-109655000D01*
X68790476Y-109594523D01*
X70000000Y-109594523D02*
X70120952Y-109594523D01*
X70241904Y-109655000D01*
X70302380Y-109715476D01*
X70362857Y-109836428D01*
X70423333Y-110078333D01*
X70423333Y-110380714D01*
X70362857Y-110622619D01*
X70302380Y-110743571D01*
X70241904Y-110804047D01*
X70120952Y-110864523D01*
X70000000Y-110864523D01*
X69879047Y-110804047D01*
X69818571Y-110743571D01*
X69758095Y-110622619D01*
X69697619Y-110380714D01*
X69697619Y-110078333D01*
X69758095Y-109836428D01*
X69818571Y-109715476D01*
X69879047Y-109655000D01*
X70000000Y-109594523D01*
X70967619Y-110864523D02*
X70967619Y-109594523D01*
X71451428Y-109594523D01*
X71572380Y-109655000D01*
X71632857Y-109715476D01*
X71693333Y-109836428D01*
X71693333Y-110017857D01*
X71632857Y-110138809D01*
X71572380Y-110199285D01*
X71451428Y-110259761D01*
X70967619Y-110259761D01*
X72842380Y-110864523D02*
X72237619Y-110864523D01*
X72237619Y-109594523D01*
X59026666Y-117454523D02*
X59026666Y-118361666D01*
X58966190Y-118543095D01*
X58845238Y-118664047D01*
X58663809Y-118724523D01*
X58542857Y-118724523D01*
X59570952Y-117575476D02*
X59631428Y-117515000D01*
X59752380Y-117454523D01*
X60054761Y-117454523D01*
X60175714Y-117515000D01*
X60236190Y-117575476D01*
X60296666Y-117696428D01*
X60296666Y-117817380D01*
X60236190Y-117998809D01*
X59510476Y-118724523D01*
X60296666Y-118724523D01*
X59900476Y-126138809D02*
X59779523Y-126078333D01*
X59719047Y-126017857D01*
X59658571Y-125896904D01*
X59658571Y-125836428D01*
X59719047Y-125715476D01*
X59779523Y-125655000D01*
X59900476Y-125594523D01*
X60142380Y-125594523D01*
X60263333Y-125655000D01*
X60323809Y-125715476D01*
X60384285Y-125836428D01*
X60384285Y-125896904D01*
X60323809Y-126017857D01*
X60263333Y-126078333D01*
X60142380Y-126138809D01*
X59900476Y-126138809D01*
X59779523Y-126199285D01*
X59719047Y-126259761D01*
X59658571Y-126380714D01*
X59658571Y-126622619D01*
X59719047Y-126743571D01*
X59779523Y-126804047D01*
X59900476Y-126864523D01*
X60142380Y-126864523D01*
X60263333Y-126804047D01*
X60323809Y-126743571D01*
X60384285Y-126622619D01*
X60384285Y-126380714D01*
X60323809Y-126259761D01*
X60263333Y-126199285D01*
X60142380Y-126138809D01*
X61533333Y-125594523D02*
X60928571Y-125594523D01*
X60868095Y-126199285D01*
X60928571Y-126138809D01*
X61049523Y-126078333D01*
X61351904Y-126078333D01*
X61472857Y-126138809D01*
X61533333Y-126199285D01*
X61593809Y-126320238D01*
X61593809Y-126622619D01*
X61533333Y-126743571D01*
X61472857Y-126804047D01*
X61351904Y-126864523D01*
X61049523Y-126864523D01*
X60928571Y-126804047D01*
X60868095Y-126743571D01*
X62682380Y-126017857D02*
X62682380Y-126864523D01*
X62380000Y-125534047D02*
X62077619Y-126441190D01*
X62863809Y-126441190D01*
X63589523Y-125594523D02*
X63710476Y-125594523D01*
X63831428Y-125655000D01*
X63891904Y-125715476D01*
X63952380Y-125836428D01*
X64012857Y-126078333D01*
X64012857Y-126380714D01*
X63952380Y-126622619D01*
X63891904Y-126743571D01*
X63831428Y-126804047D01*
X63710476Y-126864523D01*
X63589523Y-126864523D01*
X63468571Y-126804047D01*
X63408095Y-126743571D01*
X63347619Y-126622619D01*
X63287142Y-126380714D01*
X63287142Y-126078333D01*
X63347619Y-125836428D01*
X63408095Y-125715476D01*
X63468571Y-125655000D01*
X63589523Y-125594523D01*
X64557142Y-126380714D02*
X65524761Y-126380714D01*
X66673809Y-126017857D02*
X66673809Y-126864523D01*
X66371428Y-125534047D02*
X66069047Y-126441190D01*
X66855238Y-126441190D01*
X67943809Y-125594523D02*
X67339047Y-125594523D01*
X67278571Y-126199285D01*
X67339047Y-126138809D01*
X67460000Y-126078333D01*
X67762380Y-126078333D01*
X67883333Y-126138809D01*
X67943809Y-126199285D01*
X68004285Y-126320238D01*
X68004285Y-126622619D01*
X67943809Y-126743571D01*
X67883333Y-126804047D01*
X67762380Y-126864523D01*
X67460000Y-126864523D01*
X67339047Y-126804047D01*
X67278571Y-126743571D01*
X68790476Y-125594523D02*
X68911428Y-125594523D01*
X69032380Y-125655000D01*
X69092857Y-125715476D01*
X69153333Y-125836428D01*
X69213809Y-126078333D01*
X69213809Y-126380714D01*
X69153333Y-126622619D01*
X69092857Y-126743571D01*
X69032380Y-126804047D01*
X68911428Y-126864523D01*
X68790476Y-126864523D01*
X68669523Y-126804047D01*
X68609047Y-126743571D01*
X68548571Y-126622619D01*
X68488095Y-126380714D01*
X68488095Y-126078333D01*
X68548571Y-125836428D01*
X68609047Y-125715476D01*
X68669523Y-125655000D01*
X68790476Y-125594523D01*
X70000000Y-125594523D02*
X70120952Y-125594523D01*
X70241904Y-125655000D01*
X70302380Y-125715476D01*
X70362857Y-125836428D01*
X70423333Y-126078333D01*
X70423333Y-126380714D01*
X70362857Y-126622619D01*
X70302380Y-126743571D01*
X70241904Y-126804047D01*
X70120952Y-126864523D01*
X70000000Y-126864523D01*
X69879047Y-126804047D01*
X69818571Y-126743571D01*
X69758095Y-126622619D01*
X69697619Y-126380714D01*
X69697619Y-126078333D01*
X69758095Y-125836428D01*
X69818571Y-125715476D01*
X69879047Y-125655000D01*
X70000000Y-125594523D01*
X70967619Y-126864523D02*
X70967619Y-125594523D01*
X71451428Y-125594523D01*
X71572380Y-125655000D01*
X71632857Y-125715476D01*
X71693333Y-125836428D01*
X71693333Y-126017857D01*
X71632857Y-126138809D01*
X71572380Y-126199285D01*
X71451428Y-126259761D01*
X70967619Y-126259761D01*
X72842380Y-126864523D02*
X72237619Y-126864523D01*
X72237619Y-125594523D01*
X59026666Y-133454523D02*
X59026666Y-134361666D01*
X58966190Y-134543095D01*
X58845238Y-134664047D01*
X58663809Y-134724523D01*
X58542857Y-134724523D01*
X59510476Y-133454523D02*
X60296666Y-133454523D01*
X59873333Y-133938333D01*
X60054761Y-133938333D01*
X60175714Y-133998809D01*
X60236190Y-134059285D01*
X60296666Y-134180238D01*
X60296666Y-134482619D01*
X60236190Y-134603571D01*
X60175714Y-134664047D01*
X60054761Y-134724523D01*
X59691904Y-134724523D01*
X59570952Y-134664047D01*
X59510476Y-134603571D01*
X59900476Y-142138809D02*
X59779523Y-142078333D01*
X59719047Y-142017857D01*
X59658571Y-141896904D01*
X59658571Y-141836428D01*
X59719047Y-141715476D01*
X59779523Y-141655000D01*
X59900476Y-141594523D01*
X60142380Y-141594523D01*
X60263333Y-141655000D01*
X60323809Y-141715476D01*
X60384285Y-141836428D01*
X60384285Y-141896904D01*
X60323809Y-142017857D01*
X60263333Y-142078333D01*
X60142380Y-142138809D01*
X59900476Y-142138809D01*
X59779523Y-142199285D01*
X59719047Y-142259761D01*
X59658571Y-142380714D01*
X59658571Y-142622619D01*
X59719047Y-142743571D01*
X59779523Y-142804047D01*
X59900476Y-142864523D01*
X60142380Y-142864523D01*
X60263333Y-142804047D01*
X60323809Y-142743571D01*
X60384285Y-142622619D01*
X60384285Y-142380714D01*
X60323809Y-142259761D01*
X60263333Y-142199285D01*
X60142380Y-142138809D01*
X61533333Y-141594523D02*
X60928571Y-141594523D01*
X60868095Y-142199285D01*
X60928571Y-142138809D01*
X61049523Y-142078333D01*
X61351904Y-142078333D01*
X61472857Y-142138809D01*
X61533333Y-142199285D01*
X61593809Y-142320238D01*
X61593809Y-142622619D01*
X61533333Y-142743571D01*
X61472857Y-142804047D01*
X61351904Y-142864523D01*
X61049523Y-142864523D01*
X60928571Y-142804047D01*
X60868095Y-142743571D01*
X62682380Y-142017857D02*
X62682380Y-142864523D01*
X62380000Y-141534047D02*
X62077619Y-142441190D01*
X62863809Y-142441190D01*
X63589523Y-141594523D02*
X63710476Y-141594523D01*
X63831428Y-141655000D01*
X63891904Y-141715476D01*
X63952380Y-141836428D01*
X64012857Y-142078333D01*
X64012857Y-142380714D01*
X63952380Y-142622619D01*
X63891904Y-142743571D01*
X63831428Y-142804047D01*
X63710476Y-142864523D01*
X63589523Y-142864523D01*
X63468571Y-142804047D01*
X63408095Y-142743571D01*
X63347619Y-142622619D01*
X63287142Y-142380714D01*
X63287142Y-142078333D01*
X63347619Y-141836428D01*
X63408095Y-141715476D01*
X63468571Y-141655000D01*
X63589523Y-141594523D01*
X64557142Y-142380714D02*
X65524761Y-142380714D01*
X66673809Y-142017857D02*
X66673809Y-142864523D01*
X66371428Y-141534047D02*
X66069047Y-142441190D01*
X66855238Y-142441190D01*
X67943809Y-141594523D02*
X67339047Y-141594523D01*
X67278571Y-142199285D01*
X67339047Y-142138809D01*
X67460000Y-142078333D01*
X67762380Y-142078333D01*
X67883333Y-142138809D01*
X67943809Y-142199285D01*
X68004285Y-142320238D01*
X68004285Y-142622619D01*
X67943809Y-142743571D01*
X67883333Y-142804047D01*
X67762380Y-142864523D01*
X67460000Y-142864523D01*
X67339047Y-142804047D01*
X67278571Y-142743571D01*
X68790476Y-141594523D02*
X68911428Y-141594523D01*
X69032380Y-141655000D01*
X69092857Y-141715476D01*
X69153333Y-141836428D01*
X69213809Y-142078333D01*
X69213809Y-142380714D01*
X69153333Y-142622619D01*
X69092857Y-142743571D01*
X69032380Y-142804047D01*
X68911428Y-142864523D01*
X68790476Y-142864523D01*
X68669523Y-142804047D01*
X68609047Y-142743571D01*
X68548571Y-142622619D01*
X68488095Y-142380714D01*
X68488095Y-142078333D01*
X68548571Y-141836428D01*
X68609047Y-141715476D01*
X68669523Y-141655000D01*
X68790476Y-141594523D01*
X70000000Y-141594523D02*
X70120952Y-141594523D01*
X70241904Y-141655000D01*
X70302380Y-141715476D01*
X70362857Y-141836428D01*
X70423333Y-142078333D01*
X70423333Y-142380714D01*
X70362857Y-142622619D01*
X70302380Y-142743571D01*
X70241904Y-142804047D01*
X70120952Y-142864523D01*
X70000000Y-142864523D01*
X69879047Y-142804047D01*
X69818571Y-142743571D01*
X69758095Y-142622619D01*
X69697619Y-142380714D01*
X69697619Y-142078333D01*
X69758095Y-141836428D01*
X69818571Y-141715476D01*
X69879047Y-141655000D01*
X70000000Y-141594523D01*
X70967619Y-142864523D02*
X70967619Y-141594523D01*
X71451428Y-141594523D01*
X71572380Y-141655000D01*
X71632857Y-141715476D01*
X71693333Y-141836428D01*
X71693333Y-142017857D01*
X71632857Y-142138809D01*
X71572380Y-142199285D01*
X71451428Y-142259761D01*
X70967619Y-142259761D01*
X72842380Y-142864523D02*
X72237619Y-142864523D01*
X72237619Y-141594523D01*
X59026666Y-149454523D02*
X59026666Y-150361666D01*
X58966190Y-150543095D01*
X58845238Y-150664047D01*
X58663809Y-150724523D01*
X58542857Y-150724523D01*
X60175714Y-149877857D02*
X60175714Y-150724523D01*
X59873333Y-149394047D02*
X59570952Y-150301190D01*
X60357142Y-150301190D01*
X59900476Y-158138809D02*
X59779523Y-158078333D01*
X59719047Y-158017857D01*
X59658571Y-157896904D01*
X59658571Y-157836428D01*
X59719047Y-157715476D01*
X59779523Y-157655000D01*
X59900476Y-157594523D01*
X60142380Y-157594523D01*
X60263333Y-157655000D01*
X60323809Y-157715476D01*
X60384285Y-157836428D01*
X60384285Y-157896904D01*
X60323809Y-158017857D01*
X60263333Y-158078333D01*
X60142380Y-158138809D01*
X59900476Y-158138809D01*
X59779523Y-158199285D01*
X59719047Y-158259761D01*
X59658571Y-158380714D01*
X59658571Y-158622619D01*
X59719047Y-158743571D01*
X59779523Y-158804047D01*
X59900476Y-158864523D01*
X60142380Y-158864523D01*
X60263333Y-158804047D01*
X60323809Y-158743571D01*
X60384285Y-158622619D01*
X60384285Y-158380714D01*
X60323809Y-158259761D01*
X60263333Y-158199285D01*
X60142380Y-158138809D01*
X61533333Y-157594523D02*
X60928571Y-157594523D01*
X60868095Y-158199285D01*
X60928571Y-158138809D01*
X61049523Y-158078333D01*
X61351904Y-158078333D01*
X61472857Y-158138809D01*
X61533333Y-158199285D01*
X61593809Y-158320238D01*
X61593809Y-158622619D01*
X61533333Y-158743571D01*
X61472857Y-158804047D01*
X61351904Y-158864523D01*
X61049523Y-158864523D01*
X60928571Y-158804047D01*
X60868095Y-158743571D01*
X62682380Y-158017857D02*
X62682380Y-158864523D01*
X62380000Y-157534047D02*
X62077619Y-158441190D01*
X62863809Y-158441190D01*
X63589523Y-157594523D02*
X63710476Y-157594523D01*
X63831428Y-157655000D01*
X63891904Y-157715476D01*
X63952380Y-157836428D01*
X64012857Y-158078333D01*
X64012857Y-158380714D01*
X63952380Y-158622619D01*
X63891904Y-158743571D01*
X63831428Y-158804047D01*
X63710476Y-158864523D01*
X63589523Y-158864523D01*
X63468571Y-158804047D01*
X63408095Y-158743571D01*
X63347619Y-158622619D01*
X63287142Y-158380714D01*
X63287142Y-158078333D01*
X63347619Y-157836428D01*
X63408095Y-157715476D01*
X63468571Y-157655000D01*
X63589523Y-157594523D01*
X64557142Y-158380714D02*
X65524761Y-158380714D01*
X66673809Y-158017857D02*
X66673809Y-158864523D01*
X66371428Y-157534047D02*
X66069047Y-158441190D01*
X66855238Y-158441190D01*
X67943809Y-157594523D02*
X67339047Y-157594523D01*
X67278571Y-158199285D01*
X67339047Y-158138809D01*
X67460000Y-158078333D01*
X67762380Y-158078333D01*
X67883333Y-158138809D01*
X67943809Y-158199285D01*
X68004285Y-158320238D01*
X68004285Y-158622619D01*
X67943809Y-158743571D01*
X67883333Y-158804047D01*
X67762380Y-158864523D01*
X67460000Y-158864523D01*
X67339047Y-158804047D01*
X67278571Y-158743571D01*
X68790476Y-157594523D02*
X68911428Y-157594523D01*
X69032380Y-157655000D01*
X69092857Y-157715476D01*
X69153333Y-157836428D01*
X69213809Y-158078333D01*
X69213809Y-158380714D01*
X69153333Y-158622619D01*
X69092857Y-158743571D01*
X69032380Y-158804047D01*
X68911428Y-158864523D01*
X68790476Y-158864523D01*
X68669523Y-158804047D01*
X68609047Y-158743571D01*
X68548571Y-158622619D01*
X68488095Y-158380714D01*
X68488095Y-158078333D01*
X68548571Y-157836428D01*
X68609047Y-157715476D01*
X68669523Y-157655000D01*
X68790476Y-157594523D01*
X70000000Y-157594523D02*
X70120952Y-157594523D01*
X70241904Y-157655000D01*
X70302380Y-157715476D01*
X70362857Y-157836428D01*
X70423333Y-158078333D01*
X70423333Y-158380714D01*
X70362857Y-158622619D01*
X70302380Y-158743571D01*
X70241904Y-158804047D01*
X70120952Y-158864523D01*
X70000000Y-158864523D01*
X69879047Y-158804047D01*
X69818571Y-158743571D01*
X69758095Y-158622619D01*
X69697619Y-158380714D01*
X69697619Y-158078333D01*
X69758095Y-157836428D01*
X69818571Y-157715476D01*
X69879047Y-157655000D01*
X70000000Y-157594523D01*
X70967619Y-158864523D02*
X70967619Y-157594523D01*
X71451428Y-157594523D01*
X71572380Y-157655000D01*
X71632857Y-157715476D01*
X71693333Y-157836428D01*
X71693333Y-158017857D01*
X71632857Y-158138809D01*
X71572380Y-158199285D01*
X71451428Y-158259761D01*
X70967619Y-158259761D01*
X72842380Y-158864523D02*
X72237619Y-158864523D01*
X72237619Y-157594523D01*
M02*
