M48
; DRILL file {KiCad (5.1.5-0-10_14)} date Tuesday, 28 January 2020 at 13:49:38
; FORMAT={-:-/ absolute / inch / decimal}
; #@! TF.CreationDate,2020-01-28T13:49:38+01:00
; #@! TF.GenerationSoftware,Kicad,Pcbnew,(5.1.5-0-10_14)
FMAT,2
INCH
T1C0.0118
T2C0.0394
T3C0.0492
%
G90
G05
T1
X0.9843Y-4.3799
X0.9843Y-4.4587
X0.9843Y-4.498
X0.9843Y-4.5374
X0.9843Y-4.5768
X0.9843Y-4.6161
X0.9843Y-4.6949
X0.9843Y-4.7343
X0.9843Y-4.9311
X0.9843Y-5.0098
X0.9843Y-5.0492
X0.9843Y-5.0886
X0.9843Y-5.1673
X0.9843Y-5.2067
X0.9843Y-5.2461
X0.9843Y-5.3248
X0.9843Y-5.4035
X0.9843Y-5.4429
X0.9843Y-5.4823
X0.9843Y-5.5217
X0.9843Y-5.561
X0.9843Y-5.6398
X0.9843Y-5.6791
X0.9843Y-5.7185
X0.9843Y-5.7579
X0.9843Y-5.7972
X0.9843Y-5.876
X0.9845Y-4.9705
X0.9846Y-5.2854
X0.9864Y-4.7736
X0.9876Y-4.8524
X0.992Y-4.813
X1.0039Y-4.4094
X1.0039Y-4.4783
X1.0039Y-4.5177
X1.0039Y-4.5571
X1.0039Y-4.5965
X1.0039Y-4.6457
X1.0039Y-4.7146
X1.0039Y-4.7539
X1.0039Y-4.7933
X1.0039Y-4.8327
X1.0039Y-4.8819
X1.0039Y-4.9114
X1.0039Y-4.9508
X1.0039Y-4.9902
X1.0039Y-5.0295
X1.0039Y-5.0689
X1.0039Y-5.1181
X1.0039Y-5.1476
X1.0039Y-5.187
X1.0039Y-5.2264
X1.0039Y-5.3051
X1.0039Y-5.3543
X1.0039Y-5.3839
X1.0039Y-5.4232
X1.0039Y-5.4626
X1.0039Y-5.502
X1.0039Y-5.5413
X1.0039Y-5.5906
X1.0039Y-5.6988
X1.0039Y-5.7382
X1.0039Y-5.7776
X1.0039Y-5.8268
X1.0039Y-5.8563
X1.0043Y-5.2657
X1.0048Y-4.6752
X1.0049Y-5.6201
X1.005Y-4.3602
X1.005Y-4.439
X1.0056Y-5.6594
X1.18Y-4.09
X1.1811Y-6.1489
X1.3567Y-4.7933
X1.3583Y-4.3602
X1.3583Y-4.4094
X1.3583Y-4.439
X1.3583Y-4.4783
X1.3583Y-4.5177
X1.3583Y-4.5571
X1.3583Y-4.5965
X1.3583Y-4.6457
X1.3583Y-4.6752
X1.3583Y-4.7146
X1.3583Y-4.7539
X1.3583Y-4.8327
X1.3583Y-4.8819
X1.3583Y-4.9114
X1.3583Y-4.9508
X1.3583Y-4.9902
X1.3583Y-5.0295
X1.3583Y-5.0689
X1.3583Y-5.1181
X1.3583Y-5.1476
X1.3583Y-5.187
X1.3583Y-5.2264
X1.3583Y-5.2657
X1.3583Y-5.3051
X1.3583Y-5.3543
X1.3583Y-5.3839
X1.3583Y-5.4232
X1.3583Y-5.4626
X1.3583Y-5.5906
X1.3583Y-5.8268
X1.3726Y-4.5374
X1.378Y-4.3799
X1.378Y-4.4587
X1.378Y-4.498
X1.378Y-4.5768
X1.378Y-4.6161
X1.378Y-4.6949
X1.378Y-4.7343
X1.378Y-4.7736
X1.378Y-4.813
X1.378Y-4.8524
X1.378Y-4.9311
X1.378Y-4.9705
X1.378Y-5.0098
X1.378Y-5.0492
X1.378Y-5.0886
X1.378Y-5.1673
X1.378Y-5.2067
X1.378Y-5.2461
X1.378Y-5.2854
X1.378Y-5.3248
X1.378Y-5.4035
X1.378Y-5.4429
X1.378Y-5.4823
X2.165Y-5.675
X2.19Y-4.225
X2.2062Y-6.1138
X2.255Y-5.675
X2.36Y-5.675
X2.3957Y-4.5993
X2.3957Y-5.2043
X2.475Y-5.685
X2.575Y-5.69
X2.69Y-5.695
X2.7819Y-5.7
X2.885Y-5.705
X2.9834Y-5.7016
X3.085Y-5.7
X3.185Y-5.7031
X3.29Y-5.705
X3.3819Y-5.7
X3.4884Y-5.7066
X3.5869Y-5.705
X3.69Y-5.7081
X4.095Y-4.4
X4.095Y-5.005
X4.0957Y-5.6407
X4.1957Y-4.3993
X4.1957Y-5.0043
X4.1957Y-5.6393
X4.2022Y-5.9072
X4.295Y-4.4
X4.2957Y-5.0043
X4.2957Y-5.6393
X4.3044Y-5.905
X4.4Y-5.905
T2
X2.3957Y-4.7539
X2.3957Y-4.8539
X2.4957Y-4.7539
X2.4957Y-4.8539
X2.5957Y-4.7539
X2.5957Y-4.8539
X2.6957Y-4.7539
X2.6957Y-4.8539
X2.7957Y-4.7539
X2.7957Y-4.8539
X2.8957Y-4.7539
X2.8957Y-4.8539
X2.9957Y-4.7539
X2.9957Y-4.8539
X3.0957Y-4.7539
X3.0957Y-4.8539
X3.1957Y-4.7539
X3.1957Y-4.8539
X3.2957Y-4.7539
X3.2957Y-4.8539
X3.3957Y-4.7539
X3.3957Y-4.8539
X3.4957Y-4.7539
X3.4957Y-4.8539
X3.5957Y-4.7539
X3.5957Y-4.8539
X3.6957Y-4.7539
X3.6957Y-4.8539
X3.7957Y-4.7539
X3.7957Y-4.8539
X3.8957Y-4.7539
X3.8957Y-4.8539
X3.9957Y-4.7539
X3.9957Y-4.8539
X4.0957Y-4.7539
X4.0957Y-4.8539
X4.1957Y-4.7539
X4.1957Y-4.8539
X4.2957Y-4.7539
X4.2957Y-4.8539
X2.3957Y-6.0138
X2.3957Y-6.1138
X2.4957Y-6.0138
X2.4957Y-6.1138
X2.5957Y-6.0138
X2.5957Y-6.1138
X2.6957Y-6.0138
X2.6957Y-6.1138
X2.7957Y-6.0138
X2.7957Y-6.1138
X2.8957Y-6.0138
X2.8957Y-6.1138
X2.9957Y-6.0138
X2.9957Y-6.1138
X3.0957Y-6.0138
X3.0957Y-6.1138
X3.1957Y-6.0138
X3.1957Y-6.1138
X3.2957Y-6.0138
X3.2957Y-6.1138
X3.3957Y-6.0138
X3.3957Y-6.1138
X3.4957Y-6.0138
X3.4957Y-6.1138
X3.5957Y-6.0138
X3.5957Y-6.1138
X3.6957Y-6.0138
X3.6957Y-6.1138
X3.7957Y-6.0138
X3.7957Y-6.1138
X3.8957Y-6.0138
X3.8957Y-6.1138
X3.9957Y-6.0138
X3.9957Y-6.1138
X4.0957Y-6.0138
X4.0957Y-6.1138
X4.1957Y-6.0138
X4.1957Y-6.1138
X4.2957Y-6.0138
X4.2957Y-6.1138
X2.3957Y-5.3839
X2.3957Y-5.4839
X2.4957Y-5.3839
X2.4957Y-5.4839
X2.5957Y-5.3839
X2.5957Y-5.4839
X2.6957Y-5.3839
X2.6957Y-5.4839
X2.7957Y-5.3839
X2.7957Y-5.4839
X2.8957Y-5.3839
X2.8957Y-5.4839
X2.9957Y-5.3839
X2.9957Y-5.4839
X3.0957Y-5.3839
X3.0957Y-5.4839
X3.1957Y-5.3839
X3.1957Y-5.4839
X3.2957Y-5.3839
X3.2957Y-5.4839
X3.3957Y-5.3839
X3.3957Y-5.4839
X3.4957Y-5.3839
X3.4957Y-5.4839
X3.5957Y-5.3839
X3.5957Y-5.4839
X3.6957Y-5.3839
X3.6957Y-5.4839
X3.7957Y-5.3839
X3.7957Y-5.4839
X3.8957Y-5.3839
X3.8957Y-5.4839
X3.9957Y-5.3839
X3.9957Y-5.4839
X4.0957Y-5.3839
X4.0957Y-5.4839
X4.1957Y-5.3839
X4.1957Y-5.4839
X4.2957Y-5.3839
X4.2957Y-5.4839
X2.3957Y-4.124
X2.3957Y-4.224
X2.4957Y-4.124
X2.4957Y-4.224
X2.5957Y-4.124
X2.5957Y-4.224
X2.6957Y-4.124
X2.6957Y-4.224
X2.7957Y-4.124
X2.7957Y-4.224
X2.8957Y-4.124
X2.8957Y-4.224
X2.9957Y-4.124
X2.9957Y-4.224
X3.0957Y-4.124
X3.0957Y-4.224
X3.1957Y-4.124
X3.1957Y-4.224
X3.2957Y-4.124
X3.2957Y-4.224
X3.3957Y-4.124
X3.3957Y-4.224
X3.4957Y-4.124
X3.4957Y-4.224
X3.5957Y-4.124
X3.5957Y-4.224
X3.6957Y-4.124
X3.6957Y-4.224
X3.7957Y-4.124
X3.7957Y-4.224
X3.8957Y-4.124
X3.8957Y-4.224
X3.9957Y-4.124
X3.9957Y-4.224
X4.0957Y-4.124
X4.0957Y-4.224
X4.1957Y-4.124
X4.1957Y-4.224
X4.2957Y-4.124
X4.2957Y-4.224
T3
X1.1811Y-4.2441
X1.1811Y-5.9921
T0
M30
