%TF.GenerationSoftware,KiCad,Pcbnew,(5.1.5-0-10_14)*%
%TF.CreationDate,2020-01-28T13:49:23+01:00*%
%TF.ProjectId,multiblade_adapter,6d756c74-6962-46c6-9164-655f61646170,rev?*%
%TF.SameCoordinates,Original*%
%TF.FileFunction,Copper,L2,Inr*%
%TF.FilePolarity,Positive*%
%FSLAX46Y46*%
G04 Gerber Fmt 4.6, Leading zero omitted, Abs format (unit mm)*
G04 Created by KiCad (PCBNEW (5.1.5-0-10_14)) date 2020-01-28 13:49:23*
%MOMM*%
%LPD*%
G04 APERTURE LIST*
%ADD10C,1.500000*%
%ADD11C,0.400000*%
%ADD12C,0.150000*%
G04 APERTURE END LIST*
D10*
X109110000Y-107290000D03*
X109110000Y-104750000D03*
X106570000Y-107290000D03*
X106570000Y-104750000D03*
X104030000Y-107290000D03*
X104030000Y-104750000D03*
X101490000Y-107290000D03*
X101490000Y-104750000D03*
X98950000Y-107290000D03*
X98950000Y-104750000D03*
X96410000Y-107290000D03*
X96410000Y-104750000D03*
X93870000Y-107290000D03*
X93870000Y-104750000D03*
X91330000Y-107290000D03*
X91330000Y-104750000D03*
X88790000Y-107290000D03*
X88790000Y-104750000D03*
X86250000Y-107290000D03*
X86250000Y-104750000D03*
X83710000Y-107290000D03*
X83710000Y-104750000D03*
X81170000Y-107290000D03*
X81170000Y-104750000D03*
X78630000Y-107290000D03*
X78630000Y-104750000D03*
X76090000Y-107290000D03*
X76090000Y-104750000D03*
X73550000Y-107290000D03*
X73550000Y-104750000D03*
X71010000Y-107290000D03*
X71010000Y-104750000D03*
X68470000Y-107290000D03*
X68470000Y-104750000D03*
X65930000Y-107290000D03*
X65930000Y-104750000D03*
X63390000Y-107290000D03*
X63390000Y-104750000D03*
X60850000Y-107290000D03*
X60850000Y-104750000D03*
X109110000Y-123290000D03*
X109110000Y-120750000D03*
X106570000Y-123290000D03*
X106570000Y-120750000D03*
X104030000Y-123290000D03*
X104030000Y-120750000D03*
X101490000Y-123290000D03*
X101490000Y-120750000D03*
X98950000Y-123290000D03*
X98950000Y-120750000D03*
X96410000Y-123290000D03*
X96410000Y-120750000D03*
X93870000Y-123290000D03*
X93870000Y-120750000D03*
X91330000Y-123290000D03*
X91330000Y-120750000D03*
X88790000Y-123290000D03*
X88790000Y-120750000D03*
X86250000Y-123290000D03*
X86250000Y-120750000D03*
X83710000Y-123290000D03*
X83710000Y-120750000D03*
X81170000Y-123290000D03*
X81170000Y-120750000D03*
X78630000Y-123290000D03*
X78630000Y-120750000D03*
X76090000Y-123290000D03*
X76090000Y-120750000D03*
X73550000Y-123290000D03*
X73550000Y-120750000D03*
X71010000Y-123290000D03*
X71010000Y-120750000D03*
X68470000Y-123290000D03*
X68470000Y-120750000D03*
X65930000Y-123290000D03*
X65930000Y-120750000D03*
X63390000Y-123290000D03*
X63390000Y-120750000D03*
X60850000Y-123290000D03*
X60850000Y-120750000D03*
X109110000Y-139290000D03*
X109110000Y-136750000D03*
X106570000Y-139290000D03*
X106570000Y-136750000D03*
X104030000Y-139290000D03*
X104030000Y-136750000D03*
X101490000Y-139290000D03*
X101490000Y-136750000D03*
X98950000Y-139290000D03*
X98950000Y-136750000D03*
X96410000Y-139290000D03*
X96410000Y-136750000D03*
X93870000Y-139290000D03*
X93870000Y-136750000D03*
X91330000Y-139290000D03*
X91330000Y-136750000D03*
X88790000Y-139290000D03*
X88790000Y-136750000D03*
X86250000Y-139290000D03*
X86250000Y-136750000D03*
X83710000Y-139290000D03*
X83710000Y-136750000D03*
X81170000Y-139290000D03*
X81170000Y-136750000D03*
X78630000Y-139290000D03*
X78630000Y-136750000D03*
X76090000Y-139290000D03*
X76090000Y-136750000D03*
X73550000Y-139290000D03*
X73550000Y-136750000D03*
X71010000Y-139290000D03*
X71010000Y-136750000D03*
X68470000Y-139290000D03*
X68470000Y-136750000D03*
X65930000Y-139290000D03*
X65930000Y-136750000D03*
X63390000Y-139290000D03*
X63390000Y-136750000D03*
X60850000Y-139290000D03*
X60850000Y-136750000D03*
X109110000Y-155290000D03*
X109110000Y-152750000D03*
X106570000Y-155290000D03*
X106570000Y-152750000D03*
X104030000Y-155290000D03*
X104030000Y-152750000D03*
X101490000Y-155290000D03*
X101490000Y-152750000D03*
X98950000Y-155290000D03*
X98950000Y-152750000D03*
X96410000Y-155290000D03*
X96410000Y-152750000D03*
X93870000Y-155290000D03*
X93870000Y-152750000D03*
X91330000Y-155290000D03*
X91330000Y-152750000D03*
X88790000Y-155290000D03*
X88790000Y-152750000D03*
X86250000Y-155290000D03*
X86250000Y-152750000D03*
X83710000Y-155290000D03*
X83710000Y-152750000D03*
X81170000Y-155290000D03*
X81170000Y-152750000D03*
X78630000Y-155290000D03*
X78630000Y-152750000D03*
X76090000Y-155290000D03*
X76090000Y-152750000D03*
X73550000Y-155290000D03*
X73550000Y-152750000D03*
X71010000Y-155290000D03*
X71010000Y-152750000D03*
X68470000Y-155290000D03*
X68470000Y-152750000D03*
X65930000Y-155290000D03*
X65930000Y-152750000D03*
X63390000Y-155290000D03*
X63390000Y-152750000D03*
X60850000Y-155290000D03*
X60850000Y-152750000D03*
D11*
X25500000Y-148000000D03*
X25500000Y-142000000D03*
X25500000Y-136000000D03*
X25500000Y-124000000D03*
X25500000Y-130000000D03*
X25500000Y-112000000D03*
X25500000Y-118000000D03*
X34500000Y-112000000D03*
X34500000Y-118000000D03*
X34500000Y-124000000D03*
X34500000Y-130000000D03*
X34500000Y-136000000D03*
X34500000Y-148000000D03*
X104013000Y-111760000D03*
X55626000Y-107315000D03*
X60850000Y-116823000D03*
X60850000Y-132190000D03*
X56038000Y-155290000D03*
X104030000Y-143273000D03*
X30000000Y-156182000D03*
X29972000Y-103886000D03*
X34500000Y-142000000D03*
X106736500Y-150043500D03*
X109333000Y-149987000D03*
X111760000Y-149987000D03*
X106570000Y-143239000D03*
X109110000Y-143239000D03*
X104013000Y-127127000D03*
X106570000Y-127110000D03*
X109110000Y-127110000D03*
X106570000Y-111743000D03*
X109093000Y-111760000D03*
X25000000Y-120250000D03*
X35000000Y-120250000D03*
X25500000Y-119750000D03*
X34500000Y-119750000D03*
X25000000Y-119250000D03*
X35000000Y-119250000D03*
X25522000Y-118750000D03*
X34500000Y-118750000D03*
X25000000Y-117250000D03*
X35000000Y-117250000D03*
X25500000Y-116750000D03*
X34500000Y-116750000D03*
X25000000Y-116250000D03*
X35000000Y-116250000D03*
X25500000Y-115750000D03*
X34500000Y-115750000D03*
X25000000Y-115250000D03*
X34864000Y-115250000D03*
X25500000Y-114750000D03*
X34500000Y-114750000D03*
X25000000Y-114250000D03*
X35000000Y-114250000D03*
X25500000Y-113750000D03*
X34500000Y-113750000D03*
X25000000Y-113250000D03*
X35000000Y-113250000D03*
X25527000Y-112750000D03*
X34500000Y-112750000D03*
X25000000Y-111250000D03*
X35000000Y-111250000D03*
X25527000Y-110750000D03*
X34500000Y-110750000D03*
X34500000Y-120750000D03*
X25500000Y-120750000D03*
X35000000Y-121250000D03*
X25054000Y-121250000D03*
X34460000Y-121750000D03*
X25500000Y-121750000D03*
X35000000Y-122250000D03*
X25197000Y-122250000D03*
X34500000Y-122750000D03*
X25500000Y-122750000D03*
X35000000Y-123250000D03*
X25086000Y-123250000D03*
X34500000Y-124750000D03*
X25500000Y-124750000D03*
X35000000Y-125250000D03*
X25000000Y-125250000D03*
X34500000Y-125750000D03*
X25500000Y-125750000D03*
X35000000Y-126250000D03*
X25007000Y-126250000D03*
X34500000Y-126750000D03*
X25500000Y-126750000D03*
X35000000Y-127250000D03*
X25000000Y-127250000D03*
X34500000Y-127750000D03*
X25500000Y-127750000D03*
X35000000Y-128250000D03*
X25000000Y-128250000D03*
X34500000Y-128750000D03*
X25500000Y-128750000D03*
X35000000Y-129250000D03*
X25000000Y-129250000D03*
X25000000Y-139250000D03*
X35000000Y-139250000D03*
X25500000Y-138750000D03*
X34500000Y-138750000D03*
X25000000Y-138250000D03*
X35000000Y-138250000D03*
X25500000Y-137750000D03*
X34500000Y-137750000D03*
X25000000Y-137250000D03*
X35000000Y-137250000D03*
X25500000Y-136750000D03*
X34500000Y-136750000D03*
X25000000Y-135250000D03*
X35000000Y-135250000D03*
X25500000Y-134750000D03*
X34500000Y-134750000D03*
X25008000Y-134250000D03*
X35000000Y-134250000D03*
X25508000Y-133750000D03*
X34500000Y-133750000D03*
X25000000Y-133250000D03*
X35000000Y-133250000D03*
X25500000Y-132750000D03*
X34500000Y-132750000D03*
X25000000Y-132250000D03*
X35000000Y-132250000D03*
X25500000Y-131750000D03*
X34500000Y-131750000D03*
X25000000Y-131250000D03*
X35000000Y-131250000D03*
X25500000Y-130750000D03*
X34500000Y-130750000D03*
X54991000Y-144145000D03*
X25500000Y-139750000D03*
X57277000Y-144145000D03*
X25000000Y-140250000D03*
X59944000Y-144145000D03*
X25500000Y-140750000D03*
X62865000Y-144399000D03*
X25000000Y-141250000D03*
X65405000Y-144526000D03*
X25525000Y-142750000D03*
X68326000Y-144653000D03*
X25000000Y-143250000D03*
X70660000Y-144780000D03*
X25541000Y-143750000D03*
X73279000Y-144907000D03*
X25000000Y-144250000D03*
X75779500Y-144819500D03*
X25500000Y-144750000D03*
X78359000Y-144780000D03*
X25000000Y-145250000D03*
X80899000Y-144859000D03*
X25500000Y-145750000D03*
X83566000Y-144907000D03*
X25000000Y-146250000D03*
X85900000Y-144780000D03*
X25500000Y-146750000D03*
X88606500Y-144946500D03*
X25000000Y-147250000D03*
X91107000Y-144907000D03*
X25500000Y-148750000D03*
X93726000Y-144986000D03*
X25000000Y-149250000D03*
D12*
X100514999Y-105725001D02*
X100514999Y-111702001D01*
X101490000Y-104750000D02*
X100514999Y-105725001D01*
X100514999Y-111702001D02*
X97028000Y-115189000D01*
X97028000Y-115189000D02*
X57404000Y-115189000D01*
X52343000Y-120250000D02*
X35000000Y-120250000D01*
X57404000Y-115189000D02*
X52343000Y-120250000D01*
X97974999Y-105725001D02*
X97974999Y-113734001D01*
X98950000Y-104750000D02*
X97974999Y-105725001D01*
X96820010Y-114888990D02*
X56942010Y-114888990D01*
X97974999Y-113734001D02*
X96820010Y-114888990D01*
X52081000Y-119750000D02*
X34500000Y-119750000D01*
X56942010Y-114888990D02*
X52081000Y-119750000D01*
X96410000Y-104750000D02*
X95434999Y-105725001D01*
X95434999Y-113734001D02*
X94580020Y-114588980D01*
X95434999Y-105725001D02*
X95434999Y-113353001D01*
X95434999Y-113353001D02*
X95434999Y-113734001D01*
X95434999Y-113353001D02*
X95434999Y-113607001D01*
X94580020Y-114588980D02*
X56607020Y-114588980D01*
X51946000Y-119250000D02*
X35000000Y-119250000D01*
X56607020Y-114588980D02*
X51946000Y-119250000D01*
X92894999Y-112591001D02*
X91197030Y-114288970D01*
X92894999Y-105725001D02*
X92894999Y-112591001D01*
X93870000Y-104750000D02*
X92894999Y-105725001D01*
X91197030Y-114288970D02*
X56145030Y-114288970D01*
X51684000Y-118750000D02*
X34500000Y-118750000D01*
X56145030Y-114288970D02*
X51684000Y-118750000D01*
X90354999Y-111575001D02*
X87941040Y-113988960D01*
X90354999Y-105725001D02*
X90354999Y-111575001D01*
X91330000Y-104750000D02*
X90354999Y-105725001D01*
X87941040Y-113988960D02*
X54921040Y-113988960D01*
X51660000Y-117250000D02*
X35000000Y-117250000D01*
X54921040Y-113988960D02*
X51660000Y-117250000D01*
X87225001Y-106314999D02*
X87225001Y-111275999D01*
X88790000Y-104750000D02*
X87225001Y-106314999D01*
X84812050Y-113688950D02*
X54586050Y-113688950D01*
X87225001Y-111275999D02*
X84812050Y-113688950D01*
X51525000Y-116750000D02*
X34500000Y-116750000D01*
X54586050Y-113688950D02*
X51525000Y-116750000D01*
X51600722Y-116250000D02*
X35000000Y-116250000D01*
X54461782Y-113388940D02*
X51600722Y-116250000D01*
X85274999Y-105725001D02*
X85274999Y-109162001D01*
X81048060Y-113388940D02*
X54461782Y-113388940D01*
X85274999Y-109162001D02*
X81048060Y-113388940D01*
X86250000Y-104750000D02*
X85274999Y-105725001D01*
X51636000Y-115750000D02*
X34500000Y-115750000D01*
X54297070Y-113088930D02*
X51636000Y-115750000D01*
X77538070Y-113088930D02*
X54297070Y-113088930D01*
X82145001Y-108481999D02*
X77538070Y-113088930D01*
X82145001Y-106314999D02*
X82145001Y-108481999D01*
X83710000Y-104750000D02*
X82145001Y-106314999D01*
X81170000Y-104750000D02*
X81170000Y-104885000D01*
X23515000Y-125750000D02*
X25500000Y-125750000D01*
X22398009Y-104437381D02*
X22398009Y-124633009D01*
X112184176Y-116539990D02*
X116355950Y-112368216D01*
X24173380Y-102662010D02*
X22398009Y-104437381D01*
X116355950Y-105436784D02*
X113581176Y-102662010D01*
X83710000Y-123290000D02*
X85274999Y-121725001D01*
X22398009Y-124633009D02*
X23515000Y-125750000D01*
X116355950Y-112368216D02*
X116355950Y-105436784D01*
X85274999Y-120281999D02*
X89017008Y-116539990D01*
X85274999Y-121725001D02*
X85274999Y-120281999D01*
X89017008Y-116539990D02*
X112184176Y-116539990D01*
X113581176Y-102662010D02*
X24173380Y-102662010D01*
X23380000Y-126250000D02*
X25007000Y-126250000D01*
X113705444Y-102362000D02*
X24049112Y-102362000D01*
X116655960Y-105312516D02*
X113705444Y-102362000D01*
X22075070Y-104336042D02*
X22075070Y-124945070D01*
X22075070Y-124945070D02*
X23380000Y-126250000D01*
X112308444Y-116840000D02*
X116655960Y-112492484D01*
X24049112Y-102362000D02*
X22075070Y-104336042D01*
X87814999Y-120281999D02*
X91256998Y-116840000D01*
X91256998Y-116840000D02*
X112308444Y-116840000D01*
X116655960Y-112492484D02*
X116655960Y-105312516D01*
X87814999Y-121725001D02*
X87814999Y-120281999D01*
X86250000Y-123290000D02*
X87814999Y-121725001D01*
X21775060Y-104211774D02*
X21775060Y-125407060D01*
X116955970Y-112616752D02*
X116955970Y-105188248D01*
X24005834Y-101981000D02*
X21775060Y-104211774D01*
X113748722Y-101981000D02*
X24005834Y-101981000D01*
X116955970Y-105188248D02*
X113748722Y-101981000D01*
X112397732Y-117174990D02*
X116955970Y-112616752D01*
X93462008Y-117174990D02*
X112397732Y-117174990D01*
X89765001Y-122314999D02*
X89765001Y-120871997D01*
X23118000Y-126750000D02*
X25500000Y-126750000D01*
X89765001Y-120871997D02*
X93462008Y-117174990D01*
X21775060Y-125407060D02*
X23118000Y-126750000D01*
X88790000Y-123290000D02*
X89765001Y-122314999D01*
X95701998Y-117475000D02*
X112522000Y-117475000D01*
X21475050Y-125996050D02*
X22729000Y-127250000D01*
X21475050Y-104087506D02*
X21475050Y-125996050D01*
X23881565Y-101680991D02*
X21475050Y-104087506D01*
X113872990Y-101680990D02*
X23881565Y-101680991D01*
X117255980Y-112741020D02*
X117255980Y-105063980D01*
X92305001Y-122314999D02*
X92305001Y-120871997D01*
X92305001Y-120871997D02*
X95701998Y-117475000D01*
X22729000Y-127250000D02*
X25000000Y-127250000D01*
X112522000Y-117475000D02*
X117255980Y-112741020D01*
X117255980Y-105063980D02*
X113872990Y-101680990D01*
X91330000Y-123290000D02*
X92305001Y-122314999D01*
X22340000Y-127750000D02*
X25500000Y-127750000D01*
X107068012Y-101265010D02*
X23873268Y-101265010D01*
X112692176Y-117809990D02*
X117555990Y-112946176D01*
X21175040Y-126585040D02*
X22340000Y-127750000D01*
X21175040Y-103963238D02*
X21175040Y-126585040D01*
X95434999Y-120281999D02*
X97907008Y-117809990D01*
X95434999Y-121725001D02*
X95434999Y-120281999D01*
X97907008Y-117809990D02*
X112692176Y-117809990D01*
X23873268Y-101265010D02*
X21175040Y-103963238D01*
X93870000Y-123290000D02*
X95434999Y-121725001D01*
X117555990Y-111752988D02*
X117555990Y-104902000D01*
X113919000Y-101265010D02*
X23873268Y-101265010D01*
X117555990Y-104902000D02*
X113919000Y-101265010D01*
X117555990Y-112946176D02*
X117555990Y-111752988D01*
X97974999Y-120281999D02*
X97974999Y-121725001D01*
X21951000Y-128250000D02*
X20875030Y-127174030D01*
X100146998Y-118110000D02*
X97974999Y-120281999D01*
X97974999Y-121725001D02*
X96410000Y-123290000D01*
X117856000Y-104734556D02*
X117856000Y-113070444D01*
X114086444Y-100965000D02*
X117856000Y-104734556D01*
X20875030Y-103838970D02*
X23749000Y-100965000D01*
X112816444Y-118110000D02*
X100146998Y-118110000D01*
X25000000Y-128250000D02*
X21951000Y-128250000D01*
X20875030Y-127174030D02*
X20875030Y-103838970D01*
X23749000Y-100965000D02*
X114086444Y-100965000D01*
X117856000Y-113070444D02*
X112816444Y-118110000D01*
X21181000Y-128750000D02*
X25500000Y-128750000D01*
X118190990Y-104645268D02*
X114129722Y-100584000D01*
X20575020Y-128144020D02*
X21181000Y-128750000D01*
X20575020Y-103674258D02*
X20575020Y-128144020D01*
X23665278Y-100584000D02*
X20575020Y-103674258D01*
X112859722Y-118491000D02*
X118190990Y-113159732D01*
X102305998Y-118491000D02*
X112859722Y-118491000D01*
X99925001Y-120871997D02*
X102305998Y-118491000D01*
X98950000Y-123290000D02*
X99925001Y-122314999D01*
X114129722Y-100584000D02*
X23665278Y-100584000D01*
X118190990Y-113159732D02*
X118190990Y-104645268D01*
X99925001Y-122314999D02*
X99925001Y-120871997D01*
X102465001Y-120871997D02*
X104464998Y-118872000D01*
X102465001Y-122314999D02*
X102465001Y-120871997D01*
X101490000Y-123290000D02*
X102465001Y-122314999D01*
X104464998Y-118872000D02*
X112903000Y-118872000D01*
X112903000Y-118872000D02*
X118491000Y-113284000D01*
X118491000Y-104521000D02*
X114245010Y-100275010D01*
X118491000Y-113284000D02*
X118491000Y-104521000D01*
X23549990Y-100275010D02*
X20275010Y-103549990D01*
X114245010Y-100275010D02*
X23549990Y-100275010D01*
X20275010Y-103549990D02*
X20275010Y-128606010D01*
X20919000Y-129250000D02*
X25000000Y-129250000D01*
X20275010Y-128606010D02*
X20919000Y-129250000D01*
X24453000Y-139250000D02*
X25000000Y-139250000D01*
X23241000Y-140462000D02*
X24453000Y-139250000D01*
X23241000Y-156083000D02*
X23241000Y-140462000D01*
X112478722Y-156972000D02*
X24130000Y-156972000D01*
X106240998Y-133096000D02*
X113070444Y-133096000D01*
X115189000Y-154261722D02*
X112478722Y-156972000D01*
X113070444Y-133096000D02*
X115189000Y-135214556D01*
X115189000Y-135214556D02*
X115189000Y-154261722D01*
X103054999Y-137725001D02*
X103054999Y-136281999D01*
X103054999Y-136281999D02*
X106240998Y-133096000D01*
X24130000Y-156972000D02*
X23241000Y-156083000D01*
X101490000Y-139290000D02*
X103054999Y-137725001D01*
X22860000Y-140081000D02*
X24191000Y-138750000D01*
X22860000Y-156210000D02*
X22860000Y-140081000D01*
X23956990Y-157306990D02*
X22860000Y-156210000D01*
X98950000Y-139290000D02*
X99925001Y-138314999D01*
X112608454Y-157306990D02*
X23956990Y-157306990D01*
X112649000Y-157266444D02*
X112608454Y-157306990D01*
X115483546Y-154391454D02*
X112649000Y-157226000D01*
X115523990Y-154391454D02*
X115483546Y-154391454D01*
X115523990Y-135125268D02*
X115523990Y-154391454D01*
X112649000Y-157226000D02*
X112649000Y-157266444D01*
X113113722Y-132715000D02*
X115523990Y-135125268D01*
X104081998Y-132715000D02*
X113113722Y-132715000D01*
X24191000Y-138750000D02*
X25500000Y-138750000D01*
X99925001Y-136871997D02*
X104081998Y-132715000D01*
X99925001Y-138314999D02*
X99925001Y-136871997D01*
X23929000Y-138250000D02*
X25000000Y-138250000D01*
X96410000Y-139290000D02*
X97385001Y-138314999D01*
X22352000Y-156337000D02*
X22352000Y-139827000D01*
X101981000Y-132334000D02*
X113157000Y-132334000D01*
X23622000Y-157607000D02*
X22352000Y-156337000D01*
X97385001Y-136929999D02*
X101981000Y-132334000D01*
X112732722Y-157607000D02*
X23622000Y-157607000D01*
X115824000Y-135001000D02*
X115824000Y-154515722D01*
X113157000Y-132334000D02*
X115824000Y-135001000D01*
X115824000Y-154515722D02*
X112732722Y-157607000D01*
X22352000Y-139827000D02*
X23929000Y-138250000D01*
X97385001Y-138314999D02*
X97385001Y-136929999D01*
X94845001Y-136294999D02*
X99175970Y-131964030D01*
X94845001Y-138314999D02*
X94845001Y-136294999D01*
X93870000Y-139290000D02*
X94845001Y-138314999D01*
X99175970Y-131964030D02*
X113251752Y-131964030D01*
X113251752Y-131964030D02*
X116205000Y-134917278D01*
X116205000Y-134917278D02*
X116205000Y-154559000D01*
X116205000Y-154559000D02*
X112776000Y-157988000D01*
X112776000Y-157988000D02*
X23033112Y-157988000D01*
X23033112Y-157988000D02*
X21717000Y-156671888D01*
X21717000Y-156671888D02*
X21717000Y-139319000D01*
X23286000Y-137750000D02*
X25500000Y-137750000D01*
X21717000Y-139319000D02*
X23286000Y-137750000D01*
X92305001Y-135405999D02*
X96046980Y-131664020D01*
X92305001Y-138314999D02*
X92305001Y-135405999D01*
X91330000Y-139290000D02*
X92305001Y-138314999D01*
X96046980Y-131664020D02*
X113376020Y-131664020D01*
X113376020Y-131664020D02*
X116586000Y-134874000D01*
X116586000Y-154686000D02*
X112822010Y-158449990D01*
X116586000Y-134874000D02*
X116586000Y-154686000D01*
X112822010Y-158449990D02*
X23070824Y-158449990D01*
X23070824Y-158449990D02*
X21336000Y-156715166D01*
X21336000Y-156715166D02*
X21336000Y-138811000D01*
X22897000Y-137250000D02*
X25000000Y-137250000D01*
X21336000Y-138811000D02*
X22897000Y-137250000D01*
X89765001Y-134135999D02*
X92536990Y-131364010D01*
X89765001Y-138314999D02*
X89765001Y-134135999D01*
X88790000Y-139290000D02*
X89765001Y-138314999D01*
X92536990Y-131364010D02*
X113751454Y-131364010D01*
X113751454Y-131364010D02*
X116967000Y-134579556D01*
X116967000Y-134579556D02*
X116967000Y-154813000D01*
X116967000Y-154813000D02*
X113030000Y-158750000D01*
X113030000Y-158750000D02*
X22946556Y-158750000D01*
X22946556Y-158750000D02*
X20955000Y-156758444D01*
X20955000Y-156758444D02*
X20955000Y-137922000D01*
X22127000Y-136750000D02*
X25500000Y-136750000D01*
X20955000Y-137922000D02*
X22127000Y-136750000D01*
X20575020Y-137158980D02*
X22484000Y-135250000D01*
X22484000Y-135250000D02*
X25000000Y-135250000D01*
X20575020Y-156802742D02*
X20575020Y-137158980D01*
X113030000Y-159258000D02*
X23030278Y-159258000D01*
X23030278Y-159258000D02*
X20575020Y-156802742D01*
X117301990Y-154986010D02*
X113030000Y-159258000D01*
X86250000Y-139290000D02*
X87225001Y-138314999D01*
X89027000Y-131064000D02*
X113875722Y-131064000D01*
X117301990Y-134490268D02*
X117301990Y-154986010D01*
X113875722Y-131064000D02*
X117301990Y-134490268D01*
X87225001Y-132865999D02*
X89027000Y-131064000D01*
X87225001Y-138314999D02*
X87225001Y-132865999D01*
X22098000Y-134747000D02*
X22101000Y-134750000D01*
X20275010Y-136569990D02*
X22098000Y-134747000D01*
X20275010Y-156927010D02*
X20275010Y-136569990D01*
X113157000Y-159639000D02*
X22987000Y-159639000D01*
X88900000Y-130683000D02*
X113919000Y-130683000D01*
X117602000Y-155194000D02*
X113157000Y-159639000D01*
X113919000Y-130683000D02*
X117602000Y-134366000D01*
X22101000Y-134750000D02*
X25500000Y-134750000D01*
X84685001Y-138314999D02*
X84685001Y-134897999D01*
X22987000Y-159639000D02*
X20275010Y-156927010D01*
X83710000Y-139290000D02*
X84685001Y-138314999D01*
X84685001Y-134897999D02*
X88900000Y-130683000D01*
X117602000Y-134366000D02*
X117602000Y-155194000D01*
X54991000Y-144351000D02*
X54991000Y-144145000D01*
X63390000Y-152750000D02*
X54991000Y-144351000D01*
X58063000Y-144883000D02*
X58039000Y-144859000D01*
X58142000Y-145010000D02*
X57277000Y-144145000D01*
X58190000Y-145010000D02*
X58142000Y-145010000D01*
X65930000Y-152750000D02*
X58190000Y-145010000D01*
X58190000Y-145010000D02*
X58063000Y-144883000D01*
X61341000Y-145542000D02*
X61341000Y-145542000D01*
X67720001Y-152000001D02*
X68470000Y-152750000D01*
X67720001Y-151921001D02*
X67720001Y-152000001D01*
X59944000Y-144145000D02*
X67720001Y-151921001D01*
X62865000Y-144605000D02*
X62865000Y-144399000D01*
X71010000Y-152750000D02*
X62865000Y-144605000D01*
X73550000Y-152671000D02*
X73550000Y-152750000D01*
X65405000Y-144526000D02*
X66548000Y-145669000D01*
X66548000Y-145669000D02*
X73550000Y-152671000D01*
X66421000Y-145542000D02*
X66548000Y-145669000D01*
X68326000Y-144986000D02*
X76090000Y-152750000D01*
X68326000Y-144653000D02*
X68326000Y-144986000D01*
X78630000Y-152036000D02*
X78630000Y-152750000D01*
X78630000Y-152750000D02*
X70660000Y-144780000D01*
X70660000Y-144780000D02*
X70660000Y-144780000D01*
X80420001Y-152000001D02*
X80372001Y-152000001D01*
X81170000Y-152750000D02*
X80420001Y-152000001D01*
X80372001Y-152000001D02*
X73279000Y-144907000D01*
X73279000Y-144907000D02*
X73279000Y-144907000D01*
X83710000Y-152750000D02*
X75779500Y-144819500D01*
X75740000Y-144780000D02*
X75692000Y-144780000D01*
X75779500Y-144819500D02*
X75740000Y-144780000D01*
X85500001Y-152000001D02*
X85500001Y-151921001D01*
X86250000Y-152750000D02*
X85500001Y-152000001D01*
X85500001Y-151921001D02*
X78359000Y-144780000D01*
X78359000Y-144780000D02*
X78359000Y-144780000D01*
X88790000Y-152750000D02*
X80899000Y-144859000D01*
X80899000Y-144859000D02*
X80899000Y-144859000D01*
X90580001Y-152000001D02*
X90580001Y-151921001D01*
X91330000Y-152750000D02*
X90580001Y-152000001D01*
X90580001Y-151921001D02*
X83566000Y-144907000D01*
X83566000Y-144907000D02*
X83566000Y-144907000D01*
X93870000Y-152750000D02*
X85900000Y-144780000D01*
X85900000Y-144780000D02*
X85900000Y-144780000D01*
X96410000Y-152750000D02*
X88606500Y-144946500D01*
X88606500Y-144946500D02*
X88567000Y-144907000D01*
X98950000Y-152510000D02*
X98950000Y-152750000D01*
X98950000Y-152750000D02*
X91107000Y-144907000D01*
X91107000Y-144907000D02*
X91107000Y-144907000D01*
X101490000Y-152750000D02*
X93726000Y-144986000D01*
X93726000Y-144986000D02*
X93726000Y-144986000D01*
M02*
