%TF.GenerationSoftware,KiCad,Pcbnew,(5.1.5-0-10_14)*%
%TF.CreationDate,2020-01-10T14:35:19+01:00*%
%TF.ProjectId,adapter_hybrid_assister,61646170-7465-4725-9f68-79627269645f,rev?*%
%TF.SameCoordinates,PX6312cb0PY8accb70*%
%TF.FileFunction,Copper,L2,Inr*%
%TF.FilePolarity,Positive*%
%FSLAX45Y45*%
G04 Gerber Fmt 4.5, Leading zero omitted, Abs format (unit mm)*
G04 Created by KiCad (PCBNEW (5.1.5-0-10_14)) date 2020-01-10 14:35:19*
%MOMM*%
%LPD*%
G04 APERTURE LIST*
%TA.AperFunction,Profile*%
%ADD10C,0.050000*%
%TD*%
%TA.AperFunction,Profile*%
%ADD11C,0.100000*%
%TD*%
%TA.AperFunction,ViaPad*%
%ADD12C,1.995000*%
%TD*%
%TA.AperFunction,ViaPad*%
%ADD13C,0.800000*%
%TD*%
%TA.AperFunction,Conductor*%
%ADD14C,0.200000*%
%TD*%
G04 APERTURE END LIST*
D10*
X6713533Y7493000D02*
G75*
G03X6713533Y7493000I-33333J0D01*
G01*
X6630200Y7493000D02*
X6730200Y7493000D01*
X6680200Y7543000D02*
X6680200Y7443000D01*
X236533Y203200D02*
G75*
G03X236533Y203200I-33333J0D01*
G01*
X153200Y203200D02*
X253200Y203200D01*
X203200Y253200D02*
X203200Y153200D01*
X454800Y584200D02*
G75*
G03X454800Y584200I-150000J0D01*
G01*
X6703200Y584200D02*
G75*
G03X6703200Y584200I-150000J0D01*
G01*
X0Y0D02*
X0Y7670800D01*
X6858000Y7670800D02*
X6858000Y0D01*
D11*
X0Y7670800D02*
X6858000Y7670800D01*
X6858000Y0D02*
X0Y0D01*
D12*
%TO.N,GNDREF*%
%TO.C,J4*%
X6093900Y353800D03*
X4523900Y353800D03*
X6033900Y843800D03*
X4583900Y843800D03*
%TD*%
%TO.N,GNDREF*%
%TO.C,J3*%
X2283900Y353800D03*
X713900Y353800D03*
X2223900Y843800D03*
X773900Y843800D03*
%TD*%
D13*
%TO.N,GNDREF*%
X5969000Y7188200D03*
X6032500Y6235700D03*
X1397000Y5664200D03*
X2692400Y5079700D03*
X4000500Y5346700D03*
X3746500Y5029200D03*
X4889500Y5219700D03*
X6159500Y4648200D03*
X5270500Y4775200D03*
X317500Y3759200D03*
X1143000Y3759200D03*
X5715000Y1600200D03*
X5842000Y1600200D03*
X6477000Y1600200D03*
X4826000Y1422400D03*
X914400Y1320800D03*
X2667000Y228600D03*
X3556000Y787400D03*
X2794000Y4267200D03*
X5080000Y4394200D03*
%TO.N,2.5V*%
X1710500Y4398200D03*
X2222500Y3695700D03*
X3937000Y3695700D03*
X6540500Y3695700D03*
X4699000Y3695700D03*
X4521200Y3683000D03*
%TO.N,3.3V*%
X1397000Y5029200D03*
X3683000Y4902200D03*
X3683000Y4648200D03*
X3683000Y4521200D03*
X2680000Y4407200D03*
X3746500Y5600700D03*
X2476500Y5473700D03*
X2476500Y5219700D03*
X2476500Y5092700D03*
X4889500Y5473700D03*
X4889500Y5346700D03*
X4889500Y5092700D03*
X6159500Y4902200D03*
X6159500Y4775200D03*
X6159500Y4521200D03*
X5080000Y5029200D03*
X635000Y4394200D03*
X2222500Y3886200D03*
X3937000Y3886200D03*
X6540500Y3886200D03*
X4699000Y3886200D03*
X6096000Y3568700D03*
X3556000Y3568700D03*
X6159500Y3314700D03*
X5397500Y3124200D03*
X5384800Y2768600D03*
X5359400Y2159000D03*
%TO.N,/D_OUT_M1_1P*%
X4699000Y7188200D03*
X4635500Y5791200D03*
%TO.N,/D_OUT_M1_1N*%
X4572000Y7188200D03*
X4508500Y5791200D03*
%TO.N,/D_OUT_M2_1P*%
X4191000Y7188200D03*
X4381500Y5791200D03*
%TO.N,/D_OUT_M2_1N*%
X4064000Y7188200D03*
X4254500Y5791200D03*
%TO.N,TRG_1P*%
X2095500Y5791200D03*
X3784600Y7112000D03*
%TO.N,TRG_1N*%
X3683000Y7188200D03*
X1968500Y5791200D03*
%TO.N,BCLK_1P*%
X1841500Y5791200D03*
X3302000Y7086600D03*
%TO.N,BCLK_1N*%
X3175000Y7188200D03*
X1714500Y5791200D03*
%TO.N,SDA0B_1*%
X2540000Y7188200D03*
X2184400Y3987800D03*
%TO.N,SCL0B_1*%
X2667000Y7188200D03*
X3706900Y4038600D03*
%TO.N,3.3V_FMC*%
X952500Y7188200D03*
X635000Y4648200D03*
%TO.N,D_OUT_M1_2P*%
X4953000Y6680200D03*
X5905500Y5219700D03*
%TO.N,D_OUT_M1_2N*%
X4826000Y6680200D03*
X5778500Y5219700D03*
%TO.N,D_OUT_M2_2P*%
X4445000Y6680200D03*
X5651500Y5219700D03*
%TO.N,D_OUT_M2_2N*%
X4318000Y6680200D03*
X5524500Y5219700D03*
%TO.N,TRG_2P*%
X4064000Y6680200D03*
X3365500Y5219700D03*
%TO.N,TRG_2N*%
X3937000Y6680200D03*
X3238500Y5219700D03*
%TO.N,BCLK_2P*%
X3683000Y6680200D03*
X3111500Y5219700D03*
%TO.N,BCLK_2N*%
X3556000Y6680200D03*
X2984500Y5219700D03*
%TO.N,SDA0B_2*%
X3302000Y6680200D03*
X3302000Y6680200D03*
X5181600Y3962400D03*
%TO.N,SCL0B_2*%
X3429000Y6680200D03*
X3429000Y6680200D03*
X6200000Y4264800D03*
%TO.N,SCL1B*%
X3048000Y6680200D03*
X5842000Y3403600D03*
%TO.N,SDA1B*%
X2921000Y6680200D03*
X5715000Y3403600D03*
%TO.N,2.5V_VADJ_FMC*%
X1206500Y6680200D03*
X1587500Y4902200D03*
%TO.N,H_DOUT_M1_1P*%
X4635500Y4838700D03*
X2032000Y1320800D03*
%TO.N,H_DOUT_M1_1N*%
X4508500Y4838700D03*
X1930400Y1320800D03*
%TO.N,H_DOUT_M2_1P*%
X4381500Y4838700D03*
X1823900Y1315900D03*
%TO.N,H_DOUT_M2_1N*%
X4254500Y4838700D03*
X1701800Y1320800D03*
%TO.N,H_TRG_1P*%
X2095500Y4838700D03*
X1524000Y1320800D03*
%TO.N,H_TRG_1N*%
X1968500Y4838700D03*
X1422400Y1320800D03*
%TO.N,H_BCLK_1P*%
X1841500Y4838700D03*
X1320800Y1320800D03*
%TO.N,H_BCLK_1N*%
X1714500Y4838700D03*
X1219200Y1320800D03*
%TO.N,H_SCL0B_1*%
X3505200Y3810000D03*
X1117600Y1320800D03*
%TO.N,H_SDA0B_1*%
X2540000Y3505200D03*
X1016000Y1320800D03*
X1016000Y1320800D03*
%TO.N,H_SDA0B_2*%
X4953000Y1422400D03*
X5054600Y3556000D03*
%TO.N,H_SCL0B_2*%
X5054600Y1422400D03*
X5454800Y3473600D03*
%TO.N,H_BCLK_2N*%
X2984500Y4267200D03*
X5156200Y1422400D03*
%TO.N,H_BCLK_2P*%
X3111500Y4267200D03*
X5257800Y1422400D03*
%TO.N,H_TRG_2N*%
X3238500Y4267200D03*
X5359400Y1422400D03*
%TO.N,H_TRG_2P*%
X3365500Y4267200D03*
X5461000Y1422400D03*
%TO.N,H_DOUT_M2_2N*%
X5524500Y4267200D03*
X5533900Y1317500D03*
%TO.N,H_DOUT_M2_2P*%
X5651500Y4267200D03*
X5633900Y1315900D03*
%TO.N,H_DOUT_M1_2N*%
X5778500Y4267200D03*
X5791200Y1320800D03*
%TO.N,H_DOUT_M1_2P*%
X5905500Y4267200D03*
X5892800Y1320800D03*
%TO.N,PE*%
X3683000Y4775200D03*
X2476500Y5346700D03*
X6096000Y1600200D03*
%TO.N,EQ*%
X4000500Y5219700D03*
X5270500Y4648200D03*
X6223000Y1600200D03*
%TO.N,/5.0V*%
X444500Y4648200D03*
X1841500Y3568700D03*
X1077250Y3570950D03*
X1143000Y2552700D03*
%TO.N,/5.0V_USB*%
X3276600Y787400D03*
X1803400Y2413000D03*
%TD*%
D14*
%TO.N,SDA0B_1*%
X2286000Y4394200D02*
X2184400Y4292600D01*
X2184400Y4292600D02*
X2184400Y3987800D01*
X2286000Y6934200D02*
X2286000Y4394200D01*
X2540000Y7188200D02*
X2286000Y6934200D01*
%TO.N,SCL0B_1*%
X2406500Y6927700D02*
X2406500Y4577100D01*
X2667000Y7188200D02*
X2406500Y6927700D01*
X2406500Y4500300D02*
X2792000Y4114800D01*
X2406500Y4577100D02*
X2406500Y4500300D01*
X3630700Y4114800D02*
X3606800Y4114800D01*
X3706900Y4038600D02*
X3630700Y4114800D01*
X3606800Y4114800D02*
X3632200Y4114800D01*
X2792000Y4114800D02*
X3606800Y4114800D01*
%TO.N,D_OUT_M1_2P*%
X4953000Y6680200D02*
X4953000Y6362700D01*
X5905500Y5410200D02*
X5905500Y5219700D01*
X4953000Y6362700D02*
X5905500Y5410200D01*
%TO.N,D_OUT_M1_2N*%
X4826000Y6680200D02*
X4826000Y6362700D01*
X4826000Y6362700D02*
X5778500Y5410200D01*
X5778500Y5410200D02*
X5778500Y5219700D01*
%TO.N,D_OUT_M2_2P*%
X4445000Y6426200D02*
X5651500Y5219700D01*
X4445000Y6680200D02*
X4445000Y6426200D01*
%TO.N,D_OUT_M2_2N*%
X4318000Y6426200D02*
X5524500Y5219700D01*
X4318000Y6680200D02*
X4318000Y6426200D01*
%TO.N,TRG_2P*%
X3365500Y5276269D02*
X3365500Y5219700D01*
X3365500Y5323300D02*
X3365500Y5276269D01*
X4064000Y6021800D02*
X3365500Y5323300D01*
X4064000Y6680200D02*
X4064000Y6021800D01*
%TO.N,TRG_2N*%
X3937000Y6680200D02*
X3937000Y6070600D01*
X3238500Y5372100D02*
X3238500Y5219700D01*
X3937000Y6070600D02*
X3238500Y5372100D01*
%TO.N,BCLK_2P*%
X3683000Y6680200D02*
X3683000Y6096000D01*
X3111500Y5524500D02*
X3111500Y5219700D01*
X3683000Y6096000D02*
X3111500Y5524500D01*
%TO.N,BCLK_2N*%
X3556000Y6680200D02*
X3556000Y6146800D01*
X2984500Y5575300D02*
X2984500Y5219700D01*
X3556000Y6146800D02*
X2984500Y5575300D01*
%TO.N,SDA0B_2*%
X6280001Y5513369D02*
X6280001Y4241201D01*
X3435501Y6813701D02*
X4979669Y6813701D01*
X6280001Y4241201D02*
X6233600Y4194800D01*
X4979669Y6813701D02*
X6280001Y5513369D01*
X3302000Y6680200D02*
X3435501Y6813701D01*
X6233600Y4194800D02*
X5287000Y4194800D01*
X5181600Y4089400D02*
X5181600Y3962400D01*
X5287000Y4194800D02*
X5181600Y4089400D01*
%TO.N,SCL0B_2*%
X6240000Y5496800D02*
X6240000Y4304800D01*
X6240000Y4304800D02*
X6200000Y4264800D01*
X4963100Y6773700D02*
X6240000Y5496800D01*
X3522500Y6773700D02*
X4963100Y6773700D01*
X3429000Y6680200D02*
X3522500Y6773700D01*
%TO.N,SCL1B*%
X5842000Y3460168D02*
X5842000Y3403600D01*
X6320002Y5529938D02*
X6320002Y3938170D01*
X4996238Y6853702D02*
X6320002Y5529938D01*
X6320002Y3938170D02*
X5842000Y3460168D01*
X3221502Y6853702D02*
X4996238Y6853702D01*
X3048000Y6680200D02*
X3221502Y6853702D01*
%TO.N,SDA1B*%
X5875600Y3333600D02*
X5785000Y3333600D01*
X5926700Y3384700D02*
X5875600Y3333600D01*
X6360003Y3589403D02*
X6155300Y3384700D01*
X5785000Y3333600D02*
X5755000Y3363600D01*
X6360003Y5546507D02*
X6360003Y3589403D01*
X5012807Y6893703D02*
X6360003Y5546507D01*
X5755000Y3363600D02*
X5715000Y3403600D01*
X3134503Y6893703D02*
X5012807Y6893703D01*
X6155300Y3384700D02*
X5926700Y3384700D01*
X2921000Y6680200D02*
X3134503Y6893703D01*
%TO.N,H_DOUT_M1_1P*%
X4635500Y4782132D02*
X4445000Y4591632D01*
X4635500Y4838700D02*
X4635500Y4782132D01*
X4445000Y3733800D02*
X2032000Y1320800D01*
X4445000Y4591632D02*
X4445000Y3733800D01*
%TO.N,H_DOUT_M1_1N*%
X4508500Y4838700D02*
X4318000Y4648200D01*
X4318000Y3708400D02*
X1930400Y1320800D01*
X4318000Y4648200D02*
X4318000Y3708400D01*
%TO.N,H_DOUT_M2_1P*%
X3867000Y3638400D02*
X1823900Y1595300D01*
X3867000Y4347600D02*
X3867000Y3638400D01*
X4358100Y4838700D02*
X3867000Y4347600D01*
X1823900Y1595300D02*
X1823900Y1315900D01*
X4381500Y4838700D02*
X4358100Y4838700D01*
%TO.N,H_DOUT_M2_1N*%
X4197932Y4838700D02*
X3784600Y4425369D01*
X4254500Y4838700D02*
X4197932Y4838700D01*
X1701800Y1377369D02*
X1701800Y1320800D01*
X1701800Y1610900D02*
X1701800Y1377369D01*
X3784600Y3693700D02*
X1701800Y1610900D01*
X3784600Y4425369D02*
X3784600Y3693700D01*
%TO.N,H_SCL0B_1*%
X1117600Y1955800D02*
X2641600Y3479800D01*
X3175000Y3479800D02*
X3505200Y3810000D01*
X2641600Y3479800D02*
X3175000Y3479800D01*
X1117600Y1346200D02*
X1117600Y1955800D01*
X1117600Y1320800D02*
X1117600Y1346200D01*
%TO.N,H_SDA0B_1*%
X1016000Y1981200D02*
X2540000Y3505200D01*
X1016000Y1981200D02*
X1016000Y1320800D01*
%TO.N,H_SDA0B_2*%
X4953000Y3454400D02*
X5054600Y3556000D01*
X4953000Y1422400D02*
X4953000Y3454400D01*
%TO.N,H_SCL0B_2*%
X5054600Y3073400D02*
X5054600Y1422400D01*
X5454800Y3473600D02*
X5054600Y3073400D01*
%TO.N,EQ*%
X4929600Y4648200D02*
X5213932Y4648200D01*
X5213932Y4648200D02*
X5270500Y4648200D01*
X4000500Y5219700D02*
X4356100Y5219700D01*
X4699000Y4876800D02*
X4929600Y4648200D01*
X4356100Y5219700D02*
X4699000Y4876800D01*
X4358100Y5219700D02*
X4699000Y4876800D01*
%TD*%
M02*
