%TF.GenerationSoftware,KiCad,Pcbnew,(5.1.5-0-10_14)*%
%TF.CreationDate,2020-01-10T14:35:19+01:00*%
%TF.ProjectId,adapter_hybrid_assister,61646170-7465-4725-9f68-79627269645f,rev?*%
%TF.SameCoordinates,PX6312cb0PY8accb70*%
%TF.FileFunction,Paste,Top*%
%TF.FilePolarity,Positive*%
%FSLAX45Y45*%
G04 Gerber Fmt 4.5, Leading zero omitted, Abs format (unit mm)*
G04 Created by KiCad (PCBNEW (5.1.5-0-10_14)) date 2020-01-10 14:35:19*
%MOMM*%
%LPD*%
G04 APERTURE LIST*
%TA.AperFunction,Profile*%
%ADD10C,0.050000*%
%TD*%
%TA.AperFunction,Profile*%
%ADD11C,0.100000*%
%TD*%
%ADD12R,1.000000X0.950000*%
%ADD13R,2.400000X2.400000*%
%ADD14R,0.850000X0.300000*%
%ADD15R,0.300000X0.850000*%
%ADD16C,0.100000*%
%ADD17R,0.810000X1.820000*%
%ADD18R,0.600000X2.060000*%
%ADD19R,2.300000X1.900000*%
%ADD20R,1.800000X1.900000*%
%ADD21R,0.400000X1.400000*%
%ADD22C,0.640000*%
%ADD23R,0.300000X1.900000*%
G04 APERTURE END LIST*
D10*
X6713533Y7493000D02*
G75*
G03X6713533Y7493000I-33333J0D01*
G01*
X6630200Y7493000D02*
X6730200Y7493000D01*
X6680200Y7543000D02*
X6680200Y7443000D01*
X236533Y203200D02*
G75*
G03X236533Y203200I-33333J0D01*
G01*
X153200Y203200D02*
X253200Y203200D01*
X203200Y253200D02*
X203200Y153200D01*
X454800Y584200D02*
G75*
G03X454800Y584200I-150000J0D01*
G01*
X6703200Y584200D02*
G75*
G03X6703200Y584200I-150000J0D01*
G01*
X0Y0D02*
X0Y7670800D01*
X6858000Y7670800D02*
X6858000Y0D01*
D11*
X0Y7670800D02*
X6858000Y7670800D01*
X6858000Y0D02*
X0Y0D01*
D12*
%TO.C,C6*%
X1397000Y5359400D03*
X1397000Y5199400D03*
%TD*%
%TO.C,C8*%
X2692400Y4927600D03*
X2692400Y4767600D03*
%TD*%
D13*
%TO.C,U6*%
X1905000Y5283200D03*
D14*
X2100000Y5358200D03*
X2100000Y5308200D03*
X2100000Y5258200D03*
X2100000Y5208200D03*
D15*
X1980000Y5088200D03*
X1930000Y5088200D03*
X1880000Y5088200D03*
X1830000Y5088200D03*
D14*
X1710000Y5208200D03*
X1710000Y5258200D03*
X1710000Y5308200D03*
X1710000Y5358200D03*
D15*
X1830000Y5478200D03*
X1880000Y5478200D03*
X1930000Y5478200D03*
X1980000Y5478200D03*
%TD*%
D13*
%TO.C,U8*%
X3175000Y4711700D03*
D14*
X3370000Y4786700D03*
X3370000Y4736700D03*
X3370000Y4686700D03*
X3370000Y4636700D03*
D15*
X3250000Y4516700D03*
X3200000Y4516700D03*
X3150000Y4516700D03*
X3100000Y4516700D03*
D14*
X2980000Y4636700D03*
X2980000Y4686700D03*
X2980000Y4736700D03*
X2980000Y4786700D03*
D15*
X3100000Y4906700D03*
X3150000Y4906700D03*
X3200000Y4906700D03*
X3250000Y4906700D03*
%TD*%
D16*
%TO.C,R31*%
G36*
X5718719Y3171595D02*
G01*
X5720843Y3171280D01*
X5722925Y3170758D01*
X5724946Y3170035D01*
X5726887Y3169117D01*
X5728728Y3168013D01*
X5730452Y3166735D01*
X5732043Y3165293D01*
X5733485Y3163702D01*
X5734763Y3161978D01*
X5735867Y3160137D01*
X5736785Y3158196D01*
X5737508Y3156175D01*
X5738030Y3154093D01*
X5738345Y3151969D01*
X5738450Y3149825D01*
X5738450Y3098575D01*
X5738345Y3096431D01*
X5738030Y3094307D01*
X5737508Y3092225D01*
X5736785Y3090204D01*
X5735867Y3088263D01*
X5734763Y3086422D01*
X5733485Y3084698D01*
X5732043Y3083107D01*
X5730452Y3081665D01*
X5728728Y3080387D01*
X5726887Y3079283D01*
X5724946Y3078365D01*
X5722925Y3077642D01*
X5720843Y3077120D01*
X5718719Y3076805D01*
X5716575Y3076700D01*
X5672825Y3076700D01*
X5670681Y3076805D01*
X5668557Y3077120D01*
X5666475Y3077642D01*
X5664454Y3078365D01*
X5662513Y3079283D01*
X5660672Y3080387D01*
X5658948Y3081665D01*
X5657357Y3083107D01*
X5655915Y3084698D01*
X5654637Y3086422D01*
X5653533Y3088263D01*
X5652615Y3090204D01*
X5651892Y3092225D01*
X5651370Y3094307D01*
X5651055Y3096431D01*
X5650950Y3098575D01*
X5650950Y3149825D01*
X5651055Y3151969D01*
X5651370Y3154093D01*
X5651892Y3156175D01*
X5652615Y3158196D01*
X5653533Y3160137D01*
X5654637Y3161978D01*
X5655915Y3163702D01*
X5657357Y3165293D01*
X5658948Y3166735D01*
X5660672Y3168013D01*
X5662513Y3169117D01*
X5664454Y3170035D01*
X5666475Y3170758D01*
X5668557Y3171280D01*
X5670681Y3171595D01*
X5672825Y3171700D01*
X5716575Y3171700D01*
X5718719Y3171595D01*
G37*
G36*
X5561219Y3171595D02*
G01*
X5563343Y3171280D01*
X5565425Y3170758D01*
X5567446Y3170035D01*
X5569387Y3169117D01*
X5571228Y3168013D01*
X5572952Y3166735D01*
X5574543Y3165293D01*
X5575985Y3163702D01*
X5577263Y3161978D01*
X5578367Y3160137D01*
X5579285Y3158196D01*
X5580008Y3156175D01*
X5580530Y3154093D01*
X5580845Y3151969D01*
X5580950Y3149825D01*
X5580950Y3098575D01*
X5580845Y3096431D01*
X5580530Y3094307D01*
X5580008Y3092225D01*
X5579285Y3090204D01*
X5578367Y3088263D01*
X5577263Y3086422D01*
X5575985Y3084698D01*
X5574543Y3083107D01*
X5572952Y3081665D01*
X5571228Y3080387D01*
X5569387Y3079283D01*
X5567446Y3078365D01*
X5565425Y3077642D01*
X5563343Y3077120D01*
X5561219Y3076805D01*
X5559075Y3076700D01*
X5515325Y3076700D01*
X5513181Y3076805D01*
X5511057Y3077120D01*
X5508975Y3077642D01*
X5506954Y3078365D01*
X5505013Y3079283D01*
X5503172Y3080387D01*
X5501448Y3081665D01*
X5499857Y3083107D01*
X5498415Y3084698D01*
X5497137Y3086422D01*
X5496033Y3088263D01*
X5495115Y3090204D01*
X5494392Y3092225D01*
X5493870Y3094307D01*
X5493555Y3096431D01*
X5493450Y3098575D01*
X5493450Y3149825D01*
X5493555Y3151969D01*
X5493870Y3154093D01*
X5494392Y3156175D01*
X5495115Y3158196D01*
X5496033Y3160137D01*
X5497137Y3161978D01*
X5498415Y3163702D01*
X5499857Y3165293D01*
X5501448Y3166735D01*
X5503172Y3168013D01*
X5505013Y3169117D01*
X5506954Y3170035D01*
X5508975Y3170758D01*
X5511057Y3171280D01*
X5513181Y3171595D01*
X5515325Y3171700D01*
X5559075Y3171700D01*
X5561219Y3171595D01*
G37*
%TD*%
%TO.C,R32*%
G36*
X5866019Y3171595D02*
G01*
X5868143Y3171280D01*
X5870225Y3170758D01*
X5872246Y3170035D01*
X5874187Y3169117D01*
X5876028Y3168013D01*
X5877752Y3166735D01*
X5879343Y3165293D01*
X5880785Y3163702D01*
X5882063Y3161978D01*
X5883167Y3160137D01*
X5884085Y3158196D01*
X5884808Y3156175D01*
X5885330Y3154093D01*
X5885645Y3151969D01*
X5885750Y3149825D01*
X5885750Y3098575D01*
X5885645Y3096431D01*
X5885330Y3094307D01*
X5884808Y3092225D01*
X5884085Y3090204D01*
X5883167Y3088263D01*
X5882063Y3086422D01*
X5880785Y3084698D01*
X5879343Y3083107D01*
X5877752Y3081665D01*
X5876028Y3080387D01*
X5874187Y3079283D01*
X5872246Y3078365D01*
X5870225Y3077642D01*
X5868143Y3077120D01*
X5866019Y3076805D01*
X5863875Y3076700D01*
X5820125Y3076700D01*
X5817981Y3076805D01*
X5815857Y3077120D01*
X5813775Y3077642D01*
X5811754Y3078365D01*
X5809813Y3079283D01*
X5807972Y3080387D01*
X5806248Y3081665D01*
X5804657Y3083107D01*
X5803215Y3084698D01*
X5801937Y3086422D01*
X5800833Y3088263D01*
X5799915Y3090204D01*
X5799192Y3092225D01*
X5798670Y3094307D01*
X5798355Y3096431D01*
X5798250Y3098575D01*
X5798250Y3149825D01*
X5798355Y3151969D01*
X5798670Y3154093D01*
X5799192Y3156175D01*
X5799915Y3158196D01*
X5800833Y3160137D01*
X5801937Y3161978D01*
X5803215Y3163702D01*
X5804657Y3165293D01*
X5806248Y3166735D01*
X5807972Y3168013D01*
X5809813Y3169117D01*
X5811754Y3170035D01*
X5813775Y3170758D01*
X5815857Y3171280D01*
X5817981Y3171595D01*
X5820125Y3171700D01*
X5863875Y3171700D01*
X5866019Y3171595D01*
G37*
G36*
X6023519Y3171595D02*
G01*
X6025643Y3171280D01*
X6027725Y3170758D01*
X6029746Y3170035D01*
X6031687Y3169117D01*
X6033528Y3168013D01*
X6035252Y3166735D01*
X6036843Y3165293D01*
X6038285Y3163702D01*
X6039563Y3161978D01*
X6040667Y3160137D01*
X6041585Y3158196D01*
X6042308Y3156175D01*
X6042830Y3154093D01*
X6043145Y3151969D01*
X6043250Y3149825D01*
X6043250Y3098575D01*
X6043145Y3096431D01*
X6042830Y3094307D01*
X6042308Y3092225D01*
X6041585Y3090204D01*
X6040667Y3088263D01*
X6039563Y3086422D01*
X6038285Y3084698D01*
X6036843Y3083107D01*
X6035252Y3081665D01*
X6033528Y3080387D01*
X6031687Y3079283D01*
X6029746Y3078365D01*
X6027725Y3077642D01*
X6025643Y3077120D01*
X6023519Y3076805D01*
X6021375Y3076700D01*
X5977625Y3076700D01*
X5975481Y3076805D01*
X5973357Y3077120D01*
X5971275Y3077642D01*
X5969254Y3078365D01*
X5967313Y3079283D01*
X5965472Y3080387D01*
X5963748Y3081665D01*
X5962157Y3083107D01*
X5960715Y3084698D01*
X5959437Y3086422D01*
X5958333Y3088263D01*
X5957415Y3090204D01*
X5956692Y3092225D01*
X5956170Y3094307D01*
X5955855Y3096431D01*
X5955750Y3098575D01*
X5955750Y3149825D01*
X5955855Y3151969D01*
X5956170Y3154093D01*
X5956692Y3156175D01*
X5957415Y3158196D01*
X5958333Y3160137D01*
X5959437Y3161978D01*
X5960715Y3163702D01*
X5962157Y3165293D01*
X5963748Y3166735D01*
X5965472Y3168013D01*
X5967313Y3169117D01*
X5969254Y3170035D01*
X5971275Y3170758D01*
X5973357Y3171280D01*
X5975481Y3171595D01*
X5977625Y3171700D01*
X6021375Y3171700D01*
X6023519Y3171595D01*
G37*
%TD*%
%TO.C,R33*%
G36*
X5387169Y1868695D02*
G01*
X5389293Y1868380D01*
X5391375Y1867858D01*
X5393396Y1867135D01*
X5395337Y1866217D01*
X5397178Y1865113D01*
X5398902Y1863835D01*
X5400493Y1862393D01*
X5401935Y1860802D01*
X5403213Y1859078D01*
X5404317Y1857237D01*
X5405235Y1855296D01*
X5405958Y1853275D01*
X5406480Y1851193D01*
X5406795Y1849069D01*
X5406900Y1846925D01*
X5406900Y1803175D01*
X5406795Y1801031D01*
X5406480Y1798907D01*
X5405958Y1796825D01*
X5405235Y1794804D01*
X5404317Y1792863D01*
X5403213Y1791022D01*
X5401935Y1789298D01*
X5400493Y1787707D01*
X5398902Y1786265D01*
X5397178Y1784987D01*
X5395337Y1783883D01*
X5393396Y1782965D01*
X5391375Y1782242D01*
X5389293Y1781720D01*
X5387169Y1781405D01*
X5385025Y1781300D01*
X5333775Y1781300D01*
X5331631Y1781405D01*
X5329507Y1781720D01*
X5327425Y1782242D01*
X5325404Y1782965D01*
X5323463Y1783883D01*
X5321622Y1784987D01*
X5319898Y1786265D01*
X5318307Y1787707D01*
X5316865Y1789298D01*
X5315587Y1791022D01*
X5314483Y1792863D01*
X5313565Y1794804D01*
X5312842Y1796825D01*
X5312320Y1798907D01*
X5312005Y1801031D01*
X5311900Y1803175D01*
X5311900Y1846925D01*
X5312005Y1849069D01*
X5312320Y1851193D01*
X5312842Y1853275D01*
X5313565Y1855296D01*
X5314483Y1857237D01*
X5315587Y1859078D01*
X5316865Y1860802D01*
X5318307Y1862393D01*
X5319898Y1863835D01*
X5321622Y1865113D01*
X5323463Y1866217D01*
X5325404Y1867135D01*
X5327425Y1867858D01*
X5329507Y1868380D01*
X5331631Y1868695D01*
X5333775Y1868800D01*
X5385025Y1868800D01*
X5387169Y1868695D01*
G37*
G36*
X5387169Y2026195D02*
G01*
X5389293Y2025880D01*
X5391375Y2025358D01*
X5393396Y2024635D01*
X5395337Y2023717D01*
X5397178Y2022613D01*
X5398902Y2021335D01*
X5400493Y2019893D01*
X5401935Y2018302D01*
X5403213Y2016578D01*
X5404317Y2014737D01*
X5405235Y2012796D01*
X5405958Y2010775D01*
X5406480Y2008693D01*
X5406795Y2006569D01*
X5406900Y2004425D01*
X5406900Y1960675D01*
X5406795Y1958531D01*
X5406480Y1956407D01*
X5405958Y1954325D01*
X5405235Y1952304D01*
X5404317Y1950363D01*
X5403213Y1948522D01*
X5401935Y1946798D01*
X5400493Y1945207D01*
X5398902Y1943765D01*
X5397178Y1942487D01*
X5395337Y1941383D01*
X5393396Y1940465D01*
X5391375Y1939742D01*
X5389293Y1939220D01*
X5387169Y1938905D01*
X5385025Y1938800D01*
X5333775Y1938800D01*
X5331631Y1938905D01*
X5329507Y1939220D01*
X5327425Y1939742D01*
X5325404Y1940465D01*
X5323463Y1941383D01*
X5321622Y1942487D01*
X5319898Y1943765D01*
X5318307Y1945207D01*
X5316865Y1946798D01*
X5315587Y1948522D01*
X5314483Y1950363D01*
X5313565Y1952304D01*
X5312842Y1954325D01*
X5312320Y1956407D01*
X5312005Y1958531D01*
X5311900Y1960675D01*
X5311900Y2004425D01*
X5312005Y2006569D01*
X5312320Y2008693D01*
X5312842Y2010775D01*
X5313565Y2012796D01*
X5314483Y2014737D01*
X5315587Y2016578D01*
X5316865Y2018302D01*
X5318307Y2019893D01*
X5319898Y2021335D01*
X5321622Y2022613D01*
X5323463Y2023717D01*
X5325404Y2024635D01*
X5327425Y2025358D01*
X5329507Y2025880D01*
X5331631Y2026195D01*
X5333775Y2026300D01*
X5385025Y2026300D01*
X5387169Y2026195D01*
G37*
%TD*%
%TO.C,R34*%
G36*
X6187269Y3037095D02*
G01*
X6189393Y3036780D01*
X6191475Y3036258D01*
X6193496Y3035535D01*
X6195437Y3034617D01*
X6197278Y3033513D01*
X6199002Y3032235D01*
X6200593Y3030793D01*
X6202035Y3029202D01*
X6203313Y3027478D01*
X6204417Y3025637D01*
X6205335Y3023696D01*
X6206058Y3021675D01*
X6206580Y3019593D01*
X6206895Y3017469D01*
X6207000Y3015325D01*
X6207000Y2971575D01*
X6206895Y2969431D01*
X6206580Y2967307D01*
X6206058Y2965225D01*
X6205335Y2963204D01*
X6204417Y2961263D01*
X6203313Y2959422D01*
X6202035Y2957698D01*
X6200593Y2956107D01*
X6199002Y2954665D01*
X6197278Y2953387D01*
X6195437Y2952283D01*
X6193496Y2951365D01*
X6191475Y2950642D01*
X6189393Y2950120D01*
X6187269Y2949805D01*
X6185125Y2949700D01*
X6133875Y2949700D01*
X6131731Y2949805D01*
X6129607Y2950120D01*
X6127525Y2950642D01*
X6125504Y2951365D01*
X6123563Y2952283D01*
X6121722Y2953387D01*
X6119998Y2954665D01*
X6118407Y2956107D01*
X6116965Y2957698D01*
X6115687Y2959422D01*
X6114583Y2961263D01*
X6113665Y2963204D01*
X6112942Y2965225D01*
X6112420Y2967307D01*
X6112105Y2969431D01*
X6112000Y2971575D01*
X6112000Y3015325D01*
X6112105Y3017469D01*
X6112420Y3019593D01*
X6112942Y3021675D01*
X6113665Y3023696D01*
X6114583Y3025637D01*
X6115687Y3027478D01*
X6116965Y3029202D01*
X6118407Y3030793D01*
X6119998Y3032235D01*
X6121722Y3033513D01*
X6123563Y3034617D01*
X6125504Y3035535D01*
X6127525Y3036258D01*
X6129607Y3036780D01*
X6131731Y3037095D01*
X6133875Y3037200D01*
X6185125Y3037200D01*
X6187269Y3037095D01*
G37*
G36*
X6187269Y3194595D02*
G01*
X6189393Y3194280D01*
X6191475Y3193758D01*
X6193496Y3193035D01*
X6195437Y3192117D01*
X6197278Y3191013D01*
X6199002Y3189735D01*
X6200593Y3188293D01*
X6202035Y3186702D01*
X6203313Y3184978D01*
X6204417Y3183137D01*
X6205335Y3181196D01*
X6206058Y3179175D01*
X6206580Y3177093D01*
X6206895Y3174969D01*
X6207000Y3172825D01*
X6207000Y3129075D01*
X6206895Y3126931D01*
X6206580Y3124807D01*
X6206058Y3122725D01*
X6205335Y3120704D01*
X6204417Y3118763D01*
X6203313Y3116922D01*
X6202035Y3115198D01*
X6200593Y3113607D01*
X6199002Y3112165D01*
X6197278Y3110887D01*
X6195437Y3109783D01*
X6193496Y3108865D01*
X6191475Y3108142D01*
X6189393Y3107620D01*
X6187269Y3107305D01*
X6185125Y3107200D01*
X6133875Y3107200D01*
X6131731Y3107305D01*
X6129607Y3107620D01*
X6127525Y3108142D01*
X6125504Y3108865D01*
X6123563Y3109783D01*
X6121722Y3110887D01*
X6119998Y3112165D01*
X6118407Y3113607D01*
X6116965Y3115198D01*
X6115687Y3116922D01*
X6114583Y3118763D01*
X6113665Y3120704D01*
X6112942Y3122725D01*
X6112420Y3124807D01*
X6112105Y3126931D01*
X6112000Y3129075D01*
X6112000Y3172825D01*
X6112105Y3174969D01*
X6112420Y3177093D01*
X6112942Y3179175D01*
X6113665Y3181196D01*
X6114583Y3183137D01*
X6115687Y3184978D01*
X6116965Y3186702D01*
X6118407Y3188293D01*
X6119998Y3189735D01*
X6121722Y3191013D01*
X6123563Y3192117D01*
X6125504Y3193035D01*
X6127525Y3193758D01*
X6129607Y3194280D01*
X6131731Y3194595D01*
X6133875Y3194700D01*
X6185125Y3194700D01*
X6187269Y3194595D01*
G37*
%TD*%
D17*
%TO.C,F1*%
X1290500Y2425700D03*
X1630500Y2425700D03*
%TD*%
D18*
%TO.C,U3*%
X5588000Y2762700D03*
X5715000Y2762700D03*
X5842000Y2762700D03*
X5969000Y2762700D03*
X6096000Y2762700D03*
X6223000Y2762700D03*
X6350000Y2762700D03*
X6477000Y2762700D03*
X6477000Y1834700D03*
X6350000Y1834700D03*
X6223000Y1834700D03*
X6096000Y1834700D03*
X5969000Y1834700D03*
X5842000Y1834700D03*
X5715000Y1834700D03*
X5588000Y1834700D03*
%TD*%
D19*
%TO.C,J1*%
X3790600Y228600D03*
D20*
X3530600Y228600D03*
X3300600Y228600D03*
D19*
X3040600Y228600D03*
D21*
X3545600Y513600D03*
X3480600Y513600D03*
X3415600Y513600D03*
X3350600Y513600D03*
X3285600Y513600D03*
%TD*%
D22*
%TO.C,J2*%
X952500Y6362700D03*
X1079500Y6362700D03*
X1206500Y6362700D03*
X1333500Y6362700D03*
X1460500Y6362700D03*
X1587500Y6362700D03*
X1714500Y6362700D03*
X1841500Y6362700D03*
X1968500Y6362700D03*
X2095500Y6362700D03*
X2222500Y6362700D03*
X2349500Y6362700D03*
X2476500Y6362700D03*
X2603500Y6362700D03*
X2730500Y6362700D03*
X2857500Y6362700D03*
X2984500Y6362700D03*
X3111500Y6362700D03*
X3238500Y6362700D03*
X3365500Y6362700D03*
X3492500Y6362700D03*
X3619500Y6362700D03*
X3746500Y6362700D03*
X3873500Y6362700D03*
X4000500Y6362700D03*
X4127500Y6362700D03*
X4254500Y6362700D03*
X4381500Y6362700D03*
X4508500Y6362700D03*
X4635500Y6362700D03*
X4762500Y6362700D03*
X4889500Y6362700D03*
X5016500Y6362700D03*
X5143500Y6362700D03*
X5270500Y6362700D03*
X5397500Y6362700D03*
X5524500Y6362700D03*
X5651500Y6362700D03*
X5778500Y6362700D03*
X5905500Y6362700D03*
X952500Y6489700D03*
X1079500Y6489700D03*
X1206500Y6489700D03*
X1333500Y6489700D03*
X1460500Y6489700D03*
X1587500Y6489700D03*
X1714500Y6489700D03*
X1841500Y6489700D03*
X1968500Y6489700D03*
X2095500Y6489700D03*
X2222500Y6489700D03*
X2349500Y6489700D03*
X2476500Y6489700D03*
X2603500Y6489700D03*
X2730500Y6489700D03*
X2857500Y6489700D03*
X2984500Y6489700D03*
X3111500Y6489700D03*
X3238500Y6489700D03*
X3365500Y6489700D03*
X3492500Y6489700D03*
X3619500Y6489700D03*
X3746500Y6489700D03*
X3873500Y6489700D03*
X4000500Y6489700D03*
X4127500Y6489700D03*
X4254500Y6489700D03*
X4381500Y6489700D03*
X4508500Y6489700D03*
X4635500Y6489700D03*
X4762500Y6489700D03*
X4889500Y6489700D03*
X5016500Y6489700D03*
X5143500Y6489700D03*
X5270500Y6489700D03*
X5397500Y6489700D03*
X5524500Y6489700D03*
X5651500Y6489700D03*
X5778500Y6489700D03*
X5905500Y6489700D03*
X952500Y6870700D03*
X1079500Y6870700D03*
X1206500Y6870700D03*
X1333500Y6870700D03*
X1460500Y6870700D03*
X1587500Y6870700D03*
X1714500Y6870700D03*
X1841500Y6870700D03*
X1968500Y6870700D03*
X2095500Y6870700D03*
X2222500Y6870700D03*
X2349500Y6870700D03*
X2476500Y6870700D03*
X2603500Y6870700D03*
X2730500Y6870700D03*
X2857500Y6870700D03*
X2984500Y6870700D03*
X3111500Y6870700D03*
X3238500Y6870700D03*
X3365500Y6870700D03*
X3492500Y6870700D03*
X3619500Y6870700D03*
X3746500Y6870700D03*
X3873500Y6870700D03*
X4000500Y6870700D03*
X4127500Y6870700D03*
X4254500Y6870700D03*
X4381500Y6870700D03*
X4508500Y6870700D03*
X4635500Y6870700D03*
X4762500Y6870700D03*
X4889500Y6870700D03*
X5016500Y6870700D03*
X5143500Y6870700D03*
X5270500Y6870700D03*
X5397500Y6870700D03*
X5524500Y6870700D03*
X5651500Y6870700D03*
X5778500Y6870700D03*
X5905500Y6870700D03*
X952500Y6997700D03*
X1079500Y6997700D03*
X1206500Y6997700D03*
X1333500Y6997700D03*
X1460500Y6997700D03*
X1587500Y6997700D03*
X1714500Y6997700D03*
X1841500Y6997700D03*
X1968500Y6997700D03*
X2095500Y6997700D03*
X2222500Y6997700D03*
X2349500Y6997700D03*
X2476500Y6997700D03*
X2603500Y6997700D03*
X2730500Y6997700D03*
X2857500Y6997700D03*
X2984500Y6997700D03*
X3111500Y6997700D03*
X3238500Y6997700D03*
X3365500Y6997700D03*
X3492500Y6997700D03*
X3619500Y6997700D03*
X3746500Y6997700D03*
X3873500Y6997700D03*
X4000500Y6997700D03*
X4127500Y6997700D03*
X4254500Y6997700D03*
X4381500Y6997700D03*
X4508500Y6997700D03*
X4635500Y6997700D03*
X4762500Y6997700D03*
X4889500Y6997700D03*
X5016500Y6997700D03*
X5143500Y6997700D03*
X5270500Y6997700D03*
X5397500Y6997700D03*
X5524500Y6997700D03*
X5651500Y6997700D03*
X5778500Y6997700D03*
X5905500Y6997700D03*
%TD*%
D23*
%TO.C,J4*%
X4883900Y943800D03*
X4933900Y943800D03*
X4983900Y943800D03*
X5033900Y943800D03*
X5083900Y943800D03*
X5133900Y943800D03*
X5183900Y943800D03*
X5233900Y943800D03*
X5283900Y943800D03*
X5333900Y943800D03*
X5383900Y943800D03*
X5433900Y943800D03*
X5483900Y943800D03*
X5533900Y943800D03*
X5583900Y943800D03*
X5633900Y943800D03*
X5683900Y943800D03*
X5733900Y943800D03*
X5783900Y943800D03*
%TD*%
%TO.C,J3*%
X1073900Y943800D03*
X1123900Y943800D03*
X1173900Y943800D03*
X1223900Y943800D03*
X1273900Y943800D03*
X1323900Y943800D03*
X1373900Y943800D03*
X1423900Y943800D03*
X1473900Y943800D03*
X1523900Y943800D03*
X1573900Y943800D03*
X1623900Y943800D03*
X1673900Y943800D03*
X1723900Y943800D03*
X1773900Y943800D03*
X1823900Y943800D03*
X1873900Y943800D03*
X1923900Y943800D03*
X1973900Y943800D03*
%TD*%
M02*
