%TF.GenerationSoftware,KiCad,Pcbnew,(5.1.5-0-10_14)*%
%TF.CreationDate,2020-01-10T14:35:19+01:00*%
%TF.ProjectId,adapter_hybrid_assister,61646170-7465-4725-9f68-79627269645f,rev?*%
%TF.SameCoordinates,PX6312cb0PY8accb70*%
%TF.FileFunction,Other,Fab,Top*%
%FSLAX45Y45*%
G04 Gerber Fmt 4.5, Leading zero omitted, Abs format (unit mm)*
G04 Created by KiCad (PCBNEW (5.1.5-0-10_14)) date 2020-01-10 14:35:19*
%MOMM*%
%LPD*%
G04 APERTURE LIST*
%TA.AperFunction,Profile*%
%ADD10C,0.050000*%
%TD*%
%TA.AperFunction,Profile*%
%ADD11C,0.100000*%
%TD*%
%ADD12C,0.100000*%
%ADD13C,0.127000*%
%ADD14C,0.200000*%
%ADD15C,0.060000*%
%ADD16C,0.254000*%
%ADD17C,0.150000*%
G04 APERTURE END LIST*
D10*
X6713533Y7493000D02*
G75*
G03X6713533Y7493000I-33333J0D01*
G01*
X6630200Y7493000D02*
X6730200Y7493000D01*
X6680200Y7543000D02*
X6680200Y7443000D01*
X236533Y203200D02*
G75*
G03X236533Y203200I-33333J0D01*
G01*
X153200Y203200D02*
X253200Y203200D01*
X203200Y253200D02*
X203200Y153200D01*
X454800Y584200D02*
G75*
G03X454800Y584200I-150000J0D01*
G01*
X6703200Y584200D02*
G75*
G03X6703200Y584200I-150000J0D01*
G01*
X0Y0D02*
X0Y7670800D01*
X6858000Y7670800D02*
X6858000Y0D01*
D11*
X0Y7670800D02*
X6858000Y7670800D01*
X6858000Y0D02*
X0Y0D01*
D12*
%TO.C,C6*%
X1357000Y5199400D02*
X1437000Y5199400D01*
X1357000Y5359400D02*
X1357000Y5199400D01*
X1437000Y5359400D02*
X1357000Y5359400D01*
X1437000Y5199400D02*
X1437000Y5359400D01*
%TO.C,C8*%
X2652400Y4767600D02*
X2732400Y4767600D01*
X2652400Y4927600D02*
X2652400Y4767600D01*
X2732400Y4927600D02*
X2652400Y4927600D01*
X2732400Y4767600D02*
X2732400Y4927600D01*
%TO.C,U6*%
X2055000Y5483200D02*
X2105000Y5433200D01*
X1705000Y5483200D02*
X2105000Y5483200D01*
X1705000Y5083200D02*
X1705000Y5483200D01*
X2105000Y5083200D02*
X1705000Y5083200D01*
X2105000Y5483200D02*
X2105000Y5083200D01*
%TO.C,U8*%
X3325000Y4911700D02*
X3375000Y4861700D01*
X2975000Y4911700D02*
X3375000Y4911700D01*
X2975000Y4511700D02*
X2975000Y4911700D01*
X3375000Y4511700D02*
X2975000Y4511700D01*
X3375000Y4911700D02*
X3375000Y4511700D01*
%TO.C,R31*%
X5695950Y3084200D02*
X5535950Y3084200D01*
X5695950Y3164200D02*
X5695950Y3084200D01*
X5535950Y3164200D02*
X5695950Y3164200D01*
X5535950Y3084200D02*
X5535950Y3164200D01*
%TO.C,R32*%
X5840750Y3164200D02*
X6000750Y3164200D01*
X5840750Y3084200D02*
X5840750Y3164200D01*
X6000750Y3084200D02*
X5840750Y3084200D01*
X6000750Y3164200D02*
X6000750Y3084200D01*
%TO.C,R33*%
X5319400Y1823800D02*
X5319400Y1983800D01*
X5399400Y1823800D02*
X5319400Y1823800D01*
X5399400Y1983800D02*
X5399400Y1823800D01*
X5319400Y1983800D02*
X5399400Y1983800D01*
%TO.C,R34*%
X6119500Y2992200D02*
X6119500Y3152200D01*
X6199500Y2992200D02*
X6119500Y2992200D01*
X6199500Y3152200D02*
X6199500Y2992200D01*
X6119500Y3152200D02*
X6199500Y3152200D01*
%TO.C,F1*%
X1623000Y2508200D02*
X1623000Y2343200D01*
X1298000Y2508200D02*
X1623000Y2508200D01*
X1298000Y2343200D02*
X1298000Y2508200D01*
X1623000Y2343200D02*
X1298000Y2343200D01*
D13*
%TO.C,U3*%
X5507500Y2678700D02*
X6557500Y2678700D01*
X5507500Y1918700D02*
X6557500Y1918700D01*
D14*
%TO.C,J1*%
X3012600Y13600D02*
X3012600Y513600D01*
X3818600Y13600D02*
X3012600Y13600D01*
X3818600Y513600D02*
X3818600Y13600D01*
X3012600Y513600D02*
X3818600Y513600D01*
%TO.C,J2*%
X6217900Y6604200D02*
X6217900Y6756200D01*
X6306900Y6604200D02*
X6217900Y6604200D01*
X6306900Y6756200D02*
X6306900Y6604200D01*
X6217900Y6756200D02*
X6306900Y6756200D01*
X639900Y5946200D02*
X639900Y7414200D01*
X6217900Y5946200D02*
X639900Y5946200D01*
X6217900Y7414200D02*
X6217900Y5946200D01*
X639900Y7414200D02*
X6217900Y7414200D01*
%TO.C,J4*%
X4558900Y-1200D02*
X4558900Y898800D01*
X6058900Y-1200D02*
X4558900Y-1200D01*
X6058900Y898800D02*
X6058900Y-1200D01*
X4558900Y898800D02*
X6058900Y898800D01*
%TO.C,J3*%
X748900Y-1200D02*
X748900Y898800D01*
X2248900Y-1200D02*
X748900Y-1200D01*
X2248900Y898800D02*
X2248900Y-1200D01*
X748900Y898800D02*
X2248900Y898800D01*
%TD*%
%TO.C,C6*%
D15*
X1411286Y5272733D02*
X1413190Y5270829D01*
X1415095Y5265114D01*
X1415095Y5261305D01*
X1413190Y5255591D01*
X1409381Y5251781D01*
X1405571Y5249876D01*
X1397952Y5247972D01*
X1392238Y5247972D01*
X1384619Y5249876D01*
X1380810Y5251781D01*
X1377000Y5255591D01*
X1375095Y5261305D01*
X1375095Y5265114D01*
X1377000Y5270829D01*
X1378905Y5272733D01*
X1375095Y5307019D02*
X1375095Y5299400D01*
X1377000Y5295591D01*
X1378905Y5293686D01*
X1384619Y5289876D01*
X1392238Y5287972D01*
X1407476Y5287972D01*
X1411286Y5289876D01*
X1413190Y5291781D01*
X1415095Y5295591D01*
X1415095Y5303210D01*
X1413190Y5307019D01*
X1411286Y5308924D01*
X1407476Y5310829D01*
X1397952Y5310829D01*
X1394143Y5308924D01*
X1392238Y5307019D01*
X1390333Y5303210D01*
X1390333Y5295591D01*
X1392238Y5291781D01*
X1394143Y5289876D01*
X1397952Y5287972D01*
%TO.C,C8*%
X2706686Y4840933D02*
X2708590Y4839029D01*
X2710495Y4833314D01*
X2710495Y4829505D01*
X2708590Y4823791D01*
X2704781Y4819981D01*
X2700971Y4818076D01*
X2693352Y4816172D01*
X2687638Y4816172D01*
X2680019Y4818076D01*
X2676210Y4819981D01*
X2672400Y4823791D01*
X2670495Y4829505D01*
X2670495Y4833314D01*
X2672400Y4839029D01*
X2674305Y4840933D01*
X2687638Y4863791D02*
X2685733Y4859981D01*
X2683829Y4858076D01*
X2680019Y4856172D01*
X2678114Y4856172D01*
X2674305Y4858076D01*
X2672400Y4859981D01*
X2670495Y4863791D01*
X2670495Y4871410D01*
X2672400Y4875219D01*
X2674305Y4877124D01*
X2678114Y4879029D01*
X2680019Y4879029D01*
X2683829Y4877124D01*
X2685733Y4875219D01*
X2687638Y4871410D01*
X2687638Y4863791D01*
X2689543Y4859981D01*
X2691448Y4858076D01*
X2695257Y4856172D01*
X2702876Y4856172D01*
X2706686Y4858076D01*
X2708590Y4859981D01*
X2710495Y4863791D01*
X2710495Y4871410D01*
X2708590Y4875219D01*
X2706686Y4877124D01*
X2702876Y4879029D01*
X2695257Y4879029D01*
X2691448Y4877124D01*
X2689543Y4875219D01*
X2687638Y4871410D01*
%TO.C,U6*%
D16*
X1808238Y5352748D02*
X1808238Y5249938D01*
X1814286Y5237843D01*
X1820333Y5231795D01*
X1832428Y5225748D01*
X1856619Y5225748D01*
X1868714Y5231795D01*
X1874762Y5237843D01*
X1880809Y5249938D01*
X1880809Y5352748D01*
X1995714Y5352748D02*
X1971524Y5352748D01*
X1959428Y5346700D01*
X1953381Y5340652D01*
X1941286Y5322510D01*
X1935238Y5298319D01*
X1935238Y5249938D01*
X1941286Y5237843D01*
X1947333Y5231795D01*
X1959428Y5225748D01*
X1983619Y5225748D01*
X1995714Y5231795D01*
X2001762Y5237843D01*
X2007809Y5249938D01*
X2007809Y5280176D01*
X2001762Y5292272D01*
X1995714Y5298319D01*
X1983619Y5304367D01*
X1959428Y5304367D01*
X1947333Y5298319D01*
X1941286Y5292272D01*
X1935238Y5280176D01*
%TO.C,U8*%
X3078238Y4781248D02*
X3078238Y4678438D01*
X3084286Y4666343D01*
X3090333Y4660295D01*
X3102428Y4654248D01*
X3126619Y4654248D01*
X3138714Y4660295D01*
X3144762Y4666343D01*
X3150809Y4678438D01*
X3150809Y4781248D01*
X3229428Y4726819D02*
X3217333Y4732867D01*
X3211286Y4738914D01*
X3205238Y4751010D01*
X3205238Y4757057D01*
X3211286Y4769152D01*
X3217333Y4775200D01*
X3229428Y4781248D01*
X3253619Y4781248D01*
X3265714Y4775200D01*
X3271762Y4769152D01*
X3277809Y4757057D01*
X3277809Y4751010D01*
X3271762Y4738914D01*
X3265714Y4732867D01*
X3253619Y4726819D01*
X3229428Y4726819D01*
X3217333Y4720772D01*
X3211286Y4714724D01*
X3205238Y4702629D01*
X3205238Y4678438D01*
X3211286Y4666343D01*
X3217333Y4660295D01*
X3229428Y4654248D01*
X3253619Y4654248D01*
X3265714Y4660295D01*
X3271762Y4666343D01*
X3277809Y4678438D01*
X3277809Y4702629D01*
X3271762Y4714724D01*
X3265714Y4720772D01*
X3253619Y4726819D01*
%TO.C,R31*%
D15*
X5550857Y2980371D02*
X5550857Y2953705D01*
X5541333Y2995610D02*
X5531810Y2967038D01*
X5556571Y2967038D01*
X5571810Y2957514D02*
X5573714Y2955610D01*
X5571810Y2953705D01*
X5569905Y2955610D01*
X5571810Y2957514D01*
X5571810Y2953705D01*
X5587048Y2993705D02*
X5613714Y2993705D01*
X5596571Y2953705D01*
X5628952Y2953705D02*
X5628952Y2993705D01*
X5632762Y2968943D02*
X5644190Y2953705D01*
X5644190Y2980371D02*
X5628952Y2965133D01*
X5590236Y3106105D02*
X5576902Y3125152D01*
X5567379Y3106105D02*
X5567379Y3146105D01*
X5582617Y3146105D01*
X5586426Y3144200D01*
X5588331Y3142295D01*
X5590236Y3138486D01*
X5590236Y3132771D01*
X5588331Y3128962D01*
X5586426Y3127057D01*
X5582617Y3125152D01*
X5567379Y3125152D01*
X5603569Y3146105D02*
X5628331Y3146105D01*
X5614998Y3130867D01*
X5620712Y3130867D01*
X5624521Y3128962D01*
X5626426Y3127057D01*
X5628331Y3123248D01*
X5628331Y3113724D01*
X5626426Y3109914D01*
X5624521Y3108010D01*
X5620712Y3106105D01*
X5609283Y3106105D01*
X5605474Y3108010D01*
X5603569Y3109914D01*
X5666426Y3106105D02*
X5643569Y3106105D01*
X5654998Y3106105D02*
X5654998Y3146105D01*
X5651188Y3140390D01*
X5647378Y3136581D01*
X5643569Y3134676D01*
%TO.C,R32*%
X5883607Y2980371D02*
X5883607Y2953705D01*
X5874083Y2995610D02*
X5864559Y2967038D01*
X5889321Y2967038D01*
X5904559Y2957514D02*
X5906464Y2955610D01*
X5904559Y2953705D01*
X5902655Y2955610D01*
X5904559Y2957514D01*
X5904559Y2953705D01*
X5919798Y2993705D02*
X5946464Y2993705D01*
X5929321Y2953705D01*
X5961702Y2953705D02*
X5961702Y2993705D01*
X5965512Y2968943D02*
X5976940Y2953705D01*
X5976940Y2980371D02*
X5961702Y2965133D01*
X5895036Y3106105D02*
X5881702Y3125152D01*
X5872178Y3106105D02*
X5872178Y3146105D01*
X5887417Y3146105D01*
X5891226Y3144200D01*
X5893131Y3142295D01*
X5895036Y3138486D01*
X5895036Y3132771D01*
X5893131Y3128962D01*
X5891226Y3127057D01*
X5887417Y3125152D01*
X5872178Y3125152D01*
X5908369Y3146105D02*
X5933131Y3146105D01*
X5919798Y3130867D01*
X5925512Y3130867D01*
X5929321Y3128962D01*
X5931226Y3127057D01*
X5933131Y3123248D01*
X5933131Y3113724D01*
X5931226Y3109914D01*
X5929321Y3108010D01*
X5925512Y3106105D01*
X5914083Y3106105D01*
X5910274Y3108010D01*
X5908369Y3109914D01*
X5948369Y3142295D02*
X5950274Y3144200D01*
X5954083Y3146105D01*
X5963607Y3146105D01*
X5967417Y3144200D01*
X5969321Y3142295D01*
X5971226Y3138486D01*
X5971226Y3134676D01*
X5969321Y3128962D01*
X5946464Y3106105D01*
X5971226Y3106105D01*
%TO.C,R33*%
X5093657Y1837371D02*
X5093657Y1810705D01*
X5084133Y1852610D02*
X5074610Y1824038D01*
X5099371Y1824038D01*
X5114610Y1814514D02*
X5116514Y1812610D01*
X5114610Y1810705D01*
X5112705Y1812610D01*
X5114610Y1814514D01*
X5114610Y1810705D01*
X5129848Y1850705D02*
X5156514Y1850705D01*
X5139371Y1810705D01*
X5171752Y1810705D02*
X5171752Y1850705D01*
X5175562Y1825943D02*
X5186990Y1810705D01*
X5186990Y1837371D02*
X5171752Y1822133D01*
X5377495Y1878086D02*
X5358448Y1864752D01*
X5377495Y1855229D02*
X5337495Y1855229D01*
X5337495Y1870467D01*
X5339400Y1874276D01*
X5341305Y1876181D01*
X5345114Y1878086D01*
X5350829Y1878086D01*
X5354638Y1876181D01*
X5356543Y1874276D01*
X5358448Y1870467D01*
X5358448Y1855229D01*
X5337495Y1891419D02*
X5337495Y1916181D01*
X5352733Y1902848D01*
X5352733Y1908562D01*
X5354638Y1912371D01*
X5356543Y1914276D01*
X5360352Y1916181D01*
X5369876Y1916181D01*
X5373686Y1914276D01*
X5375590Y1912371D01*
X5377495Y1908562D01*
X5377495Y1897133D01*
X5375590Y1893324D01*
X5373686Y1891419D01*
X5337495Y1929514D02*
X5337495Y1954276D01*
X5352733Y1940943D01*
X5352733Y1946657D01*
X5354638Y1950467D01*
X5356543Y1952371D01*
X5360352Y1954276D01*
X5369876Y1954276D01*
X5373686Y1952371D01*
X5375590Y1950467D01*
X5377495Y1946657D01*
X5377495Y1935229D01*
X5375590Y1931419D01*
X5373686Y1929514D01*
%TO.C,R34*%
X6307143Y2979105D02*
X6284286Y2979105D01*
X6295714Y2979105D02*
X6295714Y3019105D01*
X6291905Y3013390D01*
X6288095Y3009581D01*
X6284286Y3007676D01*
X6331905Y3019105D02*
X6335714Y3019105D01*
X6339524Y3017200D01*
X6341428Y3015295D01*
X6343333Y3011486D01*
X6345238Y3003867D01*
X6345238Y2994343D01*
X6343333Y2986724D01*
X6341428Y2982914D01*
X6339524Y2981010D01*
X6335714Y2979105D01*
X6331905Y2979105D01*
X6328095Y2981010D01*
X6326190Y2982914D01*
X6324286Y2986724D01*
X6322381Y2994343D01*
X6322381Y3003867D01*
X6324286Y3011486D01*
X6326190Y3015295D01*
X6328095Y3017200D01*
X6331905Y3019105D01*
X6370000Y3019105D02*
X6373809Y3019105D01*
X6377619Y3017200D01*
X6379524Y3015295D01*
X6381428Y3011486D01*
X6383333Y3003867D01*
X6383333Y2994343D01*
X6381428Y2986724D01*
X6379524Y2982914D01*
X6377619Y2981010D01*
X6373809Y2979105D01*
X6370000Y2979105D01*
X6366190Y2981010D01*
X6364286Y2982914D01*
X6362381Y2986724D01*
X6360476Y2994343D01*
X6360476Y3003867D01*
X6362381Y3011486D01*
X6364286Y3015295D01*
X6366190Y3017200D01*
X6370000Y3019105D01*
X6400476Y2979105D02*
X6400476Y3019105D01*
X6404286Y2994343D02*
X6415714Y2979105D01*
X6415714Y3005771D02*
X6400476Y2990533D01*
X6177595Y3046486D02*
X6158548Y3033152D01*
X6177595Y3023629D02*
X6137595Y3023629D01*
X6137595Y3038867D01*
X6139500Y3042676D01*
X6141405Y3044581D01*
X6145214Y3046486D01*
X6150928Y3046486D01*
X6154738Y3044581D01*
X6156643Y3042676D01*
X6158548Y3038867D01*
X6158548Y3023629D01*
X6137595Y3059819D02*
X6137595Y3084581D01*
X6152833Y3071248D01*
X6152833Y3076962D01*
X6154738Y3080771D01*
X6156643Y3082676D01*
X6160452Y3084581D01*
X6169976Y3084581D01*
X6173786Y3082676D01*
X6175690Y3080771D01*
X6177595Y3076962D01*
X6177595Y3065533D01*
X6175690Y3061724D01*
X6173786Y3059819D01*
X6150928Y3118867D02*
X6177595Y3118867D01*
X6135690Y3109343D02*
X6164262Y3099819D01*
X6164262Y3124581D01*
%TO.C,F1*%
D17*
X1427167Y2420143D02*
X1393833Y2420143D01*
X1393833Y2367762D02*
X1393833Y2467762D01*
X1441452Y2467762D01*
X1531928Y2367762D02*
X1474786Y2367762D01*
X1503357Y2367762D02*
X1503357Y2467762D01*
X1493833Y2453476D01*
X1484309Y2443952D01*
X1474786Y2439191D01*
%TO.C,U3*%
X5628533Y2291562D02*
X5628533Y2391562D01*
X5666628Y2391562D01*
X5676152Y2386800D01*
X5680914Y2382038D01*
X5685676Y2372514D01*
X5685676Y2358229D01*
X5680914Y2348705D01*
X5676152Y2343943D01*
X5666628Y2339181D01*
X5628533Y2339181D01*
X5785676Y2301086D02*
X5780914Y2296324D01*
X5766628Y2291562D01*
X5757105Y2291562D01*
X5742819Y2296324D01*
X5733295Y2305848D01*
X5728533Y2315372D01*
X5723771Y2334419D01*
X5723771Y2348705D01*
X5728533Y2367752D01*
X5733295Y2377276D01*
X5742819Y2386800D01*
X5757105Y2391562D01*
X5766628Y2391562D01*
X5780914Y2386800D01*
X5785676Y2382038D01*
X5823771Y2320133D02*
X5871390Y2320133D01*
X5814248Y2291562D02*
X5847581Y2391562D01*
X5880914Y2291562D01*
X5919009Y2291562D02*
X5938057Y2291562D01*
X5947581Y2296324D01*
X5952343Y2301086D01*
X5961867Y2315372D01*
X5966628Y2334419D01*
X5966628Y2372514D01*
X5961867Y2382038D01*
X5957105Y2386800D01*
X5947581Y2391562D01*
X5928533Y2391562D01*
X5919009Y2386800D01*
X5914248Y2382038D01*
X5909486Y2372514D01*
X5909486Y2348705D01*
X5914248Y2339181D01*
X5919009Y2334419D01*
X5928533Y2329657D01*
X5947581Y2329657D01*
X5957105Y2334419D01*
X5961867Y2339181D01*
X5966628Y2348705D01*
X6057105Y2391562D02*
X6009486Y2391562D01*
X6004724Y2343943D01*
X6009486Y2348705D01*
X6019009Y2353467D01*
X6042819Y2353467D01*
X6052343Y2348705D01*
X6057105Y2343943D01*
X6061867Y2334419D01*
X6061867Y2310610D01*
X6057105Y2301086D01*
X6052343Y2296324D01*
X6042819Y2291562D01*
X6019009Y2291562D01*
X6009486Y2296324D01*
X6004724Y2301086D01*
X6095200Y2391562D02*
X6157105Y2391562D01*
X6123771Y2353467D01*
X6138057Y2353467D01*
X6147581Y2348705D01*
X6152343Y2343943D01*
X6157105Y2334419D01*
X6157105Y2310610D01*
X6152343Y2301086D01*
X6147581Y2296324D01*
X6138057Y2291562D01*
X6109486Y2291562D01*
X6099962Y2296324D01*
X6095200Y2301086D01*
X6242819Y2358229D02*
X6242819Y2291562D01*
X6219009Y2396324D02*
X6195200Y2324895D01*
X6257105Y2324895D01*
X6295200Y2291562D02*
X6295200Y2391562D01*
X6319009Y2391562D01*
X6333295Y2386800D01*
X6342819Y2377276D01*
X6347581Y2367752D01*
X6352343Y2348705D01*
X6352343Y2334419D01*
X6347581Y2315372D01*
X6342819Y2305848D01*
X6333295Y2296324D01*
X6319009Y2291562D01*
X6295200Y2291562D01*
X6385676Y2391562D02*
X6409486Y2291562D01*
X6428533Y2362991D01*
X6447581Y2291562D01*
X6471390Y2391562D01*
%TO.C,J1*%
D16*
X3361267Y450548D02*
X3361267Y359833D01*
X3355219Y341691D01*
X3343124Y329595D01*
X3324981Y323548D01*
X3312886Y323548D01*
X3488267Y323548D02*
X3415695Y323548D01*
X3451981Y323548D02*
X3451981Y450548D01*
X3439886Y432405D01*
X3427790Y420310D01*
X3415695Y414262D01*
%TO.C,J2*%
X2709938Y6659033D02*
X2770414Y6659033D01*
X2697843Y6622748D02*
X2740176Y6749748D01*
X2782510Y6622748D01*
X2818795Y6628795D02*
X2836938Y6622748D01*
X2867176Y6622748D01*
X2879271Y6628795D01*
X2885319Y6634843D01*
X2891367Y6646938D01*
X2891367Y6659033D01*
X2885319Y6671129D01*
X2879271Y6677176D01*
X2867176Y6683224D01*
X2842986Y6689271D01*
X2830890Y6695319D01*
X2824843Y6701367D01*
X2818795Y6713462D01*
X2818795Y6725557D01*
X2824843Y6737652D01*
X2830890Y6743700D01*
X2842986Y6749748D01*
X2873224Y6749748D01*
X2891367Y6743700D01*
X2945795Y6622748D02*
X2945795Y6749748D01*
X2994176Y6749748D01*
X3006271Y6743700D01*
X3012319Y6737652D01*
X3018367Y6725557D01*
X3018367Y6707414D01*
X3012319Y6695319D01*
X3006271Y6689271D01*
X2994176Y6683224D01*
X2945795Y6683224D01*
X3072795Y6671129D02*
X3169557Y6671129D01*
X3296557Y6622748D02*
X3223986Y6622748D01*
X3260271Y6622748D02*
X3260271Y6749748D01*
X3248176Y6731605D01*
X3236081Y6719510D01*
X3223986Y6713462D01*
X3338890Y6749748D02*
X3417509Y6749748D01*
X3375176Y6701367D01*
X3393319Y6701367D01*
X3405414Y6695319D01*
X3411462Y6689271D01*
X3417509Y6677176D01*
X3417509Y6646938D01*
X3411462Y6634843D01*
X3405414Y6628795D01*
X3393319Y6622748D01*
X3357033Y6622748D01*
X3344938Y6628795D01*
X3338890Y6634843D01*
X3526367Y6707414D02*
X3526367Y6622748D01*
X3496128Y6755795D02*
X3465890Y6665081D01*
X3544509Y6665081D01*
X3647319Y6749748D02*
X3623128Y6749748D01*
X3611033Y6743700D01*
X3604986Y6737652D01*
X3592890Y6719510D01*
X3586843Y6695319D01*
X3586843Y6646938D01*
X3592890Y6634843D01*
X3598938Y6628795D01*
X3611033Y6622748D01*
X3635224Y6622748D01*
X3647319Y6628795D01*
X3653367Y6634843D01*
X3659414Y6646938D01*
X3659414Y6677176D01*
X3653367Y6689271D01*
X3647319Y6695319D01*
X3635224Y6701367D01*
X3611033Y6701367D01*
X3598938Y6695319D01*
X3592890Y6689271D01*
X3586843Y6677176D01*
X3738033Y6749748D02*
X3750128Y6749748D01*
X3762224Y6743700D01*
X3768271Y6737652D01*
X3774319Y6725557D01*
X3780367Y6701367D01*
X3780367Y6671129D01*
X3774319Y6646938D01*
X3768271Y6634843D01*
X3762224Y6628795D01*
X3750128Y6622748D01*
X3738033Y6622748D01*
X3725938Y6628795D01*
X3719890Y6634843D01*
X3713843Y6646938D01*
X3707795Y6671129D01*
X3707795Y6701367D01*
X3713843Y6725557D01*
X3719890Y6737652D01*
X3725938Y6743700D01*
X3738033Y6749748D01*
X3889224Y6707414D02*
X3889224Y6622748D01*
X3858986Y6755795D02*
X3828748Y6665081D01*
X3907367Y6665081D01*
X3955748Y6671129D02*
X4052509Y6671129D01*
X4137176Y6749748D02*
X4149271Y6749748D01*
X4161367Y6743700D01*
X4167414Y6737652D01*
X4173462Y6725557D01*
X4179509Y6701367D01*
X4179509Y6671129D01*
X4173462Y6646938D01*
X4167414Y6634843D01*
X4161367Y6628795D01*
X4149271Y6622748D01*
X4137176Y6622748D01*
X4125081Y6628795D01*
X4119033Y6634843D01*
X4112986Y6646938D01*
X4106938Y6671129D01*
X4106938Y6701367D01*
X4112986Y6725557D01*
X4119033Y6737652D01*
X4125081Y6743700D01*
X4137176Y6749748D01*
X4300462Y6622748D02*
X4227890Y6622748D01*
X4264176Y6622748D02*
X4264176Y6749748D01*
X4252081Y6731605D01*
X4239986Y6719510D01*
X4227890Y6713462D01*
X3310467Y7003748D02*
X3310467Y6913033D01*
X3304419Y6894890D01*
X3292324Y6882795D01*
X3274181Y6876748D01*
X3262086Y6876748D01*
X3364895Y6991652D02*
X3370943Y6997700D01*
X3383038Y7003748D01*
X3413276Y7003748D01*
X3425371Y6997700D01*
X3431419Y6991652D01*
X3437467Y6979557D01*
X3437467Y6967462D01*
X3431419Y6949319D01*
X3358848Y6876748D01*
X3437467Y6876748D01*
%TO.C,J4*%
X5266267Y577548D02*
X5266267Y486833D01*
X5260219Y468690D01*
X5248124Y456595D01*
X5229981Y450548D01*
X5217886Y450548D01*
X5381171Y535214D02*
X5381171Y450548D01*
X5350933Y583595D02*
X5320695Y492881D01*
X5399314Y492881D01*
%TO.C,J3*%
X1430867Y577548D02*
X1430867Y486833D01*
X1424819Y468690D01*
X1412724Y456595D01*
X1394581Y450548D01*
X1382486Y450548D01*
X1479248Y577548D02*
X1557867Y577548D01*
X1515533Y529167D01*
X1533676Y529167D01*
X1545771Y523119D01*
X1551819Y517071D01*
X1557867Y504976D01*
X1557867Y474738D01*
X1551819Y462643D01*
X1545771Y456595D01*
X1533676Y450548D01*
X1497390Y450548D01*
X1485295Y456595D01*
X1479248Y462643D01*
%TD*%
M02*
