%TF.GenerationSoftware,KiCad,Pcbnew,(5.1.5-0-10_14)*%
%TF.CreationDate,2020-01-10T14:35:19+01:00*%
%TF.ProjectId,adapter_hybrid_assister,61646170-7465-4725-9f68-79627269645f,rev?*%
%TF.SameCoordinates,PX6312cb0PY8accb70*%
%TF.FileFunction,Other,User*%
%FSLAX45Y45*%
G04 Gerber Fmt 4.5, Leading zero omitted, Abs format (unit mm)*
G04 Created by KiCad (PCBNEW (5.1.5-0-10_14)) date 2020-01-10 14:35:19*
%MOMM*%
%LPD*%
G04 APERTURE LIST*
%TA.AperFunction,Profile*%
%ADD10C,0.050000*%
%TD*%
%TA.AperFunction,Profile*%
%ADD11C,0.100000*%
%TD*%
%ADD12C,0.050000*%
%ADD13C,0.001000*%
G04 APERTURE END LIST*
D10*
X6713533Y7493000D02*
G75*
G03X6713533Y7493000I-33333J0D01*
G01*
X6630200Y7493000D02*
X6730200Y7493000D01*
X6680200Y7543000D02*
X6680200Y7443000D01*
X236533Y203200D02*
G75*
G03X236533Y203200I-33333J0D01*
G01*
X153200Y203200D02*
X253200Y203200D01*
X203200Y253200D02*
X203200Y153200D01*
X454800Y584200D02*
G75*
G03X454800Y584200I-150000J0D01*
G01*
X6703200Y584200D02*
G75*
G03X6703200Y584200I-150000J0D01*
G01*
X0Y0D02*
X0Y7670800D01*
X6858000Y7670800D02*
X6858000Y0D01*
D11*
X0Y7670800D02*
X6858000Y7670800D01*
X6858000Y0D02*
X0Y0D01*
D12*
%TO.C,C4*%
X2228800Y4065200D02*
X2228800Y4215200D01*
X2538800Y4065200D02*
X2228800Y4065200D01*
X2538800Y4215200D02*
X2538800Y4065200D01*
X2228800Y4215200D02*
X2538800Y4215200D01*
D13*
X2296300Y4092700D02*
X2296300Y4187700D01*
X2471300Y4092700D02*
X2296300Y4092700D01*
X2471300Y4187700D02*
X2471300Y4092700D01*
X2296300Y4187700D02*
X2471300Y4187700D01*
D12*
%TO.C,C5*%
X4819600Y4014400D02*
X4819600Y4164400D01*
X5129600Y4014400D02*
X4819600Y4014400D01*
X5129600Y4164400D02*
X5129600Y4014400D01*
X4819600Y4164400D02*
X5129600Y4164400D01*
D13*
X4887100Y4041900D02*
X4887100Y4136900D01*
X5062100Y4041900D02*
X4887100Y4041900D01*
X5062100Y4136900D02*
X5062100Y4041900D01*
X4887100Y4136900D02*
X5062100Y4136900D01*
D12*
%TO.C,C7*%
X3658800Y5409000D02*
X3808800Y5409000D01*
X3658800Y5099000D02*
X3658800Y5409000D01*
X3808800Y5099000D02*
X3658800Y5099000D01*
X3808800Y5409000D02*
X3808800Y5099000D01*
D13*
X3686300Y5341500D02*
X3781300Y5341500D01*
X3686300Y5166500D02*
X3686300Y5341500D01*
X3781300Y5166500D02*
X3686300Y5166500D01*
X3781300Y5341500D02*
X3781300Y5166500D01*
D12*
%TO.C,C9*%
X5005000Y4901000D02*
X5155000Y4901000D01*
X5005000Y4591000D02*
X5005000Y4901000D01*
X5155000Y4591000D02*
X5005000Y4591000D01*
X5155000Y4901000D02*
X5155000Y4591000D01*
D13*
X5032500Y4833500D02*
X5127500Y4833500D01*
X5032500Y4658500D02*
X5032500Y4833500D01*
X5127500Y4658500D02*
X5032500Y4658500D01*
X5127500Y4833500D02*
X5127500Y4658500D01*
D12*
%TO.C,U7*%
X4182500Y5020700D02*
X4707500Y5020700D01*
X4182500Y5545700D02*
X4182500Y5020700D01*
X4707500Y5545700D02*
X4182500Y5545700D01*
X4707500Y5020700D02*
X4707500Y5545700D01*
%TO.C,U9*%
X5452500Y4449200D02*
X5977500Y4449200D01*
X5452500Y4974200D02*
X5452500Y4449200D01*
X5977500Y4974200D02*
X5452500Y4974200D01*
X5977500Y4449200D02*
X5977500Y4974200D01*
%TO.C,R41*%
X2613000Y3959200D02*
X2317000Y3959200D01*
X2613000Y3813200D02*
X2613000Y3959200D01*
X2317000Y3813200D02*
X2613000Y3813200D01*
X2317000Y3959200D02*
X2317000Y3813200D01*
%TO.C,R42*%
X3546500Y3813200D02*
X3842500Y3813200D01*
X3546500Y3959200D02*
X3546500Y3813200D01*
X3842500Y3959200D02*
X3546500Y3959200D01*
X3842500Y3813200D02*
X3842500Y3959200D01*
%TO.C,R43*%
X2613000Y3768700D02*
X2317000Y3768700D01*
X2613000Y3622700D02*
X2613000Y3768700D01*
X2317000Y3622700D02*
X2613000Y3622700D01*
X2317000Y3768700D02*
X2317000Y3622700D01*
%TO.C,R44*%
X3546500Y3622700D02*
X3842500Y3622700D01*
X3546500Y3768700D02*
X3546500Y3622700D01*
X3842500Y3768700D02*
X3546500Y3768700D01*
X3842500Y3622700D02*
X3842500Y3768700D01*
%TO.C,R51*%
X5112500Y3959200D02*
X4816500Y3959200D01*
X5112500Y3813200D02*
X5112500Y3959200D01*
X4816500Y3813200D02*
X5112500Y3813200D01*
X4816500Y3959200D02*
X4816500Y3813200D01*
%TO.C,R52*%
X6127000Y3813200D02*
X6423000Y3813200D01*
X6127000Y3959200D02*
X6127000Y3813200D01*
X6423000Y3959200D02*
X6127000Y3959200D01*
X6423000Y3813200D02*
X6423000Y3959200D01*
%TO.C,R53*%
X5112500Y3768700D02*
X4816500Y3768700D01*
X5112500Y3622700D02*
X5112500Y3768700D01*
X4816500Y3622700D02*
X5112500Y3622700D01*
X4816500Y3768700D02*
X4816500Y3622700D01*
%TO.C,R54*%
X6127000Y3622700D02*
X6423000Y3622700D01*
X6127000Y3768700D02*
X6127000Y3622700D01*
X6423000Y3768700D02*
X6127000Y3768700D01*
X6423000Y3622700D02*
X6423000Y3768700D01*
%TO.C,U5*%
X5261900Y4097700D02*
X5261900Y3547700D01*
X6006900Y4097700D02*
X5261900Y4097700D01*
X6006900Y3547700D02*
X6006900Y4097700D01*
X5261900Y3547700D02*
X6006900Y3547700D01*
%TO.C,U4*%
X2692600Y4097700D02*
X2692600Y3547700D01*
X3437600Y4097700D02*
X2692600Y4097700D01*
X3437600Y3547700D02*
X3437600Y4097700D01*
X2692600Y3547700D02*
X3437600Y3547700D01*
%TO.C,U2*%
X1923500Y3490700D02*
X1203500Y3490700D01*
X1923500Y2635700D02*
X1923500Y3490700D01*
X1203500Y2635700D02*
X1923500Y2635700D01*
X1203500Y3490700D02*
X1203500Y2635700D01*
%TO.C,U1*%
X1122000Y3490700D02*
X402000Y3490700D01*
X1122000Y2635700D02*
X1122000Y3490700D01*
X402000Y2635700D02*
X1122000Y2635700D01*
X402000Y3490700D02*
X402000Y2635700D01*
%TD*%
M02*
