%TF.GenerationSoftware,KiCad,Pcbnew,(5.1.5-0-10_14)*%
%TF.CreationDate,2020-01-10T14:35:19+01:00*%
%TF.ProjectId,adapter_hybrid_assister,61646170-7465-4725-9f68-79627269645f,rev?*%
%TF.SameCoordinates,PX6312cb0PY8accb70*%
%TF.FileFunction,OtherDrawing,Comment*%
%FSLAX45Y45*%
G04 Gerber Fmt 4.5, Leading zero omitted, Abs format (unit mm)*
G04 Created by KiCad (PCBNEW (5.1.5-0-10_14)) date 2020-01-10 14:35:19*
%MOMM*%
%LPD*%
G04 APERTURE LIST*
%TA.AperFunction,Profile*%
%ADD10C,0.050000*%
%TD*%
%TA.AperFunction,Profile*%
%ADD11C,0.100000*%
%TD*%
%ADD12C,0.050000*%
G04 APERTURE END LIST*
D10*
X6713533Y7493000D02*
G75*
G03X6713533Y7493000I-33333J0D01*
G01*
X6630200Y7493000D02*
X6730200Y7493000D01*
X6680200Y7543000D02*
X6680200Y7443000D01*
X236533Y203200D02*
G75*
G03X236533Y203200I-33333J0D01*
G01*
X153200Y203200D02*
X253200Y203200D01*
X203200Y253200D02*
X203200Y153200D01*
X454800Y584200D02*
G75*
G03X454800Y584200I-150000J0D01*
G01*
X6703200Y584200D02*
G75*
G03X6703200Y584200I-150000J0D01*
G01*
X0Y0D02*
X0Y7670800D01*
X6858000Y7670800D02*
X6858000Y0D01*
D11*
X0Y7670800D02*
X6858000Y7670800D01*
X6858000Y0D02*
X0Y0D01*
D12*
%TO.C,C4*%
X2333800Y4140200D02*
X2433800Y4140200D01*
X2383800Y4190200D02*
X2383800Y4090200D01*
%TO.C,C5*%
X4924600Y4089400D02*
X5024600Y4089400D01*
X4974600Y4139400D02*
X4974600Y4039400D01*
%TO.C,C6*%
X1397000Y5229400D02*
X1397000Y5329400D01*
X1447000Y5279400D02*
X1347000Y5279400D01*
%TO.C,C7*%
X3733800Y5304000D02*
X3733800Y5204000D01*
X3783800Y5254000D02*
X3683800Y5254000D01*
%TO.C,C8*%
X2692400Y4797600D02*
X2692400Y4897600D01*
X2742400Y4847600D02*
X2642400Y4847600D01*
%TO.C,C9*%
X5080000Y4796000D02*
X5080000Y4696000D01*
X5130000Y4746000D02*
X5030000Y4746000D01*
%TD*%
M02*
