%TF.GenerationSoftware,KiCad,Pcbnew,(5.1.5-0-10_14)*%
%TF.CreationDate,2020-01-10T14:35:19+01:00*%
%TF.ProjectId,adapter_hybrid_assister,61646170-7465-4725-9f68-79627269645f,rev?*%
%TF.SameCoordinates,PX6312cb0PY8accb70*%
%TF.FileFunction,Copper,L6,Bot*%
%TF.FilePolarity,Positive*%
%FSLAX45Y45*%
G04 Gerber Fmt 4.5, Leading zero omitted, Abs format (unit mm)*
G04 Created by KiCad (PCBNEW (5.1.5-0-10_14)) date 2020-01-10 14:35:19*
%MOMM*%
%LPD*%
G04 APERTURE LIST*
%TA.AperFunction,Profile*%
%ADD10C,0.050000*%
%TD*%
%TA.AperFunction,Profile*%
%ADD11C,0.100000*%
%TD*%
%TA.AperFunction,SMDPad,CuDef*%
%ADD12R,0.950000X1.000000*%
%TD*%
%TA.AperFunction,SMDPad,CuDef*%
%ADD13R,1.000000X0.950000*%
%TD*%
%TA.AperFunction,SMDPad,CuDef*%
%ADD14R,2.400000X2.400000*%
%TD*%
%TA.AperFunction,SMDPad,CuDef*%
%ADD15R,0.850000X0.300000*%
%TD*%
%TA.AperFunction,SMDPad,CuDef*%
%ADD16R,0.300000X0.850000*%
%TD*%
%TA.AperFunction,SMDPad,CuDef*%
%ADD17C,0.100000*%
%TD*%
%TA.AperFunction,SMDPad,CuDef*%
%ADD18R,0.914400X1.803400*%
%TD*%
%TA.AperFunction,SMDPad,CuDef*%
%ADD19R,1.803400X0.914400*%
%TD*%
%TA.AperFunction,ComponentPad*%
%ADD20C,1.995000*%
%TD*%
%TA.AperFunction,SMDPad,CuDef*%
%ADD21R,2.500000X1.200000*%
%TD*%
%TA.AperFunction,SMDPad,CuDef*%
%ADD22R,1.528000X0.650000*%
%TD*%
%TA.AperFunction,SMDPad,CuDef*%
%ADD23R,3.200000X1.750000*%
%TD*%
%TA.AperFunction,SMDPad,CuDef*%
%ADD24R,0.950000X1.750000*%
%TD*%
%TA.AperFunction,ViaPad*%
%ADD25C,0.800000*%
%TD*%
%TA.AperFunction,Conductor*%
%ADD26C,0.200000*%
%TD*%
G04 APERTURE END LIST*
D10*
X6713533Y7493000D02*
G75*
G03X6713533Y7493000I-33333J0D01*
G01*
X6630200Y7493000D02*
X6730200Y7493000D01*
X6680200Y7543000D02*
X6680200Y7443000D01*
X236533Y203200D02*
G75*
G03X236533Y203200I-33333J0D01*
G01*
X153200Y203200D02*
X253200Y203200D01*
X203200Y253200D02*
X203200Y153200D01*
X454800Y584200D02*
G75*
G03X454800Y584200I-150000J0D01*
G01*
X6703200Y584200D02*
G75*
G03X6703200Y584200I-150000J0D01*
G01*
X0Y0D02*
X0Y7670800D01*
X6858000Y7670800D02*
X6858000Y0D01*
D11*
X0Y7670800D02*
X6858000Y7670800D01*
X6858000Y0D02*
X0Y0D01*
D12*
%TO.P,C4,2*%
%TO.N,GNDREF*%
X2463800Y4140200D03*
%TO.P,C4,1*%
%TO.N,2.5V*%
X2303800Y4140200D03*
%TD*%
%TO.P,C5,2*%
%TO.N,GNDREF*%
X5054600Y4089400D03*
%TO.P,C5,1*%
%TO.N,2.5V*%
X4894600Y4089400D03*
%TD*%
D13*
%TO.P,C7,2*%
%TO.N,GNDREF*%
X3733800Y5174000D03*
%TO.P,C7,1*%
%TO.N,3.3V*%
X3733800Y5334000D03*
%TD*%
%TO.P,C9,2*%
%TO.N,GNDREF*%
X5080000Y4666000D03*
%TO.P,C9,1*%
%TO.N,3.3V*%
X5080000Y4826000D03*
%TD*%
D14*
%TO.P,U7,17*%
%TO.N,GNDREF*%
X4445000Y5283200D03*
D15*
%TO.P,U7,16*%
%TO.N,3.3V*%
X4640000Y5208200D03*
%TO.P,U7,15*%
%TO.N,GNDREF*%
X4640000Y5258200D03*
%TO.P,U7,14*%
%TO.N,3.3V*%
X4640000Y5308200D03*
%TO.P,U7,13*%
X4640000Y5358200D03*
D16*
%TO.P,U7,12*%
%TO.N,/D_OUT_M1_1P*%
X4520000Y5478200D03*
%TO.P,U7,11*%
%TO.N,/D_OUT_M1_1N*%
X4470000Y5478200D03*
%TO.P,U7,10*%
%TO.N,/D_OUT_M2_1P*%
X4420000Y5478200D03*
%TO.P,U7,9*%
%TO.N,/D_OUT_M2_1N*%
X4370000Y5478200D03*
D15*
%TO.P,U7,8*%
%TO.N,3.3V*%
X4250000Y5358200D03*
%TO.P,U7,7*%
%TO.N,GNDREF*%
X4250000Y5308200D03*
%TO.P,U7,6*%
%TO.N,EQ*%
X4250000Y5258200D03*
%TO.P,U7,5*%
%TO.N,GNDREF*%
X4250000Y5208200D03*
D16*
%TO.P,U7,4*%
%TO.N,H_DOUT_M2_1N*%
X4370000Y5088200D03*
%TO.P,U7,3*%
%TO.N,H_DOUT_M2_1P*%
X4420000Y5088200D03*
%TO.P,U7,2*%
%TO.N,H_DOUT_M1_1N*%
X4470000Y5088200D03*
%TO.P,U7,1*%
%TO.N,H_DOUT_M1_1P*%
X4520000Y5088200D03*
%TD*%
D14*
%TO.P,U9,17*%
%TO.N,GNDREF*%
X5715000Y4711700D03*
D15*
%TO.P,U9,16*%
%TO.N,3.3V*%
X5910000Y4636700D03*
%TO.P,U9,15*%
%TO.N,GNDREF*%
X5910000Y4686700D03*
%TO.P,U9,14*%
%TO.N,3.3V*%
X5910000Y4736700D03*
%TO.P,U9,13*%
X5910000Y4786700D03*
D16*
%TO.P,U9,12*%
%TO.N,D_OUT_M1_2P*%
X5790000Y4906700D03*
%TO.P,U9,11*%
%TO.N,D_OUT_M1_2N*%
X5740000Y4906700D03*
%TO.P,U9,10*%
%TO.N,D_OUT_M2_2P*%
X5690000Y4906700D03*
%TO.P,U9,9*%
%TO.N,D_OUT_M2_2N*%
X5640000Y4906700D03*
D15*
%TO.P,U9,8*%
%TO.N,3.3V*%
X5520000Y4786700D03*
%TO.P,U9,7*%
%TO.N,GNDREF*%
X5520000Y4736700D03*
%TO.P,U9,6*%
%TO.N,EQ*%
X5520000Y4686700D03*
%TO.P,U9,5*%
%TO.N,GNDREF*%
X5520000Y4636700D03*
D16*
%TO.P,U9,4*%
%TO.N,H_DOUT_M2_2N*%
X5640000Y4516700D03*
%TO.P,U9,3*%
%TO.N,H_DOUT_M2_2P*%
X5690000Y4516700D03*
%TO.P,U9,2*%
%TO.N,H_DOUT_M1_2N*%
X5740000Y4516700D03*
%TO.P,U9,1*%
%TO.N,H_DOUT_M1_2P*%
X5790000Y4516700D03*
%TD*%
%TA.AperFunction,SMDPad,CuDef*%
D17*
%TO.P,R41,2*%
%TO.N,SDA0B_1*%
G36*
X2567769Y3933595D02*
G01*
X2569893Y3933280D01*
X2571975Y3932758D01*
X2573996Y3932035D01*
X2575937Y3931117D01*
X2577778Y3930013D01*
X2579502Y3928735D01*
X2581093Y3927293D01*
X2582535Y3925702D01*
X2583813Y3923978D01*
X2584917Y3922137D01*
X2585835Y3920196D01*
X2586558Y3918175D01*
X2587080Y3916093D01*
X2587395Y3913969D01*
X2587500Y3911825D01*
X2587500Y3860575D01*
X2587395Y3858431D01*
X2587080Y3856307D01*
X2586558Y3854225D01*
X2585835Y3852204D01*
X2584917Y3850263D01*
X2583813Y3848422D01*
X2582535Y3846698D01*
X2581093Y3845107D01*
X2579502Y3843665D01*
X2577778Y3842387D01*
X2575937Y3841283D01*
X2573996Y3840365D01*
X2571975Y3839642D01*
X2569893Y3839120D01*
X2567769Y3838805D01*
X2565625Y3838700D01*
X2521875Y3838700D01*
X2519731Y3838805D01*
X2517607Y3839120D01*
X2515525Y3839642D01*
X2513504Y3840365D01*
X2511563Y3841283D01*
X2509722Y3842387D01*
X2507998Y3843665D01*
X2506407Y3845107D01*
X2504965Y3846698D01*
X2503687Y3848422D01*
X2502583Y3850263D01*
X2501665Y3852204D01*
X2500942Y3854225D01*
X2500420Y3856307D01*
X2500105Y3858431D01*
X2500000Y3860575D01*
X2500000Y3911825D01*
X2500105Y3913969D01*
X2500420Y3916093D01*
X2500942Y3918175D01*
X2501665Y3920196D01*
X2502583Y3922137D01*
X2503687Y3923978D01*
X2504965Y3925702D01*
X2506407Y3927293D01*
X2507998Y3928735D01*
X2509722Y3930013D01*
X2511563Y3931117D01*
X2513504Y3932035D01*
X2515525Y3932758D01*
X2517607Y3933280D01*
X2519731Y3933595D01*
X2521875Y3933700D01*
X2565625Y3933700D01*
X2567769Y3933595D01*
G37*
%TD.AperFunction*%
%TA.AperFunction,SMDPad,CuDef*%
%TO.P,R41,1*%
%TO.N,3.3V*%
G36*
X2410269Y3933595D02*
G01*
X2412393Y3933280D01*
X2414475Y3932758D01*
X2416496Y3932035D01*
X2418437Y3931117D01*
X2420278Y3930013D01*
X2422002Y3928735D01*
X2423593Y3927293D01*
X2425035Y3925702D01*
X2426313Y3923978D01*
X2427417Y3922137D01*
X2428335Y3920196D01*
X2429058Y3918175D01*
X2429580Y3916093D01*
X2429895Y3913969D01*
X2430000Y3911825D01*
X2430000Y3860575D01*
X2429895Y3858431D01*
X2429580Y3856307D01*
X2429058Y3854225D01*
X2428335Y3852204D01*
X2427417Y3850263D01*
X2426313Y3848422D01*
X2425035Y3846698D01*
X2423593Y3845107D01*
X2422002Y3843665D01*
X2420278Y3842387D01*
X2418437Y3841283D01*
X2416496Y3840365D01*
X2414475Y3839642D01*
X2412393Y3839120D01*
X2410269Y3838805D01*
X2408125Y3838700D01*
X2364375Y3838700D01*
X2362231Y3838805D01*
X2360107Y3839120D01*
X2358025Y3839642D01*
X2356004Y3840365D01*
X2354063Y3841283D01*
X2352222Y3842387D01*
X2350498Y3843665D01*
X2348907Y3845107D01*
X2347465Y3846698D01*
X2346187Y3848422D01*
X2345083Y3850263D01*
X2344165Y3852204D01*
X2343442Y3854225D01*
X2342920Y3856307D01*
X2342605Y3858431D01*
X2342500Y3860575D01*
X2342500Y3911825D01*
X2342605Y3913969D01*
X2342920Y3916093D01*
X2343442Y3918175D01*
X2344165Y3920196D01*
X2345083Y3922137D01*
X2346187Y3923978D01*
X2347465Y3925702D01*
X2348907Y3927293D01*
X2350498Y3928735D01*
X2352222Y3930013D01*
X2354063Y3931117D01*
X2356004Y3932035D01*
X2358025Y3932758D01*
X2360107Y3933280D01*
X2362231Y3933595D01*
X2364375Y3933700D01*
X2408125Y3933700D01*
X2410269Y3933595D01*
G37*
%TD.AperFunction*%
%TD*%
%TA.AperFunction,SMDPad,CuDef*%
%TO.P,R42,2*%
%TO.N,SCL0B_1*%
G36*
X3639769Y3933595D02*
G01*
X3641893Y3933280D01*
X3643975Y3932758D01*
X3645996Y3932035D01*
X3647937Y3931117D01*
X3649778Y3930013D01*
X3651502Y3928735D01*
X3653093Y3927293D01*
X3654535Y3925702D01*
X3655813Y3923978D01*
X3656917Y3922137D01*
X3657835Y3920196D01*
X3658558Y3918175D01*
X3659080Y3916093D01*
X3659395Y3913969D01*
X3659500Y3911825D01*
X3659500Y3860575D01*
X3659395Y3858431D01*
X3659080Y3856307D01*
X3658558Y3854225D01*
X3657835Y3852204D01*
X3656917Y3850263D01*
X3655813Y3848422D01*
X3654535Y3846698D01*
X3653093Y3845107D01*
X3651502Y3843665D01*
X3649778Y3842387D01*
X3647937Y3841283D01*
X3645996Y3840365D01*
X3643975Y3839642D01*
X3641893Y3839120D01*
X3639769Y3838805D01*
X3637625Y3838700D01*
X3593875Y3838700D01*
X3591731Y3838805D01*
X3589607Y3839120D01*
X3587525Y3839642D01*
X3585504Y3840365D01*
X3583563Y3841283D01*
X3581722Y3842387D01*
X3579998Y3843665D01*
X3578407Y3845107D01*
X3576965Y3846698D01*
X3575687Y3848422D01*
X3574583Y3850263D01*
X3573665Y3852204D01*
X3572942Y3854225D01*
X3572420Y3856307D01*
X3572105Y3858431D01*
X3572000Y3860575D01*
X3572000Y3911825D01*
X3572105Y3913969D01*
X3572420Y3916093D01*
X3572942Y3918175D01*
X3573665Y3920196D01*
X3574583Y3922137D01*
X3575687Y3923978D01*
X3576965Y3925702D01*
X3578407Y3927293D01*
X3579998Y3928735D01*
X3581722Y3930013D01*
X3583563Y3931117D01*
X3585504Y3932035D01*
X3587525Y3932758D01*
X3589607Y3933280D01*
X3591731Y3933595D01*
X3593875Y3933700D01*
X3637625Y3933700D01*
X3639769Y3933595D01*
G37*
%TD.AperFunction*%
%TA.AperFunction,SMDPad,CuDef*%
%TO.P,R42,1*%
%TO.N,3.3V*%
G36*
X3797269Y3933595D02*
G01*
X3799393Y3933280D01*
X3801475Y3932758D01*
X3803496Y3932035D01*
X3805437Y3931117D01*
X3807278Y3930013D01*
X3809002Y3928735D01*
X3810593Y3927293D01*
X3812035Y3925702D01*
X3813313Y3923978D01*
X3814417Y3922137D01*
X3815335Y3920196D01*
X3816058Y3918175D01*
X3816580Y3916093D01*
X3816895Y3913969D01*
X3817000Y3911825D01*
X3817000Y3860575D01*
X3816895Y3858431D01*
X3816580Y3856307D01*
X3816058Y3854225D01*
X3815335Y3852204D01*
X3814417Y3850263D01*
X3813313Y3848422D01*
X3812035Y3846698D01*
X3810593Y3845107D01*
X3809002Y3843665D01*
X3807278Y3842387D01*
X3805437Y3841283D01*
X3803496Y3840365D01*
X3801475Y3839642D01*
X3799393Y3839120D01*
X3797269Y3838805D01*
X3795125Y3838700D01*
X3751375Y3838700D01*
X3749231Y3838805D01*
X3747107Y3839120D01*
X3745025Y3839642D01*
X3743004Y3840365D01*
X3741063Y3841283D01*
X3739222Y3842387D01*
X3737498Y3843665D01*
X3735907Y3845107D01*
X3734465Y3846698D01*
X3733187Y3848422D01*
X3732083Y3850263D01*
X3731165Y3852204D01*
X3730442Y3854225D01*
X3729920Y3856307D01*
X3729605Y3858431D01*
X3729500Y3860575D01*
X3729500Y3911825D01*
X3729605Y3913969D01*
X3729920Y3916093D01*
X3730442Y3918175D01*
X3731165Y3920196D01*
X3732083Y3922137D01*
X3733187Y3923978D01*
X3734465Y3925702D01*
X3735907Y3927293D01*
X3737498Y3928735D01*
X3739222Y3930013D01*
X3741063Y3931117D01*
X3743004Y3932035D01*
X3745025Y3932758D01*
X3747107Y3933280D01*
X3749231Y3933595D01*
X3751375Y3933700D01*
X3795125Y3933700D01*
X3797269Y3933595D01*
G37*
%TD.AperFunction*%
%TD*%
%TA.AperFunction,SMDPad,CuDef*%
%TO.P,R43,2*%
%TO.N,H_SDA0B_1*%
G36*
X2567769Y3743095D02*
G01*
X2569893Y3742780D01*
X2571975Y3742258D01*
X2573996Y3741535D01*
X2575937Y3740617D01*
X2577778Y3739513D01*
X2579502Y3738235D01*
X2581093Y3736793D01*
X2582535Y3735202D01*
X2583813Y3733478D01*
X2584917Y3731637D01*
X2585835Y3729696D01*
X2586558Y3727675D01*
X2587080Y3725593D01*
X2587395Y3723469D01*
X2587500Y3721325D01*
X2587500Y3670075D01*
X2587395Y3667931D01*
X2587080Y3665807D01*
X2586558Y3663725D01*
X2585835Y3661704D01*
X2584917Y3659763D01*
X2583813Y3657922D01*
X2582535Y3656198D01*
X2581093Y3654607D01*
X2579502Y3653165D01*
X2577778Y3651887D01*
X2575937Y3650783D01*
X2573996Y3649865D01*
X2571975Y3649142D01*
X2569893Y3648620D01*
X2567769Y3648305D01*
X2565625Y3648200D01*
X2521875Y3648200D01*
X2519731Y3648305D01*
X2517607Y3648620D01*
X2515525Y3649142D01*
X2513504Y3649865D01*
X2511563Y3650783D01*
X2509722Y3651887D01*
X2507998Y3653165D01*
X2506407Y3654607D01*
X2504965Y3656198D01*
X2503687Y3657922D01*
X2502583Y3659763D01*
X2501665Y3661704D01*
X2500942Y3663725D01*
X2500420Y3665807D01*
X2500105Y3667931D01*
X2500000Y3670075D01*
X2500000Y3721325D01*
X2500105Y3723469D01*
X2500420Y3725593D01*
X2500942Y3727675D01*
X2501665Y3729696D01*
X2502583Y3731637D01*
X2503687Y3733478D01*
X2504965Y3735202D01*
X2506407Y3736793D01*
X2507998Y3738235D01*
X2509722Y3739513D01*
X2511563Y3740617D01*
X2513504Y3741535D01*
X2515525Y3742258D01*
X2517607Y3742780D01*
X2519731Y3743095D01*
X2521875Y3743200D01*
X2565625Y3743200D01*
X2567769Y3743095D01*
G37*
%TD.AperFunction*%
%TA.AperFunction,SMDPad,CuDef*%
%TO.P,R43,1*%
%TO.N,2.5V*%
G36*
X2410269Y3743095D02*
G01*
X2412393Y3742780D01*
X2414475Y3742258D01*
X2416496Y3741535D01*
X2418437Y3740617D01*
X2420278Y3739513D01*
X2422002Y3738235D01*
X2423593Y3736793D01*
X2425035Y3735202D01*
X2426313Y3733478D01*
X2427417Y3731637D01*
X2428335Y3729696D01*
X2429058Y3727675D01*
X2429580Y3725593D01*
X2429895Y3723469D01*
X2430000Y3721325D01*
X2430000Y3670075D01*
X2429895Y3667931D01*
X2429580Y3665807D01*
X2429058Y3663725D01*
X2428335Y3661704D01*
X2427417Y3659763D01*
X2426313Y3657922D01*
X2425035Y3656198D01*
X2423593Y3654607D01*
X2422002Y3653165D01*
X2420278Y3651887D01*
X2418437Y3650783D01*
X2416496Y3649865D01*
X2414475Y3649142D01*
X2412393Y3648620D01*
X2410269Y3648305D01*
X2408125Y3648200D01*
X2364375Y3648200D01*
X2362231Y3648305D01*
X2360107Y3648620D01*
X2358025Y3649142D01*
X2356004Y3649865D01*
X2354063Y3650783D01*
X2352222Y3651887D01*
X2350498Y3653165D01*
X2348907Y3654607D01*
X2347465Y3656198D01*
X2346187Y3657922D01*
X2345083Y3659763D01*
X2344165Y3661704D01*
X2343442Y3663725D01*
X2342920Y3665807D01*
X2342605Y3667931D01*
X2342500Y3670075D01*
X2342500Y3721325D01*
X2342605Y3723469D01*
X2342920Y3725593D01*
X2343442Y3727675D01*
X2344165Y3729696D01*
X2345083Y3731637D01*
X2346187Y3733478D01*
X2347465Y3735202D01*
X2348907Y3736793D01*
X2350498Y3738235D01*
X2352222Y3739513D01*
X2354063Y3740617D01*
X2356004Y3741535D01*
X2358025Y3742258D01*
X2360107Y3742780D01*
X2362231Y3743095D01*
X2364375Y3743200D01*
X2408125Y3743200D01*
X2410269Y3743095D01*
G37*
%TD.AperFunction*%
%TD*%
%TA.AperFunction,SMDPad,CuDef*%
%TO.P,R44,2*%
%TO.N,H_SCL0B_1*%
G36*
X3639769Y3743095D02*
G01*
X3641893Y3742780D01*
X3643975Y3742258D01*
X3645996Y3741535D01*
X3647937Y3740617D01*
X3649778Y3739513D01*
X3651502Y3738235D01*
X3653093Y3736793D01*
X3654535Y3735202D01*
X3655813Y3733478D01*
X3656917Y3731637D01*
X3657835Y3729696D01*
X3658558Y3727675D01*
X3659080Y3725593D01*
X3659395Y3723469D01*
X3659500Y3721325D01*
X3659500Y3670075D01*
X3659395Y3667931D01*
X3659080Y3665807D01*
X3658558Y3663725D01*
X3657835Y3661704D01*
X3656917Y3659763D01*
X3655813Y3657922D01*
X3654535Y3656198D01*
X3653093Y3654607D01*
X3651502Y3653165D01*
X3649778Y3651887D01*
X3647937Y3650783D01*
X3645996Y3649865D01*
X3643975Y3649142D01*
X3641893Y3648620D01*
X3639769Y3648305D01*
X3637625Y3648200D01*
X3593875Y3648200D01*
X3591731Y3648305D01*
X3589607Y3648620D01*
X3587525Y3649142D01*
X3585504Y3649865D01*
X3583563Y3650783D01*
X3581722Y3651887D01*
X3579998Y3653165D01*
X3578407Y3654607D01*
X3576965Y3656198D01*
X3575687Y3657922D01*
X3574583Y3659763D01*
X3573665Y3661704D01*
X3572942Y3663725D01*
X3572420Y3665807D01*
X3572105Y3667931D01*
X3572000Y3670075D01*
X3572000Y3721325D01*
X3572105Y3723469D01*
X3572420Y3725593D01*
X3572942Y3727675D01*
X3573665Y3729696D01*
X3574583Y3731637D01*
X3575687Y3733478D01*
X3576965Y3735202D01*
X3578407Y3736793D01*
X3579998Y3738235D01*
X3581722Y3739513D01*
X3583563Y3740617D01*
X3585504Y3741535D01*
X3587525Y3742258D01*
X3589607Y3742780D01*
X3591731Y3743095D01*
X3593875Y3743200D01*
X3637625Y3743200D01*
X3639769Y3743095D01*
G37*
%TD.AperFunction*%
%TA.AperFunction,SMDPad,CuDef*%
%TO.P,R44,1*%
%TO.N,2.5V*%
G36*
X3797269Y3743095D02*
G01*
X3799393Y3742780D01*
X3801475Y3742258D01*
X3803496Y3741535D01*
X3805437Y3740617D01*
X3807278Y3739513D01*
X3809002Y3738235D01*
X3810593Y3736793D01*
X3812035Y3735202D01*
X3813313Y3733478D01*
X3814417Y3731637D01*
X3815335Y3729696D01*
X3816058Y3727675D01*
X3816580Y3725593D01*
X3816895Y3723469D01*
X3817000Y3721325D01*
X3817000Y3670075D01*
X3816895Y3667931D01*
X3816580Y3665807D01*
X3816058Y3663725D01*
X3815335Y3661704D01*
X3814417Y3659763D01*
X3813313Y3657922D01*
X3812035Y3656198D01*
X3810593Y3654607D01*
X3809002Y3653165D01*
X3807278Y3651887D01*
X3805437Y3650783D01*
X3803496Y3649865D01*
X3801475Y3649142D01*
X3799393Y3648620D01*
X3797269Y3648305D01*
X3795125Y3648200D01*
X3751375Y3648200D01*
X3749231Y3648305D01*
X3747107Y3648620D01*
X3745025Y3649142D01*
X3743004Y3649865D01*
X3741063Y3650783D01*
X3739222Y3651887D01*
X3737498Y3653165D01*
X3735907Y3654607D01*
X3734465Y3656198D01*
X3733187Y3657922D01*
X3732083Y3659763D01*
X3731165Y3661704D01*
X3730442Y3663725D01*
X3729920Y3665807D01*
X3729605Y3667931D01*
X3729500Y3670075D01*
X3729500Y3721325D01*
X3729605Y3723469D01*
X3729920Y3725593D01*
X3730442Y3727675D01*
X3731165Y3729696D01*
X3732083Y3731637D01*
X3733187Y3733478D01*
X3734465Y3735202D01*
X3735907Y3736793D01*
X3737498Y3738235D01*
X3739222Y3739513D01*
X3741063Y3740617D01*
X3743004Y3741535D01*
X3745025Y3742258D01*
X3747107Y3742780D01*
X3749231Y3743095D01*
X3751375Y3743200D01*
X3795125Y3743200D01*
X3797269Y3743095D01*
G37*
%TD.AperFunction*%
%TD*%
%TA.AperFunction,SMDPad,CuDef*%
%TO.P,R51,2*%
%TO.N,SDA0B_2*%
G36*
X5067269Y3933595D02*
G01*
X5069393Y3933280D01*
X5071475Y3932758D01*
X5073496Y3932035D01*
X5075437Y3931117D01*
X5077278Y3930013D01*
X5079002Y3928735D01*
X5080593Y3927293D01*
X5082035Y3925702D01*
X5083313Y3923978D01*
X5084417Y3922137D01*
X5085335Y3920196D01*
X5086058Y3918175D01*
X5086580Y3916093D01*
X5086895Y3913969D01*
X5087000Y3911825D01*
X5087000Y3860575D01*
X5086895Y3858431D01*
X5086580Y3856307D01*
X5086058Y3854225D01*
X5085335Y3852204D01*
X5084417Y3850263D01*
X5083313Y3848422D01*
X5082035Y3846698D01*
X5080593Y3845107D01*
X5079002Y3843665D01*
X5077278Y3842387D01*
X5075437Y3841283D01*
X5073496Y3840365D01*
X5071475Y3839642D01*
X5069393Y3839120D01*
X5067269Y3838805D01*
X5065125Y3838700D01*
X5021375Y3838700D01*
X5019231Y3838805D01*
X5017107Y3839120D01*
X5015025Y3839642D01*
X5013004Y3840365D01*
X5011063Y3841283D01*
X5009222Y3842387D01*
X5007498Y3843665D01*
X5005907Y3845107D01*
X5004465Y3846698D01*
X5003187Y3848422D01*
X5002083Y3850263D01*
X5001165Y3852204D01*
X5000442Y3854225D01*
X4999920Y3856307D01*
X4999605Y3858431D01*
X4999500Y3860575D01*
X4999500Y3911825D01*
X4999605Y3913969D01*
X4999920Y3916093D01*
X5000442Y3918175D01*
X5001165Y3920196D01*
X5002083Y3922137D01*
X5003187Y3923978D01*
X5004465Y3925702D01*
X5005907Y3927293D01*
X5007498Y3928735D01*
X5009222Y3930013D01*
X5011063Y3931117D01*
X5013004Y3932035D01*
X5015025Y3932758D01*
X5017107Y3933280D01*
X5019231Y3933595D01*
X5021375Y3933700D01*
X5065125Y3933700D01*
X5067269Y3933595D01*
G37*
%TD.AperFunction*%
%TA.AperFunction,SMDPad,CuDef*%
%TO.P,R51,1*%
%TO.N,3.3V*%
G36*
X4909769Y3933595D02*
G01*
X4911893Y3933280D01*
X4913975Y3932758D01*
X4915996Y3932035D01*
X4917937Y3931117D01*
X4919778Y3930013D01*
X4921502Y3928735D01*
X4923093Y3927293D01*
X4924535Y3925702D01*
X4925813Y3923978D01*
X4926917Y3922137D01*
X4927835Y3920196D01*
X4928558Y3918175D01*
X4929080Y3916093D01*
X4929395Y3913969D01*
X4929500Y3911825D01*
X4929500Y3860575D01*
X4929395Y3858431D01*
X4929080Y3856307D01*
X4928558Y3854225D01*
X4927835Y3852204D01*
X4926917Y3850263D01*
X4925813Y3848422D01*
X4924535Y3846698D01*
X4923093Y3845107D01*
X4921502Y3843665D01*
X4919778Y3842387D01*
X4917937Y3841283D01*
X4915996Y3840365D01*
X4913975Y3839642D01*
X4911893Y3839120D01*
X4909769Y3838805D01*
X4907625Y3838700D01*
X4863875Y3838700D01*
X4861731Y3838805D01*
X4859607Y3839120D01*
X4857525Y3839642D01*
X4855504Y3840365D01*
X4853563Y3841283D01*
X4851722Y3842387D01*
X4849998Y3843665D01*
X4848407Y3845107D01*
X4846965Y3846698D01*
X4845687Y3848422D01*
X4844583Y3850263D01*
X4843665Y3852204D01*
X4842942Y3854225D01*
X4842420Y3856307D01*
X4842105Y3858431D01*
X4842000Y3860575D01*
X4842000Y3911825D01*
X4842105Y3913969D01*
X4842420Y3916093D01*
X4842942Y3918175D01*
X4843665Y3920196D01*
X4844583Y3922137D01*
X4845687Y3923978D01*
X4846965Y3925702D01*
X4848407Y3927293D01*
X4849998Y3928735D01*
X4851722Y3930013D01*
X4853563Y3931117D01*
X4855504Y3932035D01*
X4857525Y3932758D01*
X4859607Y3933280D01*
X4861731Y3933595D01*
X4863875Y3933700D01*
X4907625Y3933700D01*
X4909769Y3933595D01*
G37*
%TD.AperFunction*%
%TD*%
%TA.AperFunction,SMDPad,CuDef*%
%TO.P,R52,2*%
%TO.N,SCL0B_2*%
G36*
X6220269Y3933595D02*
G01*
X6222393Y3933280D01*
X6224475Y3932758D01*
X6226496Y3932035D01*
X6228437Y3931117D01*
X6230278Y3930013D01*
X6232002Y3928735D01*
X6233593Y3927293D01*
X6235035Y3925702D01*
X6236313Y3923978D01*
X6237417Y3922137D01*
X6238335Y3920196D01*
X6239058Y3918175D01*
X6239580Y3916093D01*
X6239895Y3913969D01*
X6240000Y3911825D01*
X6240000Y3860575D01*
X6239895Y3858431D01*
X6239580Y3856307D01*
X6239058Y3854225D01*
X6238335Y3852204D01*
X6237417Y3850263D01*
X6236313Y3848422D01*
X6235035Y3846698D01*
X6233593Y3845107D01*
X6232002Y3843665D01*
X6230278Y3842387D01*
X6228437Y3841283D01*
X6226496Y3840365D01*
X6224475Y3839642D01*
X6222393Y3839120D01*
X6220269Y3838805D01*
X6218125Y3838700D01*
X6174375Y3838700D01*
X6172231Y3838805D01*
X6170107Y3839120D01*
X6168025Y3839642D01*
X6166004Y3840365D01*
X6164063Y3841283D01*
X6162222Y3842387D01*
X6160498Y3843665D01*
X6158907Y3845107D01*
X6157465Y3846698D01*
X6156187Y3848422D01*
X6155083Y3850263D01*
X6154165Y3852204D01*
X6153442Y3854225D01*
X6152920Y3856307D01*
X6152605Y3858431D01*
X6152500Y3860575D01*
X6152500Y3911825D01*
X6152605Y3913969D01*
X6152920Y3916093D01*
X6153442Y3918175D01*
X6154165Y3920196D01*
X6155083Y3922137D01*
X6156187Y3923978D01*
X6157465Y3925702D01*
X6158907Y3927293D01*
X6160498Y3928735D01*
X6162222Y3930013D01*
X6164063Y3931117D01*
X6166004Y3932035D01*
X6168025Y3932758D01*
X6170107Y3933280D01*
X6172231Y3933595D01*
X6174375Y3933700D01*
X6218125Y3933700D01*
X6220269Y3933595D01*
G37*
%TD.AperFunction*%
%TA.AperFunction,SMDPad,CuDef*%
%TO.P,R52,1*%
%TO.N,3.3V*%
G36*
X6377769Y3933595D02*
G01*
X6379893Y3933280D01*
X6381975Y3932758D01*
X6383996Y3932035D01*
X6385937Y3931117D01*
X6387778Y3930013D01*
X6389502Y3928735D01*
X6391093Y3927293D01*
X6392535Y3925702D01*
X6393813Y3923978D01*
X6394917Y3922137D01*
X6395835Y3920196D01*
X6396558Y3918175D01*
X6397080Y3916093D01*
X6397395Y3913969D01*
X6397500Y3911825D01*
X6397500Y3860575D01*
X6397395Y3858431D01*
X6397080Y3856307D01*
X6396558Y3854225D01*
X6395835Y3852204D01*
X6394917Y3850263D01*
X6393813Y3848422D01*
X6392535Y3846698D01*
X6391093Y3845107D01*
X6389502Y3843665D01*
X6387778Y3842387D01*
X6385937Y3841283D01*
X6383996Y3840365D01*
X6381975Y3839642D01*
X6379893Y3839120D01*
X6377769Y3838805D01*
X6375625Y3838700D01*
X6331875Y3838700D01*
X6329731Y3838805D01*
X6327607Y3839120D01*
X6325525Y3839642D01*
X6323504Y3840365D01*
X6321563Y3841283D01*
X6319722Y3842387D01*
X6317998Y3843665D01*
X6316407Y3845107D01*
X6314965Y3846698D01*
X6313687Y3848422D01*
X6312583Y3850263D01*
X6311665Y3852204D01*
X6310942Y3854225D01*
X6310420Y3856307D01*
X6310105Y3858431D01*
X6310000Y3860575D01*
X6310000Y3911825D01*
X6310105Y3913969D01*
X6310420Y3916093D01*
X6310942Y3918175D01*
X6311665Y3920196D01*
X6312583Y3922137D01*
X6313687Y3923978D01*
X6314965Y3925702D01*
X6316407Y3927293D01*
X6317998Y3928735D01*
X6319722Y3930013D01*
X6321563Y3931117D01*
X6323504Y3932035D01*
X6325525Y3932758D01*
X6327607Y3933280D01*
X6329731Y3933595D01*
X6331875Y3933700D01*
X6375625Y3933700D01*
X6377769Y3933595D01*
G37*
%TD.AperFunction*%
%TD*%
%TA.AperFunction,SMDPad,CuDef*%
%TO.P,R53,2*%
%TO.N,H_SDA0B_2*%
G36*
X5067269Y3743095D02*
G01*
X5069393Y3742780D01*
X5071475Y3742258D01*
X5073496Y3741535D01*
X5075437Y3740617D01*
X5077278Y3739513D01*
X5079002Y3738235D01*
X5080593Y3736793D01*
X5082035Y3735202D01*
X5083313Y3733478D01*
X5084417Y3731637D01*
X5085335Y3729696D01*
X5086058Y3727675D01*
X5086580Y3725593D01*
X5086895Y3723469D01*
X5087000Y3721325D01*
X5087000Y3670075D01*
X5086895Y3667931D01*
X5086580Y3665807D01*
X5086058Y3663725D01*
X5085335Y3661704D01*
X5084417Y3659763D01*
X5083313Y3657922D01*
X5082035Y3656198D01*
X5080593Y3654607D01*
X5079002Y3653165D01*
X5077278Y3651887D01*
X5075437Y3650783D01*
X5073496Y3649865D01*
X5071475Y3649142D01*
X5069393Y3648620D01*
X5067269Y3648305D01*
X5065125Y3648200D01*
X5021375Y3648200D01*
X5019231Y3648305D01*
X5017107Y3648620D01*
X5015025Y3649142D01*
X5013004Y3649865D01*
X5011063Y3650783D01*
X5009222Y3651887D01*
X5007498Y3653165D01*
X5005907Y3654607D01*
X5004465Y3656198D01*
X5003187Y3657922D01*
X5002083Y3659763D01*
X5001165Y3661704D01*
X5000442Y3663725D01*
X4999920Y3665807D01*
X4999605Y3667931D01*
X4999500Y3670075D01*
X4999500Y3721325D01*
X4999605Y3723469D01*
X4999920Y3725593D01*
X5000442Y3727675D01*
X5001165Y3729696D01*
X5002083Y3731637D01*
X5003187Y3733478D01*
X5004465Y3735202D01*
X5005907Y3736793D01*
X5007498Y3738235D01*
X5009222Y3739513D01*
X5011063Y3740617D01*
X5013004Y3741535D01*
X5015025Y3742258D01*
X5017107Y3742780D01*
X5019231Y3743095D01*
X5021375Y3743200D01*
X5065125Y3743200D01*
X5067269Y3743095D01*
G37*
%TD.AperFunction*%
%TA.AperFunction,SMDPad,CuDef*%
%TO.P,R53,1*%
%TO.N,2.5V*%
G36*
X4909769Y3743095D02*
G01*
X4911893Y3742780D01*
X4913975Y3742258D01*
X4915996Y3741535D01*
X4917937Y3740617D01*
X4919778Y3739513D01*
X4921502Y3738235D01*
X4923093Y3736793D01*
X4924535Y3735202D01*
X4925813Y3733478D01*
X4926917Y3731637D01*
X4927835Y3729696D01*
X4928558Y3727675D01*
X4929080Y3725593D01*
X4929395Y3723469D01*
X4929500Y3721325D01*
X4929500Y3670075D01*
X4929395Y3667931D01*
X4929080Y3665807D01*
X4928558Y3663725D01*
X4927835Y3661704D01*
X4926917Y3659763D01*
X4925813Y3657922D01*
X4924535Y3656198D01*
X4923093Y3654607D01*
X4921502Y3653165D01*
X4919778Y3651887D01*
X4917937Y3650783D01*
X4915996Y3649865D01*
X4913975Y3649142D01*
X4911893Y3648620D01*
X4909769Y3648305D01*
X4907625Y3648200D01*
X4863875Y3648200D01*
X4861731Y3648305D01*
X4859607Y3648620D01*
X4857525Y3649142D01*
X4855504Y3649865D01*
X4853563Y3650783D01*
X4851722Y3651887D01*
X4849998Y3653165D01*
X4848407Y3654607D01*
X4846965Y3656198D01*
X4845687Y3657922D01*
X4844583Y3659763D01*
X4843665Y3661704D01*
X4842942Y3663725D01*
X4842420Y3665807D01*
X4842105Y3667931D01*
X4842000Y3670075D01*
X4842000Y3721325D01*
X4842105Y3723469D01*
X4842420Y3725593D01*
X4842942Y3727675D01*
X4843665Y3729696D01*
X4844583Y3731637D01*
X4845687Y3733478D01*
X4846965Y3735202D01*
X4848407Y3736793D01*
X4849998Y3738235D01*
X4851722Y3739513D01*
X4853563Y3740617D01*
X4855504Y3741535D01*
X4857525Y3742258D01*
X4859607Y3742780D01*
X4861731Y3743095D01*
X4863875Y3743200D01*
X4907625Y3743200D01*
X4909769Y3743095D01*
G37*
%TD.AperFunction*%
%TD*%
%TA.AperFunction,SMDPad,CuDef*%
%TO.P,R54,2*%
%TO.N,H_SCL0B_2*%
G36*
X6220269Y3743095D02*
G01*
X6222393Y3742780D01*
X6224475Y3742258D01*
X6226496Y3741535D01*
X6228437Y3740617D01*
X6230278Y3739513D01*
X6232002Y3738235D01*
X6233593Y3736793D01*
X6235035Y3735202D01*
X6236313Y3733478D01*
X6237417Y3731637D01*
X6238335Y3729696D01*
X6239058Y3727675D01*
X6239580Y3725593D01*
X6239895Y3723469D01*
X6240000Y3721325D01*
X6240000Y3670075D01*
X6239895Y3667931D01*
X6239580Y3665807D01*
X6239058Y3663725D01*
X6238335Y3661704D01*
X6237417Y3659763D01*
X6236313Y3657922D01*
X6235035Y3656198D01*
X6233593Y3654607D01*
X6232002Y3653165D01*
X6230278Y3651887D01*
X6228437Y3650783D01*
X6226496Y3649865D01*
X6224475Y3649142D01*
X6222393Y3648620D01*
X6220269Y3648305D01*
X6218125Y3648200D01*
X6174375Y3648200D01*
X6172231Y3648305D01*
X6170107Y3648620D01*
X6168025Y3649142D01*
X6166004Y3649865D01*
X6164063Y3650783D01*
X6162222Y3651887D01*
X6160498Y3653165D01*
X6158907Y3654607D01*
X6157465Y3656198D01*
X6156187Y3657922D01*
X6155083Y3659763D01*
X6154165Y3661704D01*
X6153442Y3663725D01*
X6152920Y3665807D01*
X6152605Y3667931D01*
X6152500Y3670075D01*
X6152500Y3721325D01*
X6152605Y3723469D01*
X6152920Y3725593D01*
X6153442Y3727675D01*
X6154165Y3729696D01*
X6155083Y3731637D01*
X6156187Y3733478D01*
X6157465Y3735202D01*
X6158907Y3736793D01*
X6160498Y3738235D01*
X6162222Y3739513D01*
X6164063Y3740617D01*
X6166004Y3741535D01*
X6168025Y3742258D01*
X6170107Y3742780D01*
X6172231Y3743095D01*
X6174375Y3743200D01*
X6218125Y3743200D01*
X6220269Y3743095D01*
G37*
%TD.AperFunction*%
%TA.AperFunction,SMDPad,CuDef*%
%TO.P,R54,1*%
%TO.N,2.5V*%
G36*
X6377769Y3743095D02*
G01*
X6379893Y3742780D01*
X6381975Y3742258D01*
X6383996Y3741535D01*
X6385937Y3740617D01*
X6387778Y3739513D01*
X6389502Y3738235D01*
X6391093Y3736793D01*
X6392535Y3735202D01*
X6393813Y3733478D01*
X6394917Y3731637D01*
X6395835Y3729696D01*
X6396558Y3727675D01*
X6397080Y3725593D01*
X6397395Y3723469D01*
X6397500Y3721325D01*
X6397500Y3670075D01*
X6397395Y3667931D01*
X6397080Y3665807D01*
X6396558Y3663725D01*
X6395835Y3661704D01*
X6394917Y3659763D01*
X6393813Y3657922D01*
X6392535Y3656198D01*
X6391093Y3654607D01*
X6389502Y3653165D01*
X6387778Y3651887D01*
X6385937Y3650783D01*
X6383996Y3649865D01*
X6381975Y3649142D01*
X6379893Y3648620D01*
X6377769Y3648305D01*
X6375625Y3648200D01*
X6331875Y3648200D01*
X6329731Y3648305D01*
X6327607Y3648620D01*
X6325525Y3649142D01*
X6323504Y3649865D01*
X6321563Y3650783D01*
X6319722Y3651887D01*
X6317998Y3653165D01*
X6316407Y3654607D01*
X6314965Y3656198D01*
X6313687Y3657922D01*
X6312583Y3659763D01*
X6311665Y3661704D01*
X6310942Y3663725D01*
X6310420Y3665807D01*
X6310105Y3667931D01*
X6310000Y3670075D01*
X6310000Y3721325D01*
X6310105Y3723469D01*
X6310420Y3725593D01*
X6310942Y3727675D01*
X6311665Y3729696D01*
X6312583Y3731637D01*
X6313687Y3733478D01*
X6314965Y3735202D01*
X6316407Y3736793D01*
X6317998Y3738235D01*
X6319722Y3739513D01*
X6321563Y3740617D01*
X6323504Y3741535D01*
X6325525Y3742258D01*
X6327607Y3742780D01*
X6329731Y3743095D01*
X6331875Y3743200D01*
X6375625Y3743200D01*
X6377769Y3743095D01*
G37*
%TD.AperFunction*%
%TD*%
D18*
%TO.P,C2,2*%
%TO.N,GNDREF*%
X444500Y3759200D03*
%TO.P,C2,1*%
%TO.N,3.3V_Supply*%
X723900Y3759200D03*
%TD*%
%TO.P,C3,2*%
%TO.N,GNDREF*%
X1270000Y3759200D03*
%TO.P,C3,1*%
%TO.N,2.5V_Supply*%
X1549400Y3759200D03*
%TD*%
D19*
%TO.P,C1,2*%
%TO.N,GNDREF*%
X444500Y4178300D03*
%TO.P,C1,1*%
%TO.N,/5.0V*%
X444500Y4457700D03*
%TD*%
D20*
%TO.P,J4,MH4*%
%TO.N,GNDREF*%
X6093900Y353800D03*
%TO.P,J4,MH3*%
X4523900Y353800D03*
%TO.P,J4,MH2*%
X6033900Y843800D03*
%TO.P,J4,MH1*%
X4583900Y843800D03*
%TD*%
%TO.P,J3,MH4*%
%TO.N,GNDREF*%
X2283900Y353800D03*
%TO.P,J3,MH3*%
X713900Y353800D03*
%TO.P,J3,MH2*%
X2223900Y843800D03*
%TO.P,J3,MH1*%
X773900Y843800D03*
%TD*%
D21*
%TO.P,S1,4*%
%TO.N,3.3V_FMC*%
X889000Y4644200D03*
%TO.P,S1,5*%
%TO.N,3.3V*%
X889000Y4394200D03*
%TO.P,S1,6*%
%TO.N,3.3V_Supply*%
X889000Y4144200D03*
%TO.P,S1,3*%
%TO.N,2.5V_Supply*%
X1439000Y4144200D03*
%TO.P,S1,2*%
%TO.N,2.5V*%
X1439000Y4394200D03*
%TO.P,S1,1*%
%TO.N,2.5V_VADJ_FMC*%
X1439000Y4644200D03*
%TD*%
D22*
%TO.P,U5,8*%
%TO.N,3.3V*%
X5905500Y3632200D03*
%TO.P,U5,7*%
%TO.N,H_SCL0B_2*%
X5905500Y3759200D03*
%TO.P,U5,6*%
%TO.N,SCL0B_2*%
X5905500Y3886200D03*
%TO.P,U5,5*%
%TO.N,N/C*%
X5905500Y4013200D03*
%TO.P,U5,4*%
%TO.N,GNDREF*%
X5363300Y4013200D03*
%TO.P,U5,3*%
%TO.N,SDA0B_2*%
X5363300Y3886200D03*
%TO.P,U5,2*%
%TO.N,H_SDA0B_2*%
X5363300Y3759200D03*
%TO.P,U5,1*%
%TO.N,N/C*%
X5363300Y3632200D03*
%TD*%
%TO.P,U4,8*%
%TO.N,3.3V*%
X3336200Y3632200D03*
%TO.P,U4,7*%
%TO.N,H_SCL0B_1*%
X3336200Y3759200D03*
%TO.P,U4,6*%
%TO.N,SCL0B_1*%
X3336200Y3886200D03*
%TO.P,U4,5*%
%TO.N,N/C*%
X3336200Y4013200D03*
%TO.P,U4,4*%
%TO.N,GNDREF*%
X2794000Y4013200D03*
%TO.P,U4,3*%
%TO.N,SDA0B_1*%
X2794000Y3886200D03*
%TO.P,U4,2*%
%TO.N,H_SDA0B_1*%
X2794000Y3759200D03*
%TO.P,U4,1*%
%TO.N,N/C*%
X2794000Y3632200D03*
%TD*%
D23*
%TO.P,U2,4*%
%TO.N,N/C*%
X1563500Y2748200D03*
D24*
%TO.P,U2,3*%
%TO.N,/5.0V*%
X1793500Y3378200D03*
%TO.P,U2,2*%
%TO.N,2.5V_Supply*%
X1563500Y3378200D03*
%TO.P,U2,1*%
%TO.N,GNDREF*%
X1333500Y3378200D03*
%TD*%
D23*
%TO.P,U1,4*%
%TO.N,N/C*%
X762000Y2748200D03*
D24*
%TO.P,U1,3*%
%TO.N,/5.0V*%
X992000Y3378200D03*
%TO.P,U1,2*%
%TO.N,3.3V_Supply*%
X762000Y3378200D03*
%TO.P,U1,1*%
%TO.N,GNDREF*%
X532000Y3378200D03*
%TD*%
D25*
%TO.N,GNDREF*%
X5969000Y7188200D03*
X6032500Y6235700D03*
X1397000Y5664200D03*
X2692400Y5079700D03*
X4000500Y5346700D03*
X3746500Y5029200D03*
X4889500Y5219700D03*
X6159500Y4648200D03*
X5270500Y4775200D03*
X317500Y3759200D03*
X1143000Y3759200D03*
X5715000Y1600200D03*
X5842000Y1600200D03*
X6477000Y1600200D03*
X4826000Y1422400D03*
X914400Y1320800D03*
X2667000Y228600D03*
X3556000Y787400D03*
X2794000Y4267200D03*
X5080000Y4394200D03*
%TO.N,2.5V*%
X1710500Y4398200D03*
X2222500Y3695700D03*
X3937000Y3695700D03*
X6540500Y3695700D03*
X4699000Y3695700D03*
X4521200Y3683000D03*
%TO.N,3.3V*%
X1397000Y5029200D03*
X3683000Y4902200D03*
X3683000Y4648200D03*
X3683000Y4521200D03*
X2680000Y4407200D03*
X3746500Y5600700D03*
X2476500Y5473700D03*
X2476500Y5219700D03*
X2476500Y5092700D03*
X4889500Y5473700D03*
X4889500Y5346700D03*
X4889500Y5092700D03*
X6159500Y4902200D03*
X6159500Y4775200D03*
X6159500Y4521200D03*
X5080000Y5029200D03*
X635000Y4394200D03*
X2222500Y3886200D03*
X3937000Y3886200D03*
X6540500Y3886200D03*
X4699000Y3886200D03*
X6096000Y3568700D03*
X3556000Y3568700D03*
X6159500Y3314700D03*
X5397500Y3124200D03*
X5384800Y2768600D03*
X5359400Y2159000D03*
%TO.N,/D_OUT_M1_1P*%
X4699000Y7188200D03*
X4635500Y5791200D03*
%TO.N,/D_OUT_M1_1N*%
X4572000Y7188200D03*
X4508500Y5791200D03*
%TO.N,/D_OUT_M2_1P*%
X4191000Y7188200D03*
X4381500Y5791200D03*
%TO.N,/D_OUT_M2_1N*%
X4064000Y7188200D03*
X4254500Y5791200D03*
%TO.N,TRG_1P*%
X2095500Y5791200D03*
X3784600Y7112000D03*
%TO.N,TRG_1N*%
X3683000Y7188200D03*
X1968500Y5791200D03*
%TO.N,BCLK_1P*%
X1841500Y5791200D03*
X3302000Y7086600D03*
%TO.N,BCLK_1N*%
X3175000Y7188200D03*
X1714500Y5791200D03*
%TO.N,SDA0B_1*%
X2540000Y7188200D03*
X2184400Y3987800D03*
%TO.N,SCL0B_1*%
X2667000Y7188200D03*
X3706900Y4038600D03*
%TO.N,3.3V_FMC*%
X952500Y7188200D03*
X635000Y4648200D03*
%TO.N,D_OUT_M1_2P*%
X4953000Y6680200D03*
X5905500Y5219700D03*
%TO.N,D_OUT_M1_2N*%
X4826000Y6680200D03*
X5778500Y5219700D03*
%TO.N,D_OUT_M2_2P*%
X4445000Y6680200D03*
X5651500Y5219700D03*
%TO.N,D_OUT_M2_2N*%
X4318000Y6680200D03*
X5524500Y5219700D03*
%TO.N,TRG_2P*%
X4064000Y6680200D03*
X3365500Y5219700D03*
%TO.N,TRG_2N*%
X3937000Y6680200D03*
X3238500Y5219700D03*
%TO.N,BCLK_2P*%
X3683000Y6680200D03*
X3111500Y5219700D03*
%TO.N,BCLK_2N*%
X3556000Y6680200D03*
X2984500Y5219700D03*
%TO.N,SDA0B_2*%
X3302000Y6680200D03*
X3302000Y6680200D03*
X5181600Y3962400D03*
%TO.N,SCL0B_2*%
X3429000Y6680200D03*
X3429000Y6680200D03*
X6200000Y4264800D03*
%TO.N,SCL1B*%
X3048000Y6680200D03*
X5842000Y3403600D03*
%TO.N,SDA1B*%
X2921000Y6680200D03*
X5715000Y3403600D03*
%TO.N,2.5V_VADJ_FMC*%
X1206500Y6680200D03*
X1587500Y4902200D03*
%TO.N,H_DOUT_M1_1P*%
X4635500Y4838700D03*
X2032000Y1320800D03*
%TO.N,H_DOUT_M1_1N*%
X4508500Y4838700D03*
X1930400Y1320800D03*
%TO.N,H_DOUT_M2_1P*%
X4381500Y4838700D03*
X1823900Y1315900D03*
%TO.N,H_DOUT_M2_1N*%
X4254500Y4838700D03*
X1701800Y1320800D03*
%TO.N,H_TRG_1P*%
X2095500Y4838700D03*
X1524000Y1320800D03*
%TO.N,H_TRG_1N*%
X1968500Y4838700D03*
X1422400Y1320800D03*
%TO.N,H_BCLK_1P*%
X1841500Y4838700D03*
X1320800Y1320800D03*
%TO.N,H_BCLK_1N*%
X1714500Y4838700D03*
X1219200Y1320800D03*
%TO.N,H_SCL0B_1*%
X3505200Y3810000D03*
X1117600Y1320800D03*
%TO.N,H_SDA0B_1*%
X2540000Y3505200D03*
X1016000Y1320800D03*
X1016000Y1320800D03*
%TO.N,H_SDA0B_2*%
X4953000Y1422400D03*
X5054600Y3556000D03*
%TO.N,H_SCL0B_2*%
X5054600Y1422400D03*
X5454800Y3473600D03*
%TO.N,H_BCLK_2N*%
X2984500Y4267200D03*
X5156200Y1422400D03*
%TO.N,H_BCLK_2P*%
X3111500Y4267200D03*
X5257800Y1422400D03*
%TO.N,H_TRG_2N*%
X3238500Y4267200D03*
X5359400Y1422400D03*
%TO.N,H_TRG_2P*%
X3365500Y4267200D03*
X5461000Y1422400D03*
%TO.N,H_DOUT_M2_2N*%
X5524500Y4267200D03*
X5533900Y1317500D03*
%TO.N,H_DOUT_M2_2P*%
X5651500Y4267200D03*
X5633900Y1315900D03*
%TO.N,H_DOUT_M1_2N*%
X5778500Y4267200D03*
X5791200Y1320800D03*
%TO.N,H_DOUT_M1_2P*%
X5905500Y4267200D03*
X5892800Y1320800D03*
%TO.N,PE*%
X3683000Y4775200D03*
X2476500Y5346700D03*
X6096000Y1600200D03*
%TO.N,EQ*%
X4000500Y5219700D03*
X5270500Y4648200D03*
X6223000Y1600200D03*
%TO.N,/5.0V*%
X444500Y4648200D03*
X1841500Y3568700D03*
X1077250Y3570950D03*
X1143000Y2552700D03*
%TO.N,/5.0V_USB*%
X3276600Y787400D03*
X1803400Y2413000D03*
%TD*%
D26*
%TO.N,GNDREF*%
X4250000Y5308200D02*
X4216000Y5308200D01*
X4702500Y5258200D02*
X4741000Y5219700D01*
X4640000Y5258200D02*
X4702500Y5258200D01*
X4741000Y5219700D02*
X4889500Y5219700D01*
X4187500Y5308200D02*
X4149000Y5346700D01*
X4250000Y5308200D02*
X4187500Y5308200D01*
X4149000Y5346700D02*
X4000500Y5346700D01*
X4250000Y5173200D02*
X4169500Y5092700D01*
X4250000Y5208200D02*
X4250000Y5173200D01*
X4169500Y5092700D02*
X4000500Y5092700D01*
X4000500Y5346700D02*
X4000500Y5346700D01*
X3937000Y5156200D02*
X3746500Y5156200D01*
X4000500Y5092700D02*
X3937000Y5156200D01*
X3746500Y5156200D02*
X3746500Y5029200D01*
X3746500Y5029200D02*
X3746500Y5029200D01*
X4889500Y5219700D02*
X4889500Y5219700D01*
X5972500Y4686700D02*
X6011000Y4648200D01*
X5910000Y4686700D02*
X5972500Y4686700D01*
X6011000Y4648200D02*
X6159500Y4648200D01*
X6159500Y4648200D02*
X6159500Y4648200D01*
X5457500Y4736700D02*
X5419000Y4775200D01*
X5520000Y4736700D02*
X5457500Y4736700D01*
X5419000Y4775200D02*
X5270500Y4775200D01*
X5270500Y4775200D02*
X5270500Y4775200D01*
X5270500Y4521200D02*
X5270500Y4521200D01*
X444500Y4178300D02*
X444500Y3759200D01*
X444500Y3759200D02*
X444500Y3632200D01*
X532000Y3544700D02*
X532000Y3378200D01*
X444500Y3632200D02*
X532000Y3544700D01*
X1270000Y3759200D02*
X1270000Y3632200D01*
X1333500Y3568700D02*
X1333500Y3378200D01*
X1270000Y3632200D02*
X1333500Y3568700D01*
X444500Y3759200D02*
X317500Y3759200D01*
X317500Y3759200D02*
X317500Y3759200D01*
X1270000Y3759200D02*
X1143000Y3759200D01*
X1143000Y3759200D02*
X1143000Y3759200D01*
X5715000Y4711700D02*
X5740000Y4686700D01*
X4470000Y5258200D02*
X4445000Y5283200D01*
X4640000Y5258200D02*
X4470000Y5258200D01*
X5695000Y4731700D02*
X5715000Y4711700D01*
X5529900Y4731700D02*
X5695000Y4731700D01*
X5524900Y4736700D02*
X5529900Y4731700D01*
X5520000Y4736700D02*
X5524900Y4736700D01*
X2794000Y4013200D02*
X2692400Y4013200D01*
X2565400Y4140200D02*
X2438400Y4140200D01*
X2692400Y4013200D02*
X2565400Y4140200D01*
X2652400Y4227200D02*
X2565400Y4140200D01*
X2754000Y4227200D02*
X2652400Y4227200D01*
X2794000Y4267200D02*
X2754000Y4227200D01*
X5080000Y4394200D02*
X5080000Y4394200D01*
X5080000Y4394200D02*
X5080000Y4666000D01*
X5080000Y4598500D02*
X5080000Y4666000D01*
X5157300Y4521200D02*
X5080000Y4598500D01*
X5520000Y4601700D02*
X5439500Y4521200D01*
X5439500Y4521200D02*
X5157300Y4521200D01*
X5520000Y4636700D02*
X5520000Y4601700D01*
X5363300Y4013200D02*
X5257800Y4013200D01*
X5181600Y4089400D02*
X5054600Y4089400D01*
X5257800Y4013200D02*
X5181600Y4089400D01*
X5080000Y4114800D02*
X5054600Y4089400D01*
X5080000Y4394200D02*
X5080000Y4114800D01*
%TO.N,3.3V_Supply*%
X723900Y3759200D02*
X723900Y3606800D01*
X762000Y3568700D02*
X762000Y3378200D01*
X723900Y3606800D02*
X762000Y3568700D01*
X723900Y3899100D02*
X723900Y3759200D01*
X889000Y4064200D02*
X723900Y3899100D01*
X889000Y4144200D02*
X889000Y4064200D01*
%TO.N,2.5V_Supply*%
X1563500Y3745100D02*
X1549400Y3759200D01*
X1563500Y3378200D02*
X1563500Y3745100D01*
X1439000Y4144200D02*
X1439000Y4034700D01*
X1549400Y3924300D02*
X1549400Y3759200D01*
X1439000Y4034700D02*
X1549400Y3924300D01*
%TO.N,2.5V*%
X1460500Y4398200D02*
X1710500Y4398200D01*
X1710500Y4398200D02*
X1710500Y4398200D01*
X2390000Y3695700D02*
X2222500Y3695700D01*
X2222500Y3695700D02*
X2222500Y3695700D01*
X1968500Y4140200D02*
X1710500Y4398200D01*
X2260600Y4140200D02*
X1968500Y4140200D01*
X3769500Y3695700D02*
X3937000Y3695700D01*
X3937000Y3695700D02*
X3937000Y3695700D01*
X6350000Y3695700D02*
X6540500Y3695700D01*
X6540500Y3695700D02*
X6540500Y3695700D01*
X4889500Y3695700D02*
X4699000Y3695700D01*
X4699000Y3695700D02*
X4699000Y3695700D01*
X4521200Y3973320D02*
X4521200Y3683000D01*
X4521200Y3683000D02*
X4521200Y3683000D01*
X4637280Y4089400D02*
X4521200Y3973320D01*
X4894600Y4089400D02*
X4637280Y4089400D01*
%TO.N,3.3V*%
X889000Y4394200D02*
X635000Y4394200D01*
X4702500Y5308200D02*
X4741000Y5346700D01*
X4640000Y5308200D02*
X4702500Y5308200D01*
X4741000Y5346700D02*
X4889500Y5346700D01*
X4640000Y5393200D02*
X4720500Y5473700D01*
X4640000Y5358200D02*
X4640000Y5393200D01*
X4720500Y5473700D02*
X4889500Y5473700D01*
X4640000Y5173200D02*
X4720500Y5092700D01*
X4640000Y5208200D02*
X4640000Y5173200D01*
X4720500Y5092700D02*
X4889500Y5092700D01*
X3746500Y5600700D02*
X3746500Y5600700D01*
X4889500Y5473700D02*
X4889500Y5473700D01*
X4889500Y5346700D02*
X4889500Y5346700D01*
X4889500Y5092700D02*
X4889500Y5092700D01*
X5910000Y4821700D02*
X5990500Y4902200D01*
X5910000Y4786700D02*
X5910000Y4821700D01*
X5990500Y4902200D02*
X6159500Y4902200D01*
X5972500Y4736700D02*
X6011000Y4775200D01*
X5910000Y4736700D02*
X5972500Y4736700D01*
X6011000Y4775200D02*
X6159500Y4775200D01*
X5910000Y4601700D02*
X5990500Y4521200D01*
X5910000Y4636700D02*
X5910000Y4601700D01*
X5990500Y4521200D02*
X6159500Y4521200D01*
X6159500Y4902200D02*
X6159500Y4902200D01*
X6159500Y4775200D02*
X6159500Y4775200D01*
X6159500Y4521200D02*
X6159500Y4521200D01*
X5520000Y4821700D02*
X5439500Y4902200D01*
X5520000Y4786700D02*
X5520000Y4821700D01*
X5439500Y4902200D02*
X5270500Y4902200D01*
X5270500Y4902200D02*
X5270500Y4902200D01*
X5080000Y4838700D02*
X5080000Y5029200D01*
X5080000Y5029200D02*
X5080000Y5029200D01*
X635000Y4394200D02*
X635000Y4394200D01*
X2390000Y3886200D02*
X2222500Y3886200D01*
X2222500Y3886200D02*
X2222500Y3886200D01*
X3769500Y3886200D02*
X3937000Y3886200D01*
X3937000Y3886200D02*
X3937000Y3886200D01*
X6540500Y3886200D02*
X6540500Y3886200D01*
X4889500Y3886200D02*
X4699000Y3886200D01*
X4699000Y3886200D02*
X4699000Y3886200D01*
X5905500Y3632200D02*
X6032500Y3632200D01*
X6032500Y3632200D02*
X6096000Y3568700D01*
X6096000Y3568700D02*
X6096000Y3568700D01*
X3336200Y3632200D02*
X3492500Y3632200D01*
X3492500Y3632200D02*
X3556000Y3568700D01*
X3556000Y3568700D02*
X3556000Y3568700D01*
X6350000Y3886200D02*
X6540500Y3886200D01*
X4222500Y5358200D02*
X4164000Y5416700D01*
X4250000Y5358200D02*
X4222500Y5358200D01*
X4164000Y5416700D02*
X3892700Y5416700D01*
X5194300Y4826000D02*
X5080000Y4826000D01*
X5270500Y4902200D02*
X5194300Y4826000D01*
X3810000Y5334000D02*
X3733800Y5334000D01*
X3892700Y5416700D02*
X3810000Y5334000D01*
X3746500Y5346700D02*
X3733800Y5334000D01*
X3746500Y5600700D02*
X3746500Y5346700D01*
%TO.N,/D_OUT_M1_1P*%
X4520000Y5505700D02*
X4515000Y5510700D01*
X4520000Y5478200D02*
X4520000Y5505700D01*
X4515000Y5510700D02*
X4635500Y5631200D01*
X4635500Y5631200D02*
X4635500Y5791200D01*
X4635500Y5791200D02*
X4635500Y5791200D01*
%TO.N,/D_OUT_M1_1N*%
X4470000Y5540700D02*
X4508500Y5579200D01*
X4470000Y5478200D02*
X4470000Y5540700D01*
X4508500Y5579200D02*
X4508500Y5791200D01*
X4508500Y5791200D02*
X4508500Y5791200D01*
%TO.N,/D_OUT_M2_1P*%
X4420000Y5540700D02*
X4381500Y5579200D01*
X4420000Y5478200D02*
X4420000Y5540700D01*
X4381500Y5579200D02*
X4381500Y5791200D01*
X4381500Y5791200D02*
X4381500Y5791200D01*
%TO.N,/D_OUT_M2_1N*%
X4370000Y5478200D02*
X4370000Y5525700D01*
X4370000Y5525700D02*
X4254500Y5641200D01*
X4254500Y5641200D02*
X4254500Y5791200D01*
X4254500Y5791200D02*
X4254500Y5791200D01*
%TO.N,SDA0B_1*%
X2794000Y3886200D02*
X2540000Y3886200D01*
X2240969Y3987800D02*
X2184400Y3987800D01*
X2489650Y3987800D02*
X2240969Y3987800D01*
X2543750Y3933700D02*
X2489650Y3987800D01*
X2543750Y3886200D02*
X2543750Y3933700D01*
%TO.N,SCL0B_1*%
X3336200Y3886200D02*
X3619500Y3886200D01*
X3619500Y3951200D02*
X3706900Y4038600D01*
X3619500Y3886200D02*
X3619500Y3951200D01*
X3706900Y4038600D02*
X3706900Y4038600D01*
%TO.N,3.3V_FMC*%
X910500Y4648200D02*
X635000Y4648200D01*
X635000Y4648200D02*
X635000Y4648200D01*
%TO.N,D_OUT_M1_2P*%
X5790000Y4906700D02*
X5790000Y4954200D01*
X5790000Y4954200D02*
X5905500Y5069700D01*
X5905500Y5069700D02*
X5905500Y5219700D01*
X5905500Y5219700D02*
X5905500Y5219700D01*
%TO.N,D_OUT_M1_2N*%
X5740000Y4969200D02*
X5778500Y5007700D01*
X5740000Y4906700D02*
X5740000Y4969200D01*
X5778500Y5007700D02*
X5778500Y5219700D01*
X5778500Y5219700D02*
X5778500Y5219700D01*
%TO.N,D_OUT_M2_2P*%
X5690000Y4969200D02*
X5651500Y5007700D01*
X5690000Y4906700D02*
X5690000Y4969200D01*
X5651500Y5007700D02*
X5651500Y5219700D01*
X5651500Y5219700D02*
X5651500Y5219700D01*
X5651500Y5219700D02*
X5651500Y5219700D01*
%TO.N,D_OUT_M2_2N*%
X5640000Y4954200D02*
X5524500Y5069700D01*
X5640000Y4906700D02*
X5640000Y4954200D01*
X5524500Y5069700D02*
X5524500Y5219700D01*
X5524500Y5219700D02*
X5524500Y5219700D01*
%TO.N,SDA0B_2*%
X5039500Y3886200D02*
X5363300Y3886200D01*
X5105400Y3886200D02*
X5181600Y3962400D01*
X5043250Y3886200D02*
X5105400Y3886200D01*
%TO.N,SCL0B_2*%
X5905500Y3886200D02*
X6200000Y3886200D01*
X6200000Y3886200D02*
X6200000Y4264800D01*
X6200000Y4264800D02*
X6200000Y4264800D01*
%TO.N,2.5V_VADJ_FMC*%
X1439000Y4644200D02*
X1439000Y4753700D01*
X1439000Y4753700D02*
X1587500Y4902200D01*
X1587500Y4902200D02*
X1587500Y4902200D01*
%TO.N,H_DOUT_M1_1P*%
X4520000Y5088200D02*
X4520000Y5040700D01*
X4520000Y5040700D02*
X4635500Y4925200D01*
X4635500Y4925200D02*
X4635500Y4838700D01*
X4635500Y4838700D02*
X4635500Y4838700D01*
%TO.N,H_DOUT_M1_1N*%
X4470000Y5025700D02*
X4508500Y4987200D01*
X4470000Y5088200D02*
X4470000Y5025700D01*
X4508500Y4987200D02*
X4508500Y4838700D01*
X4508500Y4838700D02*
X4508500Y4838700D01*
%TO.N,H_DOUT_M2_1P*%
X4420000Y5025700D02*
X4381500Y4987200D01*
X4420000Y5088200D02*
X4420000Y5025700D01*
X4381500Y4987200D02*
X4381500Y4838700D01*
X4381500Y4838700D02*
X4381500Y4838700D01*
%TO.N,H_DOUT_M2_1N*%
X4370000Y5040700D02*
X4254500Y4925200D01*
X4370000Y5088200D02*
X4370000Y5040700D01*
X4254500Y4925200D02*
X4254500Y4838700D01*
X4254500Y4838700D02*
X4254500Y4838700D01*
%TO.N,H_SCL0B_1*%
X3336200Y3759200D02*
X3492500Y3759200D01*
X3556000Y3695700D02*
X3619500Y3695700D01*
X3492500Y3759200D02*
X3556000Y3695700D01*
X3492500Y3759200D02*
X3492500Y3797300D01*
X3492500Y3797300D02*
X3505200Y3810000D01*
X3505200Y3810000D02*
X3505200Y3810000D01*
%TO.N,H_SDA0B_1*%
X2794000Y3759200D02*
X2667000Y3759200D01*
X2603500Y3695700D02*
X2540000Y3695700D01*
X2667000Y3759200D02*
X2603500Y3695700D01*
X2540000Y3695700D02*
X2540000Y3505200D01*
X2540000Y3505200D02*
X2540000Y3479800D01*
%TO.N,H_SDA0B_2*%
X5363300Y3759200D02*
X5207000Y3759200D01*
X5207000Y3759200D02*
X5143500Y3695700D01*
X5143500Y3695700D02*
X5039500Y3695700D01*
X5039500Y3630700D02*
X5054600Y3615600D01*
X5039500Y3695700D02*
X5039500Y3630700D01*
X5054600Y3615600D02*
X5054600Y3556000D01*
X5054600Y3556000D02*
X5054600Y3556000D01*
%TO.N,H_SCL0B_2*%
X5905500Y3759200D02*
X6032500Y3759200D01*
X6032500Y3759200D02*
X6096000Y3695700D01*
X6096000Y3695700D02*
X6200000Y3695700D01*
X6104500Y3473600D02*
X5454800Y3473600D01*
X6200000Y3569100D02*
X6104500Y3473600D01*
X6200000Y3695700D02*
X6200000Y3569100D01*
X5454800Y3473600D02*
X5454800Y3473600D01*
%TO.N,H_DOUT_M2_2N*%
X5640000Y4469200D02*
X5524500Y4353700D01*
X5640000Y4516700D02*
X5640000Y4469200D01*
X5524500Y4353700D02*
X5524500Y4267200D01*
X5524500Y4267200D02*
X5524500Y4267200D01*
%TO.N,H_DOUT_M2_2P*%
X5690000Y4454200D02*
X5651500Y4415700D01*
X5690000Y4516700D02*
X5690000Y4454200D01*
X5651500Y4415700D02*
X5651500Y4267200D01*
X5651500Y4267200D02*
X5651500Y4267200D01*
%TO.N,H_DOUT_M1_2N*%
X5740000Y4454200D02*
X5778500Y4415700D01*
X5740000Y4516700D02*
X5740000Y4454200D01*
X5778500Y4415700D02*
X5778500Y4267200D01*
X5778500Y4267200D02*
X5778500Y4267200D01*
%TO.N,H_DOUT_M1_2P*%
X5790000Y4516700D02*
X5790000Y4469200D01*
X5790000Y4469200D02*
X5905500Y4353700D01*
X5905500Y4353700D02*
X5905500Y4267200D01*
X5905500Y4267200D02*
X5905500Y4267200D01*
%TO.N,EQ*%
X4187500Y5258200D02*
X4149000Y5219700D01*
X4250000Y5258200D02*
X4187500Y5258200D01*
X4149000Y5219700D02*
X4000500Y5219700D01*
X4000500Y5219700D02*
X4000500Y5219700D01*
X5457500Y4686700D02*
X5419000Y4648200D01*
X5520000Y4686700D02*
X5457500Y4686700D01*
X5419000Y4648200D02*
X5270500Y4648200D01*
X5270500Y4648200D02*
X5270500Y4648200D01*
%TO.N,/5.0V*%
X444500Y4457700D02*
X444500Y4648200D01*
X444500Y4648200D02*
X444500Y4648200D01*
X992000Y3485700D02*
X1077250Y3570950D01*
X992000Y3378200D02*
X992000Y3485700D01*
X1793500Y3378200D02*
X1793500Y3520700D01*
X1793500Y3520700D02*
X1841500Y3568700D01*
X1841500Y3568700D02*
X1841500Y3568700D01*
X1077250Y3570950D02*
X1079500Y3573200D01*
%TD*%
M02*
