%TF.GenerationSoftware,KiCad,Pcbnew,(5.1.5-0-10_14)*%
%TF.CreationDate,2020-01-10T14:35:19+01:00*%
%TF.ProjectId,adapter_hybrid_assister,61646170-7465-4725-9f68-79627269645f,rev?*%
%TF.SameCoordinates,PX6312cb0PY8accb70*%
%TF.FileFunction,Soldermask,Bot*%
%TF.FilePolarity,Negative*%
%FSLAX45Y45*%
G04 Gerber Fmt 4.5, Leading zero omitted, Abs format (unit mm)*
G04 Created by KiCad (PCBNEW (5.1.5-0-10_14)) date 2020-01-10 14:35:19*
%MOMM*%
%LPD*%
G04 APERTURE LIST*
%TA.AperFunction,Profile*%
%ADD10C,0.050000*%
%TD*%
%TA.AperFunction,Profile*%
%ADD11C,0.100000*%
%TD*%
%ADD12C,0.100000*%
G04 APERTURE END LIST*
D10*
X6713533Y7493000D02*
G75*
G03X6713533Y7493000I-33333J0D01*
G01*
X6630200Y7493000D02*
X6730200Y7493000D01*
X6680200Y7543000D02*
X6680200Y7443000D01*
X236533Y203200D02*
G75*
G03X236533Y203200I-33333J0D01*
G01*
X153200Y203200D02*
X253200Y203200D01*
X203200Y253200D02*
X203200Y153200D01*
X454800Y584200D02*
G75*
G03X454800Y584200I-150000J0D01*
G01*
X6703200Y584200D02*
G75*
G03X6703200Y584200I-150000J0D01*
G01*
X0Y0D02*
X0Y7670800D01*
X6858000Y7670800D02*
X6858000Y0D01*
D11*
X0Y7670800D02*
X6858000Y7670800D01*
X6858000Y0D02*
X0Y0D01*
D12*
G36*
X6117731Y455964D02*
G01*
X6124484Y454621D01*
X6143565Y446717D01*
X6160738Y435242D01*
X6175342Y420638D01*
X6186817Y403465D01*
X6194721Y384384D01*
X6198750Y364127D01*
X6198750Y343473D01*
X6194721Y323216D01*
X6186817Y304135D01*
X6175342Y286962D01*
X6160738Y272358D01*
X6143565Y260883D01*
X6124484Y252979D01*
X6117731Y251636D01*
X6104227Y248950D01*
X6083573Y248950D01*
X6070069Y251636D01*
X6063316Y252979D01*
X6044235Y260883D01*
X6027062Y272358D01*
X6012458Y286962D01*
X6000983Y304135D01*
X5993079Y323216D01*
X5989050Y343473D01*
X5989050Y364127D01*
X5993079Y384384D01*
X6000983Y403465D01*
X6012458Y420638D01*
X6027062Y435242D01*
X6044235Y446717D01*
X6063316Y454621D01*
X6070069Y455964D01*
X6083573Y458650D01*
X6104227Y458650D01*
X6117731Y455964D01*
G37*
G36*
X4547731Y455964D02*
G01*
X4554484Y454621D01*
X4573565Y446717D01*
X4590738Y435242D01*
X4605342Y420638D01*
X4616817Y403465D01*
X4624721Y384384D01*
X4628750Y364127D01*
X4628750Y343473D01*
X4624721Y323216D01*
X4616817Y304135D01*
X4605342Y286962D01*
X4590738Y272358D01*
X4573565Y260883D01*
X4554484Y252979D01*
X4547731Y251636D01*
X4534227Y248950D01*
X4513573Y248950D01*
X4500069Y251636D01*
X4493316Y252979D01*
X4474235Y260883D01*
X4457062Y272358D01*
X4442458Y286962D01*
X4430983Y304135D01*
X4423079Y323216D01*
X4419050Y343473D01*
X4419050Y364127D01*
X4423079Y384384D01*
X4430983Y403465D01*
X4442458Y420638D01*
X4457062Y435242D01*
X4474235Y446717D01*
X4493316Y454621D01*
X4500069Y455964D01*
X4513573Y458650D01*
X4534227Y458650D01*
X4547731Y455964D01*
G37*
G36*
X2307731Y455964D02*
G01*
X2314484Y454621D01*
X2333565Y446717D01*
X2350738Y435242D01*
X2365342Y420638D01*
X2376817Y403465D01*
X2384721Y384384D01*
X2388750Y364127D01*
X2388750Y343473D01*
X2384721Y323216D01*
X2376817Y304135D01*
X2365342Y286962D01*
X2350738Y272358D01*
X2333565Y260883D01*
X2314484Y252979D01*
X2307731Y251636D01*
X2294227Y248950D01*
X2273573Y248950D01*
X2260069Y251636D01*
X2253316Y252979D01*
X2234235Y260883D01*
X2217062Y272358D01*
X2202458Y286962D01*
X2190983Y304135D01*
X2183079Y323216D01*
X2179050Y343473D01*
X2179050Y364127D01*
X2183079Y384384D01*
X2190983Y403465D01*
X2202458Y420638D01*
X2217062Y435242D01*
X2234235Y446717D01*
X2253316Y454621D01*
X2260069Y455964D01*
X2273573Y458650D01*
X2294227Y458650D01*
X2307731Y455964D01*
G37*
G36*
X737731Y455964D02*
G01*
X744484Y454621D01*
X763565Y446717D01*
X780738Y435242D01*
X795342Y420638D01*
X806817Y403465D01*
X814721Y384384D01*
X818750Y364127D01*
X818750Y343473D01*
X814721Y323216D01*
X806817Y304135D01*
X795342Y286962D01*
X780738Y272358D01*
X763565Y260883D01*
X744484Y252979D01*
X737731Y251636D01*
X724227Y248950D01*
X703573Y248950D01*
X690069Y251636D01*
X683316Y252979D01*
X664235Y260883D01*
X647062Y272358D01*
X632458Y286962D01*
X620983Y304135D01*
X613079Y323216D01*
X609050Y343473D01*
X609050Y364127D01*
X613079Y384384D01*
X620983Y403465D01*
X632458Y420638D01*
X647062Y435242D01*
X664235Y446717D01*
X683316Y454621D01*
X690069Y455964D01*
X703573Y458650D01*
X724227Y458650D01*
X737731Y455964D01*
G37*
G36*
X6057731Y945964D02*
G01*
X6064484Y944621D01*
X6083565Y936717D01*
X6100738Y925242D01*
X6115342Y910638D01*
X6126817Y893465D01*
X6134721Y874384D01*
X6138750Y854127D01*
X6138750Y833473D01*
X6134721Y813216D01*
X6126817Y794135D01*
X6115342Y776962D01*
X6100738Y762358D01*
X6083565Y750883D01*
X6064484Y742979D01*
X6057731Y741636D01*
X6044227Y738950D01*
X6023573Y738950D01*
X6010069Y741636D01*
X6003316Y742979D01*
X5984235Y750883D01*
X5967062Y762358D01*
X5952458Y776962D01*
X5940983Y794135D01*
X5933079Y813216D01*
X5929050Y833473D01*
X5929050Y854127D01*
X5933079Y874384D01*
X5940983Y893465D01*
X5952458Y910638D01*
X5967062Y925242D01*
X5984235Y936717D01*
X6003316Y944621D01*
X6010069Y945964D01*
X6023573Y948650D01*
X6044227Y948650D01*
X6057731Y945964D01*
G37*
G36*
X4607731Y945964D02*
G01*
X4614484Y944621D01*
X4633565Y936717D01*
X4650738Y925242D01*
X4665342Y910638D01*
X4676817Y893465D01*
X4684721Y874384D01*
X4688750Y854127D01*
X4688750Y833473D01*
X4684721Y813216D01*
X4676817Y794135D01*
X4665342Y776962D01*
X4650738Y762358D01*
X4633565Y750883D01*
X4614484Y742979D01*
X4607731Y741636D01*
X4594227Y738950D01*
X4573573Y738950D01*
X4560069Y741636D01*
X4553316Y742979D01*
X4534235Y750883D01*
X4517062Y762358D01*
X4502458Y776962D01*
X4490983Y794135D01*
X4483079Y813216D01*
X4479050Y833473D01*
X4479050Y854127D01*
X4483079Y874384D01*
X4490983Y893465D01*
X4502458Y910638D01*
X4517062Y925242D01*
X4534235Y936717D01*
X4553316Y944621D01*
X4560069Y945964D01*
X4573573Y948650D01*
X4594227Y948650D01*
X4607731Y945964D01*
G37*
G36*
X2247731Y945964D02*
G01*
X2254484Y944621D01*
X2273565Y936717D01*
X2290738Y925242D01*
X2305342Y910638D01*
X2316817Y893465D01*
X2324721Y874384D01*
X2328750Y854127D01*
X2328750Y833473D01*
X2324721Y813216D01*
X2316817Y794135D01*
X2305342Y776962D01*
X2290738Y762358D01*
X2273565Y750883D01*
X2254484Y742979D01*
X2247731Y741636D01*
X2234227Y738950D01*
X2213573Y738950D01*
X2200069Y741636D01*
X2193316Y742979D01*
X2174235Y750883D01*
X2157062Y762358D01*
X2142458Y776962D01*
X2130983Y794135D01*
X2123079Y813216D01*
X2119050Y833473D01*
X2119050Y854127D01*
X2123079Y874384D01*
X2130983Y893465D01*
X2142458Y910638D01*
X2157062Y925242D01*
X2174235Y936717D01*
X2193316Y944621D01*
X2200069Y945964D01*
X2213573Y948650D01*
X2234227Y948650D01*
X2247731Y945964D01*
G37*
G36*
X797731Y945964D02*
G01*
X804484Y944621D01*
X823565Y936717D01*
X840738Y925242D01*
X855342Y910638D01*
X866817Y893465D01*
X874721Y874384D01*
X878750Y854127D01*
X878750Y833473D01*
X874721Y813216D01*
X866817Y794135D01*
X855342Y776962D01*
X840738Y762358D01*
X823565Y750883D01*
X804484Y742979D01*
X797731Y741636D01*
X784227Y738950D01*
X763573Y738950D01*
X750069Y741636D01*
X743316Y742979D01*
X724235Y750883D01*
X707062Y762358D01*
X692458Y776962D01*
X680983Y794135D01*
X673079Y813216D01*
X669050Y833473D01*
X669050Y854127D01*
X673079Y874384D01*
X680983Y893465D01*
X692458Y910638D01*
X707062Y925242D01*
X724235Y936717D01*
X743316Y944621D01*
X750069Y945964D01*
X763573Y948650D01*
X784227Y948650D01*
X797731Y945964D01*
G37*
G36*
X1728600Y2655600D02*
G01*
X1398400Y2655600D01*
X1398400Y2840800D01*
X1728600Y2840800D01*
X1728600Y2655600D01*
G37*
G36*
X927100Y2655600D02*
G01*
X596900Y2655600D01*
X596900Y2840800D01*
X927100Y2840800D01*
X927100Y2655600D01*
G37*
G36*
X584600Y3285600D02*
G01*
X479400Y3285600D01*
X479400Y3470800D01*
X584600Y3470800D01*
X584600Y3285600D01*
G37*
G36*
X1846100Y3285600D02*
G01*
X1740900Y3285600D01*
X1740900Y3470800D01*
X1846100Y3470800D01*
X1846100Y3285600D01*
G37*
G36*
X814600Y3285600D02*
G01*
X709400Y3285600D01*
X709400Y3470800D01*
X814600Y3470800D01*
X814600Y3285600D01*
G37*
G36*
X1044600Y3285600D02*
G01*
X939400Y3285600D01*
X939400Y3470800D01*
X1044600Y3470800D01*
X1044600Y3285600D01*
G37*
G36*
X1386100Y3285600D02*
G01*
X1280900Y3285600D01*
X1280900Y3470800D01*
X1386100Y3470800D01*
X1386100Y3285600D01*
G37*
G36*
X1616100Y3285600D02*
G01*
X1510900Y3285600D01*
X1510900Y3470800D01*
X1616100Y3470800D01*
X1616100Y3285600D01*
G37*
G36*
X2875500Y3594600D02*
G01*
X2712500Y3594600D01*
X2712500Y3669800D01*
X2875500Y3669800D01*
X2875500Y3594600D01*
G37*
G36*
X3417700Y3594600D02*
G01*
X3254700Y3594600D01*
X3254700Y3669800D01*
X3417700Y3669800D01*
X3417700Y3594600D01*
G37*
G36*
X5444800Y3594600D02*
G01*
X5281800Y3594600D01*
X5281800Y3669800D01*
X5444800Y3669800D01*
X5444800Y3594600D01*
G37*
G36*
X5987000Y3594600D02*
G01*
X5824000Y3594600D01*
X5824000Y3669800D01*
X5987000Y3669800D01*
X5987000Y3594600D01*
G37*
G36*
X6230459Y3747891D02*
G01*
X6233857Y3746861D01*
X6236989Y3745187D01*
X6239734Y3742934D01*
X6241987Y3740189D01*
X6243661Y3737057D01*
X6244691Y3733659D01*
X6245100Y3729511D01*
X6245100Y3661889D01*
X6244691Y3657741D01*
X6243661Y3654343D01*
X6241987Y3651211D01*
X6239734Y3648466D01*
X6236989Y3646213D01*
X6233857Y3644539D01*
X6230459Y3643508D01*
X6226311Y3643100D01*
X6166189Y3643100D01*
X6162041Y3643508D01*
X6158643Y3644539D01*
X6155511Y3646213D01*
X6152766Y3648466D01*
X6150513Y3651211D01*
X6148839Y3654343D01*
X6147808Y3657741D01*
X6147400Y3661889D01*
X6147400Y3729511D01*
X6147808Y3733659D01*
X6148839Y3737057D01*
X6150513Y3740189D01*
X6152766Y3742934D01*
X6155511Y3745187D01*
X6158643Y3746861D01*
X6162041Y3747891D01*
X6166189Y3748300D01*
X6226311Y3748300D01*
X6230459Y3747891D01*
G37*
G36*
X3807459Y3747891D02*
G01*
X3810857Y3746861D01*
X3813989Y3745187D01*
X3816734Y3742934D01*
X3818987Y3740189D01*
X3820661Y3737057D01*
X3821691Y3733659D01*
X3822100Y3729511D01*
X3822100Y3661889D01*
X3821691Y3657741D01*
X3820661Y3654343D01*
X3818987Y3651211D01*
X3816734Y3648466D01*
X3813989Y3646213D01*
X3810857Y3644539D01*
X3807459Y3643508D01*
X3803311Y3643100D01*
X3743189Y3643100D01*
X3739041Y3643508D01*
X3735643Y3644539D01*
X3732511Y3646213D01*
X3729766Y3648466D01*
X3727513Y3651211D01*
X3725839Y3654343D01*
X3724808Y3657741D01*
X3724400Y3661889D01*
X3724400Y3729511D01*
X3724808Y3733659D01*
X3725839Y3737057D01*
X3727513Y3740189D01*
X3729766Y3742934D01*
X3732511Y3745187D01*
X3735643Y3746861D01*
X3739041Y3747891D01*
X3743189Y3748300D01*
X3803311Y3748300D01*
X3807459Y3747891D01*
G37*
G36*
X3649959Y3747891D02*
G01*
X3653357Y3746861D01*
X3656489Y3745187D01*
X3659234Y3742934D01*
X3661487Y3740189D01*
X3663161Y3737057D01*
X3664191Y3733659D01*
X3664600Y3729511D01*
X3664600Y3661889D01*
X3664191Y3657741D01*
X3663161Y3654343D01*
X3661487Y3651211D01*
X3659234Y3648466D01*
X3656489Y3646213D01*
X3653357Y3644539D01*
X3649959Y3643508D01*
X3645811Y3643100D01*
X3585689Y3643100D01*
X3581541Y3643508D01*
X3578143Y3644539D01*
X3575011Y3646213D01*
X3572266Y3648466D01*
X3570013Y3651211D01*
X3568339Y3654343D01*
X3567308Y3657741D01*
X3566900Y3661889D01*
X3566900Y3729511D01*
X3567308Y3733659D01*
X3568339Y3737057D01*
X3570013Y3740189D01*
X3572266Y3742934D01*
X3575011Y3745187D01*
X3578143Y3746861D01*
X3581541Y3747891D01*
X3585689Y3748300D01*
X3645811Y3748300D01*
X3649959Y3747891D01*
G37*
G36*
X2420459Y3747891D02*
G01*
X2423857Y3746861D01*
X2426989Y3745187D01*
X2429734Y3742934D01*
X2431987Y3740189D01*
X2433661Y3737057D01*
X2434692Y3733659D01*
X2435100Y3729511D01*
X2435100Y3661889D01*
X2434692Y3657741D01*
X2433661Y3654343D01*
X2431987Y3651211D01*
X2429734Y3648466D01*
X2426989Y3646213D01*
X2423857Y3644539D01*
X2420459Y3643508D01*
X2416311Y3643100D01*
X2356189Y3643100D01*
X2352041Y3643508D01*
X2348643Y3644539D01*
X2345511Y3646213D01*
X2342766Y3648466D01*
X2340513Y3651211D01*
X2338839Y3654343D01*
X2337809Y3657741D01*
X2337400Y3661889D01*
X2337400Y3729511D01*
X2337809Y3733659D01*
X2338839Y3737057D01*
X2340513Y3740189D01*
X2342766Y3742934D01*
X2345511Y3745187D01*
X2348643Y3746861D01*
X2352041Y3747891D01*
X2356189Y3748300D01*
X2416311Y3748300D01*
X2420459Y3747891D01*
G37*
G36*
X2577959Y3747891D02*
G01*
X2581357Y3746861D01*
X2584489Y3745187D01*
X2587234Y3742934D01*
X2589487Y3740189D01*
X2591161Y3737057D01*
X2592192Y3733659D01*
X2592600Y3729511D01*
X2592600Y3661889D01*
X2592192Y3657741D01*
X2591161Y3654343D01*
X2589487Y3651211D01*
X2587234Y3648466D01*
X2584489Y3646213D01*
X2581357Y3644539D01*
X2577959Y3643508D01*
X2573811Y3643100D01*
X2513689Y3643100D01*
X2509541Y3643508D01*
X2506143Y3644539D01*
X2503011Y3646213D01*
X2500266Y3648466D01*
X2498013Y3651211D01*
X2496339Y3654343D01*
X2495309Y3657741D01*
X2494900Y3661889D01*
X2494900Y3729511D01*
X2495309Y3733659D01*
X2496339Y3737057D01*
X2498013Y3740189D01*
X2500266Y3742934D01*
X2503011Y3745187D01*
X2506143Y3746861D01*
X2509541Y3747891D01*
X2513689Y3748300D01*
X2573811Y3748300D01*
X2577959Y3747891D01*
G37*
G36*
X5077459Y3747891D02*
G01*
X5080857Y3746861D01*
X5083989Y3745187D01*
X5086734Y3742934D01*
X5088987Y3740189D01*
X5090661Y3737057D01*
X5091692Y3733659D01*
X5092100Y3729511D01*
X5092100Y3661889D01*
X5091692Y3657741D01*
X5090661Y3654343D01*
X5088987Y3651211D01*
X5086734Y3648466D01*
X5083989Y3646213D01*
X5080857Y3644539D01*
X5077459Y3643508D01*
X5073311Y3643100D01*
X5013189Y3643100D01*
X5009041Y3643508D01*
X5005643Y3644539D01*
X5002511Y3646213D01*
X4999766Y3648466D01*
X4997513Y3651211D01*
X4995839Y3654343D01*
X4994809Y3657741D01*
X4994400Y3661889D01*
X4994400Y3729511D01*
X4994809Y3733659D01*
X4995839Y3737057D01*
X4997513Y3740189D01*
X4999766Y3742934D01*
X5002511Y3745187D01*
X5005643Y3746861D01*
X5009041Y3747891D01*
X5013189Y3748300D01*
X5073311Y3748300D01*
X5077459Y3747891D01*
G37*
G36*
X4919959Y3747891D02*
G01*
X4923357Y3746861D01*
X4926489Y3745187D01*
X4929234Y3742934D01*
X4931487Y3740189D01*
X4933161Y3737057D01*
X4934192Y3733659D01*
X4934600Y3729511D01*
X4934600Y3661889D01*
X4934192Y3657741D01*
X4933161Y3654343D01*
X4931487Y3651211D01*
X4929234Y3648466D01*
X4926489Y3646213D01*
X4923357Y3644539D01*
X4919959Y3643508D01*
X4915811Y3643100D01*
X4855689Y3643100D01*
X4851541Y3643508D01*
X4848143Y3644539D01*
X4845011Y3646213D01*
X4842266Y3648466D01*
X4840013Y3651211D01*
X4838339Y3654343D01*
X4837309Y3657741D01*
X4836900Y3661889D01*
X4836900Y3729511D01*
X4837309Y3733659D01*
X4838339Y3737057D01*
X4840013Y3740189D01*
X4842266Y3742934D01*
X4845011Y3745187D01*
X4848143Y3746861D01*
X4851541Y3747891D01*
X4855689Y3748300D01*
X4915811Y3748300D01*
X4919959Y3747891D01*
G37*
G36*
X6387959Y3747891D02*
G01*
X6391357Y3746861D01*
X6394489Y3745187D01*
X6397234Y3742934D01*
X6399487Y3740189D01*
X6401161Y3737057D01*
X6402191Y3733659D01*
X6402600Y3729511D01*
X6402600Y3661889D01*
X6402191Y3657741D01*
X6401161Y3654343D01*
X6399487Y3651211D01*
X6397234Y3648466D01*
X6394489Y3646213D01*
X6391357Y3644539D01*
X6387959Y3643508D01*
X6383811Y3643100D01*
X6323689Y3643100D01*
X6319541Y3643508D01*
X6316143Y3644539D01*
X6313011Y3646213D01*
X6310266Y3648466D01*
X6308013Y3651211D01*
X6306339Y3654343D01*
X6305308Y3657741D01*
X6304900Y3661889D01*
X6304900Y3729511D01*
X6305308Y3733659D01*
X6306339Y3737057D01*
X6308013Y3740189D01*
X6310266Y3742934D01*
X6313011Y3745187D01*
X6316143Y3746861D01*
X6319541Y3747891D01*
X6323689Y3748300D01*
X6383811Y3748300D01*
X6387959Y3747891D01*
G37*
G36*
X774720Y3663930D02*
G01*
X673080Y3663930D01*
X673080Y3854470D01*
X774720Y3854470D01*
X774720Y3663930D01*
G37*
G36*
X1320820Y3663930D02*
G01*
X1219180Y3663930D01*
X1219180Y3854470D01*
X1320820Y3854470D01*
X1320820Y3663930D01*
G37*
G36*
X495320Y3663930D02*
G01*
X393680Y3663930D01*
X393680Y3854470D01*
X495320Y3854470D01*
X495320Y3663930D01*
G37*
G36*
X1600220Y3663930D02*
G01*
X1498580Y3663930D01*
X1498580Y3854470D01*
X1600220Y3854470D01*
X1600220Y3663930D01*
G37*
G36*
X5987000Y3721600D02*
G01*
X5824000Y3721600D01*
X5824000Y3796800D01*
X5987000Y3796800D01*
X5987000Y3721600D01*
G37*
G36*
X5444800Y3721600D02*
G01*
X5281800Y3721600D01*
X5281800Y3796800D01*
X5444800Y3796800D01*
X5444800Y3721600D01*
G37*
G36*
X3417700Y3721600D02*
G01*
X3254700Y3721600D01*
X3254700Y3796800D01*
X3417700Y3796800D01*
X3417700Y3721600D01*
G37*
G36*
X2875500Y3721600D02*
G01*
X2712500Y3721600D01*
X2712500Y3796800D01*
X2875500Y3796800D01*
X2875500Y3721600D01*
G37*
G36*
X3649959Y3938391D02*
G01*
X3653357Y3937361D01*
X3656489Y3935687D01*
X3659234Y3933434D01*
X3661487Y3930689D01*
X3663161Y3927557D01*
X3664191Y3924159D01*
X3664600Y3920011D01*
X3664600Y3852389D01*
X3664191Y3848241D01*
X3663161Y3844843D01*
X3661487Y3841711D01*
X3659234Y3838966D01*
X3656489Y3836713D01*
X3653357Y3835039D01*
X3649959Y3834008D01*
X3645811Y3833600D01*
X3585689Y3833600D01*
X3581541Y3834008D01*
X3578143Y3835039D01*
X3575011Y3836713D01*
X3572266Y3838966D01*
X3570013Y3841711D01*
X3568339Y3844843D01*
X3567308Y3848241D01*
X3566900Y3852389D01*
X3566900Y3920011D01*
X3567308Y3924159D01*
X3568339Y3927557D01*
X3570013Y3930689D01*
X3572266Y3933434D01*
X3575011Y3935687D01*
X3578143Y3937361D01*
X3581541Y3938391D01*
X3585689Y3938800D01*
X3645811Y3938800D01*
X3649959Y3938391D01*
G37*
G36*
X3807459Y3938391D02*
G01*
X3810857Y3937361D01*
X3813989Y3935687D01*
X3816734Y3933434D01*
X3818987Y3930689D01*
X3820661Y3927557D01*
X3821691Y3924159D01*
X3822100Y3920011D01*
X3822100Y3852389D01*
X3821691Y3848241D01*
X3820661Y3844843D01*
X3818987Y3841711D01*
X3816734Y3838966D01*
X3813989Y3836713D01*
X3810857Y3835039D01*
X3807459Y3834008D01*
X3803311Y3833600D01*
X3743189Y3833600D01*
X3739041Y3834008D01*
X3735643Y3835039D01*
X3732511Y3836713D01*
X3729766Y3838966D01*
X3727513Y3841711D01*
X3725839Y3844843D01*
X3724808Y3848241D01*
X3724400Y3852389D01*
X3724400Y3920011D01*
X3724808Y3924159D01*
X3725839Y3927557D01*
X3727513Y3930689D01*
X3729766Y3933434D01*
X3732511Y3935687D01*
X3735643Y3937361D01*
X3739041Y3938391D01*
X3743189Y3938800D01*
X3803311Y3938800D01*
X3807459Y3938391D01*
G37*
G36*
X6387959Y3938391D02*
G01*
X6391357Y3937361D01*
X6394489Y3935687D01*
X6397234Y3933434D01*
X6399487Y3930689D01*
X6401161Y3927557D01*
X6402191Y3924159D01*
X6402600Y3920011D01*
X6402600Y3852389D01*
X6402191Y3848241D01*
X6401161Y3844843D01*
X6399487Y3841711D01*
X6397234Y3838966D01*
X6394489Y3836713D01*
X6391357Y3835039D01*
X6387959Y3834008D01*
X6383811Y3833600D01*
X6323689Y3833600D01*
X6319541Y3834008D01*
X6316143Y3835039D01*
X6313011Y3836713D01*
X6310266Y3838966D01*
X6308013Y3841711D01*
X6306339Y3844843D01*
X6305308Y3848241D01*
X6304900Y3852389D01*
X6304900Y3920011D01*
X6305308Y3924159D01*
X6306339Y3927557D01*
X6308013Y3930689D01*
X6310266Y3933434D01*
X6313011Y3935687D01*
X6316143Y3937361D01*
X6319541Y3938391D01*
X6323689Y3938800D01*
X6383811Y3938800D01*
X6387959Y3938391D01*
G37*
G36*
X6230459Y3938391D02*
G01*
X6233857Y3937361D01*
X6236989Y3935687D01*
X6239734Y3933434D01*
X6241987Y3930689D01*
X6243661Y3927557D01*
X6244691Y3924159D01*
X6245100Y3920011D01*
X6245100Y3852389D01*
X6244691Y3848241D01*
X6243661Y3844843D01*
X6241987Y3841711D01*
X6239734Y3838966D01*
X6236989Y3836713D01*
X6233857Y3835039D01*
X6230459Y3834008D01*
X6226311Y3833600D01*
X6166189Y3833600D01*
X6162041Y3834008D01*
X6158643Y3835039D01*
X6155511Y3836713D01*
X6152766Y3838966D01*
X6150513Y3841711D01*
X6148839Y3844843D01*
X6147808Y3848241D01*
X6147400Y3852389D01*
X6147400Y3920011D01*
X6147808Y3924159D01*
X6148839Y3927557D01*
X6150513Y3930689D01*
X6152766Y3933434D01*
X6155511Y3935687D01*
X6158643Y3937361D01*
X6162041Y3938391D01*
X6166189Y3938800D01*
X6226311Y3938800D01*
X6230459Y3938391D01*
G37*
G36*
X5077459Y3938391D02*
G01*
X5080857Y3937361D01*
X5083989Y3935687D01*
X5086734Y3933434D01*
X5088987Y3930689D01*
X5090661Y3927557D01*
X5091692Y3924159D01*
X5092100Y3920011D01*
X5092100Y3852389D01*
X5091692Y3848241D01*
X5090661Y3844843D01*
X5088987Y3841711D01*
X5086734Y3838966D01*
X5083989Y3836713D01*
X5080857Y3835039D01*
X5077459Y3834008D01*
X5073311Y3833600D01*
X5013189Y3833600D01*
X5009041Y3834008D01*
X5005643Y3835039D01*
X5002511Y3836713D01*
X4999766Y3838966D01*
X4997513Y3841711D01*
X4995839Y3844843D01*
X4994809Y3848241D01*
X4994400Y3852389D01*
X4994400Y3920011D01*
X4994809Y3924159D01*
X4995839Y3927557D01*
X4997513Y3930689D01*
X4999766Y3933434D01*
X5002511Y3935687D01*
X5005643Y3937361D01*
X5009041Y3938391D01*
X5013189Y3938800D01*
X5073311Y3938800D01*
X5077459Y3938391D01*
G37*
G36*
X2577959Y3938391D02*
G01*
X2581357Y3937361D01*
X2584489Y3935687D01*
X2587234Y3933434D01*
X2589487Y3930689D01*
X2591161Y3927557D01*
X2592192Y3924159D01*
X2592600Y3920011D01*
X2592600Y3852389D01*
X2592192Y3848241D01*
X2591161Y3844843D01*
X2589487Y3841711D01*
X2587234Y3838966D01*
X2584489Y3836713D01*
X2581357Y3835039D01*
X2577959Y3834008D01*
X2573811Y3833600D01*
X2513689Y3833600D01*
X2509541Y3834008D01*
X2506143Y3835039D01*
X2503011Y3836713D01*
X2500266Y3838966D01*
X2498013Y3841711D01*
X2496339Y3844843D01*
X2495309Y3848241D01*
X2494900Y3852389D01*
X2494900Y3920011D01*
X2495309Y3924159D01*
X2496339Y3927557D01*
X2498013Y3930689D01*
X2500266Y3933434D01*
X2503011Y3935687D01*
X2506143Y3937361D01*
X2509541Y3938391D01*
X2513689Y3938800D01*
X2573811Y3938800D01*
X2577959Y3938391D01*
G37*
G36*
X4919959Y3938391D02*
G01*
X4923357Y3937361D01*
X4926489Y3935687D01*
X4929234Y3933434D01*
X4931487Y3930689D01*
X4933161Y3927557D01*
X4934192Y3924159D01*
X4934600Y3920011D01*
X4934600Y3852389D01*
X4934192Y3848241D01*
X4933161Y3844843D01*
X4931487Y3841711D01*
X4929234Y3838966D01*
X4926489Y3836713D01*
X4923357Y3835039D01*
X4919959Y3834008D01*
X4915811Y3833600D01*
X4855689Y3833600D01*
X4851541Y3834008D01*
X4848143Y3835039D01*
X4845011Y3836713D01*
X4842266Y3838966D01*
X4840013Y3841711D01*
X4838339Y3844843D01*
X4837309Y3848241D01*
X4836900Y3852389D01*
X4836900Y3920011D01*
X4837309Y3924159D01*
X4838339Y3927557D01*
X4840013Y3930689D01*
X4842266Y3933434D01*
X4845011Y3935687D01*
X4848143Y3937361D01*
X4851541Y3938391D01*
X4855689Y3938800D01*
X4915811Y3938800D01*
X4919959Y3938391D01*
G37*
G36*
X2420459Y3938391D02*
G01*
X2423857Y3937361D01*
X2426989Y3935687D01*
X2429734Y3933434D01*
X2431987Y3930689D01*
X2433661Y3927557D01*
X2434692Y3924159D01*
X2435100Y3920011D01*
X2435100Y3852389D01*
X2434692Y3848241D01*
X2433661Y3844843D01*
X2431987Y3841711D01*
X2429734Y3838966D01*
X2426989Y3836713D01*
X2423857Y3835039D01*
X2420459Y3834008D01*
X2416311Y3833600D01*
X2356189Y3833600D01*
X2352041Y3834008D01*
X2348643Y3835039D01*
X2345511Y3836713D01*
X2342766Y3838966D01*
X2340513Y3841711D01*
X2338839Y3844843D01*
X2337809Y3848241D01*
X2337400Y3852389D01*
X2337400Y3920011D01*
X2337809Y3924159D01*
X2338839Y3927557D01*
X2340513Y3930689D01*
X2342766Y3933434D01*
X2345511Y3935687D01*
X2348643Y3937361D01*
X2352041Y3938391D01*
X2356189Y3938800D01*
X2416311Y3938800D01*
X2420459Y3938391D01*
G37*
G36*
X2875500Y3848600D02*
G01*
X2712500Y3848600D01*
X2712500Y3923800D01*
X2875500Y3923800D01*
X2875500Y3848600D01*
G37*
G36*
X3417700Y3848600D02*
G01*
X3254700Y3848600D01*
X3254700Y3923800D01*
X3417700Y3923800D01*
X3417700Y3848600D01*
G37*
G36*
X5444800Y3848600D02*
G01*
X5281800Y3848600D01*
X5281800Y3923800D01*
X5444800Y3923800D01*
X5444800Y3848600D01*
G37*
G36*
X5987000Y3848600D02*
G01*
X5824000Y3848600D01*
X5824000Y3923800D01*
X5987000Y3923800D01*
X5987000Y3848600D01*
G37*
G36*
X5987000Y3975600D02*
G01*
X5824000Y3975600D01*
X5824000Y4050800D01*
X5987000Y4050800D01*
X5987000Y3975600D01*
G37*
G36*
X2875500Y3975600D02*
G01*
X2712500Y3975600D01*
X2712500Y4050800D01*
X2875500Y4050800D01*
X2875500Y3975600D01*
G37*
G36*
X3417700Y3975600D02*
G01*
X3254700Y3975600D01*
X3254700Y4050800D01*
X3417700Y4050800D01*
X3417700Y3975600D01*
G37*
G36*
X5444800Y3975600D02*
G01*
X5281800Y3975600D01*
X5281800Y4050800D01*
X5444800Y4050800D01*
X5444800Y3975600D01*
G37*
G36*
X4947200Y4034300D02*
G01*
X4842000Y4034300D01*
X4842000Y4144500D01*
X4947200Y4144500D01*
X4947200Y4034300D01*
G37*
G36*
X5107200Y4034300D02*
G01*
X5002000Y4034300D01*
X5002000Y4144500D01*
X5107200Y4144500D01*
X5107200Y4034300D01*
G37*
G36*
X1569100Y4079100D02*
G01*
X1308900Y4079100D01*
X1308900Y4209300D01*
X1569100Y4209300D01*
X1569100Y4079100D01*
G37*
G36*
X1019100Y4079100D02*
G01*
X758900Y4079100D01*
X758900Y4209300D01*
X1019100Y4209300D01*
X1019100Y4079100D01*
G37*
G36*
X2516400Y4085100D02*
G01*
X2411200Y4085100D01*
X2411200Y4195300D01*
X2516400Y4195300D01*
X2516400Y4085100D01*
G37*
G36*
X2356400Y4085100D02*
G01*
X2251200Y4085100D01*
X2251200Y4195300D01*
X2356400Y4195300D01*
X2356400Y4085100D01*
G37*
G36*
X539770Y4127480D02*
G01*
X349230Y4127480D01*
X349230Y4229120D01*
X539770Y4229120D01*
X539770Y4127480D01*
G37*
G36*
X1019100Y4329100D02*
G01*
X758900Y4329100D01*
X758900Y4459300D01*
X1019100Y4459300D01*
X1019100Y4329100D01*
G37*
G36*
X1569100Y4329100D02*
G01*
X1308900Y4329100D01*
X1308900Y4459300D01*
X1569100Y4459300D01*
X1569100Y4329100D01*
G37*
G36*
X539770Y4406880D02*
G01*
X349230Y4406880D01*
X349230Y4508520D01*
X539770Y4508520D01*
X539770Y4406880D01*
G37*
G36*
X5810100Y4849300D02*
G01*
X5810340Y4846861D01*
X5811051Y4844516D01*
X5812207Y4842355D01*
X5813761Y4840461D01*
X5815655Y4838907D01*
X5817816Y4837752D01*
X5820161Y4837040D01*
X5822600Y4836800D01*
X5840100Y4836800D01*
X5840100Y4819300D01*
X5840340Y4816861D01*
X5841051Y4814516D01*
X5842207Y4812355D01*
X5843761Y4810461D01*
X5845655Y4808907D01*
X5847816Y4807752D01*
X5850161Y4807040D01*
X5852600Y4806800D01*
X5957600Y4806800D01*
X5957600Y4616600D01*
X5852600Y4616600D01*
X5850161Y4616360D01*
X5847816Y4615649D01*
X5845655Y4614493D01*
X5843761Y4612939D01*
X5842207Y4611045D01*
X5841051Y4608884D01*
X5840340Y4606539D01*
X5840100Y4604100D01*
X5840100Y4586600D01*
X5822600Y4586600D01*
X5820161Y4586360D01*
X5817816Y4585649D01*
X5815655Y4584493D01*
X5813761Y4582939D01*
X5812207Y4581045D01*
X5811051Y4578884D01*
X5810340Y4576539D01*
X5810100Y4574100D01*
X5810100Y4469100D01*
X5619900Y4469100D01*
X5619900Y4574100D01*
X5619660Y4576539D01*
X5618948Y4578884D01*
X5617793Y4581045D01*
X5616239Y4582939D01*
X5614345Y4584493D01*
X5612184Y4585649D01*
X5609839Y4586360D01*
X5607400Y4586600D01*
X5589900Y4586600D01*
X5589900Y4604100D01*
X5589660Y4606539D01*
X5588949Y4608884D01*
X5587793Y4611045D01*
X5586239Y4612939D01*
X5584345Y4614493D01*
X5582184Y4615649D01*
X5579839Y4616360D01*
X5577400Y4616600D01*
X5472400Y4616600D01*
X5472400Y4806800D01*
X5577400Y4806800D01*
X5579839Y4807040D01*
X5582184Y4807752D01*
X5584345Y4808907D01*
X5586239Y4810461D01*
X5587793Y4812355D01*
X5588949Y4814516D01*
X5589660Y4816861D01*
X5589900Y4819300D01*
X5589900Y4836800D01*
X5607400Y4836800D01*
X5609839Y4837040D01*
X5612184Y4837752D01*
X5614345Y4838907D01*
X5616239Y4840461D01*
X5617793Y4842355D01*
X5618948Y4844516D01*
X5619660Y4846861D01*
X5619900Y4849300D01*
X5619900Y4954300D01*
X5810100Y4954300D01*
X5810100Y4849300D01*
G37*
G36*
X1019100Y4579100D02*
G01*
X758900Y4579100D01*
X758900Y4709300D01*
X1019100Y4709300D01*
X1019100Y4579100D01*
G37*
G36*
X1569100Y4579100D02*
G01*
X1308900Y4579100D01*
X1308900Y4709300D01*
X1569100Y4709300D01*
X1569100Y4579100D01*
G37*
G36*
X5135100Y4613400D02*
G01*
X5024900Y4613400D01*
X5024900Y4718600D01*
X5135100Y4718600D01*
X5135100Y4613400D01*
G37*
G36*
X5135100Y4773400D02*
G01*
X5024900Y4773400D01*
X5024900Y4878600D01*
X5135100Y4878600D01*
X5135100Y4773400D01*
G37*
G36*
X4540100Y5420800D02*
G01*
X4540340Y5418361D01*
X4541052Y5416016D01*
X4542207Y5413855D01*
X4543761Y5411961D01*
X4545655Y5410407D01*
X4547816Y5409252D01*
X4550161Y5408540D01*
X4552600Y5408300D01*
X4570100Y5408300D01*
X4570100Y5390800D01*
X4570340Y5388361D01*
X4571052Y5386016D01*
X4572207Y5383855D01*
X4573761Y5381961D01*
X4575655Y5380407D01*
X4577816Y5379252D01*
X4580161Y5378540D01*
X4582600Y5378300D01*
X4687600Y5378300D01*
X4687600Y5188100D01*
X4582600Y5188100D01*
X4580161Y5187860D01*
X4577816Y5187149D01*
X4575655Y5185993D01*
X4573761Y5184439D01*
X4572207Y5182545D01*
X4571052Y5180384D01*
X4570340Y5178039D01*
X4570100Y5175600D01*
X4570100Y5158100D01*
X4552600Y5158100D01*
X4550161Y5157860D01*
X4547816Y5157149D01*
X4545655Y5155993D01*
X4543761Y5154439D01*
X4542207Y5152545D01*
X4541052Y5150384D01*
X4540340Y5148039D01*
X4540100Y5145600D01*
X4540100Y5040600D01*
X4349900Y5040600D01*
X4349900Y5145600D01*
X4349660Y5148039D01*
X4348949Y5150384D01*
X4347793Y5152545D01*
X4346239Y5154439D01*
X4344345Y5155993D01*
X4342184Y5157149D01*
X4339839Y5157860D01*
X4337400Y5158100D01*
X4319900Y5158100D01*
X4319900Y5175600D01*
X4319660Y5178039D01*
X4318949Y5180384D01*
X4317793Y5182545D01*
X4316239Y5184439D01*
X4314345Y5185993D01*
X4312184Y5187149D01*
X4309839Y5187860D01*
X4307400Y5188100D01*
X4202400Y5188100D01*
X4202400Y5378300D01*
X4307400Y5378300D01*
X4309839Y5378540D01*
X4312184Y5379252D01*
X4314345Y5380407D01*
X4316239Y5381961D01*
X4317793Y5383855D01*
X4318949Y5386016D01*
X4319660Y5388361D01*
X4319900Y5390800D01*
X4319900Y5408300D01*
X4337400Y5408300D01*
X4339839Y5408540D01*
X4342184Y5409252D01*
X4344345Y5410407D01*
X4346239Y5411961D01*
X4347793Y5413855D01*
X4348949Y5416016D01*
X4349660Y5418361D01*
X4349900Y5420800D01*
X4349900Y5525800D01*
X4540100Y5525800D01*
X4540100Y5420800D01*
G37*
G36*
X3788900Y5121400D02*
G01*
X3678700Y5121400D01*
X3678700Y5226600D01*
X3788900Y5226600D01*
X3788900Y5121400D01*
G37*
G36*
X3788900Y5281400D02*
G01*
X3678700Y5281400D01*
X3678700Y5386600D01*
X3788900Y5386600D01*
X3788900Y5281400D01*
G37*
G36*
X729910Y6441164D02*
G01*
X742394Y6435993D01*
X742394Y6435992D01*
X753630Y6428485D01*
X763185Y6418930D01*
X770693Y6407694D01*
X775864Y6395210D01*
X778500Y6381957D01*
X778500Y6368443D01*
X775864Y6355190D01*
X770693Y6342706D01*
X770692Y6342706D01*
X763185Y6331470D01*
X753630Y6321915D01*
X742394Y6314407D01*
X742394Y6314407D01*
X742394Y6314407D01*
X729910Y6309236D01*
X716657Y6306600D01*
X703143Y6306600D01*
X689890Y6309236D01*
X677406Y6314407D01*
X677406Y6314407D01*
X677406Y6314407D01*
X666170Y6321915D01*
X656615Y6331470D01*
X649108Y6342706D01*
X649107Y6342706D01*
X643936Y6355190D01*
X641300Y6368443D01*
X641300Y6381957D01*
X643936Y6395210D01*
X649107Y6407694D01*
X656615Y6418930D01*
X666170Y6428485D01*
X677406Y6435992D01*
X677406Y6435993D01*
X689890Y6441164D01*
X703143Y6443800D01*
X716657Y6443800D01*
X729910Y6441164D01*
G37*
G36*
X6167910Y6746164D02*
G01*
X6180394Y6740993D01*
X6180394Y6740992D01*
X6191630Y6733485D01*
X6201185Y6723930D01*
X6208693Y6712694D01*
X6213864Y6700210D01*
X6216500Y6686957D01*
X6216500Y6673443D01*
X6213864Y6660190D01*
X6208693Y6647706D01*
X6208692Y6647706D01*
X6201185Y6636470D01*
X6191630Y6626915D01*
X6180394Y6619407D01*
X6180394Y6619407D01*
X6180394Y6619407D01*
X6167910Y6614236D01*
X6154657Y6611600D01*
X6141143Y6611600D01*
X6127890Y6614236D01*
X6115406Y6619407D01*
X6115406Y6619407D01*
X6115406Y6619407D01*
X6104170Y6626915D01*
X6094615Y6636470D01*
X6087107Y6647706D01*
X6087107Y6647706D01*
X6081936Y6660190D01*
X6079300Y6673443D01*
X6079300Y6686957D01*
X6081936Y6700210D01*
X6087107Y6712694D01*
X6094615Y6723930D01*
X6104170Y6733485D01*
X6115406Y6740992D01*
X6115406Y6740993D01*
X6127890Y6746164D01*
X6141143Y6748800D01*
X6154657Y6748800D01*
X6167910Y6746164D01*
G37*
M02*
