M48
; DRILL file {KiCad (5.1.5-0-10_14)} date Friday, 10 January 2020 at 14:26:42
; FORMAT={-:-/ absolute / inch / decimal}
; #@! TF.CreationDate,2020-01-10T14:26:42+01:00
; #@! TF.GenerationSoftware,Kicad,Pcbnew,(5.1.5-0-10_14)
FMAT,2
INCH
T1C0.0157
T2C0.0524
T3C0.0500
%
G90
G05
T1
X0.125Y1.48
X0.175Y1.83
X0.25Y1.83
X0.25Y1.73
X0.36Y0.52
X0.375Y2.83
X0.4Y0.52
X0.4Y0.52
X0.4241Y1.4059
X0.44Y0.52
X0.45Y1.48
X0.45Y1.005
X0.475Y2.63
X0.48Y0.52
X0.52Y0.52
X0.55Y2.23
X0.55Y1.98
X0.56Y0.52
X0.6Y0.52
X0.625Y1.93
X0.67Y0.52
X0.6734Y1.7316
X0.675Y2.28
X0.675Y1.905
X0.71Y0.95
X0.7181Y0.5181
X0.725Y2.28
X0.725Y1.905
X0.725Y1.405
X0.76Y0.52
X0.775Y2.28
X0.775Y1.905
X0.8Y0.52
X0.825Y2.28
X0.825Y1.905
X0.86Y1.57
X0.875Y1.53
X0.875Y1.455
X0.975Y2.155
X0.975Y2.105
X0.975Y2.055
X0.975Y2.005
X1.0Y2.83
X1.0Y1.38
X1.05Y2.83
X1.05Y0.09
X1.0551Y1.7351
X1.06Y1.9999
X1.1Y1.68
X1.15Y2.63
X1.175Y2.055
X1.175Y1.68
X1.2Y2.63
X1.225Y2.055
X1.225Y1.68
X1.25Y2.83
X1.275Y2.055
X1.275Y1.68
X1.29Y0.31
X1.3Y2.79
X1.3Y2.63
X1.3Y2.63
X1.325Y2.055
X1.325Y1.68
X1.35Y2.63
X1.35Y2.63
X1.38Y1.5
X1.4Y2.63
X1.4Y1.405
X1.4Y0.31
X1.45Y2.83
X1.45Y2.63
X1.45Y1.93
X1.45Y1.88
X1.45Y1.83
X1.45Y1.78
X1.4594Y1.59
X1.475Y2.205
X1.475Y1.98
X1.49Y2.8
X1.55Y2.63
X1.55Y1.53
X1.55Y1.455
X1.575Y2.105
X1.575Y2.055
X1.6Y2.83
X1.6Y2.63
X1.65Y2.83
X1.675Y2.28
X1.675Y1.905
X1.7Y2.63
X1.725Y2.28
X1.725Y1.905
X1.75Y2.63
X1.775Y2.28
X1.775Y1.905
X1.78Y1.45
X1.8Y2.83
X1.825Y2.28
X1.825Y1.905
X1.85Y2.83
X1.85Y1.53
X1.85Y1.455
X1.9Y2.63
X1.9Y0.56
X1.925Y2.155
X1.925Y2.105
X1.925Y2.055
X1.925Y2.005
X1.95Y2.63
X1.95Y0.56
X1.99Y1.4
X1.99Y0.56
X2.0Y1.98
X2.0Y1.73
X2.03Y0.56
X2.04Y1.56
X2.07Y0.56
X2.075Y1.88
X2.075Y1.83
X2.11Y0.85
X2.11Y0.56
X2.12Y1.09
X2.125Y1.23
X2.1476Y1.3676
X2.15Y0.56
X2.175Y2.055
X2.175Y1.68
X2.1787Y0.5187
X2.2181Y0.5181
X2.225Y2.055
X2.225Y1.68
X2.25Y1.34
X2.25Y0.63
X2.275Y2.055
X2.275Y1.68
X2.28Y0.52
X2.3Y1.34
X2.3Y0.63
X2.32Y0.52
X2.325Y2.055
X2.325Y1.68
X2.35Y2.83
X2.375Y2.455
X2.4Y1.405
X2.4Y0.63
X2.425Y1.93
X2.425Y1.88
X2.425Y1.83
X2.425Y1.78
X2.425Y1.305
X2.4409Y1.6791
X2.45Y0.63
X2.55Y0.63
X2.575Y1.53
X2.575Y1.455
T2
X1.7811Y0.1393
X1.8047Y0.3322
X2.3756Y0.3322
X2.3992Y0.1393
X0.2811Y0.1393
X0.3047Y0.3322
X0.8756Y0.3322
X0.8992Y0.1393
T3
X0.2795Y2.5099
X2.4204Y2.63
T0
M30
