%TF.GenerationSoftware,KiCad,Pcbnew,(5.1.5-0-10_14)*%
%TF.CreationDate,2020-01-10T14:35:19+01:00*%
%TF.ProjectId,adapter_hybrid_assister,61646170-7465-4725-9f68-79627269645f,rev?*%
%TF.SameCoordinates,PX6312cb0PY8accb70*%
%TF.FileFunction,Soldermask,Top*%
%TF.FilePolarity,Negative*%
%FSLAX45Y45*%
G04 Gerber Fmt 4.5, Leading zero omitted, Abs format (unit mm)*
G04 Created by KiCad (PCBNEW (5.1.5-0-10_14)) date 2020-01-10 14:35:19*
%MOMM*%
%LPD*%
G04 APERTURE LIST*
%TA.AperFunction,Profile*%
%ADD10C,0.050000*%
%TD*%
%TA.AperFunction,Profile*%
%ADD11C,0.100000*%
%TD*%
%ADD12C,0.100000*%
G04 APERTURE END LIST*
D10*
X6713533Y7493000D02*
G75*
G03X6713533Y7493000I-33333J0D01*
G01*
X6630200Y7493000D02*
X6730200Y7493000D01*
X6680200Y7543000D02*
X6680200Y7443000D01*
X236533Y203200D02*
G75*
G03X236533Y203200I-33333J0D01*
G01*
X153200Y203200D02*
X253200Y203200D01*
X203200Y253200D02*
X203200Y153200D01*
X454800Y584200D02*
G75*
G03X454800Y584200I-150000J0D01*
G01*
X6703200Y584200D02*
G75*
G03X6703200Y584200I-150000J0D01*
G01*
X0Y0D02*
X0Y7670800D01*
X6858000Y7670800D02*
X6858000Y0D01*
D11*
X0Y7670800D02*
X6858000Y7670800D01*
X6858000Y0D02*
X0Y0D01*
D12*
G36*
X3910700Y128500D02*
G01*
X3670500Y128500D01*
X3670500Y328700D01*
X3910700Y328700D01*
X3910700Y128500D01*
G37*
G36*
X3625700Y128500D02*
G01*
X3435500Y128500D01*
X3435500Y328700D01*
X3625700Y328700D01*
X3625700Y128500D01*
G37*
G36*
X3395700Y128500D02*
G01*
X3205500Y128500D01*
X3205500Y328700D01*
X3395700Y328700D01*
X3395700Y128500D01*
G37*
G36*
X3160700Y128500D02*
G01*
X2920500Y128500D01*
X2920500Y328700D01*
X3160700Y328700D01*
X3160700Y128500D01*
G37*
G36*
X6117731Y455964D02*
G01*
X6124484Y454621D01*
X6143565Y446717D01*
X6160738Y435242D01*
X6175342Y420638D01*
X6186817Y403465D01*
X6194721Y384384D01*
X6198750Y364127D01*
X6198750Y343473D01*
X6194721Y323216D01*
X6186817Y304135D01*
X6175342Y286962D01*
X6160738Y272358D01*
X6143565Y260883D01*
X6124484Y252979D01*
X6117731Y251636D01*
X6104227Y248950D01*
X6083573Y248950D01*
X6070069Y251636D01*
X6063316Y252979D01*
X6044235Y260883D01*
X6027062Y272358D01*
X6012458Y286962D01*
X6000983Y304135D01*
X5993079Y323216D01*
X5989050Y343473D01*
X5989050Y364127D01*
X5993079Y384384D01*
X6000983Y403465D01*
X6012458Y420638D01*
X6027062Y435242D01*
X6044235Y446717D01*
X6063316Y454621D01*
X6070069Y455964D01*
X6083573Y458650D01*
X6104227Y458650D01*
X6117731Y455964D01*
G37*
G36*
X4547731Y455964D02*
G01*
X4554484Y454621D01*
X4573565Y446717D01*
X4590738Y435242D01*
X4605342Y420638D01*
X4616817Y403465D01*
X4624721Y384384D01*
X4628750Y364127D01*
X4628750Y343473D01*
X4624721Y323216D01*
X4616817Y304135D01*
X4605342Y286962D01*
X4590738Y272358D01*
X4573565Y260883D01*
X4554484Y252979D01*
X4547731Y251636D01*
X4534227Y248950D01*
X4513573Y248950D01*
X4500069Y251636D01*
X4493316Y252979D01*
X4474235Y260883D01*
X4457062Y272358D01*
X4442458Y286962D01*
X4430983Y304135D01*
X4423079Y323216D01*
X4419050Y343473D01*
X4419050Y364127D01*
X4423079Y384384D01*
X4430983Y403465D01*
X4442458Y420638D01*
X4457062Y435242D01*
X4474235Y446717D01*
X4493316Y454621D01*
X4500069Y455964D01*
X4513573Y458650D01*
X4534227Y458650D01*
X4547731Y455964D01*
G37*
G36*
X2307731Y455964D02*
G01*
X2314484Y454621D01*
X2333565Y446717D01*
X2350738Y435242D01*
X2365342Y420638D01*
X2376817Y403465D01*
X2384721Y384384D01*
X2388750Y364127D01*
X2388750Y343473D01*
X2384721Y323216D01*
X2376817Y304135D01*
X2365342Y286962D01*
X2350738Y272358D01*
X2333565Y260883D01*
X2314484Y252979D01*
X2307731Y251636D01*
X2294227Y248950D01*
X2273573Y248950D01*
X2260069Y251636D01*
X2253316Y252979D01*
X2234235Y260883D01*
X2217062Y272358D01*
X2202458Y286962D01*
X2190983Y304135D01*
X2183079Y323216D01*
X2179050Y343473D01*
X2179050Y364127D01*
X2183079Y384384D01*
X2190983Y403465D01*
X2202458Y420638D01*
X2217062Y435242D01*
X2234235Y446717D01*
X2253316Y454621D01*
X2260069Y455964D01*
X2273573Y458650D01*
X2294227Y458650D01*
X2307731Y455964D01*
G37*
G36*
X737731Y455964D02*
G01*
X744484Y454621D01*
X763565Y446717D01*
X780738Y435242D01*
X795342Y420638D01*
X806817Y403465D01*
X814721Y384384D01*
X818750Y364127D01*
X818750Y343473D01*
X814721Y323216D01*
X806817Y304135D01*
X795342Y286962D01*
X780738Y272358D01*
X763565Y260883D01*
X744484Y252979D01*
X737731Y251636D01*
X724227Y248950D01*
X703573Y248950D01*
X690069Y251636D01*
X683316Y252979D01*
X664235Y260883D01*
X647062Y272358D01*
X632458Y286962D01*
X620983Y304135D01*
X613079Y323216D01*
X609050Y343473D01*
X609050Y364127D01*
X613079Y384384D01*
X620983Y403465D01*
X632458Y420638D01*
X647062Y435242D01*
X664235Y446717D01*
X683316Y454621D01*
X690069Y455964D01*
X703573Y458650D01*
X724227Y458650D01*
X737731Y455964D01*
G37*
G36*
X3570700Y438500D02*
G01*
X3260500Y438500D01*
X3260500Y588700D01*
X3570700Y588700D01*
X3570700Y438500D01*
G37*
G36*
X6057731Y945964D02*
G01*
X6064484Y944621D01*
X6083565Y936717D01*
X6100738Y925242D01*
X6115342Y910638D01*
X6126817Y893465D01*
X6134721Y874384D01*
X6138750Y854127D01*
X6138750Y833473D01*
X6134721Y813216D01*
X6126817Y794135D01*
X6115342Y776962D01*
X6100738Y762358D01*
X6083565Y750883D01*
X6064484Y742979D01*
X6057731Y741636D01*
X6044227Y738950D01*
X6023573Y738950D01*
X6010069Y741636D01*
X6003316Y742979D01*
X5984235Y750883D01*
X5967062Y762358D01*
X5952458Y776962D01*
X5940983Y794135D01*
X5933079Y813216D01*
X5929050Y833473D01*
X5929050Y854127D01*
X5933079Y874384D01*
X5940983Y893465D01*
X5952458Y910638D01*
X5967062Y925242D01*
X5984235Y936717D01*
X6003316Y944621D01*
X6010069Y945964D01*
X6023573Y948650D01*
X6044227Y948650D01*
X6057731Y945964D01*
G37*
G36*
X4607731Y945964D02*
G01*
X4614484Y944621D01*
X4633565Y936717D01*
X4650738Y925242D01*
X4665342Y910638D01*
X4676817Y893465D01*
X4684721Y874384D01*
X4688750Y854127D01*
X4688750Y833473D01*
X4684721Y813216D01*
X4676817Y794135D01*
X4665342Y776962D01*
X4650738Y762358D01*
X4633565Y750883D01*
X4614484Y742979D01*
X4607731Y741636D01*
X4594227Y738950D01*
X4573573Y738950D01*
X4560069Y741636D01*
X4553316Y742979D01*
X4534235Y750883D01*
X4517062Y762358D01*
X4502458Y776962D01*
X4490983Y794135D01*
X4483079Y813216D01*
X4479050Y833473D01*
X4479050Y854127D01*
X4483079Y874384D01*
X4490983Y893465D01*
X4502458Y910638D01*
X4517062Y925242D01*
X4534235Y936717D01*
X4553316Y944621D01*
X4560069Y945964D01*
X4573573Y948650D01*
X4594227Y948650D01*
X4607731Y945964D01*
G37*
G36*
X2247731Y945964D02*
G01*
X2254484Y944621D01*
X2273565Y936717D01*
X2290738Y925242D01*
X2305342Y910638D01*
X2316817Y893465D01*
X2324721Y874384D01*
X2328750Y854127D01*
X2328750Y833473D01*
X2324721Y813216D01*
X2316817Y794135D01*
X2305342Y776962D01*
X2290738Y762358D01*
X2273565Y750883D01*
X2254484Y742979D01*
X2247731Y741636D01*
X2234227Y738950D01*
X2213573Y738950D01*
X2200069Y741636D01*
X2193316Y742979D01*
X2174235Y750883D01*
X2157062Y762358D01*
X2142458Y776962D01*
X2130983Y794135D01*
X2123079Y813216D01*
X2119050Y833473D01*
X2119050Y854127D01*
X2123079Y874384D01*
X2130983Y893465D01*
X2142458Y910638D01*
X2157062Y925242D01*
X2174235Y936717D01*
X2193316Y944621D01*
X2200069Y945964D01*
X2213573Y948650D01*
X2234227Y948650D01*
X2247731Y945964D01*
G37*
G36*
X797731Y945964D02*
G01*
X804484Y944621D01*
X823565Y936717D01*
X840738Y925242D01*
X855342Y910638D01*
X866817Y893465D01*
X874721Y874384D01*
X878750Y854127D01*
X878750Y833473D01*
X874721Y813216D01*
X866817Y794135D01*
X855342Y776962D01*
X840738Y762358D01*
X823565Y750883D01*
X804484Y742979D01*
X797731Y741636D01*
X784227Y738950D01*
X763573Y738950D01*
X750069Y741636D01*
X743316Y742979D01*
X724235Y750883D01*
X707062Y762358D01*
X692458Y776962D01*
X680983Y794135D01*
X673079Y813216D01*
X669050Y833473D01*
X669050Y854127D01*
X673079Y874384D01*
X680983Y893465D01*
X692458Y910638D01*
X707062Y925242D01*
X724235Y936717D01*
X743316Y944621D01*
X750069Y945964D01*
X763573Y948650D01*
X784227Y948650D01*
X797731Y945964D01*
G37*
G36*
X1994000Y843700D02*
G01*
X1053800Y843700D01*
X1053800Y1043900D01*
X1994000Y1043900D01*
X1994000Y843700D01*
G37*
G36*
X5804000Y843700D02*
G01*
X4863800Y843700D01*
X4863800Y1043900D01*
X5804000Y1043900D01*
X5804000Y843700D01*
G37*
G36*
X6385100Y1726600D02*
G01*
X6314900Y1726600D01*
X6314900Y1942800D01*
X6385100Y1942800D01*
X6385100Y1726600D01*
G37*
G36*
X6512100Y1726600D02*
G01*
X6441900Y1726600D01*
X6441900Y1942800D01*
X6512100Y1942800D01*
X6512100Y1726600D01*
G37*
G36*
X6258100Y1726600D02*
G01*
X6187900Y1726600D01*
X6187900Y1942800D01*
X6258100Y1942800D01*
X6258100Y1726600D01*
G37*
G36*
X6131100Y1726600D02*
G01*
X6060900Y1726600D01*
X6060900Y1942800D01*
X6131100Y1942800D01*
X6131100Y1726600D01*
G37*
G36*
X6004100Y1726600D02*
G01*
X5933900Y1726600D01*
X5933900Y1942800D01*
X6004100Y1942800D01*
X6004100Y1726600D01*
G37*
G36*
X5877100Y1726600D02*
G01*
X5806900Y1726600D01*
X5806900Y1942800D01*
X5877100Y1942800D01*
X5877100Y1726600D01*
G37*
G36*
X5750100Y1726600D02*
G01*
X5679900Y1726600D01*
X5679900Y1942800D01*
X5750100Y1942800D01*
X5750100Y1726600D01*
G37*
G36*
X5623100Y1726600D02*
G01*
X5552900Y1726600D01*
X5552900Y1942800D01*
X5623100Y1942800D01*
X5623100Y1726600D01*
G37*
G36*
X5397359Y1873491D02*
G01*
X5400757Y1872461D01*
X5403889Y1870787D01*
X5406634Y1868534D01*
X5408887Y1865789D01*
X5410561Y1862657D01*
X5411592Y1859259D01*
X5412000Y1855111D01*
X5412000Y1794989D01*
X5411592Y1790841D01*
X5410561Y1787443D01*
X5408887Y1784311D01*
X5406634Y1781566D01*
X5403889Y1779313D01*
X5400757Y1777639D01*
X5397359Y1776608D01*
X5393211Y1776200D01*
X5325589Y1776200D01*
X5321441Y1776608D01*
X5318043Y1777639D01*
X5314911Y1779313D01*
X5312166Y1781566D01*
X5309913Y1784311D01*
X5308239Y1787443D01*
X5307209Y1790841D01*
X5306800Y1794989D01*
X5306800Y1855111D01*
X5307209Y1859259D01*
X5308239Y1862657D01*
X5309913Y1865789D01*
X5312166Y1868534D01*
X5314911Y1870787D01*
X5318043Y1872461D01*
X5321441Y1873491D01*
X5325589Y1873900D01*
X5393211Y1873900D01*
X5397359Y1873491D01*
G37*
G36*
X5397359Y2030991D02*
G01*
X5400757Y2029961D01*
X5403889Y2028287D01*
X5406634Y2026034D01*
X5408887Y2023289D01*
X5410561Y2020157D01*
X5411592Y2016759D01*
X5412000Y2012611D01*
X5412000Y1952489D01*
X5411592Y1948341D01*
X5410561Y1944943D01*
X5408887Y1941811D01*
X5406634Y1939066D01*
X5403889Y1936813D01*
X5400757Y1935139D01*
X5397359Y1934108D01*
X5393211Y1933700D01*
X5325589Y1933700D01*
X5321441Y1934108D01*
X5318043Y1935139D01*
X5314911Y1936813D01*
X5312166Y1939066D01*
X5309913Y1941811D01*
X5308239Y1944943D01*
X5307209Y1948341D01*
X5306800Y1952489D01*
X5306800Y2012611D01*
X5307209Y2016759D01*
X5308239Y2020157D01*
X5309913Y2023289D01*
X5312166Y2026034D01*
X5314911Y2028287D01*
X5318043Y2029961D01*
X5321441Y2030991D01*
X5325589Y2031400D01*
X5393211Y2031400D01*
X5397359Y2030991D01*
G37*
G36*
X1676100Y2329600D02*
G01*
X1584900Y2329600D01*
X1584900Y2521800D01*
X1676100Y2521800D01*
X1676100Y2329600D01*
G37*
G36*
X1336100Y2329600D02*
G01*
X1244900Y2329600D01*
X1244900Y2521800D01*
X1336100Y2521800D01*
X1336100Y2329600D01*
G37*
G36*
X6004100Y2654600D02*
G01*
X5933900Y2654600D01*
X5933900Y2870800D01*
X6004100Y2870800D01*
X6004100Y2654600D01*
G37*
G36*
X6131100Y2654600D02*
G01*
X6060900Y2654600D01*
X6060900Y2870800D01*
X6131100Y2870800D01*
X6131100Y2654600D01*
G37*
G36*
X5877100Y2654600D02*
G01*
X5806900Y2654600D01*
X5806900Y2870800D01*
X5877100Y2870800D01*
X5877100Y2654600D01*
G37*
G36*
X5750100Y2654600D02*
G01*
X5679900Y2654600D01*
X5679900Y2870800D01*
X5750100Y2870800D01*
X5750100Y2654600D01*
G37*
G36*
X5623100Y2654600D02*
G01*
X5552900Y2654600D01*
X5552900Y2870800D01*
X5623100Y2870800D01*
X5623100Y2654600D01*
G37*
G36*
X6258100Y2654600D02*
G01*
X6187900Y2654600D01*
X6187900Y2870800D01*
X6258100Y2870800D01*
X6258100Y2654600D01*
G37*
G36*
X6385100Y2654600D02*
G01*
X6314900Y2654600D01*
X6314900Y2870800D01*
X6385100Y2870800D01*
X6385100Y2654600D01*
G37*
G36*
X6512100Y2654600D02*
G01*
X6441900Y2654600D01*
X6441900Y2870800D01*
X6512100Y2870800D01*
X6512100Y2654600D01*
G37*
G36*
X6197459Y3041891D02*
G01*
X6200857Y3040861D01*
X6203989Y3039187D01*
X6206734Y3036934D01*
X6208987Y3034189D01*
X6210661Y3031057D01*
X6211691Y3027659D01*
X6212100Y3023511D01*
X6212100Y2963389D01*
X6211691Y2959241D01*
X6210661Y2955843D01*
X6208987Y2952711D01*
X6206734Y2949966D01*
X6203989Y2947713D01*
X6200857Y2946039D01*
X6197459Y2945008D01*
X6193311Y2944600D01*
X6125689Y2944600D01*
X6121541Y2945008D01*
X6118143Y2946039D01*
X6115011Y2947713D01*
X6112266Y2949966D01*
X6110013Y2952711D01*
X6108339Y2955843D01*
X6107308Y2959241D01*
X6106900Y2963389D01*
X6106900Y3023511D01*
X6107308Y3027659D01*
X6108339Y3031057D01*
X6110013Y3034189D01*
X6112266Y3036934D01*
X6115011Y3039187D01*
X6118143Y3040861D01*
X6121541Y3041891D01*
X6125689Y3042300D01*
X6193311Y3042300D01*
X6197459Y3041891D01*
G37*
G36*
X5571409Y3176391D02*
G01*
X5574807Y3175361D01*
X5577939Y3173687D01*
X5580684Y3171434D01*
X5582937Y3168689D01*
X5584611Y3165557D01*
X5585642Y3162159D01*
X5586050Y3158011D01*
X5586050Y3090389D01*
X5585642Y3086241D01*
X5584611Y3082843D01*
X5582937Y3079711D01*
X5580684Y3076966D01*
X5577939Y3074713D01*
X5574807Y3073039D01*
X5571409Y3072008D01*
X5567261Y3071600D01*
X5507139Y3071600D01*
X5502991Y3072008D01*
X5499593Y3073039D01*
X5496461Y3074713D01*
X5493716Y3076966D01*
X5491463Y3079711D01*
X5489789Y3082843D01*
X5488759Y3086241D01*
X5488350Y3090389D01*
X5488350Y3158011D01*
X5488759Y3162159D01*
X5489789Y3165557D01*
X5491463Y3168689D01*
X5493716Y3171434D01*
X5496461Y3173687D01*
X5499593Y3175361D01*
X5502991Y3176391D01*
X5507139Y3176800D01*
X5567261Y3176800D01*
X5571409Y3176391D01*
G37*
G36*
X5728909Y3176391D02*
G01*
X5732307Y3175361D01*
X5735439Y3173687D01*
X5738184Y3171434D01*
X5740437Y3168689D01*
X5742111Y3165557D01*
X5743141Y3162159D01*
X5743550Y3158011D01*
X5743550Y3090389D01*
X5743141Y3086241D01*
X5742111Y3082843D01*
X5740437Y3079711D01*
X5738184Y3076966D01*
X5735439Y3074713D01*
X5732307Y3073039D01*
X5728909Y3072008D01*
X5724761Y3071600D01*
X5664639Y3071600D01*
X5660491Y3072008D01*
X5657093Y3073039D01*
X5653961Y3074713D01*
X5651216Y3076966D01*
X5648963Y3079711D01*
X5647289Y3082843D01*
X5646258Y3086241D01*
X5645850Y3090389D01*
X5645850Y3158011D01*
X5646258Y3162159D01*
X5647289Y3165557D01*
X5648963Y3168689D01*
X5651216Y3171434D01*
X5653961Y3173687D01*
X5657093Y3175361D01*
X5660491Y3176391D01*
X5664639Y3176800D01*
X5724761Y3176800D01*
X5728909Y3176391D01*
G37*
G36*
X5876209Y3176391D02*
G01*
X5879607Y3175361D01*
X5882739Y3173687D01*
X5885484Y3171434D01*
X5887737Y3168689D01*
X5889411Y3165557D01*
X5890441Y3162159D01*
X5890850Y3158011D01*
X5890850Y3090389D01*
X5890441Y3086241D01*
X5889411Y3082843D01*
X5887737Y3079711D01*
X5885484Y3076966D01*
X5882739Y3074713D01*
X5879607Y3073039D01*
X5876209Y3072008D01*
X5872061Y3071600D01*
X5811939Y3071600D01*
X5807791Y3072008D01*
X5804393Y3073039D01*
X5801261Y3074713D01*
X5798516Y3076966D01*
X5796263Y3079711D01*
X5794589Y3082843D01*
X5793558Y3086241D01*
X5793150Y3090389D01*
X5793150Y3158011D01*
X5793558Y3162159D01*
X5794589Y3165557D01*
X5796263Y3168689D01*
X5798516Y3171434D01*
X5801261Y3173687D01*
X5804393Y3175361D01*
X5807791Y3176391D01*
X5811939Y3176800D01*
X5872061Y3176800D01*
X5876209Y3176391D01*
G37*
G36*
X6033709Y3176391D02*
G01*
X6037107Y3175361D01*
X6040239Y3173687D01*
X6042984Y3171434D01*
X6045237Y3168689D01*
X6046911Y3165557D01*
X6047941Y3162159D01*
X6048350Y3158011D01*
X6048350Y3090389D01*
X6047941Y3086241D01*
X6046911Y3082843D01*
X6045237Y3079711D01*
X6042984Y3076966D01*
X6040239Y3074713D01*
X6037107Y3073039D01*
X6033709Y3072008D01*
X6029561Y3071600D01*
X5969439Y3071600D01*
X5965291Y3072008D01*
X5961893Y3073039D01*
X5958761Y3074713D01*
X5956016Y3076966D01*
X5953763Y3079711D01*
X5952089Y3082843D01*
X5951058Y3086241D01*
X5950650Y3090389D01*
X5950650Y3158011D01*
X5951058Y3162159D01*
X5952089Y3165557D01*
X5953763Y3168689D01*
X5956016Y3171434D01*
X5958761Y3173687D01*
X5961893Y3175361D01*
X5965291Y3176391D01*
X5969439Y3176800D01*
X6029561Y3176800D01*
X6033709Y3176391D01*
G37*
G36*
X6197459Y3199391D02*
G01*
X6200857Y3198361D01*
X6203989Y3196687D01*
X6206734Y3194434D01*
X6208987Y3191689D01*
X6210661Y3188557D01*
X6211691Y3185159D01*
X6212100Y3181011D01*
X6212100Y3120889D01*
X6211691Y3116741D01*
X6210661Y3113343D01*
X6208987Y3110211D01*
X6206734Y3107466D01*
X6203989Y3105213D01*
X6200857Y3103539D01*
X6197459Y3102508D01*
X6193311Y3102100D01*
X6125689Y3102100D01*
X6121541Y3102508D01*
X6118143Y3103539D01*
X6115011Y3105213D01*
X6112266Y3107466D01*
X6110013Y3110211D01*
X6108339Y3113343D01*
X6107308Y3116741D01*
X6106900Y3120889D01*
X6106900Y3181011D01*
X6107308Y3185159D01*
X6108339Y3188557D01*
X6110013Y3191689D01*
X6112266Y3194434D01*
X6115011Y3196687D01*
X6118143Y3198361D01*
X6121541Y3199391D01*
X6125689Y3199800D01*
X6193311Y3199800D01*
X6197459Y3199391D01*
G37*
G36*
X3270100Y4849300D02*
G01*
X3270340Y4846861D01*
X3271051Y4844516D01*
X3272207Y4842355D01*
X3273761Y4840461D01*
X3275655Y4838907D01*
X3277816Y4837752D01*
X3280161Y4837040D01*
X3282600Y4836800D01*
X3300100Y4836800D01*
X3300100Y4819300D01*
X3300340Y4816861D01*
X3301051Y4814516D01*
X3302207Y4812355D01*
X3303761Y4810461D01*
X3305655Y4808907D01*
X3307816Y4807752D01*
X3310161Y4807040D01*
X3312600Y4806800D01*
X3417600Y4806800D01*
X3417600Y4616600D01*
X3312600Y4616600D01*
X3310161Y4616360D01*
X3307816Y4615649D01*
X3305655Y4614493D01*
X3303761Y4612939D01*
X3302207Y4611045D01*
X3301051Y4608884D01*
X3300340Y4606539D01*
X3300100Y4604100D01*
X3300100Y4586600D01*
X3282600Y4586600D01*
X3280161Y4586360D01*
X3277816Y4585649D01*
X3275655Y4584493D01*
X3273761Y4582939D01*
X3272207Y4581045D01*
X3271051Y4578884D01*
X3270340Y4576539D01*
X3270100Y4574100D01*
X3270100Y4469100D01*
X3079900Y4469100D01*
X3079900Y4574100D01*
X3079660Y4576539D01*
X3078948Y4578884D01*
X3077793Y4581045D01*
X3076239Y4582939D01*
X3074345Y4584493D01*
X3072184Y4585649D01*
X3069839Y4586360D01*
X3067400Y4586600D01*
X3049900Y4586600D01*
X3049900Y4604100D01*
X3049660Y4606539D01*
X3048948Y4608884D01*
X3047793Y4611045D01*
X3046239Y4612939D01*
X3044345Y4614493D01*
X3042184Y4615649D01*
X3039839Y4616360D01*
X3037400Y4616600D01*
X2932400Y4616600D01*
X2932400Y4806800D01*
X3037400Y4806800D01*
X3039839Y4807040D01*
X3042184Y4807752D01*
X3044345Y4808907D01*
X3046239Y4810461D01*
X3047793Y4812355D01*
X3048948Y4814516D01*
X3049660Y4816861D01*
X3049900Y4819300D01*
X3049900Y4836800D01*
X3067400Y4836800D01*
X3069839Y4837040D01*
X3072184Y4837752D01*
X3074345Y4838907D01*
X3076239Y4840461D01*
X3077793Y4842355D01*
X3078948Y4844516D01*
X3079660Y4846861D01*
X3079900Y4849300D01*
X3079900Y4954300D01*
X3270100Y4954300D01*
X3270100Y4849300D01*
G37*
G36*
X2747500Y4715000D02*
G01*
X2637300Y4715000D01*
X2637300Y4820200D01*
X2747500Y4820200D01*
X2747500Y4715000D01*
G37*
G36*
X2747500Y4875000D02*
G01*
X2637300Y4875000D01*
X2637300Y4980200D01*
X2747500Y4980200D01*
X2747500Y4875000D01*
G37*
G36*
X2000100Y5420800D02*
G01*
X2000340Y5418361D01*
X2001051Y5416016D01*
X2002207Y5413855D01*
X2003761Y5411961D01*
X2005655Y5410407D01*
X2007816Y5409252D01*
X2010161Y5408540D01*
X2012600Y5408300D01*
X2030100Y5408300D01*
X2030100Y5390800D01*
X2030340Y5388361D01*
X2031051Y5386016D01*
X2032207Y5383855D01*
X2033761Y5381961D01*
X2035655Y5380407D01*
X2037816Y5379252D01*
X2040161Y5378540D01*
X2042600Y5378300D01*
X2147600Y5378300D01*
X2147600Y5188100D01*
X2042600Y5188100D01*
X2040161Y5187860D01*
X2037816Y5187149D01*
X2035655Y5185993D01*
X2033761Y5184439D01*
X2032207Y5182545D01*
X2031051Y5180384D01*
X2030340Y5178039D01*
X2030100Y5175600D01*
X2030100Y5158100D01*
X2012600Y5158100D01*
X2010161Y5157860D01*
X2007816Y5157149D01*
X2005655Y5155993D01*
X2003761Y5154439D01*
X2002207Y5152545D01*
X2001051Y5150384D01*
X2000340Y5148039D01*
X2000100Y5145600D01*
X2000100Y5040600D01*
X1809900Y5040600D01*
X1809900Y5145600D01*
X1809660Y5148039D01*
X1808948Y5150384D01*
X1807793Y5152545D01*
X1806239Y5154439D01*
X1804345Y5155993D01*
X1802184Y5157149D01*
X1799839Y5157860D01*
X1797400Y5158100D01*
X1779900Y5158100D01*
X1779900Y5175600D01*
X1779660Y5178039D01*
X1778948Y5180384D01*
X1777793Y5182545D01*
X1776239Y5184439D01*
X1774345Y5185993D01*
X1772184Y5187149D01*
X1769839Y5187860D01*
X1767400Y5188100D01*
X1662400Y5188100D01*
X1662400Y5378300D01*
X1767400Y5378300D01*
X1769839Y5378540D01*
X1772184Y5379252D01*
X1774345Y5380407D01*
X1776239Y5381961D01*
X1777793Y5383855D01*
X1778948Y5386016D01*
X1779660Y5388361D01*
X1779900Y5390800D01*
X1779900Y5408300D01*
X1797400Y5408300D01*
X1799839Y5408540D01*
X1802184Y5409252D01*
X1804345Y5410407D01*
X1806239Y5411961D01*
X1807793Y5413855D01*
X1808948Y5416016D01*
X1809660Y5418361D01*
X1809900Y5420800D01*
X1809900Y5525800D01*
X2000100Y5525800D01*
X2000100Y5420800D01*
G37*
G36*
X1452100Y5146800D02*
G01*
X1341900Y5146800D01*
X1341900Y5252000D01*
X1452100Y5252000D01*
X1452100Y5146800D01*
G37*
G36*
X1452100Y5306800D02*
G01*
X1341900Y5306800D01*
X1341900Y5412000D01*
X1452100Y5412000D01*
X1452100Y5306800D01*
G37*
G36*
X729910Y6441164D02*
G01*
X742394Y6435993D01*
X742394Y6435992D01*
X753630Y6428485D01*
X763185Y6418930D01*
X770693Y6407694D01*
X775864Y6395210D01*
X778500Y6381957D01*
X778500Y6368443D01*
X775864Y6355190D01*
X771695Y6345127D01*
X770692Y6342706D01*
X763185Y6331470D01*
X753630Y6321915D01*
X742394Y6314407D01*
X742394Y6314407D01*
X742394Y6314407D01*
X729910Y6309236D01*
X716657Y6306600D01*
X703143Y6306600D01*
X689890Y6309236D01*
X677406Y6314407D01*
X677406Y6314407D01*
X677406Y6314407D01*
X666170Y6321915D01*
X656615Y6331470D01*
X649108Y6342706D01*
X648105Y6345127D01*
X643936Y6355190D01*
X641300Y6368443D01*
X641300Y6381957D01*
X643936Y6395210D01*
X649107Y6407694D01*
X656615Y6418930D01*
X666170Y6428485D01*
X677406Y6435992D01*
X677406Y6435993D01*
X689890Y6441164D01*
X703143Y6443800D01*
X716657Y6443800D01*
X729910Y6441164D01*
G37*
G36*
X1979322Y6398374D02*
G01*
X1986073Y6395578D01*
X1992150Y6391518D01*
X1997318Y6386350D01*
X2001378Y6380273D01*
X2004174Y6373522D01*
X2005600Y6366354D01*
X2005600Y6359046D01*
X2004174Y6351878D01*
X2001378Y6345127D01*
X1997318Y6339050D01*
X1992150Y6333882D01*
X1986073Y6329822D01*
X1979322Y6327026D01*
X1972154Y6325600D01*
X1964846Y6325600D01*
X1957678Y6327026D01*
X1950927Y6329822D01*
X1944850Y6333882D01*
X1939682Y6339050D01*
X1935622Y6345127D01*
X1932826Y6351878D01*
X1931400Y6359046D01*
X1931400Y6366354D01*
X1932826Y6373522D01*
X1935622Y6380273D01*
X1939682Y6386350D01*
X1944850Y6391518D01*
X1950927Y6395578D01*
X1957678Y6398374D01*
X1964846Y6399800D01*
X1972154Y6399800D01*
X1979322Y6398374D01*
G37*
G36*
X5916322Y6398374D02*
G01*
X5923073Y6395578D01*
X5929150Y6391518D01*
X5934318Y6386350D01*
X5938378Y6380273D01*
X5941174Y6373522D01*
X5942600Y6366354D01*
X5942600Y6359046D01*
X5941174Y6351878D01*
X5938378Y6345127D01*
X5934318Y6339050D01*
X5929150Y6333882D01*
X5923073Y6329822D01*
X5916322Y6327026D01*
X5909154Y6325600D01*
X5901846Y6325600D01*
X5894678Y6327026D01*
X5887927Y6329822D01*
X5881850Y6333882D01*
X5876682Y6339050D01*
X5872622Y6345127D01*
X5869826Y6351878D01*
X5868400Y6359046D01*
X5868400Y6366354D01*
X5869826Y6373522D01*
X5872622Y6380273D01*
X5876682Y6386350D01*
X5881850Y6391518D01*
X5887927Y6395578D01*
X5894678Y6398374D01*
X5901846Y6399800D01*
X5909154Y6399800D01*
X5916322Y6398374D01*
G37*
G36*
X5789322Y6398374D02*
G01*
X5796073Y6395578D01*
X5802150Y6391518D01*
X5807318Y6386350D01*
X5811378Y6380273D01*
X5814174Y6373522D01*
X5815600Y6366354D01*
X5815600Y6359046D01*
X5814174Y6351878D01*
X5811378Y6345127D01*
X5807318Y6339050D01*
X5802150Y6333882D01*
X5796073Y6329822D01*
X5789322Y6327026D01*
X5782154Y6325600D01*
X5774846Y6325600D01*
X5767678Y6327026D01*
X5760927Y6329822D01*
X5754850Y6333882D01*
X5749682Y6339050D01*
X5745622Y6345127D01*
X5742826Y6351878D01*
X5741400Y6359046D01*
X5741400Y6366354D01*
X5742826Y6373522D01*
X5745622Y6380273D01*
X5749682Y6386350D01*
X5754850Y6391518D01*
X5760927Y6395578D01*
X5767678Y6398374D01*
X5774846Y6399800D01*
X5782154Y6399800D01*
X5789322Y6398374D01*
G37*
G36*
X5662322Y6398374D02*
G01*
X5669073Y6395578D01*
X5675150Y6391518D01*
X5680318Y6386350D01*
X5684378Y6380273D01*
X5687174Y6373522D01*
X5688600Y6366354D01*
X5688600Y6359046D01*
X5687174Y6351878D01*
X5684378Y6345127D01*
X5680318Y6339050D01*
X5675150Y6333882D01*
X5669073Y6329822D01*
X5662322Y6327026D01*
X5655154Y6325600D01*
X5647846Y6325600D01*
X5640678Y6327026D01*
X5633927Y6329822D01*
X5627850Y6333882D01*
X5622682Y6339050D01*
X5618622Y6345127D01*
X5615826Y6351878D01*
X5614400Y6359046D01*
X5614400Y6366354D01*
X5615826Y6373522D01*
X5618622Y6380273D01*
X5622682Y6386350D01*
X5627850Y6391518D01*
X5633927Y6395578D01*
X5640678Y6398374D01*
X5647846Y6399800D01*
X5655154Y6399800D01*
X5662322Y6398374D01*
G37*
G36*
X5535322Y6398374D02*
G01*
X5542073Y6395578D01*
X5548150Y6391518D01*
X5553318Y6386350D01*
X5557378Y6380273D01*
X5560174Y6373522D01*
X5561600Y6366354D01*
X5561600Y6359046D01*
X5560174Y6351878D01*
X5557378Y6345127D01*
X5553318Y6339050D01*
X5548150Y6333882D01*
X5542073Y6329822D01*
X5535322Y6327026D01*
X5528154Y6325600D01*
X5520846Y6325600D01*
X5513678Y6327026D01*
X5506927Y6329822D01*
X5500850Y6333882D01*
X5495682Y6339050D01*
X5491622Y6345127D01*
X5488826Y6351878D01*
X5487400Y6359046D01*
X5487400Y6366354D01*
X5488826Y6373522D01*
X5491622Y6380273D01*
X5495682Y6386350D01*
X5500850Y6391518D01*
X5506927Y6395578D01*
X5513678Y6398374D01*
X5520846Y6399800D01*
X5528154Y6399800D01*
X5535322Y6398374D01*
G37*
G36*
X5408322Y6398374D02*
G01*
X5415073Y6395578D01*
X5421150Y6391518D01*
X5426318Y6386350D01*
X5430378Y6380273D01*
X5433174Y6373522D01*
X5434600Y6366354D01*
X5434600Y6359046D01*
X5433174Y6351878D01*
X5430378Y6345127D01*
X5426318Y6339050D01*
X5421150Y6333882D01*
X5415073Y6329822D01*
X5408322Y6327026D01*
X5401154Y6325600D01*
X5393846Y6325600D01*
X5386678Y6327026D01*
X5379927Y6329822D01*
X5373850Y6333882D01*
X5368682Y6339050D01*
X5364622Y6345127D01*
X5361826Y6351878D01*
X5360400Y6359046D01*
X5360400Y6366354D01*
X5361826Y6373522D01*
X5364622Y6380273D01*
X5368682Y6386350D01*
X5373850Y6391518D01*
X5379927Y6395578D01*
X5386678Y6398374D01*
X5393846Y6399800D01*
X5401154Y6399800D01*
X5408322Y6398374D01*
G37*
G36*
X5281322Y6398374D02*
G01*
X5288073Y6395578D01*
X5294150Y6391518D01*
X5299318Y6386350D01*
X5303378Y6380273D01*
X5306174Y6373522D01*
X5307600Y6366354D01*
X5307600Y6359046D01*
X5306174Y6351878D01*
X5303378Y6345127D01*
X5299318Y6339050D01*
X5294150Y6333882D01*
X5288073Y6329822D01*
X5281322Y6327026D01*
X5274154Y6325600D01*
X5266846Y6325600D01*
X5259678Y6327026D01*
X5252927Y6329822D01*
X5246850Y6333882D01*
X5241682Y6339050D01*
X5237622Y6345127D01*
X5234826Y6351878D01*
X5233400Y6359046D01*
X5233400Y6366354D01*
X5234826Y6373522D01*
X5237622Y6380273D01*
X5241682Y6386350D01*
X5246850Y6391518D01*
X5252927Y6395578D01*
X5259678Y6398374D01*
X5266846Y6399800D01*
X5274154Y6399800D01*
X5281322Y6398374D01*
G37*
G36*
X5154322Y6398374D02*
G01*
X5161073Y6395578D01*
X5167150Y6391518D01*
X5172318Y6386350D01*
X5176378Y6380273D01*
X5179174Y6373522D01*
X5180600Y6366354D01*
X5180600Y6359046D01*
X5179174Y6351878D01*
X5176378Y6345127D01*
X5172318Y6339050D01*
X5167150Y6333882D01*
X5161073Y6329822D01*
X5154322Y6327026D01*
X5147154Y6325600D01*
X5139846Y6325600D01*
X5132678Y6327026D01*
X5125927Y6329822D01*
X5119850Y6333882D01*
X5114682Y6339050D01*
X5110622Y6345127D01*
X5107826Y6351878D01*
X5106400Y6359046D01*
X5106400Y6366354D01*
X5107826Y6373522D01*
X5110622Y6380273D01*
X5114682Y6386350D01*
X5119850Y6391518D01*
X5125927Y6395578D01*
X5132678Y6398374D01*
X5139846Y6399800D01*
X5147154Y6399800D01*
X5154322Y6398374D01*
G37*
G36*
X5027322Y6398374D02*
G01*
X5034073Y6395578D01*
X5040150Y6391518D01*
X5045318Y6386350D01*
X5049378Y6380273D01*
X5052174Y6373522D01*
X5053600Y6366354D01*
X5053600Y6359046D01*
X5052174Y6351878D01*
X5049378Y6345127D01*
X5045318Y6339050D01*
X5040150Y6333882D01*
X5034073Y6329822D01*
X5027322Y6327026D01*
X5020154Y6325600D01*
X5012846Y6325600D01*
X5005678Y6327026D01*
X4998927Y6329822D01*
X4992850Y6333882D01*
X4987682Y6339050D01*
X4983622Y6345127D01*
X4980826Y6351878D01*
X4979400Y6359046D01*
X4979400Y6366354D01*
X4980826Y6373522D01*
X4983622Y6380273D01*
X4987682Y6386350D01*
X4992850Y6391518D01*
X4998927Y6395578D01*
X5005678Y6398374D01*
X5012846Y6399800D01*
X5020154Y6399800D01*
X5027322Y6398374D01*
G37*
G36*
X4900322Y6398374D02*
G01*
X4907073Y6395578D01*
X4913150Y6391518D01*
X4918318Y6386350D01*
X4922378Y6380273D01*
X4925174Y6373522D01*
X4926600Y6366354D01*
X4926600Y6359046D01*
X4925174Y6351878D01*
X4922378Y6345127D01*
X4918318Y6339050D01*
X4913150Y6333882D01*
X4907073Y6329822D01*
X4900322Y6327026D01*
X4893154Y6325600D01*
X4885846Y6325600D01*
X4878678Y6327026D01*
X4871927Y6329822D01*
X4865850Y6333882D01*
X4860682Y6339050D01*
X4856622Y6345127D01*
X4853826Y6351878D01*
X4852400Y6359046D01*
X4852400Y6366354D01*
X4853826Y6373522D01*
X4856622Y6380273D01*
X4860682Y6386350D01*
X4865850Y6391518D01*
X4871927Y6395578D01*
X4878678Y6398374D01*
X4885846Y6399800D01*
X4893154Y6399800D01*
X4900322Y6398374D01*
G37*
G36*
X4773322Y6398374D02*
G01*
X4780073Y6395578D01*
X4786150Y6391518D01*
X4791318Y6386350D01*
X4795378Y6380273D01*
X4798174Y6373522D01*
X4799600Y6366354D01*
X4799600Y6359046D01*
X4798174Y6351878D01*
X4795378Y6345127D01*
X4791318Y6339050D01*
X4786150Y6333882D01*
X4780073Y6329822D01*
X4773322Y6327026D01*
X4766154Y6325600D01*
X4758846Y6325600D01*
X4751678Y6327026D01*
X4744927Y6329822D01*
X4738850Y6333882D01*
X4733682Y6339050D01*
X4729622Y6345127D01*
X4726826Y6351878D01*
X4725400Y6359046D01*
X4725400Y6366354D01*
X4726826Y6373522D01*
X4729622Y6380273D01*
X4733682Y6386350D01*
X4738850Y6391518D01*
X4744927Y6395578D01*
X4751678Y6398374D01*
X4758846Y6399800D01*
X4766154Y6399800D01*
X4773322Y6398374D01*
G37*
G36*
X4646322Y6398374D02*
G01*
X4653073Y6395578D01*
X4659150Y6391518D01*
X4664318Y6386350D01*
X4668378Y6380273D01*
X4671174Y6373522D01*
X4672600Y6366354D01*
X4672600Y6359046D01*
X4671174Y6351878D01*
X4668378Y6345127D01*
X4664318Y6339050D01*
X4659150Y6333882D01*
X4653073Y6329822D01*
X4646322Y6327026D01*
X4639154Y6325600D01*
X4631846Y6325600D01*
X4624678Y6327026D01*
X4617927Y6329822D01*
X4611850Y6333882D01*
X4606682Y6339050D01*
X4602622Y6345127D01*
X4599826Y6351878D01*
X4598400Y6359046D01*
X4598400Y6366354D01*
X4599826Y6373522D01*
X4602622Y6380273D01*
X4606682Y6386350D01*
X4611850Y6391518D01*
X4617927Y6395578D01*
X4624678Y6398374D01*
X4631846Y6399800D01*
X4639154Y6399800D01*
X4646322Y6398374D01*
G37*
G36*
X4519322Y6398374D02*
G01*
X4526073Y6395578D01*
X4532150Y6391518D01*
X4537318Y6386350D01*
X4541378Y6380273D01*
X4544174Y6373522D01*
X4545600Y6366354D01*
X4545600Y6359046D01*
X4544174Y6351878D01*
X4541378Y6345127D01*
X4537318Y6339050D01*
X4532150Y6333882D01*
X4526073Y6329822D01*
X4519322Y6327026D01*
X4512154Y6325600D01*
X4504846Y6325600D01*
X4497678Y6327026D01*
X4490927Y6329822D01*
X4484850Y6333882D01*
X4479682Y6339050D01*
X4475622Y6345127D01*
X4472826Y6351878D01*
X4471400Y6359046D01*
X4471400Y6366354D01*
X4472826Y6373522D01*
X4475622Y6380273D01*
X4479682Y6386350D01*
X4484850Y6391518D01*
X4490927Y6395578D01*
X4497678Y6398374D01*
X4504846Y6399800D01*
X4512154Y6399800D01*
X4519322Y6398374D01*
G37*
G36*
X4392322Y6398374D02*
G01*
X4399073Y6395578D01*
X4405150Y6391518D01*
X4410318Y6386350D01*
X4414378Y6380273D01*
X4417174Y6373522D01*
X4418600Y6366354D01*
X4418600Y6359046D01*
X4417174Y6351878D01*
X4414378Y6345127D01*
X4410318Y6339050D01*
X4405150Y6333882D01*
X4399073Y6329822D01*
X4392322Y6327026D01*
X4385154Y6325600D01*
X4377846Y6325600D01*
X4370678Y6327026D01*
X4363927Y6329822D01*
X4357850Y6333882D01*
X4352682Y6339050D01*
X4348622Y6345127D01*
X4345826Y6351878D01*
X4344400Y6359046D01*
X4344400Y6366354D01*
X4345826Y6373522D01*
X4348622Y6380273D01*
X4352682Y6386350D01*
X4357850Y6391518D01*
X4363927Y6395578D01*
X4370678Y6398374D01*
X4377846Y6399800D01*
X4385154Y6399800D01*
X4392322Y6398374D01*
G37*
G36*
X4265322Y6398374D02*
G01*
X4272073Y6395578D01*
X4278150Y6391518D01*
X4283318Y6386350D01*
X4287378Y6380273D01*
X4290174Y6373522D01*
X4291600Y6366354D01*
X4291600Y6359046D01*
X4290174Y6351878D01*
X4287378Y6345127D01*
X4283318Y6339050D01*
X4278150Y6333882D01*
X4272073Y6329822D01*
X4265322Y6327026D01*
X4258154Y6325600D01*
X4250846Y6325600D01*
X4243678Y6327026D01*
X4236927Y6329822D01*
X4230850Y6333882D01*
X4225682Y6339050D01*
X4221622Y6345127D01*
X4218826Y6351878D01*
X4217400Y6359046D01*
X4217400Y6366354D01*
X4218826Y6373522D01*
X4221622Y6380273D01*
X4225682Y6386350D01*
X4230850Y6391518D01*
X4236927Y6395578D01*
X4243678Y6398374D01*
X4250846Y6399800D01*
X4258154Y6399800D01*
X4265322Y6398374D01*
G37*
G36*
X4138322Y6398374D02*
G01*
X4145073Y6395578D01*
X4151150Y6391518D01*
X4156318Y6386350D01*
X4160378Y6380273D01*
X4163174Y6373522D01*
X4164600Y6366354D01*
X4164600Y6359046D01*
X4163174Y6351878D01*
X4160378Y6345127D01*
X4156318Y6339050D01*
X4151150Y6333882D01*
X4145073Y6329822D01*
X4138322Y6327026D01*
X4131154Y6325600D01*
X4123846Y6325600D01*
X4116678Y6327026D01*
X4109927Y6329822D01*
X4103850Y6333882D01*
X4098682Y6339050D01*
X4094622Y6345127D01*
X4091826Y6351878D01*
X4090400Y6359046D01*
X4090400Y6366354D01*
X4091826Y6373522D01*
X4094622Y6380273D01*
X4098682Y6386350D01*
X4103850Y6391518D01*
X4109927Y6395578D01*
X4116678Y6398374D01*
X4123846Y6399800D01*
X4131154Y6399800D01*
X4138322Y6398374D01*
G37*
G36*
X4011322Y6398374D02*
G01*
X4018073Y6395578D01*
X4024150Y6391518D01*
X4029318Y6386350D01*
X4033378Y6380273D01*
X4036174Y6373522D01*
X4037600Y6366354D01*
X4037600Y6359046D01*
X4036174Y6351878D01*
X4033378Y6345127D01*
X4029318Y6339050D01*
X4024150Y6333882D01*
X4018073Y6329822D01*
X4011322Y6327026D01*
X4004154Y6325600D01*
X3996846Y6325600D01*
X3989678Y6327026D01*
X3982927Y6329822D01*
X3976850Y6333882D01*
X3971682Y6339050D01*
X3967622Y6345127D01*
X3964826Y6351878D01*
X3963400Y6359046D01*
X3963400Y6366354D01*
X3964826Y6373522D01*
X3967622Y6380273D01*
X3971682Y6386350D01*
X3976850Y6391518D01*
X3982927Y6395578D01*
X3989678Y6398374D01*
X3996846Y6399800D01*
X4004154Y6399800D01*
X4011322Y6398374D01*
G37*
G36*
X3884322Y6398374D02*
G01*
X3891073Y6395578D01*
X3897150Y6391518D01*
X3902318Y6386350D01*
X3906378Y6380273D01*
X3909174Y6373522D01*
X3910600Y6366354D01*
X3910600Y6359046D01*
X3909174Y6351878D01*
X3906378Y6345127D01*
X3902318Y6339050D01*
X3897150Y6333882D01*
X3891073Y6329822D01*
X3884322Y6327026D01*
X3877154Y6325600D01*
X3869846Y6325600D01*
X3862678Y6327026D01*
X3855927Y6329822D01*
X3849850Y6333882D01*
X3844682Y6339050D01*
X3840622Y6345127D01*
X3837826Y6351878D01*
X3836400Y6359046D01*
X3836400Y6366354D01*
X3837826Y6373522D01*
X3840622Y6380273D01*
X3844682Y6386350D01*
X3849850Y6391518D01*
X3855927Y6395578D01*
X3862678Y6398374D01*
X3869846Y6399800D01*
X3877154Y6399800D01*
X3884322Y6398374D01*
G37*
G36*
X3757322Y6398374D02*
G01*
X3764073Y6395578D01*
X3770150Y6391518D01*
X3775318Y6386350D01*
X3779378Y6380273D01*
X3782174Y6373522D01*
X3783600Y6366354D01*
X3783600Y6359046D01*
X3782174Y6351878D01*
X3779378Y6345127D01*
X3775318Y6339050D01*
X3770150Y6333882D01*
X3764073Y6329822D01*
X3757322Y6327026D01*
X3750154Y6325600D01*
X3742846Y6325600D01*
X3735678Y6327026D01*
X3728927Y6329822D01*
X3722850Y6333882D01*
X3717682Y6339050D01*
X3713622Y6345127D01*
X3710826Y6351878D01*
X3709400Y6359046D01*
X3709400Y6366354D01*
X3710826Y6373522D01*
X3713622Y6380273D01*
X3717682Y6386350D01*
X3722850Y6391518D01*
X3728927Y6395578D01*
X3735678Y6398374D01*
X3742846Y6399800D01*
X3750154Y6399800D01*
X3757322Y6398374D01*
G37*
G36*
X3630322Y6398374D02*
G01*
X3637073Y6395578D01*
X3643150Y6391518D01*
X3648318Y6386350D01*
X3652378Y6380273D01*
X3655174Y6373522D01*
X3656600Y6366354D01*
X3656600Y6359046D01*
X3655174Y6351878D01*
X3652378Y6345127D01*
X3648318Y6339050D01*
X3643150Y6333882D01*
X3637073Y6329822D01*
X3630322Y6327026D01*
X3623154Y6325600D01*
X3615846Y6325600D01*
X3608678Y6327026D01*
X3601927Y6329822D01*
X3595850Y6333882D01*
X3590682Y6339050D01*
X3586622Y6345127D01*
X3583826Y6351878D01*
X3582400Y6359046D01*
X3582400Y6366354D01*
X3583826Y6373522D01*
X3586622Y6380273D01*
X3590682Y6386350D01*
X3595850Y6391518D01*
X3601927Y6395578D01*
X3608678Y6398374D01*
X3615846Y6399800D01*
X3623154Y6399800D01*
X3630322Y6398374D01*
G37*
G36*
X3503322Y6398374D02*
G01*
X3510073Y6395578D01*
X3516150Y6391518D01*
X3521318Y6386350D01*
X3525378Y6380273D01*
X3528174Y6373522D01*
X3529600Y6366354D01*
X3529600Y6359046D01*
X3528174Y6351878D01*
X3525378Y6345127D01*
X3521318Y6339050D01*
X3516150Y6333882D01*
X3510073Y6329822D01*
X3503322Y6327026D01*
X3496154Y6325600D01*
X3488846Y6325600D01*
X3481678Y6327026D01*
X3474927Y6329822D01*
X3468850Y6333882D01*
X3463682Y6339050D01*
X3459622Y6345127D01*
X3456826Y6351878D01*
X3455400Y6359046D01*
X3455400Y6366354D01*
X3456826Y6373522D01*
X3459622Y6380273D01*
X3463682Y6386350D01*
X3468850Y6391518D01*
X3474927Y6395578D01*
X3481678Y6398374D01*
X3488846Y6399800D01*
X3496154Y6399800D01*
X3503322Y6398374D01*
G37*
G36*
X3376322Y6398374D02*
G01*
X3383073Y6395578D01*
X3389150Y6391518D01*
X3394318Y6386350D01*
X3398378Y6380273D01*
X3401174Y6373522D01*
X3402600Y6366354D01*
X3402600Y6359046D01*
X3401174Y6351878D01*
X3398378Y6345127D01*
X3394318Y6339050D01*
X3389150Y6333882D01*
X3383073Y6329822D01*
X3376322Y6327026D01*
X3369154Y6325600D01*
X3361846Y6325600D01*
X3354678Y6327026D01*
X3347927Y6329822D01*
X3341850Y6333882D01*
X3336682Y6339050D01*
X3332622Y6345127D01*
X3329826Y6351878D01*
X3328400Y6359046D01*
X3328400Y6366354D01*
X3329826Y6373522D01*
X3332622Y6380273D01*
X3336682Y6386350D01*
X3341850Y6391518D01*
X3347927Y6395578D01*
X3354678Y6398374D01*
X3361846Y6399800D01*
X3369154Y6399800D01*
X3376322Y6398374D01*
G37*
G36*
X3249322Y6398374D02*
G01*
X3256073Y6395578D01*
X3262150Y6391518D01*
X3267318Y6386350D01*
X3271378Y6380273D01*
X3274174Y6373522D01*
X3275600Y6366354D01*
X3275600Y6359046D01*
X3274174Y6351878D01*
X3271378Y6345127D01*
X3267318Y6339050D01*
X3262150Y6333882D01*
X3256073Y6329822D01*
X3249322Y6327026D01*
X3242154Y6325600D01*
X3234846Y6325600D01*
X3227678Y6327026D01*
X3220927Y6329822D01*
X3214850Y6333882D01*
X3209682Y6339050D01*
X3205622Y6345127D01*
X3202826Y6351878D01*
X3201400Y6359046D01*
X3201400Y6366354D01*
X3202826Y6373522D01*
X3205622Y6380273D01*
X3209682Y6386350D01*
X3214850Y6391518D01*
X3220927Y6395578D01*
X3227678Y6398374D01*
X3234846Y6399800D01*
X3242154Y6399800D01*
X3249322Y6398374D01*
G37*
G36*
X3122322Y6398374D02*
G01*
X3129073Y6395578D01*
X3135150Y6391518D01*
X3140318Y6386350D01*
X3144378Y6380273D01*
X3147174Y6373522D01*
X3148600Y6366354D01*
X3148600Y6359046D01*
X3147174Y6351878D01*
X3144378Y6345127D01*
X3140318Y6339050D01*
X3135150Y6333882D01*
X3129073Y6329822D01*
X3122322Y6327026D01*
X3115154Y6325600D01*
X3107846Y6325600D01*
X3100678Y6327026D01*
X3093927Y6329822D01*
X3087850Y6333882D01*
X3082682Y6339050D01*
X3078622Y6345127D01*
X3075826Y6351878D01*
X3074400Y6359046D01*
X3074400Y6366354D01*
X3075826Y6373522D01*
X3078622Y6380273D01*
X3082682Y6386350D01*
X3087850Y6391518D01*
X3093927Y6395578D01*
X3100678Y6398374D01*
X3107846Y6399800D01*
X3115154Y6399800D01*
X3122322Y6398374D01*
G37*
G36*
X2995322Y6398374D02*
G01*
X3002073Y6395578D01*
X3008150Y6391518D01*
X3013318Y6386350D01*
X3017378Y6380273D01*
X3020174Y6373522D01*
X3021600Y6366354D01*
X3021600Y6359046D01*
X3020174Y6351878D01*
X3017378Y6345127D01*
X3013318Y6339050D01*
X3008150Y6333882D01*
X3002073Y6329822D01*
X2995322Y6327026D01*
X2988154Y6325600D01*
X2980846Y6325600D01*
X2973678Y6327026D01*
X2966927Y6329822D01*
X2960850Y6333882D01*
X2955682Y6339050D01*
X2951622Y6345127D01*
X2948826Y6351878D01*
X2947400Y6359046D01*
X2947400Y6366354D01*
X2948826Y6373522D01*
X2951622Y6380273D01*
X2955682Y6386350D01*
X2960850Y6391518D01*
X2966927Y6395578D01*
X2973678Y6398374D01*
X2980846Y6399800D01*
X2988154Y6399800D01*
X2995322Y6398374D01*
G37*
G36*
X2868322Y6398374D02*
G01*
X2875073Y6395578D01*
X2881150Y6391518D01*
X2886318Y6386350D01*
X2890378Y6380273D01*
X2893174Y6373522D01*
X2894600Y6366354D01*
X2894600Y6359046D01*
X2893174Y6351878D01*
X2890378Y6345127D01*
X2886318Y6339050D01*
X2881150Y6333882D01*
X2875073Y6329822D01*
X2868322Y6327026D01*
X2861154Y6325600D01*
X2853846Y6325600D01*
X2846678Y6327026D01*
X2839927Y6329822D01*
X2833850Y6333882D01*
X2828682Y6339050D01*
X2824622Y6345127D01*
X2821826Y6351878D01*
X2820400Y6359046D01*
X2820400Y6366354D01*
X2821826Y6373522D01*
X2824622Y6380273D01*
X2828682Y6386350D01*
X2833850Y6391518D01*
X2839927Y6395578D01*
X2846678Y6398374D01*
X2853846Y6399800D01*
X2861154Y6399800D01*
X2868322Y6398374D01*
G37*
G36*
X2741322Y6398374D02*
G01*
X2748073Y6395578D01*
X2754150Y6391518D01*
X2759318Y6386350D01*
X2763378Y6380273D01*
X2766174Y6373522D01*
X2767600Y6366354D01*
X2767600Y6359046D01*
X2766174Y6351878D01*
X2763378Y6345127D01*
X2759318Y6339050D01*
X2754150Y6333882D01*
X2748073Y6329822D01*
X2741322Y6327026D01*
X2734154Y6325600D01*
X2726846Y6325600D01*
X2719678Y6327026D01*
X2712927Y6329822D01*
X2706850Y6333882D01*
X2701682Y6339050D01*
X2697622Y6345127D01*
X2694826Y6351878D01*
X2693400Y6359046D01*
X2693400Y6366354D01*
X2694826Y6373522D01*
X2697622Y6380273D01*
X2701682Y6386350D01*
X2706850Y6391518D01*
X2712927Y6395578D01*
X2719678Y6398374D01*
X2726846Y6399800D01*
X2734154Y6399800D01*
X2741322Y6398374D01*
G37*
G36*
X2614322Y6398374D02*
G01*
X2621073Y6395578D01*
X2627150Y6391518D01*
X2632318Y6386350D01*
X2636378Y6380273D01*
X2639174Y6373522D01*
X2640600Y6366354D01*
X2640600Y6359046D01*
X2639174Y6351878D01*
X2636378Y6345127D01*
X2632318Y6339050D01*
X2627150Y6333882D01*
X2621073Y6329822D01*
X2614322Y6327026D01*
X2607154Y6325600D01*
X2599846Y6325600D01*
X2592678Y6327026D01*
X2585927Y6329822D01*
X2579850Y6333882D01*
X2574682Y6339050D01*
X2570622Y6345127D01*
X2567826Y6351878D01*
X2566400Y6359046D01*
X2566400Y6366354D01*
X2567826Y6373522D01*
X2570622Y6380273D01*
X2574682Y6386350D01*
X2579850Y6391518D01*
X2585927Y6395578D01*
X2592678Y6398374D01*
X2599846Y6399800D01*
X2607154Y6399800D01*
X2614322Y6398374D01*
G37*
G36*
X2487322Y6398374D02*
G01*
X2494073Y6395578D01*
X2500150Y6391518D01*
X2505318Y6386350D01*
X2509378Y6380273D01*
X2512174Y6373522D01*
X2513600Y6366354D01*
X2513600Y6359046D01*
X2512174Y6351878D01*
X2509378Y6345127D01*
X2505318Y6339050D01*
X2500150Y6333882D01*
X2494073Y6329822D01*
X2487322Y6327026D01*
X2480154Y6325600D01*
X2472846Y6325600D01*
X2465678Y6327026D01*
X2458927Y6329822D01*
X2452850Y6333882D01*
X2447682Y6339050D01*
X2443622Y6345127D01*
X2440826Y6351878D01*
X2439400Y6359046D01*
X2439400Y6366354D01*
X2440826Y6373522D01*
X2443622Y6380273D01*
X2447682Y6386350D01*
X2452850Y6391518D01*
X2458927Y6395578D01*
X2465678Y6398374D01*
X2472846Y6399800D01*
X2480154Y6399800D01*
X2487322Y6398374D01*
G37*
G36*
X2360322Y6398374D02*
G01*
X2367073Y6395578D01*
X2373150Y6391518D01*
X2378318Y6386350D01*
X2382378Y6380273D01*
X2385174Y6373522D01*
X2386600Y6366354D01*
X2386600Y6359046D01*
X2385174Y6351878D01*
X2382378Y6345127D01*
X2378318Y6339050D01*
X2373150Y6333882D01*
X2367073Y6329822D01*
X2360322Y6327026D01*
X2353154Y6325600D01*
X2345846Y6325600D01*
X2338678Y6327026D01*
X2331927Y6329822D01*
X2325850Y6333882D01*
X2320682Y6339050D01*
X2316622Y6345127D01*
X2313826Y6351878D01*
X2312400Y6359046D01*
X2312400Y6366354D01*
X2313826Y6373522D01*
X2316622Y6380273D01*
X2320682Y6386350D01*
X2325850Y6391518D01*
X2331927Y6395578D01*
X2338678Y6398374D01*
X2345846Y6399800D01*
X2353154Y6399800D01*
X2360322Y6398374D01*
G37*
G36*
X2233322Y6398374D02*
G01*
X2240073Y6395578D01*
X2246150Y6391518D01*
X2251318Y6386350D01*
X2255378Y6380273D01*
X2258174Y6373522D01*
X2259600Y6366354D01*
X2259600Y6359046D01*
X2258174Y6351878D01*
X2255378Y6345127D01*
X2251318Y6339050D01*
X2246150Y6333882D01*
X2240073Y6329822D01*
X2233322Y6327026D01*
X2226154Y6325600D01*
X2218846Y6325600D01*
X2211678Y6327026D01*
X2204927Y6329822D01*
X2198850Y6333882D01*
X2193682Y6339050D01*
X2189622Y6345127D01*
X2186826Y6351878D01*
X2185400Y6359046D01*
X2185400Y6366354D01*
X2186826Y6373522D01*
X2189622Y6380273D01*
X2193682Y6386350D01*
X2198850Y6391518D01*
X2204927Y6395578D01*
X2211678Y6398374D01*
X2218846Y6399800D01*
X2226154Y6399800D01*
X2233322Y6398374D01*
G37*
G36*
X2106322Y6398374D02*
G01*
X2113073Y6395578D01*
X2119150Y6391518D01*
X2124318Y6386350D01*
X2128378Y6380273D01*
X2131174Y6373522D01*
X2132600Y6366354D01*
X2132600Y6359046D01*
X2131174Y6351878D01*
X2128378Y6345127D01*
X2124318Y6339050D01*
X2119150Y6333882D01*
X2113073Y6329822D01*
X2106322Y6327026D01*
X2099154Y6325600D01*
X2091846Y6325600D01*
X2084678Y6327026D01*
X2077927Y6329822D01*
X2071850Y6333882D01*
X2066682Y6339050D01*
X2062622Y6345127D01*
X2059826Y6351878D01*
X2058400Y6359046D01*
X2058400Y6366354D01*
X2059826Y6373522D01*
X2062622Y6380273D01*
X2066682Y6386350D01*
X2071850Y6391518D01*
X2077927Y6395578D01*
X2084678Y6398374D01*
X2091846Y6399800D01*
X2099154Y6399800D01*
X2106322Y6398374D01*
G37*
G36*
X1852322Y6398374D02*
G01*
X1859073Y6395578D01*
X1865150Y6391518D01*
X1870318Y6386350D01*
X1874378Y6380273D01*
X1877174Y6373522D01*
X1878600Y6366354D01*
X1878600Y6359046D01*
X1877174Y6351878D01*
X1874378Y6345127D01*
X1870318Y6339050D01*
X1865150Y6333882D01*
X1859073Y6329822D01*
X1852322Y6327026D01*
X1845154Y6325600D01*
X1837846Y6325600D01*
X1830678Y6327026D01*
X1823927Y6329822D01*
X1817850Y6333882D01*
X1812682Y6339050D01*
X1808622Y6345127D01*
X1805826Y6351878D01*
X1804400Y6359046D01*
X1804400Y6366354D01*
X1805826Y6373522D01*
X1808622Y6380273D01*
X1812682Y6386350D01*
X1817850Y6391518D01*
X1823927Y6395578D01*
X1830678Y6398374D01*
X1837846Y6399800D01*
X1845154Y6399800D01*
X1852322Y6398374D01*
G37*
G36*
X1725322Y6398374D02*
G01*
X1732073Y6395578D01*
X1738150Y6391518D01*
X1743318Y6386350D01*
X1747378Y6380273D01*
X1750174Y6373522D01*
X1751600Y6366354D01*
X1751600Y6359046D01*
X1750174Y6351878D01*
X1747378Y6345127D01*
X1743318Y6339050D01*
X1738150Y6333882D01*
X1732073Y6329822D01*
X1725322Y6327026D01*
X1718154Y6325600D01*
X1710846Y6325600D01*
X1703678Y6327026D01*
X1696927Y6329822D01*
X1690850Y6333882D01*
X1685682Y6339050D01*
X1681622Y6345127D01*
X1678826Y6351878D01*
X1677400Y6359046D01*
X1677400Y6366354D01*
X1678826Y6373522D01*
X1681622Y6380273D01*
X1685682Y6386350D01*
X1690850Y6391518D01*
X1696927Y6395578D01*
X1703678Y6398374D01*
X1710846Y6399800D01*
X1718154Y6399800D01*
X1725322Y6398374D01*
G37*
G36*
X1598322Y6398374D02*
G01*
X1605073Y6395578D01*
X1611150Y6391518D01*
X1616318Y6386350D01*
X1620378Y6380273D01*
X1623174Y6373522D01*
X1624600Y6366354D01*
X1624600Y6359046D01*
X1623174Y6351878D01*
X1620378Y6345127D01*
X1616318Y6339050D01*
X1611150Y6333882D01*
X1605073Y6329822D01*
X1598322Y6327026D01*
X1591154Y6325600D01*
X1583846Y6325600D01*
X1576678Y6327026D01*
X1569927Y6329822D01*
X1563850Y6333882D01*
X1558682Y6339050D01*
X1554622Y6345127D01*
X1551826Y6351878D01*
X1550400Y6359046D01*
X1550400Y6366354D01*
X1551826Y6373522D01*
X1554622Y6380273D01*
X1558682Y6386350D01*
X1563850Y6391518D01*
X1569927Y6395578D01*
X1576678Y6398374D01*
X1583846Y6399800D01*
X1591154Y6399800D01*
X1598322Y6398374D01*
G37*
G36*
X1471322Y6398374D02*
G01*
X1478073Y6395578D01*
X1484150Y6391518D01*
X1489318Y6386350D01*
X1493378Y6380273D01*
X1496174Y6373522D01*
X1497600Y6366354D01*
X1497600Y6359046D01*
X1496174Y6351878D01*
X1493378Y6345127D01*
X1489318Y6339050D01*
X1484150Y6333882D01*
X1478073Y6329822D01*
X1471322Y6327026D01*
X1464154Y6325600D01*
X1456846Y6325600D01*
X1449678Y6327026D01*
X1442927Y6329822D01*
X1436850Y6333882D01*
X1431682Y6339050D01*
X1427622Y6345127D01*
X1424826Y6351878D01*
X1423400Y6359046D01*
X1423400Y6366354D01*
X1424826Y6373522D01*
X1427622Y6380273D01*
X1431682Y6386350D01*
X1436850Y6391518D01*
X1442927Y6395578D01*
X1449678Y6398374D01*
X1456846Y6399800D01*
X1464154Y6399800D01*
X1471322Y6398374D01*
G37*
G36*
X1344322Y6398374D02*
G01*
X1351073Y6395578D01*
X1357150Y6391518D01*
X1362318Y6386350D01*
X1366378Y6380273D01*
X1369174Y6373522D01*
X1370600Y6366354D01*
X1370600Y6359046D01*
X1369174Y6351878D01*
X1366378Y6345127D01*
X1362318Y6339050D01*
X1357150Y6333882D01*
X1351073Y6329822D01*
X1344322Y6327026D01*
X1337154Y6325600D01*
X1329846Y6325600D01*
X1322678Y6327026D01*
X1315927Y6329822D01*
X1309850Y6333882D01*
X1304682Y6339050D01*
X1300622Y6345127D01*
X1297826Y6351878D01*
X1296400Y6359046D01*
X1296400Y6366354D01*
X1297826Y6373522D01*
X1300622Y6380273D01*
X1304682Y6386350D01*
X1309850Y6391518D01*
X1315927Y6395578D01*
X1322678Y6398374D01*
X1329846Y6399800D01*
X1337154Y6399800D01*
X1344322Y6398374D01*
G37*
G36*
X1217322Y6398374D02*
G01*
X1224073Y6395578D01*
X1230150Y6391518D01*
X1235318Y6386350D01*
X1239378Y6380273D01*
X1242174Y6373522D01*
X1243600Y6366354D01*
X1243600Y6359046D01*
X1242174Y6351878D01*
X1239378Y6345127D01*
X1235318Y6339050D01*
X1230150Y6333882D01*
X1224073Y6329822D01*
X1217322Y6327026D01*
X1210154Y6325600D01*
X1202846Y6325600D01*
X1195678Y6327026D01*
X1188927Y6329822D01*
X1182850Y6333882D01*
X1177682Y6339050D01*
X1173622Y6345127D01*
X1170826Y6351878D01*
X1169400Y6359046D01*
X1169400Y6366354D01*
X1170826Y6373522D01*
X1173622Y6380273D01*
X1177682Y6386350D01*
X1182850Y6391518D01*
X1188927Y6395578D01*
X1195678Y6398374D01*
X1202846Y6399800D01*
X1210154Y6399800D01*
X1217322Y6398374D01*
G37*
G36*
X1090322Y6398374D02*
G01*
X1097073Y6395578D01*
X1103150Y6391518D01*
X1108318Y6386350D01*
X1112378Y6380273D01*
X1115174Y6373522D01*
X1116600Y6366354D01*
X1116600Y6359046D01*
X1115174Y6351878D01*
X1112378Y6345127D01*
X1108318Y6339050D01*
X1103150Y6333882D01*
X1097073Y6329822D01*
X1090322Y6327026D01*
X1083154Y6325600D01*
X1075846Y6325600D01*
X1068678Y6327026D01*
X1061927Y6329822D01*
X1055850Y6333882D01*
X1050682Y6339050D01*
X1046622Y6345127D01*
X1043826Y6351878D01*
X1042400Y6359046D01*
X1042400Y6366354D01*
X1043826Y6373522D01*
X1046622Y6380273D01*
X1050682Y6386350D01*
X1055850Y6391518D01*
X1061927Y6395578D01*
X1068678Y6398374D01*
X1075846Y6399800D01*
X1083154Y6399800D01*
X1090322Y6398374D01*
G37*
G36*
X963322Y6398374D02*
G01*
X970073Y6395578D01*
X976150Y6391518D01*
X981318Y6386350D01*
X985378Y6380273D01*
X988174Y6373522D01*
X989600Y6366354D01*
X989600Y6359046D01*
X988174Y6351878D01*
X985378Y6345127D01*
X981318Y6339050D01*
X976150Y6333882D01*
X970073Y6329822D01*
X963322Y6327026D01*
X956154Y6325600D01*
X948846Y6325600D01*
X941678Y6327026D01*
X934927Y6329822D01*
X928850Y6333882D01*
X923682Y6339050D01*
X919622Y6345127D01*
X916826Y6351878D01*
X915400Y6359046D01*
X915400Y6366354D01*
X916826Y6373522D01*
X919622Y6380273D01*
X923682Y6386350D01*
X928850Y6391518D01*
X934927Y6395578D01*
X941678Y6398374D01*
X948846Y6399800D01*
X956154Y6399800D01*
X963322Y6398374D01*
G37*
G36*
X5027322Y6525374D02*
G01*
X5034073Y6522578D01*
X5040150Y6518518D01*
X5045318Y6513350D01*
X5049378Y6507273D01*
X5052174Y6500522D01*
X5053600Y6493354D01*
X5053600Y6486046D01*
X5052174Y6478878D01*
X5049378Y6472127D01*
X5045318Y6466050D01*
X5040150Y6460882D01*
X5034073Y6456822D01*
X5027322Y6454026D01*
X5020154Y6452600D01*
X5012846Y6452600D01*
X5005678Y6454026D01*
X4998927Y6456822D01*
X4992850Y6460882D01*
X4987682Y6466050D01*
X4983622Y6472127D01*
X4980826Y6478878D01*
X4979400Y6486046D01*
X4979400Y6493354D01*
X4980826Y6500522D01*
X4983622Y6507273D01*
X4987682Y6513350D01*
X4992850Y6518518D01*
X4998927Y6522578D01*
X5005678Y6525374D01*
X5012846Y6526800D01*
X5020154Y6526800D01*
X5027322Y6525374D01*
G37*
G36*
X963322Y6525374D02*
G01*
X970073Y6522578D01*
X976150Y6518518D01*
X981318Y6513350D01*
X985378Y6507273D01*
X988174Y6500522D01*
X989600Y6493354D01*
X989600Y6486046D01*
X988174Y6478878D01*
X985378Y6472127D01*
X981318Y6466050D01*
X976150Y6460882D01*
X970073Y6456822D01*
X963322Y6454026D01*
X956154Y6452600D01*
X948846Y6452600D01*
X941678Y6454026D01*
X934927Y6456822D01*
X928850Y6460882D01*
X923682Y6466050D01*
X919622Y6472127D01*
X916826Y6478878D01*
X915400Y6486046D01*
X915400Y6493354D01*
X916826Y6500522D01*
X919622Y6507273D01*
X923682Y6513350D01*
X928850Y6518518D01*
X934927Y6522578D01*
X941678Y6525374D01*
X948846Y6526800D01*
X956154Y6526800D01*
X963322Y6525374D01*
G37*
G36*
X1090322Y6525374D02*
G01*
X1097073Y6522578D01*
X1103150Y6518518D01*
X1108318Y6513350D01*
X1112378Y6507273D01*
X1115174Y6500522D01*
X1116600Y6493354D01*
X1116600Y6486046D01*
X1115174Y6478878D01*
X1112378Y6472127D01*
X1108318Y6466050D01*
X1103150Y6460882D01*
X1097073Y6456822D01*
X1090322Y6454026D01*
X1083154Y6452600D01*
X1075846Y6452600D01*
X1068678Y6454026D01*
X1061927Y6456822D01*
X1055850Y6460882D01*
X1050682Y6466050D01*
X1046622Y6472127D01*
X1043826Y6478878D01*
X1042400Y6486046D01*
X1042400Y6493354D01*
X1043826Y6500522D01*
X1046622Y6507273D01*
X1050682Y6513350D01*
X1055850Y6518518D01*
X1061927Y6522578D01*
X1068678Y6525374D01*
X1075846Y6526800D01*
X1083154Y6526800D01*
X1090322Y6525374D01*
G37*
G36*
X5281322Y6525374D02*
G01*
X5288073Y6522578D01*
X5294150Y6518518D01*
X5299318Y6513350D01*
X5303378Y6507273D01*
X5306174Y6500522D01*
X5307600Y6493354D01*
X5307600Y6486046D01*
X5306174Y6478878D01*
X5303378Y6472127D01*
X5299318Y6466050D01*
X5294150Y6460882D01*
X5288073Y6456822D01*
X5281322Y6454026D01*
X5274154Y6452600D01*
X5266846Y6452600D01*
X5259678Y6454026D01*
X5252927Y6456822D01*
X5246850Y6460882D01*
X5241682Y6466050D01*
X5237622Y6472127D01*
X5234826Y6478878D01*
X5233400Y6486046D01*
X5233400Y6493354D01*
X5234826Y6500522D01*
X5237622Y6507273D01*
X5241682Y6513350D01*
X5246850Y6518518D01*
X5252927Y6522578D01*
X5259678Y6525374D01*
X5266846Y6526800D01*
X5274154Y6526800D01*
X5281322Y6525374D01*
G37*
G36*
X5408322Y6525374D02*
G01*
X5415073Y6522578D01*
X5421150Y6518518D01*
X5426318Y6513350D01*
X5430378Y6507273D01*
X5433174Y6500522D01*
X5434600Y6493354D01*
X5434600Y6486046D01*
X5433174Y6478878D01*
X5430378Y6472127D01*
X5426318Y6466050D01*
X5421150Y6460882D01*
X5415073Y6456822D01*
X5408322Y6454026D01*
X5401154Y6452600D01*
X5393846Y6452600D01*
X5386678Y6454026D01*
X5379927Y6456822D01*
X5373850Y6460882D01*
X5368682Y6466050D01*
X5364622Y6472127D01*
X5361826Y6478878D01*
X5360400Y6486046D01*
X5360400Y6493354D01*
X5361826Y6500522D01*
X5364622Y6507273D01*
X5368682Y6513350D01*
X5373850Y6518518D01*
X5379927Y6522578D01*
X5386678Y6525374D01*
X5393846Y6526800D01*
X5401154Y6526800D01*
X5408322Y6525374D01*
G37*
G36*
X1217322Y6525374D02*
G01*
X1224073Y6522578D01*
X1230150Y6518518D01*
X1235318Y6513350D01*
X1239378Y6507273D01*
X1242174Y6500522D01*
X1243600Y6493354D01*
X1243600Y6486046D01*
X1242174Y6478878D01*
X1239378Y6472127D01*
X1235318Y6466050D01*
X1230150Y6460882D01*
X1224073Y6456822D01*
X1217322Y6454026D01*
X1210154Y6452600D01*
X1202846Y6452600D01*
X1195678Y6454026D01*
X1188927Y6456822D01*
X1182850Y6460882D01*
X1177682Y6466050D01*
X1173622Y6472127D01*
X1170826Y6478878D01*
X1169400Y6486046D01*
X1169400Y6493354D01*
X1170826Y6500522D01*
X1173622Y6507273D01*
X1177682Y6513350D01*
X1182850Y6518518D01*
X1188927Y6522578D01*
X1195678Y6525374D01*
X1202846Y6526800D01*
X1210154Y6526800D01*
X1217322Y6525374D01*
G37*
G36*
X1344322Y6525374D02*
G01*
X1351073Y6522578D01*
X1357150Y6518518D01*
X1362318Y6513350D01*
X1366378Y6507273D01*
X1369174Y6500522D01*
X1370600Y6493354D01*
X1370600Y6486046D01*
X1369174Y6478878D01*
X1366378Y6472127D01*
X1362318Y6466050D01*
X1357150Y6460882D01*
X1351073Y6456822D01*
X1344322Y6454026D01*
X1337154Y6452600D01*
X1329846Y6452600D01*
X1322678Y6454026D01*
X1315927Y6456822D01*
X1309850Y6460882D01*
X1304682Y6466050D01*
X1300622Y6472127D01*
X1297826Y6478878D01*
X1296400Y6486046D01*
X1296400Y6493354D01*
X1297826Y6500522D01*
X1300622Y6507273D01*
X1304682Y6513350D01*
X1309850Y6518518D01*
X1315927Y6522578D01*
X1322678Y6525374D01*
X1329846Y6526800D01*
X1337154Y6526800D01*
X1344322Y6525374D01*
G37*
G36*
X5535322Y6525374D02*
G01*
X5542073Y6522578D01*
X5548150Y6518518D01*
X5553318Y6513350D01*
X5557378Y6507273D01*
X5560174Y6500522D01*
X5561600Y6493354D01*
X5561600Y6486046D01*
X5560174Y6478878D01*
X5557378Y6472127D01*
X5553318Y6466050D01*
X5548150Y6460882D01*
X5542073Y6456822D01*
X5535322Y6454026D01*
X5528154Y6452600D01*
X5520846Y6452600D01*
X5513678Y6454026D01*
X5506927Y6456822D01*
X5500850Y6460882D01*
X5495682Y6466050D01*
X5491622Y6472127D01*
X5488826Y6478878D01*
X5487400Y6486046D01*
X5487400Y6493354D01*
X5488826Y6500522D01*
X5491622Y6507273D01*
X5495682Y6513350D01*
X5500850Y6518518D01*
X5506927Y6522578D01*
X5513678Y6525374D01*
X5520846Y6526800D01*
X5528154Y6526800D01*
X5535322Y6525374D01*
G37*
G36*
X5662322Y6525374D02*
G01*
X5669073Y6522578D01*
X5675150Y6518518D01*
X5680318Y6513350D01*
X5684378Y6507273D01*
X5687174Y6500522D01*
X5688600Y6493354D01*
X5688600Y6486046D01*
X5687174Y6478878D01*
X5684378Y6472127D01*
X5680318Y6466050D01*
X5675150Y6460882D01*
X5669073Y6456822D01*
X5662322Y6454026D01*
X5655154Y6452600D01*
X5647846Y6452600D01*
X5640678Y6454026D01*
X5633927Y6456822D01*
X5627850Y6460882D01*
X5622682Y6466050D01*
X5618622Y6472127D01*
X5615826Y6478878D01*
X5614400Y6486046D01*
X5614400Y6493354D01*
X5615826Y6500522D01*
X5618622Y6507273D01*
X5622682Y6513350D01*
X5627850Y6518518D01*
X5633927Y6522578D01*
X5640678Y6525374D01*
X5647846Y6526800D01*
X5655154Y6526800D01*
X5662322Y6525374D01*
G37*
G36*
X1471322Y6525374D02*
G01*
X1478073Y6522578D01*
X1484150Y6518518D01*
X1489318Y6513350D01*
X1493378Y6507273D01*
X1496174Y6500522D01*
X1497600Y6493354D01*
X1497600Y6486046D01*
X1496174Y6478878D01*
X1493378Y6472127D01*
X1489318Y6466050D01*
X1484150Y6460882D01*
X1478073Y6456822D01*
X1471322Y6454026D01*
X1464154Y6452600D01*
X1456846Y6452600D01*
X1449678Y6454026D01*
X1442927Y6456822D01*
X1436850Y6460882D01*
X1431682Y6466050D01*
X1427622Y6472127D01*
X1424826Y6478878D01*
X1423400Y6486046D01*
X1423400Y6493354D01*
X1424826Y6500522D01*
X1427622Y6507273D01*
X1431682Y6513350D01*
X1436850Y6518518D01*
X1442927Y6522578D01*
X1449678Y6525374D01*
X1456846Y6526800D01*
X1464154Y6526800D01*
X1471322Y6525374D01*
G37*
G36*
X1598322Y6525374D02*
G01*
X1605073Y6522578D01*
X1611150Y6518518D01*
X1616318Y6513350D01*
X1620378Y6507273D01*
X1623174Y6500522D01*
X1624600Y6493354D01*
X1624600Y6486046D01*
X1623174Y6478878D01*
X1620378Y6472127D01*
X1616318Y6466050D01*
X1611150Y6460882D01*
X1605073Y6456822D01*
X1598322Y6454026D01*
X1591154Y6452600D01*
X1583846Y6452600D01*
X1576678Y6454026D01*
X1569927Y6456822D01*
X1563850Y6460882D01*
X1558682Y6466050D01*
X1554622Y6472127D01*
X1551826Y6478878D01*
X1550400Y6486046D01*
X1550400Y6493354D01*
X1551826Y6500522D01*
X1554622Y6507273D01*
X1558682Y6513350D01*
X1563850Y6518518D01*
X1569927Y6522578D01*
X1576678Y6525374D01*
X1583846Y6526800D01*
X1591154Y6526800D01*
X1598322Y6525374D01*
G37*
G36*
X1725322Y6525374D02*
G01*
X1732073Y6522578D01*
X1738150Y6518518D01*
X1743318Y6513350D01*
X1747378Y6507273D01*
X1750174Y6500522D01*
X1751600Y6493354D01*
X1751600Y6486046D01*
X1750174Y6478878D01*
X1747378Y6472127D01*
X1743318Y6466050D01*
X1738150Y6460882D01*
X1732073Y6456822D01*
X1725322Y6454026D01*
X1718154Y6452600D01*
X1710846Y6452600D01*
X1703678Y6454026D01*
X1696927Y6456822D01*
X1690850Y6460882D01*
X1685682Y6466050D01*
X1681622Y6472127D01*
X1678826Y6478878D01*
X1677400Y6486046D01*
X1677400Y6493354D01*
X1678826Y6500522D01*
X1681622Y6507273D01*
X1685682Y6513350D01*
X1690850Y6518518D01*
X1696927Y6522578D01*
X1703678Y6525374D01*
X1710846Y6526800D01*
X1718154Y6526800D01*
X1725322Y6525374D01*
G37*
G36*
X5154322Y6525374D02*
G01*
X5161073Y6522578D01*
X5167150Y6518518D01*
X5172318Y6513350D01*
X5176378Y6507273D01*
X5179174Y6500522D01*
X5180600Y6493354D01*
X5180600Y6486046D01*
X5179174Y6478878D01*
X5176378Y6472127D01*
X5172318Y6466050D01*
X5167150Y6460882D01*
X5161073Y6456822D01*
X5154322Y6454026D01*
X5147154Y6452600D01*
X5139846Y6452600D01*
X5132678Y6454026D01*
X5125927Y6456822D01*
X5119850Y6460882D01*
X5114682Y6466050D01*
X5110622Y6472127D01*
X5107826Y6478878D01*
X5106400Y6486046D01*
X5106400Y6493354D01*
X5107826Y6500522D01*
X5110622Y6507273D01*
X5114682Y6513350D01*
X5119850Y6518518D01*
X5125927Y6522578D01*
X5132678Y6525374D01*
X5139846Y6526800D01*
X5147154Y6526800D01*
X5154322Y6525374D01*
G37*
G36*
X1852322Y6525374D02*
G01*
X1859073Y6522578D01*
X1865150Y6518518D01*
X1870318Y6513350D01*
X1874378Y6507273D01*
X1877174Y6500522D01*
X1878600Y6493354D01*
X1878600Y6486046D01*
X1877174Y6478878D01*
X1874378Y6472127D01*
X1870318Y6466050D01*
X1865150Y6460882D01*
X1859073Y6456822D01*
X1852322Y6454026D01*
X1845154Y6452600D01*
X1837846Y6452600D01*
X1830678Y6454026D01*
X1823927Y6456822D01*
X1817850Y6460882D01*
X1812682Y6466050D01*
X1808622Y6472127D01*
X1805826Y6478878D01*
X1804400Y6486046D01*
X1804400Y6493354D01*
X1805826Y6500522D01*
X1808622Y6507273D01*
X1812682Y6513350D01*
X1817850Y6518518D01*
X1823927Y6522578D01*
X1830678Y6525374D01*
X1837846Y6526800D01*
X1845154Y6526800D01*
X1852322Y6525374D01*
G37*
G36*
X1979322Y6525374D02*
G01*
X1986073Y6522578D01*
X1992150Y6518518D01*
X1997318Y6513350D01*
X2001378Y6507273D01*
X2004174Y6500522D01*
X2005600Y6493354D01*
X2005600Y6486046D01*
X2004174Y6478878D01*
X2001378Y6472127D01*
X1997318Y6466050D01*
X1992150Y6460882D01*
X1986073Y6456822D01*
X1979322Y6454026D01*
X1972154Y6452600D01*
X1964846Y6452600D01*
X1957678Y6454026D01*
X1950927Y6456822D01*
X1944850Y6460882D01*
X1939682Y6466050D01*
X1935622Y6472127D01*
X1932826Y6478878D01*
X1931400Y6486046D01*
X1931400Y6493354D01*
X1932826Y6500522D01*
X1935622Y6507273D01*
X1939682Y6513350D01*
X1944850Y6518518D01*
X1950927Y6522578D01*
X1957678Y6525374D01*
X1964846Y6526800D01*
X1972154Y6526800D01*
X1979322Y6525374D01*
G37*
G36*
X2106322Y6525374D02*
G01*
X2113073Y6522578D01*
X2119150Y6518518D01*
X2124318Y6513350D01*
X2128378Y6507273D01*
X2131174Y6500522D01*
X2132600Y6493354D01*
X2132600Y6486046D01*
X2131174Y6478878D01*
X2128378Y6472127D01*
X2124318Y6466050D01*
X2119150Y6460882D01*
X2113073Y6456822D01*
X2106322Y6454026D01*
X2099154Y6452600D01*
X2091846Y6452600D01*
X2084678Y6454026D01*
X2077927Y6456822D01*
X2071850Y6460882D01*
X2066682Y6466050D01*
X2062622Y6472127D01*
X2059826Y6478878D01*
X2058400Y6486046D01*
X2058400Y6493354D01*
X2059826Y6500522D01*
X2062622Y6507273D01*
X2066682Y6513350D01*
X2071850Y6518518D01*
X2077927Y6522578D01*
X2084678Y6525374D01*
X2091846Y6526800D01*
X2099154Y6526800D01*
X2106322Y6525374D01*
G37*
G36*
X2233322Y6525374D02*
G01*
X2240073Y6522578D01*
X2246150Y6518518D01*
X2251318Y6513350D01*
X2255378Y6507273D01*
X2258174Y6500522D01*
X2259600Y6493354D01*
X2259600Y6486046D01*
X2258174Y6478878D01*
X2255378Y6472127D01*
X2251318Y6466050D01*
X2246150Y6460882D01*
X2240073Y6456822D01*
X2233322Y6454026D01*
X2226154Y6452600D01*
X2218846Y6452600D01*
X2211678Y6454026D01*
X2204927Y6456822D01*
X2198850Y6460882D01*
X2193682Y6466050D01*
X2189622Y6472127D01*
X2186826Y6478878D01*
X2185400Y6486046D01*
X2185400Y6493354D01*
X2186826Y6500522D01*
X2189622Y6507273D01*
X2193682Y6513350D01*
X2198850Y6518518D01*
X2204927Y6522578D01*
X2211678Y6525374D01*
X2218846Y6526800D01*
X2226154Y6526800D01*
X2233322Y6525374D01*
G37*
G36*
X5789322Y6525374D02*
G01*
X5796073Y6522578D01*
X5802150Y6518518D01*
X5807318Y6513350D01*
X5811378Y6507273D01*
X5814174Y6500522D01*
X5815600Y6493354D01*
X5815600Y6486046D01*
X5814174Y6478878D01*
X5811378Y6472127D01*
X5807318Y6466050D01*
X5802150Y6460882D01*
X5796073Y6456822D01*
X5789322Y6454026D01*
X5782154Y6452600D01*
X5774846Y6452600D01*
X5767678Y6454026D01*
X5760927Y6456822D01*
X5754850Y6460882D01*
X5749682Y6466050D01*
X5745622Y6472127D01*
X5742826Y6478878D01*
X5741400Y6486046D01*
X5741400Y6493354D01*
X5742826Y6500522D01*
X5745622Y6507273D01*
X5749682Y6513350D01*
X5754850Y6518518D01*
X5760927Y6522578D01*
X5767678Y6525374D01*
X5774846Y6526800D01*
X5782154Y6526800D01*
X5789322Y6525374D01*
G37*
G36*
X5916322Y6525374D02*
G01*
X5923073Y6522578D01*
X5929150Y6518518D01*
X5934318Y6513350D01*
X5938378Y6507273D01*
X5941174Y6500522D01*
X5942600Y6493354D01*
X5942600Y6486046D01*
X5941174Y6478878D01*
X5938378Y6472127D01*
X5934318Y6466050D01*
X5929150Y6460882D01*
X5923073Y6456822D01*
X5916322Y6454026D01*
X5909154Y6452600D01*
X5901846Y6452600D01*
X5894678Y6454026D01*
X5887927Y6456822D01*
X5881850Y6460882D01*
X5876682Y6466050D01*
X5872622Y6472127D01*
X5869826Y6478878D01*
X5868400Y6486046D01*
X5868400Y6493354D01*
X5869826Y6500522D01*
X5872622Y6507273D01*
X5876682Y6513350D01*
X5881850Y6518518D01*
X5887927Y6522578D01*
X5894678Y6525374D01*
X5901846Y6526800D01*
X5909154Y6526800D01*
X5916322Y6525374D01*
G37*
G36*
X4900322Y6525374D02*
G01*
X4907073Y6522578D01*
X4913150Y6518518D01*
X4918318Y6513350D01*
X4922378Y6507273D01*
X4925174Y6500522D01*
X4926600Y6493354D01*
X4926600Y6486046D01*
X4925174Y6478878D01*
X4922378Y6472127D01*
X4918318Y6466050D01*
X4913150Y6460882D01*
X4907073Y6456822D01*
X4900322Y6454026D01*
X4893154Y6452600D01*
X4885846Y6452600D01*
X4878678Y6454026D01*
X4871927Y6456822D01*
X4865850Y6460882D01*
X4860682Y6466050D01*
X4856622Y6472127D01*
X4853826Y6478878D01*
X4852400Y6486046D01*
X4852400Y6493354D01*
X4853826Y6500522D01*
X4856622Y6507273D01*
X4860682Y6513350D01*
X4865850Y6518518D01*
X4871927Y6522578D01*
X4878678Y6525374D01*
X4885846Y6526800D01*
X4893154Y6526800D01*
X4900322Y6525374D01*
G37*
G36*
X4773322Y6525374D02*
G01*
X4780073Y6522578D01*
X4786150Y6518518D01*
X4791318Y6513350D01*
X4795378Y6507273D01*
X4798174Y6500522D01*
X4799600Y6493354D01*
X4799600Y6486046D01*
X4798174Y6478878D01*
X4795378Y6472127D01*
X4791318Y6466050D01*
X4786150Y6460882D01*
X4780073Y6456822D01*
X4773322Y6454026D01*
X4766154Y6452600D01*
X4758846Y6452600D01*
X4751678Y6454026D01*
X4744927Y6456822D01*
X4738850Y6460882D01*
X4733682Y6466050D01*
X4729622Y6472127D01*
X4726826Y6478878D01*
X4725400Y6486046D01*
X4725400Y6493354D01*
X4726826Y6500522D01*
X4729622Y6507273D01*
X4733682Y6513350D01*
X4738850Y6518518D01*
X4744927Y6522578D01*
X4751678Y6525374D01*
X4758846Y6526800D01*
X4766154Y6526800D01*
X4773322Y6525374D01*
G37*
G36*
X4646322Y6525374D02*
G01*
X4653073Y6522578D01*
X4659150Y6518518D01*
X4664318Y6513350D01*
X4668378Y6507273D01*
X4671174Y6500522D01*
X4672600Y6493354D01*
X4672600Y6486046D01*
X4671174Y6478878D01*
X4668378Y6472127D01*
X4664318Y6466050D01*
X4659150Y6460882D01*
X4653073Y6456822D01*
X4646322Y6454026D01*
X4639154Y6452600D01*
X4631846Y6452600D01*
X4624678Y6454026D01*
X4617927Y6456822D01*
X4611850Y6460882D01*
X4606682Y6466050D01*
X4602622Y6472127D01*
X4599826Y6478878D01*
X4598400Y6486046D01*
X4598400Y6493354D01*
X4599826Y6500522D01*
X4602622Y6507273D01*
X4606682Y6513350D01*
X4611850Y6518518D01*
X4617927Y6522578D01*
X4624678Y6525374D01*
X4631846Y6526800D01*
X4639154Y6526800D01*
X4646322Y6525374D01*
G37*
G36*
X4519322Y6525374D02*
G01*
X4526073Y6522578D01*
X4532150Y6518518D01*
X4537318Y6513350D01*
X4541378Y6507273D01*
X4544174Y6500522D01*
X4545600Y6493354D01*
X4545600Y6486046D01*
X4544174Y6478878D01*
X4541378Y6472127D01*
X4537318Y6466050D01*
X4532150Y6460882D01*
X4526073Y6456822D01*
X4519322Y6454026D01*
X4512154Y6452600D01*
X4504846Y6452600D01*
X4497678Y6454026D01*
X4490927Y6456822D01*
X4484850Y6460882D01*
X4479682Y6466050D01*
X4475622Y6472127D01*
X4472826Y6478878D01*
X4471400Y6486046D01*
X4471400Y6493354D01*
X4472826Y6500522D01*
X4475622Y6507273D01*
X4479682Y6513350D01*
X4484850Y6518518D01*
X4490927Y6522578D01*
X4497678Y6525374D01*
X4504846Y6526800D01*
X4512154Y6526800D01*
X4519322Y6525374D01*
G37*
G36*
X4392322Y6525374D02*
G01*
X4399073Y6522578D01*
X4405150Y6518518D01*
X4410318Y6513350D01*
X4414378Y6507273D01*
X4417174Y6500522D01*
X4418600Y6493354D01*
X4418600Y6486046D01*
X4417174Y6478878D01*
X4414378Y6472127D01*
X4410318Y6466050D01*
X4405150Y6460882D01*
X4399073Y6456822D01*
X4392322Y6454026D01*
X4385154Y6452600D01*
X4377846Y6452600D01*
X4370678Y6454026D01*
X4363927Y6456822D01*
X4357850Y6460882D01*
X4352682Y6466050D01*
X4348622Y6472127D01*
X4345826Y6478878D01*
X4344400Y6486046D01*
X4344400Y6493354D01*
X4345826Y6500522D01*
X4348622Y6507273D01*
X4352682Y6513350D01*
X4357850Y6518518D01*
X4363927Y6522578D01*
X4370678Y6525374D01*
X4377846Y6526800D01*
X4385154Y6526800D01*
X4392322Y6525374D01*
G37*
G36*
X4265322Y6525374D02*
G01*
X4272073Y6522578D01*
X4278150Y6518518D01*
X4283318Y6513350D01*
X4287378Y6507273D01*
X4290174Y6500522D01*
X4291600Y6493354D01*
X4291600Y6486046D01*
X4290174Y6478878D01*
X4287378Y6472127D01*
X4283318Y6466050D01*
X4278150Y6460882D01*
X4272073Y6456822D01*
X4265322Y6454026D01*
X4258154Y6452600D01*
X4250846Y6452600D01*
X4243678Y6454026D01*
X4236927Y6456822D01*
X4230850Y6460882D01*
X4225682Y6466050D01*
X4221622Y6472127D01*
X4218826Y6478878D01*
X4217400Y6486046D01*
X4217400Y6493354D01*
X4218826Y6500522D01*
X4221622Y6507273D01*
X4225682Y6513350D01*
X4230850Y6518518D01*
X4236927Y6522578D01*
X4243678Y6525374D01*
X4250846Y6526800D01*
X4258154Y6526800D01*
X4265322Y6525374D01*
G37*
G36*
X2360322Y6525374D02*
G01*
X2367073Y6522578D01*
X2373150Y6518518D01*
X2378318Y6513350D01*
X2382378Y6507273D01*
X2385174Y6500522D01*
X2386600Y6493354D01*
X2386600Y6486046D01*
X2385174Y6478878D01*
X2382378Y6472127D01*
X2378318Y6466050D01*
X2373150Y6460882D01*
X2367073Y6456822D01*
X2360322Y6454026D01*
X2353154Y6452600D01*
X2345846Y6452600D01*
X2338678Y6454026D01*
X2331927Y6456822D01*
X2325850Y6460882D01*
X2320682Y6466050D01*
X2316622Y6472127D01*
X2313826Y6478878D01*
X2312400Y6486046D01*
X2312400Y6493354D01*
X2313826Y6500522D01*
X2316622Y6507273D01*
X2320682Y6513350D01*
X2325850Y6518518D01*
X2331927Y6522578D01*
X2338678Y6525374D01*
X2345846Y6526800D01*
X2353154Y6526800D01*
X2360322Y6525374D01*
G37*
G36*
X2487322Y6525374D02*
G01*
X2494073Y6522578D01*
X2500150Y6518518D01*
X2505318Y6513350D01*
X2509378Y6507273D01*
X2512174Y6500522D01*
X2513600Y6493354D01*
X2513600Y6486046D01*
X2512174Y6478878D01*
X2509378Y6472127D01*
X2505318Y6466050D01*
X2500150Y6460882D01*
X2494073Y6456822D01*
X2487322Y6454026D01*
X2480154Y6452600D01*
X2472846Y6452600D01*
X2465678Y6454026D01*
X2458927Y6456822D01*
X2452850Y6460882D01*
X2447682Y6466050D01*
X2443622Y6472127D01*
X2440826Y6478878D01*
X2439400Y6486046D01*
X2439400Y6493354D01*
X2440826Y6500522D01*
X2443622Y6507273D01*
X2447682Y6513350D01*
X2452850Y6518518D01*
X2458927Y6522578D01*
X2465678Y6525374D01*
X2472846Y6526800D01*
X2480154Y6526800D01*
X2487322Y6525374D01*
G37*
G36*
X2614322Y6525374D02*
G01*
X2621073Y6522578D01*
X2627150Y6518518D01*
X2632318Y6513350D01*
X2636378Y6507273D01*
X2639174Y6500522D01*
X2640600Y6493354D01*
X2640600Y6486046D01*
X2639174Y6478878D01*
X2636378Y6472127D01*
X2632318Y6466050D01*
X2627150Y6460882D01*
X2621073Y6456822D01*
X2614322Y6454026D01*
X2607154Y6452600D01*
X2599846Y6452600D01*
X2592678Y6454026D01*
X2585927Y6456822D01*
X2579850Y6460882D01*
X2574682Y6466050D01*
X2570622Y6472127D01*
X2567826Y6478878D01*
X2566400Y6486046D01*
X2566400Y6493354D01*
X2567826Y6500522D01*
X2570622Y6507273D01*
X2574682Y6513350D01*
X2579850Y6518518D01*
X2585927Y6522578D01*
X2592678Y6525374D01*
X2599846Y6526800D01*
X2607154Y6526800D01*
X2614322Y6525374D01*
G37*
G36*
X4138322Y6525374D02*
G01*
X4145073Y6522578D01*
X4151150Y6518518D01*
X4156318Y6513350D01*
X4160378Y6507273D01*
X4163174Y6500522D01*
X4164600Y6493354D01*
X4164600Y6486046D01*
X4163174Y6478878D01*
X4160378Y6472127D01*
X4156318Y6466050D01*
X4151150Y6460882D01*
X4145073Y6456822D01*
X4138322Y6454026D01*
X4131154Y6452600D01*
X4123846Y6452600D01*
X4116678Y6454026D01*
X4109927Y6456822D01*
X4103850Y6460882D01*
X4098682Y6466050D01*
X4094622Y6472127D01*
X4091826Y6478878D01*
X4090400Y6486046D01*
X4090400Y6493354D01*
X4091826Y6500522D01*
X4094622Y6507273D01*
X4098682Y6513350D01*
X4103850Y6518518D01*
X4109927Y6522578D01*
X4116678Y6525374D01*
X4123846Y6526800D01*
X4131154Y6526800D01*
X4138322Y6525374D01*
G37*
G36*
X4011322Y6525374D02*
G01*
X4018073Y6522578D01*
X4024150Y6518518D01*
X4029318Y6513350D01*
X4033378Y6507273D01*
X4036174Y6500522D01*
X4037600Y6493354D01*
X4037600Y6486046D01*
X4036174Y6478878D01*
X4033378Y6472127D01*
X4029318Y6466050D01*
X4024150Y6460882D01*
X4018073Y6456822D01*
X4011322Y6454026D01*
X4004154Y6452600D01*
X3996846Y6452600D01*
X3989678Y6454026D01*
X3982927Y6456822D01*
X3976850Y6460882D01*
X3971682Y6466050D01*
X3967622Y6472127D01*
X3964826Y6478878D01*
X3963400Y6486046D01*
X3963400Y6493354D01*
X3964826Y6500522D01*
X3967622Y6507273D01*
X3971682Y6513350D01*
X3976850Y6518518D01*
X3982927Y6522578D01*
X3989678Y6525374D01*
X3996846Y6526800D01*
X4004154Y6526800D01*
X4011322Y6525374D01*
G37*
G36*
X3884322Y6525374D02*
G01*
X3891073Y6522578D01*
X3897150Y6518518D01*
X3902318Y6513350D01*
X3906378Y6507273D01*
X3909174Y6500522D01*
X3910600Y6493354D01*
X3910600Y6486046D01*
X3909174Y6478878D01*
X3906378Y6472127D01*
X3902318Y6466050D01*
X3897150Y6460882D01*
X3891073Y6456822D01*
X3884322Y6454026D01*
X3877154Y6452600D01*
X3869846Y6452600D01*
X3862678Y6454026D01*
X3855927Y6456822D01*
X3849850Y6460882D01*
X3844682Y6466050D01*
X3840622Y6472127D01*
X3837826Y6478878D01*
X3836400Y6486046D01*
X3836400Y6493354D01*
X3837826Y6500522D01*
X3840622Y6507273D01*
X3844682Y6513350D01*
X3849850Y6518518D01*
X3855927Y6522578D01*
X3862678Y6525374D01*
X3869846Y6526800D01*
X3877154Y6526800D01*
X3884322Y6525374D01*
G37*
G36*
X3757322Y6525374D02*
G01*
X3764073Y6522578D01*
X3770150Y6518518D01*
X3775318Y6513350D01*
X3779378Y6507273D01*
X3782174Y6500522D01*
X3783600Y6493354D01*
X3783600Y6486046D01*
X3782174Y6478878D01*
X3779378Y6472127D01*
X3775318Y6466050D01*
X3770150Y6460882D01*
X3764073Y6456822D01*
X3757322Y6454026D01*
X3750154Y6452600D01*
X3742846Y6452600D01*
X3735678Y6454026D01*
X3728927Y6456822D01*
X3722850Y6460882D01*
X3717682Y6466050D01*
X3713622Y6472127D01*
X3710826Y6478878D01*
X3709400Y6486046D01*
X3709400Y6493354D01*
X3710826Y6500522D01*
X3713622Y6507273D01*
X3717682Y6513350D01*
X3722850Y6518518D01*
X3728927Y6522578D01*
X3735678Y6525374D01*
X3742846Y6526800D01*
X3750154Y6526800D01*
X3757322Y6525374D01*
G37*
G36*
X3630322Y6525374D02*
G01*
X3637073Y6522578D01*
X3643150Y6518518D01*
X3648318Y6513350D01*
X3652378Y6507273D01*
X3655174Y6500522D01*
X3656600Y6493354D01*
X3656600Y6486046D01*
X3655174Y6478878D01*
X3652378Y6472127D01*
X3648318Y6466050D01*
X3643150Y6460882D01*
X3637073Y6456822D01*
X3630322Y6454026D01*
X3623154Y6452600D01*
X3615846Y6452600D01*
X3608678Y6454026D01*
X3601927Y6456822D01*
X3595850Y6460882D01*
X3590682Y6466050D01*
X3586622Y6472127D01*
X3583826Y6478878D01*
X3582400Y6486046D01*
X3582400Y6493354D01*
X3583826Y6500522D01*
X3586622Y6507273D01*
X3590682Y6513350D01*
X3595850Y6518518D01*
X3601927Y6522578D01*
X3608678Y6525374D01*
X3615846Y6526800D01*
X3623154Y6526800D01*
X3630322Y6525374D01*
G37*
G36*
X3503322Y6525374D02*
G01*
X3510073Y6522578D01*
X3516150Y6518518D01*
X3521318Y6513350D01*
X3525378Y6507273D01*
X3528174Y6500522D01*
X3529600Y6493354D01*
X3529600Y6486046D01*
X3528174Y6478878D01*
X3525378Y6472127D01*
X3521318Y6466050D01*
X3516150Y6460882D01*
X3510073Y6456822D01*
X3503322Y6454026D01*
X3496154Y6452600D01*
X3488846Y6452600D01*
X3481678Y6454026D01*
X3474927Y6456822D01*
X3468850Y6460882D01*
X3463682Y6466050D01*
X3459622Y6472127D01*
X3456826Y6478878D01*
X3455400Y6486046D01*
X3455400Y6493354D01*
X3456826Y6500522D01*
X3459622Y6507273D01*
X3463682Y6513350D01*
X3468850Y6518518D01*
X3474927Y6522578D01*
X3481678Y6525374D01*
X3488846Y6526800D01*
X3496154Y6526800D01*
X3503322Y6525374D01*
G37*
G36*
X2741322Y6525374D02*
G01*
X2748073Y6522578D01*
X2754150Y6518518D01*
X2759318Y6513350D01*
X2763378Y6507273D01*
X2766174Y6500522D01*
X2767600Y6493354D01*
X2767600Y6486046D01*
X2766174Y6478878D01*
X2763378Y6472127D01*
X2759318Y6466050D01*
X2754150Y6460882D01*
X2748073Y6456822D01*
X2741322Y6454026D01*
X2734154Y6452600D01*
X2726846Y6452600D01*
X2719678Y6454026D01*
X2712927Y6456822D01*
X2706850Y6460882D01*
X2701682Y6466050D01*
X2697622Y6472127D01*
X2694826Y6478878D01*
X2693400Y6486046D01*
X2693400Y6493354D01*
X2694826Y6500522D01*
X2697622Y6507273D01*
X2701682Y6513350D01*
X2706850Y6518518D01*
X2712927Y6522578D01*
X2719678Y6525374D01*
X2726846Y6526800D01*
X2734154Y6526800D01*
X2741322Y6525374D01*
G37*
G36*
X3376322Y6525374D02*
G01*
X3383073Y6522578D01*
X3389150Y6518518D01*
X3394318Y6513350D01*
X3398378Y6507273D01*
X3401174Y6500522D01*
X3402600Y6493354D01*
X3402600Y6486046D01*
X3401174Y6478878D01*
X3398378Y6472127D01*
X3394318Y6466050D01*
X3389150Y6460882D01*
X3383073Y6456822D01*
X3376322Y6454026D01*
X3369154Y6452600D01*
X3361846Y6452600D01*
X3354678Y6454026D01*
X3347927Y6456822D01*
X3341850Y6460882D01*
X3336682Y6466050D01*
X3332622Y6472127D01*
X3329826Y6478878D01*
X3328400Y6486046D01*
X3328400Y6493354D01*
X3329826Y6500522D01*
X3332622Y6507273D01*
X3336682Y6513350D01*
X3341850Y6518518D01*
X3347927Y6522578D01*
X3354678Y6525374D01*
X3361846Y6526800D01*
X3369154Y6526800D01*
X3376322Y6525374D01*
G37*
G36*
X3249322Y6525374D02*
G01*
X3256073Y6522578D01*
X3262150Y6518518D01*
X3267318Y6513350D01*
X3271378Y6507273D01*
X3274174Y6500522D01*
X3275600Y6493354D01*
X3275600Y6486046D01*
X3274174Y6478878D01*
X3271378Y6472127D01*
X3267318Y6466050D01*
X3262150Y6460882D01*
X3256073Y6456822D01*
X3249322Y6454026D01*
X3242154Y6452600D01*
X3234846Y6452600D01*
X3227678Y6454026D01*
X3220927Y6456822D01*
X3214850Y6460882D01*
X3209682Y6466050D01*
X3205622Y6472127D01*
X3202826Y6478878D01*
X3201400Y6486046D01*
X3201400Y6493354D01*
X3202826Y6500522D01*
X3205622Y6507273D01*
X3209682Y6513350D01*
X3214850Y6518518D01*
X3220927Y6522578D01*
X3227678Y6525374D01*
X3234846Y6526800D01*
X3242154Y6526800D01*
X3249322Y6525374D01*
G37*
G36*
X3122322Y6525374D02*
G01*
X3129073Y6522578D01*
X3135150Y6518518D01*
X3140318Y6513350D01*
X3144378Y6507273D01*
X3147174Y6500522D01*
X3148600Y6493354D01*
X3148600Y6486046D01*
X3147174Y6478878D01*
X3144378Y6472127D01*
X3140318Y6466050D01*
X3135150Y6460882D01*
X3129073Y6456822D01*
X3122322Y6454026D01*
X3115154Y6452600D01*
X3107846Y6452600D01*
X3100678Y6454026D01*
X3093927Y6456822D01*
X3087850Y6460882D01*
X3082682Y6466050D01*
X3078622Y6472127D01*
X3075826Y6478878D01*
X3074400Y6486046D01*
X3074400Y6493354D01*
X3075826Y6500522D01*
X3078622Y6507273D01*
X3082682Y6513350D01*
X3087850Y6518518D01*
X3093927Y6522578D01*
X3100678Y6525374D01*
X3107846Y6526800D01*
X3115154Y6526800D01*
X3122322Y6525374D01*
G37*
G36*
X2995322Y6525374D02*
G01*
X3002073Y6522578D01*
X3008150Y6518518D01*
X3013318Y6513350D01*
X3017378Y6507273D01*
X3020174Y6500522D01*
X3021600Y6493354D01*
X3021600Y6486046D01*
X3020174Y6478878D01*
X3017378Y6472127D01*
X3013318Y6466050D01*
X3008150Y6460882D01*
X3002073Y6456822D01*
X2995322Y6454026D01*
X2988154Y6452600D01*
X2980846Y6452600D01*
X2973678Y6454026D01*
X2966927Y6456822D01*
X2960850Y6460882D01*
X2955682Y6466050D01*
X2951622Y6472127D01*
X2948826Y6478878D01*
X2947400Y6486046D01*
X2947400Y6493354D01*
X2948826Y6500522D01*
X2951622Y6507273D01*
X2955682Y6513350D01*
X2960850Y6518518D01*
X2966927Y6522578D01*
X2973678Y6525374D01*
X2980846Y6526800D01*
X2988154Y6526800D01*
X2995322Y6525374D01*
G37*
G36*
X2868322Y6525374D02*
G01*
X2875073Y6522578D01*
X2881150Y6518518D01*
X2886318Y6513350D01*
X2890378Y6507273D01*
X2893174Y6500522D01*
X2894600Y6493354D01*
X2894600Y6486046D01*
X2893174Y6478878D01*
X2890378Y6472127D01*
X2886318Y6466050D01*
X2881150Y6460882D01*
X2875073Y6456822D01*
X2868322Y6454026D01*
X2861154Y6452600D01*
X2853846Y6452600D01*
X2846678Y6454026D01*
X2839927Y6456822D01*
X2833850Y6460882D01*
X2828682Y6466050D01*
X2824622Y6472127D01*
X2821826Y6478878D01*
X2820400Y6486046D01*
X2820400Y6493354D01*
X2821826Y6500522D01*
X2824622Y6507273D01*
X2828682Y6513350D01*
X2833850Y6518518D01*
X2839927Y6522578D01*
X2846678Y6525374D01*
X2853846Y6526800D01*
X2861154Y6526800D01*
X2868322Y6525374D01*
G37*
G36*
X6167910Y6746164D02*
G01*
X6180394Y6740993D01*
X6180394Y6740992D01*
X6191630Y6733485D01*
X6201185Y6723930D01*
X6208693Y6712694D01*
X6213864Y6700210D01*
X6216500Y6686957D01*
X6216500Y6673443D01*
X6213864Y6660190D01*
X6208693Y6647706D01*
X6208692Y6647706D01*
X6201185Y6636470D01*
X6191630Y6626915D01*
X6180394Y6619407D01*
X6180394Y6619407D01*
X6180394Y6619407D01*
X6167910Y6614236D01*
X6154657Y6611600D01*
X6141143Y6611600D01*
X6127890Y6614236D01*
X6115406Y6619407D01*
X6115406Y6619407D01*
X6115406Y6619407D01*
X6104170Y6626915D01*
X6094615Y6636470D01*
X6087107Y6647706D01*
X6087107Y6647706D01*
X6081936Y6660190D01*
X6079300Y6673443D01*
X6079300Y6686957D01*
X6081936Y6700210D01*
X6087107Y6712694D01*
X6094615Y6723930D01*
X6104170Y6733485D01*
X6115406Y6740992D01*
X6115406Y6740993D01*
X6127890Y6746164D01*
X6141143Y6748800D01*
X6154657Y6748800D01*
X6167910Y6746164D01*
G37*
G36*
X1598322Y6906374D02*
G01*
X1605073Y6903578D01*
X1611150Y6899518D01*
X1616318Y6894350D01*
X1620378Y6888273D01*
X1623174Y6881522D01*
X1624600Y6874354D01*
X1624600Y6867046D01*
X1623174Y6859878D01*
X1620378Y6853127D01*
X1616318Y6847050D01*
X1611150Y6841882D01*
X1605073Y6837822D01*
X1598322Y6835026D01*
X1591154Y6833600D01*
X1583846Y6833600D01*
X1576678Y6835026D01*
X1569927Y6837822D01*
X1563850Y6841882D01*
X1558682Y6847050D01*
X1554622Y6853127D01*
X1551826Y6859878D01*
X1550400Y6867046D01*
X1550400Y6874354D01*
X1551826Y6881522D01*
X1554622Y6888273D01*
X1558682Y6894350D01*
X1563850Y6899518D01*
X1569927Y6903578D01*
X1576678Y6906374D01*
X1583846Y6907800D01*
X1591154Y6907800D01*
X1598322Y6906374D01*
G37*
G36*
X5916322Y6906374D02*
G01*
X5923073Y6903578D01*
X5929150Y6899518D01*
X5934318Y6894350D01*
X5938378Y6888273D01*
X5941174Y6881522D01*
X5942600Y6874354D01*
X5942600Y6867046D01*
X5941174Y6859878D01*
X5938378Y6853127D01*
X5934318Y6847050D01*
X5929150Y6841882D01*
X5923073Y6837822D01*
X5916322Y6835026D01*
X5909154Y6833600D01*
X5901846Y6833600D01*
X5894678Y6835026D01*
X5887927Y6837822D01*
X5881850Y6841882D01*
X5876682Y6847050D01*
X5872622Y6853127D01*
X5869826Y6859878D01*
X5868400Y6867046D01*
X5868400Y6874354D01*
X5869826Y6881522D01*
X5872622Y6888273D01*
X5876682Y6894350D01*
X5881850Y6899518D01*
X5887927Y6903578D01*
X5894678Y6906374D01*
X5901846Y6907800D01*
X5909154Y6907800D01*
X5916322Y6906374D01*
G37*
G36*
X5789322Y6906374D02*
G01*
X5796073Y6903578D01*
X5802150Y6899518D01*
X5807318Y6894350D01*
X5811378Y6888273D01*
X5814174Y6881522D01*
X5815600Y6874354D01*
X5815600Y6867046D01*
X5814174Y6859878D01*
X5811378Y6853127D01*
X5807318Y6847050D01*
X5802150Y6841882D01*
X5796073Y6837822D01*
X5789322Y6835026D01*
X5782154Y6833600D01*
X5774846Y6833600D01*
X5767678Y6835026D01*
X5760927Y6837822D01*
X5754850Y6841882D01*
X5749682Y6847050D01*
X5745622Y6853127D01*
X5742826Y6859878D01*
X5741400Y6867046D01*
X5741400Y6874354D01*
X5742826Y6881522D01*
X5745622Y6888273D01*
X5749682Y6894350D01*
X5754850Y6899518D01*
X5760927Y6903578D01*
X5767678Y6906374D01*
X5774846Y6907800D01*
X5782154Y6907800D01*
X5789322Y6906374D01*
G37*
G36*
X5662322Y6906374D02*
G01*
X5669073Y6903578D01*
X5675150Y6899518D01*
X5680318Y6894350D01*
X5684378Y6888273D01*
X5687174Y6881522D01*
X5688600Y6874354D01*
X5688600Y6867046D01*
X5687174Y6859878D01*
X5684378Y6853127D01*
X5680318Y6847050D01*
X5675150Y6841882D01*
X5669073Y6837822D01*
X5662322Y6835026D01*
X5655154Y6833600D01*
X5647846Y6833600D01*
X5640678Y6835026D01*
X5633927Y6837822D01*
X5627850Y6841882D01*
X5622682Y6847050D01*
X5618622Y6853127D01*
X5615826Y6859878D01*
X5614400Y6867046D01*
X5614400Y6874354D01*
X5615826Y6881522D01*
X5618622Y6888273D01*
X5622682Y6894350D01*
X5627850Y6899518D01*
X5633927Y6903578D01*
X5640678Y6906374D01*
X5647846Y6907800D01*
X5655154Y6907800D01*
X5662322Y6906374D01*
G37*
G36*
X5535322Y6906374D02*
G01*
X5542073Y6903578D01*
X5548150Y6899518D01*
X5553318Y6894350D01*
X5557378Y6888273D01*
X5560174Y6881522D01*
X5561600Y6874354D01*
X5561600Y6867046D01*
X5560174Y6859878D01*
X5557378Y6853127D01*
X5553318Y6847050D01*
X5548150Y6841882D01*
X5542073Y6837822D01*
X5535322Y6835026D01*
X5528154Y6833600D01*
X5520846Y6833600D01*
X5513678Y6835026D01*
X5506927Y6837822D01*
X5500850Y6841882D01*
X5495682Y6847050D01*
X5491622Y6853127D01*
X5488826Y6859878D01*
X5487400Y6867046D01*
X5487400Y6874354D01*
X5488826Y6881522D01*
X5491622Y6888273D01*
X5495682Y6894350D01*
X5500850Y6899518D01*
X5506927Y6903578D01*
X5513678Y6906374D01*
X5520846Y6907800D01*
X5528154Y6907800D01*
X5535322Y6906374D01*
G37*
G36*
X5408322Y6906374D02*
G01*
X5415073Y6903578D01*
X5421150Y6899518D01*
X5426318Y6894350D01*
X5430378Y6888273D01*
X5433174Y6881522D01*
X5434600Y6874354D01*
X5434600Y6867046D01*
X5433174Y6859878D01*
X5430378Y6853127D01*
X5426318Y6847050D01*
X5421150Y6841882D01*
X5415073Y6837822D01*
X5408322Y6835026D01*
X5401154Y6833600D01*
X5393846Y6833600D01*
X5386678Y6835026D01*
X5379927Y6837822D01*
X5373850Y6841882D01*
X5368682Y6847050D01*
X5364622Y6853127D01*
X5361826Y6859878D01*
X5360400Y6867046D01*
X5360400Y6874354D01*
X5361826Y6881522D01*
X5364622Y6888273D01*
X5368682Y6894350D01*
X5373850Y6899518D01*
X5379927Y6903578D01*
X5386678Y6906374D01*
X5393846Y6907800D01*
X5401154Y6907800D01*
X5408322Y6906374D01*
G37*
G36*
X5281322Y6906374D02*
G01*
X5288073Y6903578D01*
X5294150Y6899518D01*
X5299318Y6894350D01*
X5303378Y6888273D01*
X5306174Y6881522D01*
X5307600Y6874354D01*
X5307600Y6867046D01*
X5306174Y6859878D01*
X5303378Y6853127D01*
X5299318Y6847050D01*
X5294150Y6841882D01*
X5288073Y6837822D01*
X5281322Y6835026D01*
X5274154Y6833600D01*
X5266846Y6833600D01*
X5259678Y6835026D01*
X5252927Y6837822D01*
X5246850Y6841882D01*
X5241682Y6847050D01*
X5237622Y6853127D01*
X5234826Y6859878D01*
X5233400Y6867046D01*
X5233400Y6874354D01*
X5234826Y6881522D01*
X5237622Y6888273D01*
X5241682Y6894350D01*
X5246850Y6899518D01*
X5252927Y6903578D01*
X5259678Y6906374D01*
X5266846Y6907800D01*
X5274154Y6907800D01*
X5281322Y6906374D01*
G37*
G36*
X5154322Y6906374D02*
G01*
X5161073Y6903578D01*
X5167150Y6899518D01*
X5172318Y6894350D01*
X5176378Y6888273D01*
X5179174Y6881522D01*
X5180600Y6874354D01*
X5180600Y6867046D01*
X5179174Y6859878D01*
X5176378Y6853127D01*
X5172318Y6847050D01*
X5167150Y6841882D01*
X5161073Y6837822D01*
X5154322Y6835026D01*
X5147154Y6833600D01*
X5139846Y6833600D01*
X5132678Y6835026D01*
X5125927Y6837822D01*
X5119850Y6841882D01*
X5114682Y6847050D01*
X5110622Y6853127D01*
X5107826Y6859878D01*
X5106400Y6867046D01*
X5106400Y6874354D01*
X5107826Y6881522D01*
X5110622Y6888273D01*
X5114682Y6894350D01*
X5119850Y6899518D01*
X5125927Y6903578D01*
X5132678Y6906374D01*
X5139846Y6907800D01*
X5147154Y6907800D01*
X5154322Y6906374D01*
G37*
G36*
X5027322Y6906374D02*
G01*
X5034073Y6903578D01*
X5040150Y6899518D01*
X5045318Y6894350D01*
X5049378Y6888273D01*
X5052174Y6881522D01*
X5053600Y6874354D01*
X5053600Y6867046D01*
X5052174Y6859878D01*
X5049378Y6853127D01*
X5045318Y6847050D01*
X5040150Y6841882D01*
X5034073Y6837822D01*
X5027322Y6835026D01*
X5020154Y6833600D01*
X5012846Y6833600D01*
X5005678Y6835026D01*
X4998927Y6837822D01*
X4992850Y6841882D01*
X4987682Y6847050D01*
X4983622Y6853127D01*
X4980826Y6859878D01*
X4979400Y6867046D01*
X4979400Y6874354D01*
X4980826Y6881522D01*
X4983622Y6888273D01*
X4987682Y6894350D01*
X4992850Y6899518D01*
X4998927Y6903578D01*
X5005678Y6906374D01*
X5012846Y6907800D01*
X5020154Y6907800D01*
X5027322Y6906374D01*
G37*
G36*
X4900322Y6906374D02*
G01*
X4907073Y6903578D01*
X4913150Y6899518D01*
X4918318Y6894350D01*
X4922378Y6888273D01*
X4925174Y6881522D01*
X4926600Y6874354D01*
X4926600Y6867046D01*
X4925174Y6859878D01*
X4922378Y6853127D01*
X4918318Y6847050D01*
X4913150Y6841882D01*
X4907073Y6837822D01*
X4900322Y6835026D01*
X4893154Y6833600D01*
X4885846Y6833600D01*
X4878678Y6835026D01*
X4871927Y6837822D01*
X4865850Y6841882D01*
X4860682Y6847050D01*
X4856622Y6853127D01*
X4853826Y6859878D01*
X4852400Y6867046D01*
X4852400Y6874354D01*
X4853826Y6881522D01*
X4856622Y6888273D01*
X4860682Y6894350D01*
X4865850Y6899518D01*
X4871927Y6903578D01*
X4878678Y6906374D01*
X4885846Y6907800D01*
X4893154Y6907800D01*
X4900322Y6906374D01*
G37*
G36*
X4773322Y6906374D02*
G01*
X4780073Y6903578D01*
X4786150Y6899518D01*
X4791318Y6894350D01*
X4795378Y6888273D01*
X4798174Y6881522D01*
X4799600Y6874354D01*
X4799600Y6867046D01*
X4798174Y6859878D01*
X4795378Y6853127D01*
X4791318Y6847050D01*
X4786150Y6841882D01*
X4780073Y6837822D01*
X4773322Y6835026D01*
X4766154Y6833600D01*
X4758846Y6833600D01*
X4751678Y6835026D01*
X4744927Y6837822D01*
X4738850Y6841882D01*
X4733682Y6847050D01*
X4729622Y6853127D01*
X4726826Y6859878D01*
X4725400Y6867046D01*
X4725400Y6874354D01*
X4726826Y6881522D01*
X4729622Y6888273D01*
X4733682Y6894350D01*
X4738850Y6899518D01*
X4744927Y6903578D01*
X4751678Y6906374D01*
X4758846Y6907800D01*
X4766154Y6907800D01*
X4773322Y6906374D01*
G37*
G36*
X4646322Y6906374D02*
G01*
X4653073Y6903578D01*
X4659150Y6899518D01*
X4664318Y6894350D01*
X4668378Y6888273D01*
X4671174Y6881522D01*
X4672600Y6874354D01*
X4672600Y6867046D01*
X4671174Y6859878D01*
X4668378Y6853127D01*
X4664318Y6847050D01*
X4659150Y6841882D01*
X4653073Y6837822D01*
X4646322Y6835026D01*
X4639154Y6833600D01*
X4631846Y6833600D01*
X4624678Y6835026D01*
X4617927Y6837822D01*
X4611850Y6841882D01*
X4606682Y6847050D01*
X4602622Y6853127D01*
X4599826Y6859878D01*
X4598400Y6867046D01*
X4598400Y6874354D01*
X4599826Y6881522D01*
X4602622Y6888273D01*
X4606682Y6894350D01*
X4611850Y6899518D01*
X4617927Y6903578D01*
X4624678Y6906374D01*
X4631846Y6907800D01*
X4639154Y6907800D01*
X4646322Y6906374D01*
G37*
G36*
X1090322Y6906374D02*
G01*
X1097073Y6903578D01*
X1103150Y6899518D01*
X1108318Y6894350D01*
X1112378Y6888273D01*
X1115174Y6881522D01*
X1116600Y6874354D01*
X1116600Y6867046D01*
X1115174Y6859878D01*
X1112378Y6853127D01*
X1108318Y6847050D01*
X1103150Y6841882D01*
X1097073Y6837822D01*
X1090322Y6835026D01*
X1083154Y6833600D01*
X1075846Y6833600D01*
X1068678Y6835026D01*
X1061927Y6837822D01*
X1055850Y6841882D01*
X1050682Y6847050D01*
X1046622Y6853127D01*
X1043826Y6859878D01*
X1042400Y6867046D01*
X1042400Y6874354D01*
X1043826Y6881522D01*
X1046622Y6888273D01*
X1050682Y6894350D01*
X1055850Y6899518D01*
X1061927Y6903578D01*
X1068678Y6906374D01*
X1075846Y6907800D01*
X1083154Y6907800D01*
X1090322Y6906374D01*
G37*
G36*
X1217322Y6906374D02*
G01*
X1224073Y6903578D01*
X1230150Y6899518D01*
X1235318Y6894350D01*
X1239378Y6888273D01*
X1242174Y6881522D01*
X1243600Y6874354D01*
X1243600Y6867046D01*
X1242174Y6859878D01*
X1239378Y6853127D01*
X1235318Y6847050D01*
X1230150Y6841882D01*
X1224073Y6837822D01*
X1217322Y6835026D01*
X1210154Y6833600D01*
X1202846Y6833600D01*
X1195678Y6835026D01*
X1188927Y6837822D01*
X1182850Y6841882D01*
X1177682Y6847050D01*
X1173622Y6853127D01*
X1170826Y6859878D01*
X1169400Y6867046D01*
X1169400Y6874354D01*
X1170826Y6881522D01*
X1173622Y6888273D01*
X1177682Y6894350D01*
X1182850Y6899518D01*
X1188927Y6903578D01*
X1195678Y6906374D01*
X1202846Y6907800D01*
X1210154Y6907800D01*
X1217322Y6906374D01*
G37*
G36*
X1344322Y6906374D02*
G01*
X1351073Y6903578D01*
X1357150Y6899518D01*
X1362318Y6894350D01*
X1366378Y6888273D01*
X1369174Y6881522D01*
X1370600Y6874354D01*
X1370600Y6867046D01*
X1369174Y6859878D01*
X1366378Y6853127D01*
X1362318Y6847050D01*
X1357150Y6841882D01*
X1351073Y6837822D01*
X1344322Y6835026D01*
X1337154Y6833600D01*
X1329846Y6833600D01*
X1322678Y6835026D01*
X1315927Y6837822D01*
X1309850Y6841882D01*
X1304682Y6847050D01*
X1300622Y6853127D01*
X1297826Y6859878D01*
X1296400Y6867046D01*
X1296400Y6874354D01*
X1297826Y6881522D01*
X1300622Y6888273D01*
X1304682Y6894350D01*
X1309850Y6899518D01*
X1315927Y6903578D01*
X1322678Y6906374D01*
X1329846Y6907800D01*
X1337154Y6907800D01*
X1344322Y6906374D01*
G37*
G36*
X1471322Y6906374D02*
G01*
X1478073Y6903578D01*
X1484150Y6899518D01*
X1489318Y6894350D01*
X1493378Y6888273D01*
X1496174Y6881522D01*
X1497600Y6874354D01*
X1497600Y6867046D01*
X1496174Y6859878D01*
X1493378Y6853127D01*
X1489318Y6847050D01*
X1484150Y6841882D01*
X1478073Y6837822D01*
X1471322Y6835026D01*
X1464154Y6833600D01*
X1456846Y6833600D01*
X1449678Y6835026D01*
X1442927Y6837822D01*
X1436850Y6841882D01*
X1431682Y6847050D01*
X1427622Y6853127D01*
X1424826Y6859878D01*
X1423400Y6867046D01*
X1423400Y6874354D01*
X1424826Y6881522D01*
X1427622Y6888273D01*
X1431682Y6894350D01*
X1436850Y6899518D01*
X1442927Y6903578D01*
X1449678Y6906374D01*
X1456846Y6907800D01*
X1464154Y6907800D01*
X1471322Y6906374D01*
G37*
G36*
X1725322Y6906374D02*
G01*
X1732073Y6903578D01*
X1738150Y6899518D01*
X1743318Y6894350D01*
X1747378Y6888273D01*
X1750174Y6881522D01*
X1751600Y6874354D01*
X1751600Y6867046D01*
X1750174Y6859878D01*
X1747378Y6853127D01*
X1743318Y6847050D01*
X1738150Y6841882D01*
X1732073Y6837822D01*
X1725322Y6835026D01*
X1718154Y6833600D01*
X1710846Y6833600D01*
X1703678Y6835026D01*
X1696927Y6837822D01*
X1690850Y6841882D01*
X1685682Y6847050D01*
X1681622Y6853127D01*
X1678826Y6859878D01*
X1677400Y6867046D01*
X1677400Y6874354D01*
X1678826Y6881522D01*
X1681622Y6888273D01*
X1685682Y6894350D01*
X1690850Y6899518D01*
X1696927Y6903578D01*
X1703678Y6906374D01*
X1710846Y6907800D01*
X1718154Y6907800D01*
X1725322Y6906374D01*
G37*
G36*
X1852322Y6906374D02*
G01*
X1859073Y6903578D01*
X1865150Y6899518D01*
X1870318Y6894350D01*
X1874378Y6888273D01*
X1877174Y6881522D01*
X1878600Y6874354D01*
X1878600Y6867046D01*
X1877174Y6859878D01*
X1874378Y6853127D01*
X1870318Y6847050D01*
X1865150Y6841882D01*
X1859073Y6837822D01*
X1852322Y6835026D01*
X1845154Y6833600D01*
X1837846Y6833600D01*
X1830678Y6835026D01*
X1823927Y6837822D01*
X1817850Y6841882D01*
X1812682Y6847050D01*
X1808622Y6853127D01*
X1805826Y6859878D01*
X1804400Y6867046D01*
X1804400Y6874354D01*
X1805826Y6881522D01*
X1808622Y6888273D01*
X1812682Y6894350D01*
X1817850Y6899518D01*
X1823927Y6903578D01*
X1830678Y6906374D01*
X1837846Y6907800D01*
X1845154Y6907800D01*
X1852322Y6906374D01*
G37*
G36*
X1979322Y6906374D02*
G01*
X1986073Y6903578D01*
X1992150Y6899518D01*
X1997318Y6894350D01*
X2001378Y6888273D01*
X2004174Y6881522D01*
X2005600Y6874354D01*
X2005600Y6867046D01*
X2004174Y6859878D01*
X2001378Y6853127D01*
X1997318Y6847050D01*
X1992150Y6841882D01*
X1986073Y6837822D01*
X1979322Y6835026D01*
X1972154Y6833600D01*
X1964846Y6833600D01*
X1957678Y6835026D01*
X1950927Y6837822D01*
X1944850Y6841882D01*
X1939682Y6847050D01*
X1935622Y6853127D01*
X1932826Y6859878D01*
X1931400Y6867046D01*
X1931400Y6874354D01*
X1932826Y6881522D01*
X1935622Y6888273D01*
X1939682Y6894350D01*
X1944850Y6899518D01*
X1950927Y6903578D01*
X1957678Y6906374D01*
X1964846Y6907800D01*
X1972154Y6907800D01*
X1979322Y6906374D01*
G37*
G36*
X2106322Y6906374D02*
G01*
X2113073Y6903578D01*
X2119150Y6899518D01*
X2124318Y6894350D01*
X2128378Y6888273D01*
X2131174Y6881522D01*
X2132600Y6874354D01*
X2132600Y6867046D01*
X2131174Y6859878D01*
X2128378Y6853127D01*
X2124318Y6847050D01*
X2119150Y6841882D01*
X2113073Y6837822D01*
X2106322Y6835026D01*
X2099154Y6833600D01*
X2091846Y6833600D01*
X2084678Y6835026D01*
X2077927Y6837822D01*
X2071850Y6841882D01*
X2066682Y6847050D01*
X2062622Y6853127D01*
X2059826Y6859878D01*
X2058400Y6867046D01*
X2058400Y6874354D01*
X2059826Y6881522D01*
X2062622Y6888273D01*
X2066682Y6894350D01*
X2071850Y6899518D01*
X2077927Y6903578D01*
X2084678Y6906374D01*
X2091846Y6907800D01*
X2099154Y6907800D01*
X2106322Y6906374D01*
G37*
G36*
X2233322Y6906374D02*
G01*
X2240073Y6903578D01*
X2246150Y6899518D01*
X2251318Y6894350D01*
X2255378Y6888273D01*
X2258174Y6881522D01*
X2259600Y6874354D01*
X2259600Y6867046D01*
X2258174Y6859878D01*
X2255378Y6853127D01*
X2251318Y6847050D01*
X2246150Y6841882D01*
X2240073Y6837822D01*
X2233322Y6835026D01*
X2226154Y6833600D01*
X2218846Y6833600D01*
X2211678Y6835026D01*
X2204927Y6837822D01*
X2198850Y6841882D01*
X2193682Y6847050D01*
X2189622Y6853127D01*
X2186826Y6859878D01*
X2185400Y6867046D01*
X2185400Y6874354D01*
X2186826Y6881522D01*
X2189622Y6888273D01*
X2193682Y6894350D01*
X2198850Y6899518D01*
X2204927Y6903578D01*
X2211678Y6906374D01*
X2218846Y6907800D01*
X2226154Y6907800D01*
X2233322Y6906374D01*
G37*
G36*
X2360322Y6906374D02*
G01*
X2367073Y6903578D01*
X2373150Y6899518D01*
X2378318Y6894350D01*
X2382378Y6888273D01*
X2385174Y6881522D01*
X2386600Y6874354D01*
X2386600Y6867046D01*
X2385174Y6859878D01*
X2382378Y6853127D01*
X2378318Y6847050D01*
X2373150Y6841882D01*
X2367073Y6837822D01*
X2360322Y6835026D01*
X2353154Y6833600D01*
X2345846Y6833600D01*
X2338678Y6835026D01*
X2331927Y6837822D01*
X2325850Y6841882D01*
X2320682Y6847050D01*
X2316622Y6853127D01*
X2313826Y6859878D01*
X2312400Y6867046D01*
X2312400Y6874354D01*
X2313826Y6881522D01*
X2316622Y6888273D01*
X2320682Y6894350D01*
X2325850Y6899518D01*
X2331927Y6903578D01*
X2338678Y6906374D01*
X2345846Y6907800D01*
X2353154Y6907800D01*
X2360322Y6906374D01*
G37*
G36*
X2487322Y6906374D02*
G01*
X2494073Y6903578D01*
X2500150Y6899518D01*
X2505318Y6894350D01*
X2509378Y6888273D01*
X2512174Y6881522D01*
X2513600Y6874354D01*
X2513600Y6867046D01*
X2512174Y6859878D01*
X2509378Y6853127D01*
X2505318Y6847050D01*
X2500150Y6841882D01*
X2494073Y6837822D01*
X2487322Y6835026D01*
X2480154Y6833600D01*
X2472846Y6833600D01*
X2465678Y6835026D01*
X2458927Y6837822D01*
X2452850Y6841882D01*
X2447682Y6847050D01*
X2443622Y6853127D01*
X2440826Y6859878D01*
X2439400Y6867046D01*
X2439400Y6874354D01*
X2440826Y6881522D01*
X2443622Y6888273D01*
X2447682Y6894350D01*
X2452850Y6899518D01*
X2458927Y6903578D01*
X2465678Y6906374D01*
X2472846Y6907800D01*
X2480154Y6907800D01*
X2487322Y6906374D01*
G37*
G36*
X2614322Y6906374D02*
G01*
X2621073Y6903578D01*
X2627150Y6899518D01*
X2632318Y6894350D01*
X2636378Y6888273D01*
X2639174Y6881522D01*
X2640600Y6874354D01*
X2640600Y6867046D01*
X2639174Y6859878D01*
X2636378Y6853127D01*
X2632318Y6847050D01*
X2627150Y6841882D01*
X2621073Y6837822D01*
X2614322Y6835026D01*
X2607154Y6833600D01*
X2599846Y6833600D01*
X2592678Y6835026D01*
X2585927Y6837822D01*
X2579850Y6841882D01*
X2574682Y6847050D01*
X2570622Y6853127D01*
X2567826Y6859878D01*
X2566400Y6867046D01*
X2566400Y6874354D01*
X2567826Y6881522D01*
X2570622Y6888273D01*
X2574682Y6894350D01*
X2579850Y6899518D01*
X2585927Y6903578D01*
X2592678Y6906374D01*
X2599846Y6907800D01*
X2607154Y6907800D01*
X2614322Y6906374D01*
G37*
G36*
X2741322Y6906374D02*
G01*
X2748073Y6903578D01*
X2754150Y6899518D01*
X2759318Y6894350D01*
X2763378Y6888273D01*
X2766174Y6881522D01*
X2767600Y6874354D01*
X2767600Y6867046D01*
X2766174Y6859878D01*
X2763378Y6853127D01*
X2759318Y6847050D01*
X2754150Y6841882D01*
X2748073Y6837822D01*
X2741322Y6835026D01*
X2734154Y6833600D01*
X2726846Y6833600D01*
X2719678Y6835026D01*
X2712927Y6837822D01*
X2706850Y6841882D01*
X2701682Y6847050D01*
X2697622Y6853127D01*
X2694826Y6859878D01*
X2693400Y6867046D01*
X2693400Y6874354D01*
X2694826Y6881522D01*
X2697622Y6888273D01*
X2701682Y6894350D01*
X2706850Y6899518D01*
X2712927Y6903578D01*
X2719678Y6906374D01*
X2726846Y6907800D01*
X2734154Y6907800D01*
X2741322Y6906374D01*
G37*
G36*
X2868322Y6906374D02*
G01*
X2875073Y6903578D01*
X2881150Y6899518D01*
X2886318Y6894350D01*
X2890378Y6888273D01*
X2893174Y6881522D01*
X2894600Y6874354D01*
X2894600Y6867046D01*
X2893174Y6859878D01*
X2890378Y6853127D01*
X2886318Y6847050D01*
X2881150Y6841882D01*
X2875073Y6837822D01*
X2868322Y6835026D01*
X2861154Y6833600D01*
X2853846Y6833600D01*
X2846678Y6835026D01*
X2839927Y6837822D01*
X2833850Y6841882D01*
X2828682Y6847050D01*
X2824622Y6853127D01*
X2821826Y6859878D01*
X2820400Y6867046D01*
X2820400Y6874354D01*
X2821826Y6881522D01*
X2824622Y6888273D01*
X2828682Y6894350D01*
X2833850Y6899518D01*
X2839927Y6903578D01*
X2846678Y6906374D01*
X2853846Y6907800D01*
X2861154Y6907800D01*
X2868322Y6906374D01*
G37*
G36*
X2995322Y6906374D02*
G01*
X3002073Y6903578D01*
X3008150Y6899518D01*
X3013318Y6894350D01*
X3017378Y6888273D01*
X3020174Y6881522D01*
X3021600Y6874354D01*
X3021600Y6867046D01*
X3020174Y6859878D01*
X3017378Y6853127D01*
X3013318Y6847050D01*
X3008150Y6841882D01*
X3002073Y6837822D01*
X2995322Y6835026D01*
X2988154Y6833600D01*
X2980846Y6833600D01*
X2973678Y6835026D01*
X2966927Y6837822D01*
X2960850Y6841882D01*
X2955682Y6847050D01*
X2951622Y6853127D01*
X2948826Y6859878D01*
X2947400Y6867046D01*
X2947400Y6874354D01*
X2948826Y6881522D01*
X2951622Y6888273D01*
X2955682Y6894350D01*
X2960850Y6899518D01*
X2966927Y6903578D01*
X2973678Y6906374D01*
X2980846Y6907800D01*
X2988154Y6907800D01*
X2995322Y6906374D01*
G37*
G36*
X3122322Y6906374D02*
G01*
X3129073Y6903578D01*
X3135150Y6899518D01*
X3140318Y6894350D01*
X3144378Y6888273D01*
X3147174Y6881522D01*
X3148600Y6874354D01*
X3148600Y6867046D01*
X3147174Y6859878D01*
X3144378Y6853127D01*
X3140318Y6847050D01*
X3135150Y6841882D01*
X3129073Y6837822D01*
X3122322Y6835026D01*
X3115154Y6833600D01*
X3107846Y6833600D01*
X3100678Y6835026D01*
X3093927Y6837822D01*
X3087850Y6841882D01*
X3082682Y6847050D01*
X3078622Y6853127D01*
X3075826Y6859878D01*
X3074400Y6867046D01*
X3074400Y6874354D01*
X3075826Y6881522D01*
X3078622Y6888273D01*
X3082682Y6894350D01*
X3087850Y6899518D01*
X3093927Y6903578D01*
X3100678Y6906374D01*
X3107846Y6907800D01*
X3115154Y6907800D01*
X3122322Y6906374D01*
G37*
G36*
X3249322Y6906374D02*
G01*
X3256073Y6903578D01*
X3262150Y6899518D01*
X3267318Y6894350D01*
X3271378Y6888273D01*
X3274174Y6881522D01*
X3275600Y6874354D01*
X3275600Y6867046D01*
X3274174Y6859878D01*
X3271378Y6853127D01*
X3267318Y6847050D01*
X3262150Y6841882D01*
X3256073Y6837822D01*
X3249322Y6835026D01*
X3242154Y6833600D01*
X3234846Y6833600D01*
X3227678Y6835026D01*
X3220927Y6837822D01*
X3214850Y6841882D01*
X3209682Y6847050D01*
X3205622Y6853127D01*
X3202826Y6859878D01*
X3201400Y6867046D01*
X3201400Y6874354D01*
X3202826Y6881522D01*
X3205622Y6888273D01*
X3209682Y6894350D01*
X3214850Y6899518D01*
X3220927Y6903578D01*
X3227678Y6906374D01*
X3234846Y6907800D01*
X3242154Y6907800D01*
X3249322Y6906374D01*
G37*
G36*
X3376322Y6906374D02*
G01*
X3383073Y6903578D01*
X3389150Y6899518D01*
X3394318Y6894350D01*
X3398378Y6888273D01*
X3401174Y6881522D01*
X3402600Y6874354D01*
X3402600Y6867046D01*
X3401174Y6859878D01*
X3398378Y6853127D01*
X3394318Y6847050D01*
X3389150Y6841882D01*
X3383073Y6837822D01*
X3376322Y6835026D01*
X3369154Y6833600D01*
X3361846Y6833600D01*
X3354678Y6835026D01*
X3347927Y6837822D01*
X3341850Y6841882D01*
X3336682Y6847050D01*
X3332622Y6853127D01*
X3329826Y6859878D01*
X3328400Y6867046D01*
X3328400Y6874354D01*
X3329826Y6881522D01*
X3332622Y6888273D01*
X3336682Y6894350D01*
X3341850Y6899518D01*
X3347927Y6903578D01*
X3354678Y6906374D01*
X3361846Y6907800D01*
X3369154Y6907800D01*
X3376322Y6906374D01*
G37*
G36*
X963322Y6906374D02*
G01*
X970073Y6903578D01*
X976150Y6899518D01*
X981318Y6894350D01*
X985378Y6888273D01*
X988174Y6881522D01*
X989600Y6874354D01*
X989600Y6867046D01*
X988174Y6859878D01*
X985378Y6853127D01*
X981318Y6847050D01*
X976150Y6841882D01*
X970073Y6837822D01*
X963322Y6835026D01*
X956154Y6833600D01*
X948846Y6833600D01*
X941678Y6835026D01*
X934927Y6837822D01*
X928850Y6841882D01*
X923682Y6847050D01*
X919622Y6853127D01*
X916826Y6859878D01*
X915400Y6867046D01*
X915400Y6874354D01*
X916826Y6881522D01*
X919622Y6888273D01*
X923682Y6894350D01*
X928850Y6899518D01*
X934927Y6903578D01*
X941678Y6906374D01*
X948846Y6907800D01*
X956154Y6907800D01*
X963322Y6906374D01*
G37*
G36*
X3503322Y6906374D02*
G01*
X3510073Y6903578D01*
X3516150Y6899518D01*
X3521318Y6894350D01*
X3525378Y6888273D01*
X3528174Y6881522D01*
X3529600Y6874354D01*
X3529600Y6867046D01*
X3528174Y6859878D01*
X3525378Y6853127D01*
X3521318Y6847050D01*
X3516150Y6841882D01*
X3510073Y6837822D01*
X3503322Y6835026D01*
X3496154Y6833600D01*
X3488846Y6833600D01*
X3481678Y6835026D01*
X3474927Y6837822D01*
X3468850Y6841882D01*
X3463682Y6847050D01*
X3459622Y6853127D01*
X3456826Y6859878D01*
X3455400Y6867046D01*
X3455400Y6874354D01*
X3456826Y6881522D01*
X3459622Y6888273D01*
X3463682Y6894350D01*
X3468850Y6899518D01*
X3474927Y6903578D01*
X3481678Y6906374D01*
X3488846Y6907800D01*
X3496154Y6907800D01*
X3503322Y6906374D01*
G37*
G36*
X3630322Y6906374D02*
G01*
X3637073Y6903578D01*
X3643150Y6899518D01*
X3648318Y6894350D01*
X3652378Y6888273D01*
X3655174Y6881522D01*
X3656600Y6874354D01*
X3656600Y6867046D01*
X3655174Y6859878D01*
X3652378Y6853127D01*
X3648318Y6847050D01*
X3643150Y6841882D01*
X3637073Y6837822D01*
X3630322Y6835026D01*
X3623154Y6833600D01*
X3615846Y6833600D01*
X3608678Y6835026D01*
X3601927Y6837822D01*
X3595850Y6841882D01*
X3590682Y6847050D01*
X3586622Y6853127D01*
X3583826Y6859878D01*
X3582400Y6867046D01*
X3582400Y6874354D01*
X3583826Y6881522D01*
X3586622Y6888273D01*
X3590682Y6894350D01*
X3595850Y6899518D01*
X3601927Y6903578D01*
X3608678Y6906374D01*
X3615846Y6907800D01*
X3623154Y6907800D01*
X3630322Y6906374D01*
G37*
G36*
X4519322Y6906374D02*
G01*
X4526073Y6903578D01*
X4532150Y6899518D01*
X4537318Y6894350D01*
X4541378Y6888273D01*
X4544174Y6881522D01*
X4545600Y6874354D01*
X4545600Y6867046D01*
X4544174Y6859878D01*
X4541378Y6853127D01*
X4537318Y6847050D01*
X4532150Y6841882D01*
X4526073Y6837822D01*
X4519322Y6835026D01*
X4512154Y6833600D01*
X4504846Y6833600D01*
X4497678Y6835026D01*
X4490927Y6837822D01*
X4484850Y6841882D01*
X4479682Y6847050D01*
X4475622Y6853127D01*
X4472826Y6859878D01*
X4471400Y6867046D01*
X4471400Y6874354D01*
X4472826Y6881522D01*
X4475622Y6888273D01*
X4479682Y6894350D01*
X4484850Y6899518D01*
X4490927Y6903578D01*
X4497678Y6906374D01*
X4504846Y6907800D01*
X4512154Y6907800D01*
X4519322Y6906374D01*
G37*
G36*
X3757322Y6906374D02*
G01*
X3764073Y6903578D01*
X3770150Y6899518D01*
X3775318Y6894350D01*
X3779378Y6888273D01*
X3782174Y6881522D01*
X3783600Y6874354D01*
X3783600Y6867046D01*
X3782174Y6859878D01*
X3779378Y6853127D01*
X3775318Y6847050D01*
X3770150Y6841882D01*
X3764073Y6837822D01*
X3757322Y6835026D01*
X3750154Y6833600D01*
X3742846Y6833600D01*
X3735678Y6835026D01*
X3728927Y6837822D01*
X3722850Y6841882D01*
X3717682Y6847050D01*
X3713622Y6853127D01*
X3710826Y6859878D01*
X3709400Y6867046D01*
X3709400Y6874354D01*
X3710826Y6881522D01*
X3713622Y6888273D01*
X3717682Y6894350D01*
X3722850Y6899518D01*
X3728927Y6903578D01*
X3735678Y6906374D01*
X3742846Y6907800D01*
X3750154Y6907800D01*
X3757322Y6906374D01*
G37*
G36*
X3884322Y6906374D02*
G01*
X3891073Y6903578D01*
X3897150Y6899518D01*
X3902318Y6894350D01*
X3906378Y6888273D01*
X3909174Y6881522D01*
X3910600Y6874354D01*
X3910600Y6867046D01*
X3909174Y6859878D01*
X3906378Y6853127D01*
X3902318Y6847050D01*
X3897150Y6841882D01*
X3891073Y6837822D01*
X3884322Y6835026D01*
X3877154Y6833600D01*
X3869846Y6833600D01*
X3862678Y6835026D01*
X3855927Y6837822D01*
X3849850Y6841882D01*
X3844682Y6847050D01*
X3840622Y6853127D01*
X3837826Y6859878D01*
X3836400Y6867046D01*
X3836400Y6874354D01*
X3837826Y6881522D01*
X3840622Y6888273D01*
X3844682Y6894350D01*
X3849850Y6899518D01*
X3855927Y6903578D01*
X3862678Y6906374D01*
X3869846Y6907800D01*
X3877154Y6907800D01*
X3884322Y6906374D01*
G37*
G36*
X4011322Y6906374D02*
G01*
X4018073Y6903578D01*
X4024150Y6899518D01*
X4029318Y6894350D01*
X4033378Y6888273D01*
X4036174Y6881522D01*
X4037600Y6874354D01*
X4037600Y6867046D01*
X4036174Y6859878D01*
X4033378Y6853127D01*
X4029318Y6847050D01*
X4024150Y6841882D01*
X4018073Y6837822D01*
X4011322Y6835026D01*
X4004154Y6833600D01*
X3996846Y6833600D01*
X3989678Y6835026D01*
X3982927Y6837822D01*
X3976850Y6841882D01*
X3971682Y6847050D01*
X3967622Y6853127D01*
X3964826Y6859878D01*
X3963400Y6867046D01*
X3963400Y6874354D01*
X3964826Y6881522D01*
X3967622Y6888273D01*
X3971682Y6894350D01*
X3976850Y6899518D01*
X3982927Y6903578D01*
X3989678Y6906374D01*
X3996846Y6907800D01*
X4004154Y6907800D01*
X4011322Y6906374D01*
G37*
G36*
X4138322Y6906374D02*
G01*
X4145073Y6903578D01*
X4151150Y6899518D01*
X4156318Y6894350D01*
X4160378Y6888273D01*
X4163174Y6881522D01*
X4164600Y6874354D01*
X4164600Y6867046D01*
X4163174Y6859878D01*
X4160378Y6853127D01*
X4156318Y6847050D01*
X4151150Y6841882D01*
X4145073Y6837822D01*
X4138322Y6835026D01*
X4131154Y6833600D01*
X4123846Y6833600D01*
X4116678Y6835026D01*
X4109927Y6837822D01*
X4103850Y6841882D01*
X4098682Y6847050D01*
X4094622Y6853127D01*
X4091826Y6859878D01*
X4090400Y6867046D01*
X4090400Y6874354D01*
X4091826Y6881522D01*
X4094622Y6888273D01*
X4098682Y6894350D01*
X4103850Y6899518D01*
X4109927Y6903578D01*
X4116678Y6906374D01*
X4123846Y6907800D01*
X4131154Y6907800D01*
X4138322Y6906374D01*
G37*
G36*
X4265322Y6906374D02*
G01*
X4272073Y6903578D01*
X4278150Y6899518D01*
X4283318Y6894350D01*
X4287378Y6888273D01*
X4290174Y6881522D01*
X4291600Y6874354D01*
X4291600Y6867046D01*
X4290174Y6859878D01*
X4287378Y6853127D01*
X4283318Y6847050D01*
X4278150Y6841882D01*
X4272073Y6837822D01*
X4265322Y6835026D01*
X4258154Y6833600D01*
X4250846Y6833600D01*
X4243678Y6835026D01*
X4236927Y6837822D01*
X4230850Y6841882D01*
X4225682Y6847050D01*
X4221622Y6853127D01*
X4218826Y6859878D01*
X4217400Y6867046D01*
X4217400Y6874354D01*
X4218826Y6881522D01*
X4221622Y6888273D01*
X4225682Y6894350D01*
X4230850Y6899518D01*
X4236927Y6903578D01*
X4243678Y6906374D01*
X4250846Y6907800D01*
X4258154Y6907800D01*
X4265322Y6906374D01*
G37*
G36*
X4392322Y6906374D02*
G01*
X4399073Y6903578D01*
X4405150Y6899518D01*
X4410318Y6894350D01*
X4414378Y6888273D01*
X4417174Y6881522D01*
X4418600Y6874354D01*
X4418600Y6867046D01*
X4417174Y6859878D01*
X4414378Y6853127D01*
X4410318Y6847050D01*
X4405150Y6841882D01*
X4399073Y6837822D01*
X4392322Y6835026D01*
X4385154Y6833600D01*
X4377846Y6833600D01*
X4370678Y6835026D01*
X4363927Y6837822D01*
X4357850Y6841882D01*
X4352682Y6847050D01*
X4348622Y6853127D01*
X4345826Y6859878D01*
X4344400Y6867046D01*
X4344400Y6874354D01*
X4345826Y6881522D01*
X4348622Y6888273D01*
X4352682Y6894350D01*
X4357850Y6899518D01*
X4363927Y6903578D01*
X4370678Y6906374D01*
X4377846Y6907800D01*
X4385154Y6907800D01*
X4392322Y6906374D01*
G37*
G36*
X1725322Y7033374D02*
G01*
X1732073Y7030578D01*
X1738150Y7026518D01*
X1743318Y7021350D01*
X1747378Y7015273D01*
X1750174Y7008522D01*
X1751600Y7001354D01*
X1751600Y6994046D01*
X1750174Y6986878D01*
X1747378Y6980127D01*
X1743318Y6974050D01*
X1738150Y6968882D01*
X1732073Y6964822D01*
X1725322Y6962026D01*
X1718154Y6960600D01*
X1710846Y6960600D01*
X1703678Y6962026D01*
X1696927Y6964822D01*
X1690850Y6968882D01*
X1685682Y6974050D01*
X1681622Y6980127D01*
X1678826Y6986878D01*
X1677400Y6994046D01*
X1677400Y7001354D01*
X1678826Y7008522D01*
X1681622Y7015273D01*
X1685682Y7021350D01*
X1690850Y7026518D01*
X1696927Y7030578D01*
X1703678Y7033374D01*
X1710846Y7034800D01*
X1718154Y7034800D01*
X1725322Y7033374D01*
G37*
G36*
X1852322Y7033374D02*
G01*
X1859073Y7030578D01*
X1865150Y7026518D01*
X1870318Y7021350D01*
X1874378Y7015273D01*
X1877174Y7008522D01*
X1878600Y7001354D01*
X1878600Y6994046D01*
X1877174Y6986878D01*
X1874378Y6980127D01*
X1870318Y6974050D01*
X1865150Y6968882D01*
X1859073Y6964822D01*
X1852322Y6962026D01*
X1845154Y6960600D01*
X1837846Y6960600D01*
X1830678Y6962026D01*
X1823927Y6964822D01*
X1817850Y6968882D01*
X1812682Y6974050D01*
X1808622Y6980127D01*
X1805826Y6986878D01*
X1804400Y6994046D01*
X1804400Y7001354D01*
X1805826Y7008522D01*
X1808622Y7015273D01*
X1812682Y7021350D01*
X1817850Y7026518D01*
X1823927Y7030578D01*
X1830678Y7033374D01*
X1837846Y7034800D01*
X1845154Y7034800D01*
X1852322Y7033374D01*
G37*
G36*
X1979322Y7033374D02*
G01*
X1986073Y7030578D01*
X1992150Y7026518D01*
X1997318Y7021350D01*
X2001378Y7015273D01*
X2004174Y7008522D01*
X2005600Y7001354D01*
X2005600Y6994046D01*
X2004174Y6986878D01*
X2001378Y6980127D01*
X1997318Y6974050D01*
X1992150Y6968882D01*
X1986073Y6964822D01*
X1979322Y6962026D01*
X1972154Y6960600D01*
X1964846Y6960600D01*
X1957678Y6962026D01*
X1950927Y6964822D01*
X1944850Y6968882D01*
X1939682Y6974050D01*
X1935622Y6980127D01*
X1932826Y6986878D01*
X1931400Y6994046D01*
X1931400Y7001354D01*
X1932826Y7008522D01*
X1935622Y7015273D01*
X1939682Y7021350D01*
X1944850Y7026518D01*
X1950927Y7030578D01*
X1957678Y7033374D01*
X1964846Y7034800D01*
X1972154Y7034800D01*
X1979322Y7033374D01*
G37*
G36*
X2106322Y7033374D02*
G01*
X2113073Y7030578D01*
X2119150Y7026518D01*
X2124318Y7021350D01*
X2128378Y7015273D01*
X2131174Y7008522D01*
X2132600Y7001354D01*
X2132600Y6994046D01*
X2131174Y6986878D01*
X2128378Y6980127D01*
X2124318Y6974050D01*
X2119150Y6968882D01*
X2113073Y6964822D01*
X2106322Y6962026D01*
X2099154Y6960600D01*
X2091846Y6960600D01*
X2084678Y6962026D01*
X2077927Y6964822D01*
X2071850Y6968882D01*
X2066682Y6974050D01*
X2062622Y6980127D01*
X2059826Y6986878D01*
X2058400Y6994046D01*
X2058400Y7001354D01*
X2059826Y7008522D01*
X2062622Y7015273D01*
X2066682Y7021350D01*
X2071850Y7026518D01*
X2077927Y7030578D01*
X2084678Y7033374D01*
X2091846Y7034800D01*
X2099154Y7034800D01*
X2106322Y7033374D01*
G37*
G36*
X2233322Y7033374D02*
G01*
X2240073Y7030578D01*
X2246150Y7026518D01*
X2251318Y7021350D01*
X2255378Y7015273D01*
X2258174Y7008522D01*
X2259600Y7001354D01*
X2259600Y6994046D01*
X2258174Y6986878D01*
X2255378Y6980127D01*
X2251318Y6974050D01*
X2246150Y6968882D01*
X2240073Y6964822D01*
X2233322Y6962026D01*
X2226154Y6960600D01*
X2218846Y6960600D01*
X2211678Y6962026D01*
X2204927Y6964822D01*
X2198850Y6968882D01*
X2193682Y6974050D01*
X2189622Y6980127D01*
X2186826Y6986878D01*
X2185400Y6994046D01*
X2185400Y7001354D01*
X2186826Y7008522D01*
X2189622Y7015273D01*
X2193682Y7021350D01*
X2198850Y7026518D01*
X2204927Y7030578D01*
X2211678Y7033374D01*
X2218846Y7034800D01*
X2226154Y7034800D01*
X2233322Y7033374D01*
G37*
G36*
X2360322Y7033374D02*
G01*
X2367073Y7030578D01*
X2373150Y7026518D01*
X2378318Y7021350D01*
X2382378Y7015273D01*
X2385174Y7008522D01*
X2386600Y7001354D01*
X2386600Y6994046D01*
X2385174Y6986878D01*
X2382378Y6980127D01*
X2378318Y6974050D01*
X2373150Y6968882D01*
X2367073Y6964822D01*
X2360322Y6962026D01*
X2353154Y6960600D01*
X2345846Y6960600D01*
X2338678Y6962026D01*
X2331927Y6964822D01*
X2325850Y6968882D01*
X2320682Y6974050D01*
X2316622Y6980127D01*
X2313826Y6986878D01*
X2312400Y6994046D01*
X2312400Y7001354D01*
X2313826Y7008522D01*
X2316622Y7015273D01*
X2320682Y7021350D01*
X2325850Y7026518D01*
X2331927Y7030578D01*
X2338678Y7033374D01*
X2345846Y7034800D01*
X2353154Y7034800D01*
X2360322Y7033374D01*
G37*
G36*
X2487322Y7033374D02*
G01*
X2494073Y7030578D01*
X2500150Y7026518D01*
X2505318Y7021350D01*
X2509378Y7015273D01*
X2512174Y7008522D01*
X2513600Y7001354D01*
X2513600Y6994046D01*
X2512174Y6986878D01*
X2509378Y6980127D01*
X2505318Y6974050D01*
X2500150Y6968882D01*
X2494073Y6964822D01*
X2487322Y6962026D01*
X2480154Y6960600D01*
X2472846Y6960600D01*
X2465678Y6962026D01*
X2458927Y6964822D01*
X2452850Y6968882D01*
X2447682Y6974050D01*
X2443622Y6980127D01*
X2440826Y6986878D01*
X2439400Y6994046D01*
X2439400Y7001354D01*
X2440826Y7008522D01*
X2443622Y7015273D01*
X2447682Y7021350D01*
X2452850Y7026518D01*
X2458927Y7030578D01*
X2465678Y7033374D01*
X2472846Y7034800D01*
X2480154Y7034800D01*
X2487322Y7033374D01*
G37*
G36*
X2614322Y7033374D02*
G01*
X2621073Y7030578D01*
X2627150Y7026518D01*
X2632318Y7021350D01*
X2636378Y7015273D01*
X2639174Y7008522D01*
X2640600Y7001354D01*
X2640600Y6994046D01*
X2639174Y6986878D01*
X2636378Y6980127D01*
X2632318Y6974050D01*
X2627150Y6968882D01*
X2621073Y6964822D01*
X2614322Y6962026D01*
X2607154Y6960600D01*
X2599846Y6960600D01*
X2592678Y6962026D01*
X2585927Y6964822D01*
X2579850Y6968882D01*
X2574682Y6974050D01*
X2570622Y6980127D01*
X2567826Y6986878D01*
X2566400Y6994046D01*
X2566400Y7001354D01*
X2567826Y7008522D01*
X2570622Y7015273D01*
X2574682Y7021350D01*
X2579850Y7026518D01*
X2585927Y7030578D01*
X2592678Y7033374D01*
X2599846Y7034800D01*
X2607154Y7034800D01*
X2614322Y7033374D01*
G37*
G36*
X2741322Y7033374D02*
G01*
X2748073Y7030578D01*
X2754150Y7026518D01*
X2759318Y7021350D01*
X2763378Y7015273D01*
X2766174Y7008522D01*
X2767600Y7001354D01*
X2767600Y6994046D01*
X2766174Y6986878D01*
X2763378Y6980127D01*
X2759318Y6974050D01*
X2754150Y6968882D01*
X2748073Y6964822D01*
X2741322Y6962026D01*
X2734154Y6960600D01*
X2726846Y6960600D01*
X2719678Y6962026D01*
X2712927Y6964822D01*
X2706850Y6968882D01*
X2701682Y6974050D01*
X2697622Y6980127D01*
X2694826Y6986878D01*
X2693400Y6994046D01*
X2693400Y7001354D01*
X2694826Y7008522D01*
X2697622Y7015273D01*
X2701682Y7021350D01*
X2706850Y7026518D01*
X2712927Y7030578D01*
X2719678Y7033374D01*
X2726846Y7034800D01*
X2734154Y7034800D01*
X2741322Y7033374D01*
G37*
G36*
X2868322Y7033374D02*
G01*
X2875073Y7030578D01*
X2881150Y7026518D01*
X2886318Y7021350D01*
X2890378Y7015273D01*
X2893174Y7008522D01*
X2894600Y7001354D01*
X2894600Y6994046D01*
X2893174Y6986878D01*
X2890378Y6980127D01*
X2886318Y6974050D01*
X2881150Y6968882D01*
X2875073Y6964822D01*
X2868322Y6962026D01*
X2861154Y6960600D01*
X2853846Y6960600D01*
X2846678Y6962026D01*
X2839927Y6964822D01*
X2833850Y6968882D01*
X2828682Y6974050D01*
X2824622Y6980127D01*
X2821826Y6986878D01*
X2820400Y6994046D01*
X2820400Y7001354D01*
X2821826Y7008522D01*
X2824622Y7015273D01*
X2828682Y7021350D01*
X2833850Y7026518D01*
X2839927Y7030578D01*
X2846678Y7033374D01*
X2853846Y7034800D01*
X2861154Y7034800D01*
X2868322Y7033374D01*
G37*
G36*
X2995322Y7033374D02*
G01*
X3002073Y7030578D01*
X3008150Y7026518D01*
X3013318Y7021350D01*
X3017378Y7015273D01*
X3020174Y7008522D01*
X3021600Y7001354D01*
X3021600Y6994046D01*
X3020174Y6986878D01*
X3017378Y6980127D01*
X3013318Y6974050D01*
X3008150Y6968882D01*
X3002073Y6964822D01*
X2995322Y6962026D01*
X2988154Y6960600D01*
X2980846Y6960600D01*
X2973678Y6962026D01*
X2966927Y6964822D01*
X2960850Y6968882D01*
X2955682Y6974050D01*
X2951622Y6980127D01*
X2948826Y6986878D01*
X2947400Y6994046D01*
X2947400Y7001354D01*
X2948826Y7008522D01*
X2951622Y7015273D01*
X2955682Y7021350D01*
X2960850Y7026518D01*
X2966927Y7030578D01*
X2973678Y7033374D01*
X2980846Y7034800D01*
X2988154Y7034800D01*
X2995322Y7033374D01*
G37*
G36*
X3122322Y7033374D02*
G01*
X3129073Y7030578D01*
X3135150Y7026518D01*
X3140318Y7021350D01*
X3144378Y7015273D01*
X3147174Y7008522D01*
X3148600Y7001354D01*
X3148600Y6994046D01*
X3147174Y6986878D01*
X3144378Y6980127D01*
X3140318Y6974050D01*
X3135150Y6968882D01*
X3129073Y6964822D01*
X3122322Y6962026D01*
X3115154Y6960600D01*
X3107846Y6960600D01*
X3100678Y6962026D01*
X3093927Y6964822D01*
X3087850Y6968882D01*
X3082682Y6974050D01*
X3078622Y6980127D01*
X3075826Y6986878D01*
X3074400Y6994046D01*
X3074400Y7001354D01*
X3075826Y7008522D01*
X3078622Y7015273D01*
X3082682Y7021350D01*
X3087850Y7026518D01*
X3093927Y7030578D01*
X3100678Y7033374D01*
X3107846Y7034800D01*
X3115154Y7034800D01*
X3122322Y7033374D01*
G37*
G36*
X3249322Y7033374D02*
G01*
X3256073Y7030578D01*
X3262150Y7026518D01*
X3267318Y7021350D01*
X3271378Y7015273D01*
X3274174Y7008522D01*
X3275600Y7001354D01*
X3275600Y6994046D01*
X3274174Y6986878D01*
X3271378Y6980127D01*
X3267318Y6974050D01*
X3262150Y6968882D01*
X3256073Y6964822D01*
X3249322Y6962026D01*
X3242154Y6960600D01*
X3234846Y6960600D01*
X3227678Y6962026D01*
X3220927Y6964822D01*
X3214850Y6968882D01*
X3209682Y6974050D01*
X3205622Y6980127D01*
X3202826Y6986878D01*
X3201400Y6994046D01*
X3201400Y7001354D01*
X3202826Y7008522D01*
X3205622Y7015273D01*
X3209682Y7021350D01*
X3214850Y7026518D01*
X3220927Y7030578D01*
X3227678Y7033374D01*
X3234846Y7034800D01*
X3242154Y7034800D01*
X3249322Y7033374D01*
G37*
G36*
X3376322Y7033374D02*
G01*
X3383073Y7030578D01*
X3389150Y7026518D01*
X3394318Y7021350D01*
X3398378Y7015273D01*
X3401174Y7008522D01*
X3402600Y7001354D01*
X3402600Y6994046D01*
X3401174Y6986878D01*
X3398378Y6980127D01*
X3394318Y6974050D01*
X3389150Y6968882D01*
X3383073Y6964822D01*
X3376322Y6962026D01*
X3369154Y6960600D01*
X3361846Y6960600D01*
X3354678Y6962026D01*
X3347927Y6964822D01*
X3341850Y6968882D01*
X3336682Y6974050D01*
X3332622Y6980127D01*
X3329826Y6986878D01*
X3328400Y6994046D01*
X3328400Y7001354D01*
X3329826Y7008522D01*
X3332622Y7015273D01*
X3336682Y7021350D01*
X3341850Y7026518D01*
X3347927Y7030578D01*
X3354678Y7033374D01*
X3361846Y7034800D01*
X3369154Y7034800D01*
X3376322Y7033374D01*
G37*
G36*
X3503322Y7033374D02*
G01*
X3510073Y7030578D01*
X3516150Y7026518D01*
X3521318Y7021350D01*
X3525378Y7015273D01*
X3528174Y7008522D01*
X3529600Y7001354D01*
X3529600Y6994046D01*
X3528174Y6986878D01*
X3525378Y6980127D01*
X3521318Y6974050D01*
X3516150Y6968882D01*
X3510073Y6964822D01*
X3503322Y6962026D01*
X3496154Y6960600D01*
X3488846Y6960600D01*
X3481678Y6962026D01*
X3474927Y6964822D01*
X3468850Y6968882D01*
X3463682Y6974050D01*
X3459622Y6980127D01*
X3456826Y6986878D01*
X3455400Y6994046D01*
X3455400Y7001354D01*
X3456826Y7008522D01*
X3459622Y7015273D01*
X3463682Y7021350D01*
X3468850Y7026518D01*
X3474927Y7030578D01*
X3481678Y7033374D01*
X3488846Y7034800D01*
X3496154Y7034800D01*
X3503322Y7033374D01*
G37*
G36*
X3630322Y7033374D02*
G01*
X3637073Y7030578D01*
X3643150Y7026518D01*
X3648318Y7021350D01*
X3652378Y7015273D01*
X3655174Y7008522D01*
X3656600Y7001354D01*
X3656600Y6994046D01*
X3655174Y6986878D01*
X3652378Y6980127D01*
X3648318Y6974050D01*
X3643150Y6968882D01*
X3637073Y6964822D01*
X3630322Y6962026D01*
X3623154Y6960600D01*
X3615846Y6960600D01*
X3608678Y6962026D01*
X3601927Y6964822D01*
X3595850Y6968882D01*
X3590682Y6974050D01*
X3586622Y6980127D01*
X3583826Y6986878D01*
X3582400Y6994046D01*
X3582400Y7001354D01*
X3583826Y7008522D01*
X3586622Y7015273D01*
X3590682Y7021350D01*
X3595850Y7026518D01*
X3601927Y7030578D01*
X3608678Y7033374D01*
X3615846Y7034800D01*
X3623154Y7034800D01*
X3630322Y7033374D01*
G37*
G36*
X3757322Y7033374D02*
G01*
X3764073Y7030578D01*
X3770150Y7026518D01*
X3775318Y7021350D01*
X3779378Y7015273D01*
X3782174Y7008522D01*
X3783600Y7001354D01*
X3783600Y6994046D01*
X3782174Y6986878D01*
X3779378Y6980127D01*
X3775318Y6974050D01*
X3770150Y6968882D01*
X3764073Y6964822D01*
X3757322Y6962026D01*
X3750154Y6960600D01*
X3742846Y6960600D01*
X3735678Y6962026D01*
X3728927Y6964822D01*
X3722850Y6968882D01*
X3717682Y6974050D01*
X3713622Y6980127D01*
X3710826Y6986878D01*
X3709400Y6994046D01*
X3709400Y7001354D01*
X3710826Y7008522D01*
X3713622Y7015273D01*
X3717682Y7021350D01*
X3722850Y7026518D01*
X3728927Y7030578D01*
X3735678Y7033374D01*
X3742846Y7034800D01*
X3750154Y7034800D01*
X3757322Y7033374D01*
G37*
G36*
X3884322Y7033374D02*
G01*
X3891073Y7030578D01*
X3897150Y7026518D01*
X3902318Y7021350D01*
X3906378Y7015273D01*
X3909174Y7008522D01*
X3910600Y7001354D01*
X3910600Y6994046D01*
X3909174Y6986878D01*
X3906378Y6980127D01*
X3902318Y6974050D01*
X3897150Y6968882D01*
X3891073Y6964822D01*
X3884322Y6962026D01*
X3877154Y6960600D01*
X3869846Y6960600D01*
X3862678Y6962026D01*
X3855927Y6964822D01*
X3849850Y6968882D01*
X3844682Y6974050D01*
X3840622Y6980127D01*
X3837826Y6986878D01*
X3836400Y6994046D01*
X3836400Y7001354D01*
X3837826Y7008522D01*
X3840622Y7015273D01*
X3844682Y7021350D01*
X3849850Y7026518D01*
X3855927Y7030578D01*
X3862678Y7033374D01*
X3869846Y7034800D01*
X3877154Y7034800D01*
X3884322Y7033374D01*
G37*
G36*
X4011322Y7033374D02*
G01*
X4018073Y7030578D01*
X4024150Y7026518D01*
X4029318Y7021350D01*
X4033378Y7015273D01*
X4036174Y7008522D01*
X4037600Y7001354D01*
X4037600Y6994046D01*
X4036174Y6986878D01*
X4033378Y6980127D01*
X4029318Y6974050D01*
X4024150Y6968882D01*
X4018073Y6964822D01*
X4011322Y6962026D01*
X4004154Y6960600D01*
X3996846Y6960600D01*
X3989678Y6962026D01*
X3982927Y6964822D01*
X3976850Y6968882D01*
X3971682Y6974050D01*
X3967622Y6980127D01*
X3964826Y6986878D01*
X3963400Y6994046D01*
X3963400Y7001354D01*
X3964826Y7008522D01*
X3967622Y7015273D01*
X3971682Y7021350D01*
X3976850Y7026518D01*
X3982927Y7030578D01*
X3989678Y7033374D01*
X3996846Y7034800D01*
X4004154Y7034800D01*
X4011322Y7033374D01*
G37*
G36*
X4138322Y7033374D02*
G01*
X4145073Y7030578D01*
X4151150Y7026518D01*
X4156318Y7021350D01*
X4160378Y7015273D01*
X4163174Y7008522D01*
X4164600Y7001354D01*
X4164600Y6994046D01*
X4163174Y6986878D01*
X4160378Y6980127D01*
X4156318Y6974050D01*
X4151150Y6968882D01*
X4145073Y6964822D01*
X4138322Y6962026D01*
X4131154Y6960600D01*
X4123846Y6960600D01*
X4116678Y6962026D01*
X4109927Y6964822D01*
X4103850Y6968882D01*
X4098682Y6974050D01*
X4094622Y6980127D01*
X4091826Y6986878D01*
X4090400Y6994046D01*
X4090400Y7001354D01*
X4091826Y7008522D01*
X4094622Y7015273D01*
X4098682Y7021350D01*
X4103850Y7026518D01*
X4109927Y7030578D01*
X4116678Y7033374D01*
X4123846Y7034800D01*
X4131154Y7034800D01*
X4138322Y7033374D01*
G37*
G36*
X4265322Y7033374D02*
G01*
X4272073Y7030578D01*
X4278150Y7026518D01*
X4283318Y7021350D01*
X4287378Y7015273D01*
X4290174Y7008522D01*
X4291600Y7001354D01*
X4291600Y6994046D01*
X4290174Y6986878D01*
X4287378Y6980127D01*
X4283318Y6974050D01*
X4278150Y6968882D01*
X4272073Y6964822D01*
X4265322Y6962026D01*
X4258154Y6960600D01*
X4250846Y6960600D01*
X4243678Y6962026D01*
X4236927Y6964822D01*
X4230850Y6968882D01*
X4225682Y6974050D01*
X4221622Y6980127D01*
X4218826Y6986878D01*
X4217400Y6994046D01*
X4217400Y7001354D01*
X4218826Y7008522D01*
X4221622Y7015273D01*
X4225682Y7021350D01*
X4230850Y7026518D01*
X4236927Y7030578D01*
X4243678Y7033374D01*
X4250846Y7034800D01*
X4258154Y7034800D01*
X4265322Y7033374D01*
G37*
G36*
X4392322Y7033374D02*
G01*
X4399073Y7030578D01*
X4405150Y7026518D01*
X4410318Y7021350D01*
X4414378Y7015273D01*
X4417174Y7008522D01*
X4418600Y7001354D01*
X4418600Y6994046D01*
X4417174Y6986878D01*
X4414378Y6980127D01*
X4410318Y6974050D01*
X4405150Y6968882D01*
X4399073Y6964822D01*
X4392322Y6962026D01*
X4385154Y6960600D01*
X4377846Y6960600D01*
X4370678Y6962026D01*
X4363927Y6964822D01*
X4357850Y6968882D01*
X4352682Y6974050D01*
X4348622Y6980127D01*
X4345826Y6986878D01*
X4344400Y6994046D01*
X4344400Y7001354D01*
X4345826Y7008522D01*
X4348622Y7015273D01*
X4352682Y7021350D01*
X4357850Y7026518D01*
X4363927Y7030578D01*
X4370678Y7033374D01*
X4377846Y7034800D01*
X4385154Y7034800D01*
X4392322Y7033374D01*
G37*
G36*
X4519322Y7033374D02*
G01*
X4526073Y7030578D01*
X4532150Y7026518D01*
X4537318Y7021350D01*
X4541378Y7015273D01*
X4544174Y7008522D01*
X4545600Y7001354D01*
X4545600Y6994046D01*
X4544174Y6986878D01*
X4541378Y6980127D01*
X4537318Y6974050D01*
X4532150Y6968882D01*
X4526073Y6964822D01*
X4519322Y6962026D01*
X4512154Y6960600D01*
X4504846Y6960600D01*
X4497678Y6962026D01*
X4490927Y6964822D01*
X4484850Y6968882D01*
X4479682Y6974050D01*
X4475622Y6980127D01*
X4472826Y6986878D01*
X4471400Y6994046D01*
X4471400Y7001354D01*
X4472826Y7008522D01*
X4475622Y7015273D01*
X4479682Y7021350D01*
X4484850Y7026518D01*
X4490927Y7030578D01*
X4497678Y7033374D01*
X4504846Y7034800D01*
X4512154Y7034800D01*
X4519322Y7033374D01*
G37*
G36*
X4646322Y7033374D02*
G01*
X4653073Y7030578D01*
X4659150Y7026518D01*
X4664318Y7021350D01*
X4668378Y7015273D01*
X4671174Y7008522D01*
X4672600Y7001354D01*
X4672600Y6994046D01*
X4671174Y6986878D01*
X4668378Y6980127D01*
X4664318Y6974050D01*
X4659150Y6968882D01*
X4653073Y6964822D01*
X4646322Y6962026D01*
X4639154Y6960600D01*
X4631846Y6960600D01*
X4624678Y6962026D01*
X4617927Y6964822D01*
X4611850Y6968882D01*
X4606682Y6974050D01*
X4602622Y6980127D01*
X4599826Y6986878D01*
X4598400Y6994046D01*
X4598400Y7001354D01*
X4599826Y7008522D01*
X4602622Y7015273D01*
X4606682Y7021350D01*
X4611850Y7026518D01*
X4617927Y7030578D01*
X4624678Y7033374D01*
X4631846Y7034800D01*
X4639154Y7034800D01*
X4646322Y7033374D01*
G37*
G36*
X4773322Y7033374D02*
G01*
X4780073Y7030578D01*
X4786150Y7026518D01*
X4791318Y7021350D01*
X4795378Y7015273D01*
X4798174Y7008522D01*
X4799600Y7001354D01*
X4799600Y6994046D01*
X4798174Y6986878D01*
X4795378Y6980127D01*
X4791318Y6974050D01*
X4786150Y6968882D01*
X4780073Y6964822D01*
X4773322Y6962026D01*
X4766154Y6960600D01*
X4758846Y6960600D01*
X4751678Y6962026D01*
X4744927Y6964822D01*
X4738850Y6968882D01*
X4733682Y6974050D01*
X4729622Y6980127D01*
X4726826Y6986878D01*
X4725400Y6994046D01*
X4725400Y7001354D01*
X4726826Y7008522D01*
X4729622Y7015273D01*
X4733682Y7021350D01*
X4738850Y7026518D01*
X4744927Y7030578D01*
X4751678Y7033374D01*
X4758846Y7034800D01*
X4766154Y7034800D01*
X4773322Y7033374D01*
G37*
G36*
X4900322Y7033374D02*
G01*
X4907073Y7030578D01*
X4913150Y7026518D01*
X4918318Y7021350D01*
X4922378Y7015273D01*
X4925174Y7008522D01*
X4926600Y7001354D01*
X4926600Y6994046D01*
X4925174Y6986878D01*
X4922378Y6980127D01*
X4918318Y6974050D01*
X4913150Y6968882D01*
X4907073Y6964822D01*
X4900322Y6962026D01*
X4893154Y6960600D01*
X4885846Y6960600D01*
X4878678Y6962026D01*
X4871927Y6964822D01*
X4865850Y6968882D01*
X4860682Y6974050D01*
X4856622Y6980127D01*
X4853826Y6986878D01*
X4852400Y6994046D01*
X4852400Y7001354D01*
X4853826Y7008522D01*
X4856622Y7015273D01*
X4860682Y7021350D01*
X4865850Y7026518D01*
X4871927Y7030578D01*
X4878678Y7033374D01*
X4885846Y7034800D01*
X4893154Y7034800D01*
X4900322Y7033374D01*
G37*
G36*
X5027322Y7033374D02*
G01*
X5034073Y7030578D01*
X5040150Y7026518D01*
X5045318Y7021350D01*
X5049378Y7015273D01*
X5052174Y7008522D01*
X5053600Y7001354D01*
X5053600Y6994046D01*
X5052174Y6986878D01*
X5049378Y6980127D01*
X5045318Y6974050D01*
X5040150Y6968882D01*
X5034073Y6964822D01*
X5027322Y6962026D01*
X5020154Y6960600D01*
X5012846Y6960600D01*
X5005678Y6962026D01*
X4998927Y6964822D01*
X4992850Y6968882D01*
X4987682Y6974050D01*
X4983622Y6980127D01*
X4980826Y6986878D01*
X4979400Y6994046D01*
X4979400Y7001354D01*
X4980826Y7008522D01*
X4983622Y7015273D01*
X4987682Y7021350D01*
X4992850Y7026518D01*
X4998927Y7030578D01*
X5005678Y7033374D01*
X5012846Y7034800D01*
X5020154Y7034800D01*
X5027322Y7033374D01*
G37*
G36*
X5154322Y7033374D02*
G01*
X5161073Y7030578D01*
X5167150Y7026518D01*
X5172318Y7021350D01*
X5176378Y7015273D01*
X5179174Y7008522D01*
X5180600Y7001354D01*
X5180600Y6994046D01*
X5179174Y6986878D01*
X5176378Y6980127D01*
X5172318Y6974050D01*
X5167150Y6968882D01*
X5161073Y6964822D01*
X5154322Y6962026D01*
X5147154Y6960600D01*
X5139846Y6960600D01*
X5132678Y6962026D01*
X5125927Y6964822D01*
X5119850Y6968882D01*
X5114682Y6974050D01*
X5110622Y6980127D01*
X5107826Y6986878D01*
X5106400Y6994046D01*
X5106400Y7001354D01*
X5107826Y7008522D01*
X5110622Y7015273D01*
X5114682Y7021350D01*
X5119850Y7026518D01*
X5125927Y7030578D01*
X5132678Y7033374D01*
X5139846Y7034800D01*
X5147154Y7034800D01*
X5154322Y7033374D01*
G37*
G36*
X5281322Y7033374D02*
G01*
X5288073Y7030578D01*
X5294150Y7026518D01*
X5299318Y7021350D01*
X5303378Y7015273D01*
X5306174Y7008522D01*
X5307600Y7001354D01*
X5307600Y6994046D01*
X5306174Y6986878D01*
X5303378Y6980127D01*
X5299318Y6974050D01*
X5294150Y6968882D01*
X5288073Y6964822D01*
X5281322Y6962026D01*
X5274154Y6960600D01*
X5266846Y6960600D01*
X5259678Y6962026D01*
X5252927Y6964822D01*
X5246850Y6968882D01*
X5241682Y6974050D01*
X5237622Y6980127D01*
X5234826Y6986878D01*
X5233400Y6994046D01*
X5233400Y7001354D01*
X5234826Y7008522D01*
X5237622Y7015273D01*
X5241682Y7021350D01*
X5246850Y7026518D01*
X5252927Y7030578D01*
X5259678Y7033374D01*
X5266846Y7034800D01*
X5274154Y7034800D01*
X5281322Y7033374D01*
G37*
G36*
X5408322Y7033374D02*
G01*
X5415073Y7030578D01*
X5421150Y7026518D01*
X5426318Y7021350D01*
X5430378Y7015273D01*
X5433174Y7008522D01*
X5434600Y7001354D01*
X5434600Y6994046D01*
X5433174Y6986878D01*
X5430378Y6980127D01*
X5426318Y6974050D01*
X5421150Y6968882D01*
X5415073Y6964822D01*
X5408322Y6962026D01*
X5401154Y6960600D01*
X5393846Y6960600D01*
X5386678Y6962026D01*
X5379927Y6964822D01*
X5373850Y6968882D01*
X5368682Y6974050D01*
X5364622Y6980127D01*
X5361826Y6986878D01*
X5360400Y6994046D01*
X5360400Y7001354D01*
X5361826Y7008522D01*
X5364622Y7015273D01*
X5368682Y7021350D01*
X5373850Y7026518D01*
X5379927Y7030578D01*
X5386678Y7033374D01*
X5393846Y7034800D01*
X5401154Y7034800D01*
X5408322Y7033374D01*
G37*
G36*
X5535322Y7033374D02*
G01*
X5542073Y7030578D01*
X5548150Y7026518D01*
X5553318Y7021350D01*
X5557378Y7015273D01*
X5560174Y7008522D01*
X5561600Y7001354D01*
X5561600Y6994046D01*
X5560174Y6986878D01*
X5557378Y6980127D01*
X5553318Y6974050D01*
X5548150Y6968882D01*
X5542073Y6964822D01*
X5535322Y6962026D01*
X5528154Y6960600D01*
X5520846Y6960600D01*
X5513678Y6962026D01*
X5506927Y6964822D01*
X5500850Y6968882D01*
X5495682Y6974050D01*
X5491622Y6980127D01*
X5488826Y6986878D01*
X5487400Y6994046D01*
X5487400Y7001354D01*
X5488826Y7008522D01*
X5491622Y7015273D01*
X5495682Y7021350D01*
X5500850Y7026518D01*
X5506927Y7030578D01*
X5513678Y7033374D01*
X5520846Y7034800D01*
X5528154Y7034800D01*
X5535322Y7033374D01*
G37*
G36*
X5662322Y7033374D02*
G01*
X5669073Y7030578D01*
X5675150Y7026518D01*
X5680318Y7021350D01*
X5684378Y7015273D01*
X5687174Y7008522D01*
X5688600Y7001354D01*
X5688600Y6994046D01*
X5687174Y6986878D01*
X5684378Y6980127D01*
X5680318Y6974050D01*
X5675150Y6968882D01*
X5669073Y6964822D01*
X5662322Y6962026D01*
X5655154Y6960600D01*
X5647846Y6960600D01*
X5640678Y6962026D01*
X5633927Y6964822D01*
X5627850Y6968882D01*
X5622682Y6974050D01*
X5618622Y6980127D01*
X5615826Y6986878D01*
X5614400Y6994046D01*
X5614400Y7001354D01*
X5615826Y7008522D01*
X5618622Y7015273D01*
X5622682Y7021350D01*
X5627850Y7026518D01*
X5633927Y7030578D01*
X5640678Y7033374D01*
X5647846Y7034800D01*
X5655154Y7034800D01*
X5662322Y7033374D01*
G37*
G36*
X5789322Y7033374D02*
G01*
X5796073Y7030578D01*
X5802150Y7026518D01*
X5807318Y7021350D01*
X5811378Y7015273D01*
X5814174Y7008522D01*
X5815600Y7001354D01*
X5815600Y6994046D01*
X5814174Y6986878D01*
X5811378Y6980127D01*
X5807318Y6974050D01*
X5802150Y6968882D01*
X5796073Y6964822D01*
X5789322Y6962026D01*
X5782154Y6960600D01*
X5774846Y6960600D01*
X5767678Y6962026D01*
X5760927Y6964822D01*
X5754850Y6968882D01*
X5749682Y6974050D01*
X5745622Y6980127D01*
X5742826Y6986878D01*
X5741400Y6994046D01*
X5741400Y7001354D01*
X5742826Y7008522D01*
X5745622Y7015273D01*
X5749682Y7021350D01*
X5754850Y7026518D01*
X5760927Y7030578D01*
X5767678Y7033374D01*
X5774846Y7034800D01*
X5782154Y7034800D01*
X5789322Y7033374D01*
G37*
G36*
X5916322Y7033374D02*
G01*
X5923073Y7030578D01*
X5929150Y7026518D01*
X5934318Y7021350D01*
X5938378Y7015273D01*
X5941174Y7008522D01*
X5942600Y7001354D01*
X5942600Y6994046D01*
X5941174Y6986878D01*
X5938378Y6980127D01*
X5934318Y6974050D01*
X5929150Y6968882D01*
X5923073Y6964822D01*
X5916322Y6962026D01*
X5909154Y6960600D01*
X5901846Y6960600D01*
X5894678Y6962026D01*
X5887927Y6964822D01*
X5881850Y6968882D01*
X5876682Y6974050D01*
X5872622Y6980127D01*
X5869826Y6986878D01*
X5868400Y6994046D01*
X5868400Y7001354D01*
X5869826Y7008522D01*
X5872622Y7015273D01*
X5876682Y7021350D01*
X5881850Y7026518D01*
X5887927Y7030578D01*
X5894678Y7033374D01*
X5901846Y7034800D01*
X5909154Y7034800D01*
X5916322Y7033374D01*
G37*
G36*
X1598322Y7033374D02*
G01*
X1605073Y7030578D01*
X1611150Y7026518D01*
X1616318Y7021350D01*
X1620378Y7015273D01*
X1623174Y7008522D01*
X1624600Y7001354D01*
X1624600Y6994046D01*
X1623174Y6986878D01*
X1620378Y6980127D01*
X1616318Y6974050D01*
X1611150Y6968882D01*
X1605073Y6964822D01*
X1598322Y6962026D01*
X1591154Y6960600D01*
X1583846Y6960600D01*
X1576678Y6962026D01*
X1569927Y6964822D01*
X1563850Y6968882D01*
X1558682Y6974050D01*
X1554622Y6980127D01*
X1551826Y6986878D01*
X1550400Y6994046D01*
X1550400Y7001354D01*
X1551826Y7008522D01*
X1554622Y7015273D01*
X1558682Y7021350D01*
X1563850Y7026518D01*
X1569927Y7030578D01*
X1576678Y7033374D01*
X1583846Y7034800D01*
X1591154Y7034800D01*
X1598322Y7033374D01*
G37*
G36*
X1471322Y7033374D02*
G01*
X1478073Y7030578D01*
X1484150Y7026518D01*
X1489318Y7021350D01*
X1493378Y7015273D01*
X1496174Y7008522D01*
X1497600Y7001354D01*
X1497600Y6994046D01*
X1496174Y6986878D01*
X1493378Y6980127D01*
X1489318Y6974050D01*
X1484150Y6968882D01*
X1478073Y6964822D01*
X1471322Y6962026D01*
X1464154Y6960600D01*
X1456846Y6960600D01*
X1449678Y6962026D01*
X1442927Y6964822D01*
X1436850Y6968882D01*
X1431682Y6974050D01*
X1427622Y6980127D01*
X1424826Y6986878D01*
X1423400Y6994046D01*
X1423400Y7001354D01*
X1424826Y7008522D01*
X1427622Y7015273D01*
X1431682Y7021350D01*
X1436850Y7026518D01*
X1442927Y7030578D01*
X1449678Y7033374D01*
X1456846Y7034800D01*
X1464154Y7034800D01*
X1471322Y7033374D01*
G37*
G36*
X1344322Y7033374D02*
G01*
X1351073Y7030578D01*
X1357150Y7026518D01*
X1362318Y7021350D01*
X1366378Y7015273D01*
X1369174Y7008522D01*
X1370600Y7001354D01*
X1370600Y6994046D01*
X1369174Y6986878D01*
X1366378Y6980127D01*
X1362318Y6974050D01*
X1357150Y6968882D01*
X1351073Y6964822D01*
X1344322Y6962026D01*
X1337154Y6960600D01*
X1329846Y6960600D01*
X1322678Y6962026D01*
X1315927Y6964822D01*
X1309850Y6968882D01*
X1304682Y6974050D01*
X1300622Y6980127D01*
X1297826Y6986878D01*
X1296400Y6994046D01*
X1296400Y7001354D01*
X1297826Y7008522D01*
X1300622Y7015273D01*
X1304682Y7021350D01*
X1309850Y7026518D01*
X1315927Y7030578D01*
X1322678Y7033374D01*
X1329846Y7034800D01*
X1337154Y7034800D01*
X1344322Y7033374D01*
G37*
G36*
X1217322Y7033374D02*
G01*
X1224073Y7030578D01*
X1230150Y7026518D01*
X1235318Y7021350D01*
X1239378Y7015273D01*
X1242174Y7008522D01*
X1243600Y7001354D01*
X1243600Y6994046D01*
X1242174Y6986878D01*
X1239378Y6980127D01*
X1235318Y6974050D01*
X1230150Y6968882D01*
X1224073Y6964822D01*
X1217322Y6962026D01*
X1210154Y6960600D01*
X1202846Y6960600D01*
X1195678Y6962026D01*
X1188927Y6964822D01*
X1182850Y6968882D01*
X1177682Y6974050D01*
X1173622Y6980127D01*
X1170826Y6986878D01*
X1169400Y6994046D01*
X1169400Y7001354D01*
X1170826Y7008522D01*
X1173622Y7015273D01*
X1177682Y7021350D01*
X1182850Y7026518D01*
X1188927Y7030578D01*
X1195678Y7033374D01*
X1202846Y7034800D01*
X1210154Y7034800D01*
X1217322Y7033374D01*
G37*
G36*
X1090322Y7033374D02*
G01*
X1097073Y7030578D01*
X1103150Y7026518D01*
X1108318Y7021350D01*
X1112378Y7015273D01*
X1115174Y7008522D01*
X1116600Y7001354D01*
X1116600Y6994046D01*
X1115174Y6986878D01*
X1112378Y6980127D01*
X1108318Y6974050D01*
X1103150Y6968882D01*
X1097073Y6964822D01*
X1090322Y6962026D01*
X1083154Y6960600D01*
X1075846Y6960600D01*
X1068678Y6962026D01*
X1061927Y6964822D01*
X1055850Y6968882D01*
X1050682Y6974050D01*
X1046622Y6980127D01*
X1043826Y6986878D01*
X1042400Y6994046D01*
X1042400Y7001354D01*
X1043826Y7008522D01*
X1046622Y7015273D01*
X1050682Y7021350D01*
X1055850Y7026518D01*
X1061927Y7030578D01*
X1068678Y7033374D01*
X1075846Y7034800D01*
X1083154Y7034800D01*
X1090322Y7033374D01*
G37*
G36*
X963322Y7033374D02*
G01*
X970073Y7030578D01*
X976150Y7026518D01*
X981318Y7021350D01*
X985378Y7015273D01*
X988174Y7008522D01*
X989600Y7001354D01*
X989600Y6994046D01*
X988174Y6986878D01*
X985378Y6980127D01*
X981318Y6974050D01*
X976150Y6968882D01*
X970073Y6964822D01*
X963322Y6962026D01*
X956154Y6960600D01*
X948846Y6960600D01*
X941678Y6962026D01*
X934927Y6964822D01*
X928850Y6968882D01*
X923682Y6974050D01*
X919622Y6980127D01*
X916826Y6986878D01*
X915400Y6994046D01*
X915400Y7001354D01*
X916826Y7008522D01*
X919622Y7015273D01*
X923682Y7021350D01*
X928850Y7026518D01*
X934927Y7030578D01*
X941678Y7033374D01*
X948846Y7034800D01*
X956154Y7034800D01*
X963322Y7033374D01*
G37*
M02*
