%TF.GenerationSoftware,KiCad,Pcbnew,(5.1.5-0-10_14)*%
%TF.CreationDate,2020-01-10T14:35:19+01:00*%
%TF.ProjectId,adapter_hybrid_assister,61646170-7465-4725-9f68-79627269645f,rev?*%
%TF.SameCoordinates,PX6312cb0PY8accb70*%
%TF.FileFunction,Legend,Bot*%
%TF.FilePolarity,Positive*%
%FSLAX45Y45*%
G04 Gerber Fmt 4.5, Leading zero omitted, Abs format (unit mm)*
G04 Created by KiCad (PCBNEW (5.1.5-0-10_14)) date 2020-01-10 14:35:19*
%MOMM*%
%LPD*%
G04 APERTURE LIST*
%TA.AperFunction,Profile*%
%ADD10C,0.050000*%
%TD*%
%ADD11C,0.120000*%
%ADD12C,0.150000*%
%TA.AperFunction,Profile*%
%ADD13C,0.100000*%
%TD*%
%ADD14C,0.330000*%
%ADD15C,0.250000*%
%ADD16C,0.350000*%
%ADD17C,0.152400*%
%ADD18C,0.200000*%
G04 APERTURE END LIST*
D10*
X6713533Y7493000D02*
G75*
G03X6713533Y7493000I-33333J0D01*
G01*
X6630200Y7493000D02*
X6730200Y7493000D01*
X6680200Y7543000D02*
X6680200Y7443000D01*
X236533Y203200D02*
G75*
G03X236533Y203200I-33333J0D01*
G01*
X153200Y203200D02*
X253200Y203200D01*
X203200Y253200D02*
X203200Y153200D01*
X454800Y584200D02*
G75*
G03X454800Y584200I-150000J0D01*
G01*
D11*
X1778000Y4292600D02*
X1701800Y4343400D01*
X1778000Y4292600D02*
X1854200Y4343400D01*
X1778000Y4495800D02*
X1701800Y4445000D01*
X1778000Y4495800D02*
X1854200Y4445000D01*
X1778000Y4495800D02*
X1778000Y4292600D01*
D12*
X1878790Y4194962D02*
X1878790Y4114010D01*
X1874028Y4104486D01*
X1869267Y4099724D01*
X1859743Y4094962D01*
X1840695Y4094962D01*
X1831171Y4099724D01*
X1826409Y4104486D01*
X1821648Y4114010D01*
X1821648Y4194962D01*
X1778790Y4099724D02*
X1764505Y4094962D01*
X1740695Y4094962D01*
X1731171Y4099724D01*
X1726409Y4104486D01*
X1721648Y4114010D01*
X1721648Y4123533D01*
X1726409Y4133057D01*
X1731171Y4137819D01*
X1740695Y4142581D01*
X1759743Y4147343D01*
X1769267Y4152105D01*
X1774028Y4156867D01*
X1778790Y4166390D01*
X1778790Y4175914D01*
X1774028Y4185438D01*
X1769267Y4190200D01*
X1759743Y4194962D01*
X1735933Y4194962D01*
X1721648Y4190200D01*
X1645457Y4147343D02*
X1631171Y4142581D01*
X1626409Y4137819D01*
X1621648Y4128295D01*
X1621648Y4114010D01*
X1626409Y4104486D01*
X1631171Y4099724D01*
X1640695Y4094962D01*
X1678790Y4094962D01*
X1678790Y4194962D01*
X1645457Y4194962D01*
X1635933Y4190200D01*
X1631171Y4185438D01*
X1626409Y4175914D01*
X1626409Y4166390D01*
X1631171Y4156867D01*
X1635933Y4152105D01*
X1645457Y4147343D01*
X1678790Y4147343D01*
X1845457Y4655343D02*
X1878790Y4655343D01*
X1878790Y4602962D02*
X1878790Y4702962D01*
X1831171Y4702962D01*
X1793076Y4602962D02*
X1793076Y4702962D01*
X1759743Y4631533D01*
X1726409Y4702962D01*
X1726409Y4602962D01*
X1621648Y4612486D02*
X1626409Y4607724D01*
X1640695Y4602962D01*
X1650219Y4602962D01*
X1664505Y4607724D01*
X1674028Y4617248D01*
X1678790Y4626772D01*
X1683552Y4645819D01*
X1683552Y4660105D01*
X1678790Y4679152D01*
X1674028Y4688676D01*
X1664505Y4698200D01*
X1650219Y4702962D01*
X1640695Y4702962D01*
X1626409Y4698200D01*
X1621648Y4693438D01*
D10*
X6703200Y584200D02*
G75*
G03X6703200Y584200I-150000J0D01*
G01*
X0Y0D02*
X0Y7670800D01*
X6858000Y7670800D02*
X6858000Y0D01*
D13*
X0Y7670800D02*
X6858000Y7670800D01*
X6858000Y0D02*
X0Y0D01*
D14*
%TO.C,C4*%
X2116800Y4134200D02*
G75*
G03X2116800Y4134200I-10000J0D01*
G01*
%TO.C,C5*%
X4707600Y4083400D02*
G75*
G03X4707600Y4083400I-10000J0D01*
G01*
%TO.C,C7*%
X3737800Y5531000D02*
G75*
G03X3737800Y5531000I-10000J0D01*
G01*
%TO.C,C9*%
X5084000Y5023000D02*
G75*
G03X5084000Y5023000I-10000J0D01*
G01*
D15*
%TO.C,U7*%
X4607500Y5045700D02*
G75*
G03X4607500Y5045700I-12500J0D01*
G01*
%TO.C,U9*%
X5877500Y4474200D02*
G75*
G03X5877500Y4474200I-12500J0D01*
G01*
D11*
%TO.C,R41*%
X2448722Y3937200D02*
X2481278Y3937200D01*
X2448722Y3835200D02*
X2481278Y3835200D01*
%TO.C,R42*%
X3710778Y3835200D02*
X3678222Y3835200D01*
X3710778Y3937200D02*
X3678222Y3937200D01*
%TO.C,R43*%
X2448722Y3746700D02*
X2481278Y3746700D01*
X2448722Y3644700D02*
X2481278Y3644700D01*
%TO.C,R44*%
X3710778Y3644700D02*
X3678222Y3644700D01*
X3710778Y3746700D02*
X3678222Y3746700D01*
%TO.C,R51*%
X4948222Y3937200D02*
X4980778Y3937200D01*
X4948222Y3835200D02*
X4980778Y3835200D01*
%TO.C,R52*%
X6291278Y3835200D02*
X6258722Y3835200D01*
X6291278Y3937200D02*
X6258722Y3937200D01*
%TO.C,R53*%
X4948222Y3746700D02*
X4980778Y3746700D01*
X4948222Y3644700D02*
X4980778Y3644700D01*
%TO.C,R54*%
X6291278Y3644700D02*
X6258722Y3644700D01*
X6291278Y3746700D02*
X6258722Y3746700D01*
D16*
%TO.C,C2*%
X901200Y3767200D02*
G75*
G03X901200Y3767200I-10000J0D01*
G01*
D17*
X523240Y3848100D02*
X645160Y3848100D01*
X645160Y3670300D02*
X523240Y3670300D01*
D16*
%TO.C,C3*%
X1726700Y3767200D02*
G75*
G03X1726700Y3767200I-10000J0D01*
G01*
D17*
X1348740Y3848100D02*
X1470660Y3848100D01*
X1470660Y3670300D02*
X1348740Y3670300D01*
D16*
%TO.C,C1*%
X446500Y4625000D02*
G75*
G03X446500Y4625000I-10000J0D01*
G01*
D17*
X355600Y4257040D02*
X355600Y4378960D01*
X533400Y4378960D02*
X533400Y4257040D01*
D18*
%TO.C,S1*%
X1567959Y4752000D02*
G75*
G03X1567959Y4752000I-7159J0D01*
G01*
X1314000Y4844200D02*
X1314000Y4726500D01*
X1314000Y3944200D02*
X1314000Y4061900D01*
X1014000Y4844200D02*
X1014000Y4726500D01*
X1014000Y3944200D02*
X1014000Y4061900D01*
X1314000Y3944200D02*
X1014000Y3944200D01*
X1014000Y4844200D02*
X1314000Y4844200D01*
%TO.C,U5*%
X5286900Y3564700D02*
X5439600Y3564700D01*
X5474600Y4067900D02*
X5474600Y3577500D01*
X5794200Y4067900D02*
X5474600Y4067900D01*
X5794200Y3577500D02*
X5794200Y4067900D01*
X5474600Y3577500D02*
X5794200Y3577500D01*
%TO.C,U4*%
X2717600Y3564700D02*
X2870300Y3564700D01*
X2905300Y4067900D02*
X2905300Y3577500D01*
X3224900Y4067900D02*
X2905300Y4067900D01*
X3224900Y3577500D02*
X3224900Y4067900D01*
X2905300Y3577500D02*
X3224900Y3577500D01*
%TO.C,U2*%
X1251000Y3465700D02*
X1251000Y3290700D01*
X1888500Y3238200D02*
X1238500Y3238200D01*
X1888500Y2888200D02*
X1888500Y3238200D01*
X1238500Y2888200D02*
X1888500Y2888200D01*
X1238500Y3238200D02*
X1238500Y2888200D01*
%TO.C,U1*%
X449500Y3465700D02*
X449500Y3290700D01*
X1087000Y3238200D02*
X437000Y3238200D01*
X1087000Y2888200D02*
X1087000Y3238200D01*
X437000Y2888200D02*
X1087000Y2888200D01*
X437000Y3238200D02*
X437000Y2888200D01*
%TD*%
%TO.C,C4*%
D12*
X2400467Y4282286D02*
X2405229Y4277524D01*
X2419514Y4272762D01*
X2429038Y4272762D01*
X2443324Y4277524D01*
X2452848Y4287048D01*
X2457610Y4296572D01*
X2462371Y4315619D01*
X2462371Y4329905D01*
X2457610Y4348952D01*
X2452848Y4358476D01*
X2443324Y4368000D01*
X2429038Y4372762D01*
X2419514Y4372762D01*
X2405229Y4368000D01*
X2400467Y4363238D01*
X2314752Y4339429D02*
X2314752Y4272762D01*
X2338562Y4377524D02*
X2362371Y4306095D01*
X2300467Y4306095D01*
%TO.C,C5*%
X4969667Y4231486D02*
X4974429Y4226724D01*
X4988714Y4221962D01*
X4998238Y4221962D01*
X5012524Y4226724D01*
X5022048Y4236248D01*
X5026810Y4245772D01*
X5031571Y4264819D01*
X5031571Y4279105D01*
X5026810Y4298152D01*
X5022048Y4307676D01*
X5012524Y4317200D01*
X4998238Y4321962D01*
X4988714Y4321962D01*
X4974429Y4317200D01*
X4969667Y4312438D01*
X4879190Y4321962D02*
X4926810Y4321962D01*
X4931571Y4274343D01*
X4926810Y4279105D01*
X4917286Y4283867D01*
X4893476Y4283867D01*
X4883952Y4279105D01*
X4879190Y4274343D01*
X4874429Y4264819D01*
X4874429Y4241010D01*
X4879190Y4231486D01*
X4883952Y4226724D01*
X4893476Y4221962D01*
X4917286Y4221962D01*
X4926810Y4226724D01*
X4931571Y4231486D01*
%TO.C,C7*%
X3750467Y4942686D02*
X3755228Y4937924D01*
X3769514Y4933162D01*
X3779038Y4933162D01*
X3793324Y4937924D01*
X3802848Y4947448D01*
X3807609Y4956972D01*
X3812371Y4976019D01*
X3812371Y4990305D01*
X3807609Y5009352D01*
X3802848Y5018876D01*
X3793324Y5028400D01*
X3779038Y5033162D01*
X3769514Y5033162D01*
X3755228Y5028400D01*
X3750467Y5023638D01*
X3717133Y5033162D02*
X3650467Y5033162D01*
X3693324Y4933162D01*
%TO.C,C9*%
X5096667Y4434686D02*
X5101429Y4429924D01*
X5115714Y4425162D01*
X5125238Y4425162D01*
X5139524Y4429924D01*
X5149048Y4439448D01*
X5153810Y4448972D01*
X5158571Y4468019D01*
X5158571Y4482305D01*
X5153810Y4501352D01*
X5149048Y4510876D01*
X5139524Y4520400D01*
X5125238Y4525162D01*
X5115714Y4525162D01*
X5101429Y4520400D01*
X5096667Y4515638D01*
X5049048Y4425162D02*
X5030000Y4425162D01*
X5020476Y4429924D01*
X5015714Y4434686D01*
X5006190Y4448972D01*
X5001429Y4468019D01*
X5001429Y4506114D01*
X5006190Y4515638D01*
X5010952Y4520400D01*
X5020476Y4525162D01*
X5039524Y4525162D01*
X5049048Y4520400D01*
X5053810Y4515638D01*
X5058571Y4506114D01*
X5058571Y4482305D01*
X5053810Y4472781D01*
X5049048Y4468019D01*
X5039524Y4463257D01*
X5020476Y4463257D01*
X5010952Y4468019D01*
X5006190Y4472781D01*
X5001429Y4482305D01*
%TO.C,U7*%
X4521190Y5718962D02*
X4521190Y5638010D01*
X4516429Y5628486D01*
X4511667Y5623724D01*
X4502143Y5618962D01*
X4483095Y5618962D01*
X4473571Y5623724D01*
X4468810Y5628486D01*
X4464048Y5638010D01*
X4464048Y5718962D01*
X4425952Y5718962D02*
X4359286Y5718962D01*
X4402143Y5618962D01*
%TO.C,U9*%
X5791190Y5160162D02*
X5791190Y5079210D01*
X5786428Y5069686D01*
X5781667Y5064924D01*
X5772143Y5060162D01*
X5753095Y5060162D01*
X5743571Y5064924D01*
X5738809Y5069686D01*
X5734048Y5079210D01*
X5734048Y5160162D01*
X5681667Y5060162D02*
X5662619Y5060162D01*
X5653095Y5064924D01*
X5648333Y5069686D01*
X5638809Y5083972D01*
X5634048Y5103019D01*
X5634048Y5141114D01*
X5638809Y5150638D01*
X5643571Y5155400D01*
X5653095Y5160162D01*
X5672143Y5160162D01*
X5681667Y5155400D01*
X5686428Y5150638D01*
X5691190Y5141114D01*
X5691190Y5117305D01*
X5686428Y5107781D01*
X5681667Y5103019D01*
X5672143Y5098257D01*
X5653095Y5098257D01*
X5643571Y5103019D01*
X5638809Y5107781D01*
X5634048Y5117305D01*
%TO.C,R41*%
X2197886Y3891762D02*
X2231219Y3939381D01*
X2255029Y3891762D02*
X2255029Y3991762D01*
X2216933Y3991762D01*
X2207410Y3987000D01*
X2202648Y3982238D01*
X2197886Y3972714D01*
X2197886Y3958429D01*
X2202648Y3948905D01*
X2207410Y3944143D01*
X2216933Y3939381D01*
X2255029Y3939381D01*
X2112171Y3958429D02*
X2112171Y3891762D01*
X2135981Y3996524D02*
X2159790Y3925095D01*
X2097886Y3925095D01*
X2007409Y3891762D02*
X2064552Y3891762D01*
X2035981Y3891762D02*
X2035981Y3991762D01*
X2045505Y3977476D01*
X2055028Y3967952D01*
X2064552Y3963190D01*
%TO.C,R42*%
X4077486Y3891762D02*
X4110819Y3939381D01*
X4134628Y3891762D02*
X4134628Y3991762D01*
X4096533Y3991762D01*
X4087009Y3987000D01*
X4082248Y3982238D01*
X4077486Y3972714D01*
X4077486Y3958429D01*
X4082248Y3948905D01*
X4087009Y3944143D01*
X4096533Y3939381D01*
X4134628Y3939381D01*
X3991771Y3958429D02*
X3991771Y3891762D01*
X4015581Y3996524D02*
X4039390Y3925095D01*
X3977486Y3925095D01*
X3944152Y3982238D02*
X3939390Y3987000D01*
X3929867Y3991762D01*
X3906057Y3991762D01*
X3896533Y3987000D01*
X3891771Y3982238D01*
X3887009Y3972714D01*
X3887009Y3963190D01*
X3891771Y3948905D01*
X3948914Y3891762D01*
X3887009Y3891762D01*
%TO.C,R43*%
X2197886Y3663162D02*
X2231219Y3710781D01*
X2255029Y3663162D02*
X2255029Y3763162D01*
X2216933Y3763162D01*
X2207410Y3758400D01*
X2202648Y3753638D01*
X2197886Y3744114D01*
X2197886Y3729829D01*
X2202648Y3720305D01*
X2207410Y3715543D01*
X2216933Y3710781D01*
X2255029Y3710781D01*
X2112171Y3729829D02*
X2112171Y3663162D01*
X2135981Y3767924D02*
X2159790Y3696495D01*
X2097886Y3696495D01*
X2069314Y3763162D02*
X2007409Y3763162D01*
X2040743Y3725067D01*
X2026457Y3725067D01*
X2016933Y3720305D01*
X2012171Y3715543D01*
X2007409Y3706019D01*
X2007409Y3682210D01*
X2012171Y3672686D01*
X2016933Y3667924D01*
X2026457Y3663162D01*
X2055028Y3663162D01*
X2064552Y3667924D01*
X2069314Y3672686D01*
%TO.C,R44*%
X4077486Y3663162D02*
X4110819Y3710781D01*
X4134628Y3663162D02*
X4134628Y3763162D01*
X4096533Y3763162D01*
X4087009Y3758400D01*
X4082248Y3753638D01*
X4077486Y3744114D01*
X4077486Y3729829D01*
X4082248Y3720305D01*
X4087009Y3715543D01*
X4096533Y3710781D01*
X4134628Y3710781D01*
X3991771Y3729829D02*
X3991771Y3663162D01*
X4015581Y3767924D02*
X4039390Y3696495D01*
X3977486Y3696495D01*
X3896533Y3729829D02*
X3896533Y3663162D01*
X3920343Y3767924D02*
X3944152Y3696495D01*
X3882248Y3696495D01*
%TO.C,R51*%
X4687086Y3891762D02*
X4720419Y3939381D01*
X4744229Y3891762D02*
X4744229Y3991762D01*
X4706133Y3991762D01*
X4696610Y3987000D01*
X4691848Y3982238D01*
X4687086Y3972714D01*
X4687086Y3958429D01*
X4691848Y3948905D01*
X4696610Y3944143D01*
X4706133Y3939381D01*
X4744229Y3939381D01*
X4596610Y3991762D02*
X4644229Y3991762D01*
X4648990Y3944143D01*
X4644229Y3948905D01*
X4634705Y3953667D01*
X4610895Y3953667D01*
X4601371Y3948905D01*
X4596610Y3944143D01*
X4591848Y3934619D01*
X4591848Y3910810D01*
X4596610Y3901286D01*
X4601371Y3896524D01*
X4610895Y3891762D01*
X4634705Y3891762D01*
X4644229Y3896524D01*
X4648990Y3901286D01*
X4496610Y3891762D02*
X4553752Y3891762D01*
X4525181Y3891762D02*
X4525181Y3991762D01*
X4534705Y3977476D01*
X4544229Y3967952D01*
X4553752Y3963190D01*
%TO.C,R52*%
X6668286Y3891762D02*
X6701619Y3939381D01*
X6725428Y3891762D02*
X6725428Y3991762D01*
X6687333Y3991762D01*
X6677809Y3987000D01*
X6673048Y3982238D01*
X6668286Y3972714D01*
X6668286Y3958429D01*
X6673048Y3948905D01*
X6677809Y3944143D01*
X6687333Y3939381D01*
X6725428Y3939381D01*
X6577809Y3991762D02*
X6625428Y3991762D01*
X6630190Y3944143D01*
X6625428Y3948905D01*
X6615905Y3953667D01*
X6592095Y3953667D01*
X6582571Y3948905D01*
X6577809Y3944143D01*
X6573048Y3934619D01*
X6573048Y3910810D01*
X6577809Y3901286D01*
X6582571Y3896524D01*
X6592095Y3891762D01*
X6615905Y3891762D01*
X6625428Y3896524D01*
X6630190Y3901286D01*
X6534952Y3982238D02*
X6530190Y3987000D01*
X6520667Y3991762D01*
X6496857Y3991762D01*
X6487333Y3987000D01*
X6482571Y3982238D01*
X6477809Y3972714D01*
X6477809Y3963190D01*
X6482571Y3948905D01*
X6539714Y3891762D01*
X6477809Y3891762D01*
%TO.C,R53*%
X4687086Y3663162D02*
X4720419Y3710781D01*
X4744229Y3663162D02*
X4744229Y3763162D01*
X4706133Y3763162D01*
X4696610Y3758400D01*
X4691848Y3753638D01*
X4687086Y3744114D01*
X4687086Y3729829D01*
X4691848Y3720305D01*
X4696610Y3715543D01*
X4706133Y3710781D01*
X4744229Y3710781D01*
X4596610Y3763162D02*
X4644229Y3763162D01*
X4648990Y3715543D01*
X4644229Y3720305D01*
X4634705Y3725067D01*
X4610895Y3725067D01*
X4601371Y3720305D01*
X4596610Y3715543D01*
X4591848Y3706019D01*
X4591848Y3682210D01*
X4596610Y3672686D01*
X4601371Y3667924D01*
X4610895Y3663162D01*
X4634705Y3663162D01*
X4644229Y3667924D01*
X4648990Y3672686D01*
X4558514Y3763162D02*
X4496610Y3763162D01*
X4529943Y3725067D01*
X4515657Y3725067D01*
X4506133Y3720305D01*
X4501371Y3715543D01*
X4496610Y3706019D01*
X4496610Y3682210D01*
X4501371Y3672686D01*
X4506133Y3667924D01*
X4515657Y3663162D01*
X4544229Y3663162D01*
X4553752Y3667924D01*
X4558514Y3672686D01*
%TO.C,R54*%
X6668286Y3663162D02*
X6701619Y3710781D01*
X6725428Y3663162D02*
X6725428Y3763162D01*
X6687333Y3763162D01*
X6677809Y3758400D01*
X6673048Y3753638D01*
X6668286Y3744114D01*
X6668286Y3729829D01*
X6673048Y3720305D01*
X6677809Y3715543D01*
X6687333Y3710781D01*
X6725428Y3710781D01*
X6577809Y3763162D02*
X6625428Y3763162D01*
X6630190Y3715543D01*
X6625428Y3720305D01*
X6615905Y3725067D01*
X6592095Y3725067D01*
X6582571Y3720305D01*
X6577809Y3715543D01*
X6573048Y3706019D01*
X6573048Y3682210D01*
X6577809Y3672686D01*
X6582571Y3667924D01*
X6592095Y3663162D01*
X6615905Y3663162D01*
X6625428Y3667924D01*
X6630190Y3672686D01*
X6487333Y3729829D02*
X6487333Y3663162D01*
X6511143Y3767924D02*
X6534952Y3696495D01*
X6473048Y3696495D01*
%TO.C,C2*%
X346867Y3723486D02*
X351628Y3718724D01*
X365914Y3713962D01*
X375438Y3713962D01*
X389724Y3718724D01*
X399248Y3728248D01*
X404009Y3737771D01*
X408771Y3756819D01*
X408771Y3771105D01*
X404009Y3790152D01*
X399248Y3799676D01*
X389724Y3809200D01*
X375438Y3813962D01*
X365914Y3813962D01*
X351628Y3809200D01*
X346867Y3804438D01*
X308771Y3804438D02*
X304010Y3809200D01*
X294486Y3813962D01*
X270676Y3813962D01*
X261152Y3809200D01*
X256390Y3804438D01*
X251628Y3794914D01*
X251628Y3785390D01*
X256390Y3771105D01*
X313533Y3713962D01*
X251628Y3713962D01*
%TO.C,C3*%
X1185067Y3723486D02*
X1189829Y3718724D01*
X1204114Y3713962D01*
X1213638Y3713962D01*
X1227924Y3718724D01*
X1237448Y3728248D01*
X1242210Y3737771D01*
X1246971Y3756819D01*
X1246971Y3771105D01*
X1242210Y3790152D01*
X1237448Y3799676D01*
X1227924Y3809200D01*
X1213638Y3813962D01*
X1204114Y3813962D01*
X1189829Y3809200D01*
X1185067Y3804438D01*
X1151733Y3813962D02*
X1089829Y3813962D01*
X1123162Y3775867D01*
X1108876Y3775867D01*
X1099352Y3771105D01*
X1094590Y3766343D01*
X1089829Y3756819D01*
X1089829Y3733010D01*
X1094590Y3723486D01*
X1099352Y3718724D01*
X1108876Y3713962D01*
X1137448Y3713962D01*
X1146971Y3718724D01*
X1151733Y3723486D01*
%TO.C,C1*%
X448467Y4079086D02*
X453228Y4074324D01*
X467514Y4069562D01*
X477038Y4069562D01*
X491324Y4074324D01*
X500848Y4083848D01*
X505609Y4093371D01*
X510371Y4112419D01*
X510371Y4126705D01*
X505609Y4145752D01*
X500848Y4155276D01*
X491324Y4164800D01*
X477038Y4169562D01*
X467514Y4169562D01*
X453228Y4164800D01*
X448467Y4160038D01*
X353228Y4069562D02*
X410371Y4069562D01*
X381800Y4069562D02*
X381800Y4169562D01*
X391324Y4155276D01*
X400848Y4145752D01*
X410371Y4140990D01*
%TO.C,S1*%
X1233390Y4937924D02*
X1219105Y4933162D01*
X1195295Y4933162D01*
X1185771Y4937924D01*
X1181010Y4942686D01*
X1176248Y4952210D01*
X1176248Y4961733D01*
X1181010Y4971257D01*
X1185771Y4976019D01*
X1195295Y4980781D01*
X1214343Y4985543D01*
X1223867Y4990305D01*
X1228629Y4995067D01*
X1233390Y5004591D01*
X1233390Y5014114D01*
X1228629Y5023638D01*
X1223867Y5028400D01*
X1214343Y5033162D01*
X1190533Y5033162D01*
X1176248Y5028400D01*
X1081010Y4933162D02*
X1138152Y4933162D01*
X1109581Y4933162D02*
X1109581Y5033162D01*
X1119105Y5018876D01*
X1128629Y5009352D01*
X1138152Y5004591D01*
%TO.C,U5*%
X5689590Y4271162D02*
X5689590Y4190210D01*
X5684828Y4180686D01*
X5680067Y4175924D01*
X5670543Y4171162D01*
X5651495Y4171162D01*
X5641971Y4175924D01*
X5637209Y4180686D01*
X5632448Y4190210D01*
X5632448Y4271162D01*
X5537210Y4271162D02*
X5584829Y4271162D01*
X5589590Y4223543D01*
X5584829Y4228305D01*
X5575305Y4233067D01*
X5551495Y4233067D01*
X5541971Y4228305D01*
X5537210Y4223543D01*
X5532448Y4214019D01*
X5532448Y4190210D01*
X5537210Y4180686D01*
X5541971Y4175924D01*
X5551495Y4171162D01*
X5575305Y4171162D01*
X5584829Y4175924D01*
X5589590Y4180686D01*
%TO.C,U4*%
X3149590Y4271162D02*
X3149590Y4190210D01*
X3144828Y4180686D01*
X3140067Y4175924D01*
X3130543Y4171162D01*
X3111495Y4171162D01*
X3101971Y4175924D01*
X3097209Y4180686D01*
X3092448Y4190210D01*
X3092448Y4271162D01*
X3001971Y4237829D02*
X3001971Y4171162D01*
X3025781Y4275924D02*
X3049590Y4204495D01*
X2987686Y4204495D01*
%TO.C,U2*%
X2184390Y3128162D02*
X2184390Y3047210D01*
X2179629Y3037686D01*
X2174867Y3032924D01*
X2165343Y3028162D01*
X2146295Y3028162D01*
X2136771Y3032924D01*
X2132010Y3037686D01*
X2127248Y3047210D01*
X2127248Y3128162D01*
X2084390Y3118638D02*
X2079628Y3123400D01*
X2070105Y3128162D01*
X2046295Y3128162D01*
X2036771Y3123400D01*
X2032009Y3118638D01*
X2027248Y3109114D01*
X2027248Y3099590D01*
X2032009Y3085305D01*
X2089152Y3028162D01*
X2027248Y3028162D01*
%TO.C,U1*%
X304790Y3128162D02*
X304790Y3047210D01*
X300029Y3037686D01*
X295267Y3032924D01*
X285743Y3028162D01*
X266695Y3028162D01*
X257171Y3032924D01*
X252409Y3037686D01*
X247648Y3047210D01*
X247648Y3128162D01*
X147648Y3028162D02*
X204790Y3028162D01*
X176219Y3028162D02*
X176219Y3128162D01*
X185743Y3113876D01*
X195267Y3104352D01*
X204790Y3099590D01*
%TD*%
M02*
