G04 #@! TF.GenerationSoftware,KiCad,Pcbnew,(6.0.4-0)*
G04 #@! TF.CreationDate,2022-07-08T14:42:32+02:00*
G04 #@! TF.ProjectId,adapter_hybrid_assistor_hpc_3HDMI,61646170-7465-4725-9f68-79627269645f,rev?*
G04 #@! TF.SameCoordinates,Original*
G04 #@! TF.FileFunction,Copper,L6,Bot*
G04 #@! TF.FilePolarity,Positive*
%FSLAX46Y46*%
G04 Gerber Fmt 4.6, Leading zero omitted, Abs format (unit mm)*
G04 Created by KiCad (PCBNEW (6.0.4-0)) date 2022-07-08 14:42:32*
%MOMM*%
%LPD*%
G01*
G04 APERTURE LIST*
G04 Aperture macros list*
%AMRoundRect*
0 Rectangle with rounded corners*
0 $1 Rounding radius*
0 $2 $3 $4 $5 $6 $7 $8 $9 X,Y pos of 4 corners*
0 Add a 4 corners polygon primitive as box body*
4,1,4,$2,$3,$4,$5,$6,$7,$8,$9,$2,$3,0*
0 Add four circle primitives for the rounded corners*
1,1,$1+$1,$2,$3*
1,1,$1+$1,$4,$5*
1,1,$1+$1,$6,$7*
1,1,$1+$1,$8,$9*
0 Add four rect primitives between the rounded corners*
20,1,$1+$1,$2,$3,$4,$5,0*
20,1,$1+$1,$4,$5,$6,$7,0*
20,1,$1+$1,$6,$7,$8,$9,0*
20,1,$1+$1,$8,$9,$2,$3,0*%
G04 Aperture macros list end*
G04 #@! TA.AperFunction,ComponentPad*
%ADD10C,4.000000*%
G04 #@! TD*
G04 #@! TA.AperFunction,ComponentPad*
%ADD11C,1.995000*%
G04 #@! TD*
G04 #@! TA.AperFunction,SMDPad,CuDef*
%ADD12R,1.000000X0.950000*%
G04 #@! TD*
G04 #@! TA.AperFunction,SMDPad,CuDef*
%ADD13C,0.640000*%
G04 #@! TD*
G04 #@! TA.AperFunction,SMDPad,CuDef*
%ADD14R,0.300000X0.850000*%
G04 #@! TD*
G04 #@! TA.AperFunction,SMDPad,CuDef*
%ADD15R,0.850000X0.300000*%
G04 #@! TD*
G04 #@! TA.AperFunction,SMDPad,CuDef*
%ADD16R,2.400000X2.400000*%
G04 #@! TD*
G04 #@! TA.AperFunction,SMDPad,CuDef*
%ADD17RoundRect,0.200000X-0.200000X-0.275000X0.200000X-0.275000X0.200000X0.275000X-0.200000X0.275000X0*%
G04 #@! TD*
G04 #@! TA.AperFunction,SMDPad,CuDef*
%ADD18RoundRect,0.200000X0.275000X-0.200000X0.275000X0.200000X-0.275000X0.200000X-0.275000X-0.200000X0*%
G04 #@! TD*
G04 #@! TA.AperFunction,SMDPad,CuDef*
%ADD19R,1.528000X0.650000*%
G04 #@! TD*
G04 #@! TA.AperFunction,SMDPad,CuDef*
%ADD20RoundRect,0.200000X0.200000X0.275000X-0.200000X0.275000X-0.200000X-0.275000X0.200000X-0.275000X0*%
G04 #@! TD*
G04 #@! TA.AperFunction,ViaPad*
%ADD21C,0.800000*%
G04 #@! TD*
G04 #@! TA.AperFunction,Conductor*
%ADD22C,0.200000*%
G04 #@! TD*
G04 APERTURE END LIST*
D10*
X165683000Y-110458000D03*
X103303000Y-110458000D03*
D11*
X106189000Y-167050000D03*
X120689000Y-167050000D03*
X105589000Y-171950000D03*
X121289000Y-171950000D03*
X147369000Y-167060000D03*
X161869000Y-167060000D03*
X146769000Y-171960000D03*
X162469000Y-171960000D03*
X126819000Y-167050000D03*
X141319000Y-167050000D03*
X126219000Y-171950000D03*
X141919000Y-171950000D03*
D12*
X123490000Y-124380000D03*
X123490000Y-125980000D03*
X144140000Y-124400000D03*
X144140000Y-126000000D03*
D13*
X159260000Y-105280000D03*
X157990000Y-105280000D03*
X156720000Y-105280000D03*
X155450000Y-105280000D03*
X154180000Y-105280000D03*
X152910000Y-105280000D03*
X151640000Y-105280000D03*
X150370000Y-105280000D03*
X149100000Y-105280000D03*
X147830000Y-105280000D03*
X146560000Y-105280000D03*
X145290000Y-105280000D03*
X144020000Y-105280000D03*
X142750000Y-105280000D03*
X141480000Y-105280000D03*
X140210000Y-105280000D03*
X138940000Y-105280000D03*
X137670000Y-105280000D03*
X136400000Y-105280000D03*
X135130000Y-105280000D03*
X133860000Y-105280000D03*
X132590000Y-105280000D03*
X131320000Y-105280000D03*
X130050000Y-105280000D03*
X128780000Y-105280000D03*
X127510000Y-105280000D03*
X126240000Y-105280000D03*
X124970000Y-105280000D03*
X123700000Y-105280000D03*
X122430000Y-105280000D03*
X121160000Y-105280000D03*
X119890000Y-105280000D03*
X118620000Y-105280000D03*
X117350000Y-105280000D03*
X116080000Y-105280000D03*
X114810000Y-105280000D03*
X113540000Y-105280000D03*
X112270000Y-105280000D03*
X111000000Y-105280000D03*
X109730000Y-105280000D03*
X159260000Y-106550000D03*
X157990000Y-106550000D03*
X156720000Y-106550000D03*
X155450000Y-106550000D03*
X154180000Y-106550000D03*
X152910000Y-106550000D03*
X151640000Y-106550000D03*
X150370000Y-106550000D03*
X149100000Y-106550000D03*
X147830000Y-106550000D03*
X146560000Y-106550000D03*
X145290000Y-106550000D03*
X144020000Y-106550000D03*
X142750000Y-106550000D03*
X141480000Y-106550000D03*
X140210000Y-106550000D03*
X138940000Y-106550000D03*
X137670000Y-106550000D03*
X136400000Y-106550000D03*
X135130000Y-106550000D03*
X133860000Y-106550000D03*
X132590000Y-106550000D03*
X131320000Y-106550000D03*
X130050000Y-106550000D03*
X128780000Y-106550000D03*
X127510000Y-106550000D03*
X126240000Y-106550000D03*
X124970000Y-106550000D03*
X123700000Y-106550000D03*
X122430000Y-106550000D03*
X121160000Y-106550000D03*
X119890000Y-106550000D03*
X118620000Y-106550000D03*
X117350000Y-106550000D03*
X116080000Y-106550000D03*
X114810000Y-106550000D03*
X113540000Y-106550000D03*
X112270000Y-106550000D03*
X111000000Y-106550000D03*
X109730000Y-106550000D03*
X159260000Y-110360000D03*
X157990000Y-110360000D03*
X156720000Y-110360000D03*
X155450000Y-110360000D03*
X154180000Y-110360000D03*
X152910000Y-110360000D03*
X151640000Y-110360000D03*
X150370000Y-110360000D03*
X149100000Y-110360000D03*
X147830000Y-110360000D03*
X146560000Y-110360000D03*
X145290000Y-110360000D03*
X144020000Y-110360000D03*
X142750000Y-110360000D03*
X141480000Y-110360000D03*
X140210000Y-110360000D03*
X138940000Y-110360000D03*
X137670000Y-110360000D03*
X136400000Y-110360000D03*
X135130000Y-110360000D03*
X133860000Y-110360000D03*
X132590000Y-110360000D03*
X131320000Y-110360000D03*
X130050000Y-110360000D03*
X128780000Y-110360000D03*
X127510000Y-110360000D03*
X126240000Y-110360000D03*
X124970000Y-110360000D03*
X123700000Y-110360000D03*
X122430000Y-110360000D03*
X121160000Y-110360000D03*
X119890000Y-110360000D03*
X118620000Y-110360000D03*
X117350000Y-110360000D03*
X116080000Y-110360000D03*
X114810000Y-110360000D03*
X113540000Y-110360000D03*
X112270000Y-110360000D03*
X111000000Y-110360000D03*
X109730000Y-110360000D03*
X159260000Y-111630000D03*
X157990000Y-111630000D03*
X156720000Y-111630000D03*
X155450000Y-111630000D03*
X154180000Y-111630000D03*
X152910000Y-111630000D03*
X151640000Y-111630000D03*
X150370000Y-111630000D03*
X149100000Y-111630000D03*
X147830000Y-111630000D03*
X146560000Y-111630000D03*
X145290000Y-111630000D03*
X144020000Y-111630000D03*
X142750000Y-111630000D03*
X141480000Y-111630000D03*
X140210000Y-111630000D03*
X138940000Y-111630000D03*
X137670000Y-111630000D03*
X136400000Y-111630000D03*
X135130000Y-111630000D03*
X133860000Y-111630000D03*
X132590000Y-111630000D03*
X131320000Y-111630000D03*
X130050000Y-111630000D03*
X128780000Y-111630000D03*
X127510000Y-111630000D03*
X126240000Y-111630000D03*
X124970000Y-111630000D03*
X123700000Y-111630000D03*
X122430000Y-111630000D03*
X121160000Y-111630000D03*
X119890000Y-111630000D03*
X118620000Y-111630000D03*
X117350000Y-111630000D03*
X116080000Y-111630000D03*
X114810000Y-111630000D03*
X113540000Y-111630000D03*
X112270000Y-111630000D03*
X111000000Y-111630000D03*
X109730000Y-111630000D03*
D14*
X140170000Y-127760000D03*
X139670000Y-127760000D03*
X139170000Y-127760000D03*
X138670000Y-127760000D03*
D15*
X137470000Y-126560000D03*
X137470000Y-126060000D03*
X137470000Y-125560000D03*
X137470000Y-125060000D03*
D14*
X138670000Y-123860000D03*
X139170000Y-123860000D03*
X139670000Y-123860000D03*
X140170000Y-123860000D03*
D15*
X141370000Y-125060000D03*
X141370000Y-125560000D03*
X141370000Y-126060000D03*
X141370000Y-126560000D03*
D16*
X139420000Y-125810000D03*
D14*
X159120000Y-128270000D03*
X158620000Y-128270000D03*
X158120000Y-128270000D03*
X157620000Y-128270000D03*
D15*
X156420000Y-127070000D03*
X156420000Y-126570000D03*
X156420000Y-126070000D03*
X156420000Y-125570000D03*
D14*
X157620000Y-124370000D03*
X158120000Y-124370000D03*
X158620000Y-124370000D03*
X159120000Y-124370000D03*
D15*
X160320000Y-125570000D03*
X160320000Y-126070000D03*
X160320000Y-126570000D03*
X160320000Y-127070000D03*
D16*
X158370000Y-126320000D03*
D14*
X119540000Y-127760000D03*
X119040000Y-127760000D03*
X118540000Y-127760000D03*
X118040000Y-127760000D03*
D15*
X116840000Y-126560000D03*
X116840000Y-126060000D03*
X116840000Y-125560000D03*
X116840000Y-125060000D03*
D14*
X118040000Y-123860000D03*
X118540000Y-123860000D03*
X119040000Y-123860000D03*
X119540000Y-123860000D03*
D15*
X120740000Y-125060000D03*
X120740000Y-125560000D03*
X120740000Y-126060000D03*
X120740000Y-126560000D03*
D16*
X118790000Y-125810000D03*
D12*
X163090000Y-124960000D03*
X163090000Y-126560000D03*
X162700000Y-158210000D03*
X162700000Y-159810000D03*
D17*
X142130000Y-152720000D03*
X143780000Y-152720000D03*
D18*
X111600000Y-155850000D03*
X111600000Y-154200000D03*
D19*
X114168000Y-155345000D03*
X114168000Y-154075000D03*
X114168000Y-152805000D03*
X114168000Y-151535000D03*
X119590000Y-151535000D03*
X119590000Y-152805000D03*
X119590000Y-154075000D03*
X119590000Y-155345000D03*
X153649000Y-155395000D03*
X153649000Y-154125000D03*
X153649000Y-152855000D03*
X153649000Y-151585000D03*
X159071000Y-151585000D03*
X159071000Y-152855000D03*
X159071000Y-154125000D03*
X159071000Y-155395000D03*
X134759000Y-155395000D03*
X134759000Y-154125000D03*
X134759000Y-152855000D03*
X134759000Y-151585000D03*
X140181000Y-151585000D03*
X140181000Y-152855000D03*
X140181000Y-154125000D03*
X140181000Y-155395000D03*
D17*
X161080000Y-152720000D03*
X162730000Y-152720000D03*
X121460000Y-152650000D03*
X123110000Y-152650000D03*
D20*
X143760000Y-154270000D03*
X142110000Y-154270000D03*
D18*
X132350000Y-155870000D03*
X132350000Y-154220000D03*
D12*
X123230000Y-158230000D03*
X123230000Y-159830000D03*
D18*
X132330000Y-152830000D03*
X132330000Y-151180000D03*
X151150000Y-155870000D03*
X151150000Y-154220000D03*
D12*
X143800000Y-158210000D03*
X143800000Y-159810000D03*
D18*
X151160000Y-152830000D03*
X151160000Y-151180000D03*
X111590000Y-152745000D03*
X111590000Y-151095000D03*
D20*
X162710000Y-154270000D03*
X161060000Y-154270000D03*
X123105000Y-154190000D03*
X121455000Y-154190000D03*
D21*
X164120000Y-158870000D03*
X107030000Y-114310000D03*
X132370000Y-158974000D03*
X145510000Y-158974000D03*
X151170000Y-158974000D03*
X111580000Y-158974000D03*
X125146000Y-158974000D03*
X166040000Y-151100000D03*
X166040000Y-138400000D03*
X115550000Y-126570000D03*
X163090000Y-127880000D03*
X102540000Y-118080000D03*
X102540000Y-125700000D03*
X161090000Y-137530000D03*
X131670000Y-136470000D03*
X143800000Y-161460000D03*
X102540000Y-163800000D03*
X155150000Y-127090000D03*
X162680000Y-161630000D03*
X123490000Y-127360000D03*
X132330000Y-149630000D03*
X150790000Y-136470000D03*
X111540000Y-149560000D03*
X121320000Y-137550000D03*
X102540000Y-151100000D03*
X166040000Y-163800000D03*
X123220000Y-161420000D03*
X108509000Y-104110000D03*
X102540000Y-138400000D03*
X136200000Y-126570000D03*
X166040000Y-125700000D03*
X111020000Y-136490000D03*
X144140000Y-127360000D03*
X159182000Y-114087000D03*
X166040000Y-118080000D03*
X141970000Y-137530000D03*
X151110000Y-149620000D03*
X121290000Y-136500000D03*
X161280000Y-156720000D03*
X136230000Y-125040000D03*
X141940000Y-136480000D03*
X161790000Y-127630000D03*
X110280000Y-108530000D03*
X161060000Y-136480000D03*
X142330000Y-156690000D03*
X144140000Y-122970000D03*
X123490000Y-122970000D03*
X130960000Y-149630000D03*
X131660000Y-137960000D03*
X124750000Y-152650000D03*
X110170000Y-149560000D03*
X155180000Y-125560000D03*
X115580000Y-125040000D03*
X122190000Y-127110000D03*
X163090000Y-123490000D03*
X142840000Y-127110000D03*
X150780000Y-137960000D03*
X121770000Y-156500000D03*
X164000000Y-152760000D03*
X111010000Y-137980000D03*
X149640000Y-151090000D03*
X145540000Y-152720000D03*
X118190000Y-122610000D03*
X126230000Y-108800000D03*
X109830489Y-146399511D03*
X114810000Y-108810000D03*
X108689511Y-146410489D03*
X113540000Y-108810000D03*
X145280000Y-108800000D03*
X138840000Y-122610000D03*
X140020000Y-122620000D03*
X147830000Y-108800000D03*
X141180000Y-122630000D03*
X149100000Y-108800000D03*
X118610000Y-108800000D03*
X113720000Y-133740000D03*
X117350000Y-108800000D03*
X112590000Y-133750000D03*
X122440000Y-108800000D03*
X116060000Y-133740000D03*
X121150000Y-108800000D03*
X114900000Y-133750000D03*
X117060000Y-122600000D03*
X124960000Y-108800000D03*
X140210000Y-108800000D03*
X135550000Y-133730000D03*
X133240000Y-133730000D03*
X136400000Y-108800000D03*
X134370000Y-133720000D03*
X137670000Y-108800000D03*
X141480000Y-108800000D03*
X136710000Y-133720000D03*
X144030000Y-108800000D03*
X137710000Y-122600000D03*
X132590000Y-108800000D03*
X129479511Y-146480489D03*
X130620489Y-146469511D03*
X133860000Y-108800000D03*
X120530000Y-129010000D03*
X120530000Y-162460000D03*
X119370000Y-129020000D03*
X119370000Y-162460000D03*
X118190000Y-162460000D03*
X118190000Y-129010000D03*
X117060000Y-162470000D03*
X117060000Y-129020000D03*
X116120000Y-140720000D03*
X116120000Y-161450000D03*
X114960000Y-161450000D03*
X114960000Y-140730000D03*
X113780000Y-161450000D03*
X113780000Y-140720000D03*
X112650000Y-140730000D03*
X112650000Y-161460000D03*
X111190000Y-162450000D03*
X109260000Y-162450000D03*
X129910000Y-162490000D03*
X131840000Y-162490000D03*
X133300000Y-140710000D03*
X133300000Y-161500000D03*
X134430000Y-140700000D03*
X134430000Y-161490000D03*
X135610000Y-161490000D03*
X135610000Y-140710000D03*
X136770000Y-161490000D03*
X136770000Y-140700000D03*
X137710000Y-162510000D03*
X137710000Y-129020000D03*
X138840000Y-129010000D03*
X138840000Y-162500000D03*
X140020000Y-129020000D03*
X140020000Y-162500000D03*
X141180000Y-129010000D03*
X141180000Y-162500000D03*
X130040000Y-108800000D03*
X120530000Y-122630000D03*
X119370000Y-122620000D03*
X128780000Y-108800000D03*
X146990000Y-107610000D03*
X160130000Y-123150000D03*
X158970000Y-123140000D03*
X145880000Y-107610000D03*
X143140000Y-107610000D03*
X157790000Y-123130000D03*
X156660000Y-123120000D03*
X142080000Y-107610000D03*
X155830000Y-133720000D03*
X139370000Y-107610000D03*
X154670000Y-133730000D03*
X138300000Y-107610000D03*
X153490000Y-133720000D03*
X131780000Y-107610000D03*
X130750000Y-107610000D03*
X152360000Y-133730000D03*
X128160000Y-107390000D03*
X162950000Y-149910000D03*
X161500000Y-149880000D03*
X126970000Y-107610000D03*
X151640000Y-112640000D03*
X150370000Y-112640000D03*
X147830000Y-112640000D03*
X136400000Y-112640000D03*
X135130000Y-112640000D03*
X128780000Y-112640000D03*
X131320000Y-112640000D03*
X132590000Y-112640000D03*
X140210000Y-112640000D03*
X138940000Y-112640000D03*
X144020000Y-112640000D03*
X142750000Y-112640000D03*
X146560000Y-112640000D03*
X123700000Y-112640000D03*
X119890000Y-112640000D03*
X121160000Y-112640000D03*
X124970000Y-112640000D03*
X127510000Y-112640000D03*
X116080000Y-112640000D03*
X117350000Y-112640000D03*
X160130000Y-129530000D03*
X160160000Y-162440000D03*
X159000000Y-162440000D03*
X158970000Y-129540000D03*
X157790000Y-129530000D03*
X157820000Y-162440000D03*
X156660000Y-129540000D03*
X156690000Y-162450000D03*
X155750000Y-161430000D03*
X155890000Y-140700000D03*
X154590000Y-161430000D03*
X154730000Y-140710000D03*
X153410000Y-161430000D03*
X153550000Y-140700000D03*
X152280000Y-161440000D03*
X152420000Y-140710000D03*
X150820000Y-162430000D03*
X148890000Y-162430000D03*
D22*
X123230000Y-158230000D02*
X123230000Y-154315000D01*
X124402000Y-158230000D02*
X125146000Y-158974000D01*
X111600000Y-158954000D02*
X111580000Y-158974000D01*
X107050000Y-114310000D02*
X107030000Y-114310000D01*
X151150000Y-158954000D02*
X151170000Y-158974000D01*
X163460000Y-158210000D02*
X164120000Y-158870000D01*
X144746000Y-158210000D02*
X145510000Y-158974000D01*
X143800000Y-154310000D02*
X143800000Y-158210000D01*
X162700000Y-154280000D02*
X162700000Y-158210000D01*
X109730000Y-111630000D02*
X107050000Y-114310000D01*
X151150000Y-155870000D02*
X151150000Y-158954000D01*
X132350000Y-155870000D02*
X132350000Y-158954000D01*
X143800000Y-158210000D02*
X144746000Y-158210000D01*
X111600000Y-155850000D02*
X111600000Y-158954000D01*
X123230000Y-158230000D02*
X124402000Y-158230000D01*
X111000000Y-110360000D02*
X109730000Y-111630000D01*
X162700000Y-158210000D02*
X163460000Y-158210000D01*
X132350000Y-158954000D02*
X132370000Y-158974000D01*
X128780000Y-105280000D02*
X128780000Y-106550000D01*
X154180000Y-110360000D02*
X152910000Y-111630000D01*
X146270000Y-104300000D02*
X148120000Y-104300000D01*
X163090000Y-127880000D02*
X163090000Y-126560000D01*
X125950000Y-104300000D02*
X127800000Y-104300000D01*
X143800000Y-159810000D02*
X143800000Y-161460000D01*
X141090000Y-104400000D02*
X143140000Y-104400000D01*
X130930000Y-104400000D02*
X132980000Y-104400000D01*
X113540000Y-106550000D02*
X114810000Y-105280000D01*
X155450000Y-110360000D02*
X156720000Y-111630000D01*
X130459511Y-109499511D02*
X131320000Y-110360000D01*
X160320000Y-126570000D02*
X158620000Y-126570000D01*
X116080000Y-106550000D02*
X117350000Y-105280000D01*
X146560000Y-110360000D02*
X145290000Y-111630000D01*
X145290000Y-105280000D02*
X146270000Y-104300000D01*
X140210000Y-105280000D02*
X141090000Y-104400000D01*
X151640000Y-106550000D02*
X152910000Y-106550000D01*
X132330000Y-149630000D02*
X132804000Y-149630000D01*
X132804000Y-149630000D02*
X134759000Y-151585000D01*
X150370000Y-110360000D02*
X149510000Y-109500000D01*
X115229511Y-109509511D02*
X116080000Y-110360000D01*
X123700000Y-110360000D02*
X122839511Y-109499511D01*
X138060000Y-104400000D02*
X138940000Y-105280000D01*
X158100000Y-109200000D02*
X156600000Y-109200000D01*
X156420000Y-126570000D02*
X156420000Y-126070000D01*
X144020000Y-105280000D02*
X145290000Y-105280000D01*
X119029511Y-109499511D02*
X119890000Y-110360000D01*
X151684000Y-149620000D02*
X153649000Y-151585000D01*
X151230000Y-109500000D02*
X150370000Y-110360000D01*
X120770000Y-104400000D02*
X122820000Y-104400000D01*
X141370000Y-126060000D02*
X144080000Y-126060000D01*
X159260000Y-105280000D02*
X160080000Y-105280000D01*
X138079511Y-109499511D02*
X138940000Y-110360000D01*
X136010000Y-104400000D02*
X138060000Y-104400000D01*
X131320000Y-110360000D02*
X132180489Y-109499511D01*
X137470000Y-126560000D02*
X137470000Y-125560000D01*
X149510000Y-109500000D02*
X147420000Y-109500000D01*
X127800000Y-104300000D02*
X128780000Y-105280000D01*
X126649511Y-109499511D02*
X124560489Y-109499511D01*
X145720000Y-109520000D02*
X146560000Y-110360000D01*
X123700000Y-105280000D02*
X124970000Y-106550000D01*
X116940489Y-109499511D02*
X119029511Y-109499511D01*
X130050000Y-105280000D02*
X130930000Y-104400000D01*
X135990489Y-109499511D02*
X138079511Y-109499511D01*
X159260000Y-110360000D02*
X158100000Y-109200000D01*
X111000000Y-111630000D02*
X112270000Y-110360000D01*
X123490000Y-127360000D02*
X123490000Y-125980000D01*
X116840000Y-125560000D02*
X118540000Y-125560000D01*
X119890000Y-105280000D02*
X120770000Y-104400000D01*
X143140000Y-104400000D02*
X144020000Y-105280000D01*
X138940000Y-105280000D02*
X140210000Y-105280000D01*
X137470000Y-125560000D02*
X139170000Y-125560000D01*
X120740000Y-126060000D02*
X123410000Y-126060000D01*
X135130000Y-110360000D02*
X133860000Y-111630000D01*
X147420000Y-109500000D02*
X146560000Y-110360000D01*
X114810000Y-111630000D02*
X116080000Y-110360000D01*
X122839511Y-109499511D02*
X120750489Y-109499511D01*
X154180000Y-110360000D02*
X153320000Y-109500000D01*
X122820000Y-104400000D02*
X123700000Y-105280000D01*
X143590000Y-109520000D02*
X145720000Y-109520000D01*
X156420000Y-126070000D02*
X158120000Y-126070000D01*
X140210000Y-105280000D02*
X140210000Y-106550000D01*
X159260000Y-110360000D02*
X164255048Y-110360000D01*
X109730000Y-110360000D02*
X104958992Y-110360000D01*
X157990000Y-106550000D02*
X159260000Y-105280000D01*
X123220000Y-161420000D02*
X123220000Y-159840000D01*
X133860000Y-105280000D02*
X135130000Y-105280000D01*
X162700000Y-161610000D02*
X162680000Y-161630000D01*
X109730000Y-110360000D02*
X110690000Y-109400000D01*
X156600000Y-109200000D02*
X156600000Y-109210000D01*
X119890000Y-105280000D02*
X118620000Y-105280000D01*
X153320000Y-109500000D02*
X151230000Y-109500000D01*
X124970000Y-105280000D02*
X125950000Y-104300000D01*
X114810000Y-105280000D02*
X116080000Y-106550000D01*
X154180000Y-105280000D02*
X155450000Y-105280000D01*
X120750489Y-109499511D02*
X119890000Y-110360000D01*
X150370000Y-105280000D02*
X151640000Y-106550000D01*
X115550000Y-126570000D02*
X116830000Y-126570000D01*
X112193000Y-149560000D02*
X114168000Y-151535000D01*
X150370000Y-110360000D02*
X149100000Y-111630000D01*
X135130000Y-105280000D02*
X136010000Y-104400000D01*
X156600000Y-109210000D02*
X155450000Y-110360000D01*
X144140000Y-127360000D02*
X144140000Y-126000000D01*
X122430000Y-111630000D02*
X123700000Y-110360000D01*
X109730000Y-105280000D02*
X111000000Y-106550000D01*
X132180489Y-109499511D02*
X134269511Y-109499511D01*
X112270000Y-105280000D02*
X113540000Y-106550000D01*
X116080000Y-110360000D02*
X116940489Y-109499511D01*
X142750000Y-110360000D02*
X143590000Y-109520000D01*
X127510000Y-110360000D02*
X128370489Y-109499511D01*
X111000000Y-106550000D02*
X112270000Y-105280000D01*
X111310000Y-109400000D02*
X112270000Y-110360000D01*
X160080000Y-105280000D02*
X164353048Y-109553048D01*
X135130000Y-105280000D02*
X136400000Y-106550000D01*
X126240000Y-111630000D02*
X127510000Y-110360000D01*
X141370000Y-126060000D02*
X139670000Y-126060000D01*
X133860000Y-105280000D02*
X132590000Y-106550000D01*
X108560000Y-104110000D02*
X109730000Y-105280000D01*
X136200000Y-126570000D02*
X137460000Y-126570000D01*
X152910000Y-106550000D02*
X154180000Y-105280000D01*
X110690000Y-109400000D02*
X111310000Y-109400000D01*
X134269511Y-109499511D02*
X135130000Y-110360000D01*
X159177000Y-114087000D02*
X156720000Y-111630000D01*
X160320000Y-126570000D02*
X163080000Y-126570000D01*
X116840000Y-126560000D02*
X116840000Y-125560000D01*
X149100000Y-105280000D02*
X147830000Y-106550000D01*
X156420000Y-127070000D02*
X156420000Y-126570000D01*
X131320000Y-110360000D02*
X130050000Y-111630000D01*
X124560489Y-109499511D02*
X123700000Y-110360000D01*
X142750000Y-110360000D02*
X141480000Y-111630000D01*
X112270000Y-110360000D02*
X113120489Y-109509511D01*
X149100000Y-105280000D02*
X150370000Y-105280000D01*
X162700000Y-159810000D02*
X162700000Y-161610000D01*
X155450000Y-105280000D02*
X156720000Y-106550000D01*
X141889511Y-109499511D02*
X142750000Y-110360000D01*
X118620000Y-111630000D02*
X119890000Y-110360000D01*
X128780000Y-105280000D02*
X130050000Y-105280000D01*
X117350000Y-105280000D02*
X118620000Y-105280000D01*
X138940000Y-110360000D02*
X139800489Y-109499511D01*
X108509000Y-104110000D02*
X108560000Y-104110000D01*
X127510000Y-110360000D02*
X126649511Y-109499511D01*
X155150000Y-127090000D02*
X156400000Y-127090000D01*
X144020000Y-105280000D02*
X144020000Y-106550000D01*
X128370489Y-109499511D02*
X130459511Y-109499511D01*
X132980000Y-104400000D02*
X133860000Y-105280000D01*
X151110000Y-149620000D02*
X151684000Y-149620000D01*
X120740000Y-126060000D02*
X119040000Y-126060000D01*
X155450000Y-110360000D02*
X154180000Y-110360000D01*
X156720000Y-106550000D02*
X157990000Y-106550000D01*
X123700000Y-105280000D02*
X124970000Y-105280000D01*
X148120000Y-104300000D02*
X149100000Y-105280000D01*
X139800489Y-109499511D02*
X141889511Y-109499511D01*
X135130000Y-110360000D02*
X135990489Y-109499511D01*
X113120489Y-109509511D02*
X115229511Y-109509511D01*
X111540000Y-149560000D02*
X112193000Y-149560000D01*
X138940000Y-110360000D02*
X137670000Y-111630000D01*
X159182000Y-114087000D02*
X159177000Y-114087000D01*
X162480000Y-125570000D02*
X163090000Y-124960000D01*
X123110000Y-152650000D02*
X124750000Y-152650000D01*
X130960000Y-149810000D02*
X132330000Y-151180000D01*
X159955000Y-155395000D02*
X161280000Y-156720000D01*
X136230000Y-125040000D02*
X137450000Y-125040000D01*
X111380000Y-107440000D02*
X110620000Y-107440000D01*
X149640000Y-151090000D02*
X151070000Y-151090000D01*
X121640000Y-126560000D02*
X122190000Y-127110000D01*
X141370000Y-126560000D02*
X142290000Y-126560000D01*
X115580000Y-125040000D02*
X116820000Y-125040000D01*
X141370000Y-125060000D02*
X143480000Y-125060000D01*
X109730000Y-106550000D02*
X109730000Y-107980000D01*
X140181000Y-155395000D02*
X141035000Y-155395000D01*
X112270000Y-106550000D02*
X111380000Y-107440000D01*
X143780000Y-152720000D02*
X145540000Y-152720000D01*
X110620000Y-107440000D02*
X109730000Y-106550000D01*
X160320000Y-125570000D02*
X162480000Y-125570000D01*
X114810000Y-106550000D02*
X113850000Y-107510000D01*
X159071000Y-155395000D02*
X159955000Y-155395000D01*
X144140000Y-122970000D02*
X144140000Y-124400000D01*
X155180000Y-125560000D02*
X156410000Y-125560000D01*
X162730000Y-152720000D02*
X163960000Y-152720000D01*
X130960000Y-149630000D02*
X130960000Y-149810000D01*
X161230000Y-127070000D02*
X161790000Y-127630000D01*
X120615000Y-155345000D02*
X121770000Y-156500000D01*
X143480000Y-125060000D02*
X144140000Y-124400000D01*
X142290000Y-126560000D02*
X142840000Y-127110000D01*
X113850000Y-107510000D02*
X113230000Y-107510000D01*
X113230000Y-107510000D02*
X112270000Y-106550000D01*
X110170000Y-149675000D02*
X111590000Y-151095000D01*
X120740000Y-126560000D02*
X121640000Y-126560000D01*
X163090000Y-123490000D02*
X163090000Y-124960000D01*
X141370000Y-125560000D02*
X141370000Y-125060000D01*
X160320000Y-126070000D02*
X160320000Y-125570000D01*
X141035000Y-155395000D02*
X142330000Y-156690000D01*
X160320000Y-127070000D02*
X161230000Y-127070000D01*
X120740000Y-125560000D02*
X120740000Y-125060000D01*
X122810000Y-125060000D02*
X123490000Y-124380000D01*
X109730000Y-107980000D02*
X110280000Y-108530000D01*
X120740000Y-125060000D02*
X122810000Y-125060000D01*
X163960000Y-152720000D02*
X164000000Y-152760000D01*
X110170000Y-149560000D02*
X110170000Y-149675000D01*
X119590000Y-155345000D02*
X120615000Y-155345000D01*
X123490000Y-122970000D02*
X123490000Y-124380000D01*
X118540000Y-123860000D02*
X118540000Y-122960000D01*
X118540000Y-122960000D02*
X118190000Y-122610000D01*
X121460000Y-150910000D02*
X121460000Y-152650000D01*
X119590000Y-152805000D02*
X121305000Y-152805000D01*
X112820978Y-149390000D02*
X119940000Y-149390000D01*
X109830489Y-146399511D02*
X112820978Y-149390000D01*
X119940000Y-149390000D02*
X121460000Y-150910000D01*
X108689511Y-146410489D02*
X108689511Y-149844511D01*
X111650000Y-152805000D02*
X114168000Y-152805000D01*
X108689511Y-149844511D02*
X111590000Y-152745000D01*
X138840000Y-122610000D02*
X139170000Y-122940000D01*
X139170000Y-122940000D02*
X139170000Y-123860000D01*
X140020000Y-122620000D02*
X139670000Y-122970000D01*
X139670000Y-122970000D02*
X139670000Y-123860000D01*
X141180000Y-122850000D02*
X140170000Y-123860000D01*
X141180000Y-122630000D02*
X141180000Y-122850000D01*
X118040000Y-123580000D02*
X117060000Y-122600000D01*
X137710000Y-122600000D02*
X137710000Y-122900000D01*
X137710000Y-122900000D02*
X138670000Y-123860000D01*
X129479511Y-146480489D02*
X129479511Y-149979511D01*
X129479511Y-149979511D02*
X132330000Y-152830000D01*
X132355000Y-152855000D02*
X134759000Y-152855000D01*
X140181000Y-152855000D02*
X141995000Y-152855000D01*
X140460000Y-149360000D02*
X142130000Y-151030000D01*
X130620489Y-146470489D02*
X133510000Y-149360000D01*
X133510000Y-149360000D02*
X140460000Y-149360000D01*
X130620489Y-146469511D02*
X130620489Y-146470489D01*
X142130000Y-151030000D02*
X142130000Y-152720000D01*
X119540000Y-128020000D02*
X120530000Y-129010000D01*
X119040000Y-128690000D02*
X119040000Y-127760000D01*
X119370000Y-129020000D02*
X119040000Y-128690000D01*
X118190000Y-129010000D02*
X118540000Y-128660000D01*
X118540000Y-128660000D02*
X118540000Y-127760000D01*
X118040000Y-128040000D02*
X117060000Y-129020000D01*
X122469511Y-155204511D02*
X122469511Y-156840489D01*
X119590000Y-154075000D02*
X121340000Y-154075000D01*
X111190000Y-161930000D02*
X111190000Y-162450000D01*
X121455000Y-154190000D02*
X122469511Y-155204511D01*
X112369511Y-160750489D02*
X111190000Y-161930000D01*
X122469511Y-156840489D02*
X118559511Y-160750489D01*
X118559511Y-160750489D02*
X112369511Y-160750489D01*
X106570000Y-156640000D02*
X106570000Y-159760000D01*
X111600000Y-154200000D02*
X109010000Y-154200000D01*
X109010000Y-154200000D02*
X106570000Y-156640000D01*
X106570000Y-159760000D02*
X109260000Y-162450000D01*
X111725000Y-154075000D02*
X114168000Y-154075000D01*
X127090000Y-156460000D02*
X127090000Y-159670000D01*
X127090000Y-159670000D02*
X129910000Y-162490000D01*
X132340000Y-154210000D02*
X129340000Y-154210000D01*
X132445000Y-154125000D02*
X134759000Y-154125000D01*
X129340000Y-154210000D02*
X127090000Y-156460000D01*
X140181000Y-154125000D02*
X141965000Y-154125000D01*
X143029511Y-157120489D02*
X139359511Y-160790489D01*
X131840000Y-161960000D02*
X131840000Y-162490000D01*
X142110000Y-154270000D02*
X143029511Y-155189511D01*
X133009511Y-160790489D02*
X131840000Y-161960000D01*
X139359511Y-160790489D02*
X133009511Y-160790489D01*
X143029511Y-155189511D02*
X143029511Y-157120489D01*
X137710000Y-129020000D02*
X137710000Y-128720000D01*
X137710000Y-128720000D02*
X138670000Y-127760000D01*
X138840000Y-129010000D02*
X139170000Y-128680000D01*
X139170000Y-128680000D02*
X139170000Y-127760000D01*
X139670000Y-127760000D02*
X139670000Y-128670000D01*
X139670000Y-128670000D02*
X140020000Y-129020000D01*
X140170000Y-128000000D02*
X141180000Y-129010000D01*
X119540000Y-123620000D02*
X120530000Y-122630000D01*
X119040000Y-123860000D02*
X119040000Y-122950000D01*
X119040000Y-122950000D02*
X119370000Y-122620000D01*
X160130000Y-123150000D02*
X160130000Y-123360000D01*
X160130000Y-123360000D02*
X159120000Y-124370000D01*
X158970000Y-123140000D02*
X158620000Y-123490000D01*
X158620000Y-123490000D02*
X158620000Y-124370000D01*
X157790000Y-123130000D02*
X158120000Y-123460000D01*
X158120000Y-123460000D02*
X158120000Y-124370000D01*
X156660000Y-123410000D02*
X157620000Y-124370000D01*
X156660000Y-123120000D02*
X156660000Y-123410000D01*
X161080000Y-151780000D02*
X161080000Y-152720000D01*
X162950000Y-149910000D02*
X161080000Y-151780000D01*
X159071000Y-152855000D02*
X160945000Y-152855000D01*
X148940489Y-151380489D02*
X150390000Y-152830000D01*
X161500000Y-149880000D02*
X154890000Y-149880000D01*
X153930489Y-148920489D02*
X150820252Y-148920489D01*
X151185000Y-152855000D02*
X153649000Y-152855000D01*
X150390000Y-152830000D02*
X151160000Y-152830000D01*
X154890000Y-149880000D02*
X153930489Y-148920489D01*
X150820252Y-148920489D02*
X148940489Y-150800252D01*
X148940489Y-150800252D02*
X148940489Y-151380489D01*
X151640000Y-111630000D02*
X151640000Y-112640000D01*
X150370000Y-111630000D02*
X150370000Y-112640000D01*
X147830000Y-111630000D02*
X147830000Y-112640000D01*
X136400000Y-111630000D02*
X136400000Y-112640000D01*
X135130000Y-111630000D02*
X135130000Y-112640000D01*
X128780000Y-111630000D02*
X128780000Y-112640000D01*
X131320000Y-111630000D02*
X131320000Y-112640000D01*
X132590000Y-111630000D02*
X132590000Y-112640000D01*
X140210000Y-111630000D02*
X140210000Y-112640000D01*
X138940000Y-111630000D02*
X138940000Y-112640000D01*
X144020000Y-111630000D02*
X144020000Y-112640000D01*
X142750000Y-111630000D02*
X142750000Y-112640000D01*
X146560000Y-111630000D02*
X146560000Y-112640000D01*
X123700000Y-111630000D02*
X123700000Y-112640000D01*
X119890000Y-111630000D02*
X119890000Y-112640000D01*
X121160000Y-111630000D02*
X121160000Y-112640000D01*
X124970000Y-111630000D02*
X124970000Y-112640000D01*
X127510000Y-111630000D02*
X127510000Y-112640000D01*
X116080000Y-111630000D02*
X116080000Y-112640000D01*
X117350000Y-111630000D02*
X117350000Y-112640000D01*
X159120000Y-128520000D02*
X160130000Y-129530000D01*
X158620000Y-129190000D02*
X158970000Y-129540000D01*
X158620000Y-128270000D02*
X158620000Y-129190000D01*
X158120000Y-128270000D02*
X158120000Y-129200000D01*
X158120000Y-129200000D02*
X157790000Y-129530000D01*
X157620000Y-128580000D02*
X156660000Y-129540000D01*
X161979511Y-157009748D02*
X158258770Y-160730489D01*
X150820000Y-161910000D02*
X150820000Y-162430000D01*
X151999511Y-160730489D02*
X150820000Y-161910000D01*
X158258770Y-160730489D02*
X151999511Y-160730489D01*
X161060000Y-154270000D02*
X161979511Y-155189511D01*
X160915000Y-154125000D02*
X159071000Y-154125000D01*
X161979511Y-155189511D02*
X161979511Y-157009748D01*
X151150000Y-154220000D02*
X148220000Y-154220000D01*
X148220000Y-154220000D02*
X146880000Y-155560000D01*
X146880000Y-155560000D02*
X146880000Y-160420000D01*
X151245000Y-154125000D02*
X153649000Y-154125000D01*
X146880000Y-160420000D02*
X148890000Y-162430000D01*
G04 #@! TA.AperFunction,Conductor*
G36*
X168433621Y-116830002D02*
G01*
X168480114Y-116883658D01*
X168491500Y-116936000D01*
X168491500Y-172914521D01*
X168471498Y-172982642D01*
X168417842Y-173029135D01*
X168347568Y-173039239D01*
X168282988Y-173009745D01*
X168264149Y-172989380D01*
X168119477Y-172793510D01*
X168116824Y-172789918D01*
X167932187Y-172602358D01*
X167928647Y-172599657D01*
X167928641Y-172599651D01*
X167726506Y-172445386D01*
X167726502Y-172445383D01*
X167722965Y-172442684D01*
X167493332Y-172314084D01*
X167247870Y-172219122D01*
X167243545Y-172218119D01*
X167243540Y-172218118D01*
X167102794Y-172185495D01*
X166991476Y-172159693D01*
X166729267Y-172136983D01*
X166724832Y-172137227D01*
X166724828Y-172137227D01*
X166470916Y-172151200D01*
X166470909Y-172151201D01*
X166466473Y-172151445D01*
X166338369Y-172176927D01*
X166212711Y-172201921D01*
X166212706Y-172201922D01*
X166208339Y-172202791D01*
X166204136Y-172204267D01*
X165964223Y-172288518D01*
X165964220Y-172288519D01*
X165960015Y-172289996D01*
X165956062Y-172292049D01*
X165956056Y-172292052D01*
X165824615Y-172360331D01*
X165726456Y-172411321D01*
X165722841Y-172413904D01*
X165722835Y-172413908D01*
X165619585Y-172487692D01*
X165512322Y-172564344D01*
X165509095Y-172567422D01*
X165509093Y-172567424D01*
X165475311Y-172599651D01*
X165321885Y-172746011D01*
X165158945Y-172952700D01*
X165137640Y-172989380D01*
X165028987Y-173176438D01*
X165028984Y-173176444D01*
X165026753Y-173180285D01*
X165025083Y-173184408D01*
X165012784Y-173214773D01*
X164968672Y-173270402D01*
X164901486Y-173293352D01*
X164832559Y-173276335D01*
X164783774Y-173224754D01*
X164770000Y-173167471D01*
X164770000Y-159554199D01*
X164790002Y-159486078D01*
X164802358Y-159469896D01*
X164859040Y-159406944D01*
X164954527Y-159241556D01*
X165013542Y-159059928D01*
X165033504Y-158870000D01*
X165013542Y-158680072D01*
X164954527Y-158498444D01*
X164859040Y-158333056D01*
X164802363Y-158270110D01*
X164771647Y-158206104D01*
X164770000Y-158185801D01*
X164770000Y-153277081D01*
X164786881Y-153214081D01*
X164831223Y-153137279D01*
X164831224Y-153137278D01*
X164834527Y-153131556D01*
X164893542Y-152949928D01*
X164913504Y-152760000D01*
X164893542Y-152570072D01*
X164834527Y-152388444D01*
X164786881Y-152305919D01*
X164770000Y-152242919D01*
X164770000Y-116936000D01*
X164790002Y-116867879D01*
X164843658Y-116821386D01*
X164896000Y-116810000D01*
X168365500Y-116810000D01*
X168433621Y-116830002D01*
G37*
G04 #@! TD.AperFunction*
G04 #@! TA.AperFunction,Conductor*
G36*
X103752121Y-116830002D02*
G01*
X103798614Y-116883658D01*
X103810000Y-116936000D01*
X103810000Y-172941666D01*
X103789998Y-173009787D01*
X103736342Y-173056280D01*
X103666068Y-173066384D01*
X103601488Y-173036890D01*
X103577616Y-173009182D01*
X103575308Y-173005545D01*
X103573191Y-173001622D01*
X103416824Y-172789918D01*
X103232187Y-172602358D01*
X103228647Y-172599657D01*
X103228641Y-172599651D01*
X103026506Y-172445386D01*
X103026502Y-172445383D01*
X103022965Y-172442684D01*
X102793332Y-172314084D01*
X102547870Y-172219122D01*
X102543545Y-172218119D01*
X102543540Y-172218118D01*
X102402794Y-172185495D01*
X102291476Y-172159693D01*
X102029267Y-172136983D01*
X102024832Y-172137227D01*
X102024828Y-172137227D01*
X101770916Y-172151200D01*
X101770909Y-172151201D01*
X101766473Y-172151445D01*
X101638369Y-172176927D01*
X101512711Y-172201921D01*
X101512706Y-172201922D01*
X101508339Y-172202791D01*
X101504136Y-172204267D01*
X101264223Y-172288518D01*
X101264220Y-172288519D01*
X101260015Y-172289996D01*
X101256062Y-172292049D01*
X101256056Y-172292052D01*
X101124615Y-172360331D01*
X101026456Y-172411321D01*
X101022841Y-172413904D01*
X101022835Y-172413908D01*
X100919585Y-172487692D01*
X100812322Y-172564344D01*
X100809095Y-172567422D01*
X100809093Y-172567424D01*
X100721471Y-172651011D01*
X100658375Y-172683558D01*
X100587698Y-172676826D01*
X100531881Y-172632952D01*
X100508500Y-172559841D01*
X100508500Y-116936000D01*
X100528502Y-116867879D01*
X100582158Y-116821386D01*
X100634500Y-116810000D01*
X103684000Y-116810000D01*
X103752121Y-116830002D01*
G37*
G04 #@! TD.AperFunction*
M02*
