G04 #@! TF.GenerationSoftware,KiCad,Pcbnew,(6.0.4-0)*
G04 #@! TF.CreationDate,2022-07-08T14:42:32+02:00*
G04 #@! TF.ProjectId,adapter_hybrid_assistor_hpc_3HDMI,61646170-7465-4725-9f68-79627269645f,rev?*
G04 #@! TF.SameCoordinates,Original*
G04 #@! TF.FileFunction,Soldermask,Top*
G04 #@! TF.FilePolarity,Negative*
%FSLAX46Y46*%
G04 Gerber Fmt 4.6, Leading zero omitted, Abs format (unit mm)*
G04 Created by KiCad (PCBNEW (6.0.4-0)) date 2022-07-08 14:42:32*
%MOMM*%
%LPD*%
G01*
G04 APERTURE LIST*
G04 Aperture macros list*
%AMRoundRect*
0 Rectangle with rounded corners*
0 $1 Rounding radius*
0 $2 $3 $4 $5 $6 $7 $8 $9 X,Y pos of 4 corners*
0 Add a 4 corners polygon primitive as box body*
4,1,4,$2,$3,$4,$5,$6,$7,$8,$9,$2,$3,0*
0 Add four circle primitives for the rounded corners*
1,1,$1+$1,$2,$3*
1,1,$1+$1,$4,$5*
1,1,$1+$1,$6,$7*
1,1,$1+$1,$8,$9*
0 Add four rect primitives between the rounded corners*
20,1,$1+$1,$2,$3,$4,$5,0*
20,1,$1+$1,$4,$5,$6,$7,0*
20,1,$1+$1,$6,$7,$8,$9,0*
20,1,$1+$1,$8,$9,$2,$3,0*%
G04 Aperture macros list end*
%ADD10RoundRect,0.051000X0.500000X-0.475000X0.500000X0.475000X-0.500000X0.475000X-0.500000X-0.475000X0*%
%ADD11C,1.372000*%
%ADD12C,4.102000*%
%ADD13C,0.742000*%
%ADD14RoundRect,0.051000X-0.150000X-0.950000X0.150000X-0.950000X0.150000X0.950000X-0.150000X0.950000X0*%
%ADD15C,2.097000*%
%ADD16RoundRect,0.051000X-0.150000X-0.425000X0.150000X-0.425000X0.150000X0.425000X-0.150000X0.425000X0*%
%ADD17RoundRect,0.051000X-0.425000X0.150000X-0.425000X-0.150000X0.425000X-0.150000X0.425000X0.150000X0*%
%ADD18RoundRect,0.051000X-1.200000X1.200000X-1.200000X-1.200000X1.200000X-1.200000X1.200000X1.200000X0*%
G04 APERTURE END LIST*
D10*
X118740000Y-139080000D03*
X118740000Y-137480000D03*
X158450000Y-139030000D03*
X158450000Y-137430000D03*
D11*
X161683000Y-108458000D03*
X107303000Y-111508000D03*
D12*
X165683000Y-110458000D03*
D13*
X159263000Y-105288000D03*
X157993000Y-105288000D03*
X156723000Y-105288000D03*
X155443000Y-105288000D03*
X154173000Y-105288000D03*
X152903000Y-105288000D03*
X151633000Y-105288000D03*
X150373000Y-105288000D03*
X149103000Y-105288000D03*
X147833000Y-105288000D03*
X146553000Y-105288000D03*
X145283000Y-105288000D03*
X144023000Y-105288000D03*
X142753000Y-105288000D03*
X141483000Y-105288000D03*
X140203000Y-105288000D03*
X138943000Y-105288000D03*
X137663000Y-105288000D03*
X136403000Y-105288000D03*
X135133000Y-105288000D03*
X133853000Y-105288000D03*
X132583000Y-105288000D03*
X131323000Y-105288000D03*
X130043000Y-105288000D03*
X128783000Y-105288000D03*
X127503000Y-105288000D03*
X126233000Y-105288000D03*
X124963000Y-105288000D03*
X123703000Y-105288000D03*
X122433000Y-105288000D03*
X121153000Y-105288000D03*
X119883000Y-105288000D03*
X118613000Y-105288000D03*
X117353000Y-105288000D03*
X116083000Y-105288000D03*
X114813000Y-105288000D03*
X113543000Y-105288000D03*
X112263000Y-105288000D03*
X110993000Y-105288000D03*
X109723000Y-105288000D03*
X159263000Y-106548000D03*
X157993000Y-106548000D03*
X156723000Y-106548000D03*
X155443000Y-106548000D03*
X154173000Y-106548000D03*
X152903000Y-106548000D03*
X151633000Y-106548000D03*
X150373000Y-106548000D03*
X149103000Y-106548000D03*
X147833000Y-106548000D03*
X146553000Y-106548000D03*
X145283000Y-106548000D03*
X144023000Y-106548000D03*
X142753000Y-106548000D03*
X141483000Y-106548000D03*
X140203000Y-106548000D03*
X138943000Y-106548000D03*
X137663000Y-106548000D03*
X136403000Y-106548000D03*
X135133000Y-106548000D03*
X133873000Y-106548000D03*
X132583000Y-106548000D03*
X131323000Y-106548000D03*
X130043000Y-106548000D03*
X128783000Y-106548000D03*
X127503000Y-106548000D03*
X126233000Y-106548000D03*
X124963000Y-106548000D03*
X123703000Y-106548000D03*
X122433000Y-106548000D03*
X121153000Y-106548000D03*
X119883000Y-106548000D03*
X118613000Y-106548000D03*
X117353000Y-106548000D03*
X116083000Y-106548000D03*
X114813000Y-106548000D03*
X113543000Y-106548000D03*
X112263000Y-106548000D03*
X110993000Y-106548000D03*
X109723000Y-106548000D03*
X159263000Y-110368000D03*
X157993000Y-110368000D03*
X156723000Y-110368000D03*
X155443000Y-110368000D03*
X154173000Y-110368000D03*
X152903000Y-110368000D03*
X151633000Y-110368000D03*
X150373000Y-110368000D03*
X149103000Y-110368000D03*
X147833000Y-110368000D03*
X146553000Y-110368000D03*
X145283000Y-110368000D03*
X144023000Y-110368000D03*
X142753000Y-110368000D03*
X141483000Y-110368000D03*
X140203000Y-110368000D03*
X138943000Y-110368000D03*
X137663000Y-110368000D03*
X136403000Y-110368000D03*
X135133000Y-110368000D03*
X133853000Y-110368000D03*
X132583000Y-110368000D03*
X131323000Y-110368000D03*
X130043000Y-110368000D03*
X128783000Y-110368000D03*
X127503000Y-110368000D03*
X126233000Y-110368000D03*
X124963000Y-110368000D03*
X123703000Y-110368000D03*
X122433000Y-110368000D03*
X121153000Y-110368000D03*
X119883000Y-110368000D03*
X118613000Y-110368000D03*
X117353000Y-110368000D03*
X116083000Y-110368000D03*
X114813000Y-110368000D03*
X113543000Y-110368000D03*
X112263000Y-110368000D03*
X110993000Y-110368000D03*
X109723000Y-110368000D03*
D12*
X103303000Y-110458000D03*
D13*
X159263000Y-111628000D03*
X157993000Y-111628000D03*
X156723000Y-111628000D03*
X155443000Y-111628000D03*
X154173000Y-111628000D03*
X152903000Y-111628000D03*
X151633000Y-111628000D03*
X150373000Y-111628000D03*
X149103000Y-111628000D03*
X147833000Y-111628000D03*
X146553000Y-111628000D03*
X145283000Y-111628000D03*
X144023000Y-111628000D03*
X142753000Y-111628000D03*
X141483000Y-111628000D03*
X140203000Y-111628000D03*
X138943000Y-111628000D03*
X137663000Y-111628000D03*
X136403000Y-111628000D03*
X135133000Y-111628000D03*
X133873000Y-111628000D03*
X132583000Y-111628000D03*
X131323000Y-111628000D03*
X130043000Y-111628000D03*
X128783000Y-111628000D03*
X127503000Y-111628000D03*
X126233000Y-111628000D03*
X124963000Y-111628000D03*
X123703000Y-111628000D03*
X122433000Y-111628000D03*
X121153000Y-111628000D03*
X119883000Y-111628000D03*
X118613000Y-111628000D03*
X117353000Y-111628000D03*
X116083000Y-111628000D03*
X114813000Y-111628000D03*
X113543000Y-111628000D03*
X112263000Y-111628000D03*
X110993000Y-111628000D03*
X109723000Y-111628000D03*
D14*
X118189000Y-166050000D03*
X117689000Y-166050000D03*
X117189000Y-166050000D03*
X116689000Y-166050000D03*
X116189000Y-166050000D03*
X115689000Y-166050000D03*
X115189000Y-166050000D03*
X114689000Y-166050000D03*
X114189000Y-166050000D03*
X113689000Y-166050000D03*
X113189000Y-166050000D03*
X112689000Y-166050000D03*
X112189000Y-166050000D03*
X111689000Y-166050000D03*
X111189000Y-166050000D03*
X110689000Y-166050000D03*
X110189000Y-166050000D03*
X109689000Y-166050000D03*
X109189000Y-166050000D03*
D15*
X106189000Y-167050000D03*
X120689000Y-167050000D03*
X105589000Y-171950000D03*
X121289000Y-171950000D03*
D16*
X115090000Y-135260000D03*
X114590000Y-135260000D03*
X114090000Y-135260000D03*
X113590000Y-135260000D03*
D17*
X112390000Y-136460000D03*
X112390000Y-136960000D03*
X112390000Y-137460000D03*
X112390000Y-137960000D03*
D16*
X113590000Y-139160000D03*
X114090000Y-139160000D03*
X114590000Y-139160000D03*
X115090000Y-139160000D03*
D17*
X116290000Y-137960000D03*
X116290000Y-137460000D03*
X116290000Y-136960000D03*
X116290000Y-136460000D03*
D18*
X114340000Y-137210000D03*
D16*
X154900000Y-135270000D03*
X154400000Y-135270000D03*
X153900000Y-135270000D03*
X153400000Y-135270000D03*
D17*
X152200000Y-136470000D03*
X152200000Y-136970000D03*
X152200000Y-137470000D03*
X152200000Y-137970000D03*
D16*
X153400000Y-139170000D03*
X153900000Y-139170000D03*
X154400000Y-139170000D03*
X154900000Y-139170000D03*
D17*
X156100000Y-137970000D03*
X156100000Y-137470000D03*
X156100000Y-136970000D03*
X156100000Y-136470000D03*
D18*
X154150000Y-137220000D03*
D16*
X135770000Y-135270000D03*
X135270000Y-135270000D03*
X134770000Y-135270000D03*
X134270000Y-135270000D03*
D17*
X133070000Y-136470000D03*
X133070000Y-136970000D03*
X133070000Y-137470000D03*
X133070000Y-137970000D03*
D16*
X134270000Y-139170000D03*
X134770000Y-139170000D03*
X135270000Y-139170000D03*
X135770000Y-139170000D03*
D17*
X136970000Y-137970000D03*
X136970000Y-137470000D03*
X136970000Y-136970000D03*
X136970000Y-136470000D03*
D18*
X135020000Y-137220000D03*
D10*
X139830000Y-139030000D03*
X139830000Y-137430000D03*
D14*
X159369000Y-166060000D03*
X158869000Y-166060000D03*
X158369000Y-166060000D03*
X157869000Y-166060000D03*
X157369000Y-166060000D03*
X156869000Y-166060000D03*
X156369000Y-166060000D03*
X155869000Y-166060000D03*
X155369000Y-166060000D03*
X154869000Y-166060000D03*
X154369000Y-166060000D03*
X153869000Y-166060000D03*
X153369000Y-166060000D03*
X152869000Y-166060000D03*
X152369000Y-166060000D03*
X151869000Y-166060000D03*
X151369000Y-166060000D03*
X150869000Y-166060000D03*
X150369000Y-166060000D03*
D15*
X147369000Y-167060000D03*
X161869000Y-167060000D03*
X146769000Y-171960000D03*
X162469000Y-171960000D03*
D14*
X138819000Y-166050000D03*
X138319000Y-166050000D03*
X137819000Y-166050000D03*
X137319000Y-166050000D03*
X136819000Y-166050000D03*
X136319000Y-166050000D03*
X135819000Y-166050000D03*
X135319000Y-166050000D03*
X134819000Y-166050000D03*
X134319000Y-166050000D03*
X133819000Y-166050000D03*
X133319000Y-166050000D03*
X132819000Y-166050000D03*
X132319000Y-166050000D03*
X131819000Y-166050000D03*
X131319000Y-166050000D03*
X130819000Y-166050000D03*
X130319000Y-166050000D03*
X129819000Y-166050000D03*
D15*
X126819000Y-167050000D03*
X141319000Y-167050000D03*
X126219000Y-171950000D03*
X141919000Y-171950000D03*
D11*
X161685000Y-105405000D03*
X107305000Y-108455000D03*
G36*
X150683633Y-165073517D02*
G01*
X150684197Y-165075436D01*
X150683916Y-165076075D01*
X150673767Y-165091263D01*
X150670000Y-165110199D01*
X150670000Y-167009801D01*
X150673767Y-167028738D01*
X150683814Y-167043773D01*
X150683945Y-167045768D01*
X150682282Y-167046880D01*
X150681553Y-167046793D01*
X150621212Y-167027898D01*
X150556310Y-167046955D01*
X150554367Y-167046483D01*
X150553803Y-167044564D01*
X150554084Y-167043925D01*
X150564233Y-167028737D01*
X150568000Y-167009801D01*
X150568000Y-165110199D01*
X150564233Y-165091262D01*
X150554186Y-165076227D01*
X150554055Y-165074232D01*
X150555718Y-165073120D01*
X150556447Y-165073207D01*
X150616788Y-165092102D01*
X150681690Y-165073045D01*
X150683633Y-165073517D01*
G37*
G36*
X159183633Y-165073517D02*
G01*
X159184197Y-165075436D01*
X159183916Y-165076075D01*
X159173767Y-165091263D01*
X159170000Y-165110199D01*
X159170000Y-167009801D01*
X159173767Y-167028738D01*
X159183814Y-167043773D01*
X159183945Y-167045768D01*
X159182282Y-167046880D01*
X159181553Y-167046793D01*
X159121212Y-167027898D01*
X159056310Y-167046955D01*
X159054367Y-167046483D01*
X159053803Y-167044564D01*
X159054084Y-167043925D01*
X159064233Y-167028737D01*
X159068000Y-167009801D01*
X159068000Y-165110199D01*
X159064233Y-165091262D01*
X159054186Y-165076227D01*
X159054055Y-165074232D01*
X159055718Y-165073120D01*
X159056447Y-165073207D01*
X159116788Y-165092102D01*
X159181690Y-165073045D01*
X159183633Y-165073517D01*
G37*
G36*
X154683633Y-165073517D02*
G01*
X154684197Y-165075436D01*
X154683916Y-165076075D01*
X154673767Y-165091263D01*
X154670000Y-165110199D01*
X154670000Y-167009801D01*
X154673767Y-167028738D01*
X154683814Y-167043773D01*
X154683945Y-167045768D01*
X154682282Y-167046880D01*
X154681553Y-167046793D01*
X154621212Y-167027898D01*
X154556310Y-167046955D01*
X154554367Y-167046483D01*
X154553803Y-167044564D01*
X154554084Y-167043925D01*
X154564233Y-167028737D01*
X154568000Y-167009801D01*
X154568000Y-165110199D01*
X154564233Y-165091262D01*
X154554186Y-165076227D01*
X154554055Y-165074232D01*
X154555718Y-165073120D01*
X154556447Y-165073207D01*
X154616788Y-165092102D01*
X154681690Y-165073045D01*
X154683633Y-165073517D01*
G37*
G36*
X158683633Y-165073517D02*
G01*
X158684197Y-165075436D01*
X158683916Y-165076075D01*
X158673767Y-165091263D01*
X158670000Y-165110199D01*
X158670000Y-167009801D01*
X158673767Y-167028738D01*
X158683814Y-167043773D01*
X158683945Y-167045768D01*
X158682282Y-167046880D01*
X158681553Y-167046793D01*
X158621212Y-167027898D01*
X158556310Y-167046955D01*
X158554367Y-167046483D01*
X158553803Y-167044564D01*
X158554084Y-167043925D01*
X158564233Y-167028737D01*
X158568000Y-167009801D01*
X158568000Y-165110199D01*
X158564233Y-165091262D01*
X158554186Y-165076227D01*
X158554055Y-165074232D01*
X158555718Y-165073120D01*
X158556447Y-165073207D01*
X158616788Y-165092102D01*
X158681690Y-165073045D01*
X158683633Y-165073517D01*
G37*
G36*
X151683633Y-165073517D02*
G01*
X151684197Y-165075436D01*
X151683916Y-165076075D01*
X151673767Y-165091263D01*
X151670000Y-165110199D01*
X151670000Y-167009801D01*
X151673767Y-167028738D01*
X151683814Y-167043773D01*
X151683945Y-167045768D01*
X151682282Y-167046880D01*
X151681553Y-167046793D01*
X151621212Y-167027898D01*
X151556310Y-167046955D01*
X151554367Y-167046483D01*
X151553803Y-167044564D01*
X151554084Y-167043925D01*
X151564233Y-167028737D01*
X151568000Y-167009801D01*
X151568000Y-165110199D01*
X151564233Y-165091262D01*
X151554186Y-165076227D01*
X151554055Y-165074232D01*
X151555718Y-165073120D01*
X151556447Y-165073207D01*
X151616788Y-165092102D01*
X151681690Y-165073045D01*
X151683633Y-165073517D01*
G37*
G36*
X155683633Y-165073517D02*
G01*
X155684197Y-165075436D01*
X155683916Y-165076075D01*
X155673767Y-165091263D01*
X155670000Y-165110199D01*
X155670000Y-167009801D01*
X155673767Y-167028738D01*
X155683814Y-167043773D01*
X155683945Y-167045768D01*
X155682282Y-167046880D01*
X155681553Y-167046793D01*
X155621212Y-167027898D01*
X155556310Y-167046955D01*
X155554367Y-167046483D01*
X155553803Y-167044564D01*
X155554084Y-167043925D01*
X155564233Y-167028737D01*
X155568000Y-167009801D01*
X155568000Y-165110199D01*
X155564233Y-165091262D01*
X155554186Y-165076227D01*
X155554055Y-165074232D01*
X155555718Y-165073120D01*
X155556447Y-165073207D01*
X155616788Y-165092102D01*
X155681690Y-165073045D01*
X155683633Y-165073517D01*
G37*
G36*
X153183633Y-165073517D02*
G01*
X153184197Y-165075436D01*
X153183916Y-165076075D01*
X153173767Y-165091263D01*
X153170000Y-165110199D01*
X153170000Y-167009801D01*
X153173767Y-167028738D01*
X153183814Y-167043773D01*
X153183945Y-167045768D01*
X153182282Y-167046880D01*
X153181553Y-167046793D01*
X153121212Y-167027898D01*
X153056310Y-167046955D01*
X153054367Y-167046483D01*
X153053803Y-167044564D01*
X153054084Y-167043925D01*
X153064233Y-167028737D01*
X153068000Y-167009801D01*
X153068000Y-165110199D01*
X153064233Y-165091262D01*
X153054186Y-165076227D01*
X153054055Y-165074232D01*
X153055718Y-165073120D01*
X153056447Y-165073207D01*
X153116788Y-165092102D01*
X153181690Y-165073045D01*
X153183633Y-165073517D01*
G37*
G36*
X157183633Y-165073517D02*
G01*
X157184197Y-165075436D01*
X157183916Y-165076075D01*
X157173767Y-165091263D01*
X157170000Y-165110199D01*
X157170000Y-167009801D01*
X157173767Y-167028738D01*
X157183814Y-167043773D01*
X157183945Y-167045768D01*
X157182282Y-167046880D01*
X157181553Y-167046793D01*
X157121212Y-167027898D01*
X157056310Y-167046955D01*
X157054367Y-167046483D01*
X157053803Y-167044564D01*
X157054084Y-167043925D01*
X157064233Y-167028737D01*
X157068000Y-167009801D01*
X157068000Y-165110199D01*
X157064233Y-165091262D01*
X157054186Y-165076227D01*
X157054055Y-165074232D01*
X157055718Y-165073120D01*
X157056447Y-165073207D01*
X157116788Y-165092102D01*
X157181690Y-165073045D01*
X157183633Y-165073517D01*
G37*
G36*
X155183633Y-165073517D02*
G01*
X155184197Y-165075436D01*
X155183916Y-165076075D01*
X155173767Y-165091263D01*
X155170000Y-165110199D01*
X155170000Y-167009801D01*
X155173767Y-167028738D01*
X155183814Y-167043773D01*
X155183945Y-167045768D01*
X155182282Y-167046880D01*
X155181553Y-167046793D01*
X155121212Y-167027898D01*
X155056310Y-167046955D01*
X155054367Y-167046483D01*
X155053803Y-167044564D01*
X155054084Y-167043925D01*
X155064233Y-167028737D01*
X155068000Y-167009801D01*
X155068000Y-165110199D01*
X155064233Y-165091262D01*
X155054186Y-165076227D01*
X155054055Y-165074232D01*
X155055718Y-165073120D01*
X155056447Y-165073207D01*
X155116788Y-165092102D01*
X155181690Y-165073045D01*
X155183633Y-165073517D01*
G37*
G36*
X151183633Y-165073517D02*
G01*
X151184197Y-165075436D01*
X151183916Y-165076075D01*
X151173767Y-165091263D01*
X151170000Y-165110199D01*
X151170000Y-167009801D01*
X151173767Y-167028738D01*
X151183814Y-167043773D01*
X151183945Y-167045768D01*
X151182282Y-167046880D01*
X151181553Y-167046793D01*
X151121212Y-167027898D01*
X151056310Y-167046955D01*
X151054367Y-167046483D01*
X151053803Y-167044564D01*
X151054084Y-167043925D01*
X151064233Y-167028737D01*
X151068000Y-167009801D01*
X151068000Y-165110199D01*
X151064233Y-165091262D01*
X151054186Y-165076227D01*
X151054055Y-165074232D01*
X151055718Y-165073120D01*
X151056447Y-165073207D01*
X151116788Y-165092102D01*
X151181690Y-165073045D01*
X151183633Y-165073517D01*
G37*
G36*
X156683633Y-165073517D02*
G01*
X156684197Y-165075436D01*
X156683916Y-165076075D01*
X156673767Y-165091263D01*
X156670000Y-165110199D01*
X156670000Y-167009801D01*
X156673767Y-167028738D01*
X156683814Y-167043773D01*
X156683945Y-167045768D01*
X156682282Y-167046880D01*
X156681553Y-167046793D01*
X156621212Y-167027898D01*
X156556310Y-167046955D01*
X156554367Y-167046483D01*
X156553803Y-167044564D01*
X156554084Y-167043925D01*
X156564233Y-167028737D01*
X156568000Y-167009801D01*
X156568000Y-165110199D01*
X156564233Y-165091262D01*
X156554186Y-165076227D01*
X156554055Y-165074232D01*
X156555718Y-165073120D01*
X156556447Y-165073207D01*
X156616788Y-165092102D01*
X156681690Y-165073045D01*
X156683633Y-165073517D01*
G37*
G36*
X152683633Y-165073517D02*
G01*
X152684197Y-165075436D01*
X152683916Y-165076075D01*
X152673767Y-165091263D01*
X152670000Y-165110199D01*
X152670000Y-167009801D01*
X152673767Y-167028738D01*
X152683814Y-167043773D01*
X152683945Y-167045768D01*
X152682282Y-167046880D01*
X152681553Y-167046793D01*
X152621212Y-167027898D01*
X152556310Y-167046955D01*
X152554367Y-167046483D01*
X152553803Y-167044564D01*
X152554084Y-167043925D01*
X152564233Y-167028737D01*
X152568000Y-167009801D01*
X152568000Y-165110199D01*
X152564233Y-165091262D01*
X152554186Y-165076227D01*
X152554055Y-165074232D01*
X152555718Y-165073120D01*
X152556447Y-165073207D01*
X152616788Y-165092102D01*
X152681690Y-165073045D01*
X152683633Y-165073517D01*
G37*
G36*
X158183633Y-165073517D02*
G01*
X158184197Y-165075436D01*
X158183916Y-165076075D01*
X158173767Y-165091263D01*
X158170000Y-165110199D01*
X158170000Y-167009801D01*
X158173767Y-167028738D01*
X158183814Y-167043773D01*
X158183945Y-167045768D01*
X158182282Y-167046880D01*
X158181553Y-167046793D01*
X158121212Y-167027898D01*
X158056310Y-167046955D01*
X158054367Y-167046483D01*
X158053803Y-167044564D01*
X158054084Y-167043925D01*
X158064233Y-167028737D01*
X158068000Y-167009801D01*
X158068000Y-165110199D01*
X158064233Y-165091262D01*
X158054186Y-165076227D01*
X158054055Y-165074232D01*
X158055718Y-165073120D01*
X158056447Y-165073207D01*
X158116788Y-165092102D01*
X158181690Y-165073045D01*
X158183633Y-165073517D01*
G37*
G36*
X154183633Y-165073517D02*
G01*
X154184197Y-165075436D01*
X154183916Y-165076075D01*
X154173767Y-165091263D01*
X154170000Y-165110199D01*
X154170000Y-167009801D01*
X154173767Y-167028738D01*
X154183814Y-167043773D01*
X154183945Y-167045768D01*
X154182282Y-167046880D01*
X154181553Y-167046793D01*
X154121212Y-167027898D01*
X154056310Y-167046955D01*
X154054367Y-167046483D01*
X154053803Y-167044564D01*
X154054084Y-167043925D01*
X154064233Y-167028737D01*
X154068000Y-167009801D01*
X154068000Y-165110199D01*
X154064233Y-165091262D01*
X154054186Y-165076227D01*
X154054055Y-165074232D01*
X154055718Y-165073120D01*
X154056447Y-165073207D01*
X154116788Y-165092102D01*
X154181690Y-165073045D01*
X154183633Y-165073517D01*
G37*
G36*
X157683633Y-165073517D02*
G01*
X157684197Y-165075436D01*
X157683916Y-165076075D01*
X157673767Y-165091263D01*
X157670000Y-165110199D01*
X157670000Y-167009801D01*
X157673767Y-167028738D01*
X157683814Y-167043773D01*
X157683945Y-167045768D01*
X157682282Y-167046880D01*
X157681553Y-167046793D01*
X157621212Y-167027898D01*
X157556310Y-167046955D01*
X157554367Y-167046483D01*
X157553803Y-167044564D01*
X157554084Y-167043925D01*
X157564233Y-167028737D01*
X157568000Y-167009801D01*
X157568000Y-165110199D01*
X157564233Y-165091262D01*
X157554186Y-165076227D01*
X157554055Y-165074232D01*
X157555718Y-165073120D01*
X157556447Y-165073207D01*
X157616788Y-165092102D01*
X157681690Y-165073045D01*
X157683633Y-165073517D01*
G37*
G36*
X152183633Y-165073517D02*
G01*
X152184197Y-165075436D01*
X152183916Y-165076075D01*
X152173767Y-165091263D01*
X152170000Y-165110199D01*
X152170000Y-167009801D01*
X152173767Y-167028738D01*
X152183814Y-167043773D01*
X152183945Y-167045768D01*
X152182282Y-167046880D01*
X152181553Y-167046793D01*
X152121212Y-167027898D01*
X152056310Y-167046955D01*
X152054367Y-167046483D01*
X152053803Y-167044564D01*
X152054084Y-167043925D01*
X152064233Y-167028737D01*
X152068000Y-167009801D01*
X152068000Y-165110199D01*
X152064233Y-165091262D01*
X152054186Y-165076227D01*
X152054055Y-165074232D01*
X152055718Y-165073120D01*
X152056447Y-165073207D01*
X152116788Y-165092102D01*
X152181690Y-165073045D01*
X152183633Y-165073517D01*
G37*
G36*
X153683633Y-165073517D02*
G01*
X153684197Y-165075436D01*
X153683916Y-165076075D01*
X153673767Y-165091263D01*
X153670000Y-165110199D01*
X153670000Y-167009801D01*
X153673767Y-167028738D01*
X153683814Y-167043773D01*
X153683945Y-167045768D01*
X153682282Y-167046880D01*
X153681553Y-167046793D01*
X153621212Y-167027898D01*
X153556310Y-167046955D01*
X153554367Y-167046483D01*
X153553803Y-167044564D01*
X153554084Y-167043925D01*
X153564233Y-167028737D01*
X153568000Y-167009801D01*
X153568000Y-165110199D01*
X153564233Y-165091262D01*
X153554186Y-165076227D01*
X153554055Y-165074232D01*
X153555718Y-165073120D01*
X153556447Y-165073207D01*
X153616788Y-165092102D01*
X153681690Y-165073045D01*
X153683633Y-165073517D01*
G37*
G36*
X156183633Y-165073517D02*
G01*
X156184197Y-165075436D01*
X156183916Y-165076075D01*
X156173767Y-165091263D01*
X156170000Y-165110199D01*
X156170000Y-167009801D01*
X156173767Y-167028738D01*
X156183814Y-167043773D01*
X156183945Y-167045768D01*
X156182282Y-167046880D01*
X156181553Y-167046793D01*
X156121212Y-167027898D01*
X156056310Y-167046955D01*
X156054367Y-167046483D01*
X156053803Y-167044564D01*
X156054084Y-167043925D01*
X156064233Y-167028737D01*
X156068000Y-167009801D01*
X156068000Y-165110199D01*
X156064233Y-165091262D01*
X156054186Y-165076227D01*
X156054055Y-165074232D01*
X156055718Y-165073120D01*
X156056447Y-165073207D01*
X156116788Y-165092102D01*
X156181690Y-165073045D01*
X156183633Y-165073517D01*
G37*
G36*
X134633633Y-165063517D02*
G01*
X134634197Y-165065436D01*
X134633916Y-165066075D01*
X134623767Y-165081263D01*
X134620000Y-165100199D01*
X134620000Y-166999801D01*
X134623767Y-167018738D01*
X134633814Y-167033773D01*
X134633945Y-167035768D01*
X134632282Y-167036880D01*
X134631553Y-167036793D01*
X134571212Y-167017898D01*
X134506310Y-167036955D01*
X134504367Y-167036483D01*
X134503803Y-167034564D01*
X134504084Y-167033925D01*
X134514233Y-167018737D01*
X134518000Y-166999801D01*
X134518000Y-165100199D01*
X134514233Y-165081262D01*
X134504186Y-165066227D01*
X134504055Y-165064232D01*
X134505718Y-165063120D01*
X134506447Y-165063207D01*
X134566788Y-165082102D01*
X134631690Y-165063045D01*
X134633633Y-165063517D01*
G37*
G36*
X133633633Y-165063517D02*
G01*
X133634197Y-165065436D01*
X133633916Y-165066075D01*
X133623767Y-165081263D01*
X133620000Y-165100199D01*
X133620000Y-166999801D01*
X133623767Y-167018738D01*
X133633814Y-167033773D01*
X133633945Y-167035768D01*
X133632282Y-167036880D01*
X133631553Y-167036793D01*
X133571212Y-167017898D01*
X133506310Y-167036955D01*
X133504367Y-167036483D01*
X133503803Y-167034564D01*
X133504084Y-167033925D01*
X133514233Y-167018737D01*
X133518000Y-166999801D01*
X133518000Y-165100199D01*
X133514233Y-165081262D01*
X133504186Y-165066227D01*
X133504055Y-165064232D01*
X133505718Y-165063120D01*
X133506447Y-165063207D01*
X133566788Y-165082102D01*
X133631690Y-165063045D01*
X133633633Y-165063517D01*
G37*
G36*
X115003633Y-165063517D02*
G01*
X115004197Y-165065436D01*
X115003916Y-165066075D01*
X114993767Y-165081263D01*
X114990000Y-165100199D01*
X114990000Y-166999801D01*
X114993767Y-167018738D01*
X115003814Y-167033773D01*
X115003945Y-167035768D01*
X115002282Y-167036880D01*
X115001553Y-167036793D01*
X114941212Y-167017898D01*
X114876310Y-167036955D01*
X114874367Y-167036483D01*
X114873803Y-167034564D01*
X114874084Y-167033925D01*
X114884233Y-167018737D01*
X114888000Y-166999801D01*
X114888000Y-165100199D01*
X114884233Y-165081262D01*
X114874186Y-165066227D01*
X114874055Y-165064232D01*
X114875718Y-165063120D01*
X114876447Y-165063207D01*
X114936788Y-165082102D01*
X115001690Y-165063045D01*
X115003633Y-165063517D01*
G37*
G36*
X135133633Y-165063517D02*
G01*
X135134197Y-165065436D01*
X135133916Y-165066075D01*
X135123767Y-165081263D01*
X135120000Y-165100199D01*
X135120000Y-166999801D01*
X135123767Y-167018738D01*
X135133814Y-167033773D01*
X135133945Y-167035768D01*
X135132282Y-167036880D01*
X135131553Y-167036793D01*
X135071212Y-167017898D01*
X135006310Y-167036955D01*
X135004367Y-167036483D01*
X135003803Y-167034564D01*
X135004084Y-167033925D01*
X135014233Y-167018737D01*
X135018000Y-166999801D01*
X135018000Y-165100199D01*
X135014233Y-165081262D01*
X135004186Y-165066227D01*
X135004055Y-165064232D01*
X135005718Y-165063120D01*
X135006447Y-165063207D01*
X135066788Y-165082102D01*
X135131690Y-165063045D01*
X135133633Y-165063517D01*
G37*
G36*
X112003633Y-165063517D02*
G01*
X112004197Y-165065436D01*
X112003916Y-165066075D01*
X111993767Y-165081263D01*
X111990000Y-165100199D01*
X111990000Y-166999801D01*
X111993767Y-167018738D01*
X112003814Y-167033773D01*
X112003945Y-167035768D01*
X112002282Y-167036880D01*
X112001553Y-167036793D01*
X111941212Y-167017898D01*
X111876310Y-167036955D01*
X111874367Y-167036483D01*
X111873803Y-167034564D01*
X111874084Y-167033925D01*
X111884233Y-167018737D01*
X111888000Y-166999801D01*
X111888000Y-165100199D01*
X111884233Y-165081262D01*
X111874186Y-165066227D01*
X111874055Y-165064232D01*
X111875718Y-165063120D01*
X111876447Y-165063207D01*
X111936788Y-165082102D01*
X112001690Y-165063045D01*
X112003633Y-165063517D01*
G37*
G36*
X132133633Y-165063517D02*
G01*
X132134197Y-165065436D01*
X132133916Y-165066075D01*
X132123767Y-165081263D01*
X132120000Y-165100199D01*
X132120000Y-166999801D01*
X132123767Y-167018738D01*
X132133814Y-167033773D01*
X132133945Y-167035768D01*
X132132282Y-167036880D01*
X132131553Y-167036793D01*
X132071212Y-167017898D01*
X132006310Y-167036955D01*
X132004367Y-167036483D01*
X132003803Y-167034564D01*
X132004084Y-167033925D01*
X132014233Y-167018737D01*
X132018000Y-166999801D01*
X132018000Y-165100199D01*
X132014233Y-165081262D01*
X132004186Y-165066227D01*
X132004055Y-165064232D01*
X132005718Y-165063120D01*
X132006447Y-165063207D01*
X132066788Y-165082102D01*
X132131690Y-165063045D01*
X132133633Y-165063517D01*
G37*
G36*
X116503633Y-165063517D02*
G01*
X116504197Y-165065436D01*
X116503916Y-165066075D01*
X116493767Y-165081263D01*
X116490000Y-165100199D01*
X116490000Y-166999801D01*
X116493767Y-167018738D01*
X116503814Y-167033773D01*
X116503945Y-167035768D01*
X116502282Y-167036880D01*
X116501553Y-167036793D01*
X116441212Y-167017898D01*
X116376310Y-167036955D01*
X116374367Y-167036483D01*
X116373803Y-167034564D01*
X116374084Y-167033925D01*
X116384233Y-167018737D01*
X116388000Y-166999801D01*
X116388000Y-165100199D01*
X116384233Y-165081262D01*
X116374186Y-165066227D01*
X116374055Y-165064232D01*
X116375718Y-165063120D01*
X116376447Y-165063207D01*
X116436788Y-165082102D01*
X116501690Y-165063045D01*
X116503633Y-165063517D01*
G37*
G36*
X116003633Y-165063517D02*
G01*
X116004197Y-165065436D01*
X116003916Y-165066075D01*
X115993767Y-165081263D01*
X115990000Y-165100199D01*
X115990000Y-166999801D01*
X115993767Y-167018738D01*
X116003814Y-167033773D01*
X116003945Y-167035768D01*
X116002282Y-167036880D01*
X116001553Y-167036793D01*
X115941212Y-167017898D01*
X115876310Y-167036955D01*
X115874367Y-167036483D01*
X115873803Y-167034564D01*
X115874084Y-167033925D01*
X115884233Y-167018737D01*
X115888000Y-166999801D01*
X115888000Y-165100199D01*
X115884233Y-165081262D01*
X115874186Y-165066227D01*
X115874055Y-165064232D01*
X115875718Y-165063120D01*
X115876447Y-165063207D01*
X115936788Y-165082102D01*
X116001690Y-165063045D01*
X116003633Y-165063517D01*
G37*
G36*
X138133633Y-165063517D02*
G01*
X138134197Y-165065436D01*
X138133916Y-165066075D01*
X138123767Y-165081263D01*
X138120000Y-165100199D01*
X138120000Y-166999801D01*
X138123767Y-167018738D01*
X138133814Y-167033773D01*
X138133945Y-167035768D01*
X138132282Y-167036880D01*
X138131553Y-167036793D01*
X138071212Y-167017898D01*
X138006310Y-167036955D01*
X138004367Y-167036483D01*
X138003803Y-167034564D01*
X138004084Y-167033925D01*
X138014233Y-167018737D01*
X138018000Y-166999801D01*
X138018000Y-165100199D01*
X138014233Y-165081262D01*
X138004186Y-165066227D01*
X138004055Y-165064232D01*
X138005718Y-165063120D01*
X138006447Y-165063207D01*
X138066788Y-165082102D01*
X138131690Y-165063045D01*
X138133633Y-165063517D01*
G37*
G36*
X114503633Y-165063517D02*
G01*
X114504197Y-165065436D01*
X114503916Y-165066075D01*
X114493767Y-165081263D01*
X114490000Y-165100199D01*
X114490000Y-166999801D01*
X114493767Y-167018738D01*
X114503814Y-167033773D01*
X114503945Y-167035768D01*
X114502282Y-167036880D01*
X114501553Y-167036793D01*
X114441212Y-167017898D01*
X114376310Y-167036955D01*
X114374367Y-167036483D01*
X114373803Y-167034564D01*
X114374084Y-167033925D01*
X114384233Y-167018737D01*
X114388000Y-166999801D01*
X114388000Y-165100199D01*
X114384233Y-165081262D01*
X114374186Y-165066227D01*
X114374055Y-165064232D01*
X114375718Y-165063120D01*
X114376447Y-165063207D01*
X114436788Y-165082102D01*
X114501690Y-165063045D01*
X114503633Y-165063517D01*
G37*
G36*
X110503633Y-165063517D02*
G01*
X110504197Y-165065436D01*
X110503916Y-165066075D01*
X110493767Y-165081263D01*
X110490000Y-165100199D01*
X110490000Y-166999801D01*
X110493767Y-167018738D01*
X110503814Y-167033773D01*
X110503945Y-167035768D01*
X110502282Y-167036880D01*
X110501553Y-167036793D01*
X110441212Y-167017898D01*
X110376310Y-167036955D01*
X110374367Y-167036483D01*
X110373803Y-167034564D01*
X110374084Y-167033925D01*
X110384233Y-167018737D01*
X110388000Y-166999801D01*
X110388000Y-165100199D01*
X110384233Y-165081262D01*
X110374186Y-165066227D01*
X110374055Y-165064232D01*
X110375718Y-165063120D01*
X110376447Y-165063207D01*
X110436788Y-165082102D01*
X110501690Y-165063045D01*
X110503633Y-165063517D01*
G37*
G36*
X113503633Y-165063517D02*
G01*
X113504197Y-165065436D01*
X113503916Y-165066075D01*
X113493767Y-165081263D01*
X113490000Y-165100199D01*
X113490000Y-166999801D01*
X113493767Y-167018738D01*
X113503814Y-167033773D01*
X113503945Y-167035768D01*
X113502282Y-167036880D01*
X113501553Y-167036793D01*
X113441212Y-167017898D01*
X113376310Y-167036955D01*
X113374367Y-167036483D01*
X113373803Y-167034564D01*
X113374084Y-167033925D01*
X113384233Y-167018737D01*
X113388000Y-166999801D01*
X113388000Y-165100199D01*
X113384233Y-165081262D01*
X113374186Y-165066227D01*
X113374055Y-165064232D01*
X113375718Y-165063120D01*
X113376447Y-165063207D01*
X113436788Y-165082102D01*
X113501690Y-165063045D01*
X113503633Y-165063517D01*
G37*
G36*
X112503633Y-165063517D02*
G01*
X112504197Y-165065436D01*
X112503916Y-165066075D01*
X112493767Y-165081263D01*
X112490000Y-165100199D01*
X112490000Y-166999801D01*
X112493767Y-167018738D01*
X112503814Y-167033773D01*
X112503945Y-167035768D01*
X112502282Y-167036880D01*
X112501553Y-167036793D01*
X112441212Y-167017898D01*
X112376310Y-167036955D01*
X112374367Y-167036483D01*
X112373803Y-167034564D01*
X112374084Y-167033925D01*
X112384233Y-167018737D01*
X112388000Y-166999801D01*
X112388000Y-165100199D01*
X112384233Y-165081262D01*
X112374186Y-165066227D01*
X112374055Y-165064232D01*
X112375718Y-165063120D01*
X112376447Y-165063207D01*
X112436788Y-165082102D01*
X112501690Y-165063045D01*
X112503633Y-165063517D01*
G37*
G36*
X109503633Y-165063517D02*
G01*
X109504197Y-165065436D01*
X109503916Y-165066075D01*
X109493767Y-165081263D01*
X109490000Y-165100199D01*
X109490000Y-166999801D01*
X109493767Y-167018738D01*
X109503814Y-167033773D01*
X109503945Y-167035768D01*
X109502282Y-167036880D01*
X109501553Y-167036793D01*
X109441212Y-167017898D01*
X109376310Y-167036955D01*
X109374367Y-167036483D01*
X109373803Y-167034564D01*
X109374084Y-167033925D01*
X109384233Y-167018737D01*
X109388000Y-166999801D01*
X109388000Y-165100199D01*
X109384233Y-165081262D01*
X109374186Y-165066227D01*
X109374055Y-165064232D01*
X109375718Y-165063120D01*
X109376447Y-165063207D01*
X109436788Y-165082102D01*
X109501690Y-165063045D01*
X109503633Y-165063517D01*
G37*
G36*
X117503633Y-165063517D02*
G01*
X117504197Y-165065436D01*
X117503916Y-165066075D01*
X117493767Y-165081263D01*
X117490000Y-165100199D01*
X117490000Y-166999801D01*
X117493767Y-167018738D01*
X117503814Y-167033773D01*
X117503945Y-167035768D01*
X117502282Y-167036880D01*
X117501553Y-167036793D01*
X117441212Y-167017898D01*
X117376310Y-167036955D01*
X117374367Y-167036483D01*
X117373803Y-167034564D01*
X117374084Y-167033925D01*
X117384233Y-167018737D01*
X117388000Y-166999801D01*
X117388000Y-165100199D01*
X117384233Y-165081262D01*
X117374186Y-165066227D01*
X117374055Y-165064232D01*
X117375718Y-165063120D01*
X117376447Y-165063207D01*
X117436788Y-165082102D01*
X117501690Y-165063045D01*
X117503633Y-165063517D01*
G37*
G36*
X111003633Y-165063517D02*
G01*
X111004197Y-165065436D01*
X111003916Y-165066075D01*
X110993767Y-165081263D01*
X110990000Y-165100199D01*
X110990000Y-166999801D01*
X110993767Y-167018738D01*
X111003814Y-167033773D01*
X111003945Y-167035768D01*
X111002282Y-167036880D01*
X111001553Y-167036793D01*
X110941212Y-167017898D01*
X110876310Y-167036955D01*
X110874367Y-167036483D01*
X110873803Y-167034564D01*
X110874084Y-167033925D01*
X110884233Y-167018737D01*
X110888000Y-166999801D01*
X110888000Y-165100199D01*
X110884233Y-165081262D01*
X110874186Y-165066227D01*
X110874055Y-165064232D01*
X110875718Y-165063120D01*
X110876447Y-165063207D01*
X110936788Y-165082102D01*
X111001690Y-165063045D01*
X111003633Y-165063517D01*
G37*
G36*
X137633633Y-165063517D02*
G01*
X137634197Y-165065436D01*
X137633916Y-165066075D01*
X137623767Y-165081263D01*
X137620000Y-165100199D01*
X137620000Y-166999801D01*
X137623767Y-167018738D01*
X137633814Y-167033773D01*
X137633945Y-167035768D01*
X137632282Y-167036880D01*
X137631553Y-167036793D01*
X137571212Y-167017898D01*
X137506310Y-167036955D01*
X137504367Y-167036483D01*
X137503803Y-167034564D01*
X137504084Y-167033925D01*
X137514233Y-167018737D01*
X137518000Y-166999801D01*
X137518000Y-165100199D01*
X137514233Y-165081262D01*
X137504186Y-165066227D01*
X137504055Y-165064232D01*
X137505718Y-165063120D01*
X137506447Y-165063207D01*
X137566788Y-165082102D01*
X137631690Y-165063045D01*
X137633633Y-165063517D01*
G37*
G36*
X136133633Y-165063517D02*
G01*
X136134197Y-165065436D01*
X136133916Y-165066075D01*
X136123767Y-165081263D01*
X136120000Y-165100199D01*
X136120000Y-166999801D01*
X136123767Y-167018738D01*
X136133814Y-167033773D01*
X136133945Y-167035768D01*
X136132282Y-167036880D01*
X136131553Y-167036793D01*
X136071212Y-167017898D01*
X136006310Y-167036955D01*
X136004367Y-167036483D01*
X136003803Y-167034564D01*
X136004084Y-167033925D01*
X136014233Y-167018737D01*
X136018000Y-166999801D01*
X136018000Y-165100199D01*
X136014233Y-165081262D01*
X136004186Y-165066227D01*
X136004055Y-165064232D01*
X136005718Y-165063120D01*
X136006447Y-165063207D01*
X136066788Y-165082102D01*
X136131690Y-165063045D01*
X136133633Y-165063517D01*
G37*
G36*
X131133633Y-165063517D02*
G01*
X131134197Y-165065436D01*
X131133916Y-165066075D01*
X131123767Y-165081263D01*
X131120000Y-165100199D01*
X131120000Y-166999801D01*
X131123767Y-167018738D01*
X131133814Y-167033773D01*
X131133945Y-167035768D01*
X131132282Y-167036880D01*
X131131553Y-167036793D01*
X131071212Y-167017898D01*
X131006310Y-167036955D01*
X131004367Y-167036483D01*
X131003803Y-167034564D01*
X131004084Y-167033925D01*
X131014233Y-167018737D01*
X131018000Y-166999801D01*
X131018000Y-165100199D01*
X131014233Y-165081262D01*
X131004186Y-165066227D01*
X131004055Y-165064232D01*
X131005718Y-165063120D01*
X131006447Y-165063207D01*
X131066788Y-165082102D01*
X131131690Y-165063045D01*
X131133633Y-165063517D01*
G37*
G36*
X137133633Y-165063517D02*
G01*
X137134197Y-165065436D01*
X137133916Y-165066075D01*
X137123767Y-165081263D01*
X137120000Y-165100199D01*
X137120000Y-166999801D01*
X137123767Y-167018738D01*
X137133814Y-167033773D01*
X137133945Y-167035768D01*
X137132282Y-167036880D01*
X137131553Y-167036793D01*
X137071212Y-167017898D01*
X137006310Y-167036955D01*
X137004367Y-167036483D01*
X137003803Y-167034564D01*
X137004084Y-167033925D01*
X137014233Y-167018737D01*
X137018000Y-166999801D01*
X137018000Y-165100199D01*
X137014233Y-165081262D01*
X137004186Y-165066227D01*
X137004055Y-165064232D01*
X137005718Y-165063120D01*
X137006447Y-165063207D01*
X137066788Y-165082102D01*
X137131690Y-165063045D01*
X137133633Y-165063517D01*
G37*
G36*
X135633633Y-165063517D02*
G01*
X135634197Y-165065436D01*
X135633916Y-165066075D01*
X135623767Y-165081263D01*
X135620000Y-165100199D01*
X135620000Y-166999801D01*
X135623767Y-167018738D01*
X135633814Y-167033773D01*
X135633945Y-167035768D01*
X135632282Y-167036880D01*
X135631553Y-167036793D01*
X135571212Y-167017898D01*
X135506310Y-167036955D01*
X135504367Y-167036483D01*
X135503803Y-167034564D01*
X135504084Y-167033925D01*
X135514233Y-167018737D01*
X135518000Y-166999801D01*
X135518000Y-165100199D01*
X135514233Y-165081262D01*
X135504186Y-165066227D01*
X135504055Y-165064232D01*
X135505718Y-165063120D01*
X135506447Y-165063207D01*
X135566788Y-165082102D01*
X135631690Y-165063045D01*
X135633633Y-165063517D01*
G37*
G36*
X132633633Y-165063517D02*
G01*
X132634197Y-165065436D01*
X132633916Y-165066075D01*
X132623767Y-165081263D01*
X132620000Y-165100199D01*
X132620000Y-166999801D01*
X132623767Y-167018738D01*
X132633814Y-167033773D01*
X132633945Y-167035768D01*
X132632282Y-167036880D01*
X132631553Y-167036793D01*
X132571212Y-167017898D01*
X132506310Y-167036955D01*
X132504367Y-167036483D01*
X132503803Y-167034564D01*
X132504084Y-167033925D01*
X132514233Y-167018737D01*
X132518000Y-166999801D01*
X132518000Y-165100199D01*
X132514233Y-165081262D01*
X132504186Y-165066227D01*
X132504055Y-165064232D01*
X132505718Y-165063120D01*
X132506447Y-165063207D01*
X132566788Y-165082102D01*
X132631690Y-165063045D01*
X132633633Y-165063517D01*
G37*
G36*
X134133633Y-165063517D02*
G01*
X134134197Y-165065436D01*
X134133916Y-165066075D01*
X134123767Y-165081263D01*
X134120000Y-165100199D01*
X134120000Y-166999801D01*
X134123767Y-167018738D01*
X134133814Y-167033773D01*
X134133945Y-167035768D01*
X134132282Y-167036880D01*
X134131553Y-167036793D01*
X134071212Y-167017898D01*
X134006310Y-167036955D01*
X134004367Y-167036483D01*
X134003803Y-167034564D01*
X134004084Y-167033925D01*
X134014233Y-167018737D01*
X134018000Y-166999801D01*
X134018000Y-165100199D01*
X134014233Y-165081262D01*
X134004186Y-165066227D01*
X134004055Y-165064232D01*
X134005718Y-165063120D01*
X134006447Y-165063207D01*
X134066788Y-165082102D01*
X134131690Y-165063045D01*
X134133633Y-165063517D01*
G37*
G36*
X138633633Y-165063517D02*
G01*
X138634197Y-165065436D01*
X138633916Y-165066075D01*
X138623767Y-165081263D01*
X138620000Y-165100199D01*
X138620000Y-166999801D01*
X138623767Y-167018738D01*
X138633814Y-167033773D01*
X138633945Y-167035768D01*
X138632282Y-167036880D01*
X138631553Y-167036793D01*
X138571212Y-167017898D01*
X138506310Y-167036955D01*
X138504367Y-167036483D01*
X138503803Y-167034564D01*
X138504084Y-167033925D01*
X138514233Y-167018737D01*
X138518000Y-166999801D01*
X138518000Y-165100199D01*
X138514233Y-165081262D01*
X138504186Y-165066227D01*
X138504055Y-165064232D01*
X138505718Y-165063120D01*
X138506447Y-165063207D01*
X138566788Y-165082102D01*
X138631690Y-165063045D01*
X138633633Y-165063517D01*
G37*
G36*
X136633633Y-165063517D02*
G01*
X136634197Y-165065436D01*
X136633916Y-165066075D01*
X136623767Y-165081263D01*
X136620000Y-165100199D01*
X136620000Y-166999801D01*
X136623767Y-167018738D01*
X136633814Y-167033773D01*
X136633945Y-167035768D01*
X136632282Y-167036880D01*
X136631553Y-167036793D01*
X136571212Y-167017898D01*
X136506310Y-167036955D01*
X136504367Y-167036483D01*
X136503803Y-167034564D01*
X136504084Y-167033925D01*
X136514233Y-167018737D01*
X136518000Y-166999801D01*
X136518000Y-165100199D01*
X136514233Y-165081262D01*
X136504186Y-165066227D01*
X136504055Y-165064232D01*
X136505718Y-165063120D01*
X136506447Y-165063207D01*
X136566788Y-165082102D01*
X136631690Y-165063045D01*
X136633633Y-165063517D01*
G37*
G36*
X117003633Y-165063517D02*
G01*
X117004197Y-165065436D01*
X117003916Y-165066075D01*
X116993767Y-165081263D01*
X116990000Y-165100199D01*
X116990000Y-166999801D01*
X116993767Y-167018738D01*
X117003814Y-167033773D01*
X117003945Y-167035768D01*
X117002282Y-167036880D01*
X117001553Y-167036793D01*
X116941212Y-167017898D01*
X116876310Y-167036955D01*
X116874367Y-167036483D01*
X116873803Y-167034564D01*
X116874084Y-167033925D01*
X116884233Y-167018737D01*
X116888000Y-166999801D01*
X116888000Y-165100199D01*
X116884233Y-165081262D01*
X116874186Y-165066227D01*
X116874055Y-165064232D01*
X116875718Y-165063120D01*
X116876447Y-165063207D01*
X116936788Y-165082102D01*
X117001690Y-165063045D01*
X117003633Y-165063517D01*
G37*
G36*
X115503633Y-165063517D02*
G01*
X115504197Y-165065436D01*
X115503916Y-165066075D01*
X115493767Y-165081263D01*
X115490000Y-165100199D01*
X115490000Y-166999801D01*
X115493767Y-167018738D01*
X115503814Y-167033773D01*
X115503945Y-167035768D01*
X115502282Y-167036880D01*
X115501553Y-167036793D01*
X115441212Y-167017898D01*
X115376310Y-167036955D01*
X115374367Y-167036483D01*
X115373803Y-167034564D01*
X115374084Y-167033925D01*
X115384233Y-167018737D01*
X115388000Y-166999801D01*
X115388000Y-165100199D01*
X115384233Y-165081262D01*
X115374186Y-165066227D01*
X115374055Y-165064232D01*
X115375718Y-165063120D01*
X115376447Y-165063207D01*
X115436788Y-165082102D01*
X115501690Y-165063045D01*
X115503633Y-165063517D01*
G37*
G36*
X133133633Y-165063517D02*
G01*
X133134197Y-165065436D01*
X133133916Y-165066075D01*
X133123767Y-165081263D01*
X133120000Y-165100199D01*
X133120000Y-166999801D01*
X133123767Y-167018738D01*
X133133814Y-167033773D01*
X133133945Y-167035768D01*
X133132282Y-167036880D01*
X133131553Y-167036793D01*
X133071212Y-167017898D01*
X133006310Y-167036955D01*
X133004367Y-167036483D01*
X133003803Y-167034564D01*
X133004084Y-167033925D01*
X133014233Y-167018737D01*
X133018000Y-166999801D01*
X133018000Y-165100199D01*
X133014233Y-165081262D01*
X133004186Y-165066227D01*
X133004055Y-165064232D01*
X133005718Y-165063120D01*
X133006447Y-165063207D01*
X133066788Y-165082102D01*
X133131690Y-165063045D01*
X133133633Y-165063517D01*
G37*
G36*
X114003633Y-165063517D02*
G01*
X114004197Y-165065436D01*
X114003916Y-165066075D01*
X113993767Y-165081263D01*
X113990000Y-165100199D01*
X113990000Y-166999801D01*
X113993767Y-167018738D01*
X114003814Y-167033773D01*
X114003945Y-167035768D01*
X114002282Y-167036880D01*
X114001553Y-167036793D01*
X113941212Y-167017898D01*
X113876310Y-167036955D01*
X113874367Y-167036483D01*
X113873803Y-167034564D01*
X113874084Y-167033925D01*
X113884233Y-167018737D01*
X113888000Y-166999801D01*
X113888000Y-165100199D01*
X113884233Y-165081262D01*
X113874186Y-165066227D01*
X113874055Y-165064232D01*
X113875718Y-165063120D01*
X113876447Y-165063207D01*
X113936788Y-165082102D01*
X114001690Y-165063045D01*
X114003633Y-165063517D01*
G37*
G36*
X110003633Y-165063517D02*
G01*
X110004197Y-165065436D01*
X110003916Y-165066075D01*
X109993767Y-165081263D01*
X109990000Y-165100199D01*
X109990000Y-166999801D01*
X109993767Y-167018738D01*
X110003814Y-167033773D01*
X110003945Y-167035768D01*
X110002282Y-167036880D01*
X110001553Y-167036793D01*
X109941212Y-167017898D01*
X109876310Y-167036955D01*
X109874367Y-167036483D01*
X109873803Y-167034564D01*
X109874084Y-167033925D01*
X109884233Y-167018737D01*
X109888000Y-166999801D01*
X109888000Y-165100199D01*
X109884233Y-165081262D01*
X109874186Y-165066227D01*
X109874055Y-165064232D01*
X109875718Y-165063120D01*
X109876447Y-165063207D01*
X109936788Y-165082102D01*
X110001690Y-165063045D01*
X110003633Y-165063517D01*
G37*
G36*
X118003633Y-165063517D02*
G01*
X118004197Y-165065436D01*
X118003916Y-165066075D01*
X117993767Y-165081263D01*
X117990000Y-165100199D01*
X117990000Y-166999801D01*
X117993767Y-167018738D01*
X118003814Y-167033773D01*
X118003945Y-167035768D01*
X118002282Y-167036880D01*
X118001553Y-167036793D01*
X117941212Y-167017898D01*
X117876310Y-167036955D01*
X117874367Y-167036483D01*
X117873803Y-167034564D01*
X117874084Y-167033925D01*
X117884233Y-167018737D01*
X117888000Y-166999801D01*
X117888000Y-165100199D01*
X117884233Y-165081262D01*
X117874186Y-165066227D01*
X117874055Y-165064232D01*
X117875718Y-165063120D01*
X117876447Y-165063207D01*
X117936788Y-165082102D01*
X118001690Y-165063045D01*
X118003633Y-165063517D01*
G37*
G36*
X130133633Y-165063517D02*
G01*
X130134197Y-165065436D01*
X130133916Y-165066075D01*
X130123767Y-165081263D01*
X130120000Y-165100199D01*
X130120000Y-166999801D01*
X130123767Y-167018738D01*
X130133814Y-167033773D01*
X130133945Y-167035768D01*
X130132282Y-167036880D01*
X130131553Y-167036793D01*
X130071212Y-167017898D01*
X130006310Y-167036955D01*
X130004367Y-167036483D01*
X130003803Y-167034564D01*
X130004084Y-167033925D01*
X130014233Y-167018737D01*
X130018000Y-166999801D01*
X130018000Y-165100199D01*
X130014233Y-165081262D01*
X130004186Y-165066227D01*
X130004055Y-165064232D01*
X130005718Y-165063120D01*
X130006447Y-165063207D01*
X130066788Y-165082102D01*
X130131690Y-165063045D01*
X130133633Y-165063517D01*
G37*
G36*
X113003633Y-165063517D02*
G01*
X113004197Y-165065436D01*
X113003916Y-165066075D01*
X112993767Y-165081263D01*
X112990000Y-165100199D01*
X112990000Y-166999801D01*
X112993767Y-167018738D01*
X113003814Y-167033773D01*
X113003945Y-167035768D01*
X113002282Y-167036880D01*
X113001553Y-167036793D01*
X112941212Y-167017898D01*
X112876310Y-167036955D01*
X112874367Y-167036483D01*
X112873803Y-167034564D01*
X112874084Y-167033925D01*
X112884233Y-167018737D01*
X112888000Y-166999801D01*
X112888000Y-165100199D01*
X112884233Y-165081262D01*
X112874186Y-165066227D01*
X112874055Y-165064232D01*
X112875718Y-165063120D01*
X112876447Y-165063207D01*
X112936788Y-165082102D01*
X113001690Y-165063045D01*
X113003633Y-165063517D01*
G37*
G36*
X130633633Y-165063517D02*
G01*
X130634197Y-165065436D01*
X130633916Y-165066075D01*
X130623767Y-165081263D01*
X130620000Y-165100199D01*
X130620000Y-166999801D01*
X130623767Y-167018738D01*
X130633814Y-167033773D01*
X130633945Y-167035768D01*
X130632282Y-167036880D01*
X130631553Y-167036793D01*
X130571212Y-167017898D01*
X130506310Y-167036955D01*
X130504367Y-167036483D01*
X130503803Y-167034564D01*
X130504084Y-167033925D01*
X130514233Y-167018737D01*
X130518000Y-166999801D01*
X130518000Y-165100199D01*
X130514233Y-165081262D01*
X130504186Y-165066227D01*
X130504055Y-165064232D01*
X130505718Y-165063120D01*
X130506447Y-165063207D01*
X130566788Y-165082102D01*
X130631690Y-165063045D01*
X130633633Y-165063517D01*
G37*
G36*
X111503633Y-165063517D02*
G01*
X111504197Y-165065436D01*
X111503916Y-165066075D01*
X111493767Y-165081263D01*
X111490000Y-165100199D01*
X111490000Y-166999801D01*
X111493767Y-167018738D01*
X111503814Y-167033773D01*
X111503945Y-167035768D01*
X111502282Y-167036880D01*
X111501553Y-167036793D01*
X111441212Y-167017898D01*
X111376310Y-167036955D01*
X111374367Y-167036483D01*
X111373803Y-167034564D01*
X111374084Y-167033925D01*
X111384233Y-167018737D01*
X111388000Y-166999801D01*
X111388000Y-165100199D01*
X111384233Y-165081262D01*
X111374186Y-165066227D01*
X111374055Y-165064232D01*
X111375718Y-165063120D01*
X111376447Y-165063207D01*
X111436788Y-165082102D01*
X111501690Y-165063045D01*
X111503633Y-165063517D01*
G37*
G36*
X131633633Y-165063517D02*
G01*
X131634197Y-165065436D01*
X131633916Y-165066075D01*
X131623767Y-165081263D01*
X131620000Y-165100199D01*
X131620000Y-166999801D01*
X131623767Y-167018738D01*
X131633814Y-167033773D01*
X131633945Y-167035768D01*
X131632282Y-167036880D01*
X131631553Y-167036793D01*
X131571212Y-167017898D01*
X131506310Y-167036955D01*
X131504367Y-167036483D01*
X131503803Y-167034564D01*
X131504084Y-167033925D01*
X131514233Y-167018737D01*
X131518000Y-166999801D01*
X131518000Y-165100199D01*
X131514233Y-165081262D01*
X131504186Y-165066227D01*
X131504055Y-165064232D01*
X131505718Y-165063120D01*
X131506447Y-165063207D01*
X131566788Y-165082102D01*
X131631690Y-165063045D01*
X131633633Y-165063517D01*
G37*
G36*
X153714632Y-138708518D02*
G01*
X153715196Y-138710437D01*
X153714915Y-138711076D01*
X153704767Y-138726262D01*
X153701000Y-138745199D01*
X153701000Y-139594801D01*
X153704767Y-139613738D01*
X153714814Y-139628773D01*
X153714945Y-139630768D01*
X153713282Y-139631880D01*
X153712553Y-139631793D01*
X153652212Y-139612898D01*
X153587310Y-139631955D01*
X153585367Y-139631483D01*
X153584803Y-139629564D01*
X153585084Y-139628925D01*
X153595233Y-139613737D01*
X153599000Y-139594801D01*
X153599000Y-138745199D01*
X153595233Y-138726262D01*
X153585187Y-138711228D01*
X153585056Y-138709232D01*
X153586719Y-138708121D01*
X153587448Y-138708208D01*
X153647788Y-138727102D01*
X153712689Y-138708046D01*
X153714632Y-138708518D01*
G37*
G36*
X134584632Y-138708518D02*
G01*
X134585196Y-138710437D01*
X134584915Y-138711076D01*
X134574767Y-138726262D01*
X134571000Y-138745199D01*
X134571000Y-139594801D01*
X134574767Y-139613738D01*
X134584814Y-139628773D01*
X134584945Y-139630768D01*
X134583282Y-139631880D01*
X134582553Y-139631793D01*
X134522212Y-139612898D01*
X134457310Y-139631955D01*
X134455367Y-139631483D01*
X134454803Y-139629564D01*
X134455084Y-139628925D01*
X134465233Y-139613737D01*
X134469000Y-139594801D01*
X134469000Y-138745199D01*
X134465233Y-138726262D01*
X134455187Y-138711228D01*
X134455056Y-138709232D01*
X134456719Y-138708121D01*
X134457448Y-138708208D01*
X134517788Y-138727102D01*
X134582689Y-138708046D01*
X134584632Y-138708518D01*
G37*
G36*
X154714633Y-138708516D02*
G01*
X154715197Y-138710435D01*
X154714916Y-138711074D01*
X154704767Y-138726262D01*
X154701000Y-138745199D01*
X154701000Y-139594801D01*
X154704767Y-139613738D01*
X154714814Y-139628773D01*
X154714945Y-139630768D01*
X154713282Y-139631880D01*
X154712553Y-139631793D01*
X154652212Y-139612898D01*
X154587310Y-139631955D01*
X154585367Y-139631483D01*
X154584803Y-139629564D01*
X154585084Y-139628925D01*
X154595233Y-139613737D01*
X154599000Y-139594801D01*
X154599000Y-138745199D01*
X154595233Y-138726262D01*
X154585186Y-138711227D01*
X154585055Y-138709232D01*
X154586718Y-138708120D01*
X154587447Y-138708207D01*
X154647786Y-138727102D01*
X154712690Y-138708044D01*
X154714633Y-138708516D01*
G37*
G36*
X154214633Y-138708515D02*
G01*
X154215197Y-138710434D01*
X154214916Y-138711074D01*
X154204767Y-138726262D01*
X154201000Y-138745199D01*
X154201000Y-139594801D01*
X154204767Y-139613738D01*
X154214814Y-139628773D01*
X154214945Y-139630768D01*
X154213282Y-139631880D01*
X154212553Y-139631793D01*
X154152212Y-139612898D01*
X154087310Y-139631955D01*
X154085367Y-139631483D01*
X154084803Y-139629564D01*
X154085084Y-139628925D01*
X154095233Y-139613737D01*
X154099000Y-139594801D01*
X154099000Y-138745199D01*
X154095233Y-138726262D01*
X154085188Y-138711229D01*
X154085057Y-138709233D01*
X154086720Y-138708122D01*
X154087449Y-138708209D01*
X154147792Y-138727102D01*
X154212689Y-138708044D01*
X154214633Y-138708515D01*
G37*
G36*
X135084633Y-138708515D02*
G01*
X135085197Y-138710434D01*
X135084916Y-138711074D01*
X135074767Y-138726262D01*
X135071000Y-138745199D01*
X135071000Y-139594801D01*
X135074767Y-139613738D01*
X135084814Y-139628773D01*
X135084945Y-139630768D01*
X135083282Y-139631880D01*
X135082553Y-139631793D01*
X135022212Y-139612898D01*
X134957310Y-139631955D01*
X134955367Y-139631483D01*
X134954803Y-139629564D01*
X134955084Y-139628925D01*
X134965233Y-139613737D01*
X134969000Y-139594801D01*
X134969000Y-138745199D01*
X134965233Y-138726262D01*
X134955188Y-138711229D01*
X134955057Y-138709233D01*
X134956720Y-138708122D01*
X134957449Y-138708209D01*
X135017792Y-138727102D01*
X135082689Y-138708044D01*
X135084633Y-138708515D01*
G37*
G36*
X135584633Y-138708516D02*
G01*
X135585197Y-138710435D01*
X135584916Y-138711074D01*
X135574767Y-138726262D01*
X135571000Y-138745199D01*
X135571000Y-139594801D01*
X135574767Y-139613738D01*
X135584814Y-139628773D01*
X135584945Y-139630768D01*
X135583282Y-139631880D01*
X135582553Y-139631793D01*
X135522212Y-139612898D01*
X135457310Y-139631955D01*
X135455367Y-139631483D01*
X135454803Y-139629564D01*
X135455084Y-139628925D01*
X135465233Y-139613737D01*
X135469000Y-139594801D01*
X135469000Y-138745199D01*
X135465233Y-138726262D01*
X135455186Y-138711227D01*
X135455055Y-138709232D01*
X135456718Y-138708120D01*
X135457447Y-138708207D01*
X135517786Y-138727102D01*
X135582690Y-138708044D01*
X135584633Y-138708516D01*
G37*
G36*
X114404633Y-138698515D02*
G01*
X114405197Y-138700434D01*
X114404916Y-138701074D01*
X114394767Y-138716262D01*
X114391000Y-138735199D01*
X114391000Y-139584801D01*
X114394767Y-139603738D01*
X114404814Y-139618773D01*
X114404945Y-139620768D01*
X114403282Y-139621880D01*
X114402553Y-139621793D01*
X114342212Y-139602898D01*
X114277310Y-139621955D01*
X114275367Y-139621483D01*
X114274803Y-139619564D01*
X114275084Y-139618925D01*
X114285233Y-139603737D01*
X114289000Y-139584801D01*
X114289000Y-138735199D01*
X114285233Y-138716262D01*
X114275188Y-138701229D01*
X114275057Y-138699233D01*
X114276720Y-138698122D01*
X114277449Y-138698209D01*
X114337792Y-138717102D01*
X114402689Y-138698044D01*
X114404633Y-138698515D01*
G37*
G36*
X114904633Y-138698516D02*
G01*
X114905197Y-138700435D01*
X114904916Y-138701074D01*
X114894767Y-138716262D01*
X114891000Y-138735199D01*
X114891000Y-139584801D01*
X114894767Y-139603738D01*
X114904814Y-139618773D01*
X114904945Y-139620768D01*
X114903282Y-139621880D01*
X114902553Y-139621793D01*
X114842212Y-139602898D01*
X114777310Y-139621955D01*
X114775367Y-139621483D01*
X114774803Y-139619564D01*
X114775084Y-139618925D01*
X114785233Y-139603737D01*
X114789000Y-139584801D01*
X114789000Y-138735199D01*
X114785233Y-138716262D01*
X114775186Y-138701227D01*
X114775055Y-138699232D01*
X114776718Y-138698120D01*
X114777447Y-138698207D01*
X114837786Y-138717102D01*
X114902690Y-138698044D01*
X114904633Y-138698516D01*
G37*
G36*
X113904632Y-138698518D02*
G01*
X113905196Y-138700437D01*
X113904915Y-138701076D01*
X113894767Y-138716262D01*
X113891000Y-138735199D01*
X113891000Y-139584801D01*
X113894767Y-139603738D01*
X113904814Y-139618773D01*
X113904945Y-139620768D01*
X113903282Y-139621880D01*
X113902553Y-139621793D01*
X113842212Y-139602898D01*
X113777310Y-139621955D01*
X113775367Y-139621483D01*
X113774803Y-139619564D01*
X113775084Y-139618925D01*
X113785233Y-139603737D01*
X113789000Y-139584801D01*
X113789000Y-138735199D01*
X113785233Y-138716262D01*
X113775187Y-138701228D01*
X113775056Y-138699232D01*
X113776719Y-138698121D01*
X113777448Y-138698208D01*
X113837788Y-138717102D01*
X113902689Y-138698046D01*
X113904632Y-138698518D01*
G37*
G36*
X154639435Y-138470000D02*
G01*
X154639435Y-138472000D01*
X154638266Y-138472919D01*
X154571254Y-138492595D01*
X154525899Y-138544938D01*
X154516042Y-138613491D01*
X154544880Y-138676636D01*
X154566219Y-138695463D01*
X154566856Y-138697359D01*
X154565533Y-138698859D01*
X154564506Y-138698925D01*
X154549801Y-138696000D01*
X154250199Y-138696000D01*
X154234435Y-138699136D01*
X154232541Y-138698493D01*
X154232151Y-138696531D01*
X154232510Y-138695892D01*
X154274996Y-138645052D01*
X154283626Y-138576334D01*
X154253734Y-138513860D01*
X154194671Y-138477377D01*
X154162029Y-138472982D01*
X154160446Y-138471760D01*
X154160713Y-138469778D01*
X154162296Y-138469000D01*
X154637703Y-138469000D01*
X154639435Y-138470000D01*
G37*
G36*
X135509435Y-138470000D02*
G01*
X135509435Y-138472000D01*
X135508266Y-138472919D01*
X135441254Y-138492595D01*
X135395899Y-138544938D01*
X135386042Y-138613491D01*
X135414880Y-138676636D01*
X135436219Y-138695463D01*
X135436856Y-138697359D01*
X135435533Y-138698859D01*
X135434506Y-138698925D01*
X135419801Y-138696000D01*
X135120199Y-138696000D01*
X135104435Y-138699136D01*
X135102541Y-138698493D01*
X135102151Y-138696531D01*
X135102510Y-138695892D01*
X135144996Y-138645052D01*
X135153626Y-138576334D01*
X135123734Y-138513860D01*
X135064671Y-138477377D01*
X135032029Y-138472982D01*
X135030446Y-138471760D01*
X135030713Y-138469778D01*
X135032296Y-138469000D01*
X135507703Y-138469000D01*
X135509435Y-138470000D01*
G37*
G36*
X154139433Y-138470000D02*
G01*
X154139433Y-138472000D01*
X154138265Y-138472919D01*
X154071250Y-138492599D01*
X154025897Y-138544943D01*
X154016043Y-138613497D01*
X154044883Y-138676641D01*
X154066219Y-138695463D01*
X154066856Y-138697359D01*
X154065533Y-138698859D01*
X154064506Y-138698925D01*
X154049801Y-138696000D01*
X153750199Y-138696000D01*
X153734434Y-138699136D01*
X153732540Y-138698493D01*
X153732150Y-138696531D01*
X153732509Y-138695891D01*
X153774994Y-138645053D01*
X153783625Y-138576338D01*
X153753734Y-138513863D01*
X153694672Y-138477379D01*
X153662160Y-138473000D01*
X153637994Y-138473000D01*
X153571255Y-138492596D01*
X153525900Y-138544939D01*
X153516043Y-138613492D01*
X153544881Y-138676637D01*
X153566219Y-138695463D01*
X153566856Y-138697359D01*
X153565533Y-138698859D01*
X153564506Y-138698925D01*
X153549801Y-138696000D01*
X153250199Y-138696000D01*
X153234434Y-138699136D01*
X153232540Y-138698493D01*
X153232150Y-138696531D01*
X153232509Y-138695891D01*
X153274994Y-138645053D01*
X153283625Y-138576338D01*
X153253735Y-138513863D01*
X153194673Y-138477379D01*
X153162026Y-138472982D01*
X153160443Y-138471760D01*
X153160710Y-138469778D01*
X153162293Y-138469000D01*
X154137701Y-138469000D01*
X154139433Y-138470000D01*
G37*
G36*
X135009433Y-138470000D02*
G01*
X135009433Y-138472000D01*
X135008265Y-138472919D01*
X134941250Y-138492599D01*
X134895897Y-138544943D01*
X134886043Y-138613497D01*
X134914883Y-138676641D01*
X134936219Y-138695463D01*
X134936856Y-138697359D01*
X134935533Y-138698859D01*
X134934506Y-138698925D01*
X134919801Y-138696000D01*
X134620199Y-138696000D01*
X134604434Y-138699136D01*
X134602540Y-138698493D01*
X134602150Y-138696531D01*
X134602509Y-138695891D01*
X134644994Y-138645053D01*
X134653625Y-138576338D01*
X134623734Y-138513863D01*
X134564672Y-138477379D01*
X134532160Y-138473000D01*
X134507994Y-138473000D01*
X134441255Y-138492596D01*
X134395900Y-138544939D01*
X134386043Y-138613492D01*
X134414881Y-138676637D01*
X134436219Y-138695463D01*
X134436856Y-138697359D01*
X134435533Y-138698859D01*
X134434506Y-138698925D01*
X134419801Y-138696000D01*
X134120199Y-138696000D01*
X134104434Y-138699136D01*
X134102540Y-138698493D01*
X134102150Y-138696531D01*
X134102509Y-138695891D01*
X134144994Y-138645053D01*
X134153625Y-138576338D01*
X134123735Y-138513863D01*
X134064673Y-138477379D01*
X134032026Y-138472982D01*
X134030443Y-138471760D01*
X134030710Y-138469778D01*
X134032293Y-138469000D01*
X135007701Y-138469000D01*
X135009433Y-138470000D01*
G37*
G36*
X155139435Y-138470000D02*
G01*
X155139435Y-138472000D01*
X155138266Y-138472919D01*
X155071254Y-138492595D01*
X155025899Y-138544938D01*
X155016042Y-138613491D01*
X155044880Y-138676636D01*
X155066219Y-138695463D01*
X155066856Y-138697359D01*
X155065533Y-138698859D01*
X155064506Y-138698925D01*
X155049801Y-138696000D01*
X154750199Y-138696000D01*
X154734435Y-138699136D01*
X154732541Y-138698493D01*
X154732151Y-138696531D01*
X154732510Y-138695892D01*
X154774996Y-138645052D01*
X154783626Y-138576334D01*
X154753734Y-138513860D01*
X154694671Y-138477377D01*
X154662034Y-138472982D01*
X154660451Y-138471760D01*
X154660718Y-138469778D01*
X154662301Y-138469000D01*
X155137703Y-138469000D01*
X155139435Y-138470000D01*
G37*
G36*
X136009435Y-138470000D02*
G01*
X136009435Y-138472000D01*
X136008266Y-138472919D01*
X135941254Y-138492595D01*
X135895899Y-138544938D01*
X135886042Y-138613491D01*
X135914880Y-138676636D01*
X135936219Y-138695463D01*
X135936856Y-138697359D01*
X135935533Y-138698859D01*
X135934506Y-138698925D01*
X135919801Y-138696000D01*
X135620199Y-138696000D01*
X135604435Y-138699136D01*
X135602541Y-138698493D01*
X135602151Y-138696531D01*
X135602510Y-138695892D01*
X135644996Y-138645052D01*
X135653626Y-138576334D01*
X135623734Y-138513860D01*
X135564671Y-138477377D01*
X135532034Y-138472982D01*
X135530451Y-138471760D01*
X135530718Y-138469778D01*
X135532301Y-138469000D01*
X136007703Y-138469000D01*
X136009435Y-138470000D01*
G37*
G36*
X115329435Y-138460000D02*
G01*
X115329435Y-138462000D01*
X115328266Y-138462919D01*
X115261254Y-138482595D01*
X115215899Y-138534938D01*
X115206042Y-138603491D01*
X115234880Y-138666636D01*
X115256219Y-138685463D01*
X115256856Y-138687359D01*
X115255533Y-138688859D01*
X115254506Y-138688925D01*
X115239801Y-138686000D01*
X114940199Y-138686000D01*
X114924435Y-138689136D01*
X114922541Y-138688493D01*
X114922151Y-138686531D01*
X114922510Y-138685892D01*
X114964996Y-138635052D01*
X114973626Y-138566334D01*
X114943734Y-138503860D01*
X114884671Y-138467377D01*
X114852034Y-138462982D01*
X114850451Y-138461760D01*
X114850718Y-138459778D01*
X114852301Y-138459000D01*
X115327703Y-138459000D01*
X115329435Y-138460000D01*
G37*
G36*
X114829435Y-138460000D02*
G01*
X114829435Y-138462000D01*
X114828266Y-138462919D01*
X114761254Y-138482595D01*
X114715899Y-138534938D01*
X114706042Y-138603491D01*
X114734880Y-138666636D01*
X114756219Y-138685463D01*
X114756856Y-138687359D01*
X114755533Y-138688859D01*
X114754506Y-138688925D01*
X114739801Y-138686000D01*
X114440199Y-138686000D01*
X114424435Y-138689136D01*
X114422541Y-138688493D01*
X114422151Y-138686531D01*
X114422510Y-138685892D01*
X114464996Y-138635052D01*
X114473626Y-138566334D01*
X114443734Y-138503860D01*
X114384671Y-138467377D01*
X114352029Y-138462982D01*
X114350446Y-138461760D01*
X114350713Y-138459778D01*
X114352296Y-138459000D01*
X114827703Y-138459000D01*
X114829435Y-138460000D01*
G37*
G36*
X114329433Y-138460000D02*
G01*
X114329433Y-138462000D01*
X114328265Y-138462919D01*
X114261250Y-138482599D01*
X114215897Y-138534943D01*
X114206043Y-138603497D01*
X114234883Y-138666641D01*
X114256219Y-138685463D01*
X114256856Y-138687359D01*
X114255533Y-138688859D01*
X114254506Y-138688925D01*
X114239801Y-138686000D01*
X113940199Y-138686000D01*
X113924434Y-138689136D01*
X113922540Y-138688493D01*
X113922150Y-138686531D01*
X113922509Y-138685891D01*
X113964994Y-138635053D01*
X113973625Y-138566338D01*
X113943734Y-138503863D01*
X113884672Y-138467379D01*
X113852160Y-138463000D01*
X113827994Y-138463000D01*
X113761255Y-138482596D01*
X113715900Y-138534939D01*
X113706043Y-138603492D01*
X113734881Y-138666637D01*
X113756219Y-138685463D01*
X113756856Y-138687359D01*
X113755533Y-138688859D01*
X113754506Y-138688925D01*
X113739801Y-138686000D01*
X113440199Y-138686000D01*
X113424434Y-138689136D01*
X113422540Y-138688493D01*
X113422150Y-138686531D01*
X113422509Y-138685891D01*
X113464994Y-138635053D01*
X113473625Y-138566338D01*
X113443735Y-138503863D01*
X113384673Y-138467379D01*
X113352026Y-138462982D01*
X113350443Y-138461760D01*
X113350710Y-138459778D01*
X113352293Y-138459000D01*
X114327701Y-138459000D01*
X114329433Y-138460000D01*
G37*
G36*
X155402919Y-137731731D02*
G01*
X155422596Y-137798745D01*
X155474939Y-137844100D01*
X155543492Y-137853957D01*
X155606637Y-137825119D01*
X155625463Y-137803781D01*
X155627359Y-137803144D01*
X155628859Y-137804467D01*
X155628925Y-137805494D01*
X155626000Y-137820199D01*
X155626000Y-138119801D01*
X155629136Y-138135566D01*
X155628493Y-138137460D01*
X155626531Y-138137850D01*
X155625891Y-138137491D01*
X155575053Y-138095006D01*
X155506338Y-138086375D01*
X155443863Y-138116265D01*
X155407379Y-138175327D01*
X155402982Y-138207973D01*
X155401760Y-138209556D01*
X155399778Y-138209289D01*
X155399000Y-138207706D01*
X155399000Y-137732294D01*
X155400000Y-137730562D01*
X155402000Y-137730562D01*
X155402919Y-137731731D01*
G37*
G36*
X136272919Y-137731731D02*
G01*
X136292596Y-137798745D01*
X136344939Y-137844100D01*
X136413492Y-137853957D01*
X136476637Y-137825119D01*
X136495463Y-137803781D01*
X136497359Y-137803144D01*
X136498859Y-137804467D01*
X136498925Y-137805494D01*
X136496000Y-137820199D01*
X136496000Y-138119801D01*
X136499136Y-138135566D01*
X136498493Y-138137460D01*
X136496531Y-138137850D01*
X136495891Y-138137491D01*
X136445053Y-138095006D01*
X136376338Y-138086375D01*
X136313863Y-138116265D01*
X136277379Y-138175327D01*
X136272982Y-138207973D01*
X136271760Y-138209556D01*
X136269778Y-138209289D01*
X136269000Y-138207706D01*
X136269000Y-137732294D01*
X136270000Y-137730562D01*
X136272000Y-137730562D01*
X136272919Y-137731731D01*
G37*
G36*
X133770222Y-137730718D02*
G01*
X133771000Y-137732301D01*
X133771000Y-138207703D01*
X133770000Y-138209435D01*
X133768000Y-138209435D01*
X133767081Y-138208266D01*
X133747405Y-138141254D01*
X133695062Y-138095899D01*
X133626509Y-138086042D01*
X133563364Y-138114880D01*
X133544537Y-138136219D01*
X133542641Y-138136856D01*
X133541141Y-138135533D01*
X133541075Y-138134506D01*
X133544000Y-138119801D01*
X133544000Y-137820199D01*
X133540864Y-137804435D01*
X133541507Y-137802541D01*
X133543469Y-137802151D01*
X133544108Y-137802510D01*
X133594948Y-137844996D01*
X133663666Y-137853626D01*
X133726140Y-137823734D01*
X133762623Y-137764671D01*
X133767018Y-137732034D01*
X133768240Y-137730451D01*
X133770222Y-137730718D01*
G37*
G36*
X152900222Y-137730718D02*
G01*
X152901000Y-137732301D01*
X152901000Y-138207703D01*
X152900000Y-138209435D01*
X152898000Y-138209435D01*
X152897081Y-138208266D01*
X152877405Y-138141254D01*
X152825062Y-138095899D01*
X152756509Y-138086042D01*
X152693364Y-138114880D01*
X152674537Y-138136219D01*
X152672641Y-138136856D01*
X152671141Y-138135533D01*
X152671075Y-138134506D01*
X152674000Y-138119801D01*
X152674000Y-137820199D01*
X152670864Y-137804435D01*
X152671507Y-137802541D01*
X152673469Y-137802151D01*
X152674108Y-137802510D01*
X152724948Y-137844996D01*
X152793666Y-137853626D01*
X152856140Y-137823734D01*
X152892623Y-137764671D01*
X152897018Y-137732034D01*
X152898240Y-137730451D01*
X152900222Y-137730718D01*
G37*
G36*
X115592919Y-137721731D02*
G01*
X115612596Y-137788745D01*
X115664939Y-137834100D01*
X115733492Y-137843957D01*
X115796637Y-137815119D01*
X115815463Y-137793781D01*
X115817359Y-137793144D01*
X115818859Y-137794467D01*
X115818925Y-137795494D01*
X115816000Y-137810199D01*
X115816000Y-138109801D01*
X115819136Y-138125566D01*
X115818493Y-138127460D01*
X115816531Y-138127850D01*
X115815891Y-138127491D01*
X115765053Y-138085006D01*
X115696338Y-138076375D01*
X115633863Y-138106265D01*
X115597379Y-138165327D01*
X115592982Y-138197973D01*
X115591760Y-138199556D01*
X115589778Y-138199289D01*
X115589000Y-138197706D01*
X115589000Y-137722294D01*
X115590000Y-137720562D01*
X115592000Y-137720562D01*
X115592919Y-137721731D01*
G37*
G36*
X113090222Y-137720718D02*
G01*
X113091000Y-137722301D01*
X113091000Y-138197703D01*
X113090000Y-138199435D01*
X113088000Y-138199435D01*
X113087081Y-138198266D01*
X113067405Y-138131254D01*
X113015062Y-138085899D01*
X112946509Y-138076042D01*
X112883364Y-138104880D01*
X112864537Y-138126219D01*
X112862641Y-138126856D01*
X112861141Y-138125533D01*
X112861075Y-138124506D01*
X112864000Y-138109801D01*
X112864000Y-137810199D01*
X112860864Y-137794435D01*
X112861507Y-137792541D01*
X112863469Y-137792151D01*
X112864108Y-137792510D01*
X112914948Y-137834996D01*
X112983666Y-137843626D01*
X113046140Y-137813734D01*
X113082623Y-137754671D01*
X113087018Y-137722034D01*
X113088240Y-137720451D01*
X113090222Y-137720718D01*
G37*
G36*
X136511076Y-137655085D02*
G01*
X136526262Y-137665233D01*
X136545199Y-137669000D01*
X137394801Y-137669000D01*
X137413738Y-137665233D01*
X137428773Y-137655186D01*
X137430768Y-137655055D01*
X137431880Y-137656718D01*
X137431793Y-137657447D01*
X137412898Y-137717788D01*
X137431955Y-137782690D01*
X137431483Y-137784633D01*
X137429564Y-137785197D01*
X137428925Y-137784916D01*
X137413737Y-137774767D01*
X137394801Y-137771000D01*
X136545199Y-137771000D01*
X136526262Y-137774767D01*
X136511228Y-137784813D01*
X136509232Y-137784944D01*
X136508121Y-137783281D01*
X136508208Y-137782552D01*
X136527102Y-137722212D01*
X136508046Y-137657311D01*
X136508518Y-137655368D01*
X136510437Y-137654804D01*
X136511076Y-137655085D01*
G37*
G36*
X151741075Y-137655084D02*
G01*
X151756263Y-137665233D01*
X151775199Y-137669000D01*
X152624801Y-137669000D01*
X152643738Y-137665233D01*
X152658773Y-137655186D01*
X152660768Y-137655055D01*
X152661880Y-137656718D01*
X152661793Y-137657447D01*
X152642898Y-137717786D01*
X152661956Y-137782690D01*
X152661484Y-137784633D01*
X152659565Y-137785197D01*
X152658926Y-137784916D01*
X152643738Y-137774767D01*
X152624801Y-137771000D01*
X151775199Y-137771000D01*
X151756262Y-137774767D01*
X151741227Y-137784814D01*
X151739232Y-137784945D01*
X151738120Y-137783282D01*
X151738207Y-137782553D01*
X151757102Y-137722212D01*
X151738045Y-137657310D01*
X151738517Y-137655367D01*
X151740436Y-137654803D01*
X151741075Y-137655084D01*
G37*
G36*
X155641076Y-137655085D02*
G01*
X155656262Y-137665233D01*
X155675199Y-137669000D01*
X156524801Y-137669000D01*
X156543738Y-137665233D01*
X156558773Y-137655186D01*
X156560768Y-137655055D01*
X156561880Y-137656718D01*
X156561793Y-137657447D01*
X156542898Y-137717788D01*
X156561955Y-137782690D01*
X156561483Y-137784633D01*
X156559564Y-137785197D01*
X156558925Y-137784916D01*
X156543737Y-137774767D01*
X156524801Y-137771000D01*
X155675199Y-137771000D01*
X155656262Y-137774767D01*
X155641228Y-137784813D01*
X155639232Y-137784944D01*
X155638121Y-137783281D01*
X155638208Y-137782552D01*
X155657102Y-137722212D01*
X155638046Y-137657311D01*
X155638518Y-137655368D01*
X155640437Y-137654804D01*
X155641076Y-137655085D01*
G37*
G36*
X132611075Y-137655084D02*
G01*
X132626263Y-137665233D01*
X132645199Y-137669000D01*
X133494801Y-137669000D01*
X133513738Y-137665233D01*
X133528773Y-137655186D01*
X133530768Y-137655055D01*
X133531880Y-137656718D01*
X133531793Y-137657447D01*
X133512898Y-137717786D01*
X133531956Y-137782690D01*
X133531484Y-137784633D01*
X133529565Y-137785197D01*
X133528926Y-137784916D01*
X133513738Y-137774767D01*
X133494801Y-137771000D01*
X132645199Y-137771000D01*
X132626262Y-137774767D01*
X132611227Y-137784814D01*
X132609232Y-137784945D01*
X132608120Y-137783282D01*
X132608207Y-137782553D01*
X132627102Y-137722212D01*
X132608045Y-137657310D01*
X132608517Y-137655367D01*
X132610436Y-137654803D01*
X132611075Y-137655084D01*
G37*
G36*
X115831076Y-137645085D02*
G01*
X115846262Y-137655233D01*
X115865199Y-137659000D01*
X116714801Y-137659000D01*
X116733738Y-137655233D01*
X116748773Y-137645186D01*
X116750768Y-137645055D01*
X116751880Y-137646718D01*
X116751793Y-137647447D01*
X116732898Y-137707788D01*
X116751955Y-137772690D01*
X116751483Y-137774633D01*
X116749564Y-137775197D01*
X116748925Y-137774916D01*
X116733737Y-137764767D01*
X116714801Y-137761000D01*
X115865199Y-137761000D01*
X115846262Y-137764767D01*
X115831228Y-137774813D01*
X115829232Y-137774944D01*
X115828121Y-137773281D01*
X115828208Y-137772552D01*
X115847102Y-137712212D01*
X115828046Y-137647311D01*
X115828518Y-137645368D01*
X115830437Y-137644804D01*
X115831076Y-137645085D01*
G37*
G36*
X111931075Y-137645084D02*
G01*
X111946263Y-137655233D01*
X111965199Y-137659000D01*
X112814801Y-137659000D01*
X112833738Y-137655233D01*
X112848773Y-137645186D01*
X112850768Y-137645055D01*
X112851880Y-137646718D01*
X112851793Y-137647447D01*
X112832898Y-137707786D01*
X112851956Y-137772690D01*
X112851484Y-137774633D01*
X112849565Y-137775197D01*
X112848926Y-137774916D01*
X112833738Y-137764767D01*
X112814801Y-137761000D01*
X111965199Y-137761000D01*
X111946262Y-137764767D01*
X111931227Y-137774814D01*
X111929232Y-137774945D01*
X111928120Y-137773282D01*
X111928207Y-137772553D01*
X111947102Y-137712212D01*
X111928045Y-137647310D01*
X111928517Y-137645367D01*
X111930436Y-137644803D01*
X111931075Y-137645084D01*
G37*
G36*
X136272919Y-137231735D02*
G01*
X136292599Y-137298750D01*
X136344943Y-137344103D01*
X136413497Y-137353957D01*
X136476641Y-137325117D01*
X136495463Y-137303781D01*
X136497359Y-137303144D01*
X136498859Y-137304467D01*
X136498925Y-137305494D01*
X136496000Y-137320199D01*
X136496000Y-137619801D01*
X136499136Y-137635566D01*
X136498493Y-137637460D01*
X136496531Y-137637850D01*
X136495891Y-137637491D01*
X136445053Y-137595006D01*
X136376338Y-137586375D01*
X136313863Y-137616266D01*
X136277379Y-137675328D01*
X136272982Y-137707973D01*
X136271760Y-137709556D01*
X136269778Y-137709289D01*
X136269000Y-137707706D01*
X136269000Y-137232299D01*
X136270000Y-137230567D01*
X136272000Y-137230567D01*
X136272919Y-137231735D01*
G37*
G36*
X155402919Y-137231735D02*
G01*
X155422599Y-137298750D01*
X155474943Y-137344103D01*
X155543497Y-137353957D01*
X155606641Y-137325117D01*
X155625463Y-137303781D01*
X155627359Y-137303144D01*
X155628859Y-137304467D01*
X155628925Y-137305494D01*
X155626000Y-137320199D01*
X155626000Y-137619801D01*
X155629136Y-137635566D01*
X155628493Y-137637460D01*
X155626531Y-137637850D01*
X155625891Y-137637491D01*
X155575053Y-137595006D01*
X155506338Y-137586375D01*
X155443863Y-137616266D01*
X155407379Y-137675328D01*
X155402982Y-137707973D01*
X155401760Y-137709556D01*
X155399778Y-137709289D01*
X155399000Y-137707706D01*
X155399000Y-137232299D01*
X155400000Y-137230567D01*
X155402000Y-137230567D01*
X155402919Y-137231735D01*
G37*
G36*
X152900222Y-137230716D02*
G01*
X152901000Y-137232299D01*
X152901000Y-137707703D01*
X152900000Y-137709435D01*
X152898000Y-137709435D01*
X152897081Y-137708266D01*
X152877405Y-137641254D01*
X152825062Y-137595899D01*
X152756509Y-137586042D01*
X152693364Y-137614880D01*
X152674537Y-137636219D01*
X152672641Y-137636856D01*
X152671141Y-137635533D01*
X152671075Y-137634506D01*
X152674000Y-137619801D01*
X152674000Y-137320199D01*
X152670864Y-137304435D01*
X152671507Y-137302541D01*
X152673469Y-137302151D01*
X152674108Y-137302510D01*
X152724948Y-137344996D01*
X152793666Y-137353626D01*
X152856140Y-137323734D01*
X152892623Y-137264671D01*
X152897018Y-137232032D01*
X152898240Y-137230449D01*
X152900222Y-137230716D01*
G37*
G36*
X133770222Y-137230716D02*
G01*
X133771000Y-137232299D01*
X133771000Y-137707703D01*
X133770000Y-137709435D01*
X133768000Y-137709435D01*
X133767081Y-137708266D01*
X133747405Y-137641254D01*
X133695062Y-137595899D01*
X133626509Y-137586042D01*
X133563364Y-137614880D01*
X133544537Y-137636219D01*
X133542641Y-137636856D01*
X133541141Y-137635533D01*
X133541075Y-137634506D01*
X133544000Y-137619801D01*
X133544000Y-137320199D01*
X133540864Y-137304435D01*
X133541507Y-137302541D01*
X133543469Y-137302151D01*
X133544108Y-137302510D01*
X133594948Y-137344996D01*
X133663666Y-137353626D01*
X133726140Y-137323734D01*
X133762623Y-137264671D01*
X133767018Y-137232032D01*
X133768240Y-137230449D01*
X133770222Y-137230716D01*
G37*
G36*
X115592919Y-137221735D02*
G01*
X115612599Y-137288750D01*
X115664943Y-137334103D01*
X115733497Y-137343957D01*
X115796641Y-137315117D01*
X115815463Y-137293781D01*
X115817359Y-137293144D01*
X115818859Y-137294467D01*
X115818925Y-137295494D01*
X115816000Y-137310199D01*
X115816000Y-137609801D01*
X115819136Y-137625566D01*
X115818493Y-137627460D01*
X115816531Y-137627850D01*
X115815891Y-137627491D01*
X115765053Y-137585006D01*
X115696338Y-137576375D01*
X115633863Y-137606266D01*
X115597379Y-137665328D01*
X115592982Y-137697973D01*
X115591760Y-137699556D01*
X115589778Y-137699289D01*
X115589000Y-137697706D01*
X115589000Y-137222299D01*
X115590000Y-137220567D01*
X115592000Y-137220567D01*
X115592919Y-137221735D01*
G37*
G36*
X113090222Y-137220716D02*
G01*
X113091000Y-137222299D01*
X113091000Y-137697703D01*
X113090000Y-137699435D01*
X113088000Y-137699435D01*
X113087081Y-137698266D01*
X113067405Y-137631254D01*
X113015062Y-137585899D01*
X112946509Y-137576042D01*
X112883364Y-137604880D01*
X112864537Y-137626219D01*
X112862641Y-137626856D01*
X112861141Y-137625533D01*
X112861075Y-137624506D01*
X112864000Y-137609801D01*
X112864000Y-137310199D01*
X112860864Y-137294435D01*
X112861507Y-137292541D01*
X112863469Y-137292151D01*
X112864108Y-137292510D01*
X112914948Y-137334996D01*
X112983666Y-137343626D01*
X113046140Y-137313734D01*
X113082623Y-137254671D01*
X113087018Y-137222032D01*
X113088240Y-137220449D01*
X113090222Y-137220716D01*
G37*
G36*
X136511074Y-137155084D02*
G01*
X136526262Y-137165233D01*
X136545199Y-137169000D01*
X137394801Y-137169000D01*
X137413738Y-137165233D01*
X137428773Y-137155186D01*
X137430768Y-137155055D01*
X137431880Y-137156718D01*
X137431793Y-137157447D01*
X137412898Y-137217788D01*
X137431955Y-137282690D01*
X137431483Y-137284633D01*
X137429564Y-137285197D01*
X137428925Y-137284916D01*
X137413737Y-137274767D01*
X137394801Y-137271000D01*
X136545199Y-137271000D01*
X136526262Y-137274767D01*
X136511229Y-137284812D01*
X136509233Y-137284943D01*
X136508122Y-137283280D01*
X136508209Y-137282551D01*
X136527102Y-137222208D01*
X136508044Y-137157311D01*
X136508515Y-137155367D01*
X136510434Y-137154803D01*
X136511074Y-137155084D01*
G37*
G36*
X132611075Y-137155084D02*
G01*
X132626263Y-137165233D01*
X132645199Y-137169000D01*
X133494801Y-137169000D01*
X133513738Y-137165233D01*
X133528771Y-137155188D01*
X133530767Y-137155057D01*
X133531878Y-137156720D01*
X133531791Y-137157449D01*
X133512898Y-137217792D01*
X133531956Y-137282689D01*
X133531485Y-137284633D01*
X133529566Y-137285197D01*
X133528926Y-137284916D01*
X133513738Y-137274767D01*
X133494801Y-137271000D01*
X132645199Y-137271000D01*
X132626262Y-137274767D01*
X132611227Y-137284814D01*
X132609232Y-137284945D01*
X132608120Y-137283282D01*
X132608207Y-137282553D01*
X132627102Y-137222212D01*
X132608045Y-137157310D01*
X132608517Y-137155367D01*
X132610436Y-137154803D01*
X132611075Y-137155084D01*
G37*
G36*
X151741075Y-137155084D02*
G01*
X151756263Y-137165233D01*
X151775199Y-137169000D01*
X152624801Y-137169000D01*
X152643738Y-137165233D01*
X152658771Y-137155188D01*
X152660767Y-137155057D01*
X152661878Y-137156720D01*
X152661791Y-137157449D01*
X152642898Y-137217792D01*
X152661956Y-137282689D01*
X152661485Y-137284633D01*
X152659566Y-137285197D01*
X152658926Y-137284916D01*
X152643738Y-137274767D01*
X152624801Y-137271000D01*
X151775199Y-137271000D01*
X151756262Y-137274767D01*
X151741227Y-137284814D01*
X151739232Y-137284945D01*
X151738120Y-137283282D01*
X151738207Y-137282553D01*
X151757102Y-137222212D01*
X151738045Y-137157310D01*
X151738517Y-137155367D01*
X151740436Y-137154803D01*
X151741075Y-137155084D01*
G37*
G36*
X155641074Y-137155084D02*
G01*
X155656262Y-137165233D01*
X155675199Y-137169000D01*
X156524801Y-137169000D01*
X156543738Y-137165233D01*
X156558773Y-137155186D01*
X156560768Y-137155055D01*
X156561880Y-137156718D01*
X156561793Y-137157447D01*
X156542898Y-137217788D01*
X156561955Y-137282690D01*
X156561483Y-137284633D01*
X156559564Y-137285197D01*
X156558925Y-137284916D01*
X156543737Y-137274767D01*
X156524801Y-137271000D01*
X155675199Y-137271000D01*
X155656262Y-137274767D01*
X155641229Y-137284812D01*
X155639233Y-137284943D01*
X155638122Y-137283280D01*
X155638209Y-137282551D01*
X155657102Y-137222208D01*
X155638044Y-137157311D01*
X155638515Y-137155367D01*
X155640434Y-137154803D01*
X155641074Y-137155084D01*
G37*
G36*
X111931075Y-137145084D02*
G01*
X111946263Y-137155233D01*
X111965199Y-137159000D01*
X112814801Y-137159000D01*
X112833738Y-137155233D01*
X112848771Y-137145188D01*
X112850767Y-137145057D01*
X112851878Y-137146720D01*
X112851791Y-137147449D01*
X112832898Y-137207792D01*
X112851956Y-137272689D01*
X112851485Y-137274633D01*
X112849566Y-137275197D01*
X112848926Y-137274916D01*
X112833738Y-137264767D01*
X112814801Y-137261000D01*
X111965199Y-137261000D01*
X111946262Y-137264767D01*
X111931227Y-137274814D01*
X111929232Y-137274945D01*
X111928120Y-137273282D01*
X111928207Y-137272553D01*
X111947102Y-137212212D01*
X111928045Y-137147310D01*
X111928517Y-137145367D01*
X111930436Y-137144803D01*
X111931075Y-137145084D01*
G37*
G36*
X115831074Y-137145084D02*
G01*
X115846262Y-137155233D01*
X115865199Y-137159000D01*
X116714801Y-137159000D01*
X116733738Y-137155233D01*
X116748773Y-137145186D01*
X116750768Y-137145055D01*
X116751880Y-137146718D01*
X116751793Y-137147447D01*
X116732898Y-137207788D01*
X116751955Y-137272690D01*
X116751483Y-137274633D01*
X116749564Y-137275197D01*
X116748925Y-137274916D01*
X116733737Y-137264767D01*
X116714801Y-137261000D01*
X115865199Y-137261000D01*
X115846262Y-137264767D01*
X115831229Y-137274812D01*
X115829233Y-137274943D01*
X115828122Y-137273280D01*
X115828209Y-137272551D01*
X115847102Y-137212208D01*
X115828044Y-137147311D01*
X115828515Y-137145367D01*
X115830434Y-137144803D01*
X115831074Y-137145084D01*
G37*
G36*
X136272919Y-136731734D02*
G01*
X136292595Y-136798746D01*
X136344938Y-136844101D01*
X136413491Y-136853958D01*
X136476636Y-136825120D01*
X136495463Y-136803781D01*
X136497359Y-136803144D01*
X136498859Y-136804467D01*
X136498925Y-136805494D01*
X136496000Y-136820199D01*
X136496000Y-137119801D01*
X136499136Y-137135565D01*
X136498493Y-137137459D01*
X136496531Y-137137849D01*
X136495892Y-137137490D01*
X136445052Y-137095004D01*
X136376334Y-137086374D01*
X136313860Y-137116266D01*
X136277377Y-137175329D01*
X136272982Y-137207968D01*
X136271760Y-137209551D01*
X136269778Y-137209284D01*
X136269000Y-137207701D01*
X136269000Y-136732297D01*
X136270000Y-136730565D01*
X136272000Y-136730565D01*
X136272919Y-136731734D01*
G37*
G36*
X155402919Y-136731734D02*
G01*
X155422595Y-136798746D01*
X155474938Y-136844101D01*
X155543491Y-136853958D01*
X155606636Y-136825120D01*
X155625463Y-136803781D01*
X155627359Y-136803144D01*
X155628859Y-136804467D01*
X155628925Y-136805494D01*
X155626000Y-136820199D01*
X155626000Y-137119801D01*
X155629136Y-137135565D01*
X155628493Y-137137459D01*
X155626531Y-137137849D01*
X155625892Y-137137490D01*
X155575052Y-137095004D01*
X155506334Y-137086374D01*
X155443860Y-137116266D01*
X155407377Y-137175329D01*
X155402982Y-137207968D01*
X155401760Y-137209551D01*
X155399778Y-137209284D01*
X155399000Y-137207701D01*
X155399000Y-136732297D01*
X155400000Y-136730565D01*
X155402000Y-136730565D01*
X155402919Y-136731734D01*
G37*
G36*
X152900222Y-136730711D02*
G01*
X152901000Y-136732294D01*
X152901000Y-137207701D01*
X152900000Y-137209433D01*
X152898000Y-137209433D01*
X152897081Y-137208265D01*
X152877401Y-137141250D01*
X152825057Y-137095897D01*
X152756503Y-137086043D01*
X152693359Y-137114883D01*
X152674537Y-137136219D01*
X152672641Y-137136856D01*
X152671141Y-137135533D01*
X152671075Y-137134506D01*
X152674000Y-137119801D01*
X152674000Y-136820199D01*
X152670864Y-136804434D01*
X152671507Y-136802540D01*
X152673469Y-136802150D01*
X152674109Y-136802509D01*
X152724947Y-136844994D01*
X152793662Y-136853625D01*
X152856137Y-136823734D01*
X152892621Y-136764672D01*
X152897018Y-136732027D01*
X152898240Y-136730444D01*
X152900222Y-136730711D01*
G37*
G36*
X133770222Y-136730711D02*
G01*
X133771000Y-136732294D01*
X133771000Y-137207701D01*
X133770000Y-137209433D01*
X133768000Y-137209433D01*
X133767081Y-137208265D01*
X133747401Y-137141250D01*
X133695057Y-137095897D01*
X133626503Y-137086043D01*
X133563359Y-137114883D01*
X133544537Y-137136219D01*
X133542641Y-137136856D01*
X133541141Y-137135533D01*
X133541075Y-137134506D01*
X133544000Y-137119801D01*
X133544000Y-136820199D01*
X133540864Y-136804434D01*
X133541507Y-136802540D01*
X133543469Y-136802150D01*
X133544109Y-136802509D01*
X133594947Y-136844994D01*
X133663662Y-136853625D01*
X133726137Y-136823734D01*
X133762621Y-136764672D01*
X133767018Y-136732027D01*
X133768240Y-136730444D01*
X133770222Y-136730711D01*
G37*
G36*
X115592919Y-136721734D02*
G01*
X115612595Y-136788746D01*
X115664938Y-136834101D01*
X115733491Y-136843958D01*
X115796636Y-136815120D01*
X115815463Y-136793781D01*
X115817359Y-136793144D01*
X115818859Y-136794467D01*
X115818925Y-136795494D01*
X115816000Y-136810199D01*
X115816000Y-137109801D01*
X115819136Y-137125565D01*
X115818493Y-137127459D01*
X115816531Y-137127849D01*
X115815892Y-137127490D01*
X115765052Y-137085004D01*
X115696334Y-137076374D01*
X115633860Y-137106266D01*
X115597377Y-137165329D01*
X115592982Y-137197968D01*
X115591760Y-137199551D01*
X115589778Y-137199284D01*
X115589000Y-137197701D01*
X115589000Y-136722297D01*
X115590000Y-136720565D01*
X115592000Y-136720565D01*
X115592919Y-136721734D01*
G37*
G36*
X113090222Y-136720711D02*
G01*
X113091000Y-136722294D01*
X113091000Y-137197701D01*
X113090000Y-137199433D01*
X113088000Y-137199433D01*
X113087081Y-137198265D01*
X113067401Y-137131250D01*
X113015057Y-137085897D01*
X112946503Y-137076043D01*
X112883359Y-137104883D01*
X112864537Y-137126219D01*
X112862641Y-137126856D01*
X112861141Y-137125533D01*
X112861075Y-137124506D01*
X112864000Y-137109801D01*
X112864000Y-136810199D01*
X112860864Y-136794434D01*
X112861507Y-136792540D01*
X112863469Y-136792150D01*
X112864109Y-136792509D01*
X112914947Y-136834994D01*
X112983662Y-136843625D01*
X113046137Y-136813734D01*
X113082621Y-136754672D01*
X113087018Y-136722027D01*
X113088240Y-136720444D01*
X113090222Y-136720711D01*
G37*
G36*
X155641074Y-136655084D02*
G01*
X155656262Y-136665233D01*
X155675199Y-136669000D01*
X156524801Y-136669000D01*
X156543738Y-136665233D01*
X156558773Y-136655186D01*
X156560768Y-136655055D01*
X156561880Y-136656718D01*
X156561793Y-136657447D01*
X156542898Y-136717788D01*
X156561955Y-136782690D01*
X156561483Y-136784633D01*
X156559564Y-136785197D01*
X156558925Y-136784916D01*
X156543737Y-136774767D01*
X156524801Y-136771000D01*
X155675199Y-136771000D01*
X155656262Y-136774767D01*
X155641227Y-136784814D01*
X155639232Y-136784945D01*
X155638120Y-136783282D01*
X155638207Y-136782553D01*
X155657102Y-136722214D01*
X155638044Y-136657310D01*
X155638516Y-136655367D01*
X155640435Y-136654803D01*
X155641074Y-136655084D01*
G37*
G36*
X136511074Y-136655084D02*
G01*
X136526262Y-136665233D01*
X136545199Y-136669000D01*
X137394801Y-136669000D01*
X137413738Y-136665233D01*
X137428773Y-136655186D01*
X137430768Y-136655055D01*
X137431880Y-136656718D01*
X137431793Y-136657447D01*
X137412898Y-136717788D01*
X137431955Y-136782690D01*
X137431483Y-136784633D01*
X137429564Y-136785197D01*
X137428925Y-136784916D01*
X137413737Y-136774767D01*
X137394801Y-136771000D01*
X136545199Y-136771000D01*
X136526262Y-136774767D01*
X136511227Y-136784814D01*
X136509232Y-136784945D01*
X136508120Y-136783282D01*
X136508207Y-136782553D01*
X136527102Y-136722214D01*
X136508044Y-136657310D01*
X136508516Y-136655367D01*
X136510435Y-136654803D01*
X136511074Y-136655084D01*
G37*
G36*
X132611075Y-136655084D02*
G01*
X132626263Y-136665233D01*
X132645199Y-136669000D01*
X133494801Y-136669000D01*
X133513738Y-136665233D01*
X133528772Y-136655187D01*
X133530768Y-136655056D01*
X133531879Y-136656719D01*
X133531792Y-136657448D01*
X133512898Y-136717788D01*
X133531954Y-136782689D01*
X133531482Y-136784632D01*
X133529563Y-136785196D01*
X133528924Y-136784915D01*
X133513738Y-136774767D01*
X133494801Y-136771000D01*
X132645199Y-136771000D01*
X132626262Y-136774767D01*
X132611227Y-136784814D01*
X132609232Y-136784945D01*
X132608120Y-136783282D01*
X132608207Y-136782553D01*
X132627102Y-136722212D01*
X132608045Y-136657310D01*
X132608517Y-136655367D01*
X132610436Y-136654803D01*
X132611075Y-136655084D01*
G37*
G36*
X151741075Y-136655084D02*
G01*
X151756263Y-136665233D01*
X151775199Y-136669000D01*
X152624801Y-136669000D01*
X152643738Y-136665233D01*
X152658772Y-136655187D01*
X152660768Y-136655056D01*
X152661879Y-136656719D01*
X152661792Y-136657448D01*
X152642898Y-136717788D01*
X152661954Y-136782689D01*
X152661482Y-136784632D01*
X152659563Y-136785196D01*
X152658924Y-136784915D01*
X152643738Y-136774767D01*
X152624801Y-136771000D01*
X151775199Y-136771000D01*
X151756262Y-136774767D01*
X151741227Y-136784814D01*
X151739232Y-136784945D01*
X151738120Y-136783282D01*
X151738207Y-136782553D01*
X151757102Y-136722212D01*
X151738045Y-136657310D01*
X151738517Y-136655367D01*
X151740436Y-136654803D01*
X151741075Y-136655084D01*
G37*
G36*
X115831074Y-136645084D02*
G01*
X115846262Y-136655233D01*
X115865199Y-136659000D01*
X116714801Y-136659000D01*
X116733738Y-136655233D01*
X116748773Y-136645186D01*
X116750768Y-136645055D01*
X116751880Y-136646718D01*
X116751793Y-136647447D01*
X116732898Y-136707788D01*
X116751955Y-136772690D01*
X116751483Y-136774633D01*
X116749564Y-136775197D01*
X116748925Y-136774916D01*
X116733737Y-136764767D01*
X116714801Y-136761000D01*
X115865199Y-136761000D01*
X115846262Y-136764767D01*
X115831227Y-136774814D01*
X115829232Y-136774945D01*
X115828120Y-136773282D01*
X115828207Y-136772553D01*
X115847102Y-136712214D01*
X115828044Y-136647310D01*
X115828516Y-136645367D01*
X115830435Y-136644803D01*
X115831074Y-136645084D01*
G37*
G36*
X111931075Y-136645084D02*
G01*
X111946263Y-136655233D01*
X111965199Y-136659000D01*
X112814801Y-136659000D01*
X112833738Y-136655233D01*
X112848772Y-136645187D01*
X112850768Y-136645056D01*
X112851879Y-136646719D01*
X112851792Y-136647448D01*
X112832898Y-136707788D01*
X112851954Y-136772689D01*
X112851482Y-136774632D01*
X112849563Y-136775196D01*
X112848924Y-136774915D01*
X112833738Y-136764767D01*
X112814801Y-136761000D01*
X111965199Y-136761000D01*
X111946262Y-136764767D01*
X111931227Y-136774814D01*
X111929232Y-136774945D01*
X111928120Y-136773282D01*
X111928207Y-136772553D01*
X111947102Y-136712212D01*
X111928045Y-136647310D01*
X111928517Y-136645367D01*
X111930436Y-136644803D01*
X111931075Y-136645084D01*
G37*
G36*
X136272919Y-136231734D02*
G01*
X136292595Y-136298746D01*
X136344938Y-136344101D01*
X136413491Y-136353958D01*
X136476636Y-136325120D01*
X136495463Y-136303781D01*
X136497359Y-136303144D01*
X136498859Y-136304467D01*
X136498925Y-136305494D01*
X136496000Y-136320199D01*
X136496000Y-136619801D01*
X136499136Y-136635565D01*
X136498493Y-136637459D01*
X136496531Y-136637849D01*
X136495892Y-136637490D01*
X136445052Y-136595004D01*
X136376334Y-136586374D01*
X136313860Y-136616266D01*
X136277377Y-136675329D01*
X136272982Y-136707966D01*
X136271760Y-136709549D01*
X136269778Y-136709282D01*
X136269000Y-136707699D01*
X136269000Y-136232297D01*
X136270000Y-136230565D01*
X136272000Y-136230565D01*
X136272919Y-136231734D01*
G37*
G36*
X155402919Y-136231734D02*
G01*
X155422595Y-136298746D01*
X155474938Y-136344101D01*
X155543491Y-136353958D01*
X155606636Y-136325120D01*
X155625463Y-136303781D01*
X155627359Y-136303144D01*
X155628859Y-136304467D01*
X155628925Y-136305494D01*
X155626000Y-136320199D01*
X155626000Y-136619801D01*
X155629136Y-136635565D01*
X155628493Y-136637459D01*
X155626531Y-136637849D01*
X155625892Y-136637490D01*
X155575052Y-136595004D01*
X155506334Y-136586374D01*
X155443860Y-136616266D01*
X155407377Y-136675329D01*
X155402982Y-136707966D01*
X155401760Y-136709549D01*
X155399778Y-136709282D01*
X155399000Y-136707699D01*
X155399000Y-136232297D01*
X155400000Y-136230565D01*
X155402000Y-136230565D01*
X155402919Y-136231734D01*
G37*
G36*
X133770222Y-136230711D02*
G01*
X133771000Y-136232294D01*
X133771000Y-136707706D01*
X133770000Y-136709438D01*
X133768000Y-136709438D01*
X133767081Y-136708269D01*
X133747404Y-136641255D01*
X133695061Y-136595900D01*
X133626508Y-136586043D01*
X133563363Y-136614881D01*
X133544537Y-136636219D01*
X133542641Y-136636856D01*
X133541141Y-136635533D01*
X133541075Y-136634506D01*
X133544000Y-136619801D01*
X133544000Y-136320199D01*
X133540864Y-136304434D01*
X133541507Y-136302540D01*
X133543469Y-136302150D01*
X133544109Y-136302509D01*
X133594947Y-136344994D01*
X133663662Y-136353625D01*
X133726137Y-136323735D01*
X133762621Y-136264673D01*
X133767018Y-136232027D01*
X133768240Y-136230444D01*
X133770222Y-136230711D01*
G37*
G36*
X152900222Y-136230711D02*
G01*
X152901000Y-136232294D01*
X152901000Y-136707706D01*
X152900000Y-136709438D01*
X152898000Y-136709438D01*
X152897081Y-136708269D01*
X152877404Y-136641255D01*
X152825061Y-136595900D01*
X152756508Y-136586043D01*
X152693363Y-136614881D01*
X152674537Y-136636219D01*
X152672641Y-136636856D01*
X152671141Y-136635533D01*
X152671075Y-136634506D01*
X152674000Y-136619801D01*
X152674000Y-136320199D01*
X152670864Y-136304434D01*
X152671507Y-136302540D01*
X152673469Y-136302150D01*
X152674109Y-136302509D01*
X152724947Y-136344994D01*
X152793662Y-136353625D01*
X152856137Y-136323735D01*
X152892621Y-136264673D01*
X152897018Y-136232027D01*
X152898240Y-136230444D01*
X152900222Y-136230711D01*
G37*
G36*
X115592919Y-136221734D02*
G01*
X115612595Y-136288746D01*
X115664938Y-136334101D01*
X115733491Y-136343958D01*
X115796636Y-136315120D01*
X115815463Y-136293781D01*
X115817359Y-136293144D01*
X115818859Y-136294467D01*
X115818925Y-136295494D01*
X115816000Y-136310199D01*
X115816000Y-136609801D01*
X115819136Y-136625565D01*
X115818493Y-136627459D01*
X115816531Y-136627849D01*
X115815892Y-136627490D01*
X115765052Y-136585004D01*
X115696334Y-136576374D01*
X115633860Y-136606266D01*
X115597377Y-136665329D01*
X115592982Y-136697966D01*
X115591760Y-136699549D01*
X115589778Y-136699282D01*
X115589000Y-136697699D01*
X115589000Y-136222297D01*
X115590000Y-136220565D01*
X115592000Y-136220565D01*
X115592919Y-136221734D01*
G37*
G36*
X113090222Y-136220711D02*
G01*
X113091000Y-136222294D01*
X113091000Y-136697706D01*
X113090000Y-136699438D01*
X113088000Y-136699438D01*
X113087081Y-136698269D01*
X113067404Y-136631255D01*
X113015061Y-136585900D01*
X112946508Y-136576043D01*
X112883363Y-136604881D01*
X112864537Y-136626219D01*
X112862641Y-136626856D01*
X112861141Y-136625533D01*
X112861075Y-136624506D01*
X112864000Y-136609801D01*
X112864000Y-136310199D01*
X112860864Y-136294434D01*
X112861507Y-136292540D01*
X112863469Y-136292150D01*
X112864109Y-136292509D01*
X112914947Y-136334994D01*
X112983662Y-136343625D01*
X113046137Y-136313735D01*
X113082621Y-136254673D01*
X113087018Y-136222027D01*
X113088240Y-136220444D01*
X113090222Y-136220711D01*
G37*
G36*
X135437460Y-135741507D02*
G01*
X135437850Y-135743469D01*
X135437491Y-135744109D01*
X135395006Y-135794947D01*
X135386375Y-135863662D01*
X135416266Y-135926137D01*
X135475328Y-135962621D01*
X135507974Y-135967018D01*
X135509557Y-135968240D01*
X135509290Y-135970222D01*
X135507707Y-135971000D01*
X135032299Y-135971000D01*
X135030567Y-135970000D01*
X135030567Y-135968000D01*
X135031735Y-135967081D01*
X135098750Y-135947401D01*
X135144103Y-135895057D01*
X135153957Y-135826503D01*
X135125117Y-135763359D01*
X135103781Y-135744537D01*
X135103144Y-135742641D01*
X135104467Y-135741141D01*
X135105494Y-135741075D01*
X135120199Y-135744000D01*
X135419801Y-135744000D01*
X135435566Y-135740864D01*
X135437460Y-135741507D01*
G37*
G36*
X134437459Y-135741507D02*
G01*
X134437849Y-135743469D01*
X134437490Y-135744108D01*
X134395004Y-135794948D01*
X134386374Y-135863666D01*
X134416266Y-135926140D01*
X134475329Y-135962623D01*
X134507966Y-135967018D01*
X134509549Y-135968240D01*
X134509282Y-135970222D01*
X134507699Y-135971000D01*
X134032297Y-135971000D01*
X134030565Y-135970000D01*
X134030565Y-135968000D01*
X134031734Y-135967081D01*
X134098746Y-135947405D01*
X134144101Y-135895062D01*
X134153958Y-135826509D01*
X134125120Y-135763364D01*
X134103781Y-135744537D01*
X134103144Y-135742641D01*
X134104467Y-135741141D01*
X134105494Y-135741075D01*
X134120199Y-135744000D01*
X134419801Y-135744000D01*
X134435565Y-135740864D01*
X134437459Y-135741507D01*
G37*
G36*
X135937460Y-135741507D02*
G01*
X135937850Y-135743469D01*
X135937491Y-135744109D01*
X135895006Y-135794947D01*
X135886375Y-135863662D01*
X135916265Y-135926137D01*
X135975327Y-135962621D01*
X136007974Y-135967018D01*
X136009557Y-135968240D01*
X136009290Y-135970222D01*
X136007707Y-135971000D01*
X135532293Y-135971000D01*
X135530561Y-135970000D01*
X135530561Y-135968000D01*
X135531730Y-135967081D01*
X135598745Y-135947404D01*
X135644100Y-135895061D01*
X135653957Y-135826508D01*
X135625119Y-135763363D01*
X135603781Y-135744537D01*
X135603144Y-135742641D01*
X135604467Y-135741141D01*
X135605494Y-135741075D01*
X135620199Y-135744000D01*
X135919801Y-135744000D01*
X135935566Y-135740864D01*
X135937460Y-135741507D01*
G37*
G36*
X153567459Y-135741507D02*
G01*
X153567849Y-135743469D01*
X153567490Y-135744108D01*
X153525004Y-135794948D01*
X153516374Y-135863666D01*
X153546266Y-135926140D01*
X153605329Y-135962623D01*
X153637966Y-135967018D01*
X153639549Y-135968240D01*
X153639282Y-135970222D01*
X153637699Y-135971000D01*
X153162297Y-135971000D01*
X153160565Y-135970000D01*
X153160565Y-135968000D01*
X153161734Y-135967081D01*
X153228746Y-135947405D01*
X153274101Y-135895062D01*
X153283958Y-135826509D01*
X153255120Y-135763364D01*
X153233781Y-135744537D01*
X153233144Y-135742641D01*
X153234467Y-135741141D01*
X153235494Y-135741075D01*
X153250199Y-135744000D01*
X153549801Y-135744000D01*
X153565565Y-135740864D01*
X153567459Y-135741507D01*
G37*
G36*
X154067459Y-135741507D02*
G01*
X154067849Y-135743469D01*
X154067490Y-135744108D01*
X154025004Y-135794948D01*
X154016374Y-135863666D01*
X154046266Y-135926140D01*
X154105329Y-135962623D01*
X154137971Y-135967018D01*
X154139554Y-135968240D01*
X154139287Y-135970222D01*
X154137704Y-135971000D01*
X153662297Y-135971000D01*
X153660565Y-135970000D01*
X153660565Y-135968000D01*
X153661734Y-135967081D01*
X153728746Y-135947405D01*
X153774101Y-135895062D01*
X153783958Y-135826509D01*
X153755120Y-135763364D01*
X153733781Y-135744537D01*
X153733144Y-135742641D01*
X153734467Y-135741141D01*
X153735494Y-135741075D01*
X153750199Y-135744000D01*
X154049801Y-135744000D01*
X154065565Y-135740864D01*
X154067459Y-135741507D01*
G37*
G36*
X134937459Y-135741507D02*
G01*
X134937849Y-135743469D01*
X134937490Y-135744108D01*
X134895004Y-135794948D01*
X134886374Y-135863666D01*
X134916266Y-135926140D01*
X134975329Y-135962623D01*
X135007971Y-135967018D01*
X135009554Y-135968240D01*
X135009287Y-135970222D01*
X135007704Y-135971000D01*
X134532297Y-135971000D01*
X134530565Y-135970000D01*
X134530565Y-135968000D01*
X134531734Y-135967081D01*
X134598746Y-135947405D01*
X134644101Y-135895062D01*
X134653958Y-135826509D01*
X134625120Y-135763364D01*
X134603781Y-135744537D01*
X134603144Y-135742641D01*
X134604467Y-135741141D01*
X134605494Y-135741075D01*
X134620199Y-135744000D01*
X134919801Y-135744000D01*
X134935565Y-135740864D01*
X134937459Y-135741507D01*
G37*
G36*
X154567460Y-135741507D02*
G01*
X154567850Y-135743469D01*
X154567491Y-135744109D01*
X154525006Y-135794947D01*
X154516375Y-135863662D01*
X154546266Y-135926137D01*
X154605328Y-135962621D01*
X154637974Y-135967018D01*
X154639557Y-135968240D01*
X154639290Y-135970222D01*
X154637707Y-135971000D01*
X154162299Y-135971000D01*
X154160567Y-135970000D01*
X154160567Y-135968000D01*
X154161735Y-135967081D01*
X154228750Y-135947401D01*
X154274103Y-135895057D01*
X154283957Y-135826503D01*
X154255117Y-135763359D01*
X154233781Y-135744537D01*
X154233144Y-135742641D01*
X154234467Y-135741141D01*
X154235494Y-135741075D01*
X154250199Y-135744000D01*
X154549801Y-135744000D01*
X154565566Y-135740864D01*
X154567460Y-135741507D01*
G37*
G36*
X155067460Y-135741507D02*
G01*
X155067850Y-135743469D01*
X155067491Y-135744109D01*
X155025006Y-135794947D01*
X155016375Y-135863662D01*
X155046265Y-135926137D01*
X155105327Y-135962621D01*
X155137974Y-135967018D01*
X155139557Y-135968240D01*
X155139290Y-135970222D01*
X155137707Y-135971000D01*
X154662293Y-135971000D01*
X154660561Y-135970000D01*
X154660561Y-135968000D01*
X154661730Y-135967081D01*
X154728745Y-135947404D01*
X154774100Y-135895061D01*
X154783957Y-135826508D01*
X154755119Y-135763363D01*
X154733781Y-135744537D01*
X154733144Y-135742641D01*
X154734467Y-135741141D01*
X154735494Y-135741075D01*
X154750199Y-135744000D01*
X155049801Y-135744000D01*
X155065566Y-135740864D01*
X155067460Y-135741507D01*
G37*
G36*
X114757460Y-135731507D02*
G01*
X114757850Y-135733469D01*
X114757491Y-135734109D01*
X114715006Y-135784947D01*
X114706375Y-135853662D01*
X114736266Y-135916137D01*
X114795328Y-135952621D01*
X114827974Y-135957018D01*
X114829557Y-135958240D01*
X114829290Y-135960222D01*
X114827707Y-135961000D01*
X114352299Y-135961000D01*
X114350567Y-135960000D01*
X114350567Y-135958000D01*
X114351735Y-135957081D01*
X114418750Y-135937401D01*
X114464103Y-135885057D01*
X114473957Y-135816503D01*
X114445117Y-135753359D01*
X114423781Y-135734537D01*
X114423144Y-135732641D01*
X114424467Y-135731141D01*
X114425494Y-135731075D01*
X114440199Y-135734000D01*
X114739801Y-135734000D01*
X114755566Y-135730864D01*
X114757460Y-135731507D01*
G37*
G36*
X115257460Y-135731507D02*
G01*
X115257850Y-135733469D01*
X115257491Y-135734109D01*
X115215006Y-135784947D01*
X115206375Y-135853662D01*
X115236265Y-135916137D01*
X115295327Y-135952621D01*
X115327974Y-135957018D01*
X115329557Y-135958240D01*
X115329290Y-135960222D01*
X115327707Y-135961000D01*
X114852293Y-135961000D01*
X114850561Y-135960000D01*
X114850561Y-135958000D01*
X114851730Y-135957081D01*
X114918745Y-135937404D01*
X114964100Y-135885061D01*
X114973957Y-135816508D01*
X114945119Y-135753363D01*
X114923781Y-135734537D01*
X114923144Y-135732641D01*
X114924467Y-135731141D01*
X114925494Y-135731075D01*
X114940199Y-135734000D01*
X115239801Y-135734000D01*
X115255566Y-135730864D01*
X115257460Y-135731507D01*
G37*
G36*
X113757459Y-135731507D02*
G01*
X113757849Y-135733469D01*
X113757490Y-135734108D01*
X113715004Y-135784948D01*
X113706374Y-135853666D01*
X113736266Y-135916140D01*
X113795329Y-135952623D01*
X113827966Y-135957018D01*
X113829549Y-135958240D01*
X113829282Y-135960222D01*
X113827699Y-135961000D01*
X113352297Y-135961000D01*
X113350565Y-135960000D01*
X113350565Y-135958000D01*
X113351734Y-135957081D01*
X113418746Y-135937405D01*
X113464101Y-135885062D01*
X113473958Y-135816509D01*
X113445120Y-135753364D01*
X113423781Y-135734537D01*
X113423144Y-135732641D01*
X113424467Y-135731141D01*
X113425494Y-135731075D01*
X113440199Y-135734000D01*
X113739801Y-135734000D01*
X113755565Y-135730864D01*
X113757459Y-135731507D01*
G37*
G36*
X114257459Y-135731507D02*
G01*
X114257849Y-135733469D01*
X114257490Y-135734108D01*
X114215004Y-135784948D01*
X114206374Y-135853666D01*
X114236266Y-135916140D01*
X114295329Y-135952623D01*
X114327971Y-135957018D01*
X114329554Y-135958240D01*
X114329287Y-135960222D01*
X114327704Y-135961000D01*
X113852297Y-135961000D01*
X113850565Y-135960000D01*
X113850565Y-135958000D01*
X113851734Y-135957081D01*
X113918746Y-135937405D01*
X113964101Y-135885062D01*
X113973958Y-135816509D01*
X113945120Y-135753364D01*
X113923781Y-135734537D01*
X113923144Y-135732641D01*
X113924467Y-135731141D01*
X113925494Y-135731075D01*
X113940199Y-135734000D01*
X114239801Y-135734000D01*
X114255565Y-135730864D01*
X114257459Y-135731507D01*
G37*
G36*
X135084633Y-134808517D02*
G01*
X135085197Y-134810436D01*
X135084916Y-134811075D01*
X135074767Y-134826263D01*
X135071000Y-134845199D01*
X135071000Y-135694801D01*
X135074767Y-135713738D01*
X135084812Y-135728771D01*
X135084943Y-135730767D01*
X135083280Y-135731878D01*
X135082551Y-135731791D01*
X135022208Y-135712898D01*
X134957311Y-135731956D01*
X134955367Y-135731485D01*
X134954803Y-135729566D01*
X134955084Y-135728926D01*
X134965233Y-135713738D01*
X134969000Y-135694801D01*
X134969000Y-134845199D01*
X134965233Y-134826262D01*
X134955186Y-134811227D01*
X134955055Y-134809232D01*
X134956718Y-134808120D01*
X134957447Y-134808207D01*
X135017788Y-134827102D01*
X135082690Y-134808045D01*
X135084633Y-134808517D01*
G37*
G36*
X154214633Y-134808517D02*
G01*
X154215197Y-134810436D01*
X154214916Y-134811075D01*
X154204767Y-134826263D01*
X154201000Y-134845199D01*
X154201000Y-135694801D01*
X154204767Y-135713738D01*
X154214812Y-135728771D01*
X154214943Y-135730767D01*
X154213280Y-135731878D01*
X154212551Y-135731791D01*
X154152208Y-135712898D01*
X154087311Y-135731956D01*
X154085367Y-135731485D01*
X154084803Y-135729566D01*
X154085084Y-135728926D01*
X154095233Y-135713738D01*
X154099000Y-135694801D01*
X154099000Y-134845199D01*
X154095233Y-134826262D01*
X154085186Y-134811227D01*
X154085055Y-134809232D01*
X154086718Y-134808120D01*
X154087447Y-134808207D01*
X154147788Y-134827102D01*
X154212690Y-134808045D01*
X154214633Y-134808517D01*
G37*
G36*
X134584633Y-134808517D02*
G01*
X134585197Y-134810436D01*
X134584916Y-134811075D01*
X134574767Y-134826263D01*
X134571000Y-134845199D01*
X134571000Y-135694801D01*
X134574767Y-135713738D01*
X134584814Y-135728773D01*
X134584945Y-135730768D01*
X134583282Y-135731880D01*
X134582553Y-135731793D01*
X134522214Y-135712898D01*
X134457310Y-135731956D01*
X134455367Y-135731484D01*
X134454803Y-135729565D01*
X134455084Y-135728926D01*
X134465233Y-135713738D01*
X134469000Y-135694801D01*
X134469000Y-134845199D01*
X134465233Y-134826262D01*
X134455186Y-134811227D01*
X134455055Y-134809232D01*
X134456718Y-134808120D01*
X134457447Y-134808207D01*
X134517788Y-134827102D01*
X134582690Y-134808045D01*
X134584633Y-134808517D01*
G37*
G36*
X153714633Y-134808517D02*
G01*
X153715197Y-134810436D01*
X153714916Y-134811075D01*
X153704767Y-134826263D01*
X153701000Y-134845199D01*
X153701000Y-135694801D01*
X153704767Y-135713738D01*
X153714814Y-135728773D01*
X153714945Y-135730768D01*
X153713282Y-135731880D01*
X153712553Y-135731793D01*
X153652214Y-135712898D01*
X153587310Y-135731956D01*
X153585367Y-135731484D01*
X153584803Y-135729565D01*
X153585084Y-135728926D01*
X153595233Y-135713738D01*
X153599000Y-135694801D01*
X153599000Y-134845199D01*
X153595233Y-134826262D01*
X153585186Y-134811227D01*
X153585055Y-134809232D01*
X153586718Y-134808120D01*
X153587447Y-134808207D01*
X153647788Y-134827102D01*
X153712690Y-134808045D01*
X153714633Y-134808517D01*
G37*
G36*
X154714633Y-134808517D02*
G01*
X154715197Y-134810436D01*
X154714916Y-134811075D01*
X154704767Y-134826263D01*
X154701000Y-134845199D01*
X154701000Y-135694801D01*
X154704767Y-135713738D01*
X154714813Y-135728772D01*
X154714944Y-135730768D01*
X154713281Y-135731879D01*
X154712552Y-135731792D01*
X154652212Y-135712898D01*
X154587311Y-135731954D01*
X154585368Y-135731482D01*
X154584804Y-135729563D01*
X154585085Y-135728924D01*
X154595233Y-135713738D01*
X154599000Y-135694801D01*
X154599000Y-134845199D01*
X154595233Y-134826262D01*
X154585186Y-134811227D01*
X154585055Y-134809232D01*
X154586718Y-134808120D01*
X154587447Y-134808207D01*
X154647788Y-134827102D01*
X154712690Y-134808045D01*
X154714633Y-134808517D01*
G37*
G36*
X135584633Y-134808517D02*
G01*
X135585197Y-134810436D01*
X135584916Y-134811075D01*
X135574767Y-134826263D01*
X135571000Y-134845199D01*
X135571000Y-135694801D01*
X135574767Y-135713738D01*
X135584813Y-135728772D01*
X135584944Y-135730768D01*
X135583281Y-135731879D01*
X135582552Y-135731792D01*
X135522212Y-135712898D01*
X135457311Y-135731954D01*
X135455368Y-135731482D01*
X135454804Y-135729563D01*
X135455085Y-135728924D01*
X135465233Y-135713738D01*
X135469000Y-135694801D01*
X135469000Y-134845199D01*
X135465233Y-134826262D01*
X135455186Y-134811227D01*
X135455055Y-134809232D01*
X135456718Y-134808120D01*
X135457447Y-134808207D01*
X135517788Y-134827102D01*
X135582690Y-134808045D01*
X135584633Y-134808517D01*
G37*
G36*
X114404633Y-134798517D02*
G01*
X114405197Y-134800436D01*
X114404916Y-134801075D01*
X114394767Y-134816263D01*
X114391000Y-134835199D01*
X114391000Y-135684801D01*
X114394767Y-135703738D01*
X114404812Y-135718771D01*
X114404943Y-135720767D01*
X114403280Y-135721878D01*
X114402551Y-135721791D01*
X114342208Y-135702898D01*
X114277311Y-135721956D01*
X114275367Y-135721485D01*
X114274803Y-135719566D01*
X114275084Y-135718926D01*
X114285233Y-135703738D01*
X114289000Y-135684801D01*
X114289000Y-134835199D01*
X114285233Y-134816262D01*
X114275186Y-134801227D01*
X114275055Y-134799232D01*
X114276718Y-134798120D01*
X114277447Y-134798207D01*
X114337788Y-134817102D01*
X114402690Y-134798045D01*
X114404633Y-134798517D01*
G37*
G36*
X113904633Y-134798517D02*
G01*
X113905197Y-134800436D01*
X113904916Y-134801075D01*
X113894767Y-134816263D01*
X113891000Y-134835199D01*
X113891000Y-135684801D01*
X113894767Y-135703738D01*
X113904814Y-135718773D01*
X113904945Y-135720768D01*
X113903282Y-135721880D01*
X113902553Y-135721793D01*
X113842214Y-135702898D01*
X113777310Y-135721956D01*
X113775367Y-135721484D01*
X113774803Y-135719565D01*
X113775084Y-135718926D01*
X113785233Y-135703738D01*
X113789000Y-135684801D01*
X113789000Y-134835199D01*
X113785233Y-134816262D01*
X113775186Y-134801227D01*
X113775055Y-134799232D01*
X113776718Y-134798120D01*
X113777447Y-134798207D01*
X113837788Y-134817102D01*
X113902690Y-134798045D01*
X113904633Y-134798517D01*
G37*
G36*
X114904633Y-134798517D02*
G01*
X114905197Y-134800436D01*
X114904916Y-134801075D01*
X114894767Y-134816263D01*
X114891000Y-134835199D01*
X114891000Y-135684801D01*
X114894767Y-135703738D01*
X114904813Y-135718772D01*
X114904944Y-135720768D01*
X114903281Y-135721879D01*
X114902552Y-135721792D01*
X114842212Y-135702898D01*
X114777311Y-135721954D01*
X114775368Y-135721482D01*
X114774804Y-135719563D01*
X114775085Y-135718924D01*
X114785233Y-135703738D01*
X114789000Y-135684801D01*
X114789000Y-134835199D01*
X114785233Y-134816262D01*
X114775186Y-134801227D01*
X114775055Y-134799232D01*
X114776718Y-134798120D01*
X114777447Y-134798207D01*
X114837788Y-134817102D01*
X114902690Y-134798045D01*
X114904633Y-134798517D01*
G37*
M02*
