G04 #@! TF.GenerationSoftware,KiCad,Pcbnew,(6.0.4-0)*
G04 #@! TF.CreationDate,2022-07-08T14:42:33+02:00*
G04 #@! TF.ProjectId,adapter_hybrid_assistor_hpc_3HDMI,61646170-7465-4725-9f68-79627269645f,rev?*
G04 #@! TF.SameCoordinates,Original*
G04 #@! TF.FileFunction,Other,User*
%FSLAX46Y46*%
G04 Gerber Fmt 4.6, Leading zero omitted, Abs format (unit mm)*
G04 Created by KiCad (PCBNEW (6.0.4-0)) date 2022-07-08 14:42:33*
%MOMM*%
%LPD*%
G01*
G04 APERTURE LIST*
%ADD10C,0.050000*%
%ADD11C,0.001000*%
%ADD12C,0.100000*%
G04 APERTURE END LIST*
D10*
X117990000Y-139830000D02*
X119490000Y-139830000D01*
D11*
X118265000Y-139155000D02*
X119215000Y-139155000D01*
X118265000Y-137405000D02*
X118265000Y-139155000D01*
D10*
X117990000Y-136730000D02*
X117990000Y-139830000D01*
D11*
X119215000Y-139155000D02*
X119215000Y-137405000D01*
X119215000Y-137405000D02*
X118265000Y-137405000D01*
D10*
X119490000Y-139830000D02*
X119490000Y-136730000D01*
X119490000Y-136730000D02*
X117990000Y-136730000D01*
X157700000Y-139780000D02*
X159200000Y-139780000D01*
D11*
X158925000Y-137355000D02*
X157975000Y-137355000D01*
X158925000Y-139105000D02*
X158925000Y-137355000D01*
D10*
X157700000Y-136680000D02*
X157700000Y-139780000D01*
D11*
X157975000Y-139105000D02*
X158925000Y-139105000D01*
X157975000Y-137355000D02*
X157975000Y-139105000D01*
D10*
X159200000Y-136680000D02*
X157700000Y-136680000D01*
X159200000Y-139780000D02*
X159200000Y-136680000D01*
X167933000Y-116048000D02*
X167933000Y-100868000D01*
X167933000Y-116048000D02*
X101053000Y-116048000D01*
X101053000Y-100868000D02*
X167933000Y-100868000D01*
X101053000Y-100868000D02*
X101053000Y-116048000D01*
D12*
X103842000Y-176500000D02*
X103842000Y-163300000D01*
X123538000Y-163300000D02*
X123538000Y-176500000D01*
X123538000Y-176500000D02*
X103842000Y-176500000D01*
X103842000Y-163300000D02*
X123538000Y-163300000D01*
D10*
X111715000Y-134585000D02*
X116965000Y-134585000D01*
X116965000Y-134585000D02*
X116965000Y-139835000D01*
X116965000Y-139835000D02*
X111715000Y-139835000D01*
X111715000Y-139835000D02*
X111715000Y-134585000D01*
X156775000Y-134595000D02*
X156775000Y-139845000D01*
X151525000Y-134595000D02*
X156775000Y-134595000D01*
X151525000Y-139845000D02*
X151525000Y-134595000D01*
X156775000Y-139845000D02*
X151525000Y-139845000D01*
X137645000Y-134595000D02*
X137645000Y-139845000D01*
X137645000Y-139845000D02*
X132395000Y-139845000D01*
X132395000Y-134595000D02*
X137645000Y-134595000D01*
X132395000Y-139845000D02*
X132395000Y-134595000D01*
D11*
X139355000Y-139105000D02*
X140305000Y-139105000D01*
D10*
X139080000Y-139780000D02*
X140580000Y-139780000D01*
X139080000Y-136680000D02*
X139080000Y-139780000D01*
D11*
X140305000Y-139105000D02*
X140305000Y-137355000D01*
X140305000Y-137355000D02*
X139355000Y-137355000D01*
D10*
X140580000Y-139780000D02*
X140580000Y-136680000D01*
D11*
X139355000Y-137355000D02*
X139355000Y-139105000D01*
D10*
X140580000Y-136680000D02*
X139080000Y-136680000D01*
D12*
X145022000Y-163310000D02*
X164718000Y-163310000D01*
X145022000Y-176510000D02*
X145022000Y-163310000D01*
X164718000Y-163310000D02*
X164718000Y-176510000D01*
X164718000Y-176510000D02*
X145022000Y-176510000D01*
X144168000Y-163300000D02*
X144168000Y-176500000D01*
X124472000Y-163300000D02*
X144168000Y-163300000D01*
X144168000Y-176500000D02*
X124472000Y-176500000D01*
X124472000Y-176500000D02*
X124472000Y-163300000D01*
M02*
