G04 #@! TF.GenerationSoftware,KiCad,Pcbnew,(6.0.4-0)*
G04 #@! TF.CreationDate,2022-07-08T14:42:32+02:00*
G04 #@! TF.ProjectId,adapter_hybrid_assistor_hpc_3HDMI,61646170-7465-4725-9f68-79627269645f,rev?*
G04 #@! TF.SameCoordinates,Original*
G04 #@! TF.FileFunction,Legend,Top*
G04 #@! TF.FilePolarity,Positive*
%FSLAX46Y46*%
G04 Gerber Fmt 4.6, Leading zero omitted, Abs format (unit mm)*
G04 Created by KiCad (PCBNEW (6.0.4-0)) date 2022-07-08 14:42:32*
%MOMM*%
%LPD*%
G01*
G04 APERTURE LIST*
%ADD10C,0.254000*%
%ADD11C,0.150000*%
%ADD12C,0.330000*%
%ADD13C,0.120000*%
%ADD14C,0.300000*%
%ADD15C,0.250000*%
G04 APERTURE END LIST*
D10*
X119343571Y-142861666D02*
X119404047Y-142922142D01*
X119464523Y-143103571D01*
X119464523Y-143224523D01*
X119404047Y-143405952D01*
X119283095Y-143526904D01*
X119162142Y-143587380D01*
X118920238Y-143647857D01*
X118738809Y-143647857D01*
X118496904Y-143587380D01*
X118375952Y-143526904D01*
X118255000Y-143405952D01*
X118194523Y-143224523D01*
X118194523Y-143103571D01*
X118255000Y-142922142D01*
X118315476Y-142861666D01*
X118617857Y-141773095D02*
X119464523Y-141773095D01*
X118134047Y-142075476D02*
X119041190Y-142377857D01*
X119041190Y-141591666D01*
X158893571Y-142751666D02*
X158954047Y-142812142D01*
X159014523Y-142993571D01*
X159014523Y-143114523D01*
X158954047Y-143295952D01*
X158833095Y-143416904D01*
X158712142Y-143477380D01*
X158470238Y-143537857D01*
X158288809Y-143537857D01*
X158046904Y-143477380D01*
X157925952Y-143416904D01*
X157805000Y-143295952D01*
X157744523Y-143114523D01*
X157744523Y-142993571D01*
X157805000Y-142812142D01*
X157865476Y-142751666D01*
X158288809Y-142025952D02*
X158228333Y-142146904D01*
X158167857Y-142207380D01*
X158046904Y-142267857D01*
X157986428Y-142267857D01*
X157865476Y-142207380D01*
X157805000Y-142146904D01*
X157744523Y-142025952D01*
X157744523Y-141784047D01*
X157805000Y-141663095D01*
X157865476Y-141602619D01*
X157986428Y-141542142D01*
X158046904Y-141542142D01*
X158167857Y-141602619D01*
X158228333Y-141663095D01*
X158288809Y-141784047D01*
X158288809Y-142025952D01*
X158349285Y-142146904D01*
X158409761Y-142207380D01*
X158530714Y-142267857D01*
X158772619Y-142267857D01*
X158893571Y-142207380D01*
X158954047Y-142146904D01*
X159014523Y-142025952D01*
X159014523Y-141784047D01*
X158954047Y-141663095D01*
X158893571Y-141602619D01*
X158772619Y-141542142D01*
X158530714Y-141542142D01*
X158409761Y-141602619D01*
X158349285Y-141663095D01*
X158288809Y-141784047D01*
D11*
X161356666Y-116672380D02*
X161356666Y-117386666D01*
X161309047Y-117529523D01*
X161213809Y-117624761D01*
X161070952Y-117672380D01*
X160975714Y-117672380D01*
X162356666Y-117672380D02*
X161785238Y-117672380D01*
X162070952Y-117672380D02*
X162070952Y-116672380D01*
X161975714Y-116815238D01*
X161880476Y-116910476D01*
X161785238Y-116958095D01*
D10*
X113266666Y-169204523D02*
X113266666Y-170111666D01*
X113206190Y-170293095D01*
X113085238Y-170414047D01*
X112903809Y-170474523D01*
X112782857Y-170474523D01*
X113750476Y-169204523D02*
X114536666Y-169204523D01*
X114113333Y-169688333D01*
X114294761Y-169688333D01*
X114415714Y-169748809D01*
X114476190Y-169809285D01*
X114536666Y-169930238D01*
X114536666Y-170232619D01*
X114476190Y-170353571D01*
X114415714Y-170414047D01*
X114294761Y-170474523D01*
X113931904Y-170474523D01*
X113810952Y-170414047D01*
X113750476Y-170353571D01*
X108714523Y-138197619D02*
X109742619Y-138197619D01*
X109863571Y-138137142D01*
X109924047Y-138076666D01*
X109984523Y-137955714D01*
X109984523Y-137713809D01*
X109924047Y-137592857D01*
X109863571Y-137532380D01*
X109742619Y-137471904D01*
X108714523Y-137471904D01*
X109137857Y-136322857D02*
X109984523Y-136322857D01*
X108654047Y-136625238D02*
X109561190Y-136927619D01*
X109561190Y-136141428D01*
X107994523Y-144425000D02*
X106724523Y-144425000D01*
X106724523Y-144122619D01*
X106785000Y-143941190D01*
X106905952Y-143820238D01*
X107026904Y-143759761D01*
X107268809Y-143699285D01*
X107450238Y-143699285D01*
X107692142Y-143759761D01*
X107813095Y-143820238D01*
X107934047Y-143941190D01*
X107994523Y-144122619D01*
X107994523Y-144425000D01*
X107934047Y-143215476D02*
X107994523Y-143034047D01*
X107994523Y-142731666D01*
X107934047Y-142610714D01*
X107873571Y-142550238D01*
X107752619Y-142489761D01*
X107631666Y-142489761D01*
X107510714Y-142550238D01*
X107450238Y-142610714D01*
X107389761Y-142731666D01*
X107329285Y-142973571D01*
X107268809Y-143094523D01*
X107208333Y-143155000D01*
X107087380Y-143215476D01*
X106966428Y-143215476D01*
X106845476Y-143155000D01*
X106785000Y-143094523D01*
X106724523Y-142973571D01*
X106724523Y-142671190D01*
X106785000Y-142489761D01*
X106845476Y-142005952D02*
X106785000Y-141945476D01*
X106724523Y-141824523D01*
X106724523Y-141522142D01*
X106785000Y-141401190D01*
X106845476Y-141340714D01*
X106966428Y-141280238D01*
X107087380Y-141280238D01*
X107268809Y-141340714D01*
X107994523Y-142066428D01*
X107994523Y-141280238D01*
X106724523Y-140131190D02*
X106724523Y-140735952D01*
X107329285Y-140796428D01*
X107268809Y-140735952D01*
X107208333Y-140615000D01*
X107208333Y-140312619D01*
X107268809Y-140191666D01*
X107329285Y-140131190D01*
X107450238Y-140070714D01*
X107752619Y-140070714D01*
X107873571Y-140131190D01*
X107934047Y-140191666D01*
X107994523Y-140312619D01*
X107994523Y-140615000D01*
X107934047Y-140735952D01*
X107873571Y-140796428D01*
X107873571Y-138800714D02*
X107934047Y-138861190D01*
X107994523Y-139042619D01*
X107994523Y-139163571D01*
X107934047Y-139345000D01*
X107813095Y-139465952D01*
X107692142Y-139526428D01*
X107450238Y-139586904D01*
X107268809Y-139586904D01*
X107026904Y-139526428D01*
X106905952Y-139465952D01*
X106785000Y-139345000D01*
X106724523Y-139163571D01*
X106724523Y-139042619D01*
X106785000Y-138861190D01*
X106845476Y-138800714D01*
X107994523Y-138256428D02*
X106724523Y-138256428D01*
X106724523Y-137772619D01*
X106785000Y-137651666D01*
X106845476Y-137591190D01*
X106966428Y-137530714D01*
X107147857Y-137530714D01*
X107268809Y-137591190D01*
X107329285Y-137651666D01*
X107389761Y-137772619D01*
X107389761Y-138256428D01*
X107994523Y-136321190D02*
X107994523Y-137046904D01*
X107994523Y-136684047D02*
X106724523Y-136684047D01*
X106905952Y-136805000D01*
X107026904Y-136925952D01*
X107087380Y-137046904D01*
X106724523Y-135535000D02*
X106724523Y-135414047D01*
X106785000Y-135293095D01*
X106845476Y-135232619D01*
X106966428Y-135172142D01*
X107208333Y-135111666D01*
X107510714Y-135111666D01*
X107752619Y-135172142D01*
X107873571Y-135232619D01*
X107934047Y-135293095D01*
X107994523Y-135414047D01*
X107994523Y-135535000D01*
X107934047Y-135655952D01*
X107873571Y-135716428D01*
X107752619Y-135776904D01*
X107510714Y-135837380D01*
X107208333Y-135837380D01*
X106966428Y-135776904D01*
X106845476Y-135716428D01*
X106785000Y-135655952D01*
X106724523Y-135535000D01*
X106845476Y-134627857D02*
X106785000Y-134567380D01*
X106724523Y-134446428D01*
X106724523Y-134144047D01*
X106785000Y-134023095D01*
X106845476Y-133962619D01*
X106966428Y-133902142D01*
X107087380Y-133902142D01*
X107268809Y-133962619D01*
X107994523Y-134688333D01*
X107994523Y-133902142D01*
X106724523Y-133539285D02*
X106724523Y-132813571D01*
X107994523Y-133176428D02*
X106724523Y-133176428D01*
X107934047Y-132450714D02*
X107994523Y-132269285D01*
X107994523Y-131966904D01*
X107934047Y-131845952D01*
X107873571Y-131785476D01*
X107752619Y-131725000D01*
X107631666Y-131725000D01*
X107510714Y-131785476D01*
X107450238Y-131845952D01*
X107389761Y-131966904D01*
X107329285Y-132208809D01*
X107268809Y-132329761D01*
X107208333Y-132390238D01*
X107087380Y-132450714D01*
X106966428Y-132450714D01*
X106845476Y-132390238D01*
X106785000Y-132329761D01*
X106724523Y-132208809D01*
X106724523Y-131906428D01*
X106785000Y-131725000D01*
X108115476Y-130334047D02*
X108055000Y-130455000D01*
X107934047Y-130575952D01*
X107752619Y-130757380D01*
X107692142Y-130878333D01*
X107692142Y-130999285D01*
X107994523Y-130938809D02*
X107934047Y-131059761D01*
X107813095Y-131180714D01*
X107571190Y-131241190D01*
X107147857Y-131241190D01*
X106905952Y-131180714D01*
X106785000Y-131059761D01*
X106724523Y-130938809D01*
X106724523Y-130696904D01*
X106785000Y-130575952D01*
X106905952Y-130455000D01*
X107147857Y-130394523D01*
X107571190Y-130394523D01*
X107813095Y-130455000D01*
X107934047Y-130575952D01*
X107994523Y-130696904D01*
X107994523Y-130938809D01*
X148754523Y-138247619D02*
X149782619Y-138247619D01*
X149903571Y-138187142D01*
X149964047Y-138126666D01*
X150024523Y-138005714D01*
X150024523Y-137763809D01*
X149964047Y-137642857D01*
X149903571Y-137582380D01*
X149782619Y-137521904D01*
X148754523Y-137521904D01*
X149298809Y-136735714D02*
X149238333Y-136856666D01*
X149177857Y-136917142D01*
X149056904Y-136977619D01*
X148996428Y-136977619D01*
X148875476Y-136917142D01*
X148815000Y-136856666D01*
X148754523Y-136735714D01*
X148754523Y-136493809D01*
X148815000Y-136372857D01*
X148875476Y-136312380D01*
X148996428Y-136251904D01*
X149056904Y-136251904D01*
X149177857Y-136312380D01*
X149238333Y-136372857D01*
X149298809Y-136493809D01*
X149298809Y-136735714D01*
X149359285Y-136856666D01*
X149419761Y-136917142D01*
X149540714Y-136977619D01*
X149782619Y-136977619D01*
X149903571Y-136917142D01*
X149964047Y-136856666D01*
X150024523Y-136735714D01*
X150024523Y-136493809D01*
X149964047Y-136372857D01*
X149903571Y-136312380D01*
X149782619Y-136251904D01*
X149540714Y-136251904D01*
X149419761Y-136312380D01*
X149359285Y-136372857D01*
X149298809Y-136493809D01*
X148154523Y-144115000D02*
X146884523Y-144115000D01*
X146884523Y-143812619D01*
X146945000Y-143631190D01*
X147065952Y-143510238D01*
X147186904Y-143449761D01*
X147428809Y-143389285D01*
X147610238Y-143389285D01*
X147852142Y-143449761D01*
X147973095Y-143510238D01*
X148094047Y-143631190D01*
X148154523Y-143812619D01*
X148154523Y-144115000D01*
X148094047Y-142905476D02*
X148154523Y-142724047D01*
X148154523Y-142421666D01*
X148094047Y-142300714D01*
X148033571Y-142240238D01*
X147912619Y-142179761D01*
X147791666Y-142179761D01*
X147670714Y-142240238D01*
X147610238Y-142300714D01*
X147549761Y-142421666D01*
X147489285Y-142663571D01*
X147428809Y-142784523D01*
X147368333Y-142845000D01*
X147247380Y-142905476D01*
X147126428Y-142905476D01*
X147005476Y-142845000D01*
X146945000Y-142784523D01*
X146884523Y-142663571D01*
X146884523Y-142361190D01*
X146945000Y-142179761D01*
X147005476Y-141695952D02*
X146945000Y-141635476D01*
X146884523Y-141514523D01*
X146884523Y-141212142D01*
X146945000Y-141091190D01*
X147005476Y-141030714D01*
X147126428Y-140970238D01*
X147247380Y-140970238D01*
X147428809Y-141030714D01*
X148154523Y-141756428D01*
X148154523Y-140970238D01*
X146884523Y-139821190D02*
X146884523Y-140425952D01*
X147489285Y-140486428D01*
X147428809Y-140425952D01*
X147368333Y-140305000D01*
X147368333Y-140002619D01*
X147428809Y-139881666D01*
X147489285Y-139821190D01*
X147610238Y-139760714D01*
X147912619Y-139760714D01*
X148033571Y-139821190D01*
X148094047Y-139881666D01*
X148154523Y-140002619D01*
X148154523Y-140305000D01*
X148094047Y-140425952D01*
X148033571Y-140486428D01*
X148033571Y-138490714D02*
X148094047Y-138551190D01*
X148154523Y-138732619D01*
X148154523Y-138853571D01*
X148094047Y-139035000D01*
X147973095Y-139155952D01*
X147852142Y-139216428D01*
X147610238Y-139276904D01*
X147428809Y-139276904D01*
X147186904Y-139216428D01*
X147065952Y-139155952D01*
X146945000Y-139035000D01*
X146884523Y-138853571D01*
X146884523Y-138732619D01*
X146945000Y-138551190D01*
X147005476Y-138490714D01*
X148154523Y-137946428D02*
X146884523Y-137946428D01*
X146884523Y-137462619D01*
X146945000Y-137341666D01*
X147005476Y-137281190D01*
X147126428Y-137220714D01*
X147307857Y-137220714D01*
X147428809Y-137281190D01*
X147489285Y-137341666D01*
X147549761Y-137462619D01*
X147549761Y-137946428D01*
X148154523Y-136011190D02*
X148154523Y-136736904D01*
X148154523Y-136374047D02*
X146884523Y-136374047D01*
X147065952Y-136495000D01*
X147186904Y-136615952D01*
X147247380Y-136736904D01*
X146884523Y-135225000D02*
X146884523Y-135104047D01*
X146945000Y-134983095D01*
X147005476Y-134922619D01*
X147126428Y-134862142D01*
X147368333Y-134801666D01*
X147670714Y-134801666D01*
X147912619Y-134862142D01*
X148033571Y-134922619D01*
X148094047Y-134983095D01*
X148154523Y-135104047D01*
X148154523Y-135225000D01*
X148094047Y-135345952D01*
X148033571Y-135406428D01*
X147912619Y-135466904D01*
X147670714Y-135527380D01*
X147368333Y-135527380D01*
X147126428Y-135466904D01*
X147005476Y-135406428D01*
X146945000Y-135345952D01*
X146884523Y-135225000D01*
X147005476Y-134317857D02*
X146945000Y-134257380D01*
X146884523Y-134136428D01*
X146884523Y-133834047D01*
X146945000Y-133713095D01*
X147005476Y-133652619D01*
X147126428Y-133592142D01*
X147247380Y-133592142D01*
X147428809Y-133652619D01*
X148154523Y-134378333D01*
X148154523Y-133592142D01*
X146884523Y-133229285D02*
X146884523Y-132503571D01*
X148154523Y-132866428D02*
X146884523Y-132866428D01*
X148094047Y-132140714D02*
X148154523Y-131959285D01*
X148154523Y-131656904D01*
X148094047Y-131535952D01*
X148033571Y-131475476D01*
X147912619Y-131415000D01*
X147791666Y-131415000D01*
X147670714Y-131475476D01*
X147610238Y-131535952D01*
X147549761Y-131656904D01*
X147489285Y-131898809D01*
X147428809Y-132019761D01*
X147368333Y-132080238D01*
X147247380Y-132140714D01*
X147126428Y-132140714D01*
X147005476Y-132080238D01*
X146945000Y-132019761D01*
X146884523Y-131898809D01*
X146884523Y-131596428D01*
X146945000Y-131415000D01*
X148275476Y-130024047D02*
X148215000Y-130145000D01*
X148094047Y-130265952D01*
X147912619Y-130447380D01*
X147852142Y-130568333D01*
X147852142Y-130689285D01*
X148154523Y-130628809D02*
X148094047Y-130749761D01*
X147973095Y-130870714D01*
X147731190Y-130931190D01*
X147307857Y-130931190D01*
X147065952Y-130870714D01*
X146945000Y-130749761D01*
X146884523Y-130628809D01*
X146884523Y-130386904D01*
X146945000Y-130265952D01*
X147065952Y-130145000D01*
X147307857Y-130084523D01*
X147731190Y-130084523D01*
X147973095Y-130145000D01*
X148094047Y-130265952D01*
X148154523Y-130386904D01*
X148154523Y-130628809D01*
X129544523Y-138297619D02*
X130572619Y-138297619D01*
X130693571Y-138237142D01*
X130754047Y-138176666D01*
X130814523Y-138055714D01*
X130814523Y-137813809D01*
X130754047Y-137692857D01*
X130693571Y-137632380D01*
X130572619Y-137571904D01*
X129544523Y-137571904D01*
X129544523Y-136422857D02*
X129544523Y-136664761D01*
X129605000Y-136785714D01*
X129665476Y-136846190D01*
X129846904Y-136967142D01*
X130088809Y-137027619D01*
X130572619Y-137027619D01*
X130693571Y-136967142D01*
X130754047Y-136906666D01*
X130814523Y-136785714D01*
X130814523Y-136543809D01*
X130754047Y-136422857D01*
X130693571Y-136362380D01*
X130572619Y-136301904D01*
X130270238Y-136301904D01*
X130149285Y-136362380D01*
X130088809Y-136422857D01*
X130028333Y-136543809D01*
X130028333Y-136785714D01*
X130088809Y-136906666D01*
X130149285Y-136967142D01*
X130270238Y-137027619D01*
X128864523Y-144295000D02*
X127594523Y-144295000D01*
X127594523Y-143992619D01*
X127655000Y-143811190D01*
X127775952Y-143690238D01*
X127896904Y-143629761D01*
X128138809Y-143569285D01*
X128320238Y-143569285D01*
X128562142Y-143629761D01*
X128683095Y-143690238D01*
X128804047Y-143811190D01*
X128864523Y-143992619D01*
X128864523Y-144295000D01*
X128804047Y-143085476D02*
X128864523Y-142904047D01*
X128864523Y-142601666D01*
X128804047Y-142480714D01*
X128743571Y-142420238D01*
X128622619Y-142359761D01*
X128501666Y-142359761D01*
X128380714Y-142420238D01*
X128320238Y-142480714D01*
X128259761Y-142601666D01*
X128199285Y-142843571D01*
X128138809Y-142964523D01*
X128078333Y-143025000D01*
X127957380Y-143085476D01*
X127836428Y-143085476D01*
X127715476Y-143025000D01*
X127655000Y-142964523D01*
X127594523Y-142843571D01*
X127594523Y-142541190D01*
X127655000Y-142359761D01*
X127715476Y-141875952D02*
X127655000Y-141815476D01*
X127594523Y-141694523D01*
X127594523Y-141392142D01*
X127655000Y-141271190D01*
X127715476Y-141210714D01*
X127836428Y-141150238D01*
X127957380Y-141150238D01*
X128138809Y-141210714D01*
X128864523Y-141936428D01*
X128864523Y-141150238D01*
X127594523Y-140001190D02*
X127594523Y-140605952D01*
X128199285Y-140666428D01*
X128138809Y-140605952D01*
X128078333Y-140485000D01*
X128078333Y-140182619D01*
X128138809Y-140061666D01*
X128199285Y-140001190D01*
X128320238Y-139940714D01*
X128622619Y-139940714D01*
X128743571Y-140001190D01*
X128804047Y-140061666D01*
X128864523Y-140182619D01*
X128864523Y-140485000D01*
X128804047Y-140605952D01*
X128743571Y-140666428D01*
X128743571Y-138670714D02*
X128804047Y-138731190D01*
X128864523Y-138912619D01*
X128864523Y-139033571D01*
X128804047Y-139215000D01*
X128683095Y-139335952D01*
X128562142Y-139396428D01*
X128320238Y-139456904D01*
X128138809Y-139456904D01*
X127896904Y-139396428D01*
X127775952Y-139335952D01*
X127655000Y-139215000D01*
X127594523Y-139033571D01*
X127594523Y-138912619D01*
X127655000Y-138731190D01*
X127715476Y-138670714D01*
X128864523Y-138126428D02*
X127594523Y-138126428D01*
X127594523Y-137642619D01*
X127655000Y-137521666D01*
X127715476Y-137461190D01*
X127836428Y-137400714D01*
X128017857Y-137400714D01*
X128138809Y-137461190D01*
X128199285Y-137521666D01*
X128259761Y-137642619D01*
X128259761Y-138126428D01*
X128864523Y-136191190D02*
X128864523Y-136916904D01*
X128864523Y-136554047D02*
X127594523Y-136554047D01*
X127775952Y-136675000D01*
X127896904Y-136795952D01*
X127957380Y-136916904D01*
X127594523Y-135405000D02*
X127594523Y-135284047D01*
X127655000Y-135163095D01*
X127715476Y-135102619D01*
X127836428Y-135042142D01*
X128078333Y-134981666D01*
X128380714Y-134981666D01*
X128622619Y-135042142D01*
X128743571Y-135102619D01*
X128804047Y-135163095D01*
X128864523Y-135284047D01*
X128864523Y-135405000D01*
X128804047Y-135525952D01*
X128743571Y-135586428D01*
X128622619Y-135646904D01*
X128380714Y-135707380D01*
X128078333Y-135707380D01*
X127836428Y-135646904D01*
X127715476Y-135586428D01*
X127655000Y-135525952D01*
X127594523Y-135405000D01*
X127715476Y-134497857D02*
X127655000Y-134437380D01*
X127594523Y-134316428D01*
X127594523Y-134014047D01*
X127655000Y-133893095D01*
X127715476Y-133832619D01*
X127836428Y-133772142D01*
X127957380Y-133772142D01*
X128138809Y-133832619D01*
X128864523Y-134558333D01*
X128864523Y-133772142D01*
X127594523Y-133409285D02*
X127594523Y-132683571D01*
X128864523Y-133046428D02*
X127594523Y-133046428D01*
X128804047Y-132320714D02*
X128864523Y-132139285D01*
X128864523Y-131836904D01*
X128804047Y-131715952D01*
X128743571Y-131655476D01*
X128622619Y-131595000D01*
X128501666Y-131595000D01*
X128380714Y-131655476D01*
X128320238Y-131715952D01*
X128259761Y-131836904D01*
X128199285Y-132078809D01*
X128138809Y-132199761D01*
X128078333Y-132260238D01*
X127957380Y-132320714D01*
X127836428Y-132320714D01*
X127715476Y-132260238D01*
X127655000Y-132199761D01*
X127594523Y-132078809D01*
X127594523Y-131776428D01*
X127655000Y-131595000D01*
X128985476Y-130204047D02*
X128925000Y-130325000D01*
X128804047Y-130445952D01*
X128622619Y-130627380D01*
X128562142Y-130748333D01*
X128562142Y-130869285D01*
X128864523Y-130808809D02*
X128804047Y-130929761D01*
X128683095Y-131050714D01*
X128441190Y-131111190D01*
X128017857Y-131111190D01*
X127775952Y-131050714D01*
X127655000Y-130929761D01*
X127594523Y-130808809D01*
X127594523Y-130566904D01*
X127655000Y-130445952D01*
X127775952Y-130325000D01*
X128017857Y-130264523D01*
X128441190Y-130264523D01*
X128683095Y-130325000D01*
X128804047Y-130445952D01*
X128864523Y-130566904D01*
X128864523Y-130808809D01*
X140263571Y-142781666D02*
X140324047Y-142842142D01*
X140384523Y-143023571D01*
X140384523Y-143144523D01*
X140324047Y-143325952D01*
X140203095Y-143446904D01*
X140082142Y-143507380D01*
X139840238Y-143567857D01*
X139658809Y-143567857D01*
X139416904Y-143507380D01*
X139295952Y-143446904D01*
X139175000Y-143325952D01*
X139114523Y-143144523D01*
X139114523Y-143023571D01*
X139175000Y-142842142D01*
X139235476Y-142781666D01*
X139114523Y-141693095D02*
X139114523Y-141935000D01*
X139175000Y-142055952D01*
X139235476Y-142116428D01*
X139416904Y-142237380D01*
X139658809Y-142297857D01*
X140142619Y-142297857D01*
X140263571Y-142237380D01*
X140324047Y-142176904D01*
X140384523Y-142055952D01*
X140384523Y-141814047D01*
X140324047Y-141693095D01*
X140263571Y-141632619D01*
X140142619Y-141572142D01*
X139840238Y-141572142D01*
X139719285Y-141632619D01*
X139658809Y-141693095D01*
X139598333Y-141814047D01*
X139598333Y-142055952D01*
X139658809Y-142176904D01*
X139719285Y-142237380D01*
X139840238Y-142297857D01*
X154446666Y-169214523D02*
X154446666Y-170121666D01*
X154386190Y-170303095D01*
X154265238Y-170424047D01*
X154083809Y-170484523D01*
X153962857Y-170484523D01*
X155656190Y-169214523D02*
X155051428Y-169214523D01*
X154990952Y-169819285D01*
X155051428Y-169758809D01*
X155172380Y-169698333D01*
X155474761Y-169698333D01*
X155595714Y-169758809D01*
X155656190Y-169819285D01*
X155716666Y-169940238D01*
X155716666Y-170242619D01*
X155656190Y-170363571D01*
X155595714Y-170424047D01*
X155474761Y-170484523D01*
X155172380Y-170484523D01*
X155051428Y-170424047D01*
X154990952Y-170363571D01*
X133896666Y-169204523D02*
X133896666Y-170111666D01*
X133836190Y-170293095D01*
X133715238Y-170414047D01*
X133533809Y-170474523D01*
X133412857Y-170474523D01*
X135045714Y-169627857D02*
X135045714Y-170474523D01*
X134743333Y-169144047D02*
X134440952Y-170051190D01*
X135227142Y-170051190D01*
D12*
X118780000Y-141050000D02*
G75*
G03*
X118780000Y-141050000I-100000J0D01*
G01*
X158490000Y-141000000D02*
G75*
G03*
X158490000Y-141000000I-100000J0D01*
G01*
D13*
X163103000Y-115908000D02*
X105883000Y-115908000D01*
X163393000Y-100718000D02*
X161493000Y-100718000D01*
X163393000Y-102618000D02*
X163393000Y-100718000D01*
X105883000Y-115908000D02*
X105883000Y-101008000D01*
X163103000Y-101008000D02*
X163103000Y-115908000D01*
X105883000Y-101008000D02*
X163103000Y-101008000D01*
D14*
X118339000Y-164400000D02*
X118339000Y-164400000D01*
X118339000Y-164300000D02*
X118339000Y-164300000D01*
X118339000Y-164400000D02*
G75*
G03*
X118339000Y-164300000I0J50000D01*
G01*
X118339000Y-164300000D02*
G75*
G03*
X118339000Y-164400000I0J-50000D01*
G01*
D15*
X115965000Y-134835000D02*
G75*
G03*
X115965000Y-134835000I-125000J0D01*
G01*
X155775000Y-134845000D02*
G75*
G03*
X155775000Y-134845000I-125000J0D01*
G01*
X136645000Y-134845000D02*
G75*
G03*
X136645000Y-134845000I-125000J0D01*
G01*
D12*
X139870000Y-141000000D02*
G75*
G03*
X139870000Y-141000000I-100000J0D01*
G01*
D14*
X159519000Y-164410000D02*
X159519000Y-164410000D01*
X159519000Y-164310000D02*
X159519000Y-164310000D01*
X159519000Y-164310000D02*
G75*
G03*
X159519000Y-164410000I0J-50000D01*
G01*
X159519000Y-164410000D02*
G75*
G03*
X159519000Y-164310000I0J50000D01*
G01*
X138969000Y-164400000D02*
X138969000Y-164400000D01*
X138969000Y-164300000D02*
X138969000Y-164300000D01*
X138969000Y-164400000D02*
G75*
G03*
X138969000Y-164300000I0J50000D01*
G01*
X138969000Y-164300000D02*
G75*
G03*
X138969000Y-164400000I0J-50000D01*
G01*
M02*
