G04 #@! TF.GenerationSoftware,KiCad,Pcbnew,(6.0.4-0)*
G04 #@! TF.CreationDate,2022-07-08T14:42:31+02:00*
G04 #@! TF.ProjectId,adapter_hybrid_assistor_hpc_3HDMI,61646170-7465-4725-9f68-79627269645f,rev?*
G04 #@! TF.SameCoordinates,Original*
G04 #@! TF.FileFunction,Copper,L1,Top*
G04 #@! TF.FilePolarity,Positive*
%FSLAX46Y46*%
G04 Gerber Fmt 4.6, Leading zero omitted, Abs format (unit mm)*
G04 Created by KiCad (PCBNEW (6.0.4-0)) date 2022-07-08 14:42:31*
%MOMM*%
%LPD*%
G01*
G04 APERTURE LIST*
G04 #@! TA.AperFunction,SMDPad,CuDef*
%ADD10R,1.000000X0.950000*%
G04 #@! TD*
G04 #@! TA.AperFunction,ComponentPad*
%ADD11C,4.000000*%
G04 #@! TD*
G04 #@! TA.AperFunction,SMDPad,CuDef*
%ADD12C,0.640000*%
G04 #@! TD*
G04 #@! TA.AperFunction,SMDPad,CuDef*
%ADD13R,0.300000X1.900000*%
G04 #@! TD*
G04 #@! TA.AperFunction,ComponentPad*
%ADD14C,1.995000*%
G04 #@! TD*
G04 #@! TA.AperFunction,SMDPad,CuDef*
%ADD15R,0.300000X0.850000*%
G04 #@! TD*
G04 #@! TA.AperFunction,SMDPad,CuDef*
%ADD16R,0.850000X0.300000*%
G04 #@! TD*
G04 #@! TA.AperFunction,SMDPad,CuDef*
%ADD17R,2.400000X2.400000*%
G04 #@! TD*
G04 #@! TA.AperFunction,ViaPad*
%ADD18C,0.800000*%
G04 #@! TD*
G04 #@! TA.AperFunction,Conductor*
%ADD19C,0.200000*%
G04 #@! TD*
G04 APERTURE END LIST*
D10*
X118740000Y-139080000D03*
X118740000Y-137480000D03*
X158450000Y-139030000D03*
X158450000Y-137430000D03*
D11*
X165683000Y-110458000D03*
D12*
X159263000Y-105288000D03*
X157993000Y-105288000D03*
X156723000Y-105288000D03*
X155443000Y-105288000D03*
X154173000Y-105288000D03*
X152903000Y-105288000D03*
X151633000Y-105288000D03*
X150373000Y-105288000D03*
X149103000Y-105288000D03*
X147833000Y-105288000D03*
X146553000Y-105288000D03*
X145283000Y-105288000D03*
X144023000Y-105288000D03*
X142753000Y-105288000D03*
X141483000Y-105288000D03*
X140203000Y-105288000D03*
X138943000Y-105288000D03*
X137663000Y-105288000D03*
X136403000Y-105288000D03*
X135133000Y-105288000D03*
X133853000Y-105288000D03*
X132583000Y-105288000D03*
X131323000Y-105288000D03*
X130043000Y-105288000D03*
X128783000Y-105288000D03*
X127503000Y-105288000D03*
X126233000Y-105288000D03*
X124963000Y-105288000D03*
X123703000Y-105288000D03*
X122433000Y-105288000D03*
X121153000Y-105288000D03*
X119883000Y-105288000D03*
X118613000Y-105288000D03*
X117353000Y-105288000D03*
X116083000Y-105288000D03*
X114813000Y-105288000D03*
X113543000Y-105288000D03*
X112263000Y-105288000D03*
X110993000Y-105288000D03*
X109723000Y-105288000D03*
X159263000Y-106548000D03*
X157993000Y-106548000D03*
X156723000Y-106548000D03*
X155443000Y-106548000D03*
X154173000Y-106548000D03*
X152903000Y-106548000D03*
X151633000Y-106548000D03*
X150373000Y-106548000D03*
X149103000Y-106548000D03*
X147833000Y-106548000D03*
X146553000Y-106548000D03*
X145283000Y-106548000D03*
X144023000Y-106548000D03*
X142753000Y-106548000D03*
X141483000Y-106548000D03*
X140203000Y-106548000D03*
X138943000Y-106548000D03*
X137663000Y-106548000D03*
X136403000Y-106548000D03*
X135133000Y-106548000D03*
X133873000Y-106548000D03*
X132583000Y-106548000D03*
X131323000Y-106548000D03*
X130043000Y-106548000D03*
X128783000Y-106548000D03*
X127503000Y-106548000D03*
X126233000Y-106548000D03*
X124963000Y-106548000D03*
X123703000Y-106548000D03*
X122433000Y-106548000D03*
X121153000Y-106548000D03*
X119883000Y-106548000D03*
X118613000Y-106548000D03*
X117353000Y-106548000D03*
X116083000Y-106548000D03*
X114813000Y-106548000D03*
X113543000Y-106548000D03*
X112263000Y-106548000D03*
X110993000Y-106548000D03*
X109723000Y-106548000D03*
X159263000Y-110368000D03*
X157993000Y-110368000D03*
X156723000Y-110368000D03*
X155443000Y-110368000D03*
X154173000Y-110368000D03*
X152903000Y-110368000D03*
X151633000Y-110368000D03*
X150373000Y-110368000D03*
X149103000Y-110368000D03*
X147833000Y-110368000D03*
X146553000Y-110368000D03*
X145283000Y-110368000D03*
X144023000Y-110368000D03*
X142753000Y-110368000D03*
X141483000Y-110368000D03*
X140203000Y-110368000D03*
X138943000Y-110368000D03*
X137663000Y-110368000D03*
X136403000Y-110368000D03*
X135133000Y-110368000D03*
X133853000Y-110368000D03*
X132583000Y-110368000D03*
X131323000Y-110368000D03*
X130043000Y-110368000D03*
X128783000Y-110368000D03*
X127503000Y-110368000D03*
X126233000Y-110368000D03*
X124963000Y-110368000D03*
X123703000Y-110368000D03*
X122433000Y-110368000D03*
X121153000Y-110368000D03*
X119883000Y-110368000D03*
X118613000Y-110368000D03*
X117353000Y-110368000D03*
X116083000Y-110368000D03*
X114813000Y-110368000D03*
X113543000Y-110368000D03*
X112263000Y-110368000D03*
X110993000Y-110368000D03*
X109723000Y-110368000D03*
D11*
X103303000Y-110458000D03*
D12*
X159263000Y-111628000D03*
X157993000Y-111628000D03*
X156723000Y-111628000D03*
X155443000Y-111628000D03*
X154173000Y-111628000D03*
X152903000Y-111628000D03*
X151633000Y-111628000D03*
X150373000Y-111628000D03*
X149103000Y-111628000D03*
X147833000Y-111628000D03*
X146553000Y-111628000D03*
X145283000Y-111628000D03*
X144023000Y-111628000D03*
X142753000Y-111628000D03*
X141483000Y-111628000D03*
X140203000Y-111628000D03*
X138943000Y-111628000D03*
X137663000Y-111628000D03*
X136403000Y-111628000D03*
X135133000Y-111628000D03*
X133873000Y-111628000D03*
X132583000Y-111628000D03*
X131323000Y-111628000D03*
X130043000Y-111628000D03*
X128783000Y-111628000D03*
X127503000Y-111628000D03*
X126233000Y-111628000D03*
X124963000Y-111628000D03*
X123703000Y-111628000D03*
X122433000Y-111628000D03*
X121153000Y-111628000D03*
X119883000Y-111628000D03*
X118613000Y-111628000D03*
X117353000Y-111628000D03*
X116083000Y-111628000D03*
X114813000Y-111628000D03*
X113543000Y-111628000D03*
X112263000Y-111628000D03*
X110993000Y-111628000D03*
X109723000Y-111628000D03*
D13*
X118189000Y-166050000D03*
X117689000Y-166050000D03*
X117189000Y-166050000D03*
X116689000Y-166050000D03*
X116189000Y-166050000D03*
X115689000Y-166050000D03*
X115189000Y-166050000D03*
X114689000Y-166050000D03*
X114189000Y-166050000D03*
X113689000Y-166050000D03*
X113189000Y-166050000D03*
X112689000Y-166050000D03*
X112189000Y-166050000D03*
X111689000Y-166050000D03*
X111189000Y-166050000D03*
X110689000Y-166050000D03*
X110189000Y-166050000D03*
X109689000Y-166050000D03*
X109189000Y-166050000D03*
D14*
X106189000Y-167050000D03*
X120689000Y-167050000D03*
X105589000Y-171950000D03*
X121289000Y-171950000D03*
D15*
X115090000Y-135260000D03*
X114590000Y-135260000D03*
X114090000Y-135260000D03*
X113590000Y-135260000D03*
D16*
X112390000Y-136460000D03*
X112390000Y-136960000D03*
X112390000Y-137460000D03*
X112390000Y-137960000D03*
D15*
X113590000Y-139160000D03*
X114090000Y-139160000D03*
X114590000Y-139160000D03*
X115090000Y-139160000D03*
D16*
X116290000Y-137960000D03*
X116290000Y-137460000D03*
X116290000Y-136960000D03*
X116290000Y-136460000D03*
D17*
X114340000Y-137210000D03*
D15*
X154900000Y-135270000D03*
X154400000Y-135270000D03*
X153900000Y-135270000D03*
X153400000Y-135270000D03*
D16*
X152200000Y-136470000D03*
X152200000Y-136970000D03*
X152200000Y-137470000D03*
X152200000Y-137970000D03*
D15*
X153400000Y-139170000D03*
X153900000Y-139170000D03*
X154400000Y-139170000D03*
X154900000Y-139170000D03*
D16*
X156100000Y-137970000D03*
X156100000Y-137470000D03*
X156100000Y-136970000D03*
X156100000Y-136470000D03*
D17*
X154150000Y-137220000D03*
D15*
X135770000Y-135270000D03*
X135270000Y-135270000D03*
X134770000Y-135270000D03*
X134270000Y-135270000D03*
D16*
X133070000Y-136470000D03*
X133070000Y-136970000D03*
X133070000Y-137470000D03*
X133070000Y-137970000D03*
D15*
X134270000Y-139170000D03*
X134770000Y-139170000D03*
X135270000Y-139170000D03*
X135770000Y-139170000D03*
D16*
X136970000Y-137970000D03*
X136970000Y-137470000D03*
X136970000Y-136970000D03*
X136970000Y-136470000D03*
D17*
X135020000Y-137220000D03*
D10*
X139830000Y-139030000D03*
X139830000Y-137430000D03*
D13*
X159369000Y-166060000D03*
X158869000Y-166060000D03*
X158369000Y-166060000D03*
X157869000Y-166060000D03*
X157369000Y-166060000D03*
X156869000Y-166060000D03*
X156369000Y-166060000D03*
X155869000Y-166060000D03*
X155369000Y-166060000D03*
X154869000Y-166060000D03*
X154369000Y-166060000D03*
X153869000Y-166060000D03*
X153369000Y-166060000D03*
X152869000Y-166060000D03*
X152369000Y-166060000D03*
X151869000Y-166060000D03*
X151369000Y-166060000D03*
X150869000Y-166060000D03*
X150369000Y-166060000D03*
D14*
X147369000Y-167060000D03*
X161869000Y-167060000D03*
X146769000Y-171960000D03*
X162469000Y-171960000D03*
D13*
X138819000Y-166050000D03*
X138319000Y-166050000D03*
X137819000Y-166050000D03*
X137319000Y-166050000D03*
X136819000Y-166050000D03*
X136319000Y-166050000D03*
X135819000Y-166050000D03*
X135319000Y-166050000D03*
X134819000Y-166050000D03*
X134319000Y-166050000D03*
X133819000Y-166050000D03*
X133319000Y-166050000D03*
X132819000Y-166050000D03*
X132319000Y-166050000D03*
X131819000Y-166050000D03*
X131319000Y-166050000D03*
X130819000Y-166050000D03*
X130319000Y-166050000D03*
X129819000Y-166050000D03*
D14*
X126819000Y-167050000D03*
X141319000Y-167050000D03*
X126219000Y-171950000D03*
X141919000Y-171950000D03*
D18*
X164120000Y-158870000D03*
X107030000Y-114310000D03*
X132370000Y-158974000D03*
X145510000Y-158974000D03*
X151170000Y-158974000D03*
X111580000Y-158974000D03*
X125146000Y-158974000D03*
X166040000Y-151100000D03*
X166040000Y-138400000D03*
X115550000Y-126570000D03*
X163090000Y-127880000D03*
X102540000Y-118080000D03*
X102540000Y-125700000D03*
X161090000Y-137530000D03*
X131670000Y-136470000D03*
X143800000Y-161460000D03*
X102540000Y-163800000D03*
X155150000Y-127090000D03*
X162680000Y-161630000D03*
X123490000Y-127360000D03*
X132330000Y-149630000D03*
X150790000Y-136470000D03*
X111540000Y-149560000D03*
X121320000Y-137550000D03*
X102540000Y-151100000D03*
X166040000Y-163800000D03*
X123220000Y-161420000D03*
X108509000Y-104110000D03*
X102540000Y-138400000D03*
X136200000Y-126570000D03*
X166040000Y-125700000D03*
X111020000Y-136490000D03*
X144140000Y-127360000D03*
X159182000Y-114087000D03*
X166040000Y-118080000D03*
X141970000Y-137530000D03*
X151110000Y-149620000D03*
X121290000Y-136500000D03*
X161280000Y-156720000D03*
X136230000Y-125040000D03*
X141940000Y-136480000D03*
X161790000Y-127630000D03*
X110280000Y-108530000D03*
X161060000Y-136480000D03*
X142330000Y-156690000D03*
X144140000Y-122970000D03*
X123490000Y-122970000D03*
X130960000Y-149630000D03*
X131660000Y-137960000D03*
X124750000Y-152650000D03*
X110170000Y-149560000D03*
X155180000Y-125560000D03*
X115580000Y-125040000D03*
X122190000Y-127110000D03*
X163090000Y-123490000D03*
X142840000Y-127110000D03*
X150780000Y-137960000D03*
X121770000Y-156500000D03*
X164000000Y-152760000D03*
X111010000Y-137980000D03*
X149640000Y-151090000D03*
X145540000Y-152720000D03*
X118190000Y-122610000D03*
X126230000Y-108800000D03*
X109830489Y-146399511D03*
X114810000Y-108810000D03*
X108689511Y-146410489D03*
X113540000Y-108810000D03*
X145280000Y-108800000D03*
X138840000Y-122610000D03*
X140020000Y-122620000D03*
X147830000Y-108800000D03*
X141180000Y-122630000D03*
X149100000Y-108800000D03*
X118610000Y-108800000D03*
X113720000Y-133740000D03*
X117350000Y-108800000D03*
X112590000Y-133750000D03*
X122440000Y-108800000D03*
X116060000Y-133740000D03*
X121150000Y-108800000D03*
X114900000Y-133750000D03*
X117060000Y-122600000D03*
X124960000Y-108800000D03*
X140210000Y-108800000D03*
X135550000Y-133730000D03*
X133240000Y-133730000D03*
X136400000Y-108800000D03*
X134370000Y-133720000D03*
X137670000Y-108800000D03*
X141480000Y-108800000D03*
X136710000Y-133720000D03*
X144030000Y-108800000D03*
X137710000Y-122600000D03*
X132590000Y-108800000D03*
X129479511Y-146480489D03*
X130620489Y-146469511D03*
X133860000Y-108800000D03*
X120530000Y-129010000D03*
X120530000Y-162460000D03*
X119370000Y-129020000D03*
X119370000Y-162460000D03*
X118190000Y-162460000D03*
X118190000Y-129010000D03*
X117060000Y-162470000D03*
X117060000Y-129020000D03*
X116120000Y-140720000D03*
X116120000Y-161450000D03*
X114960000Y-161450000D03*
X114960000Y-140730000D03*
X113780000Y-161450000D03*
X113780000Y-140720000D03*
X112650000Y-140730000D03*
X112650000Y-161460000D03*
X111190000Y-162450000D03*
X109260000Y-162450000D03*
X129910000Y-162490000D03*
X131840000Y-162490000D03*
X133300000Y-140710000D03*
X133300000Y-161500000D03*
X134430000Y-140700000D03*
X134430000Y-161490000D03*
X135610000Y-161490000D03*
X135610000Y-140710000D03*
X136770000Y-161490000D03*
X136770000Y-140700000D03*
X137710000Y-162510000D03*
X137710000Y-129020000D03*
X138840000Y-129010000D03*
X138840000Y-162500000D03*
X140020000Y-129020000D03*
X140020000Y-162500000D03*
X141180000Y-129010000D03*
X141180000Y-162500000D03*
X130040000Y-108800000D03*
X120530000Y-122630000D03*
X119370000Y-122620000D03*
X128780000Y-108800000D03*
X146990000Y-107610000D03*
X160130000Y-123150000D03*
X158970000Y-123140000D03*
X145880000Y-107610000D03*
X143140000Y-107610000D03*
X157790000Y-123130000D03*
X156660000Y-123120000D03*
X142080000Y-107610000D03*
X155830000Y-133720000D03*
X139370000Y-107610000D03*
X154670000Y-133730000D03*
X138300000Y-107610000D03*
X153490000Y-133720000D03*
X131780000Y-107610000D03*
X130750000Y-107610000D03*
X152360000Y-133730000D03*
X128160000Y-107390000D03*
X162950000Y-149910000D03*
X161500000Y-149880000D03*
X126970000Y-107610000D03*
X151640000Y-112640000D03*
X150370000Y-112640000D03*
X147830000Y-112640000D03*
X136400000Y-112640000D03*
X135130000Y-112640000D03*
X128780000Y-112640000D03*
X131320000Y-112640000D03*
X132590000Y-112640000D03*
X140210000Y-112640000D03*
X138940000Y-112640000D03*
X144020000Y-112640000D03*
X142750000Y-112640000D03*
X146560000Y-112640000D03*
X123700000Y-112640000D03*
X119890000Y-112640000D03*
X121160000Y-112640000D03*
X124970000Y-112640000D03*
X127510000Y-112640000D03*
X116080000Y-112640000D03*
X117350000Y-112640000D03*
X160130000Y-129530000D03*
X160160000Y-162440000D03*
X159000000Y-162440000D03*
X158970000Y-129540000D03*
X157790000Y-129530000D03*
X157820000Y-162440000D03*
X156660000Y-129540000D03*
X156690000Y-162450000D03*
X155750000Y-161430000D03*
X155890000Y-140700000D03*
X154590000Y-161430000D03*
X154730000Y-140710000D03*
X153410000Y-161430000D03*
X153550000Y-140700000D03*
X152280000Y-161440000D03*
X152420000Y-140710000D03*
X150820000Y-162430000D03*
X148890000Y-162430000D03*
D19*
X107051000Y-114310000D02*
X110993000Y-110368000D01*
X110983000Y-110368000D02*
X109723000Y-111628000D01*
X107030000Y-114310000D02*
X107051000Y-114310000D01*
X111242000Y-109347000D02*
X110744000Y-109347000D01*
X118613000Y-112367000D02*
X119585511Y-113339511D01*
X130063000Y-111628000D02*
X131323000Y-110368000D01*
X149113000Y-111628000D02*
X150373000Y-110368000D01*
X116987478Y-168047500D02*
X118642500Y-168047500D01*
X138842500Y-168047500D02*
X139607500Y-168047500D01*
X121250000Y-137480000D02*
X118740000Y-137480000D01*
X112055000Y-112690000D02*
X113751000Y-112690000D01*
X158287500Y-168057500D02*
X160157500Y-168057500D01*
X116093000Y-106548000D02*
X117353000Y-105288000D01*
X158869000Y-166060000D02*
X158869000Y-167259022D01*
X136659259Y-113370000D02*
X137663000Y-112366259D01*
X110987478Y-168047500D02*
X113987478Y-168047500D01*
X146431000Y-104140000D02*
X147955000Y-104140000D01*
X138923000Y-110368000D02*
X137663000Y-111628000D01*
X142748000Y-104013000D02*
X141478000Y-104013000D01*
X133070000Y-136470000D02*
X133070000Y-136970000D01*
X131617478Y-168047500D02*
X135017500Y-168047500D01*
X138636252Y-113339511D02*
X140520489Y-113339511D01*
X136707500Y-168047500D02*
X138842500Y-168047500D01*
X120904000Y-104267000D02*
X119883000Y-105288000D01*
X112390000Y-136460000D02*
X112390000Y-137460000D01*
X151369000Y-167259022D02*
X152167478Y-168057500D01*
X134617478Y-168047500D02*
X135017500Y-168047500D01*
X138319000Y-166050000D02*
X138319000Y-167249022D01*
X139607500Y-168047500D02*
X140321500Y-168047500D01*
X159263000Y-110368000D02*
X158115000Y-109220000D01*
X159263000Y-110368000D02*
X163408000Y-110368000D01*
X113189000Y-167249022D02*
X113987478Y-168047500D01*
X137663000Y-112366259D02*
X137663000Y-111628000D01*
X149103000Y-112362259D02*
X150080252Y-113339511D01*
X152200000Y-137470000D02*
X153900000Y-137470000D01*
X111020000Y-136490000D02*
X112360000Y-136490000D01*
X156703000Y-106548000D02*
X157993000Y-106548000D01*
X154369000Y-166060000D02*
X154369000Y-167259022D01*
X121449748Y-113339511D02*
X122433000Y-112356259D01*
X113751000Y-112690000D02*
X114813000Y-111628000D01*
X112390000Y-137460000D02*
X114090000Y-137460000D01*
X159905324Y-105288000D02*
X164353048Y-109735724D01*
X117353000Y-105288000D02*
X118613000Y-105288000D01*
X142445511Y-113339511D02*
X144309748Y-113339511D01*
X110189000Y-167249022D02*
X110987478Y-168047500D01*
X118220000Y-136960000D02*
X118740000Y-137480000D01*
X150373000Y-105288000D02*
X151633000Y-106548000D01*
X160990000Y-137430000D02*
X158450000Y-137430000D01*
X118487478Y-168047500D02*
X118642500Y-168047500D01*
X163408000Y-110368000D02*
X163627000Y-110587000D01*
X115487478Y-168047500D02*
X116987478Y-168047500D01*
X152200000Y-136470000D02*
X152200000Y-137470000D01*
X122443000Y-111628000D02*
X123703000Y-110368000D01*
X109723000Y-105288000D02*
X109403001Y-104968001D01*
X151633000Y-106548000D02*
X152903000Y-106548000D01*
X133873000Y-112346259D02*
X133873000Y-111628000D01*
X138319000Y-167249022D02*
X139117478Y-168047500D01*
X110744000Y-109347000D02*
X109723000Y-110368000D01*
X136970000Y-136970000D02*
X135270000Y-136970000D01*
X145283000Y-105288000D02*
X146431000Y-104140000D01*
X133873000Y-112372259D02*
X134870741Y-113370000D01*
X118613000Y-112367000D02*
X118613000Y-111628000D01*
X150373000Y-110368000D02*
X151361000Y-109380000D01*
X133070000Y-136970000D02*
X133070000Y-137470000D01*
X158167478Y-168057500D02*
X158287500Y-168057500D01*
X129080489Y-113339511D02*
X130043000Y-112377000D01*
X153185000Y-109380000D02*
X154173000Y-110368000D01*
X132879748Y-113339511D02*
X133873000Y-112346259D01*
X133819000Y-167249022D02*
X134617478Y-168047500D01*
X151361000Y-109380000D02*
X153185000Y-109380000D01*
X122433000Y-112356259D02*
X122433000Y-111628000D01*
X126233000Y-112377000D02*
X126233000Y-111628000D01*
X115790252Y-113339511D02*
X117640489Y-113339511D01*
X160157500Y-168057500D02*
X160871500Y-168057500D01*
X149103000Y-112356259D02*
X149103000Y-112362259D01*
X157369000Y-167259022D02*
X158167478Y-168057500D01*
X116290000Y-136960000D02*
X114590000Y-136960000D01*
X124963000Y-105288000D02*
X124963000Y-106548000D01*
X125270489Y-113339511D02*
X126233000Y-112377000D01*
X110189000Y-166050000D02*
X110189000Y-167249022D01*
X158115000Y-109220000D02*
X156591000Y-109220000D01*
X133853000Y-105288000D02*
X132705000Y-104140000D01*
X119585511Y-113339511D02*
X121449748Y-113339511D01*
X117689000Y-167249022D02*
X118487478Y-168047500D01*
X144023000Y-105288000D02*
X145283000Y-105288000D01*
X114813000Y-112362259D02*
X115790252Y-113339511D01*
X112283000Y-105288000D02*
X113543000Y-106548000D01*
X123410252Y-113339511D02*
X125270489Y-113339511D01*
X139370000Y-136970000D02*
X139830000Y-137430000D01*
X135143000Y-105288000D02*
X136403000Y-106548000D01*
X114689000Y-166050000D02*
X114689000Y-167249022D01*
X141970000Y-137530000D02*
X141870000Y-137430000D01*
X154163000Y-105288000D02*
X155443000Y-105288000D01*
X149093000Y-105288000D02*
X147833000Y-106548000D01*
X109403001Y-104968001D02*
X109367001Y-104968001D01*
X160871500Y-168057500D02*
X161869000Y-167060000D01*
X111003000Y-111628000D02*
X112263000Y-110368000D01*
X144023000Y-105288000D02*
X144023000Y-106548000D01*
X136819000Y-167249022D02*
X137617478Y-168047500D01*
X136819000Y-166050000D02*
X136819000Y-167249022D01*
X116290000Y-136960000D02*
X118220000Y-136960000D01*
X154163000Y-110368000D02*
X152903000Y-111628000D01*
X152903000Y-112367000D02*
X152903000Y-111628000D01*
X109367001Y-104968001D02*
X108509000Y-104110000D01*
X113553000Y-106548000D02*
X114813000Y-105288000D01*
X130819000Y-166050000D02*
X130819000Y-167249022D01*
X109733000Y-105288000D02*
X110993000Y-106548000D01*
X114813000Y-111628000D02*
X114813000Y-112362259D01*
X156703000Y-111628000D02*
X155443000Y-110368000D01*
X156723000Y-111628000D02*
X159182000Y-114087000D01*
X156100000Y-136970000D02*
X154400000Y-136970000D01*
X123703000Y-105288000D02*
X124963000Y-105288000D01*
X146543000Y-110368000D02*
X145283000Y-111628000D01*
X151930489Y-113339511D02*
X152903000Y-112367000D01*
X158450000Y-137430000D02*
X157990000Y-136970000D01*
X113987478Y-168047500D02*
X115487478Y-168047500D01*
X157369000Y-166060000D02*
X157369000Y-167259022D01*
X118613000Y-105288000D02*
X119883000Y-105288000D01*
X145283000Y-112366259D02*
X146256252Y-113339511D01*
X157990000Y-136970000D02*
X156100000Y-136970000D01*
X148119748Y-113339511D02*
X149103000Y-112356259D01*
X112263000Y-110368000D02*
X111242000Y-109347000D01*
X133873000Y-111628000D02*
X135133000Y-110368000D01*
X114823000Y-105288000D02*
X116083000Y-106548000D01*
X132593000Y-106548000D02*
X133853000Y-105288000D01*
X156591000Y-109220000D02*
X155443000Y-110368000D01*
X128783000Y-105288000D02*
X127762000Y-104267000D01*
X109723000Y-110368000D02*
X104954178Y-110368000D01*
X156667478Y-168057500D02*
X158287500Y-168057500D01*
X141478000Y-104013000D02*
X140203000Y-105288000D01*
X122433000Y-112362259D02*
X123410252Y-113339511D01*
X140520489Y-113339511D02*
X141483000Y-112377000D01*
X141870000Y-137430000D02*
X139830000Y-137430000D01*
X159667478Y-168057500D02*
X160157500Y-168057500D01*
X149103000Y-105288000D02*
X150373000Y-105288000D01*
X110993000Y-111628000D02*
X112055000Y-112690000D01*
X137663000Y-112366259D02*
X138636252Y-113339511D01*
X108473000Y-105288000D02*
X109723000Y-105288000D01*
X141483000Y-112377000D02*
X141483000Y-111628000D01*
X144309748Y-113339511D02*
X145283000Y-112366259D01*
X138943000Y-105288000D02*
X137795000Y-104140000D01*
X142743000Y-110368000D02*
X141483000Y-111628000D01*
X136281000Y-104140000D02*
X135133000Y-105288000D01*
X130043000Y-112377000D02*
X131005511Y-113339511D01*
X117689000Y-166050000D02*
X117689000Y-167249022D01*
X155443000Y-110368000D02*
X154173000Y-110368000D01*
X118642500Y-168047500D02*
X119691500Y-168047500D01*
X146256252Y-113339511D02*
X148119748Y-113339511D01*
X128783000Y-105288000D02*
X130043000Y-105288000D01*
X131191000Y-104140000D02*
X130043000Y-105288000D01*
X125984000Y-104267000D02*
X124963000Y-105288000D01*
X108473000Y-105288000D02*
X104463355Y-109297645D01*
X144023000Y-105288000D02*
X142748000Y-104013000D01*
X135319000Y-166050000D02*
X135319000Y-167249022D01*
X133853000Y-105288000D02*
X135133000Y-105288000D01*
X131005511Y-113339511D02*
X132879748Y-113339511D01*
X155167478Y-168057500D02*
X156667478Y-168057500D01*
X140203000Y-105288000D02*
X140203000Y-106548000D01*
X161090000Y-137530000D02*
X160990000Y-137430000D01*
X128783000Y-105288000D02*
X128783000Y-106548000D01*
X133070000Y-137470000D02*
X134770000Y-137470000D01*
X152903000Y-106548000D02*
X154163000Y-105288000D01*
X158003000Y-106548000D02*
X159263000Y-105288000D01*
X138943000Y-105288000D02*
X140203000Y-105288000D01*
X118623000Y-111628000D02*
X119883000Y-110368000D01*
X111003000Y-106548000D02*
X112263000Y-105288000D01*
X135319000Y-167249022D02*
X136117478Y-168047500D01*
X155869000Y-167259022D02*
X156667478Y-168057500D01*
X126233000Y-112377000D02*
X127195511Y-113339511D01*
X136970000Y-136970000D02*
X139370000Y-136970000D01*
X140321500Y-168047500D02*
X141319000Y-167050000D01*
X151369000Y-166060000D02*
X151369000Y-167259022D01*
X114823000Y-111628000D02*
X116083000Y-110368000D01*
X122433000Y-112356259D02*
X122433000Y-112362259D01*
X132705000Y-104140000D02*
X131191000Y-104140000D01*
X136117478Y-168047500D02*
X136707500Y-168047500D01*
X123703000Y-105288000D02*
X122682000Y-104267000D01*
X127762000Y-104267000D02*
X125984000Y-104267000D01*
X119691500Y-168047500D02*
X120689000Y-167050000D01*
X152167478Y-168057500D02*
X155167478Y-168057500D01*
X155869000Y-166060000D02*
X155869000Y-167259022D01*
X158869000Y-167259022D02*
X159667478Y-168057500D01*
X126243000Y-111628000D02*
X127503000Y-110368000D01*
X137617478Y-168047500D02*
X138842500Y-168047500D01*
X122682000Y-104267000D02*
X120904000Y-104267000D01*
X137795000Y-104140000D02*
X136281000Y-104140000D01*
X154369000Y-167259022D02*
X155167478Y-168057500D01*
X134870741Y-113370000D02*
X136659259Y-113370000D01*
X127195511Y-113339511D02*
X129080489Y-113339511D01*
X121320000Y-137550000D02*
X121250000Y-137480000D01*
X116189000Y-166050000D02*
X116189000Y-167249022D01*
X135017500Y-168047500D02*
X136707500Y-168047500D01*
X150080252Y-113339511D02*
X151930489Y-113339511D01*
X139117478Y-168047500D02*
X139607500Y-168047500D01*
X150790000Y-136470000D02*
X152200000Y-136470000D01*
X155443000Y-105288000D02*
X156703000Y-106548000D01*
X116189000Y-167249022D02*
X116987478Y-168047500D01*
X159263000Y-105288000D02*
X159905324Y-105288000D01*
X114689000Y-167249022D02*
X115487478Y-168047500D01*
X141483000Y-112377000D02*
X142445511Y-113339511D01*
X149103000Y-112356259D02*
X149103000Y-111628000D01*
X133819000Y-166050000D02*
X133819000Y-167249022D01*
X113189000Y-166050000D02*
X113189000Y-167249022D01*
X130043000Y-112377000D02*
X130043000Y-111628000D01*
X133873000Y-112346259D02*
X133873000Y-112372259D01*
X147955000Y-104140000D02*
X149103000Y-105288000D01*
X117640489Y-113339511D02*
X118613000Y-112367000D01*
X145283000Y-112366259D02*
X145283000Y-111628000D01*
X131670000Y-136470000D02*
X133070000Y-136470000D01*
X130819000Y-167249022D02*
X131617478Y-168047500D01*
X116290000Y-137960000D02*
X117620000Y-137960000D01*
X111361000Y-107450000D02*
X110620000Y-107450000D01*
X117620000Y-137960000D02*
X118740000Y-139080000D01*
X142669511Y-137819748D02*
X141459259Y-139030000D01*
X156100000Y-137970000D02*
X156100000Y-137470000D01*
X122019511Y-137229511D02*
X122019511Y-137839748D01*
X113215000Y-107500000D02*
X113861000Y-107500000D01*
X116290000Y-136460000D02*
X121250000Y-136460000D01*
X142669511Y-137209511D02*
X142669511Y-137819748D01*
X157160000Y-139030000D02*
X156100000Y-137970000D01*
X111010000Y-137980000D02*
X112370000Y-137980000D01*
X136970000Y-137970000D02*
X138770000Y-137970000D01*
X141930000Y-136470000D02*
X141940000Y-136480000D01*
X113861000Y-107500000D02*
X114813000Y-106548000D01*
X161060000Y-136480000D02*
X161050000Y-136470000D01*
X112263000Y-106548000D02*
X113215000Y-107500000D01*
X161789511Y-137850489D02*
X160610000Y-139030000D01*
X136970000Y-137470000D02*
X136970000Y-137970000D01*
X121290000Y-136500000D02*
X122019511Y-137229511D01*
X110620000Y-107445000D02*
X109723000Y-106548000D01*
X122019511Y-137839748D02*
X120779259Y-139080000D01*
X150780000Y-137960000D02*
X152190000Y-137960000D01*
X161050000Y-136470000D02*
X156100000Y-136470000D01*
X110620000Y-107450000D02*
X110620000Y-107445000D01*
X158450000Y-139030000D02*
X157160000Y-139030000D01*
X138770000Y-137970000D02*
X139830000Y-139030000D01*
X131670000Y-137970000D02*
X131660000Y-137960000D01*
X141459259Y-139030000D02*
X139830000Y-139030000D01*
X120779259Y-139080000D02*
X118740000Y-139080000D01*
X161060000Y-136480000D02*
X161789511Y-137209511D01*
X160610000Y-139030000D02*
X158450000Y-139030000D01*
X109723000Y-107973000D02*
X109723000Y-106548000D01*
X133070000Y-137970000D02*
X131670000Y-137970000D01*
X121250000Y-136460000D02*
X121290000Y-136500000D01*
X112263000Y-106548000D02*
X111361000Y-107450000D01*
X141940000Y-136480000D02*
X142669511Y-137209511D01*
X116290000Y-137460000D02*
X116290000Y-137960000D01*
X110280000Y-108530000D02*
X109723000Y-107973000D01*
X136970000Y-136470000D02*
X141930000Y-136470000D01*
X161789511Y-137209511D02*
X161789511Y-137850489D01*
X126230000Y-108800000D02*
X126230000Y-110365000D01*
X114810000Y-108810000D02*
X114810000Y-110365000D01*
X113540000Y-108810000D02*
X113540000Y-110365000D01*
X145280000Y-108800000D02*
X145280000Y-110365000D01*
X147833000Y-108803000D02*
X147830000Y-108800000D01*
X147833000Y-110368000D02*
X147833000Y-108803000D01*
X149103000Y-110368000D02*
X149103000Y-108803000D01*
X149103000Y-108803000D02*
X149100000Y-108800000D01*
X113720000Y-133740000D02*
X114090000Y-134110000D01*
X114090000Y-134110000D02*
X114090000Y-135260000D01*
X118610000Y-108800000D02*
X118610000Y-110365000D01*
X117350000Y-108800000D02*
X117350000Y-110365000D01*
X112590000Y-133750000D02*
X112590000Y-134260000D01*
X112590000Y-134260000D02*
X113590000Y-135260000D01*
X116060000Y-133740000D02*
X116060000Y-134290000D01*
X122440000Y-108800000D02*
X122440000Y-110361000D01*
X116060000Y-134290000D02*
X115090000Y-135260000D01*
X121150000Y-108800000D02*
X121150000Y-110365000D01*
X114590000Y-134060000D02*
X114590000Y-135260000D01*
X114900000Y-133750000D02*
X114590000Y-134060000D01*
X124960000Y-108800000D02*
X124960000Y-110365000D01*
X140210000Y-108800000D02*
X140210000Y-110361000D01*
X135550000Y-133730000D02*
X135270000Y-134010000D01*
X135270000Y-134010000D02*
X135270000Y-135270000D01*
X133390741Y-133730000D02*
X134270000Y-134609259D01*
X134270000Y-134609259D02*
X134270000Y-135270000D01*
X136400000Y-108800000D02*
X136400000Y-110365000D01*
X133240000Y-133730000D02*
X133390741Y-133730000D01*
X137670000Y-108800000D02*
X137670000Y-110361000D01*
X134370000Y-133720000D02*
X134770000Y-134120000D01*
X134770000Y-134120000D02*
X134770000Y-135270000D01*
X141480000Y-108800000D02*
X141480000Y-110365000D01*
X135770000Y-135270000D02*
X135770000Y-134660000D01*
X135770000Y-134660000D02*
X136710000Y-133720000D01*
X144030000Y-108800000D02*
X144030000Y-110361000D01*
X132590000Y-108800000D02*
X132590000Y-110361000D01*
X133860000Y-108800000D02*
X133860000Y-110361000D01*
X118189000Y-164801000D02*
X118189000Y-166050000D01*
X120530000Y-162460000D02*
X118189000Y-164801000D01*
X119370000Y-162460000D02*
X117189000Y-164641000D01*
X117189000Y-164641000D02*
X117189000Y-166050000D01*
X116689000Y-163961000D02*
X116689000Y-166050000D01*
X118190000Y-162460000D02*
X116689000Y-163961000D01*
X115689000Y-163841000D02*
X115689000Y-166050000D01*
X117060000Y-162470000D02*
X115689000Y-163841000D01*
X116120000Y-161450000D02*
X115189000Y-162381000D01*
X115090000Y-139690000D02*
X116120000Y-140720000D01*
X115090000Y-139160000D02*
X115090000Y-139690000D01*
X115189000Y-162381000D02*
X115189000Y-166050000D01*
X114590000Y-140360000D02*
X114960000Y-140730000D01*
X114189000Y-162221000D02*
X114189000Y-166050000D01*
X114960000Y-161450000D02*
X114189000Y-162221000D01*
X114590000Y-139160000D02*
X114590000Y-140360000D01*
X114090000Y-140410000D02*
X113780000Y-140720000D01*
X113780000Y-161450000D02*
X113689000Y-161541000D01*
X114090000Y-139160000D02*
X114090000Y-140410000D01*
X113689000Y-161541000D02*
X113689000Y-166050000D01*
X113590000Y-139160000D02*
X113590000Y-139790000D01*
X112689000Y-161499000D02*
X112689000Y-166050000D01*
X112650000Y-161460000D02*
X112689000Y-161499000D01*
X113590000Y-139790000D02*
X112650000Y-140730000D01*
X111189000Y-164741000D02*
X111189000Y-166050000D01*
X111190000Y-164740000D02*
X111189000Y-164741000D01*
X111190000Y-162450000D02*
X111190000Y-164740000D01*
X109260000Y-162450000D02*
X110689000Y-163879000D01*
X110689000Y-163879000D02*
X110689000Y-166050000D01*
X129910000Y-162490000D02*
X131319000Y-163899000D01*
X131319000Y-163899000D02*
X131319000Y-166050000D01*
X131840000Y-162490000D02*
X131819000Y-162511000D01*
X131819000Y-162511000D02*
X131819000Y-166050000D01*
X133319000Y-161519000D02*
X133319000Y-166050000D01*
X134270000Y-139870741D02*
X134270000Y-139170000D01*
X133300000Y-140710000D02*
X133430741Y-140710000D01*
X133300000Y-161500000D02*
X133319000Y-161519000D01*
X133430741Y-140710000D02*
X134270000Y-139870741D01*
X134319000Y-161601000D02*
X134319000Y-166050000D01*
X134430000Y-161490000D02*
X134319000Y-161601000D01*
X134770000Y-140360000D02*
X134770000Y-139170000D01*
X134430000Y-140700000D02*
X134770000Y-140360000D01*
X135270000Y-140370000D02*
X135610000Y-140710000D01*
X134819000Y-162281000D02*
X134819000Y-166050000D01*
X135610000Y-161490000D02*
X134819000Y-162281000D01*
X135270000Y-139170000D02*
X135270000Y-140370000D01*
X135770000Y-139170000D02*
X135770000Y-139700000D01*
X135790000Y-162470000D02*
X136770000Y-161490000D01*
X135790000Y-166021000D02*
X135790000Y-162470000D01*
X135770000Y-139700000D02*
X136770000Y-140700000D01*
X136319000Y-163901000D02*
X136319000Y-166050000D01*
X137710000Y-162510000D02*
X136319000Y-163901000D01*
X137319000Y-164021000D02*
X137319000Y-166050000D01*
X138840000Y-162500000D02*
X137319000Y-164021000D01*
X140020000Y-162649978D02*
X140020000Y-162500000D01*
X137819000Y-164850978D02*
X140020000Y-162649978D01*
X137819000Y-166050000D02*
X137819000Y-164850978D01*
X138819000Y-166050000D02*
X138819000Y-164861000D01*
X138819000Y-164861000D02*
X141180000Y-162500000D01*
X130040000Y-108800000D02*
X130040000Y-110365000D01*
X128780000Y-108800000D02*
X128780000Y-110365000D01*
X146553000Y-106548000D02*
X146553000Y-107173000D01*
X146553000Y-107173000D02*
X146990000Y-107610000D01*
X145283000Y-107013000D02*
X145880000Y-107610000D01*
X145283000Y-106548000D02*
X145283000Y-107013000D01*
X142753000Y-106548000D02*
X142753000Y-107223000D01*
X142753000Y-107223000D02*
X143140000Y-107610000D01*
X141483000Y-107013000D02*
X142080000Y-107610000D01*
X141483000Y-106548000D02*
X141483000Y-107013000D01*
X155830000Y-133720000D02*
X155830000Y-134340000D01*
X155830000Y-134340000D02*
X154900000Y-135270000D01*
X138943000Y-107183000D02*
X139370000Y-107610000D01*
X138943000Y-106548000D02*
X138943000Y-107183000D01*
X154670000Y-133730000D02*
X154400000Y-134000000D01*
X137663000Y-106548000D02*
X137663000Y-106973000D01*
X137663000Y-106973000D02*
X138300000Y-107610000D01*
X154400000Y-134000000D02*
X154400000Y-135270000D01*
X153900000Y-134130000D02*
X153900000Y-135270000D01*
X153490000Y-133720000D02*
X153900000Y-134130000D01*
X131323000Y-106548000D02*
X131323000Y-107153000D01*
X131323000Y-107153000D02*
X131780000Y-107610000D01*
X152360000Y-134230000D02*
X153400000Y-135270000D01*
X152360000Y-133730000D02*
X152360000Y-134230000D01*
X130043000Y-106903000D02*
X130750000Y-107610000D01*
X130043000Y-106548000D02*
X130043000Y-106903000D01*
X127503000Y-106733000D02*
X128160000Y-107390000D01*
X126233000Y-106548000D02*
X126233000Y-106873000D01*
X126233000Y-106873000D02*
X126970000Y-107610000D01*
X151633000Y-112633000D02*
X151640000Y-112640000D01*
X151633000Y-111628000D02*
X151633000Y-112633000D01*
X150373000Y-111628000D02*
X150373000Y-112637000D01*
X150373000Y-112637000D02*
X150370000Y-112640000D01*
X147833000Y-111628000D02*
X147833000Y-112637000D01*
X147833000Y-112637000D02*
X147830000Y-112640000D01*
X136403000Y-111628000D02*
X136403000Y-112637000D01*
X136403000Y-112637000D02*
X136400000Y-112640000D01*
X135133000Y-111628000D02*
X135133000Y-112637000D01*
X135133000Y-112637000D02*
X135130000Y-112640000D01*
X128783000Y-112637000D02*
X128780000Y-112640000D01*
X128783000Y-111628000D02*
X128783000Y-112637000D01*
X131323000Y-111628000D02*
X131323000Y-112637000D01*
X131323000Y-112637000D02*
X131320000Y-112640000D01*
X132583000Y-111628000D02*
X132583000Y-112633000D01*
X132583000Y-112633000D02*
X132590000Y-112640000D01*
X140203000Y-112633000D02*
X140210000Y-112640000D01*
X140203000Y-111628000D02*
X140203000Y-112633000D01*
X138943000Y-111628000D02*
X138943000Y-112637000D01*
X138943000Y-112637000D02*
X138940000Y-112640000D01*
X144023000Y-111628000D02*
X144023000Y-112637000D01*
X144023000Y-112637000D02*
X144020000Y-112640000D01*
X142753000Y-112637000D02*
X142750000Y-112640000D01*
X142753000Y-111628000D02*
X142753000Y-112637000D01*
X146553000Y-111628000D02*
X146553000Y-112633000D01*
X146553000Y-112633000D02*
X146560000Y-112640000D01*
X123703000Y-111628000D02*
X123703000Y-112637000D01*
X123703000Y-112637000D02*
X123700000Y-112640000D01*
X119883000Y-112633000D02*
X119890000Y-112640000D01*
X119883000Y-111628000D02*
X119883000Y-112633000D01*
X121153000Y-111628000D02*
X121153000Y-112633000D01*
X121153000Y-112633000D02*
X121160000Y-112640000D01*
X124963000Y-112633000D02*
X124970000Y-112640000D01*
X124963000Y-111628000D02*
X124963000Y-112633000D01*
X127503000Y-112633000D02*
X127510000Y-112640000D01*
X127503000Y-111628000D02*
X127503000Y-112633000D01*
X116083000Y-111628000D02*
X116083000Y-112637000D01*
X116083000Y-112637000D02*
X116080000Y-112640000D01*
X117353000Y-111628000D02*
X117353000Y-112637000D01*
X117353000Y-112637000D02*
X117350000Y-112640000D01*
X159369000Y-163231000D02*
X160160000Y-162440000D01*
X159369000Y-166060000D02*
X159369000Y-163231000D01*
X159000000Y-162440000D02*
X158369000Y-163071000D01*
X158369000Y-163071000D02*
X158369000Y-166060000D01*
X157869000Y-162489000D02*
X157820000Y-162440000D01*
X157869000Y-166060000D02*
X157869000Y-162489000D01*
X156869000Y-166060000D02*
X156869000Y-162629000D01*
X156869000Y-162629000D02*
X156690000Y-162450000D01*
X155890000Y-140160000D02*
X154900000Y-139170000D01*
X155750000Y-161430000D02*
X155750000Y-164241978D01*
X156419489Y-164911467D02*
X156419489Y-166009511D01*
X155890000Y-140700000D02*
X155890000Y-140160000D01*
X155750000Y-164241978D02*
X156419489Y-164911467D01*
X155318511Y-162158511D02*
X155318511Y-166009511D01*
X154730000Y-140710000D02*
X154400000Y-140380000D01*
X154400000Y-140380000D02*
X154400000Y-139170000D01*
X154590000Y-161430000D02*
X155318511Y-162158511D01*
X153900000Y-140350000D02*
X153900000Y-139170000D01*
X153550000Y-140700000D02*
X153900000Y-140350000D01*
X154869000Y-162889000D02*
X154869000Y-166060000D01*
X153410000Y-161430000D02*
X154869000Y-162889000D01*
X152420000Y-140710000D02*
X152420000Y-140150000D01*
X152420000Y-140150000D02*
X153400000Y-139170000D01*
X153869000Y-163029000D02*
X153869000Y-166060000D01*
X152280000Y-161440000D02*
X153869000Y-163029000D01*
X150820000Y-163210000D02*
X152369000Y-164759000D01*
X150820000Y-162430000D02*
X150820000Y-163210000D01*
X152369000Y-164759000D02*
X152369000Y-166060000D01*
X148890000Y-162430000D02*
X149438022Y-162430000D01*
X149438022Y-162430000D02*
X151869000Y-164860978D01*
X151869000Y-164860978D02*
X151869000Y-166060000D01*
G04 #@! TA.AperFunction,Conductor*
G36*
X168433621Y-116830002D02*
G01*
X168480114Y-116883658D01*
X168491500Y-116936000D01*
X168491500Y-172914521D01*
X168471498Y-172982642D01*
X168417842Y-173029135D01*
X168347568Y-173039239D01*
X168282988Y-173009745D01*
X168264149Y-172989380D01*
X168119477Y-172793510D01*
X168116824Y-172789918D01*
X167932187Y-172602358D01*
X167928647Y-172599657D01*
X167928641Y-172599651D01*
X167726506Y-172445386D01*
X167726502Y-172445383D01*
X167722965Y-172442684D01*
X167493332Y-172314084D01*
X167247870Y-172219122D01*
X167243545Y-172218119D01*
X167243540Y-172218118D01*
X167102794Y-172185495D01*
X166991476Y-172159693D01*
X166729267Y-172136983D01*
X166724832Y-172137227D01*
X166724828Y-172137227D01*
X166470916Y-172151200D01*
X166470909Y-172151201D01*
X166466473Y-172151445D01*
X166338369Y-172176927D01*
X166212711Y-172201921D01*
X166212706Y-172201922D01*
X166208339Y-172202791D01*
X166204136Y-172204267D01*
X165964223Y-172288518D01*
X165964220Y-172288519D01*
X165960015Y-172289996D01*
X165956062Y-172292049D01*
X165956056Y-172292052D01*
X165824615Y-172360331D01*
X165726456Y-172411321D01*
X165722841Y-172413904D01*
X165722835Y-172413908D01*
X165619585Y-172487692D01*
X165512322Y-172564344D01*
X165509095Y-172567422D01*
X165509093Y-172567424D01*
X165475311Y-172599651D01*
X165321885Y-172746011D01*
X165158945Y-172952700D01*
X165137640Y-172989380D01*
X165028987Y-173176438D01*
X165028984Y-173176444D01*
X165026753Y-173180285D01*
X165025083Y-173184408D01*
X165012784Y-173214773D01*
X164968672Y-173270402D01*
X164901486Y-173293352D01*
X164832559Y-173276335D01*
X164783774Y-173224754D01*
X164770000Y-173167471D01*
X164770000Y-159554199D01*
X164790002Y-159486078D01*
X164802358Y-159469896D01*
X164859040Y-159406944D01*
X164954527Y-159241556D01*
X165013542Y-159059928D01*
X165033504Y-158870000D01*
X165013542Y-158680072D01*
X164954527Y-158498444D01*
X164859040Y-158333056D01*
X164802363Y-158270110D01*
X164771647Y-158206104D01*
X164770000Y-158185801D01*
X164770000Y-153277081D01*
X164786881Y-153214081D01*
X164831223Y-153137279D01*
X164831224Y-153137278D01*
X164834527Y-153131556D01*
X164893542Y-152949928D01*
X164913504Y-152760000D01*
X164893542Y-152570072D01*
X164834527Y-152388444D01*
X164786881Y-152305919D01*
X164770000Y-152242919D01*
X164770000Y-116936000D01*
X164790002Y-116867879D01*
X164843658Y-116821386D01*
X164896000Y-116810000D01*
X168365500Y-116810000D01*
X168433621Y-116830002D01*
G37*
G04 #@! TD.AperFunction*
G04 #@! TA.AperFunction,Conductor*
G36*
X103752121Y-116830002D02*
G01*
X103798614Y-116883658D01*
X103810000Y-116936000D01*
X103810000Y-172941666D01*
X103789998Y-173009787D01*
X103736342Y-173056280D01*
X103666068Y-173066384D01*
X103601488Y-173036890D01*
X103577616Y-173009182D01*
X103575308Y-173005545D01*
X103573191Y-173001622D01*
X103416824Y-172789918D01*
X103232187Y-172602358D01*
X103228647Y-172599657D01*
X103228641Y-172599651D01*
X103026506Y-172445386D01*
X103026502Y-172445383D01*
X103022965Y-172442684D01*
X102793332Y-172314084D01*
X102547870Y-172219122D01*
X102543545Y-172218119D01*
X102543540Y-172218118D01*
X102402794Y-172185495D01*
X102291476Y-172159693D01*
X102029267Y-172136983D01*
X102024832Y-172137227D01*
X102024828Y-172137227D01*
X101770916Y-172151200D01*
X101770909Y-172151201D01*
X101766473Y-172151445D01*
X101638369Y-172176927D01*
X101512711Y-172201921D01*
X101512706Y-172201922D01*
X101508339Y-172202791D01*
X101504136Y-172204267D01*
X101264223Y-172288518D01*
X101264220Y-172288519D01*
X101260015Y-172289996D01*
X101256062Y-172292049D01*
X101256056Y-172292052D01*
X101124615Y-172360331D01*
X101026456Y-172411321D01*
X101022841Y-172413904D01*
X101022835Y-172413908D01*
X100919585Y-172487692D01*
X100812322Y-172564344D01*
X100809095Y-172567422D01*
X100809093Y-172567424D01*
X100721471Y-172651011D01*
X100658375Y-172683558D01*
X100587698Y-172676826D01*
X100531881Y-172632952D01*
X100508500Y-172559841D01*
X100508500Y-116936000D01*
X100528502Y-116867879D01*
X100582158Y-116821386D01*
X100634500Y-116810000D01*
X103684000Y-116810000D01*
X103752121Y-116830002D01*
G37*
G04 #@! TD.AperFunction*
M02*
