G04 #@! TF.GenerationSoftware,KiCad,Pcbnew,(6.0.4-0)*
G04 #@! TF.CreationDate,2022-07-08T14:42:31+02:00*
G04 #@! TF.ProjectId,adapter_hybrid_assistor_hpc_3HDMI,61646170-7465-4725-9f68-79627269645f,rev?*
G04 #@! TF.SameCoordinates,Original*
G04 #@! TF.FileFunction,Copper,L3,Inr*
G04 #@! TF.FilePolarity,Positive*
%FSLAX46Y46*%
G04 Gerber Fmt 4.6, Leading zero omitted, Abs format (unit mm)*
G04 Created by KiCad (PCBNEW (6.0.4-0)) date 2022-07-08 14:42:31*
%MOMM*%
%LPD*%
G01*
G04 APERTURE LIST*
G04 #@! TA.AperFunction,ComponentPad*
%ADD10C,4.000000*%
G04 #@! TD*
G04 #@! TA.AperFunction,ComponentPad*
%ADD11C,1.995000*%
G04 #@! TD*
G04 #@! TA.AperFunction,ViaPad*
%ADD12C,0.800000*%
G04 #@! TD*
G04 APERTURE END LIST*
D10*
X165683000Y-110458000D03*
X103303000Y-110458000D03*
D11*
X106189000Y-167050000D03*
X120689000Y-167050000D03*
X105589000Y-171950000D03*
X121289000Y-171950000D03*
X147369000Y-167060000D03*
X161869000Y-167060000D03*
X146769000Y-171960000D03*
X162469000Y-171960000D03*
X126819000Y-167050000D03*
X141319000Y-167050000D03*
X126219000Y-171950000D03*
X141919000Y-171950000D03*
D12*
X164120000Y-158870000D03*
X107030000Y-114310000D03*
X132370000Y-158974000D03*
X145510000Y-158974000D03*
X151170000Y-158974000D03*
X111580000Y-158974000D03*
X125146000Y-158974000D03*
X166040000Y-151100000D03*
X166040000Y-138400000D03*
X115550000Y-126570000D03*
X163090000Y-127880000D03*
X102540000Y-118080000D03*
X102540000Y-125700000D03*
X161090000Y-137530000D03*
X131670000Y-136470000D03*
X143800000Y-161460000D03*
X102540000Y-163800000D03*
X155150000Y-127090000D03*
X162680000Y-161630000D03*
X123490000Y-127360000D03*
X132330000Y-149630000D03*
X150790000Y-136470000D03*
X111540000Y-149560000D03*
X121320000Y-137550000D03*
X102540000Y-151100000D03*
X166040000Y-163800000D03*
X123220000Y-161420000D03*
X108509000Y-104110000D03*
X102540000Y-138400000D03*
X136200000Y-126570000D03*
X166040000Y-125700000D03*
X111020000Y-136490000D03*
X144140000Y-127360000D03*
X159182000Y-114087000D03*
X166040000Y-118080000D03*
X141970000Y-137530000D03*
X151110000Y-149620000D03*
X121290000Y-136500000D03*
X161280000Y-156720000D03*
X136230000Y-125040000D03*
X141940000Y-136480000D03*
X161790000Y-127630000D03*
X110280000Y-108530000D03*
X161060000Y-136480000D03*
X142330000Y-156690000D03*
X144140000Y-122970000D03*
X123490000Y-122970000D03*
X130960000Y-149630000D03*
X131660000Y-137960000D03*
X124750000Y-152650000D03*
X110170000Y-149560000D03*
X155180000Y-125560000D03*
X115580000Y-125040000D03*
X122190000Y-127110000D03*
X163090000Y-123490000D03*
X142840000Y-127110000D03*
X150780000Y-137960000D03*
X121770000Y-156500000D03*
X164000000Y-152760000D03*
X111010000Y-137980000D03*
X149640000Y-151090000D03*
X145540000Y-152720000D03*
X118190000Y-122610000D03*
X126230000Y-108800000D03*
X109830489Y-146399511D03*
X114810000Y-108810000D03*
X108689511Y-146410489D03*
X113540000Y-108810000D03*
X145280000Y-108800000D03*
X138840000Y-122610000D03*
X140020000Y-122620000D03*
X147830000Y-108800000D03*
X141180000Y-122630000D03*
X149100000Y-108800000D03*
X118610000Y-108800000D03*
X113720000Y-133740000D03*
X117350000Y-108800000D03*
X112590000Y-133750000D03*
X122440000Y-108800000D03*
X116060000Y-133740000D03*
X121150000Y-108800000D03*
X114900000Y-133750000D03*
X117060000Y-122600000D03*
X124960000Y-108800000D03*
X140210000Y-108800000D03*
X135550000Y-133730000D03*
X133240000Y-133730000D03*
X136400000Y-108800000D03*
X134370000Y-133720000D03*
X137670000Y-108800000D03*
X141480000Y-108800000D03*
X136710000Y-133720000D03*
X144030000Y-108800000D03*
X137710000Y-122600000D03*
X132590000Y-108800000D03*
X129479511Y-146480489D03*
X130620489Y-146469511D03*
X133860000Y-108800000D03*
X120530000Y-129010000D03*
X120530000Y-162460000D03*
X119370000Y-129020000D03*
X119370000Y-162460000D03*
X118190000Y-162460000D03*
X118190000Y-129010000D03*
X117060000Y-162470000D03*
X117060000Y-129020000D03*
X116120000Y-140720000D03*
X116120000Y-161450000D03*
X114960000Y-161450000D03*
X114960000Y-140730000D03*
X113780000Y-161450000D03*
X113780000Y-140720000D03*
X112650000Y-140730000D03*
X112650000Y-161460000D03*
X111190000Y-162450000D03*
X109260000Y-162450000D03*
X129910000Y-162490000D03*
X131840000Y-162490000D03*
X133300000Y-140710000D03*
X133300000Y-161500000D03*
X134430000Y-140700000D03*
X134430000Y-161490000D03*
X135610000Y-161490000D03*
X135610000Y-140710000D03*
X136770000Y-161490000D03*
X136770000Y-140700000D03*
X137710000Y-162510000D03*
X137710000Y-129020000D03*
X138840000Y-129010000D03*
X138840000Y-162500000D03*
X140020000Y-129020000D03*
X140020000Y-162500000D03*
X141180000Y-129010000D03*
X141180000Y-162500000D03*
X130040000Y-108800000D03*
X120530000Y-122630000D03*
X119370000Y-122620000D03*
X128780000Y-108800000D03*
X146990000Y-107610000D03*
X160130000Y-123150000D03*
X158970000Y-123140000D03*
X145880000Y-107610000D03*
X143140000Y-107610000D03*
X157790000Y-123130000D03*
X156660000Y-123120000D03*
X142080000Y-107610000D03*
X155830000Y-133720000D03*
X139370000Y-107610000D03*
X154670000Y-133730000D03*
X138300000Y-107610000D03*
X153490000Y-133720000D03*
X131780000Y-107610000D03*
X130750000Y-107610000D03*
X152360000Y-133730000D03*
X128160000Y-107390000D03*
X162950000Y-149910000D03*
X161500000Y-149880000D03*
X126970000Y-107610000D03*
X151640000Y-112640000D03*
X150370000Y-112640000D03*
X147830000Y-112640000D03*
X136400000Y-112640000D03*
X135130000Y-112640000D03*
X128780000Y-112640000D03*
X131320000Y-112640000D03*
X132590000Y-112640000D03*
X140210000Y-112640000D03*
X138940000Y-112640000D03*
X144020000Y-112640000D03*
X142750000Y-112640000D03*
X146560000Y-112640000D03*
X123700000Y-112640000D03*
X119890000Y-112640000D03*
X121160000Y-112640000D03*
X124970000Y-112640000D03*
X127510000Y-112640000D03*
X116080000Y-112640000D03*
X117350000Y-112640000D03*
X160130000Y-129530000D03*
X160160000Y-162440000D03*
X159000000Y-162440000D03*
X158970000Y-129540000D03*
X157790000Y-129530000D03*
X157820000Y-162440000D03*
X156660000Y-129540000D03*
X156690000Y-162450000D03*
X155750000Y-161430000D03*
X155890000Y-140700000D03*
X154590000Y-161430000D03*
X154730000Y-140710000D03*
X153410000Y-161430000D03*
X153550000Y-140700000D03*
X152280000Y-161440000D03*
X152420000Y-140710000D03*
X150820000Y-162430000D03*
X148890000Y-162430000D03*
G04 #@! TA.AperFunction,Conductor*
G36*
X107890881Y-158189713D02*
G01*
X107904284Y-158189764D01*
X107904285Y-158189764D01*
X114670259Y-158215448D01*
X123247013Y-158248006D01*
X133571056Y-158287197D01*
X133579827Y-159574561D01*
X133560815Y-159580132D01*
X133537836Y-159594881D01*
X133502353Y-159599965D01*
X106279223Y-159587556D01*
X106267941Y-159584269D01*
X106269056Y-158183556D01*
X107890881Y-158189713D01*
G37*
G04 #@! TD.AperFunction*
G04 #@! TA.AperFunction,Conductor*
G36*
X164694429Y-158232352D02*
G01*
X164741097Y-158285855D01*
X164752651Y-158337559D01*
X164761647Y-159456315D01*
X164761748Y-159468924D01*
X164742294Y-159537203D01*
X164689014Y-159584126D01*
X164635638Y-159595937D01*
X150487490Y-159583160D01*
X150419388Y-159563096D01*
X150372943Y-159509399D01*
X150361607Y-159456315D01*
X150368795Y-158383903D01*
X150389253Y-158315918D01*
X150443219Y-158269786D01*
X150494378Y-158258749D01*
X158998924Y-158230960D01*
X164626243Y-158212573D01*
X164694429Y-158232352D01*
G37*
G04 #@! TD.AperFunction*
G04 #@! TA.AperFunction,Conductor*
G36*
X110989433Y-158445853D02*
G01*
X110989433Y-159585853D01*
X107874416Y-159592329D01*
X106306788Y-159595588D01*
X106238626Y-159575727D01*
X106192021Y-159522168D01*
X106180531Y-159468502D01*
X106188470Y-158547566D01*
X106209058Y-158479620D01*
X106260283Y-158436001D01*
X110989433Y-158445853D01*
G37*
G04 #@! TD.AperFunction*
G04 #@! TA.AperFunction,Conductor*
G36*
X164482279Y-102770004D02*
G01*
X164528773Y-102823658D01*
X164540161Y-102875842D01*
X164546617Y-107931755D01*
X164546890Y-108145322D01*
X164526975Y-108213468D01*
X164481592Y-108255897D01*
X164336221Y-108335816D01*
X164333017Y-108338144D01*
X164333012Y-108338147D01*
X164137535Y-108480169D01*
X164080860Y-108521346D01*
X163850767Y-108737418D01*
X163848243Y-108740469D01*
X163848242Y-108740470D01*
X163804425Y-108793436D01*
X163649568Y-108980625D01*
X163480438Y-109247131D01*
X163478754Y-109250710D01*
X163478750Y-109250717D01*
X163349485Y-109525421D01*
X163346044Y-109532734D01*
X163248505Y-109832928D01*
X163189359Y-110142980D01*
X163169540Y-110458000D01*
X163189359Y-110773020D01*
X163248505Y-111083072D01*
X163346044Y-111383266D01*
X163347731Y-111386852D01*
X163347733Y-111386856D01*
X163478750Y-111665283D01*
X163478754Y-111665290D01*
X163480438Y-111668869D01*
X163649568Y-111935375D01*
X163850767Y-112178582D01*
X164080860Y-112394654D01*
X164336221Y-112580184D01*
X164433084Y-112633435D01*
X164487502Y-112663352D01*
X164537560Y-112713697D01*
X164552800Y-112773605D01*
X164601334Y-150780166D01*
X164609664Y-157303738D01*
X164589749Y-157371884D01*
X164536153Y-157418446D01*
X164483570Y-157429899D01*
X131714221Y-157405481D01*
X109369100Y-157388830D01*
X109300994Y-157368777D01*
X109254541Y-157315087D01*
X109243194Y-157262516D01*
X109262407Y-149560000D01*
X110626496Y-149560000D01*
X110646458Y-149749928D01*
X110705473Y-149931556D01*
X110800960Y-150096944D01*
X110805378Y-150101851D01*
X110805379Y-150101852D01*
X110849836Y-150151226D01*
X110928747Y-150238866D01*
X111083248Y-150351118D01*
X111089276Y-150353802D01*
X111089278Y-150353803D01*
X111218253Y-150411226D01*
X111257712Y-150428794D01*
X111351113Y-150448647D01*
X111438056Y-150467128D01*
X111438061Y-150467128D01*
X111444513Y-150468500D01*
X111635487Y-150468500D01*
X111641939Y-150467128D01*
X111641944Y-150467128D01*
X111728887Y-150448647D01*
X111822288Y-150428794D01*
X111861747Y-150411226D01*
X111990722Y-150353803D01*
X111990724Y-150353802D01*
X111996752Y-150351118D01*
X112151253Y-150238866D01*
X112230164Y-150151226D01*
X112274621Y-150101852D01*
X112274622Y-150101851D01*
X112279040Y-150096944D01*
X112374527Y-149931556D01*
X112433542Y-149749928D01*
X112446147Y-149630000D01*
X131416496Y-149630000D01*
X131417186Y-149636565D01*
X131429761Y-149756206D01*
X131436458Y-149819928D01*
X131495473Y-150001556D01*
X131590960Y-150166944D01*
X131718747Y-150308866D01*
X131771560Y-150347237D01*
X131854143Y-150407237D01*
X131873248Y-150421118D01*
X131879276Y-150423802D01*
X131879278Y-150423803D01*
X132028333Y-150490166D01*
X132047712Y-150498794D01*
X132141113Y-150518647D01*
X132228056Y-150537128D01*
X132228061Y-150537128D01*
X132234513Y-150538500D01*
X132425487Y-150538500D01*
X132431939Y-150537128D01*
X132431944Y-150537128D01*
X132518887Y-150518647D01*
X132612288Y-150498794D01*
X132631667Y-150490166D01*
X132780722Y-150423803D01*
X132780724Y-150423802D01*
X132786752Y-150421118D01*
X132805858Y-150407237D01*
X132888440Y-150347237D01*
X132941253Y-150308866D01*
X133069040Y-150166944D01*
X133164527Y-150001556D01*
X133223542Y-149819928D01*
X133230240Y-149756206D01*
X133242814Y-149636565D01*
X133243504Y-149630000D01*
X133242453Y-149620000D01*
X150196496Y-149620000D01*
X150197186Y-149626565D01*
X150204551Y-149696635D01*
X150216458Y-149809928D01*
X150275473Y-149991556D01*
X150278776Y-149997278D01*
X150278777Y-149997279D01*
X150284551Y-150007279D01*
X150370960Y-150156944D01*
X150498747Y-150298866D01*
X150653248Y-150411118D01*
X150659276Y-150413802D01*
X150659278Y-150413803D01*
X150821681Y-150486109D01*
X150827712Y-150488794D01*
X150921112Y-150508647D01*
X151008056Y-150527128D01*
X151008061Y-150527128D01*
X151014513Y-150528500D01*
X151205487Y-150528500D01*
X151211939Y-150527128D01*
X151211944Y-150527128D01*
X151298888Y-150508647D01*
X151392288Y-150488794D01*
X151398319Y-150486109D01*
X151560722Y-150413803D01*
X151560724Y-150413802D01*
X151566752Y-150411118D01*
X151721253Y-150298866D01*
X151849040Y-150156944D01*
X151935449Y-150007279D01*
X151941223Y-149997279D01*
X151941224Y-149997278D01*
X151944527Y-149991556D01*
X151980774Y-149880000D01*
X160586496Y-149880000D01*
X160606458Y-150069928D01*
X160665473Y-150251556D01*
X160668776Y-150257278D01*
X160668777Y-150257279D01*
X160686098Y-150287279D01*
X160760960Y-150416944D01*
X160765378Y-150421851D01*
X160765379Y-150421852D01*
X160849827Y-150515641D01*
X160888747Y-150558866D01*
X161043248Y-150671118D01*
X161049276Y-150673802D01*
X161049278Y-150673803D01*
X161110629Y-150701118D01*
X161217712Y-150748794D01*
X161311112Y-150768647D01*
X161398056Y-150787128D01*
X161398061Y-150787128D01*
X161404513Y-150788500D01*
X161595487Y-150788500D01*
X161601939Y-150787128D01*
X161601944Y-150787128D01*
X161688888Y-150768647D01*
X161782288Y-150748794D01*
X161889371Y-150701118D01*
X161950722Y-150673803D01*
X161950724Y-150673802D01*
X161956752Y-150671118D01*
X162111253Y-150558866D01*
X162117858Y-150551530D01*
X162119473Y-150550535D01*
X162120577Y-150549541D01*
X162120759Y-150549743D01*
X162178301Y-150514291D01*
X162249284Y-150515641D01*
X162305128Y-150551528D01*
X162338747Y-150588866D01*
X162493248Y-150701118D01*
X162499276Y-150703802D01*
X162499278Y-150703803D01*
X162603412Y-150750166D01*
X162667712Y-150778794D01*
X162761112Y-150798647D01*
X162848056Y-150817128D01*
X162848061Y-150817128D01*
X162854513Y-150818500D01*
X163045487Y-150818500D01*
X163051939Y-150817128D01*
X163051944Y-150817128D01*
X163138888Y-150798647D01*
X163232288Y-150778794D01*
X163296588Y-150750166D01*
X163400722Y-150703803D01*
X163400724Y-150703802D01*
X163406752Y-150701118D01*
X163561253Y-150588866D01*
X163594869Y-150551532D01*
X163684621Y-150451852D01*
X163684622Y-150451851D01*
X163689040Y-150446944D01*
X163774533Y-150298866D01*
X163781223Y-150287279D01*
X163781224Y-150287278D01*
X163784527Y-150281556D01*
X163843542Y-150099928D01*
X163863504Y-149910000D01*
X163843542Y-149720072D01*
X163784527Y-149538444D01*
X163767207Y-149508444D01*
X163692341Y-149378774D01*
X163689040Y-149373056D01*
X163680701Y-149363794D01*
X163565675Y-149236045D01*
X163565674Y-149236044D01*
X163561253Y-149231134D01*
X163406752Y-149118882D01*
X163400724Y-149116198D01*
X163400722Y-149116197D01*
X163238319Y-149043891D01*
X163238318Y-149043891D01*
X163232288Y-149041206D01*
X163138888Y-149021353D01*
X163051944Y-149002872D01*
X163051939Y-149002872D01*
X163045487Y-149001500D01*
X162854513Y-149001500D01*
X162848061Y-149002872D01*
X162848056Y-149002872D01*
X162761112Y-149021353D01*
X162667712Y-149041206D01*
X162661682Y-149043891D01*
X162661681Y-149043891D01*
X162499278Y-149116197D01*
X162499276Y-149116198D01*
X162493248Y-149118882D01*
X162338747Y-149231134D01*
X162332142Y-149238470D01*
X162330527Y-149239465D01*
X162329423Y-149240459D01*
X162329241Y-149240257D01*
X162271699Y-149275709D01*
X162200716Y-149274359D01*
X162144872Y-149238472D01*
X162111253Y-149201134D01*
X161956752Y-149088882D01*
X161950724Y-149086198D01*
X161950722Y-149086197D01*
X161788319Y-149013891D01*
X161788318Y-149013891D01*
X161782288Y-149011206D01*
X161688888Y-148991353D01*
X161601944Y-148972872D01*
X161601939Y-148972872D01*
X161595487Y-148971500D01*
X161404513Y-148971500D01*
X161398061Y-148972872D01*
X161398056Y-148972872D01*
X161311112Y-148991353D01*
X161217712Y-149011206D01*
X161211682Y-149013891D01*
X161211681Y-149013891D01*
X161049278Y-149086197D01*
X161049276Y-149086198D01*
X161043248Y-149088882D01*
X160888747Y-149201134D01*
X160884326Y-149206044D01*
X160884325Y-149206045D01*
X160853521Y-149240257D01*
X160760960Y-149343056D01*
X160665473Y-149508444D01*
X160606458Y-149690072D01*
X160605768Y-149696633D01*
X160605768Y-149696635D01*
X160593201Y-149816206D01*
X160586496Y-149880000D01*
X151980774Y-149880000D01*
X152003542Y-149809928D01*
X152015450Y-149696635D01*
X152022814Y-149626565D01*
X152023504Y-149620000D01*
X152003542Y-149430072D01*
X151944527Y-149248444D01*
X151938769Y-149238470D01*
X151858115Y-149098774D01*
X151849040Y-149083056D01*
X151721253Y-148941134D01*
X151622157Y-148869136D01*
X151572094Y-148832763D01*
X151572093Y-148832762D01*
X151566752Y-148828882D01*
X151560724Y-148826198D01*
X151560722Y-148826197D01*
X151398319Y-148753891D01*
X151398318Y-148753891D01*
X151392288Y-148751206D01*
X151298888Y-148731353D01*
X151211944Y-148712872D01*
X151211939Y-148712872D01*
X151205487Y-148711500D01*
X151014513Y-148711500D01*
X151008061Y-148712872D01*
X151008056Y-148712872D01*
X150921112Y-148731353D01*
X150827712Y-148751206D01*
X150821682Y-148753891D01*
X150821681Y-148753891D01*
X150659278Y-148826197D01*
X150659276Y-148826198D01*
X150653248Y-148828882D01*
X150647907Y-148832762D01*
X150647906Y-148832763D01*
X150597843Y-148869136D01*
X150498747Y-148941134D01*
X150370960Y-149083056D01*
X150361885Y-149098774D01*
X150281232Y-149238470D01*
X150275473Y-149248444D01*
X150216458Y-149430072D01*
X150196496Y-149620000D01*
X133242453Y-149620000D01*
X133223542Y-149440072D01*
X133164527Y-149258444D01*
X133158754Y-149248444D01*
X133086191Y-149122763D01*
X133069040Y-149093056D01*
X132941253Y-148951134D01*
X132786752Y-148838882D01*
X132780724Y-148836198D01*
X132780722Y-148836197D01*
X132618319Y-148763891D01*
X132618318Y-148763891D01*
X132612288Y-148761206D01*
X132518887Y-148741353D01*
X132431944Y-148722872D01*
X132431939Y-148722872D01*
X132425487Y-148721500D01*
X132234513Y-148721500D01*
X132228061Y-148722872D01*
X132228056Y-148722872D01*
X132141113Y-148741353D01*
X132047712Y-148761206D01*
X132041682Y-148763891D01*
X132041681Y-148763891D01*
X131879278Y-148836197D01*
X131879276Y-148836198D01*
X131873248Y-148838882D01*
X131718747Y-148951134D01*
X131590960Y-149093056D01*
X131573809Y-149122763D01*
X131501247Y-149248444D01*
X131495473Y-149258444D01*
X131436458Y-149440072D01*
X131416496Y-149630000D01*
X112446147Y-149630000D01*
X112453504Y-149560000D01*
X112440538Y-149436635D01*
X112434232Y-149376635D01*
X112434232Y-149376633D01*
X112433542Y-149370072D01*
X112374527Y-149188444D01*
X112279040Y-149023056D01*
X112151253Y-148881134D01*
X111996752Y-148768882D01*
X111990724Y-148766198D01*
X111990722Y-148766197D01*
X111828319Y-148693891D01*
X111828318Y-148693891D01*
X111822288Y-148691206D01*
X111728888Y-148671353D01*
X111641944Y-148652872D01*
X111641939Y-148652872D01*
X111635487Y-148651500D01*
X111444513Y-148651500D01*
X111438061Y-148652872D01*
X111438056Y-148652872D01*
X111351112Y-148671353D01*
X111257712Y-148691206D01*
X111251682Y-148693891D01*
X111251681Y-148693891D01*
X111089278Y-148766197D01*
X111089276Y-148766198D01*
X111083248Y-148768882D01*
X110928747Y-148881134D01*
X110800960Y-149023056D01*
X110705473Y-149188444D01*
X110646458Y-149370072D01*
X110645768Y-149376633D01*
X110645768Y-149376635D01*
X110639462Y-149436635D01*
X110626496Y-149560000D01*
X109262407Y-149560000D01*
X109267952Y-147337239D01*
X109288124Y-147269168D01*
X109341896Y-147222809D01*
X109412195Y-147212881D01*
X109445197Y-147222445D01*
X109548201Y-147268305D01*
X109641601Y-147288158D01*
X109728545Y-147306639D01*
X109728550Y-147306639D01*
X109735002Y-147308011D01*
X109925976Y-147308011D01*
X109932428Y-147306639D01*
X109932433Y-147306639D01*
X110019377Y-147288158D01*
X110112777Y-147268305D01*
X110130018Y-147260629D01*
X110281211Y-147193314D01*
X110281213Y-147193313D01*
X110287241Y-147190629D01*
X110441742Y-147078377D01*
X110511649Y-147000737D01*
X110565110Y-146941363D01*
X110565111Y-146941362D01*
X110569529Y-146936455D01*
X110665016Y-146771067D01*
X110724031Y-146589439D01*
X110735482Y-146480489D01*
X128566007Y-146480489D01*
X128585969Y-146670417D01*
X128644984Y-146852045D01*
X128740471Y-147017433D01*
X128868258Y-147159355D01*
X128926413Y-147201607D01*
X129014519Y-147265620D01*
X129022759Y-147271607D01*
X129028787Y-147274291D01*
X129028789Y-147274292D01*
X129175647Y-147339677D01*
X129197223Y-147349283D01*
X129290624Y-147369136D01*
X129377567Y-147387617D01*
X129377572Y-147387617D01*
X129384024Y-147388989D01*
X129574998Y-147388989D01*
X129581450Y-147387617D01*
X129581455Y-147387617D01*
X129668398Y-147369136D01*
X129761799Y-147349283D01*
X129783375Y-147339677D01*
X129930233Y-147274292D01*
X129930235Y-147274291D01*
X129936263Y-147271607D01*
X129941604Y-147267726D01*
X129941610Y-147267723D01*
X129983495Y-147237292D01*
X130050362Y-147213433D01*
X130119514Y-147229514D01*
X130131615Y-147237291D01*
X130163737Y-147260629D01*
X130169765Y-147263313D01*
X130169767Y-147263314D01*
X130270159Y-147308011D01*
X130338201Y-147338305D01*
X130431601Y-147358158D01*
X130518545Y-147376639D01*
X130518550Y-147376639D01*
X130525002Y-147378011D01*
X130715976Y-147378011D01*
X130722428Y-147376639D01*
X130722433Y-147376639D01*
X130809377Y-147358158D01*
X130902777Y-147338305D01*
X130970819Y-147308011D01*
X131071211Y-147263314D01*
X131071213Y-147263313D01*
X131077241Y-147260629D01*
X131109362Y-147237292D01*
X131183423Y-147183483D01*
X131231742Y-147148377D01*
X131345225Y-147022341D01*
X131355110Y-147011363D01*
X131355111Y-147011362D01*
X131359529Y-147006455D01*
X131455016Y-146841067D01*
X131514031Y-146659439D01*
X131520235Y-146600417D01*
X131533303Y-146476076D01*
X131533993Y-146469511D01*
X131514031Y-146279583D01*
X131455016Y-146097955D01*
X131359529Y-145932567D01*
X131306386Y-145873545D01*
X131236164Y-145795556D01*
X131236163Y-145795555D01*
X131231742Y-145790645D01*
X131124471Y-145712708D01*
X131082583Y-145682274D01*
X131082582Y-145682273D01*
X131077241Y-145678393D01*
X131071213Y-145675709D01*
X131071211Y-145675708D01*
X130908808Y-145603402D01*
X130908807Y-145603402D01*
X130902777Y-145600717D01*
X130809377Y-145580864D01*
X130722433Y-145562383D01*
X130722428Y-145562383D01*
X130715976Y-145561011D01*
X130525002Y-145561011D01*
X130518550Y-145562383D01*
X130518545Y-145562383D01*
X130431601Y-145580864D01*
X130338201Y-145600717D01*
X130332171Y-145603402D01*
X130332170Y-145603402D01*
X130169767Y-145675708D01*
X130169765Y-145675709D01*
X130163737Y-145678393D01*
X130158396Y-145682274D01*
X130158390Y-145682277D01*
X130116505Y-145712708D01*
X130049638Y-145736567D01*
X129980486Y-145720486D01*
X129968385Y-145712709D01*
X129962003Y-145708073D01*
X129936263Y-145689371D01*
X129930235Y-145686687D01*
X129930233Y-145686686D01*
X129767830Y-145614380D01*
X129767829Y-145614380D01*
X129761799Y-145611695D01*
X129668399Y-145591842D01*
X129581455Y-145573361D01*
X129581450Y-145573361D01*
X129574998Y-145571989D01*
X129384024Y-145571989D01*
X129377572Y-145573361D01*
X129377567Y-145573361D01*
X129290623Y-145591842D01*
X129197223Y-145611695D01*
X129191193Y-145614380D01*
X129191192Y-145614380D01*
X129028789Y-145686686D01*
X129028787Y-145686687D01*
X129022759Y-145689371D01*
X129017418Y-145693251D01*
X129017417Y-145693252D01*
X128990637Y-145712709D01*
X128868258Y-145801623D01*
X128863837Y-145806533D01*
X128863836Y-145806534D01*
X128750356Y-145932567D01*
X128740471Y-145943545D01*
X128644984Y-146108933D01*
X128585969Y-146290561D01*
X128566007Y-146480489D01*
X110735482Y-146480489D01*
X110743993Y-146399511D01*
X110731388Y-146279583D01*
X110724721Y-146216146D01*
X110724721Y-146216144D01*
X110724031Y-146209583D01*
X110665016Y-146027955D01*
X110569529Y-145862567D01*
X110441742Y-145720645D01*
X110302351Y-145619371D01*
X110292583Y-145612274D01*
X110292582Y-145612273D01*
X110287241Y-145608393D01*
X110281213Y-145605709D01*
X110281211Y-145605708D01*
X110118808Y-145533402D01*
X110118807Y-145533402D01*
X110112777Y-145530717D01*
X110019377Y-145510864D01*
X109932433Y-145492383D01*
X109932428Y-145492383D01*
X109925976Y-145491011D01*
X109735002Y-145491011D01*
X109728550Y-145492383D01*
X109728545Y-145492383D01*
X109641601Y-145510864D01*
X109548201Y-145530717D01*
X109449884Y-145574490D01*
X109379519Y-145583924D01*
X109315222Y-145553818D01*
X109277409Y-145493729D01*
X109272637Y-145459069D01*
X109284433Y-140730000D01*
X111736496Y-140730000D01*
X111756458Y-140919928D01*
X111815473Y-141101556D01*
X111910960Y-141266944D01*
X112038747Y-141408866D01*
X112127179Y-141473116D01*
X112174143Y-141507237D01*
X112193248Y-141521118D01*
X112199276Y-141523802D01*
X112199278Y-141523803D01*
X112348333Y-141590166D01*
X112367712Y-141598794D01*
X112453966Y-141617128D01*
X112548056Y-141637128D01*
X112548061Y-141637128D01*
X112554513Y-141638500D01*
X112745487Y-141638500D01*
X112751939Y-141637128D01*
X112751944Y-141637128D01*
X112846034Y-141617128D01*
X112932288Y-141598794D01*
X112951667Y-141590166D01*
X113100722Y-141523803D01*
X113100724Y-141523802D01*
X113106752Y-141521118D01*
X113147822Y-141491279D01*
X113214690Y-141467421D01*
X113283841Y-141483502D01*
X113295943Y-141491279D01*
X113323248Y-141511118D01*
X113329276Y-141513802D01*
X113329278Y-141513803D01*
X113478333Y-141580166D01*
X113497712Y-141588794D01*
X113583966Y-141607128D01*
X113678056Y-141627128D01*
X113678061Y-141627128D01*
X113684513Y-141628500D01*
X113875487Y-141628500D01*
X113881939Y-141627128D01*
X113881944Y-141627128D01*
X113976034Y-141607128D01*
X114062288Y-141588794D01*
X114081667Y-141580166D01*
X114230722Y-141513803D01*
X114230724Y-141513802D01*
X114236752Y-141511118D01*
X114255858Y-141497237D01*
X114289057Y-141473116D01*
X114355925Y-141449258D01*
X114425076Y-141465338D01*
X114437179Y-141473116D01*
X114484144Y-141507238D01*
X114503248Y-141521118D01*
X114509276Y-141523802D01*
X114509278Y-141523803D01*
X114658333Y-141590166D01*
X114677712Y-141598794D01*
X114763966Y-141617128D01*
X114858056Y-141637128D01*
X114858061Y-141637128D01*
X114864513Y-141638500D01*
X115055487Y-141638500D01*
X115061939Y-141637128D01*
X115061944Y-141637128D01*
X115156034Y-141617128D01*
X115242288Y-141598794D01*
X115261667Y-141590166D01*
X115410722Y-141523803D01*
X115410724Y-141523802D01*
X115416752Y-141521118D01*
X115457822Y-141491279D01*
X115472822Y-141480381D01*
X115539690Y-141456523D01*
X115608841Y-141472604D01*
X115620942Y-141480381D01*
X115663248Y-141511118D01*
X115669276Y-141513802D01*
X115669278Y-141513803D01*
X115818333Y-141580166D01*
X115837712Y-141588794D01*
X115923966Y-141607128D01*
X116018056Y-141627128D01*
X116018061Y-141627128D01*
X116024513Y-141628500D01*
X116215487Y-141628500D01*
X116221939Y-141627128D01*
X116221944Y-141627128D01*
X116316034Y-141607128D01*
X116402288Y-141588794D01*
X116421667Y-141580166D01*
X116570722Y-141513803D01*
X116570724Y-141513802D01*
X116576752Y-141511118D01*
X116595858Y-141497237D01*
X116632157Y-141470864D01*
X116731253Y-141398866D01*
X116859040Y-141256944D01*
X116945449Y-141107279D01*
X116951223Y-141097279D01*
X116951224Y-141097278D01*
X116954527Y-141091556D01*
X117013542Y-140909928D01*
X117033504Y-140720000D01*
X117032453Y-140710000D01*
X132386496Y-140710000D01*
X132406458Y-140899928D01*
X132465473Y-141081556D01*
X132468776Y-141087278D01*
X132468777Y-141087279D01*
X132473391Y-141095271D01*
X132560960Y-141246944D01*
X132565378Y-141251851D01*
X132565379Y-141251852D01*
X132574383Y-141261852D01*
X132688747Y-141388866D01*
X132787179Y-141460381D01*
X132824143Y-141487237D01*
X132843248Y-141501118D01*
X132849276Y-141503802D01*
X132849278Y-141503803D01*
X132998333Y-141570166D01*
X133017712Y-141578794D01*
X133111112Y-141598647D01*
X133198056Y-141617128D01*
X133198061Y-141617128D01*
X133204513Y-141618500D01*
X133395487Y-141618500D01*
X133401939Y-141617128D01*
X133401944Y-141617128D01*
X133488888Y-141598647D01*
X133582288Y-141578794D01*
X133601667Y-141570166D01*
X133750722Y-141503803D01*
X133750724Y-141503802D01*
X133756752Y-141501118D01*
X133785294Y-141480381D01*
X133797822Y-141471279D01*
X133864690Y-141447421D01*
X133933841Y-141463502D01*
X133945943Y-141471279D01*
X133973248Y-141491118D01*
X133979276Y-141493802D01*
X133979278Y-141493803D01*
X134040629Y-141521118D01*
X134147712Y-141568794D01*
X134241113Y-141588647D01*
X134328056Y-141607128D01*
X134328061Y-141607128D01*
X134334513Y-141608500D01*
X134525487Y-141608500D01*
X134531939Y-141607128D01*
X134531944Y-141607128D01*
X134618887Y-141588647D01*
X134712288Y-141568794D01*
X134819371Y-141521118D01*
X134880722Y-141493803D01*
X134880724Y-141493802D01*
X134886752Y-141491118D01*
X134897235Y-141483502D01*
X134939057Y-141453116D01*
X135005925Y-141429258D01*
X135075076Y-141445338D01*
X135087179Y-141453116D01*
X135134144Y-141487238D01*
X135153248Y-141501118D01*
X135159276Y-141503802D01*
X135159278Y-141503803D01*
X135308333Y-141570166D01*
X135327712Y-141578794D01*
X135421112Y-141598647D01*
X135508056Y-141617128D01*
X135508061Y-141617128D01*
X135514513Y-141618500D01*
X135705487Y-141618500D01*
X135711939Y-141617128D01*
X135711944Y-141617128D01*
X135798888Y-141598647D01*
X135892288Y-141578794D01*
X135911667Y-141570166D01*
X136060722Y-141503803D01*
X136060724Y-141503802D01*
X136066752Y-141501118D01*
X136098129Y-141478321D01*
X136122822Y-141460381D01*
X136189690Y-141436523D01*
X136258841Y-141452604D01*
X136270942Y-141460381D01*
X136313248Y-141491118D01*
X136319276Y-141493802D01*
X136319278Y-141493803D01*
X136380629Y-141521118D01*
X136487712Y-141568794D01*
X136581113Y-141588647D01*
X136668056Y-141607128D01*
X136668061Y-141607128D01*
X136674513Y-141608500D01*
X136865487Y-141608500D01*
X136871939Y-141607128D01*
X136871944Y-141607128D01*
X136958887Y-141588647D01*
X137052288Y-141568794D01*
X137159371Y-141521118D01*
X137220722Y-141493803D01*
X137220724Y-141493802D01*
X137226752Y-141491118D01*
X137237235Y-141483502D01*
X137284367Y-141449258D01*
X137381253Y-141378866D01*
X137486613Y-141261852D01*
X137504621Y-141241852D01*
X137504622Y-141241851D01*
X137509040Y-141236944D01*
X137583902Y-141107279D01*
X137601223Y-141077279D01*
X137601224Y-141077278D01*
X137604527Y-141071556D01*
X137663542Y-140889928D01*
X137682453Y-140710000D01*
X151506496Y-140710000D01*
X151526458Y-140899928D01*
X151585473Y-141081556D01*
X151588776Y-141087278D01*
X151588777Y-141087279D01*
X151593391Y-141095271D01*
X151680960Y-141246944D01*
X151685378Y-141251851D01*
X151685379Y-141251852D01*
X151694383Y-141261852D01*
X151808747Y-141388866D01*
X151907179Y-141460381D01*
X151944143Y-141487237D01*
X151963248Y-141501118D01*
X151969276Y-141503802D01*
X151969278Y-141503803D01*
X152118333Y-141570166D01*
X152137712Y-141578794D01*
X152231112Y-141598647D01*
X152318056Y-141617128D01*
X152318061Y-141617128D01*
X152324513Y-141618500D01*
X152515487Y-141618500D01*
X152521939Y-141617128D01*
X152521944Y-141617128D01*
X152608888Y-141598647D01*
X152702288Y-141578794D01*
X152721667Y-141570166D01*
X152870722Y-141503803D01*
X152870724Y-141503802D01*
X152876752Y-141501118D01*
X152905294Y-141480381D01*
X152917822Y-141471279D01*
X152984690Y-141447421D01*
X153053841Y-141463502D01*
X153065943Y-141471279D01*
X153093248Y-141491118D01*
X153099276Y-141493802D01*
X153099278Y-141493803D01*
X153160629Y-141521118D01*
X153267712Y-141568794D01*
X153361113Y-141588647D01*
X153448056Y-141607128D01*
X153448061Y-141607128D01*
X153454513Y-141608500D01*
X153645487Y-141608500D01*
X153651939Y-141607128D01*
X153651944Y-141607128D01*
X153738887Y-141588647D01*
X153832288Y-141568794D01*
X153939371Y-141521118D01*
X154000722Y-141493803D01*
X154000724Y-141493802D01*
X154006752Y-141491118D01*
X154017235Y-141483502D01*
X154059057Y-141453116D01*
X154125925Y-141429258D01*
X154195076Y-141445338D01*
X154207179Y-141453116D01*
X154254144Y-141487238D01*
X154273248Y-141501118D01*
X154279276Y-141503802D01*
X154279278Y-141503803D01*
X154428333Y-141570166D01*
X154447712Y-141578794D01*
X154541112Y-141598647D01*
X154628056Y-141617128D01*
X154628061Y-141617128D01*
X154634513Y-141618500D01*
X154825487Y-141618500D01*
X154831939Y-141617128D01*
X154831944Y-141617128D01*
X154918888Y-141598647D01*
X155012288Y-141578794D01*
X155031667Y-141570166D01*
X155180722Y-141503803D01*
X155180724Y-141503802D01*
X155186752Y-141501118D01*
X155218129Y-141478321D01*
X155242822Y-141460381D01*
X155309690Y-141436523D01*
X155378841Y-141452604D01*
X155390942Y-141460381D01*
X155433248Y-141491118D01*
X155439276Y-141493802D01*
X155439278Y-141493803D01*
X155500629Y-141521118D01*
X155607712Y-141568794D01*
X155701113Y-141588647D01*
X155788056Y-141607128D01*
X155788061Y-141607128D01*
X155794513Y-141608500D01*
X155985487Y-141608500D01*
X155991939Y-141607128D01*
X155991944Y-141607128D01*
X156078887Y-141588647D01*
X156172288Y-141568794D01*
X156279371Y-141521118D01*
X156340722Y-141493803D01*
X156340724Y-141493802D01*
X156346752Y-141491118D01*
X156357235Y-141483502D01*
X156404367Y-141449258D01*
X156501253Y-141378866D01*
X156606613Y-141261852D01*
X156624621Y-141241852D01*
X156624622Y-141241851D01*
X156629040Y-141236944D01*
X156703902Y-141107279D01*
X156721223Y-141077279D01*
X156721224Y-141077278D01*
X156724527Y-141071556D01*
X156783542Y-140889928D01*
X156803504Y-140700000D01*
X156783542Y-140510072D01*
X156724527Y-140328444D01*
X156629040Y-140163056D01*
X156501253Y-140021134D01*
X156370584Y-139926197D01*
X156352094Y-139912763D01*
X156352093Y-139912762D01*
X156346752Y-139908882D01*
X156340724Y-139906198D01*
X156340722Y-139906197D01*
X156178319Y-139833891D01*
X156178318Y-139833891D01*
X156172288Y-139831206D01*
X156078888Y-139811353D01*
X155991944Y-139792872D01*
X155991939Y-139792872D01*
X155985487Y-139791500D01*
X155794513Y-139791500D01*
X155788061Y-139792872D01*
X155788056Y-139792872D01*
X155701112Y-139811353D01*
X155607712Y-139831206D01*
X155601682Y-139833891D01*
X155601681Y-139833891D01*
X155439278Y-139906197D01*
X155439276Y-139906198D01*
X155433248Y-139908882D01*
X155409416Y-139926197D01*
X155377178Y-139949619D01*
X155310310Y-139973477D01*
X155241159Y-139957396D01*
X155229058Y-139949619D01*
X155210584Y-139936197D01*
X155186752Y-139918882D01*
X155180724Y-139916198D01*
X155180722Y-139916197D01*
X155018319Y-139843891D01*
X155018318Y-139843891D01*
X155012288Y-139841206D01*
X154918887Y-139821353D01*
X154831944Y-139802872D01*
X154831939Y-139802872D01*
X154825487Y-139801500D01*
X154634513Y-139801500D01*
X154628061Y-139802872D01*
X154628056Y-139802872D01*
X154541113Y-139821353D01*
X154447712Y-139841206D01*
X154441682Y-139843891D01*
X154441681Y-139843891D01*
X154279278Y-139916197D01*
X154279276Y-139916198D01*
X154273248Y-139918882D01*
X154267907Y-139922762D01*
X154267906Y-139922763D01*
X154220943Y-139956884D01*
X154154075Y-139980742D01*
X154084924Y-139964662D01*
X154072821Y-139956884D01*
X154012094Y-139912763D01*
X154012093Y-139912762D01*
X154006752Y-139908882D01*
X154000724Y-139906198D01*
X154000722Y-139906197D01*
X153838319Y-139833891D01*
X153838318Y-139833891D01*
X153832288Y-139831206D01*
X153738888Y-139811353D01*
X153651944Y-139792872D01*
X153651939Y-139792872D01*
X153645487Y-139791500D01*
X153454513Y-139791500D01*
X153448061Y-139792872D01*
X153448056Y-139792872D01*
X153361112Y-139811353D01*
X153267712Y-139831206D01*
X153261682Y-139833891D01*
X153261681Y-139833891D01*
X153099278Y-139906197D01*
X153099276Y-139906198D01*
X153093248Y-139908882D01*
X153069416Y-139926197D01*
X153052178Y-139938721D01*
X152985310Y-139962579D01*
X152916159Y-139946498D01*
X152904058Y-139938721D01*
X152886820Y-139926197D01*
X152876752Y-139918882D01*
X152870724Y-139916198D01*
X152870722Y-139916197D01*
X152708319Y-139843891D01*
X152708318Y-139843891D01*
X152702288Y-139841206D01*
X152608887Y-139821353D01*
X152521944Y-139802872D01*
X152521939Y-139802872D01*
X152515487Y-139801500D01*
X152324513Y-139801500D01*
X152318061Y-139802872D01*
X152318056Y-139802872D01*
X152231113Y-139821353D01*
X152137712Y-139841206D01*
X152131682Y-139843891D01*
X152131681Y-139843891D01*
X151969278Y-139916197D01*
X151969276Y-139916198D01*
X151963248Y-139918882D01*
X151957907Y-139922762D01*
X151957906Y-139922763D01*
X151939416Y-139936197D01*
X151808747Y-140031134D01*
X151680960Y-140173056D01*
X151672247Y-140188148D01*
X151591247Y-140328444D01*
X151585473Y-140338444D01*
X151526458Y-140520072D01*
X151506496Y-140710000D01*
X137682453Y-140710000D01*
X137683504Y-140700000D01*
X137663542Y-140510072D01*
X137604527Y-140328444D01*
X137509040Y-140163056D01*
X137381253Y-140021134D01*
X137250584Y-139926197D01*
X137232094Y-139912763D01*
X137232093Y-139912762D01*
X137226752Y-139908882D01*
X137220724Y-139906198D01*
X137220722Y-139906197D01*
X137058319Y-139833891D01*
X137058318Y-139833891D01*
X137052288Y-139831206D01*
X136958888Y-139811353D01*
X136871944Y-139792872D01*
X136871939Y-139792872D01*
X136865487Y-139791500D01*
X136674513Y-139791500D01*
X136668061Y-139792872D01*
X136668056Y-139792872D01*
X136581112Y-139811353D01*
X136487712Y-139831206D01*
X136481682Y-139833891D01*
X136481681Y-139833891D01*
X136319278Y-139906197D01*
X136319276Y-139906198D01*
X136313248Y-139908882D01*
X136289416Y-139926197D01*
X136257178Y-139949619D01*
X136190310Y-139973477D01*
X136121159Y-139957396D01*
X136109058Y-139949619D01*
X136090584Y-139936197D01*
X136066752Y-139918882D01*
X136060724Y-139916198D01*
X136060722Y-139916197D01*
X135898319Y-139843891D01*
X135898318Y-139843891D01*
X135892288Y-139841206D01*
X135798887Y-139821353D01*
X135711944Y-139802872D01*
X135711939Y-139802872D01*
X135705487Y-139801500D01*
X135514513Y-139801500D01*
X135508061Y-139802872D01*
X135508056Y-139802872D01*
X135421113Y-139821353D01*
X135327712Y-139841206D01*
X135321682Y-139843891D01*
X135321681Y-139843891D01*
X135159278Y-139916197D01*
X135159276Y-139916198D01*
X135153248Y-139918882D01*
X135147907Y-139922762D01*
X135147906Y-139922763D01*
X135100943Y-139956884D01*
X135034075Y-139980742D01*
X134964924Y-139964662D01*
X134952821Y-139956884D01*
X134892094Y-139912763D01*
X134892093Y-139912762D01*
X134886752Y-139908882D01*
X134880724Y-139906198D01*
X134880722Y-139906197D01*
X134718319Y-139833891D01*
X134718318Y-139833891D01*
X134712288Y-139831206D01*
X134618888Y-139811353D01*
X134531944Y-139792872D01*
X134531939Y-139792872D01*
X134525487Y-139791500D01*
X134334513Y-139791500D01*
X134328061Y-139792872D01*
X134328056Y-139792872D01*
X134241112Y-139811353D01*
X134147712Y-139831206D01*
X134141682Y-139833891D01*
X134141681Y-139833891D01*
X133979278Y-139906197D01*
X133979276Y-139906198D01*
X133973248Y-139908882D01*
X133949416Y-139926197D01*
X133932178Y-139938721D01*
X133865310Y-139962579D01*
X133796159Y-139946498D01*
X133784058Y-139938721D01*
X133766820Y-139926197D01*
X133756752Y-139918882D01*
X133750724Y-139916198D01*
X133750722Y-139916197D01*
X133588319Y-139843891D01*
X133588318Y-139843891D01*
X133582288Y-139841206D01*
X133488887Y-139821353D01*
X133401944Y-139802872D01*
X133401939Y-139802872D01*
X133395487Y-139801500D01*
X133204513Y-139801500D01*
X133198061Y-139802872D01*
X133198056Y-139802872D01*
X133111113Y-139821353D01*
X133017712Y-139841206D01*
X133011682Y-139843891D01*
X133011681Y-139843891D01*
X132849278Y-139916197D01*
X132849276Y-139916198D01*
X132843248Y-139918882D01*
X132837907Y-139922762D01*
X132837906Y-139922763D01*
X132819416Y-139936197D01*
X132688747Y-140031134D01*
X132560960Y-140173056D01*
X132552247Y-140188148D01*
X132471247Y-140328444D01*
X132465473Y-140338444D01*
X132406458Y-140520072D01*
X132386496Y-140710000D01*
X117032453Y-140710000D01*
X117013542Y-140530072D01*
X116954527Y-140348444D01*
X116948754Y-140338444D01*
X116868115Y-140198774D01*
X116859040Y-140183056D01*
X116846181Y-140168774D01*
X116735675Y-140046045D01*
X116735674Y-140046044D01*
X116731253Y-140041134D01*
X116600998Y-139946498D01*
X116582094Y-139932763D01*
X116582093Y-139932762D01*
X116576752Y-139928882D01*
X116570724Y-139926198D01*
X116570722Y-139926197D01*
X116408319Y-139853891D01*
X116408318Y-139853891D01*
X116402288Y-139851206D01*
X116301741Y-139829834D01*
X116221944Y-139812872D01*
X116221939Y-139812872D01*
X116215487Y-139811500D01*
X116024513Y-139811500D01*
X116018061Y-139812872D01*
X116018056Y-139812872D01*
X115938259Y-139829834D01*
X115837712Y-139851206D01*
X115831682Y-139853891D01*
X115831681Y-139853891D01*
X115669278Y-139926197D01*
X115669276Y-139926198D01*
X115663248Y-139928882D01*
X115639002Y-139946498D01*
X115607178Y-139969619D01*
X115540310Y-139993477D01*
X115471159Y-139977396D01*
X115459058Y-139969619D01*
X115431530Y-139949619D01*
X115416752Y-139938882D01*
X115410724Y-139936198D01*
X115410722Y-139936197D01*
X115248319Y-139863891D01*
X115248318Y-139863891D01*
X115242288Y-139861206D01*
X115141741Y-139839834D01*
X115061944Y-139822872D01*
X115061939Y-139822872D01*
X115055487Y-139821500D01*
X114864513Y-139821500D01*
X114858061Y-139822872D01*
X114858056Y-139822872D01*
X114778259Y-139839834D01*
X114677712Y-139861206D01*
X114671682Y-139863891D01*
X114671681Y-139863891D01*
X114509278Y-139936197D01*
X114509276Y-139936198D01*
X114503248Y-139938882D01*
X114497907Y-139942762D01*
X114497906Y-139942763D01*
X114450943Y-139976884D01*
X114384075Y-140000742D01*
X114314924Y-139984662D01*
X114302821Y-139976884D01*
X114242094Y-139932763D01*
X114242093Y-139932762D01*
X114236752Y-139928882D01*
X114230724Y-139926198D01*
X114230722Y-139926197D01*
X114068319Y-139853891D01*
X114068318Y-139853891D01*
X114062288Y-139851206D01*
X113961741Y-139829834D01*
X113881944Y-139812872D01*
X113881939Y-139812872D01*
X113875487Y-139811500D01*
X113684513Y-139811500D01*
X113678061Y-139812872D01*
X113678056Y-139812872D01*
X113598259Y-139829834D01*
X113497712Y-139851206D01*
X113491682Y-139853891D01*
X113491681Y-139853891D01*
X113329278Y-139926197D01*
X113329276Y-139926198D01*
X113323248Y-139928882D01*
X113299002Y-139946498D01*
X113282178Y-139958721D01*
X113215310Y-139982579D01*
X113146159Y-139966498D01*
X113134058Y-139958721D01*
X113117234Y-139946498D01*
X113106752Y-139938882D01*
X113100724Y-139936198D01*
X113100722Y-139936197D01*
X112938319Y-139863891D01*
X112938318Y-139863891D01*
X112932288Y-139861206D01*
X112831741Y-139839834D01*
X112751944Y-139822872D01*
X112751939Y-139822872D01*
X112745487Y-139821500D01*
X112554513Y-139821500D01*
X112548061Y-139822872D01*
X112548056Y-139822872D01*
X112468259Y-139839834D01*
X112367712Y-139861206D01*
X112361682Y-139863891D01*
X112361681Y-139863891D01*
X112199278Y-139936197D01*
X112199276Y-139936198D01*
X112193248Y-139938882D01*
X112187907Y-139942762D01*
X112187906Y-139942763D01*
X112178470Y-139949619D01*
X112038747Y-140051134D01*
X112034326Y-140056044D01*
X112034325Y-140056045D01*
X111923820Y-140178774D01*
X111910960Y-140193056D01*
X111907659Y-140198774D01*
X111821247Y-140348444D01*
X111815473Y-140358444D01*
X111756458Y-140540072D01*
X111736496Y-140730000D01*
X109284433Y-140730000D01*
X109292366Y-137550000D01*
X120406496Y-137550000D01*
X120426458Y-137739928D01*
X120485473Y-137921556D01*
X120580960Y-138086944D01*
X120708747Y-138228866D01*
X120863248Y-138341118D01*
X120869276Y-138343802D01*
X120869278Y-138343803D01*
X121031681Y-138416109D01*
X121037712Y-138418794D01*
X121123966Y-138437128D01*
X121218056Y-138457128D01*
X121218061Y-138457128D01*
X121224513Y-138458500D01*
X121415487Y-138458500D01*
X121421939Y-138457128D01*
X121421944Y-138457128D01*
X121516034Y-138437128D01*
X121602288Y-138418794D01*
X121608319Y-138416109D01*
X121770722Y-138343803D01*
X121770724Y-138343802D01*
X121776752Y-138341118D01*
X121931253Y-138228866D01*
X122059040Y-138086944D01*
X122154527Y-137921556D01*
X122213542Y-137739928D01*
X122233504Y-137550000D01*
X122231402Y-137530000D01*
X141056496Y-137530000D01*
X141076458Y-137719928D01*
X141135473Y-137901556D01*
X141230960Y-138066944D01*
X141235378Y-138071851D01*
X141235379Y-138071852D01*
X141248968Y-138086944D01*
X141358747Y-138208866D01*
X141513248Y-138321118D01*
X141519276Y-138323802D01*
X141519278Y-138323803D01*
X141681681Y-138396109D01*
X141687712Y-138398794D01*
X141781112Y-138418647D01*
X141868056Y-138437128D01*
X141868061Y-138437128D01*
X141874513Y-138438500D01*
X142065487Y-138438500D01*
X142071939Y-138437128D01*
X142071944Y-138437128D01*
X142158888Y-138418647D01*
X142252288Y-138398794D01*
X142258319Y-138396109D01*
X142420722Y-138323803D01*
X142420724Y-138323802D01*
X142426752Y-138321118D01*
X142581253Y-138208866D01*
X142691032Y-138086944D01*
X142704621Y-138071852D01*
X142704622Y-138071851D01*
X142709040Y-138066944D01*
X142804527Y-137901556D01*
X142863542Y-137719928D01*
X142883504Y-137530000D01*
X160176496Y-137530000D01*
X160196458Y-137719928D01*
X160255473Y-137901556D01*
X160350960Y-138066944D01*
X160355378Y-138071851D01*
X160355379Y-138071852D01*
X160368968Y-138086944D01*
X160478747Y-138208866D01*
X160633248Y-138321118D01*
X160639276Y-138323802D01*
X160639278Y-138323803D01*
X160801681Y-138396109D01*
X160807712Y-138398794D01*
X160901112Y-138418647D01*
X160988056Y-138437128D01*
X160988061Y-138437128D01*
X160994513Y-138438500D01*
X161185487Y-138438500D01*
X161191939Y-138437128D01*
X161191944Y-138437128D01*
X161278888Y-138418647D01*
X161372288Y-138398794D01*
X161378319Y-138396109D01*
X161540722Y-138323803D01*
X161540724Y-138323802D01*
X161546752Y-138321118D01*
X161701253Y-138208866D01*
X161811032Y-138086944D01*
X161824621Y-138071852D01*
X161824622Y-138071851D01*
X161829040Y-138066944D01*
X161924527Y-137901556D01*
X161983542Y-137719928D01*
X162003504Y-137530000D01*
X161983542Y-137340072D01*
X161924527Y-137158444D01*
X161829040Y-136993056D01*
X161701253Y-136851134D01*
X161546752Y-136738882D01*
X161540724Y-136736198D01*
X161540722Y-136736197D01*
X161378319Y-136663891D01*
X161378318Y-136663891D01*
X161372288Y-136661206D01*
X161278887Y-136641353D01*
X161191944Y-136622872D01*
X161191939Y-136622872D01*
X161185487Y-136621500D01*
X160994513Y-136621500D01*
X160988061Y-136622872D01*
X160988056Y-136622872D01*
X160901113Y-136641353D01*
X160807712Y-136661206D01*
X160801682Y-136663891D01*
X160801681Y-136663891D01*
X160639278Y-136736197D01*
X160639276Y-136736198D01*
X160633248Y-136738882D01*
X160478747Y-136851134D01*
X160350960Y-136993056D01*
X160255473Y-137158444D01*
X160196458Y-137340072D01*
X160176496Y-137530000D01*
X142883504Y-137530000D01*
X142863542Y-137340072D01*
X142804527Y-137158444D01*
X142709040Y-136993056D01*
X142581253Y-136851134D01*
X142426752Y-136738882D01*
X142420724Y-136736198D01*
X142420722Y-136736197D01*
X142258319Y-136663891D01*
X142258318Y-136663891D01*
X142252288Y-136661206D01*
X142158887Y-136641353D01*
X142071944Y-136622872D01*
X142071939Y-136622872D01*
X142065487Y-136621500D01*
X141874513Y-136621500D01*
X141868061Y-136622872D01*
X141868056Y-136622872D01*
X141781113Y-136641353D01*
X141687712Y-136661206D01*
X141681682Y-136663891D01*
X141681681Y-136663891D01*
X141519278Y-136736197D01*
X141519276Y-136736198D01*
X141513248Y-136738882D01*
X141358747Y-136851134D01*
X141230960Y-136993056D01*
X141135473Y-137158444D01*
X141076458Y-137340072D01*
X141056496Y-137530000D01*
X122231402Y-137530000D01*
X122213542Y-137360072D01*
X122154527Y-137178444D01*
X122059040Y-137013056D01*
X122046181Y-136998774D01*
X121935675Y-136876045D01*
X121935674Y-136876044D01*
X121931253Y-136871134D01*
X121776752Y-136758882D01*
X121770724Y-136756198D01*
X121770722Y-136756197D01*
X121608319Y-136683891D01*
X121608318Y-136683891D01*
X121602288Y-136681206D01*
X121508196Y-136661206D01*
X121421944Y-136642872D01*
X121421939Y-136642872D01*
X121415487Y-136641500D01*
X121224513Y-136641500D01*
X121218061Y-136642872D01*
X121218056Y-136642872D01*
X121131804Y-136661206D01*
X121037712Y-136681206D01*
X121031682Y-136683891D01*
X121031681Y-136683891D01*
X120869278Y-136756197D01*
X120869276Y-136756198D01*
X120863248Y-136758882D01*
X120708747Y-136871134D01*
X120704326Y-136876044D01*
X120704325Y-136876045D01*
X120593820Y-136998774D01*
X120580960Y-137013056D01*
X120485473Y-137178444D01*
X120426458Y-137360072D01*
X120406496Y-137550000D01*
X109292366Y-137550000D01*
X109295010Y-136490000D01*
X110106496Y-136490000D01*
X110126458Y-136679928D01*
X110185473Y-136861556D01*
X110280960Y-137026944D01*
X110408747Y-137168866D01*
X110563248Y-137281118D01*
X110569276Y-137283802D01*
X110569278Y-137283803D01*
X110731681Y-137356109D01*
X110737712Y-137358794D01*
X110823966Y-137377128D01*
X110918056Y-137397128D01*
X110918061Y-137397128D01*
X110924513Y-137398500D01*
X111115487Y-137398500D01*
X111121939Y-137397128D01*
X111121944Y-137397128D01*
X111216034Y-137377128D01*
X111302288Y-137358794D01*
X111308319Y-137356109D01*
X111470722Y-137283803D01*
X111470724Y-137283802D01*
X111476752Y-137281118D01*
X111631253Y-137168866D01*
X111759040Y-137026944D01*
X111854527Y-136861556D01*
X111913542Y-136679928D01*
X111933504Y-136490000D01*
X111931402Y-136470000D01*
X130756496Y-136470000D01*
X130776458Y-136659928D01*
X130835473Y-136841556D01*
X130930960Y-137006944D01*
X130935378Y-137011851D01*
X130935379Y-137011852D01*
X130948968Y-137026944D01*
X131058747Y-137148866D01*
X131213248Y-137261118D01*
X131219276Y-137263802D01*
X131219278Y-137263803D01*
X131381681Y-137336109D01*
X131387712Y-137338794D01*
X131481113Y-137358647D01*
X131568056Y-137377128D01*
X131568061Y-137377128D01*
X131574513Y-137378500D01*
X131765487Y-137378500D01*
X131771939Y-137377128D01*
X131771944Y-137377128D01*
X131858887Y-137358647D01*
X131952288Y-137338794D01*
X131958319Y-137336109D01*
X132120722Y-137263803D01*
X132120724Y-137263802D01*
X132126752Y-137261118D01*
X132281253Y-137148866D01*
X132391032Y-137026944D01*
X132404621Y-137011852D01*
X132404622Y-137011851D01*
X132409040Y-137006944D01*
X132504527Y-136841556D01*
X132563542Y-136659928D01*
X132583504Y-136470000D01*
X149876496Y-136470000D01*
X149896458Y-136659928D01*
X149955473Y-136841556D01*
X150050960Y-137006944D01*
X150055378Y-137011851D01*
X150055379Y-137011852D01*
X150068968Y-137026944D01*
X150178747Y-137148866D01*
X150333248Y-137261118D01*
X150339276Y-137263802D01*
X150339278Y-137263803D01*
X150501681Y-137336109D01*
X150507712Y-137338794D01*
X150601113Y-137358647D01*
X150688056Y-137377128D01*
X150688061Y-137377128D01*
X150694513Y-137378500D01*
X150885487Y-137378500D01*
X150891939Y-137377128D01*
X150891944Y-137377128D01*
X150978887Y-137358647D01*
X151072288Y-137338794D01*
X151078319Y-137336109D01*
X151240722Y-137263803D01*
X151240724Y-137263802D01*
X151246752Y-137261118D01*
X151401253Y-137148866D01*
X151511032Y-137026944D01*
X151524621Y-137011852D01*
X151524622Y-137011851D01*
X151529040Y-137006944D01*
X151624527Y-136841556D01*
X151683542Y-136659928D01*
X151703504Y-136470000D01*
X151683542Y-136280072D01*
X151624527Y-136098444D01*
X151529040Y-135933056D01*
X151401253Y-135791134D01*
X151246752Y-135678882D01*
X151240724Y-135676198D01*
X151240722Y-135676197D01*
X151078319Y-135603891D01*
X151078318Y-135603891D01*
X151072288Y-135601206D01*
X150978887Y-135581353D01*
X150891944Y-135562872D01*
X150891939Y-135562872D01*
X150885487Y-135561500D01*
X150694513Y-135561500D01*
X150688061Y-135562872D01*
X150688056Y-135562872D01*
X150601113Y-135581353D01*
X150507712Y-135601206D01*
X150501682Y-135603891D01*
X150501681Y-135603891D01*
X150339278Y-135676197D01*
X150339276Y-135676198D01*
X150333248Y-135678882D01*
X150178747Y-135791134D01*
X150050960Y-135933056D01*
X149955473Y-136098444D01*
X149896458Y-136280072D01*
X149876496Y-136470000D01*
X132583504Y-136470000D01*
X132563542Y-136280072D01*
X132504527Y-136098444D01*
X132409040Y-135933056D01*
X132281253Y-135791134D01*
X132126752Y-135678882D01*
X132120724Y-135676198D01*
X132120722Y-135676197D01*
X131958319Y-135603891D01*
X131958318Y-135603891D01*
X131952288Y-135601206D01*
X131858887Y-135581353D01*
X131771944Y-135562872D01*
X131771939Y-135562872D01*
X131765487Y-135561500D01*
X131574513Y-135561500D01*
X131568061Y-135562872D01*
X131568056Y-135562872D01*
X131481113Y-135581353D01*
X131387712Y-135601206D01*
X131381682Y-135603891D01*
X131381681Y-135603891D01*
X131219278Y-135676197D01*
X131219276Y-135676198D01*
X131213248Y-135678882D01*
X131058747Y-135791134D01*
X130930960Y-135933056D01*
X130835473Y-136098444D01*
X130776458Y-136280072D01*
X130756496Y-136470000D01*
X111931402Y-136470000D01*
X111913542Y-136300072D01*
X111854527Y-136118444D01*
X111759040Y-135953056D01*
X111746181Y-135938774D01*
X111635675Y-135816045D01*
X111635674Y-135816044D01*
X111631253Y-135811134D01*
X111476752Y-135698882D01*
X111470724Y-135696198D01*
X111470722Y-135696197D01*
X111308319Y-135623891D01*
X111308318Y-135623891D01*
X111302288Y-135621206D01*
X111201741Y-135599834D01*
X111121944Y-135582872D01*
X111121939Y-135582872D01*
X111115487Y-135581500D01*
X110924513Y-135581500D01*
X110918061Y-135582872D01*
X110918056Y-135582872D01*
X110838259Y-135599834D01*
X110737712Y-135621206D01*
X110731682Y-135623891D01*
X110731681Y-135623891D01*
X110569278Y-135696197D01*
X110569276Y-135696198D01*
X110563248Y-135698882D01*
X110408747Y-135811134D01*
X110404326Y-135816044D01*
X110404325Y-135816045D01*
X110293820Y-135938774D01*
X110280960Y-135953056D01*
X110185473Y-136118444D01*
X110126458Y-136300072D01*
X110106496Y-136490000D01*
X109295010Y-136490000D01*
X109301845Y-133750000D01*
X111676496Y-133750000D01*
X111696458Y-133939928D01*
X111755473Y-134121556D01*
X111850960Y-134286944D01*
X111978747Y-134428866D01*
X112067179Y-134493116D01*
X112114143Y-134527237D01*
X112133248Y-134541118D01*
X112139276Y-134543802D01*
X112139278Y-134543803D01*
X112288333Y-134610166D01*
X112307712Y-134618794D01*
X112393966Y-134637128D01*
X112488056Y-134657128D01*
X112488061Y-134657128D01*
X112494513Y-134658500D01*
X112685487Y-134658500D01*
X112691939Y-134657128D01*
X112691944Y-134657128D01*
X112786034Y-134637128D01*
X112872288Y-134618794D01*
X112891667Y-134610166D01*
X113040722Y-134543803D01*
X113040724Y-134543802D01*
X113046752Y-134541118D01*
X113087822Y-134511279D01*
X113154690Y-134487421D01*
X113223841Y-134503502D01*
X113235943Y-134511279D01*
X113263248Y-134531118D01*
X113269276Y-134533802D01*
X113269278Y-134533803D01*
X113418333Y-134600166D01*
X113437712Y-134608794D01*
X113523966Y-134627128D01*
X113618056Y-134647128D01*
X113618061Y-134647128D01*
X113624513Y-134648500D01*
X113815487Y-134648500D01*
X113821939Y-134647128D01*
X113821944Y-134647128D01*
X113916034Y-134627128D01*
X114002288Y-134608794D01*
X114021667Y-134600166D01*
X114170722Y-134533803D01*
X114170724Y-134533802D01*
X114176752Y-134531118D01*
X114195858Y-134517237D01*
X114229057Y-134493116D01*
X114295925Y-134469258D01*
X114365076Y-134485338D01*
X114377179Y-134493116D01*
X114424144Y-134527238D01*
X114443248Y-134541118D01*
X114449276Y-134543802D01*
X114449278Y-134543803D01*
X114598333Y-134610166D01*
X114617712Y-134618794D01*
X114703966Y-134637128D01*
X114798056Y-134657128D01*
X114798061Y-134657128D01*
X114804513Y-134658500D01*
X114995487Y-134658500D01*
X115001939Y-134657128D01*
X115001944Y-134657128D01*
X115096034Y-134637128D01*
X115182288Y-134618794D01*
X115201667Y-134610166D01*
X115350722Y-134543803D01*
X115350724Y-134543802D01*
X115356752Y-134541118D01*
X115397822Y-134511279D01*
X115412822Y-134500381D01*
X115479690Y-134476523D01*
X115548841Y-134492604D01*
X115560942Y-134500381D01*
X115603248Y-134531118D01*
X115609276Y-134533802D01*
X115609278Y-134533803D01*
X115758333Y-134600166D01*
X115777712Y-134608794D01*
X115863966Y-134627128D01*
X115958056Y-134647128D01*
X115958061Y-134647128D01*
X115964513Y-134648500D01*
X116155487Y-134648500D01*
X116161939Y-134647128D01*
X116161944Y-134647128D01*
X116256034Y-134627128D01*
X116342288Y-134608794D01*
X116361667Y-134600166D01*
X116510722Y-134533803D01*
X116510724Y-134533802D01*
X116516752Y-134531118D01*
X116535858Y-134517237D01*
X116572157Y-134490864D01*
X116671253Y-134418866D01*
X116799040Y-134276944D01*
X116885449Y-134127279D01*
X116891223Y-134117279D01*
X116891224Y-134117278D01*
X116894527Y-134111556D01*
X116953542Y-133929928D01*
X116973504Y-133740000D01*
X116972453Y-133730000D01*
X132326496Y-133730000D01*
X132346458Y-133919928D01*
X132405473Y-134101556D01*
X132408776Y-134107278D01*
X132408777Y-134107279D01*
X132413391Y-134115271D01*
X132500960Y-134266944D01*
X132505378Y-134271851D01*
X132505379Y-134271852D01*
X132514383Y-134281852D01*
X132628747Y-134408866D01*
X132727179Y-134480381D01*
X132764143Y-134507237D01*
X132783248Y-134521118D01*
X132789276Y-134523802D01*
X132789278Y-134523803D01*
X132938333Y-134590166D01*
X132957712Y-134598794D01*
X133051113Y-134618647D01*
X133138056Y-134637128D01*
X133138061Y-134637128D01*
X133144513Y-134638500D01*
X133335487Y-134638500D01*
X133341939Y-134637128D01*
X133341944Y-134637128D01*
X133428887Y-134618647D01*
X133522288Y-134598794D01*
X133541667Y-134590166D01*
X133690722Y-134523803D01*
X133690724Y-134523802D01*
X133696752Y-134521118D01*
X133725294Y-134500381D01*
X133737822Y-134491279D01*
X133804690Y-134467421D01*
X133873841Y-134483502D01*
X133885943Y-134491279D01*
X133913248Y-134511118D01*
X133919276Y-134513802D01*
X133919278Y-134513803D01*
X133980629Y-134541118D01*
X134087712Y-134588794D01*
X134181112Y-134608647D01*
X134268056Y-134627128D01*
X134268061Y-134627128D01*
X134274513Y-134628500D01*
X134465487Y-134628500D01*
X134471939Y-134627128D01*
X134471944Y-134627128D01*
X134558888Y-134608647D01*
X134652288Y-134588794D01*
X134759371Y-134541118D01*
X134820722Y-134513803D01*
X134820724Y-134513802D01*
X134826752Y-134511118D01*
X134837235Y-134503502D01*
X134879057Y-134473116D01*
X134945925Y-134449258D01*
X135015076Y-134465338D01*
X135027179Y-134473116D01*
X135074144Y-134507238D01*
X135093248Y-134521118D01*
X135099276Y-134523802D01*
X135099278Y-134523803D01*
X135248333Y-134590166D01*
X135267712Y-134598794D01*
X135361113Y-134618647D01*
X135448056Y-134637128D01*
X135448061Y-134637128D01*
X135454513Y-134638500D01*
X135645487Y-134638500D01*
X135651939Y-134637128D01*
X135651944Y-134637128D01*
X135738887Y-134618647D01*
X135832288Y-134598794D01*
X135851667Y-134590166D01*
X136000722Y-134523803D01*
X136000724Y-134523802D01*
X136006752Y-134521118D01*
X136038129Y-134498321D01*
X136062822Y-134480381D01*
X136129690Y-134456523D01*
X136198841Y-134472604D01*
X136210942Y-134480381D01*
X136253248Y-134511118D01*
X136259276Y-134513802D01*
X136259278Y-134513803D01*
X136320629Y-134541118D01*
X136427712Y-134588794D01*
X136521112Y-134608647D01*
X136608056Y-134627128D01*
X136608061Y-134627128D01*
X136614513Y-134628500D01*
X136805487Y-134628500D01*
X136811939Y-134627128D01*
X136811944Y-134627128D01*
X136898888Y-134608647D01*
X136992288Y-134588794D01*
X137099371Y-134541118D01*
X137160722Y-134513803D01*
X137160724Y-134513802D01*
X137166752Y-134511118D01*
X137177235Y-134503502D01*
X137224367Y-134469258D01*
X137321253Y-134398866D01*
X137426613Y-134281852D01*
X137444621Y-134261852D01*
X137444622Y-134261851D01*
X137449040Y-134256944D01*
X137523902Y-134127279D01*
X137541223Y-134097279D01*
X137541224Y-134097278D01*
X137544527Y-134091556D01*
X137603542Y-133909928D01*
X137622453Y-133730000D01*
X151446496Y-133730000D01*
X151466458Y-133919928D01*
X151525473Y-134101556D01*
X151528776Y-134107278D01*
X151528777Y-134107279D01*
X151533391Y-134115271D01*
X151620960Y-134266944D01*
X151625378Y-134271851D01*
X151625379Y-134271852D01*
X151634383Y-134281852D01*
X151748747Y-134408866D01*
X151847179Y-134480381D01*
X151884143Y-134507237D01*
X151903248Y-134521118D01*
X151909276Y-134523802D01*
X151909278Y-134523803D01*
X152058333Y-134590166D01*
X152077712Y-134598794D01*
X152171113Y-134618647D01*
X152258056Y-134637128D01*
X152258061Y-134637128D01*
X152264513Y-134638500D01*
X152455487Y-134638500D01*
X152461939Y-134637128D01*
X152461944Y-134637128D01*
X152548887Y-134618647D01*
X152642288Y-134598794D01*
X152661667Y-134590166D01*
X152810722Y-134523803D01*
X152810724Y-134523802D01*
X152816752Y-134521118D01*
X152845294Y-134500381D01*
X152857822Y-134491279D01*
X152924690Y-134467421D01*
X152993841Y-134483502D01*
X153005943Y-134491279D01*
X153033248Y-134511118D01*
X153039276Y-134513802D01*
X153039278Y-134513803D01*
X153100629Y-134541118D01*
X153207712Y-134588794D01*
X153301112Y-134608647D01*
X153388056Y-134627128D01*
X153388061Y-134627128D01*
X153394513Y-134628500D01*
X153585487Y-134628500D01*
X153591939Y-134627128D01*
X153591944Y-134627128D01*
X153678888Y-134608647D01*
X153772288Y-134588794D01*
X153879371Y-134541118D01*
X153940722Y-134513803D01*
X153940724Y-134513802D01*
X153946752Y-134511118D01*
X153957235Y-134503502D01*
X153999057Y-134473116D01*
X154065925Y-134449258D01*
X154135076Y-134465338D01*
X154147179Y-134473116D01*
X154194144Y-134507238D01*
X154213248Y-134521118D01*
X154219276Y-134523802D01*
X154219278Y-134523803D01*
X154368333Y-134590166D01*
X154387712Y-134598794D01*
X154481113Y-134618647D01*
X154568056Y-134637128D01*
X154568061Y-134637128D01*
X154574513Y-134638500D01*
X154765487Y-134638500D01*
X154771939Y-134637128D01*
X154771944Y-134637128D01*
X154858887Y-134618647D01*
X154952288Y-134598794D01*
X154971667Y-134590166D01*
X155120722Y-134523803D01*
X155120724Y-134523802D01*
X155126752Y-134521118D01*
X155158129Y-134498321D01*
X155182822Y-134480381D01*
X155249690Y-134456523D01*
X155318841Y-134472604D01*
X155330942Y-134480381D01*
X155373248Y-134511118D01*
X155379276Y-134513802D01*
X155379278Y-134513803D01*
X155440629Y-134541118D01*
X155547712Y-134588794D01*
X155641112Y-134608647D01*
X155728056Y-134627128D01*
X155728061Y-134627128D01*
X155734513Y-134628500D01*
X155925487Y-134628500D01*
X155931939Y-134627128D01*
X155931944Y-134627128D01*
X156018888Y-134608647D01*
X156112288Y-134588794D01*
X156219371Y-134541118D01*
X156280722Y-134513803D01*
X156280724Y-134513802D01*
X156286752Y-134511118D01*
X156297235Y-134503502D01*
X156344367Y-134469258D01*
X156441253Y-134398866D01*
X156546613Y-134281852D01*
X156564621Y-134261852D01*
X156564622Y-134261851D01*
X156569040Y-134256944D01*
X156643902Y-134127279D01*
X156661223Y-134097279D01*
X156661224Y-134097278D01*
X156664527Y-134091556D01*
X156723542Y-133909928D01*
X156743504Y-133720000D01*
X156723542Y-133530072D01*
X156664527Y-133348444D01*
X156569040Y-133183056D01*
X156441253Y-133041134D01*
X156310584Y-132946197D01*
X156292094Y-132932763D01*
X156292093Y-132932762D01*
X156286752Y-132928882D01*
X156280724Y-132926198D01*
X156280722Y-132926197D01*
X156118319Y-132853891D01*
X156118318Y-132853891D01*
X156112288Y-132851206D01*
X156018887Y-132831353D01*
X155931944Y-132812872D01*
X155931939Y-132812872D01*
X155925487Y-132811500D01*
X155734513Y-132811500D01*
X155728061Y-132812872D01*
X155728056Y-132812872D01*
X155641113Y-132831353D01*
X155547712Y-132851206D01*
X155541682Y-132853891D01*
X155541681Y-132853891D01*
X155379278Y-132926197D01*
X155379276Y-132926198D01*
X155373248Y-132928882D01*
X155349416Y-132946197D01*
X155317178Y-132969619D01*
X155250310Y-132993477D01*
X155181159Y-132977396D01*
X155169058Y-132969619D01*
X155150584Y-132956197D01*
X155126752Y-132938882D01*
X155120724Y-132936198D01*
X155120722Y-132936197D01*
X154958319Y-132863891D01*
X154958318Y-132863891D01*
X154952288Y-132861206D01*
X154858888Y-132841353D01*
X154771944Y-132822872D01*
X154771939Y-132822872D01*
X154765487Y-132821500D01*
X154574513Y-132821500D01*
X154568061Y-132822872D01*
X154568056Y-132822872D01*
X154481112Y-132841353D01*
X154387712Y-132861206D01*
X154381682Y-132863891D01*
X154381681Y-132863891D01*
X154219278Y-132936197D01*
X154219276Y-132936198D01*
X154213248Y-132938882D01*
X154207907Y-132942762D01*
X154207906Y-132942763D01*
X154160943Y-132976884D01*
X154094075Y-133000742D01*
X154024924Y-132984662D01*
X154012821Y-132976884D01*
X153952094Y-132932763D01*
X153952093Y-132932762D01*
X153946752Y-132928882D01*
X153940724Y-132926198D01*
X153940722Y-132926197D01*
X153778319Y-132853891D01*
X153778318Y-132853891D01*
X153772288Y-132851206D01*
X153678887Y-132831353D01*
X153591944Y-132812872D01*
X153591939Y-132812872D01*
X153585487Y-132811500D01*
X153394513Y-132811500D01*
X153388061Y-132812872D01*
X153388056Y-132812872D01*
X153301113Y-132831353D01*
X153207712Y-132851206D01*
X153201682Y-132853891D01*
X153201681Y-132853891D01*
X153039278Y-132926197D01*
X153039276Y-132926198D01*
X153033248Y-132928882D01*
X153009416Y-132946197D01*
X152992178Y-132958721D01*
X152925310Y-132982579D01*
X152856159Y-132966498D01*
X152844058Y-132958721D01*
X152826820Y-132946197D01*
X152816752Y-132938882D01*
X152810724Y-132936198D01*
X152810722Y-132936197D01*
X152648319Y-132863891D01*
X152648318Y-132863891D01*
X152642288Y-132861206D01*
X152548888Y-132841353D01*
X152461944Y-132822872D01*
X152461939Y-132822872D01*
X152455487Y-132821500D01*
X152264513Y-132821500D01*
X152258061Y-132822872D01*
X152258056Y-132822872D01*
X152171112Y-132841353D01*
X152077712Y-132861206D01*
X152071682Y-132863891D01*
X152071681Y-132863891D01*
X151909278Y-132936197D01*
X151909276Y-132936198D01*
X151903248Y-132938882D01*
X151897907Y-132942762D01*
X151897906Y-132942763D01*
X151879416Y-132956197D01*
X151748747Y-133051134D01*
X151620960Y-133193056D01*
X151612247Y-133208148D01*
X151531247Y-133348444D01*
X151525473Y-133358444D01*
X151466458Y-133540072D01*
X151446496Y-133730000D01*
X137622453Y-133730000D01*
X137623504Y-133720000D01*
X137603542Y-133530072D01*
X137544527Y-133348444D01*
X137449040Y-133183056D01*
X137321253Y-133041134D01*
X137190584Y-132946197D01*
X137172094Y-132932763D01*
X137172093Y-132932762D01*
X137166752Y-132928882D01*
X137160724Y-132926198D01*
X137160722Y-132926197D01*
X136998319Y-132853891D01*
X136998318Y-132853891D01*
X136992288Y-132851206D01*
X136898887Y-132831353D01*
X136811944Y-132812872D01*
X136811939Y-132812872D01*
X136805487Y-132811500D01*
X136614513Y-132811500D01*
X136608061Y-132812872D01*
X136608056Y-132812872D01*
X136521113Y-132831353D01*
X136427712Y-132851206D01*
X136421682Y-132853891D01*
X136421681Y-132853891D01*
X136259278Y-132926197D01*
X136259276Y-132926198D01*
X136253248Y-132928882D01*
X136229416Y-132946197D01*
X136197178Y-132969619D01*
X136130310Y-132993477D01*
X136061159Y-132977396D01*
X136049058Y-132969619D01*
X136030584Y-132956197D01*
X136006752Y-132938882D01*
X136000724Y-132936198D01*
X136000722Y-132936197D01*
X135838319Y-132863891D01*
X135838318Y-132863891D01*
X135832288Y-132861206D01*
X135738888Y-132841353D01*
X135651944Y-132822872D01*
X135651939Y-132822872D01*
X135645487Y-132821500D01*
X135454513Y-132821500D01*
X135448061Y-132822872D01*
X135448056Y-132822872D01*
X135361112Y-132841353D01*
X135267712Y-132861206D01*
X135261682Y-132863891D01*
X135261681Y-132863891D01*
X135099278Y-132936197D01*
X135099276Y-132936198D01*
X135093248Y-132938882D01*
X135087907Y-132942762D01*
X135087906Y-132942763D01*
X135040943Y-132976884D01*
X134974075Y-133000742D01*
X134904924Y-132984662D01*
X134892821Y-132976884D01*
X134832094Y-132932763D01*
X134832093Y-132932762D01*
X134826752Y-132928882D01*
X134820724Y-132926198D01*
X134820722Y-132926197D01*
X134658319Y-132853891D01*
X134658318Y-132853891D01*
X134652288Y-132851206D01*
X134558887Y-132831353D01*
X134471944Y-132812872D01*
X134471939Y-132812872D01*
X134465487Y-132811500D01*
X134274513Y-132811500D01*
X134268061Y-132812872D01*
X134268056Y-132812872D01*
X134181113Y-132831353D01*
X134087712Y-132851206D01*
X134081682Y-132853891D01*
X134081681Y-132853891D01*
X133919278Y-132926197D01*
X133919276Y-132926198D01*
X133913248Y-132928882D01*
X133889416Y-132946197D01*
X133872178Y-132958721D01*
X133805310Y-132982579D01*
X133736159Y-132966498D01*
X133724058Y-132958721D01*
X133706820Y-132946197D01*
X133696752Y-132938882D01*
X133690724Y-132936198D01*
X133690722Y-132936197D01*
X133528319Y-132863891D01*
X133528318Y-132863891D01*
X133522288Y-132861206D01*
X133428888Y-132841353D01*
X133341944Y-132822872D01*
X133341939Y-132822872D01*
X133335487Y-132821500D01*
X133144513Y-132821500D01*
X133138061Y-132822872D01*
X133138056Y-132822872D01*
X133051112Y-132841353D01*
X132957712Y-132861206D01*
X132951682Y-132863891D01*
X132951681Y-132863891D01*
X132789278Y-132936197D01*
X132789276Y-132936198D01*
X132783248Y-132938882D01*
X132777907Y-132942762D01*
X132777906Y-132942763D01*
X132759416Y-132956197D01*
X132628747Y-133051134D01*
X132500960Y-133193056D01*
X132492247Y-133208148D01*
X132411247Y-133348444D01*
X132405473Y-133358444D01*
X132346458Y-133540072D01*
X132326496Y-133730000D01*
X116972453Y-133730000D01*
X116953542Y-133550072D01*
X116894527Y-133368444D01*
X116888754Y-133358444D01*
X116808115Y-133218774D01*
X116799040Y-133203056D01*
X116786181Y-133188774D01*
X116675675Y-133066045D01*
X116675674Y-133066044D01*
X116671253Y-133061134D01*
X116540998Y-132966498D01*
X116522094Y-132952763D01*
X116522093Y-132952762D01*
X116516752Y-132948882D01*
X116510724Y-132946198D01*
X116510722Y-132946197D01*
X116348319Y-132873891D01*
X116348318Y-132873891D01*
X116342288Y-132871206D01*
X116241741Y-132849834D01*
X116161944Y-132832872D01*
X116161939Y-132832872D01*
X116155487Y-132831500D01*
X115964513Y-132831500D01*
X115958061Y-132832872D01*
X115958056Y-132832872D01*
X115878259Y-132849834D01*
X115777712Y-132871206D01*
X115771682Y-132873891D01*
X115771681Y-132873891D01*
X115609278Y-132946197D01*
X115609276Y-132946198D01*
X115603248Y-132948882D01*
X115579002Y-132966498D01*
X115547178Y-132989619D01*
X115480310Y-133013477D01*
X115411159Y-132997396D01*
X115399058Y-132989619D01*
X115371530Y-132969619D01*
X115356752Y-132958882D01*
X115350724Y-132956198D01*
X115350722Y-132956197D01*
X115188319Y-132883891D01*
X115188318Y-132883891D01*
X115182288Y-132881206D01*
X115081741Y-132859834D01*
X115001944Y-132842872D01*
X115001939Y-132842872D01*
X114995487Y-132841500D01*
X114804513Y-132841500D01*
X114798061Y-132842872D01*
X114798056Y-132842872D01*
X114718259Y-132859834D01*
X114617712Y-132881206D01*
X114611682Y-132883891D01*
X114611681Y-132883891D01*
X114449278Y-132956197D01*
X114449276Y-132956198D01*
X114443248Y-132958882D01*
X114437907Y-132962762D01*
X114437906Y-132962763D01*
X114390943Y-132996884D01*
X114324075Y-133020742D01*
X114254924Y-133004662D01*
X114242821Y-132996884D01*
X114182094Y-132952763D01*
X114182093Y-132952762D01*
X114176752Y-132948882D01*
X114170724Y-132946198D01*
X114170722Y-132946197D01*
X114008319Y-132873891D01*
X114008318Y-132873891D01*
X114002288Y-132871206D01*
X113901741Y-132849834D01*
X113821944Y-132832872D01*
X113821939Y-132832872D01*
X113815487Y-132831500D01*
X113624513Y-132831500D01*
X113618061Y-132832872D01*
X113618056Y-132832872D01*
X113538259Y-132849834D01*
X113437712Y-132871206D01*
X113431682Y-132873891D01*
X113431681Y-132873891D01*
X113269278Y-132946197D01*
X113269276Y-132946198D01*
X113263248Y-132948882D01*
X113239002Y-132966498D01*
X113222178Y-132978721D01*
X113155310Y-133002579D01*
X113086159Y-132986498D01*
X113074058Y-132978721D01*
X113057234Y-132966498D01*
X113046752Y-132958882D01*
X113040724Y-132956198D01*
X113040722Y-132956197D01*
X112878319Y-132883891D01*
X112878318Y-132883891D01*
X112872288Y-132881206D01*
X112771741Y-132859834D01*
X112691944Y-132842872D01*
X112691939Y-132842872D01*
X112685487Y-132841500D01*
X112494513Y-132841500D01*
X112488061Y-132842872D01*
X112488056Y-132842872D01*
X112408259Y-132859834D01*
X112307712Y-132881206D01*
X112301682Y-132883891D01*
X112301681Y-132883891D01*
X112139278Y-132956197D01*
X112139276Y-132956198D01*
X112133248Y-132958882D01*
X112127907Y-132962762D01*
X112127906Y-132962763D01*
X112118470Y-132969619D01*
X111978747Y-133071134D01*
X111974326Y-133076044D01*
X111974325Y-133076045D01*
X111863820Y-133198774D01*
X111850960Y-133213056D01*
X111847659Y-133218774D01*
X111761247Y-133368444D01*
X111755473Y-133378444D01*
X111696458Y-133560072D01*
X111676496Y-133750000D01*
X109301845Y-133750000D01*
X109313644Y-129020000D01*
X116146496Y-129020000D01*
X116166458Y-129209928D01*
X116225473Y-129391556D01*
X116320960Y-129556944D01*
X116448747Y-129698866D01*
X116537179Y-129763116D01*
X116584143Y-129797237D01*
X116603248Y-129811118D01*
X116609276Y-129813802D01*
X116609278Y-129813803D01*
X116758333Y-129880166D01*
X116777712Y-129888794D01*
X116855230Y-129905271D01*
X116958056Y-129927128D01*
X116958061Y-129927128D01*
X116964513Y-129928500D01*
X117155487Y-129928500D01*
X117161939Y-129927128D01*
X117161944Y-129927128D01*
X117264770Y-129905271D01*
X117342288Y-129888794D01*
X117361667Y-129880166D01*
X117510722Y-129813803D01*
X117510724Y-129813802D01*
X117516752Y-129811118D01*
X117557822Y-129781279D01*
X117624690Y-129757421D01*
X117693841Y-129773502D01*
X117705943Y-129781279D01*
X117733248Y-129801118D01*
X117739276Y-129803802D01*
X117739278Y-129803803D01*
X117755708Y-129811118D01*
X117907712Y-129878794D01*
X117985230Y-129895271D01*
X118088056Y-129917128D01*
X118088061Y-129917128D01*
X118094513Y-129918500D01*
X118285487Y-129918500D01*
X118291939Y-129917128D01*
X118291944Y-129917128D01*
X118394770Y-129895271D01*
X118472288Y-129878794D01*
X118624292Y-129811118D01*
X118640722Y-129803803D01*
X118640724Y-129803802D01*
X118646752Y-129801118D01*
X118699057Y-129763116D01*
X118765925Y-129739258D01*
X118835076Y-129755338D01*
X118847179Y-129763116D01*
X118894144Y-129797238D01*
X118913248Y-129811118D01*
X118919276Y-129813802D01*
X118919278Y-129813803D01*
X119068333Y-129880166D01*
X119087712Y-129888794D01*
X119165230Y-129905271D01*
X119268056Y-129927128D01*
X119268061Y-129927128D01*
X119274513Y-129928500D01*
X119465487Y-129928500D01*
X119471939Y-129927128D01*
X119471944Y-129927128D01*
X119574770Y-129905271D01*
X119652288Y-129888794D01*
X119671667Y-129880166D01*
X119820722Y-129813803D01*
X119820724Y-129813802D01*
X119826752Y-129811118D01*
X119882821Y-129770381D01*
X119949690Y-129746523D01*
X120018841Y-129762604D01*
X120030942Y-129770381D01*
X120073248Y-129801118D01*
X120079276Y-129803802D01*
X120079278Y-129803803D01*
X120095708Y-129811118D01*
X120247712Y-129878794D01*
X120325230Y-129895271D01*
X120428056Y-129917128D01*
X120428061Y-129917128D01*
X120434513Y-129918500D01*
X120625487Y-129918500D01*
X120631939Y-129917128D01*
X120631944Y-129917128D01*
X120734770Y-129895271D01*
X120812288Y-129878794D01*
X120964292Y-129811118D01*
X120980722Y-129803803D01*
X120980724Y-129803802D01*
X120986752Y-129801118D01*
X121141253Y-129688866D01*
X121269040Y-129546944D01*
X121355449Y-129397279D01*
X121361223Y-129387279D01*
X121361224Y-129387278D01*
X121364527Y-129381556D01*
X121423542Y-129199928D01*
X121426191Y-129174729D01*
X121442453Y-129020000D01*
X136796496Y-129020000D01*
X136816458Y-129209928D01*
X136875473Y-129391556D01*
X136970960Y-129556944D01*
X137098747Y-129698866D01*
X137187179Y-129763116D01*
X137234143Y-129797237D01*
X137253248Y-129811118D01*
X137259276Y-129813802D01*
X137259278Y-129813803D01*
X137408333Y-129880166D01*
X137427712Y-129888794D01*
X137505230Y-129905271D01*
X137608056Y-129927128D01*
X137608061Y-129927128D01*
X137614513Y-129928500D01*
X137805487Y-129928500D01*
X137811939Y-129927128D01*
X137811944Y-129927128D01*
X137914770Y-129905271D01*
X137992288Y-129888794D01*
X138011667Y-129880166D01*
X138160722Y-129813803D01*
X138160724Y-129813802D01*
X138166752Y-129811118D01*
X138207822Y-129781279D01*
X138274690Y-129757421D01*
X138343841Y-129773502D01*
X138355943Y-129781279D01*
X138383248Y-129801118D01*
X138389276Y-129803802D01*
X138389278Y-129803803D01*
X138405708Y-129811118D01*
X138557712Y-129878794D01*
X138635230Y-129895271D01*
X138738056Y-129917128D01*
X138738061Y-129917128D01*
X138744513Y-129918500D01*
X138935487Y-129918500D01*
X138941939Y-129917128D01*
X138941944Y-129917128D01*
X139044770Y-129895271D01*
X139122288Y-129878794D01*
X139274292Y-129811118D01*
X139290722Y-129803803D01*
X139290724Y-129803802D01*
X139296752Y-129801118D01*
X139349057Y-129763116D01*
X139415925Y-129739258D01*
X139485076Y-129755338D01*
X139497179Y-129763116D01*
X139544144Y-129797238D01*
X139563248Y-129811118D01*
X139569276Y-129813802D01*
X139569278Y-129813803D01*
X139718333Y-129880166D01*
X139737712Y-129888794D01*
X139815230Y-129905271D01*
X139918056Y-129927128D01*
X139918061Y-129927128D01*
X139924513Y-129928500D01*
X140115487Y-129928500D01*
X140121939Y-129927128D01*
X140121944Y-129927128D01*
X140224770Y-129905271D01*
X140302288Y-129888794D01*
X140321667Y-129880166D01*
X140470722Y-129813803D01*
X140470724Y-129813802D01*
X140476752Y-129811118D01*
X140532821Y-129770381D01*
X140599690Y-129746523D01*
X140668841Y-129762604D01*
X140680942Y-129770381D01*
X140723248Y-129801118D01*
X140729276Y-129803802D01*
X140729278Y-129803803D01*
X140745708Y-129811118D01*
X140897712Y-129878794D01*
X140975230Y-129895271D01*
X141078056Y-129917128D01*
X141078061Y-129917128D01*
X141084513Y-129918500D01*
X141275487Y-129918500D01*
X141281939Y-129917128D01*
X141281944Y-129917128D01*
X141384770Y-129895271D01*
X141462288Y-129878794D01*
X141614292Y-129811118D01*
X141630722Y-129803803D01*
X141630724Y-129803802D01*
X141636752Y-129801118D01*
X141791253Y-129688866D01*
X141919040Y-129546944D01*
X141923049Y-129540000D01*
X155746496Y-129540000D01*
X155747186Y-129546565D01*
X155764291Y-129709307D01*
X155766458Y-129729928D01*
X155825473Y-129911556D01*
X155828776Y-129917278D01*
X155828777Y-129917279D01*
X155862686Y-129976010D01*
X155920960Y-130076944D01*
X156048747Y-130218866D01*
X156137179Y-130283116D01*
X156184143Y-130317237D01*
X156203248Y-130331118D01*
X156209276Y-130333802D01*
X156209278Y-130333803D01*
X156358333Y-130400166D01*
X156377712Y-130408794D01*
X156471113Y-130428647D01*
X156558056Y-130447128D01*
X156558061Y-130447128D01*
X156564513Y-130448500D01*
X156755487Y-130448500D01*
X156761939Y-130447128D01*
X156761944Y-130447128D01*
X156848887Y-130428647D01*
X156942288Y-130408794D01*
X156961667Y-130400166D01*
X157110722Y-130333803D01*
X157110724Y-130333802D01*
X157116752Y-130331118D01*
X157157822Y-130301279D01*
X157224690Y-130277421D01*
X157293841Y-130293502D01*
X157305943Y-130301279D01*
X157333248Y-130321118D01*
X157339276Y-130323802D01*
X157339278Y-130323803D01*
X157355708Y-130331118D01*
X157507712Y-130398794D01*
X157601112Y-130418647D01*
X157688056Y-130437128D01*
X157688061Y-130437128D01*
X157694513Y-130438500D01*
X157885487Y-130438500D01*
X157891939Y-130437128D01*
X157891944Y-130437128D01*
X157978888Y-130418647D01*
X158072288Y-130398794D01*
X158224292Y-130331118D01*
X158240722Y-130323803D01*
X158240724Y-130323802D01*
X158246752Y-130321118D01*
X158299057Y-130283116D01*
X158365925Y-130259258D01*
X158435076Y-130275338D01*
X158447179Y-130283116D01*
X158494144Y-130317238D01*
X158513248Y-130331118D01*
X158519276Y-130333802D01*
X158519278Y-130333803D01*
X158668333Y-130400166D01*
X158687712Y-130408794D01*
X158781113Y-130428647D01*
X158868056Y-130447128D01*
X158868061Y-130447128D01*
X158874513Y-130448500D01*
X159065487Y-130448500D01*
X159071939Y-130447128D01*
X159071944Y-130447128D01*
X159158887Y-130428647D01*
X159252288Y-130408794D01*
X159271667Y-130400166D01*
X159420722Y-130333803D01*
X159420724Y-130333802D01*
X159426752Y-130331118D01*
X159482821Y-130290381D01*
X159549690Y-130266523D01*
X159618841Y-130282604D01*
X159630942Y-130290381D01*
X159673248Y-130321118D01*
X159679276Y-130323802D01*
X159679278Y-130323803D01*
X159695708Y-130331118D01*
X159847712Y-130398794D01*
X159941112Y-130418647D01*
X160028056Y-130437128D01*
X160028061Y-130437128D01*
X160034513Y-130438500D01*
X160225487Y-130438500D01*
X160231939Y-130437128D01*
X160231944Y-130437128D01*
X160318888Y-130418647D01*
X160412288Y-130398794D01*
X160564292Y-130331118D01*
X160580722Y-130323803D01*
X160580724Y-130323802D01*
X160586752Y-130321118D01*
X160741253Y-130208866D01*
X160869040Y-130066944D01*
X160949763Y-129927128D01*
X160961223Y-129907279D01*
X160961224Y-129907278D01*
X160964527Y-129901556D01*
X161023542Y-129719928D01*
X161024659Y-129709307D01*
X161042814Y-129536565D01*
X161043504Y-129530000D01*
X161023542Y-129340072D01*
X160964527Y-129158444D01*
X160869040Y-128993056D01*
X160741253Y-128851134D01*
X160627822Y-128768721D01*
X160592094Y-128742763D01*
X160592093Y-128742762D01*
X160586752Y-128738882D01*
X160580724Y-128736198D01*
X160580722Y-128736197D01*
X160418319Y-128663891D01*
X160418318Y-128663891D01*
X160412288Y-128661206D01*
X160305202Y-128638444D01*
X160231944Y-128622872D01*
X160231939Y-128622872D01*
X160225487Y-128621500D01*
X160034513Y-128621500D01*
X160028061Y-128622872D01*
X160028056Y-128622872D01*
X159954798Y-128638444D01*
X159847712Y-128661206D01*
X159841682Y-128663891D01*
X159841681Y-128663891D01*
X159679278Y-128736197D01*
X159679276Y-128736198D01*
X159673248Y-128738882D01*
X159641871Y-128761679D01*
X159617178Y-128779619D01*
X159550310Y-128803477D01*
X159481159Y-128787396D01*
X159469058Y-128779619D01*
X159454058Y-128768721D01*
X159426752Y-128748882D01*
X159420724Y-128746198D01*
X159420722Y-128746197D01*
X159258319Y-128673891D01*
X159258318Y-128673891D01*
X159252288Y-128671206D01*
X159145202Y-128648444D01*
X159071944Y-128632872D01*
X159071939Y-128632872D01*
X159065487Y-128631500D01*
X158874513Y-128631500D01*
X158868061Y-128632872D01*
X158868056Y-128632872D01*
X158794798Y-128648444D01*
X158687712Y-128671206D01*
X158681682Y-128673891D01*
X158681681Y-128673891D01*
X158519278Y-128746197D01*
X158519276Y-128746198D01*
X158513248Y-128748882D01*
X158507907Y-128752762D01*
X158507906Y-128752763D01*
X158460943Y-128786884D01*
X158394075Y-128810742D01*
X158324924Y-128794662D01*
X158312821Y-128786884D01*
X158252094Y-128742763D01*
X158252093Y-128742762D01*
X158246752Y-128738882D01*
X158240724Y-128736198D01*
X158240722Y-128736197D01*
X158078319Y-128663891D01*
X158078318Y-128663891D01*
X158072288Y-128661206D01*
X157965202Y-128638444D01*
X157891944Y-128622872D01*
X157891939Y-128622872D01*
X157885487Y-128621500D01*
X157694513Y-128621500D01*
X157688061Y-128622872D01*
X157688056Y-128622872D01*
X157614798Y-128638444D01*
X157507712Y-128661206D01*
X157501682Y-128663891D01*
X157501681Y-128663891D01*
X157339278Y-128736197D01*
X157339276Y-128736198D01*
X157333248Y-128738882D01*
X157305843Y-128758793D01*
X157292178Y-128768721D01*
X157225310Y-128792579D01*
X157156159Y-128776498D01*
X157144058Y-128768721D01*
X157140465Y-128766111D01*
X157116752Y-128748882D01*
X157110724Y-128746198D01*
X157110722Y-128746197D01*
X156948319Y-128673891D01*
X156948318Y-128673891D01*
X156942288Y-128671206D01*
X156835202Y-128648444D01*
X156761944Y-128632872D01*
X156761939Y-128632872D01*
X156755487Y-128631500D01*
X156564513Y-128631500D01*
X156558061Y-128632872D01*
X156558056Y-128632872D01*
X156484798Y-128648444D01*
X156377712Y-128671206D01*
X156371682Y-128673891D01*
X156371681Y-128673891D01*
X156209278Y-128746197D01*
X156209276Y-128746198D01*
X156203248Y-128748882D01*
X156048747Y-128861134D01*
X155920960Y-129003056D01*
X155907387Y-129026565D01*
X155831247Y-129158444D01*
X155825473Y-129168444D01*
X155766458Y-129350072D01*
X155765768Y-129356633D01*
X155765768Y-129356635D01*
X155763149Y-129381556D01*
X155746496Y-129540000D01*
X141923049Y-129540000D01*
X142005449Y-129397279D01*
X142011223Y-129387279D01*
X142011224Y-129387278D01*
X142014527Y-129381556D01*
X142073542Y-129199928D01*
X142076191Y-129174729D01*
X142092814Y-129016565D01*
X142093504Y-129010000D01*
X142076399Y-128847251D01*
X142074232Y-128826635D01*
X142074232Y-128826633D01*
X142073542Y-128820072D01*
X142014527Y-128638444D01*
X142005537Y-128622872D01*
X141970824Y-128562749D01*
X141919040Y-128473056D01*
X141791253Y-128331134D01*
X141673073Y-128245271D01*
X141642094Y-128222763D01*
X141642093Y-128222762D01*
X141636752Y-128218882D01*
X141630724Y-128216198D01*
X141630722Y-128216197D01*
X141468319Y-128143891D01*
X141468318Y-128143891D01*
X141462288Y-128141206D01*
X141368887Y-128121353D01*
X141281944Y-128102872D01*
X141281939Y-128102872D01*
X141275487Y-128101500D01*
X141084513Y-128101500D01*
X141078061Y-128102872D01*
X141078056Y-128102872D01*
X140991113Y-128121353D01*
X140897712Y-128141206D01*
X140891682Y-128143891D01*
X140891681Y-128143891D01*
X140729278Y-128216197D01*
X140729276Y-128216198D01*
X140723248Y-128218882D01*
X140691871Y-128241679D01*
X140667178Y-128259619D01*
X140600310Y-128283477D01*
X140531159Y-128267396D01*
X140519058Y-128259619D01*
X140499309Y-128245271D01*
X140476752Y-128228882D01*
X140470724Y-128226198D01*
X140470722Y-128226197D01*
X140308319Y-128153891D01*
X140308318Y-128153891D01*
X140302288Y-128151206D01*
X140208888Y-128131353D01*
X140121944Y-128112872D01*
X140121939Y-128112872D01*
X140115487Y-128111500D01*
X139924513Y-128111500D01*
X139918061Y-128112872D01*
X139918056Y-128112872D01*
X139831112Y-128131353D01*
X139737712Y-128151206D01*
X139731682Y-128153891D01*
X139731681Y-128153891D01*
X139569278Y-128226197D01*
X139569276Y-128226198D01*
X139563248Y-128228882D01*
X139557907Y-128232762D01*
X139557906Y-128232763D01*
X139510943Y-128266884D01*
X139444075Y-128290742D01*
X139374924Y-128274662D01*
X139362821Y-128266884D01*
X139302094Y-128222763D01*
X139302093Y-128222762D01*
X139296752Y-128218882D01*
X139290724Y-128216198D01*
X139290722Y-128216197D01*
X139128319Y-128143891D01*
X139128318Y-128143891D01*
X139122288Y-128141206D01*
X139028887Y-128121353D01*
X138941944Y-128102872D01*
X138941939Y-128102872D01*
X138935487Y-128101500D01*
X138744513Y-128101500D01*
X138738061Y-128102872D01*
X138738056Y-128102872D01*
X138651113Y-128121353D01*
X138557712Y-128141206D01*
X138551682Y-128143891D01*
X138551681Y-128143891D01*
X138389278Y-128216197D01*
X138389276Y-128216198D01*
X138383248Y-128218882D01*
X138355843Y-128238793D01*
X138342178Y-128248721D01*
X138275310Y-128272579D01*
X138206159Y-128256498D01*
X138194058Y-128248721D01*
X138189309Y-128245271D01*
X138166752Y-128228882D01*
X138160724Y-128226198D01*
X138160722Y-128226197D01*
X137998319Y-128153891D01*
X137998318Y-128153891D01*
X137992288Y-128151206D01*
X137898888Y-128131353D01*
X137811944Y-128112872D01*
X137811939Y-128112872D01*
X137805487Y-128111500D01*
X137614513Y-128111500D01*
X137608061Y-128112872D01*
X137608056Y-128112872D01*
X137521112Y-128131353D01*
X137427712Y-128151206D01*
X137421682Y-128153891D01*
X137421681Y-128153891D01*
X137259278Y-128226197D01*
X137259276Y-128226198D01*
X137253248Y-128228882D01*
X137247907Y-128232762D01*
X137247906Y-128232763D01*
X137225942Y-128248721D01*
X137098747Y-128341134D01*
X136970960Y-128483056D01*
X136967659Y-128488774D01*
X136881247Y-128638444D01*
X136875473Y-128648444D01*
X136816458Y-128830072D01*
X136815768Y-128836633D01*
X136815768Y-128836635D01*
X136814652Y-128847251D01*
X136796496Y-129020000D01*
X121442453Y-129020000D01*
X121442814Y-129016565D01*
X121443504Y-129010000D01*
X121426399Y-128847251D01*
X121424232Y-128826635D01*
X121424232Y-128826633D01*
X121423542Y-128820072D01*
X121364527Y-128638444D01*
X121355537Y-128622872D01*
X121320824Y-128562749D01*
X121269040Y-128473056D01*
X121141253Y-128331134D01*
X121023073Y-128245271D01*
X120992094Y-128222763D01*
X120992093Y-128222762D01*
X120986752Y-128218882D01*
X120980724Y-128216198D01*
X120980722Y-128216197D01*
X120818319Y-128143891D01*
X120818318Y-128143891D01*
X120812288Y-128141206D01*
X120718887Y-128121353D01*
X120631944Y-128102872D01*
X120631939Y-128102872D01*
X120625487Y-128101500D01*
X120434513Y-128101500D01*
X120428061Y-128102872D01*
X120428056Y-128102872D01*
X120341113Y-128121353D01*
X120247712Y-128141206D01*
X120241682Y-128143891D01*
X120241681Y-128143891D01*
X120079278Y-128216197D01*
X120079276Y-128216198D01*
X120073248Y-128218882D01*
X120041871Y-128241679D01*
X120017178Y-128259619D01*
X119950310Y-128283477D01*
X119881159Y-128267396D01*
X119869058Y-128259619D01*
X119849309Y-128245271D01*
X119826752Y-128228882D01*
X119820724Y-128226198D01*
X119820722Y-128226197D01*
X119658319Y-128153891D01*
X119658318Y-128153891D01*
X119652288Y-128151206D01*
X119558888Y-128131353D01*
X119471944Y-128112872D01*
X119471939Y-128112872D01*
X119465487Y-128111500D01*
X119274513Y-128111500D01*
X119268061Y-128112872D01*
X119268056Y-128112872D01*
X119181112Y-128131353D01*
X119087712Y-128151206D01*
X119081682Y-128153891D01*
X119081681Y-128153891D01*
X118919278Y-128226197D01*
X118919276Y-128226198D01*
X118913248Y-128228882D01*
X118907907Y-128232762D01*
X118907906Y-128232763D01*
X118860943Y-128266884D01*
X118794075Y-128290742D01*
X118724924Y-128274662D01*
X118712821Y-128266884D01*
X118652094Y-128222763D01*
X118652093Y-128222762D01*
X118646752Y-128218882D01*
X118640724Y-128216198D01*
X118640722Y-128216197D01*
X118478319Y-128143891D01*
X118478318Y-128143891D01*
X118472288Y-128141206D01*
X118378887Y-128121353D01*
X118291944Y-128102872D01*
X118291939Y-128102872D01*
X118285487Y-128101500D01*
X118094513Y-128101500D01*
X118088061Y-128102872D01*
X118088056Y-128102872D01*
X118001113Y-128121353D01*
X117907712Y-128141206D01*
X117901682Y-128143891D01*
X117901681Y-128143891D01*
X117739278Y-128216197D01*
X117739276Y-128216198D01*
X117733248Y-128218882D01*
X117705843Y-128238793D01*
X117692178Y-128248721D01*
X117625310Y-128272579D01*
X117556159Y-128256498D01*
X117544058Y-128248721D01*
X117539309Y-128245271D01*
X117516752Y-128228882D01*
X117510724Y-128226198D01*
X117510722Y-128226197D01*
X117348319Y-128153891D01*
X117348318Y-128153891D01*
X117342288Y-128151206D01*
X117248888Y-128131353D01*
X117161944Y-128112872D01*
X117161939Y-128112872D01*
X117155487Y-128111500D01*
X116964513Y-128111500D01*
X116958061Y-128112872D01*
X116958056Y-128112872D01*
X116871112Y-128131353D01*
X116777712Y-128151206D01*
X116771682Y-128153891D01*
X116771681Y-128153891D01*
X116609278Y-128226197D01*
X116609276Y-128226198D01*
X116603248Y-128228882D01*
X116597907Y-128232762D01*
X116597906Y-128232763D01*
X116575942Y-128248721D01*
X116448747Y-128341134D01*
X116320960Y-128483056D01*
X116317659Y-128488774D01*
X116231247Y-128638444D01*
X116225473Y-128648444D01*
X116166458Y-128830072D01*
X116165768Y-128836633D01*
X116165768Y-128836635D01*
X116164652Y-128847251D01*
X116146496Y-129020000D01*
X109313644Y-129020000D01*
X109319755Y-126570000D01*
X114636496Y-126570000D01*
X114637186Y-126576565D01*
X114648177Y-126681134D01*
X114656458Y-126759928D01*
X114715473Y-126941556D01*
X114718776Y-126947278D01*
X114718777Y-126947279D01*
X114752686Y-127006010D01*
X114810960Y-127106944D01*
X114815378Y-127111851D01*
X114815379Y-127111852D01*
X114873710Y-127176635D01*
X114938747Y-127248866D01*
X115093248Y-127361118D01*
X115099276Y-127363802D01*
X115099278Y-127363803D01*
X115105482Y-127366565D01*
X115267712Y-127438794D01*
X115345230Y-127455271D01*
X115448056Y-127477128D01*
X115448061Y-127477128D01*
X115454513Y-127478500D01*
X115645487Y-127478500D01*
X115651939Y-127477128D01*
X115651944Y-127477128D01*
X115754770Y-127455271D01*
X115832288Y-127438794D01*
X115994518Y-127366565D01*
X116000722Y-127363803D01*
X116000724Y-127363802D01*
X116006752Y-127361118D01*
X116008291Y-127360000D01*
X122576496Y-127360000D01*
X122577186Y-127366565D01*
X122588807Y-127477128D01*
X122596458Y-127549928D01*
X122655473Y-127731556D01*
X122750960Y-127896944D01*
X122878747Y-128038866D01*
X123033248Y-128151118D01*
X123039276Y-128153802D01*
X123039278Y-128153803D01*
X123194166Y-128222763D01*
X123207712Y-128228794D01*
X123285230Y-128245271D01*
X123388056Y-128267128D01*
X123388061Y-128267128D01*
X123394513Y-128268500D01*
X123585487Y-128268500D01*
X123591939Y-128267128D01*
X123591944Y-128267128D01*
X123694770Y-128245271D01*
X123772288Y-128228794D01*
X123785834Y-128222763D01*
X123940722Y-128153803D01*
X123940724Y-128153802D01*
X123946752Y-128151118D01*
X124101253Y-128038866D01*
X124229040Y-127896944D01*
X124324527Y-127731556D01*
X124383542Y-127549928D01*
X124391194Y-127477128D01*
X124402814Y-127366565D01*
X124403504Y-127360000D01*
X124392232Y-127252749D01*
X124384232Y-127176635D01*
X124384232Y-127176633D01*
X124383542Y-127170072D01*
X124324527Y-126988444D01*
X124315537Y-126972872D01*
X124232341Y-126828774D01*
X124229040Y-126823056D01*
X124172200Y-126759928D01*
X124105675Y-126686045D01*
X124105674Y-126686044D01*
X124101253Y-126681134D01*
X123948291Y-126570000D01*
X135286496Y-126570000D01*
X135287186Y-126576565D01*
X135298177Y-126681134D01*
X135306458Y-126759928D01*
X135365473Y-126941556D01*
X135368776Y-126947278D01*
X135368777Y-126947279D01*
X135402686Y-127006010D01*
X135460960Y-127106944D01*
X135465378Y-127111851D01*
X135465379Y-127111852D01*
X135523710Y-127176635D01*
X135588747Y-127248866D01*
X135743248Y-127361118D01*
X135749276Y-127363802D01*
X135749278Y-127363803D01*
X135755482Y-127366565D01*
X135917712Y-127438794D01*
X135995230Y-127455271D01*
X136098056Y-127477128D01*
X136098061Y-127477128D01*
X136104513Y-127478500D01*
X136295487Y-127478500D01*
X136301939Y-127477128D01*
X136301944Y-127477128D01*
X136404770Y-127455271D01*
X136482288Y-127438794D01*
X136644518Y-127366565D01*
X136650722Y-127363803D01*
X136650724Y-127363802D01*
X136656752Y-127361118D01*
X136658291Y-127360000D01*
X143226496Y-127360000D01*
X143227186Y-127366565D01*
X143238807Y-127477128D01*
X143246458Y-127549928D01*
X143305473Y-127731556D01*
X143400960Y-127896944D01*
X143528747Y-128038866D01*
X143683248Y-128151118D01*
X143689276Y-128153802D01*
X143689278Y-128153803D01*
X143844166Y-128222763D01*
X143857712Y-128228794D01*
X143935230Y-128245271D01*
X144038056Y-128267128D01*
X144038061Y-128267128D01*
X144044513Y-128268500D01*
X144235487Y-128268500D01*
X144241939Y-128267128D01*
X144241944Y-128267128D01*
X144344770Y-128245271D01*
X144422288Y-128228794D01*
X144435834Y-128222763D01*
X144590722Y-128153803D01*
X144590724Y-128153802D01*
X144596752Y-128151118D01*
X144751253Y-128038866D01*
X144879040Y-127896944D01*
X144974527Y-127731556D01*
X145033542Y-127549928D01*
X145041194Y-127477128D01*
X145052814Y-127366565D01*
X145053504Y-127360000D01*
X145042232Y-127252749D01*
X145034232Y-127176635D01*
X145034232Y-127176633D01*
X145033542Y-127170072D01*
X145007525Y-127090000D01*
X154236496Y-127090000D01*
X154237186Y-127096565D01*
X154248177Y-127201134D01*
X154256458Y-127279928D01*
X154315473Y-127461556D01*
X154318776Y-127467278D01*
X154318777Y-127467279D01*
X154352686Y-127526010D01*
X154410960Y-127626944D01*
X154415378Y-127631851D01*
X154415379Y-127631852D01*
X154473710Y-127696635D01*
X154538747Y-127768866D01*
X154693248Y-127881118D01*
X154699276Y-127883802D01*
X154699278Y-127883803D01*
X154861681Y-127956109D01*
X154867712Y-127958794D01*
X154961113Y-127978647D01*
X155048056Y-127997128D01*
X155048061Y-127997128D01*
X155054513Y-127998500D01*
X155245487Y-127998500D01*
X155251939Y-127997128D01*
X155251944Y-127997128D01*
X155338887Y-127978647D01*
X155432288Y-127958794D01*
X155438319Y-127956109D01*
X155600722Y-127883803D01*
X155600724Y-127883802D01*
X155606752Y-127881118D01*
X155608291Y-127880000D01*
X162176496Y-127880000D01*
X162177186Y-127886565D01*
X162188807Y-127997128D01*
X162196458Y-128069928D01*
X162255473Y-128251556D01*
X162258776Y-128257278D01*
X162258777Y-128257279D01*
X162267611Y-128272579D01*
X162350960Y-128416944D01*
X162478747Y-128558866D01*
X162564955Y-128621500D01*
X162610691Y-128654729D01*
X162633248Y-128671118D01*
X162639276Y-128673802D01*
X162639278Y-128673803D01*
X162794166Y-128742763D01*
X162807712Y-128748794D01*
X162901113Y-128768647D01*
X162988056Y-128787128D01*
X162988061Y-128787128D01*
X162994513Y-128788500D01*
X163185487Y-128788500D01*
X163191939Y-128787128D01*
X163191944Y-128787128D01*
X163278887Y-128768647D01*
X163372288Y-128748794D01*
X163385834Y-128742763D01*
X163540722Y-128673803D01*
X163540724Y-128673802D01*
X163546752Y-128671118D01*
X163569310Y-128654729D01*
X163615045Y-128621500D01*
X163701253Y-128558866D01*
X163829040Y-128416944D01*
X163912389Y-128272579D01*
X163921223Y-128257279D01*
X163921224Y-128257278D01*
X163924527Y-128251556D01*
X163983542Y-128069928D01*
X163991194Y-127997128D01*
X164002814Y-127886565D01*
X164003504Y-127880000D01*
X163992232Y-127772749D01*
X163984232Y-127696635D01*
X163984232Y-127696633D01*
X163983542Y-127690072D01*
X163924527Y-127508444D01*
X163893828Y-127455271D01*
X163839468Y-127361118D01*
X163829040Y-127343056D01*
X163772200Y-127279928D01*
X163705675Y-127206045D01*
X163705674Y-127206044D01*
X163701253Y-127201134D01*
X163546752Y-127088882D01*
X163540724Y-127086198D01*
X163540722Y-127086197D01*
X163378319Y-127013891D01*
X163378318Y-127013891D01*
X163372288Y-127011206D01*
X163265202Y-126988444D01*
X163191944Y-126972872D01*
X163191939Y-126972872D01*
X163185487Y-126971500D01*
X162994513Y-126971500D01*
X162988061Y-126972872D01*
X162988056Y-126972872D01*
X162914798Y-126988444D01*
X162807712Y-127011206D01*
X162801682Y-127013891D01*
X162801681Y-127013891D01*
X162639278Y-127086197D01*
X162639276Y-127086198D01*
X162633248Y-127088882D01*
X162478747Y-127201134D01*
X162474326Y-127206044D01*
X162474325Y-127206045D01*
X162407801Y-127279928D01*
X162350960Y-127343056D01*
X162340532Y-127361118D01*
X162286173Y-127455271D01*
X162255473Y-127508444D01*
X162196458Y-127690072D01*
X162195768Y-127696633D01*
X162195768Y-127696635D01*
X162187768Y-127772749D01*
X162176496Y-127880000D01*
X155608291Y-127880000D01*
X155761253Y-127768866D01*
X155826290Y-127696635D01*
X155884621Y-127631852D01*
X155884622Y-127631851D01*
X155889040Y-127626944D01*
X155947314Y-127526010D01*
X155981223Y-127467279D01*
X155981224Y-127467278D01*
X155984527Y-127461556D01*
X156043542Y-127279928D01*
X156051824Y-127201134D01*
X156062814Y-127096565D01*
X156063504Y-127090000D01*
X156052229Y-126982721D01*
X156044232Y-126906635D01*
X156044232Y-126906633D01*
X156043542Y-126900072D01*
X155984527Y-126718444D01*
X155889040Y-126553056D01*
X155761253Y-126411134D01*
X155606752Y-126298882D01*
X155600724Y-126296198D01*
X155600722Y-126296197D01*
X155438319Y-126223891D01*
X155438318Y-126223891D01*
X155432288Y-126221206D01*
X155325202Y-126198444D01*
X155251944Y-126182872D01*
X155251939Y-126182872D01*
X155245487Y-126181500D01*
X155054513Y-126181500D01*
X155048061Y-126182872D01*
X155048056Y-126182872D01*
X154974798Y-126198444D01*
X154867712Y-126221206D01*
X154861682Y-126223891D01*
X154861681Y-126223891D01*
X154699278Y-126296197D01*
X154699276Y-126296198D01*
X154693248Y-126298882D01*
X154538747Y-126411134D01*
X154410960Y-126553056D01*
X154315473Y-126718444D01*
X154256458Y-126900072D01*
X154255768Y-126906633D01*
X154255768Y-126906635D01*
X154247771Y-126982721D01*
X154236496Y-127090000D01*
X145007525Y-127090000D01*
X144974527Y-126988444D01*
X144965537Y-126972872D01*
X144882341Y-126828774D01*
X144879040Y-126823056D01*
X144822200Y-126759928D01*
X144755675Y-126686045D01*
X144755674Y-126686044D01*
X144751253Y-126681134D01*
X144596752Y-126568882D01*
X144590724Y-126566198D01*
X144590722Y-126566197D01*
X144428319Y-126493891D01*
X144428318Y-126493891D01*
X144422288Y-126491206D01*
X144328888Y-126471353D01*
X144241944Y-126452872D01*
X144241939Y-126452872D01*
X144235487Y-126451500D01*
X144044513Y-126451500D01*
X144038061Y-126452872D01*
X144038056Y-126452872D01*
X143951112Y-126471353D01*
X143857712Y-126491206D01*
X143851682Y-126493891D01*
X143851681Y-126493891D01*
X143689278Y-126566197D01*
X143689276Y-126566198D01*
X143683248Y-126568882D01*
X143528747Y-126681134D01*
X143524326Y-126686044D01*
X143524325Y-126686045D01*
X143457801Y-126759928D01*
X143400960Y-126823056D01*
X143397659Y-126828774D01*
X143314464Y-126972872D01*
X143305473Y-126988444D01*
X143246458Y-127170072D01*
X143245768Y-127176633D01*
X143245768Y-127176635D01*
X143237768Y-127252749D01*
X143226496Y-127360000D01*
X136658291Y-127360000D01*
X136811253Y-127248866D01*
X136876290Y-127176635D01*
X136934621Y-127111852D01*
X136934622Y-127111851D01*
X136939040Y-127106944D01*
X136997314Y-127006010D01*
X137031223Y-126947279D01*
X137031224Y-126947278D01*
X137034527Y-126941556D01*
X137093542Y-126759928D01*
X137101824Y-126681134D01*
X137112814Y-126576565D01*
X137113504Y-126570000D01*
X137105078Y-126489834D01*
X137094232Y-126386635D01*
X137094232Y-126386633D01*
X137093542Y-126380072D01*
X137034527Y-126198444D01*
X137025537Y-126182872D01*
X136942341Y-126038774D01*
X136939040Y-126033056D01*
X136811253Y-125891134D01*
X136656752Y-125778882D01*
X136650724Y-125776198D01*
X136650722Y-125776197D01*
X136488319Y-125703891D01*
X136488318Y-125703891D01*
X136482288Y-125701206D01*
X136388888Y-125681353D01*
X136301944Y-125662872D01*
X136301939Y-125662872D01*
X136295487Y-125661500D01*
X136104513Y-125661500D01*
X136098061Y-125662872D01*
X136098056Y-125662872D01*
X136011112Y-125681353D01*
X135917712Y-125701206D01*
X135911682Y-125703891D01*
X135911681Y-125703891D01*
X135749278Y-125776197D01*
X135749276Y-125776198D01*
X135743248Y-125778882D01*
X135588747Y-125891134D01*
X135460960Y-126033056D01*
X135457659Y-126038774D01*
X135374464Y-126182872D01*
X135365473Y-126198444D01*
X135306458Y-126380072D01*
X135305768Y-126386633D01*
X135305768Y-126386635D01*
X135294922Y-126489834D01*
X135286496Y-126570000D01*
X123948291Y-126570000D01*
X123946752Y-126568882D01*
X123940724Y-126566198D01*
X123940722Y-126566197D01*
X123778319Y-126493891D01*
X123778318Y-126493891D01*
X123772288Y-126491206D01*
X123678888Y-126471353D01*
X123591944Y-126452872D01*
X123591939Y-126452872D01*
X123585487Y-126451500D01*
X123394513Y-126451500D01*
X123388061Y-126452872D01*
X123388056Y-126452872D01*
X123301112Y-126471353D01*
X123207712Y-126491206D01*
X123201682Y-126493891D01*
X123201681Y-126493891D01*
X123039278Y-126566197D01*
X123039276Y-126566198D01*
X123033248Y-126568882D01*
X122878747Y-126681134D01*
X122874326Y-126686044D01*
X122874325Y-126686045D01*
X122807801Y-126759928D01*
X122750960Y-126823056D01*
X122747659Y-126828774D01*
X122664464Y-126972872D01*
X122655473Y-126988444D01*
X122596458Y-127170072D01*
X122595768Y-127176633D01*
X122595768Y-127176635D01*
X122587768Y-127252749D01*
X122576496Y-127360000D01*
X116008291Y-127360000D01*
X116161253Y-127248866D01*
X116226290Y-127176635D01*
X116284621Y-127111852D01*
X116284622Y-127111851D01*
X116289040Y-127106944D01*
X116347314Y-127006010D01*
X116381223Y-126947279D01*
X116381224Y-126947278D01*
X116384527Y-126941556D01*
X116443542Y-126759928D01*
X116451824Y-126681134D01*
X116462814Y-126576565D01*
X116463504Y-126570000D01*
X116455078Y-126489834D01*
X116444232Y-126386635D01*
X116444232Y-126386633D01*
X116443542Y-126380072D01*
X116384527Y-126198444D01*
X116375537Y-126182872D01*
X116292341Y-126038774D01*
X116289040Y-126033056D01*
X116161253Y-125891134D01*
X116006752Y-125778882D01*
X116000724Y-125776198D01*
X116000722Y-125776197D01*
X115838319Y-125703891D01*
X115838318Y-125703891D01*
X115832288Y-125701206D01*
X115738888Y-125681353D01*
X115651944Y-125662872D01*
X115651939Y-125662872D01*
X115645487Y-125661500D01*
X115454513Y-125661500D01*
X115448061Y-125662872D01*
X115448056Y-125662872D01*
X115361112Y-125681353D01*
X115267712Y-125701206D01*
X115261682Y-125703891D01*
X115261681Y-125703891D01*
X115099278Y-125776197D01*
X115099276Y-125776198D01*
X115093248Y-125778882D01*
X114938747Y-125891134D01*
X114810960Y-126033056D01*
X114807659Y-126038774D01*
X114724464Y-126182872D01*
X114715473Y-126198444D01*
X114656458Y-126380072D01*
X114655768Y-126386633D01*
X114655768Y-126386635D01*
X114644922Y-126489834D01*
X114636496Y-126570000D01*
X109319755Y-126570000D01*
X109329658Y-122600000D01*
X116146496Y-122600000D01*
X116166458Y-122789928D01*
X116225473Y-122971556D01*
X116228776Y-122977278D01*
X116228777Y-122977279D01*
X116246098Y-123007279D01*
X116320960Y-123136944D01*
X116325378Y-123141851D01*
X116325379Y-123141852D01*
X116347972Y-123166944D01*
X116448747Y-123278866D01*
X116603248Y-123391118D01*
X116609276Y-123393802D01*
X116609278Y-123393803D01*
X116670629Y-123421118D01*
X116777712Y-123468794D01*
X116871113Y-123488647D01*
X116958056Y-123507128D01*
X116958061Y-123507128D01*
X116964513Y-123508500D01*
X117155487Y-123508500D01*
X117161939Y-123507128D01*
X117161944Y-123507128D01*
X117248887Y-123488647D01*
X117342288Y-123468794D01*
X117449371Y-123421118D01*
X117510722Y-123393803D01*
X117510724Y-123393802D01*
X117516752Y-123391118D01*
X117544058Y-123371279D01*
X117610926Y-123347421D01*
X117680077Y-123363502D01*
X117692178Y-123371279D01*
X117733248Y-123401118D01*
X117739276Y-123403802D01*
X117739278Y-123403803D01*
X117888333Y-123470166D01*
X117907712Y-123478794D01*
X117994677Y-123497279D01*
X118088056Y-123517128D01*
X118088061Y-123517128D01*
X118094513Y-123518500D01*
X118285487Y-123518500D01*
X118291939Y-123517128D01*
X118291944Y-123517128D01*
X118385323Y-123497279D01*
X118472288Y-123478794D01*
X118491667Y-123470166D01*
X118640722Y-123403803D01*
X118640724Y-123403802D01*
X118646752Y-123401118D01*
X118665858Y-123387237D01*
X118699057Y-123363116D01*
X118765925Y-123339258D01*
X118835076Y-123355338D01*
X118847179Y-123363116D01*
X118894144Y-123397238D01*
X118913248Y-123411118D01*
X118919276Y-123413802D01*
X118919278Y-123413803D01*
X119068333Y-123480166D01*
X119087712Y-123488794D01*
X119173966Y-123507128D01*
X119268056Y-123527128D01*
X119268061Y-123527128D01*
X119274513Y-123528500D01*
X119465487Y-123528500D01*
X119471939Y-123527128D01*
X119471944Y-123527128D01*
X119566034Y-123507128D01*
X119652288Y-123488794D01*
X119671667Y-123480166D01*
X119820722Y-123413803D01*
X119820724Y-123413802D01*
X119826752Y-123411118D01*
X119869058Y-123380381D01*
X119935926Y-123356523D01*
X120005077Y-123372604D01*
X120017178Y-123380381D01*
X120035652Y-123393803D01*
X120073248Y-123421118D01*
X120079276Y-123423802D01*
X120079278Y-123423803D01*
X120228333Y-123490166D01*
X120247712Y-123498794D01*
X120325230Y-123515271D01*
X120428056Y-123537128D01*
X120428061Y-123537128D01*
X120434513Y-123538500D01*
X120625487Y-123538500D01*
X120631939Y-123537128D01*
X120631944Y-123537128D01*
X120734770Y-123515271D01*
X120812288Y-123498794D01*
X120831667Y-123490166D01*
X120980722Y-123423803D01*
X120980724Y-123423802D01*
X120986752Y-123421118D01*
X121005858Y-123407237D01*
X121042821Y-123380381D01*
X121141253Y-123308866D01*
X121269040Y-123166944D01*
X121364527Y-123001556D01*
X121423542Y-122819928D01*
X121443504Y-122630000D01*
X121440351Y-122600000D01*
X136796496Y-122600000D01*
X136816458Y-122789928D01*
X136875473Y-122971556D01*
X136878776Y-122977278D01*
X136878777Y-122977279D01*
X136896098Y-123007279D01*
X136970960Y-123136944D01*
X136975378Y-123141851D01*
X136975379Y-123141852D01*
X136997972Y-123166944D01*
X137098747Y-123278866D01*
X137253248Y-123391118D01*
X137259276Y-123393802D01*
X137259278Y-123393803D01*
X137320629Y-123421118D01*
X137427712Y-123468794D01*
X137521113Y-123488647D01*
X137608056Y-123507128D01*
X137608061Y-123507128D01*
X137614513Y-123508500D01*
X137805487Y-123508500D01*
X137811939Y-123507128D01*
X137811944Y-123507128D01*
X137898887Y-123488647D01*
X137992288Y-123468794D01*
X138099371Y-123421118D01*
X138160722Y-123393803D01*
X138160724Y-123393802D01*
X138166752Y-123391118D01*
X138194058Y-123371279D01*
X138260926Y-123347421D01*
X138330077Y-123363502D01*
X138342178Y-123371279D01*
X138383248Y-123401118D01*
X138389276Y-123403802D01*
X138389278Y-123403803D01*
X138538333Y-123470166D01*
X138557712Y-123478794D01*
X138644677Y-123497279D01*
X138738056Y-123517128D01*
X138738061Y-123517128D01*
X138744513Y-123518500D01*
X138935487Y-123518500D01*
X138941939Y-123517128D01*
X138941944Y-123517128D01*
X139035323Y-123497279D01*
X139122288Y-123478794D01*
X139141667Y-123470166D01*
X139290722Y-123403803D01*
X139290724Y-123403802D01*
X139296752Y-123401118D01*
X139315858Y-123387237D01*
X139349057Y-123363116D01*
X139415925Y-123339258D01*
X139485076Y-123355338D01*
X139497179Y-123363116D01*
X139544144Y-123397238D01*
X139563248Y-123411118D01*
X139569276Y-123413802D01*
X139569278Y-123413803D01*
X139718333Y-123480166D01*
X139737712Y-123488794D01*
X139823966Y-123507128D01*
X139918056Y-123527128D01*
X139918061Y-123527128D01*
X139924513Y-123528500D01*
X140115487Y-123528500D01*
X140121939Y-123527128D01*
X140121944Y-123527128D01*
X140216034Y-123507128D01*
X140302288Y-123488794D01*
X140321667Y-123480166D01*
X140470722Y-123413803D01*
X140470724Y-123413802D01*
X140476752Y-123411118D01*
X140519058Y-123380381D01*
X140585926Y-123356523D01*
X140655077Y-123372604D01*
X140667178Y-123380381D01*
X140685652Y-123393803D01*
X140723248Y-123421118D01*
X140729276Y-123423802D01*
X140729278Y-123423803D01*
X140878333Y-123490166D01*
X140897712Y-123498794D01*
X140975230Y-123515271D01*
X141078056Y-123537128D01*
X141078061Y-123537128D01*
X141084513Y-123538500D01*
X141275487Y-123538500D01*
X141281939Y-123537128D01*
X141281944Y-123537128D01*
X141384770Y-123515271D01*
X141462288Y-123498794D01*
X141481667Y-123490166D01*
X141630722Y-123423803D01*
X141630724Y-123423802D01*
X141636752Y-123421118D01*
X141655858Y-123407237D01*
X141692821Y-123380381D01*
X141791253Y-123308866D01*
X141919040Y-123166944D01*
X141946143Y-123120000D01*
X155746496Y-123120000D01*
X155766458Y-123309928D01*
X155825473Y-123491556D01*
X155828776Y-123497278D01*
X155828777Y-123497279D01*
X155846098Y-123527279D01*
X155920960Y-123656944D01*
X155925378Y-123661851D01*
X155925379Y-123661852D01*
X155947972Y-123686944D01*
X156048747Y-123798866D01*
X156203248Y-123911118D01*
X156209276Y-123913802D01*
X156209278Y-123913803D01*
X156270629Y-123941118D01*
X156377712Y-123988794D01*
X156471113Y-124008647D01*
X156558056Y-124027128D01*
X156558061Y-124027128D01*
X156564513Y-124028500D01*
X156755487Y-124028500D01*
X156761939Y-124027128D01*
X156761944Y-124027128D01*
X156848887Y-124008647D01*
X156942288Y-123988794D01*
X157049371Y-123941118D01*
X157110722Y-123913803D01*
X157110724Y-123913802D01*
X157116752Y-123911118D01*
X157144058Y-123891279D01*
X157210926Y-123867421D01*
X157280077Y-123883502D01*
X157292178Y-123891279D01*
X157333248Y-123921118D01*
X157339276Y-123923802D01*
X157339278Y-123923803D01*
X157488333Y-123990166D01*
X157507712Y-123998794D01*
X157601112Y-124018647D01*
X157688056Y-124037128D01*
X157688061Y-124037128D01*
X157694513Y-124038500D01*
X157885487Y-124038500D01*
X157891939Y-124037128D01*
X157891944Y-124037128D01*
X157978888Y-124018647D01*
X158072288Y-123998794D01*
X158091667Y-123990166D01*
X158240722Y-123923803D01*
X158240724Y-123923802D01*
X158246752Y-123921118D01*
X158265858Y-123907237D01*
X158299057Y-123883116D01*
X158365925Y-123859258D01*
X158435076Y-123875338D01*
X158447179Y-123883116D01*
X158494144Y-123917238D01*
X158513248Y-123931118D01*
X158519276Y-123933802D01*
X158519278Y-123933803D01*
X158668333Y-124000166D01*
X158687712Y-124008794D01*
X158773966Y-124027128D01*
X158868056Y-124047128D01*
X158868061Y-124047128D01*
X158874513Y-124048500D01*
X159065487Y-124048500D01*
X159071939Y-124047128D01*
X159071944Y-124047128D01*
X159166034Y-124027128D01*
X159252288Y-124008794D01*
X159271667Y-124000166D01*
X159420722Y-123933803D01*
X159420724Y-123933802D01*
X159426752Y-123931118D01*
X159469058Y-123900381D01*
X159535926Y-123876523D01*
X159605077Y-123892604D01*
X159617178Y-123900381D01*
X159635652Y-123913803D01*
X159673248Y-123941118D01*
X159679276Y-123943802D01*
X159679278Y-123943803D01*
X159828333Y-124010166D01*
X159847712Y-124018794D01*
X159933966Y-124037128D01*
X160028056Y-124057128D01*
X160028061Y-124057128D01*
X160034513Y-124058500D01*
X160225487Y-124058500D01*
X160231939Y-124057128D01*
X160231944Y-124057128D01*
X160326034Y-124037128D01*
X160412288Y-124018794D01*
X160431667Y-124010166D01*
X160580722Y-123943803D01*
X160580724Y-123943802D01*
X160586752Y-123941118D01*
X160605858Y-123927237D01*
X160642821Y-123900381D01*
X160741253Y-123828866D01*
X160869040Y-123686944D01*
X160927314Y-123586010D01*
X160961223Y-123527279D01*
X160961224Y-123527278D01*
X160964527Y-123521556D01*
X161023542Y-123339928D01*
X161026761Y-123309307D01*
X161042814Y-123156565D01*
X161043504Y-123150000D01*
X161023542Y-122960072D01*
X160964527Y-122778444D01*
X160947207Y-122748444D01*
X160882613Y-122636565D01*
X160869040Y-122613056D01*
X160863196Y-122606565D01*
X160745675Y-122476045D01*
X160745674Y-122476044D01*
X160741253Y-122471134D01*
X160619368Y-122382579D01*
X160592094Y-122362763D01*
X160592093Y-122362762D01*
X160586752Y-122358882D01*
X160580724Y-122356198D01*
X160580722Y-122356197D01*
X160418319Y-122283891D01*
X160418318Y-122283891D01*
X160412288Y-122281206D01*
X160305202Y-122258444D01*
X160231944Y-122242872D01*
X160231939Y-122242872D01*
X160225487Y-122241500D01*
X160034513Y-122241500D01*
X160028061Y-122242872D01*
X160028056Y-122242872D01*
X159954798Y-122258444D01*
X159847712Y-122281206D01*
X159841682Y-122283891D01*
X159841681Y-122283891D01*
X159679278Y-122356197D01*
X159679276Y-122356198D01*
X159673248Y-122358882D01*
X159645353Y-122379149D01*
X159630942Y-122389619D01*
X159564074Y-122413477D01*
X159494923Y-122397396D01*
X159482822Y-122389619D01*
X159450998Y-122366498D01*
X159426752Y-122348882D01*
X159420724Y-122346198D01*
X159420722Y-122346197D01*
X159258319Y-122273891D01*
X159258318Y-122273891D01*
X159252288Y-122271206D01*
X159151741Y-122249834D01*
X159071944Y-122232872D01*
X159071939Y-122232872D01*
X159065487Y-122231500D01*
X158874513Y-122231500D01*
X158868061Y-122232872D01*
X158868056Y-122232872D01*
X158788259Y-122249834D01*
X158687712Y-122271206D01*
X158681682Y-122273891D01*
X158681681Y-122273891D01*
X158519278Y-122346197D01*
X158519276Y-122346198D01*
X158513248Y-122348882D01*
X158507907Y-122352762D01*
X158507906Y-122352763D01*
X158460943Y-122386884D01*
X158394075Y-122410742D01*
X158324924Y-122394662D01*
X158312821Y-122386884D01*
X158252094Y-122342763D01*
X158252093Y-122342762D01*
X158246752Y-122338882D01*
X158240724Y-122336198D01*
X158240722Y-122336197D01*
X158078319Y-122263891D01*
X158078318Y-122263891D01*
X158072288Y-122261206D01*
X157978887Y-122241353D01*
X157891944Y-122222872D01*
X157891939Y-122222872D01*
X157885487Y-122221500D01*
X157694513Y-122221500D01*
X157688061Y-122222872D01*
X157688056Y-122222872D01*
X157601113Y-122241353D01*
X157507712Y-122261206D01*
X157501682Y-122263891D01*
X157501681Y-122263891D01*
X157339278Y-122336197D01*
X157339276Y-122336198D01*
X157333248Y-122338882D01*
X157323180Y-122346197D01*
X157305942Y-122358721D01*
X157239074Y-122382579D01*
X157169923Y-122366498D01*
X157157822Y-122358721D01*
X157140584Y-122346197D01*
X157116752Y-122328882D01*
X157110724Y-122326198D01*
X157110722Y-122326197D01*
X156948319Y-122253891D01*
X156948318Y-122253891D01*
X156942288Y-122251206D01*
X156835202Y-122228444D01*
X156761944Y-122212872D01*
X156761939Y-122212872D01*
X156755487Y-122211500D01*
X156564513Y-122211500D01*
X156558061Y-122212872D01*
X156558056Y-122212872D01*
X156484798Y-122228444D01*
X156377712Y-122251206D01*
X156371682Y-122253891D01*
X156371681Y-122253891D01*
X156209278Y-122326197D01*
X156209276Y-122326198D01*
X156203248Y-122328882D01*
X156197907Y-122332762D01*
X156197906Y-122332763D01*
X156179416Y-122346197D01*
X156048747Y-122441134D01*
X155920960Y-122583056D01*
X155825473Y-122748444D01*
X155766458Y-122930072D01*
X155746496Y-123120000D01*
X141946143Y-123120000D01*
X142014527Y-123001556D01*
X142073542Y-122819928D01*
X142093504Y-122630000D01*
X142073542Y-122440072D01*
X142014527Y-122258444D01*
X142005537Y-122242872D01*
X141922341Y-122098774D01*
X141919040Y-122093056D01*
X141897177Y-122068774D01*
X141795675Y-121956045D01*
X141795674Y-121956044D01*
X141791253Y-121951134D01*
X141669368Y-121862579D01*
X141642094Y-121842763D01*
X141642093Y-121842762D01*
X141636752Y-121838882D01*
X141630724Y-121836198D01*
X141630722Y-121836197D01*
X141468319Y-121763891D01*
X141468318Y-121763891D01*
X141462288Y-121761206D01*
X141361741Y-121739834D01*
X141281944Y-121722872D01*
X141281939Y-121722872D01*
X141275487Y-121721500D01*
X141084513Y-121721500D01*
X141078061Y-121722872D01*
X141078056Y-121722872D01*
X140998259Y-121739834D01*
X140897712Y-121761206D01*
X140891682Y-121763891D01*
X140891681Y-121763891D01*
X140729278Y-121836197D01*
X140729276Y-121836198D01*
X140723248Y-121838882D01*
X140695353Y-121859149D01*
X140680942Y-121869619D01*
X140614074Y-121893477D01*
X140544923Y-121877396D01*
X140532822Y-121869619D01*
X140500998Y-121846498D01*
X140476752Y-121828882D01*
X140470724Y-121826198D01*
X140470722Y-121826197D01*
X140308319Y-121753891D01*
X140308318Y-121753891D01*
X140302288Y-121751206D01*
X140201741Y-121729834D01*
X140121944Y-121712872D01*
X140121939Y-121712872D01*
X140115487Y-121711500D01*
X139924513Y-121711500D01*
X139918061Y-121712872D01*
X139918056Y-121712872D01*
X139838259Y-121729834D01*
X139737712Y-121751206D01*
X139731682Y-121753891D01*
X139731681Y-121753891D01*
X139569278Y-121826197D01*
X139569276Y-121826198D01*
X139563248Y-121828882D01*
X139557907Y-121832762D01*
X139557906Y-121832763D01*
X139510943Y-121866884D01*
X139444075Y-121890742D01*
X139374924Y-121874662D01*
X139362821Y-121866884D01*
X139302094Y-121822763D01*
X139302093Y-121822762D01*
X139296752Y-121818882D01*
X139290724Y-121816198D01*
X139290722Y-121816197D01*
X139128319Y-121743891D01*
X139128318Y-121743891D01*
X139122288Y-121741206D01*
X139028887Y-121721353D01*
X138941944Y-121702872D01*
X138941939Y-121702872D01*
X138935487Y-121701500D01*
X138744513Y-121701500D01*
X138738061Y-121702872D01*
X138738056Y-121702872D01*
X138651113Y-121721353D01*
X138557712Y-121741206D01*
X138551682Y-121743891D01*
X138551681Y-121743891D01*
X138389278Y-121816197D01*
X138389276Y-121816198D01*
X138383248Y-121818882D01*
X138373180Y-121826197D01*
X138355942Y-121838721D01*
X138289074Y-121862579D01*
X138219923Y-121846498D01*
X138207822Y-121838721D01*
X138190584Y-121826197D01*
X138166752Y-121808882D01*
X138160724Y-121806198D01*
X138160722Y-121806197D01*
X137998319Y-121733891D01*
X137998318Y-121733891D01*
X137992288Y-121731206D01*
X137898887Y-121711353D01*
X137811944Y-121692872D01*
X137811939Y-121692872D01*
X137805487Y-121691500D01*
X137614513Y-121691500D01*
X137608061Y-121692872D01*
X137608056Y-121692872D01*
X137521113Y-121711353D01*
X137427712Y-121731206D01*
X137421682Y-121733891D01*
X137421681Y-121733891D01*
X137259278Y-121806197D01*
X137259276Y-121806198D01*
X137253248Y-121808882D01*
X137247907Y-121812762D01*
X137247906Y-121812763D01*
X137229416Y-121826197D01*
X137098747Y-121921134D01*
X136970960Y-122063056D01*
X136950338Y-122098774D01*
X136884464Y-122212872D01*
X136875473Y-122228444D01*
X136816458Y-122410072D01*
X136815768Y-122416633D01*
X136815768Y-122416635D01*
X136813193Y-122441134D01*
X136796496Y-122600000D01*
X121440351Y-122600000D01*
X121423542Y-122440072D01*
X121364527Y-122258444D01*
X121355537Y-122242872D01*
X121272341Y-122098774D01*
X121269040Y-122093056D01*
X121247177Y-122068774D01*
X121145675Y-121956045D01*
X121145674Y-121956044D01*
X121141253Y-121951134D01*
X121019368Y-121862579D01*
X120992094Y-121842763D01*
X120992093Y-121842762D01*
X120986752Y-121838882D01*
X120980724Y-121836198D01*
X120980722Y-121836197D01*
X120818319Y-121763891D01*
X120818318Y-121763891D01*
X120812288Y-121761206D01*
X120711741Y-121739834D01*
X120631944Y-121722872D01*
X120631939Y-121722872D01*
X120625487Y-121721500D01*
X120434513Y-121721500D01*
X120428061Y-121722872D01*
X120428056Y-121722872D01*
X120348259Y-121739834D01*
X120247712Y-121761206D01*
X120241682Y-121763891D01*
X120241681Y-121763891D01*
X120079278Y-121836197D01*
X120079276Y-121836198D01*
X120073248Y-121838882D01*
X120045353Y-121859149D01*
X120030942Y-121869619D01*
X119964074Y-121893477D01*
X119894923Y-121877396D01*
X119882822Y-121869619D01*
X119850998Y-121846498D01*
X119826752Y-121828882D01*
X119820724Y-121826198D01*
X119820722Y-121826197D01*
X119658319Y-121753891D01*
X119658318Y-121753891D01*
X119652288Y-121751206D01*
X119551741Y-121729834D01*
X119471944Y-121712872D01*
X119471939Y-121712872D01*
X119465487Y-121711500D01*
X119274513Y-121711500D01*
X119268061Y-121712872D01*
X119268056Y-121712872D01*
X119188259Y-121729834D01*
X119087712Y-121751206D01*
X119081682Y-121753891D01*
X119081681Y-121753891D01*
X118919278Y-121826197D01*
X118919276Y-121826198D01*
X118913248Y-121828882D01*
X118907907Y-121832762D01*
X118907906Y-121832763D01*
X118860943Y-121866884D01*
X118794075Y-121890742D01*
X118724924Y-121874662D01*
X118712821Y-121866884D01*
X118652094Y-121822763D01*
X118652093Y-121822762D01*
X118646752Y-121818882D01*
X118640724Y-121816198D01*
X118640722Y-121816197D01*
X118478319Y-121743891D01*
X118478318Y-121743891D01*
X118472288Y-121741206D01*
X118378887Y-121721353D01*
X118291944Y-121702872D01*
X118291939Y-121702872D01*
X118285487Y-121701500D01*
X118094513Y-121701500D01*
X118088061Y-121702872D01*
X118088056Y-121702872D01*
X118001113Y-121721353D01*
X117907712Y-121741206D01*
X117901682Y-121743891D01*
X117901681Y-121743891D01*
X117739278Y-121816197D01*
X117739276Y-121816198D01*
X117733248Y-121818882D01*
X117723180Y-121826197D01*
X117705942Y-121838721D01*
X117639074Y-121862579D01*
X117569923Y-121846498D01*
X117557822Y-121838721D01*
X117540584Y-121826197D01*
X117516752Y-121808882D01*
X117510724Y-121806198D01*
X117510722Y-121806197D01*
X117348319Y-121733891D01*
X117348318Y-121733891D01*
X117342288Y-121731206D01*
X117248887Y-121711353D01*
X117161944Y-121692872D01*
X117161939Y-121692872D01*
X117155487Y-121691500D01*
X116964513Y-121691500D01*
X116958061Y-121692872D01*
X116958056Y-121692872D01*
X116871113Y-121711353D01*
X116777712Y-121731206D01*
X116771682Y-121733891D01*
X116771681Y-121733891D01*
X116609278Y-121806197D01*
X116609276Y-121806198D01*
X116603248Y-121808882D01*
X116597907Y-121812762D01*
X116597906Y-121812763D01*
X116579416Y-121826197D01*
X116448747Y-121921134D01*
X116320960Y-122063056D01*
X116300338Y-122098774D01*
X116234464Y-122212872D01*
X116225473Y-122228444D01*
X116166458Y-122410072D01*
X116165768Y-122416633D01*
X116165768Y-122416635D01*
X116163193Y-122441134D01*
X116146496Y-122600000D01*
X109329658Y-122600000D01*
X109350893Y-114087000D01*
X158268496Y-114087000D01*
X158288458Y-114276928D01*
X158347473Y-114458556D01*
X158442960Y-114623944D01*
X158570747Y-114765866D01*
X158725248Y-114878118D01*
X158731276Y-114880802D01*
X158731278Y-114880803D01*
X158893681Y-114953109D01*
X158899712Y-114955794D01*
X158993112Y-114975647D01*
X159080056Y-114994128D01*
X159080061Y-114994128D01*
X159086513Y-114995500D01*
X159277487Y-114995500D01*
X159283939Y-114994128D01*
X159283944Y-114994128D01*
X159370888Y-114975647D01*
X159464288Y-114955794D01*
X159470319Y-114953109D01*
X159632722Y-114880803D01*
X159632724Y-114880802D01*
X159638752Y-114878118D01*
X159793253Y-114765866D01*
X159921040Y-114623944D01*
X160016527Y-114458556D01*
X160075542Y-114276928D01*
X160095504Y-114087000D01*
X160075542Y-113897072D01*
X160016527Y-113715444D01*
X159921040Y-113550056D01*
X159816366Y-113433803D01*
X159797675Y-113413045D01*
X159797674Y-113413044D01*
X159793253Y-113408134D01*
X159694157Y-113336136D01*
X159644094Y-113299763D01*
X159644093Y-113299762D01*
X159638752Y-113295882D01*
X159632724Y-113293198D01*
X159632722Y-113293197D01*
X159470319Y-113220891D01*
X159470318Y-113220891D01*
X159464288Y-113218206D01*
X159370888Y-113198353D01*
X159283944Y-113179872D01*
X159283939Y-113179872D01*
X159277487Y-113178500D01*
X159086513Y-113178500D01*
X159080061Y-113179872D01*
X159080056Y-113179872D01*
X158993113Y-113198353D01*
X158899712Y-113218206D01*
X158893682Y-113220891D01*
X158893681Y-113220891D01*
X158731278Y-113293197D01*
X158731276Y-113293198D01*
X158725248Y-113295882D01*
X158719907Y-113299762D01*
X158719906Y-113299763D01*
X158669843Y-113336136D01*
X158570747Y-113408134D01*
X158566326Y-113413044D01*
X158566325Y-113413045D01*
X158547635Y-113433803D01*
X158442960Y-113550056D01*
X158347473Y-113715444D01*
X158288458Y-113897072D01*
X158268496Y-114087000D01*
X109350893Y-114087000D01*
X109354503Y-112640000D01*
X115166496Y-112640000D01*
X115186458Y-112829928D01*
X115245473Y-113011556D01*
X115340960Y-113176944D01*
X115345378Y-113181851D01*
X115345379Y-113181852D01*
X115464325Y-113313955D01*
X115468747Y-113318866D01*
X115623248Y-113431118D01*
X115629276Y-113433802D01*
X115629278Y-113433803D01*
X115791681Y-113506109D01*
X115797712Y-113508794D01*
X115891112Y-113528647D01*
X115978056Y-113547128D01*
X115978061Y-113547128D01*
X115984513Y-113548500D01*
X116175487Y-113548500D01*
X116181939Y-113547128D01*
X116181944Y-113547128D01*
X116268887Y-113528647D01*
X116362288Y-113508794D01*
X116368319Y-113506109D01*
X116530722Y-113433803D01*
X116530724Y-113433802D01*
X116536752Y-113431118D01*
X116640940Y-113355421D01*
X116707806Y-113331563D01*
X116776958Y-113347643D01*
X116789056Y-113355418D01*
X116893248Y-113431118D01*
X116899276Y-113433802D01*
X116899278Y-113433803D01*
X117061681Y-113506109D01*
X117067712Y-113508794D01*
X117161112Y-113528647D01*
X117248056Y-113547128D01*
X117248061Y-113547128D01*
X117254513Y-113548500D01*
X117445487Y-113548500D01*
X117451939Y-113547128D01*
X117451944Y-113547128D01*
X117538887Y-113528647D01*
X117632288Y-113508794D01*
X117638319Y-113506109D01*
X117800722Y-113433803D01*
X117800724Y-113433802D01*
X117806752Y-113431118D01*
X117961253Y-113318866D01*
X117965675Y-113313955D01*
X118084621Y-113181852D01*
X118084622Y-113181851D01*
X118089040Y-113176944D01*
X118184527Y-113011556D01*
X118243542Y-112829928D01*
X118263504Y-112640000D01*
X118976496Y-112640000D01*
X118996458Y-112829928D01*
X119055473Y-113011556D01*
X119150960Y-113176944D01*
X119155378Y-113181851D01*
X119155379Y-113181852D01*
X119274325Y-113313955D01*
X119278747Y-113318866D01*
X119433248Y-113431118D01*
X119439276Y-113433802D01*
X119439278Y-113433803D01*
X119601681Y-113506109D01*
X119607712Y-113508794D01*
X119701112Y-113528647D01*
X119788056Y-113547128D01*
X119788061Y-113547128D01*
X119794513Y-113548500D01*
X119985487Y-113548500D01*
X119991939Y-113547128D01*
X119991944Y-113547128D01*
X120078887Y-113528647D01*
X120172288Y-113508794D01*
X120178319Y-113506109D01*
X120340722Y-113433803D01*
X120340724Y-113433802D01*
X120346752Y-113431118D01*
X120450940Y-113355421D01*
X120517806Y-113331563D01*
X120586958Y-113347643D01*
X120599056Y-113355418D01*
X120703248Y-113431118D01*
X120709276Y-113433802D01*
X120709278Y-113433803D01*
X120871681Y-113506109D01*
X120877712Y-113508794D01*
X120971112Y-113528647D01*
X121058056Y-113547128D01*
X121058061Y-113547128D01*
X121064513Y-113548500D01*
X121255487Y-113548500D01*
X121261939Y-113547128D01*
X121261944Y-113547128D01*
X121348887Y-113528647D01*
X121442288Y-113508794D01*
X121448319Y-113506109D01*
X121610722Y-113433803D01*
X121610724Y-113433802D01*
X121616752Y-113431118D01*
X121771253Y-113318866D01*
X121775675Y-113313955D01*
X121894621Y-113181852D01*
X121894622Y-113181851D01*
X121899040Y-113176944D01*
X121994527Y-113011556D01*
X122053542Y-112829928D01*
X122073504Y-112640000D01*
X122786496Y-112640000D01*
X122806458Y-112829928D01*
X122865473Y-113011556D01*
X122960960Y-113176944D01*
X122965378Y-113181851D01*
X122965379Y-113181852D01*
X123084325Y-113313955D01*
X123088747Y-113318866D01*
X123243248Y-113431118D01*
X123249276Y-113433802D01*
X123249278Y-113433803D01*
X123411681Y-113506109D01*
X123417712Y-113508794D01*
X123511112Y-113528647D01*
X123598056Y-113547128D01*
X123598061Y-113547128D01*
X123604513Y-113548500D01*
X123795487Y-113548500D01*
X123801939Y-113547128D01*
X123801944Y-113547128D01*
X123888887Y-113528647D01*
X123982288Y-113508794D01*
X123988319Y-113506109D01*
X124150722Y-113433803D01*
X124150724Y-113433802D01*
X124156752Y-113431118D01*
X124260940Y-113355421D01*
X124327806Y-113331563D01*
X124396958Y-113347643D01*
X124409056Y-113355418D01*
X124513248Y-113431118D01*
X124519276Y-113433802D01*
X124519278Y-113433803D01*
X124681681Y-113506109D01*
X124687712Y-113508794D01*
X124781112Y-113528647D01*
X124868056Y-113547128D01*
X124868061Y-113547128D01*
X124874513Y-113548500D01*
X125065487Y-113548500D01*
X125071939Y-113547128D01*
X125071944Y-113547128D01*
X125158887Y-113528647D01*
X125252288Y-113508794D01*
X125258319Y-113506109D01*
X125420722Y-113433803D01*
X125420724Y-113433802D01*
X125426752Y-113431118D01*
X125581253Y-113318866D01*
X125585675Y-113313955D01*
X125704621Y-113181852D01*
X125704622Y-113181851D01*
X125709040Y-113176944D01*
X125804527Y-113011556D01*
X125863542Y-112829928D01*
X125883504Y-112640000D01*
X126596496Y-112640000D01*
X126616458Y-112829928D01*
X126675473Y-113011556D01*
X126770960Y-113176944D01*
X126775378Y-113181851D01*
X126775379Y-113181852D01*
X126894325Y-113313955D01*
X126898747Y-113318866D01*
X127053248Y-113431118D01*
X127059276Y-113433802D01*
X127059278Y-113433803D01*
X127221681Y-113506109D01*
X127227712Y-113508794D01*
X127321112Y-113528647D01*
X127408056Y-113547128D01*
X127408061Y-113547128D01*
X127414513Y-113548500D01*
X127605487Y-113548500D01*
X127611939Y-113547128D01*
X127611944Y-113547128D01*
X127698887Y-113528647D01*
X127792288Y-113508794D01*
X127798319Y-113506109D01*
X127960722Y-113433803D01*
X127960724Y-113433802D01*
X127966752Y-113431118D01*
X128070940Y-113355421D01*
X128137806Y-113331563D01*
X128206958Y-113347643D01*
X128219056Y-113355418D01*
X128323248Y-113431118D01*
X128329276Y-113433802D01*
X128329278Y-113433803D01*
X128491681Y-113506109D01*
X128497712Y-113508794D01*
X128591112Y-113528647D01*
X128678056Y-113547128D01*
X128678061Y-113547128D01*
X128684513Y-113548500D01*
X128875487Y-113548500D01*
X128881939Y-113547128D01*
X128881944Y-113547128D01*
X128968887Y-113528647D01*
X129062288Y-113508794D01*
X129068319Y-113506109D01*
X129230722Y-113433803D01*
X129230724Y-113433802D01*
X129236752Y-113431118D01*
X129391253Y-113318866D01*
X129395675Y-113313955D01*
X129514621Y-113181852D01*
X129514622Y-113181851D01*
X129519040Y-113176944D01*
X129614527Y-113011556D01*
X129673542Y-112829928D01*
X129693504Y-112640000D01*
X130406496Y-112640000D01*
X130426458Y-112829928D01*
X130485473Y-113011556D01*
X130580960Y-113176944D01*
X130585378Y-113181851D01*
X130585379Y-113181852D01*
X130704325Y-113313955D01*
X130708747Y-113318866D01*
X130863248Y-113431118D01*
X130869276Y-113433802D01*
X130869278Y-113433803D01*
X131031681Y-113506109D01*
X131037712Y-113508794D01*
X131131112Y-113528647D01*
X131218056Y-113547128D01*
X131218061Y-113547128D01*
X131224513Y-113548500D01*
X131415487Y-113548500D01*
X131421939Y-113547128D01*
X131421944Y-113547128D01*
X131508887Y-113528647D01*
X131602288Y-113508794D01*
X131608319Y-113506109D01*
X131770722Y-113433803D01*
X131770724Y-113433802D01*
X131776752Y-113431118D01*
X131880940Y-113355421D01*
X131947806Y-113331563D01*
X132016958Y-113347643D01*
X132029056Y-113355418D01*
X132133248Y-113431118D01*
X132139276Y-113433802D01*
X132139278Y-113433803D01*
X132301681Y-113506109D01*
X132307712Y-113508794D01*
X132401112Y-113528647D01*
X132488056Y-113547128D01*
X132488061Y-113547128D01*
X132494513Y-113548500D01*
X132685487Y-113548500D01*
X132691939Y-113547128D01*
X132691944Y-113547128D01*
X132778887Y-113528647D01*
X132872288Y-113508794D01*
X132878319Y-113506109D01*
X133040722Y-113433803D01*
X133040724Y-113433802D01*
X133046752Y-113431118D01*
X133201253Y-113318866D01*
X133205675Y-113313955D01*
X133324621Y-113181852D01*
X133324622Y-113181851D01*
X133329040Y-113176944D01*
X133424527Y-113011556D01*
X133483542Y-112829928D01*
X133503504Y-112640000D01*
X134216496Y-112640000D01*
X134236458Y-112829928D01*
X134295473Y-113011556D01*
X134390960Y-113176944D01*
X134395378Y-113181851D01*
X134395379Y-113181852D01*
X134514325Y-113313955D01*
X134518747Y-113318866D01*
X134673248Y-113431118D01*
X134679276Y-113433802D01*
X134679278Y-113433803D01*
X134841681Y-113506109D01*
X134847712Y-113508794D01*
X134941112Y-113528647D01*
X135028056Y-113547128D01*
X135028061Y-113547128D01*
X135034513Y-113548500D01*
X135225487Y-113548500D01*
X135231939Y-113547128D01*
X135231944Y-113547128D01*
X135318887Y-113528647D01*
X135412288Y-113508794D01*
X135418319Y-113506109D01*
X135580722Y-113433803D01*
X135580724Y-113433802D01*
X135586752Y-113431118D01*
X135690940Y-113355421D01*
X135757806Y-113331563D01*
X135826958Y-113347643D01*
X135839056Y-113355418D01*
X135943248Y-113431118D01*
X135949276Y-113433802D01*
X135949278Y-113433803D01*
X136111681Y-113506109D01*
X136117712Y-113508794D01*
X136211112Y-113528647D01*
X136298056Y-113547128D01*
X136298061Y-113547128D01*
X136304513Y-113548500D01*
X136495487Y-113548500D01*
X136501939Y-113547128D01*
X136501944Y-113547128D01*
X136588887Y-113528647D01*
X136682288Y-113508794D01*
X136688319Y-113506109D01*
X136850722Y-113433803D01*
X136850724Y-113433802D01*
X136856752Y-113431118D01*
X137011253Y-113318866D01*
X137015675Y-113313955D01*
X137134621Y-113181852D01*
X137134622Y-113181851D01*
X137139040Y-113176944D01*
X137234527Y-113011556D01*
X137293542Y-112829928D01*
X137313504Y-112640000D01*
X138026496Y-112640000D01*
X138046458Y-112829928D01*
X138105473Y-113011556D01*
X138200960Y-113176944D01*
X138205378Y-113181851D01*
X138205379Y-113181852D01*
X138324325Y-113313955D01*
X138328747Y-113318866D01*
X138483248Y-113431118D01*
X138489276Y-113433802D01*
X138489278Y-113433803D01*
X138651681Y-113506109D01*
X138657712Y-113508794D01*
X138751112Y-113528647D01*
X138838056Y-113547128D01*
X138838061Y-113547128D01*
X138844513Y-113548500D01*
X139035487Y-113548500D01*
X139041939Y-113547128D01*
X139041944Y-113547128D01*
X139128887Y-113528647D01*
X139222288Y-113508794D01*
X139228319Y-113506109D01*
X139390722Y-113433803D01*
X139390724Y-113433802D01*
X139396752Y-113431118D01*
X139500940Y-113355421D01*
X139567806Y-113331563D01*
X139636958Y-113347643D01*
X139649056Y-113355418D01*
X139753248Y-113431118D01*
X139759276Y-113433802D01*
X139759278Y-113433803D01*
X139921681Y-113506109D01*
X139927712Y-113508794D01*
X140021112Y-113528647D01*
X140108056Y-113547128D01*
X140108061Y-113547128D01*
X140114513Y-113548500D01*
X140305487Y-113548500D01*
X140311939Y-113547128D01*
X140311944Y-113547128D01*
X140398887Y-113528647D01*
X140492288Y-113508794D01*
X140498319Y-113506109D01*
X140660722Y-113433803D01*
X140660724Y-113433802D01*
X140666752Y-113431118D01*
X140821253Y-113318866D01*
X140825675Y-113313955D01*
X140944621Y-113181852D01*
X140944622Y-113181851D01*
X140949040Y-113176944D01*
X141044527Y-113011556D01*
X141103542Y-112829928D01*
X141123504Y-112640000D01*
X141836496Y-112640000D01*
X141856458Y-112829928D01*
X141915473Y-113011556D01*
X142010960Y-113176944D01*
X142015378Y-113181851D01*
X142015379Y-113181852D01*
X142134325Y-113313955D01*
X142138747Y-113318866D01*
X142293248Y-113431118D01*
X142299276Y-113433802D01*
X142299278Y-113433803D01*
X142461681Y-113506109D01*
X142467712Y-113508794D01*
X142561112Y-113528647D01*
X142648056Y-113547128D01*
X142648061Y-113547128D01*
X142654513Y-113548500D01*
X142845487Y-113548500D01*
X142851939Y-113547128D01*
X142851944Y-113547128D01*
X142938887Y-113528647D01*
X143032288Y-113508794D01*
X143038319Y-113506109D01*
X143200722Y-113433803D01*
X143200724Y-113433802D01*
X143206752Y-113431118D01*
X143310940Y-113355421D01*
X143377806Y-113331563D01*
X143446958Y-113347643D01*
X143459056Y-113355418D01*
X143563248Y-113431118D01*
X143569276Y-113433802D01*
X143569278Y-113433803D01*
X143731681Y-113506109D01*
X143737712Y-113508794D01*
X143831112Y-113528647D01*
X143918056Y-113547128D01*
X143918061Y-113547128D01*
X143924513Y-113548500D01*
X144115487Y-113548500D01*
X144121939Y-113547128D01*
X144121944Y-113547128D01*
X144208887Y-113528647D01*
X144302288Y-113508794D01*
X144308319Y-113506109D01*
X144470722Y-113433803D01*
X144470724Y-113433802D01*
X144476752Y-113431118D01*
X144631253Y-113318866D01*
X144635675Y-113313955D01*
X144754621Y-113181852D01*
X144754622Y-113181851D01*
X144759040Y-113176944D01*
X144854527Y-113011556D01*
X144913542Y-112829928D01*
X144933504Y-112640000D01*
X145646496Y-112640000D01*
X145666458Y-112829928D01*
X145725473Y-113011556D01*
X145820960Y-113176944D01*
X145825378Y-113181851D01*
X145825379Y-113181852D01*
X145944325Y-113313955D01*
X145948747Y-113318866D01*
X146103248Y-113431118D01*
X146109276Y-113433802D01*
X146109278Y-113433803D01*
X146271681Y-113506109D01*
X146277712Y-113508794D01*
X146371112Y-113528647D01*
X146458056Y-113547128D01*
X146458061Y-113547128D01*
X146464513Y-113548500D01*
X146655487Y-113548500D01*
X146661939Y-113547128D01*
X146661944Y-113547128D01*
X146748887Y-113528647D01*
X146842288Y-113508794D01*
X146848319Y-113506109D01*
X147010722Y-113433803D01*
X147010724Y-113433802D01*
X147016752Y-113431118D01*
X147120940Y-113355421D01*
X147187806Y-113331563D01*
X147256958Y-113347643D01*
X147269056Y-113355418D01*
X147373248Y-113431118D01*
X147379276Y-113433802D01*
X147379278Y-113433803D01*
X147541681Y-113506109D01*
X147547712Y-113508794D01*
X147641112Y-113528647D01*
X147728056Y-113547128D01*
X147728061Y-113547128D01*
X147734513Y-113548500D01*
X147925487Y-113548500D01*
X147931939Y-113547128D01*
X147931944Y-113547128D01*
X148018887Y-113528647D01*
X148112288Y-113508794D01*
X148118319Y-113506109D01*
X148280722Y-113433803D01*
X148280724Y-113433802D01*
X148286752Y-113431118D01*
X148441253Y-113318866D01*
X148445675Y-113313955D01*
X148564621Y-113181852D01*
X148564622Y-113181851D01*
X148569040Y-113176944D01*
X148664527Y-113011556D01*
X148723542Y-112829928D01*
X148743504Y-112640000D01*
X149456496Y-112640000D01*
X149476458Y-112829928D01*
X149535473Y-113011556D01*
X149630960Y-113176944D01*
X149635378Y-113181851D01*
X149635379Y-113181852D01*
X149754325Y-113313955D01*
X149758747Y-113318866D01*
X149913248Y-113431118D01*
X149919276Y-113433802D01*
X149919278Y-113433803D01*
X150081681Y-113506109D01*
X150087712Y-113508794D01*
X150181112Y-113528647D01*
X150268056Y-113547128D01*
X150268061Y-113547128D01*
X150274513Y-113548500D01*
X150465487Y-113548500D01*
X150471939Y-113547128D01*
X150471944Y-113547128D01*
X150558887Y-113528647D01*
X150652288Y-113508794D01*
X150658319Y-113506109D01*
X150820722Y-113433803D01*
X150820724Y-113433802D01*
X150826752Y-113431118D01*
X150930940Y-113355421D01*
X150997806Y-113331563D01*
X151066958Y-113347643D01*
X151079056Y-113355418D01*
X151183248Y-113431118D01*
X151189276Y-113433802D01*
X151189278Y-113433803D01*
X151351681Y-113506109D01*
X151357712Y-113508794D01*
X151451112Y-113528647D01*
X151538056Y-113547128D01*
X151538061Y-113547128D01*
X151544513Y-113548500D01*
X151735487Y-113548500D01*
X151741939Y-113547128D01*
X151741944Y-113547128D01*
X151828887Y-113528647D01*
X151922288Y-113508794D01*
X151928319Y-113506109D01*
X152090722Y-113433803D01*
X152090724Y-113433802D01*
X152096752Y-113431118D01*
X152251253Y-113318866D01*
X152255675Y-113313955D01*
X152374621Y-113181852D01*
X152374622Y-113181851D01*
X152379040Y-113176944D01*
X152474527Y-113011556D01*
X152533542Y-112829928D01*
X152553504Y-112640000D01*
X152533542Y-112450072D01*
X152474527Y-112268444D01*
X152379040Y-112103056D01*
X152251253Y-111961134D01*
X152096752Y-111848882D01*
X152090724Y-111846198D01*
X152090722Y-111846197D01*
X151928319Y-111773891D01*
X151928318Y-111773891D01*
X151922288Y-111771206D01*
X151828888Y-111751353D01*
X151741944Y-111732872D01*
X151741939Y-111732872D01*
X151735487Y-111731500D01*
X151544513Y-111731500D01*
X151538061Y-111732872D01*
X151538056Y-111732872D01*
X151451112Y-111751353D01*
X151357712Y-111771206D01*
X151351682Y-111773891D01*
X151351681Y-111773891D01*
X151189278Y-111846197D01*
X151189276Y-111846198D01*
X151183248Y-111848882D01*
X151079060Y-111924579D01*
X151012194Y-111948437D01*
X150943042Y-111932357D01*
X150930944Y-111924582D01*
X150826752Y-111848882D01*
X150820724Y-111846198D01*
X150820722Y-111846197D01*
X150658319Y-111773891D01*
X150658318Y-111773891D01*
X150652288Y-111771206D01*
X150558888Y-111751353D01*
X150471944Y-111732872D01*
X150471939Y-111732872D01*
X150465487Y-111731500D01*
X150274513Y-111731500D01*
X150268061Y-111732872D01*
X150268056Y-111732872D01*
X150181112Y-111751353D01*
X150087712Y-111771206D01*
X150081682Y-111773891D01*
X150081681Y-111773891D01*
X149919278Y-111846197D01*
X149919276Y-111846198D01*
X149913248Y-111848882D01*
X149758747Y-111961134D01*
X149630960Y-112103056D01*
X149535473Y-112268444D01*
X149476458Y-112450072D01*
X149456496Y-112640000D01*
X148743504Y-112640000D01*
X148723542Y-112450072D01*
X148664527Y-112268444D01*
X148569040Y-112103056D01*
X148441253Y-111961134D01*
X148286752Y-111848882D01*
X148280724Y-111846198D01*
X148280722Y-111846197D01*
X148118319Y-111773891D01*
X148118318Y-111773891D01*
X148112288Y-111771206D01*
X148018888Y-111751353D01*
X147931944Y-111732872D01*
X147931939Y-111732872D01*
X147925487Y-111731500D01*
X147734513Y-111731500D01*
X147728061Y-111732872D01*
X147728056Y-111732872D01*
X147641112Y-111751353D01*
X147547712Y-111771206D01*
X147541682Y-111773891D01*
X147541681Y-111773891D01*
X147379278Y-111846197D01*
X147379276Y-111846198D01*
X147373248Y-111848882D01*
X147269060Y-111924579D01*
X147202194Y-111948437D01*
X147133042Y-111932357D01*
X147120944Y-111924582D01*
X147016752Y-111848882D01*
X147010724Y-111846198D01*
X147010722Y-111846197D01*
X146848319Y-111773891D01*
X146848318Y-111773891D01*
X146842288Y-111771206D01*
X146748888Y-111751353D01*
X146661944Y-111732872D01*
X146661939Y-111732872D01*
X146655487Y-111731500D01*
X146464513Y-111731500D01*
X146458061Y-111732872D01*
X146458056Y-111732872D01*
X146371112Y-111751353D01*
X146277712Y-111771206D01*
X146271682Y-111773891D01*
X146271681Y-111773891D01*
X146109278Y-111846197D01*
X146109276Y-111846198D01*
X146103248Y-111848882D01*
X145948747Y-111961134D01*
X145820960Y-112103056D01*
X145725473Y-112268444D01*
X145666458Y-112450072D01*
X145646496Y-112640000D01*
X144933504Y-112640000D01*
X144913542Y-112450072D01*
X144854527Y-112268444D01*
X144759040Y-112103056D01*
X144631253Y-111961134D01*
X144476752Y-111848882D01*
X144470724Y-111846198D01*
X144470722Y-111846197D01*
X144308319Y-111773891D01*
X144308318Y-111773891D01*
X144302288Y-111771206D01*
X144208888Y-111751353D01*
X144121944Y-111732872D01*
X144121939Y-111732872D01*
X144115487Y-111731500D01*
X143924513Y-111731500D01*
X143918061Y-111732872D01*
X143918056Y-111732872D01*
X143831112Y-111751353D01*
X143737712Y-111771206D01*
X143731682Y-111773891D01*
X143731681Y-111773891D01*
X143569278Y-111846197D01*
X143569276Y-111846198D01*
X143563248Y-111848882D01*
X143459060Y-111924579D01*
X143392194Y-111948437D01*
X143323042Y-111932357D01*
X143310944Y-111924582D01*
X143206752Y-111848882D01*
X143200724Y-111846198D01*
X143200722Y-111846197D01*
X143038319Y-111773891D01*
X143038318Y-111773891D01*
X143032288Y-111771206D01*
X142938888Y-111751353D01*
X142851944Y-111732872D01*
X142851939Y-111732872D01*
X142845487Y-111731500D01*
X142654513Y-111731500D01*
X142648061Y-111732872D01*
X142648056Y-111732872D01*
X142561112Y-111751353D01*
X142467712Y-111771206D01*
X142461682Y-111773891D01*
X142461681Y-111773891D01*
X142299278Y-111846197D01*
X142299276Y-111846198D01*
X142293248Y-111848882D01*
X142138747Y-111961134D01*
X142010960Y-112103056D01*
X141915473Y-112268444D01*
X141856458Y-112450072D01*
X141836496Y-112640000D01*
X141123504Y-112640000D01*
X141103542Y-112450072D01*
X141044527Y-112268444D01*
X140949040Y-112103056D01*
X140821253Y-111961134D01*
X140666752Y-111848882D01*
X140660724Y-111846198D01*
X140660722Y-111846197D01*
X140498319Y-111773891D01*
X140498318Y-111773891D01*
X140492288Y-111771206D01*
X140398888Y-111751353D01*
X140311944Y-111732872D01*
X140311939Y-111732872D01*
X140305487Y-111731500D01*
X140114513Y-111731500D01*
X140108061Y-111732872D01*
X140108056Y-111732872D01*
X140021112Y-111751353D01*
X139927712Y-111771206D01*
X139921682Y-111773891D01*
X139921681Y-111773891D01*
X139759278Y-111846197D01*
X139759276Y-111846198D01*
X139753248Y-111848882D01*
X139649060Y-111924579D01*
X139582194Y-111948437D01*
X139513042Y-111932357D01*
X139500944Y-111924582D01*
X139396752Y-111848882D01*
X139390724Y-111846198D01*
X139390722Y-111846197D01*
X139228319Y-111773891D01*
X139228318Y-111773891D01*
X139222288Y-111771206D01*
X139128888Y-111751353D01*
X139041944Y-111732872D01*
X139041939Y-111732872D01*
X139035487Y-111731500D01*
X138844513Y-111731500D01*
X138838061Y-111732872D01*
X138838056Y-111732872D01*
X138751112Y-111751353D01*
X138657712Y-111771206D01*
X138651682Y-111773891D01*
X138651681Y-111773891D01*
X138489278Y-111846197D01*
X138489276Y-111846198D01*
X138483248Y-111848882D01*
X138328747Y-111961134D01*
X138200960Y-112103056D01*
X138105473Y-112268444D01*
X138046458Y-112450072D01*
X138026496Y-112640000D01*
X137313504Y-112640000D01*
X137293542Y-112450072D01*
X137234527Y-112268444D01*
X137139040Y-112103056D01*
X137011253Y-111961134D01*
X136856752Y-111848882D01*
X136850724Y-111846198D01*
X136850722Y-111846197D01*
X136688319Y-111773891D01*
X136688318Y-111773891D01*
X136682288Y-111771206D01*
X136588888Y-111751353D01*
X136501944Y-111732872D01*
X136501939Y-111732872D01*
X136495487Y-111731500D01*
X136304513Y-111731500D01*
X136298061Y-111732872D01*
X136298056Y-111732872D01*
X136211112Y-111751353D01*
X136117712Y-111771206D01*
X136111682Y-111773891D01*
X136111681Y-111773891D01*
X135949278Y-111846197D01*
X135949276Y-111846198D01*
X135943248Y-111848882D01*
X135839060Y-111924579D01*
X135772194Y-111948437D01*
X135703042Y-111932357D01*
X135690944Y-111924582D01*
X135586752Y-111848882D01*
X135580724Y-111846198D01*
X135580722Y-111846197D01*
X135418319Y-111773891D01*
X135418318Y-111773891D01*
X135412288Y-111771206D01*
X135318888Y-111751353D01*
X135231944Y-111732872D01*
X135231939Y-111732872D01*
X135225487Y-111731500D01*
X135034513Y-111731500D01*
X135028061Y-111732872D01*
X135028056Y-111732872D01*
X134941112Y-111751353D01*
X134847712Y-111771206D01*
X134841682Y-111773891D01*
X134841681Y-111773891D01*
X134679278Y-111846197D01*
X134679276Y-111846198D01*
X134673248Y-111848882D01*
X134518747Y-111961134D01*
X134390960Y-112103056D01*
X134295473Y-112268444D01*
X134236458Y-112450072D01*
X134216496Y-112640000D01*
X133503504Y-112640000D01*
X133483542Y-112450072D01*
X133424527Y-112268444D01*
X133329040Y-112103056D01*
X133201253Y-111961134D01*
X133046752Y-111848882D01*
X133040724Y-111846198D01*
X133040722Y-111846197D01*
X132878319Y-111773891D01*
X132878318Y-111773891D01*
X132872288Y-111771206D01*
X132778888Y-111751353D01*
X132691944Y-111732872D01*
X132691939Y-111732872D01*
X132685487Y-111731500D01*
X132494513Y-111731500D01*
X132488061Y-111732872D01*
X132488056Y-111732872D01*
X132401112Y-111751353D01*
X132307712Y-111771206D01*
X132301682Y-111773891D01*
X132301681Y-111773891D01*
X132139278Y-111846197D01*
X132139276Y-111846198D01*
X132133248Y-111848882D01*
X132029060Y-111924579D01*
X131962194Y-111948437D01*
X131893042Y-111932357D01*
X131880944Y-111924582D01*
X131776752Y-111848882D01*
X131770724Y-111846198D01*
X131770722Y-111846197D01*
X131608319Y-111773891D01*
X131608318Y-111773891D01*
X131602288Y-111771206D01*
X131508888Y-111751353D01*
X131421944Y-111732872D01*
X131421939Y-111732872D01*
X131415487Y-111731500D01*
X131224513Y-111731500D01*
X131218061Y-111732872D01*
X131218056Y-111732872D01*
X131131112Y-111751353D01*
X131037712Y-111771206D01*
X131031682Y-111773891D01*
X131031681Y-111773891D01*
X130869278Y-111846197D01*
X130869276Y-111846198D01*
X130863248Y-111848882D01*
X130708747Y-111961134D01*
X130580960Y-112103056D01*
X130485473Y-112268444D01*
X130426458Y-112450072D01*
X130406496Y-112640000D01*
X129693504Y-112640000D01*
X129673542Y-112450072D01*
X129614527Y-112268444D01*
X129519040Y-112103056D01*
X129391253Y-111961134D01*
X129236752Y-111848882D01*
X129230724Y-111846198D01*
X129230722Y-111846197D01*
X129068319Y-111773891D01*
X129068318Y-111773891D01*
X129062288Y-111771206D01*
X128968888Y-111751353D01*
X128881944Y-111732872D01*
X128881939Y-111732872D01*
X128875487Y-111731500D01*
X128684513Y-111731500D01*
X128678061Y-111732872D01*
X128678056Y-111732872D01*
X128591112Y-111751353D01*
X128497712Y-111771206D01*
X128491682Y-111773891D01*
X128491681Y-111773891D01*
X128329278Y-111846197D01*
X128329276Y-111846198D01*
X128323248Y-111848882D01*
X128219060Y-111924579D01*
X128152194Y-111948437D01*
X128083042Y-111932357D01*
X128070944Y-111924582D01*
X127966752Y-111848882D01*
X127960724Y-111846198D01*
X127960722Y-111846197D01*
X127798319Y-111773891D01*
X127798318Y-111773891D01*
X127792288Y-111771206D01*
X127698888Y-111751353D01*
X127611944Y-111732872D01*
X127611939Y-111732872D01*
X127605487Y-111731500D01*
X127414513Y-111731500D01*
X127408061Y-111732872D01*
X127408056Y-111732872D01*
X127321112Y-111751353D01*
X127227712Y-111771206D01*
X127221682Y-111773891D01*
X127221681Y-111773891D01*
X127059278Y-111846197D01*
X127059276Y-111846198D01*
X127053248Y-111848882D01*
X126898747Y-111961134D01*
X126770960Y-112103056D01*
X126675473Y-112268444D01*
X126616458Y-112450072D01*
X126596496Y-112640000D01*
X125883504Y-112640000D01*
X125863542Y-112450072D01*
X125804527Y-112268444D01*
X125709040Y-112103056D01*
X125581253Y-111961134D01*
X125426752Y-111848882D01*
X125420724Y-111846198D01*
X125420722Y-111846197D01*
X125258319Y-111773891D01*
X125258318Y-111773891D01*
X125252288Y-111771206D01*
X125158888Y-111751353D01*
X125071944Y-111732872D01*
X125071939Y-111732872D01*
X125065487Y-111731500D01*
X124874513Y-111731500D01*
X124868061Y-111732872D01*
X124868056Y-111732872D01*
X124781112Y-111751353D01*
X124687712Y-111771206D01*
X124681682Y-111773891D01*
X124681681Y-111773891D01*
X124519278Y-111846197D01*
X124519276Y-111846198D01*
X124513248Y-111848882D01*
X124409060Y-111924579D01*
X124342194Y-111948437D01*
X124273042Y-111932357D01*
X124260944Y-111924582D01*
X124156752Y-111848882D01*
X124150724Y-111846198D01*
X124150722Y-111846197D01*
X123988319Y-111773891D01*
X123988318Y-111773891D01*
X123982288Y-111771206D01*
X123888888Y-111751353D01*
X123801944Y-111732872D01*
X123801939Y-111732872D01*
X123795487Y-111731500D01*
X123604513Y-111731500D01*
X123598061Y-111732872D01*
X123598056Y-111732872D01*
X123511112Y-111751353D01*
X123417712Y-111771206D01*
X123411682Y-111773891D01*
X123411681Y-111773891D01*
X123249278Y-111846197D01*
X123249276Y-111846198D01*
X123243248Y-111848882D01*
X123088747Y-111961134D01*
X122960960Y-112103056D01*
X122865473Y-112268444D01*
X122806458Y-112450072D01*
X122786496Y-112640000D01*
X122073504Y-112640000D01*
X122053542Y-112450072D01*
X121994527Y-112268444D01*
X121899040Y-112103056D01*
X121771253Y-111961134D01*
X121616752Y-111848882D01*
X121610724Y-111846198D01*
X121610722Y-111846197D01*
X121448319Y-111773891D01*
X121448318Y-111773891D01*
X121442288Y-111771206D01*
X121348888Y-111751353D01*
X121261944Y-111732872D01*
X121261939Y-111732872D01*
X121255487Y-111731500D01*
X121064513Y-111731500D01*
X121058061Y-111732872D01*
X121058056Y-111732872D01*
X120971112Y-111751353D01*
X120877712Y-111771206D01*
X120871682Y-111773891D01*
X120871681Y-111773891D01*
X120709278Y-111846197D01*
X120709276Y-111846198D01*
X120703248Y-111848882D01*
X120599060Y-111924579D01*
X120532194Y-111948437D01*
X120463042Y-111932357D01*
X120450944Y-111924582D01*
X120346752Y-111848882D01*
X120340724Y-111846198D01*
X120340722Y-111846197D01*
X120178319Y-111773891D01*
X120178318Y-111773891D01*
X120172288Y-111771206D01*
X120078888Y-111751353D01*
X119991944Y-111732872D01*
X119991939Y-111732872D01*
X119985487Y-111731500D01*
X119794513Y-111731500D01*
X119788061Y-111732872D01*
X119788056Y-111732872D01*
X119701112Y-111751353D01*
X119607712Y-111771206D01*
X119601682Y-111773891D01*
X119601681Y-111773891D01*
X119439278Y-111846197D01*
X119439276Y-111846198D01*
X119433248Y-111848882D01*
X119278747Y-111961134D01*
X119150960Y-112103056D01*
X119055473Y-112268444D01*
X118996458Y-112450072D01*
X118976496Y-112640000D01*
X118263504Y-112640000D01*
X118243542Y-112450072D01*
X118184527Y-112268444D01*
X118089040Y-112103056D01*
X117961253Y-111961134D01*
X117806752Y-111848882D01*
X117800724Y-111846198D01*
X117800722Y-111846197D01*
X117638319Y-111773891D01*
X117638318Y-111773891D01*
X117632288Y-111771206D01*
X117538888Y-111751353D01*
X117451944Y-111732872D01*
X117451939Y-111732872D01*
X117445487Y-111731500D01*
X117254513Y-111731500D01*
X117248061Y-111732872D01*
X117248056Y-111732872D01*
X117161112Y-111751353D01*
X117067712Y-111771206D01*
X117061682Y-111773891D01*
X117061681Y-111773891D01*
X116899278Y-111846197D01*
X116899276Y-111846198D01*
X116893248Y-111848882D01*
X116789060Y-111924579D01*
X116722194Y-111948437D01*
X116653042Y-111932357D01*
X116640944Y-111924582D01*
X116536752Y-111848882D01*
X116530724Y-111846198D01*
X116530722Y-111846197D01*
X116368319Y-111773891D01*
X116368318Y-111773891D01*
X116362288Y-111771206D01*
X116268888Y-111751353D01*
X116181944Y-111732872D01*
X116181939Y-111732872D01*
X116175487Y-111731500D01*
X115984513Y-111731500D01*
X115978061Y-111732872D01*
X115978056Y-111732872D01*
X115891112Y-111751353D01*
X115797712Y-111771206D01*
X115791682Y-111773891D01*
X115791681Y-111773891D01*
X115629278Y-111846197D01*
X115629276Y-111846198D01*
X115623248Y-111848882D01*
X115468747Y-111961134D01*
X115340960Y-112103056D01*
X115245473Y-112268444D01*
X115186458Y-112450072D01*
X115166496Y-112640000D01*
X109354503Y-112640000D01*
X109364057Y-108810000D01*
X112626496Y-108810000D01*
X112627186Y-108816565D01*
X112644810Y-108984245D01*
X112646458Y-108999928D01*
X112705473Y-109181556D01*
X112800960Y-109346944D01*
X112805378Y-109351851D01*
X112805379Y-109351852D01*
X112915321Y-109473955D01*
X112928747Y-109488866D01*
X112982014Y-109527567D01*
X113064143Y-109587237D01*
X113083248Y-109601118D01*
X113089276Y-109603802D01*
X113089278Y-109603803D01*
X113238333Y-109670166D01*
X113257712Y-109678794D01*
X113351113Y-109698647D01*
X113438056Y-109717128D01*
X113438061Y-109717128D01*
X113444513Y-109718500D01*
X113635487Y-109718500D01*
X113641939Y-109717128D01*
X113641944Y-109717128D01*
X113728888Y-109698647D01*
X113822288Y-109678794D01*
X113841667Y-109670166D01*
X113990722Y-109603803D01*
X113990724Y-109603802D01*
X113996752Y-109601118D01*
X114015858Y-109587237D01*
X114092308Y-109531692D01*
X114100940Y-109525421D01*
X114167806Y-109501563D01*
X114236958Y-109517643D01*
X114249056Y-109525418D01*
X114257692Y-109531692D01*
X114334143Y-109587237D01*
X114353248Y-109601118D01*
X114359276Y-109603802D01*
X114359278Y-109603803D01*
X114508333Y-109670166D01*
X114527712Y-109678794D01*
X114621113Y-109698647D01*
X114708056Y-109717128D01*
X114708061Y-109717128D01*
X114714513Y-109718500D01*
X114905487Y-109718500D01*
X114911939Y-109717128D01*
X114911944Y-109717128D01*
X114998888Y-109698647D01*
X115092288Y-109678794D01*
X115111667Y-109670166D01*
X115260722Y-109603803D01*
X115260724Y-109603802D01*
X115266752Y-109601118D01*
X115285858Y-109587237D01*
X115367986Y-109527567D01*
X115421253Y-109488866D01*
X115434679Y-109473955D01*
X115544621Y-109351852D01*
X115544622Y-109351851D01*
X115549040Y-109346944D01*
X115644527Y-109181556D01*
X115703542Y-108999928D01*
X115705191Y-108984245D01*
X115722814Y-108816565D01*
X115723504Y-108810000D01*
X115722453Y-108800000D01*
X116436496Y-108800000D01*
X116437186Y-108806565D01*
X116452514Y-108952399D01*
X116456458Y-108989928D01*
X116515473Y-109171556D01*
X116518776Y-109177278D01*
X116518777Y-109177279D01*
X116524551Y-109187279D01*
X116610960Y-109336944D01*
X116615378Y-109341851D01*
X116615379Y-109341852D01*
X116689184Y-109423821D01*
X116738747Y-109478866D01*
X116812890Y-109532734D01*
X116887813Y-109587169D01*
X116893248Y-109591118D01*
X116899276Y-109593802D01*
X116899278Y-109593803D01*
X116916566Y-109601500D01*
X117067712Y-109668794D01*
X117161112Y-109688647D01*
X117248056Y-109707128D01*
X117248061Y-109707128D01*
X117254513Y-109708500D01*
X117445487Y-109708500D01*
X117451939Y-109707128D01*
X117451944Y-109707128D01*
X117538888Y-109688647D01*
X117632288Y-109668794D01*
X117783434Y-109601500D01*
X117800722Y-109593803D01*
X117800724Y-109593802D01*
X117806752Y-109591118D01*
X117812188Y-109587169D01*
X117887110Y-109532734D01*
X117905939Y-109519054D01*
X117972806Y-109495196D01*
X118041958Y-109511276D01*
X118054059Y-109519053D01*
X118072890Y-109532734D01*
X118147813Y-109587169D01*
X118153248Y-109591118D01*
X118159276Y-109593802D01*
X118159278Y-109593803D01*
X118176566Y-109601500D01*
X118327712Y-109668794D01*
X118421112Y-109688647D01*
X118508056Y-109707128D01*
X118508061Y-109707128D01*
X118514513Y-109708500D01*
X118705487Y-109708500D01*
X118711939Y-109707128D01*
X118711944Y-109707128D01*
X118798888Y-109688647D01*
X118892288Y-109668794D01*
X119043434Y-109601500D01*
X119060722Y-109593803D01*
X119060724Y-109593802D01*
X119066752Y-109591118D01*
X119072188Y-109587169D01*
X119147110Y-109532734D01*
X119221253Y-109478866D01*
X119270816Y-109423821D01*
X119344621Y-109341852D01*
X119344622Y-109341851D01*
X119349040Y-109336944D01*
X119435449Y-109187279D01*
X119441223Y-109177279D01*
X119441224Y-109177278D01*
X119444527Y-109171556D01*
X119503542Y-108989928D01*
X119507487Y-108952399D01*
X119522814Y-108806565D01*
X119523504Y-108800000D01*
X120236496Y-108800000D01*
X120237186Y-108806565D01*
X120252514Y-108952399D01*
X120256458Y-108989928D01*
X120315473Y-109171556D01*
X120318776Y-109177278D01*
X120318777Y-109177279D01*
X120324551Y-109187279D01*
X120410960Y-109336944D01*
X120415378Y-109341851D01*
X120415379Y-109341852D01*
X120489184Y-109423821D01*
X120538747Y-109478866D01*
X120612890Y-109532734D01*
X120687813Y-109587169D01*
X120693248Y-109591118D01*
X120699276Y-109593802D01*
X120699278Y-109593803D01*
X120716566Y-109601500D01*
X120867712Y-109668794D01*
X120961112Y-109688647D01*
X121048056Y-109707128D01*
X121048061Y-109707128D01*
X121054513Y-109708500D01*
X121245487Y-109708500D01*
X121251939Y-109707128D01*
X121251944Y-109707128D01*
X121338888Y-109688647D01*
X121432288Y-109668794D01*
X121583434Y-109601500D01*
X121600722Y-109593803D01*
X121600724Y-109593802D01*
X121606752Y-109591118D01*
X121612188Y-109587169D01*
X121720939Y-109508156D01*
X121787807Y-109484298D01*
X121856958Y-109500378D01*
X121869061Y-109508156D01*
X121977813Y-109587169D01*
X121983248Y-109591118D01*
X121989276Y-109593802D01*
X121989278Y-109593803D01*
X122006566Y-109601500D01*
X122157712Y-109668794D01*
X122251112Y-109688647D01*
X122338056Y-109707128D01*
X122338061Y-109707128D01*
X122344513Y-109708500D01*
X122535487Y-109708500D01*
X122541939Y-109707128D01*
X122541944Y-109707128D01*
X122628888Y-109688647D01*
X122722288Y-109668794D01*
X122873434Y-109601500D01*
X122890722Y-109593803D01*
X122890724Y-109593802D01*
X122896752Y-109591118D01*
X122902188Y-109587169D01*
X122977110Y-109532734D01*
X123051253Y-109478866D01*
X123100816Y-109423821D01*
X123174621Y-109341852D01*
X123174622Y-109341851D01*
X123179040Y-109336944D01*
X123265449Y-109187279D01*
X123271223Y-109177279D01*
X123271224Y-109177278D01*
X123274527Y-109171556D01*
X123333542Y-108989928D01*
X123337487Y-108952399D01*
X123352814Y-108806565D01*
X123353504Y-108800000D01*
X124046496Y-108800000D01*
X124047186Y-108806565D01*
X124062514Y-108952399D01*
X124066458Y-108989928D01*
X124125473Y-109171556D01*
X124128776Y-109177278D01*
X124128777Y-109177279D01*
X124134551Y-109187279D01*
X124220960Y-109336944D01*
X124225378Y-109341851D01*
X124225379Y-109341852D01*
X124299184Y-109423821D01*
X124348747Y-109478866D01*
X124422890Y-109532734D01*
X124497813Y-109587169D01*
X124503248Y-109591118D01*
X124509276Y-109593802D01*
X124509278Y-109593803D01*
X124526566Y-109601500D01*
X124677712Y-109668794D01*
X124771112Y-109688647D01*
X124858056Y-109707128D01*
X124858061Y-109707128D01*
X124864513Y-109708500D01*
X125055487Y-109708500D01*
X125061939Y-109707128D01*
X125061944Y-109707128D01*
X125148888Y-109688647D01*
X125242288Y-109668794D01*
X125393434Y-109601500D01*
X125410722Y-109593803D01*
X125410724Y-109593802D01*
X125416752Y-109591118D01*
X125422188Y-109587169D01*
X125497110Y-109532734D01*
X125520940Y-109515421D01*
X125587806Y-109491563D01*
X125656958Y-109507643D01*
X125669056Y-109515418D01*
X125692890Y-109532734D01*
X125767813Y-109587169D01*
X125773248Y-109591118D01*
X125779276Y-109593802D01*
X125779278Y-109593803D01*
X125796566Y-109601500D01*
X125947712Y-109668794D01*
X126041112Y-109688647D01*
X126128056Y-109707128D01*
X126128061Y-109707128D01*
X126134513Y-109708500D01*
X126325487Y-109708500D01*
X126331939Y-109707128D01*
X126331944Y-109707128D01*
X126418888Y-109688647D01*
X126512288Y-109668794D01*
X126663434Y-109601500D01*
X126680722Y-109593803D01*
X126680724Y-109593802D01*
X126686752Y-109591118D01*
X126692188Y-109587169D01*
X126767110Y-109532734D01*
X126841253Y-109478866D01*
X126890816Y-109423821D01*
X126964621Y-109341852D01*
X126964622Y-109341851D01*
X126969040Y-109336944D01*
X127055449Y-109187279D01*
X127061223Y-109177279D01*
X127061224Y-109177278D01*
X127064527Y-109171556D01*
X127123542Y-108989928D01*
X127127487Y-108952399D01*
X127142814Y-108806565D01*
X127143504Y-108800000D01*
X127124718Y-108621260D01*
X127137490Y-108551422D01*
X127185992Y-108499575D01*
X127223830Y-108484844D01*
X127245824Y-108480169D01*
X127245833Y-108480166D01*
X127252288Y-108478794D01*
X127258319Y-108476109D01*
X127420722Y-108403803D01*
X127420724Y-108403802D01*
X127426752Y-108401118D01*
X127441645Y-108390298D01*
X127516632Y-108335816D01*
X127581253Y-108288866D01*
X127624163Y-108241209D01*
X127684608Y-108203971D01*
X127755592Y-108205323D01*
X127769046Y-108210414D01*
X127877711Y-108258794D01*
X127877106Y-108260152D01*
X127929357Y-108295881D01*
X127956994Y-108361278D01*
X127947120Y-108425592D01*
X127945473Y-108428444D01*
X127886458Y-108610072D01*
X127885768Y-108616633D01*
X127885768Y-108616635D01*
X127872753Y-108740470D01*
X127866496Y-108800000D01*
X127867186Y-108806565D01*
X127882514Y-108952399D01*
X127886458Y-108989928D01*
X127945473Y-109171556D01*
X127948776Y-109177278D01*
X127948777Y-109177279D01*
X127954551Y-109187279D01*
X128040960Y-109336944D01*
X128045378Y-109341851D01*
X128045379Y-109341852D01*
X128119184Y-109423821D01*
X128168747Y-109478866D01*
X128242890Y-109532734D01*
X128317813Y-109587169D01*
X128323248Y-109591118D01*
X128329276Y-109593802D01*
X128329278Y-109593803D01*
X128346566Y-109601500D01*
X128497712Y-109668794D01*
X128591112Y-109688647D01*
X128678056Y-109707128D01*
X128678061Y-109707128D01*
X128684513Y-109708500D01*
X128875487Y-109708500D01*
X128881939Y-109707128D01*
X128881944Y-109707128D01*
X128968888Y-109688647D01*
X129062288Y-109668794D01*
X129213434Y-109601500D01*
X129230722Y-109593803D01*
X129230724Y-109593802D01*
X129236752Y-109591118D01*
X129242188Y-109587169D01*
X129317110Y-109532734D01*
X129335939Y-109519054D01*
X129402806Y-109495196D01*
X129471958Y-109511276D01*
X129484059Y-109519053D01*
X129502890Y-109532734D01*
X129577813Y-109587169D01*
X129583248Y-109591118D01*
X129589276Y-109593802D01*
X129589278Y-109593803D01*
X129606566Y-109601500D01*
X129757712Y-109668794D01*
X129851112Y-109688647D01*
X129938056Y-109707128D01*
X129938061Y-109707128D01*
X129944513Y-109708500D01*
X130135487Y-109708500D01*
X130141939Y-109707128D01*
X130141944Y-109707128D01*
X130228888Y-109688647D01*
X130322288Y-109668794D01*
X130473434Y-109601500D01*
X130490722Y-109593803D01*
X130490724Y-109593802D01*
X130496752Y-109591118D01*
X130502188Y-109587169D01*
X130577110Y-109532734D01*
X130651253Y-109478866D01*
X130700816Y-109423821D01*
X130774621Y-109341852D01*
X130774622Y-109341851D01*
X130779040Y-109336944D01*
X130865449Y-109187279D01*
X130871223Y-109177279D01*
X130871224Y-109177278D01*
X130874527Y-109171556D01*
X130933542Y-108989928D01*
X130937487Y-108952399D01*
X130952814Y-108806565D01*
X130953504Y-108800000D01*
X130934052Y-108614926D01*
X130946824Y-108545088D01*
X130995326Y-108493241D01*
X131020426Y-108481923D01*
X131025833Y-108480166D01*
X131032288Y-108478794D01*
X131200719Y-108403804D01*
X131200726Y-108403801D01*
X131202827Y-108402865D01*
X131202829Y-108402865D01*
X131206752Y-108401118D01*
X131207071Y-108401835D01*
X131270994Y-108386327D01*
X131323031Y-108401607D01*
X131323248Y-108401118D01*
X131329274Y-108403801D01*
X131478940Y-108470436D01*
X131497712Y-108478794D01*
X131504167Y-108480166D01*
X131504176Y-108480169D01*
X131594640Y-108499398D01*
X131657113Y-108533126D01*
X131691434Y-108595276D01*
X131693752Y-108635814D01*
X131677597Y-108789526D01*
X131676496Y-108800000D01*
X131677186Y-108806565D01*
X131692514Y-108952399D01*
X131696458Y-108989928D01*
X131755473Y-109171556D01*
X131758776Y-109177278D01*
X131758777Y-109177279D01*
X131764551Y-109187279D01*
X131850960Y-109336944D01*
X131855378Y-109341851D01*
X131855379Y-109341852D01*
X131929184Y-109423821D01*
X131978747Y-109478866D01*
X132052890Y-109532734D01*
X132127813Y-109587169D01*
X132133248Y-109591118D01*
X132139276Y-109593802D01*
X132139278Y-109593803D01*
X132156566Y-109601500D01*
X132307712Y-109668794D01*
X132401112Y-109688647D01*
X132488056Y-109707128D01*
X132488061Y-109707128D01*
X132494513Y-109708500D01*
X132685487Y-109708500D01*
X132691939Y-109707128D01*
X132691944Y-109707128D01*
X132778888Y-109688647D01*
X132872288Y-109668794D01*
X133023434Y-109601500D01*
X133040722Y-109593803D01*
X133040724Y-109593802D01*
X133046752Y-109591118D01*
X133052188Y-109587169D01*
X133127110Y-109532734D01*
X133150940Y-109515421D01*
X133217806Y-109491563D01*
X133286958Y-109507643D01*
X133299056Y-109515418D01*
X133322890Y-109532734D01*
X133397813Y-109587169D01*
X133403248Y-109591118D01*
X133409276Y-109593802D01*
X133409278Y-109593803D01*
X133426566Y-109601500D01*
X133577712Y-109668794D01*
X133671112Y-109688647D01*
X133758056Y-109707128D01*
X133758061Y-109707128D01*
X133764513Y-109708500D01*
X133955487Y-109708500D01*
X133961939Y-109707128D01*
X133961944Y-109707128D01*
X134048888Y-109688647D01*
X134142288Y-109668794D01*
X134293434Y-109601500D01*
X134310722Y-109593803D01*
X134310724Y-109593802D01*
X134316752Y-109591118D01*
X134322188Y-109587169D01*
X134397110Y-109532734D01*
X134471253Y-109478866D01*
X134520816Y-109423821D01*
X134594621Y-109341852D01*
X134594622Y-109341851D01*
X134599040Y-109336944D01*
X134685449Y-109187279D01*
X134691223Y-109177279D01*
X134691224Y-109177278D01*
X134694527Y-109171556D01*
X134753542Y-108989928D01*
X134757487Y-108952399D01*
X134772814Y-108806565D01*
X134773504Y-108800000D01*
X135486496Y-108800000D01*
X135487186Y-108806565D01*
X135502514Y-108952399D01*
X135506458Y-108989928D01*
X135565473Y-109171556D01*
X135568776Y-109177278D01*
X135568777Y-109177279D01*
X135574551Y-109187279D01*
X135660960Y-109336944D01*
X135665378Y-109341851D01*
X135665379Y-109341852D01*
X135739184Y-109423821D01*
X135788747Y-109478866D01*
X135862890Y-109532734D01*
X135937813Y-109587169D01*
X135943248Y-109591118D01*
X135949276Y-109593802D01*
X135949278Y-109593803D01*
X135966566Y-109601500D01*
X136117712Y-109668794D01*
X136211112Y-109688647D01*
X136298056Y-109707128D01*
X136298061Y-109707128D01*
X136304513Y-109708500D01*
X136495487Y-109708500D01*
X136501939Y-109707128D01*
X136501944Y-109707128D01*
X136588888Y-109688647D01*
X136682288Y-109668794D01*
X136833434Y-109601500D01*
X136850722Y-109593803D01*
X136850724Y-109593802D01*
X136856752Y-109591118D01*
X136862188Y-109587169D01*
X136937110Y-109532734D01*
X136960940Y-109515421D01*
X137027806Y-109491563D01*
X137096958Y-109507643D01*
X137109056Y-109515418D01*
X137132890Y-109532734D01*
X137207813Y-109587169D01*
X137213248Y-109591118D01*
X137219276Y-109593802D01*
X137219278Y-109593803D01*
X137236566Y-109601500D01*
X137387712Y-109668794D01*
X137481112Y-109688647D01*
X137568056Y-109707128D01*
X137568061Y-109707128D01*
X137574513Y-109708500D01*
X137765487Y-109708500D01*
X137771939Y-109707128D01*
X137771944Y-109707128D01*
X137858888Y-109688647D01*
X137952288Y-109668794D01*
X138103434Y-109601500D01*
X138120722Y-109593803D01*
X138120724Y-109593802D01*
X138126752Y-109591118D01*
X138132188Y-109587169D01*
X138207110Y-109532734D01*
X138281253Y-109478866D01*
X138330816Y-109423821D01*
X138404621Y-109341852D01*
X138404622Y-109341851D01*
X138409040Y-109336944D01*
X138495449Y-109187279D01*
X138501223Y-109177279D01*
X138501224Y-109177278D01*
X138504527Y-109171556D01*
X138563542Y-108989928D01*
X138567487Y-108952399D01*
X138582814Y-108806565D01*
X138583504Y-108800000D01*
X138582403Y-108789526D01*
X138564233Y-108616642D01*
X138564232Y-108616635D01*
X138563542Y-108610072D01*
X138561500Y-108603787D01*
X138560240Y-108597859D01*
X138565642Y-108527068D01*
X138608459Y-108470436D01*
X138632238Y-108456555D01*
X138750722Y-108403803D01*
X138750724Y-108403802D01*
X138756752Y-108401118D01*
X138762094Y-108397237D01*
X138767811Y-108393936D01*
X138768619Y-108395335D01*
X138827807Y-108374217D01*
X138896959Y-108390298D01*
X138906428Y-108396383D01*
X138907904Y-108397235D01*
X138913248Y-108401118D01*
X138919276Y-108403802D01*
X138919278Y-108403803D01*
X139081681Y-108476109D01*
X139087712Y-108478794D01*
X139213984Y-108505634D01*
X139276457Y-108539363D01*
X139310779Y-108601512D01*
X139313097Y-108642051D01*
X139296496Y-108800000D01*
X139297186Y-108806565D01*
X139312514Y-108952399D01*
X139316458Y-108989928D01*
X139375473Y-109171556D01*
X139378776Y-109177278D01*
X139378777Y-109177279D01*
X139384551Y-109187279D01*
X139470960Y-109336944D01*
X139475378Y-109341851D01*
X139475379Y-109341852D01*
X139549184Y-109423821D01*
X139598747Y-109478866D01*
X139672890Y-109532734D01*
X139747813Y-109587169D01*
X139753248Y-109591118D01*
X139759276Y-109593802D01*
X139759278Y-109593803D01*
X139776566Y-109601500D01*
X139927712Y-109668794D01*
X140021112Y-109688647D01*
X140108056Y-109707128D01*
X140108061Y-109707128D01*
X140114513Y-109708500D01*
X140305487Y-109708500D01*
X140311939Y-109707128D01*
X140311944Y-109707128D01*
X140398888Y-109688647D01*
X140492288Y-109668794D01*
X140643434Y-109601500D01*
X140660722Y-109593803D01*
X140660724Y-109593802D01*
X140666752Y-109591118D01*
X140672188Y-109587169D01*
X140747110Y-109532734D01*
X140770940Y-109515421D01*
X140837806Y-109491563D01*
X140906958Y-109507643D01*
X140919056Y-109515418D01*
X140942890Y-109532734D01*
X141017813Y-109587169D01*
X141023248Y-109591118D01*
X141029276Y-109593802D01*
X141029278Y-109593803D01*
X141046566Y-109601500D01*
X141197712Y-109668794D01*
X141291112Y-109688647D01*
X141378056Y-109707128D01*
X141378061Y-109707128D01*
X141384513Y-109708500D01*
X141575487Y-109708500D01*
X141581939Y-109707128D01*
X141581944Y-109707128D01*
X141668888Y-109688647D01*
X141762288Y-109668794D01*
X141913434Y-109601500D01*
X141930722Y-109593803D01*
X141930724Y-109593802D01*
X141936752Y-109591118D01*
X141942188Y-109587169D01*
X142017110Y-109532734D01*
X142091253Y-109478866D01*
X142140816Y-109423821D01*
X142214621Y-109341852D01*
X142214622Y-109341851D01*
X142219040Y-109336944D01*
X142305449Y-109187279D01*
X142311223Y-109177279D01*
X142311224Y-109177278D01*
X142314527Y-109171556D01*
X142373542Y-108989928D01*
X142377487Y-108952399D01*
X142392814Y-108806565D01*
X142393504Y-108800000D01*
X142392403Y-108789526D01*
X142374233Y-108616642D01*
X142374232Y-108616635D01*
X142373542Y-108610072D01*
X142369915Y-108598909D01*
X142367886Y-108527941D01*
X142404547Y-108467142D01*
X142438499Y-108444863D01*
X142530721Y-108403804D01*
X142530727Y-108403800D01*
X142536752Y-108401118D01*
X142542094Y-108397237D01*
X142546997Y-108394406D01*
X142615992Y-108377666D01*
X142673003Y-108394406D01*
X142677906Y-108397237D01*
X142683248Y-108401118D01*
X142689275Y-108403801D01*
X142689276Y-108403802D01*
X142851681Y-108476109D01*
X142857712Y-108478794D01*
X142962655Y-108501100D01*
X143032891Y-108516030D01*
X143095365Y-108549759D01*
X143129686Y-108611908D01*
X143132004Y-108652447D01*
X143117597Y-108789526D01*
X143116496Y-108800000D01*
X143117186Y-108806565D01*
X143132514Y-108952399D01*
X143136458Y-108989928D01*
X143195473Y-109171556D01*
X143198776Y-109177278D01*
X143198777Y-109177279D01*
X143204551Y-109187279D01*
X143290960Y-109336944D01*
X143295378Y-109341851D01*
X143295379Y-109341852D01*
X143369184Y-109423821D01*
X143418747Y-109478866D01*
X143492890Y-109532734D01*
X143567813Y-109587169D01*
X143573248Y-109591118D01*
X143579276Y-109593802D01*
X143579278Y-109593803D01*
X143596566Y-109601500D01*
X143747712Y-109668794D01*
X143841112Y-109688647D01*
X143928056Y-109707128D01*
X143928061Y-109707128D01*
X143934513Y-109708500D01*
X144125487Y-109708500D01*
X144131939Y-109707128D01*
X144131944Y-109707128D01*
X144218888Y-109688647D01*
X144312288Y-109668794D01*
X144463434Y-109601500D01*
X144480722Y-109593803D01*
X144480724Y-109593802D01*
X144486752Y-109591118D01*
X144492188Y-109587169D01*
X144580939Y-109522687D01*
X144647807Y-109498828D01*
X144716958Y-109514909D01*
X144729061Y-109522687D01*
X144817813Y-109587169D01*
X144823248Y-109591118D01*
X144829276Y-109593802D01*
X144829278Y-109593803D01*
X144846566Y-109601500D01*
X144997712Y-109668794D01*
X145091112Y-109688647D01*
X145178056Y-109707128D01*
X145178061Y-109707128D01*
X145184513Y-109708500D01*
X145375487Y-109708500D01*
X145381939Y-109707128D01*
X145381944Y-109707128D01*
X145468888Y-109688647D01*
X145562288Y-109668794D01*
X145713434Y-109601500D01*
X145730722Y-109593803D01*
X145730724Y-109593802D01*
X145736752Y-109591118D01*
X145742188Y-109587169D01*
X145817110Y-109532734D01*
X145891253Y-109478866D01*
X145940816Y-109423821D01*
X146014621Y-109341852D01*
X146014622Y-109341851D01*
X146019040Y-109336944D01*
X146105449Y-109187279D01*
X146111223Y-109177279D01*
X146111224Y-109177278D01*
X146114527Y-109171556D01*
X146173542Y-108989928D01*
X146177487Y-108952399D01*
X146192814Y-108806565D01*
X146193504Y-108800000D01*
X146192403Y-108789526D01*
X146174233Y-108616642D01*
X146174232Y-108616635D01*
X146173542Y-108610072D01*
X146169915Y-108598909D01*
X146167886Y-108527941D01*
X146204547Y-108467142D01*
X146238499Y-108444863D01*
X146330719Y-108403805D01*
X146330726Y-108403801D01*
X146336752Y-108401118D01*
X146351645Y-108390298D01*
X146360939Y-108383545D01*
X146427806Y-108359687D01*
X146496958Y-108375767D01*
X146509061Y-108383545D01*
X146518356Y-108390298D01*
X146533248Y-108401118D01*
X146539276Y-108403802D01*
X146539278Y-108403803D01*
X146701681Y-108476109D01*
X146707712Y-108478794D01*
X146833984Y-108505634D01*
X146896457Y-108539363D01*
X146930779Y-108601512D01*
X146933097Y-108642051D01*
X146916496Y-108800000D01*
X146917186Y-108806565D01*
X146932514Y-108952399D01*
X146936458Y-108989928D01*
X146995473Y-109171556D01*
X146998776Y-109177278D01*
X146998777Y-109177279D01*
X147004551Y-109187279D01*
X147090960Y-109336944D01*
X147095378Y-109341851D01*
X147095379Y-109341852D01*
X147169184Y-109423821D01*
X147218747Y-109478866D01*
X147292890Y-109532734D01*
X147367813Y-109587169D01*
X147373248Y-109591118D01*
X147379276Y-109593802D01*
X147379278Y-109593803D01*
X147396566Y-109601500D01*
X147547712Y-109668794D01*
X147641112Y-109688647D01*
X147728056Y-109707128D01*
X147728061Y-109707128D01*
X147734513Y-109708500D01*
X147925487Y-109708500D01*
X147931939Y-109707128D01*
X147931944Y-109707128D01*
X148018888Y-109688647D01*
X148112288Y-109668794D01*
X148263434Y-109601500D01*
X148280722Y-109593803D01*
X148280724Y-109593802D01*
X148286752Y-109591118D01*
X148292188Y-109587169D01*
X148367110Y-109532734D01*
X148390940Y-109515421D01*
X148457806Y-109491563D01*
X148526958Y-109507643D01*
X148539056Y-109515418D01*
X148562890Y-109532734D01*
X148637813Y-109587169D01*
X148643248Y-109591118D01*
X148649276Y-109593802D01*
X148649278Y-109593803D01*
X148666566Y-109601500D01*
X148817712Y-109668794D01*
X148911112Y-109688647D01*
X148998056Y-109707128D01*
X148998061Y-109707128D01*
X149004513Y-109708500D01*
X149195487Y-109708500D01*
X149201939Y-109707128D01*
X149201944Y-109707128D01*
X149288888Y-109688647D01*
X149382288Y-109668794D01*
X149533434Y-109601500D01*
X149550722Y-109593803D01*
X149550724Y-109593802D01*
X149556752Y-109591118D01*
X149562188Y-109587169D01*
X149637110Y-109532734D01*
X149711253Y-109478866D01*
X149760816Y-109423821D01*
X149834621Y-109341852D01*
X149834622Y-109341851D01*
X149839040Y-109336944D01*
X149925449Y-109187279D01*
X149931223Y-109177279D01*
X149931224Y-109177278D01*
X149934527Y-109171556D01*
X149993542Y-108989928D01*
X149997487Y-108952399D01*
X150012814Y-108806565D01*
X150013504Y-108800000D01*
X150007247Y-108740470D01*
X149994232Y-108616635D01*
X149994232Y-108616633D01*
X149993542Y-108610072D01*
X149973407Y-108548102D01*
X160538141Y-108548102D01*
X160539120Y-108553799D01*
X160539120Y-108553800D01*
X160553213Y-108635814D01*
X160573732Y-108755228D01*
X160646472Y-108952399D01*
X160649424Y-108957360D01*
X160649424Y-108957361D01*
X160672535Y-108996206D01*
X160753926Y-109133012D01*
X160892494Y-109291019D01*
X160950750Y-109336944D01*
X160969661Y-109351852D01*
X161057537Y-109421128D01*
X161062653Y-109423819D01*
X161062655Y-109423821D01*
X161238410Y-109516290D01*
X161243527Y-109518982D01*
X161444234Y-109581304D01*
X161449969Y-109581983D01*
X161449970Y-109581983D01*
X161480532Y-109585600D01*
X161614874Y-109601500D01*
X161736316Y-109601500D01*
X161892279Y-109587169D01*
X161897841Y-109585600D01*
X161897843Y-109585600D01*
X161993414Y-109558646D01*
X162094549Y-109530123D01*
X162283037Y-109437171D01*
X162451429Y-109311427D01*
X162507549Y-109250717D01*
X162590167Y-109161341D01*
X162590169Y-109161338D01*
X162594086Y-109157101D01*
X162706231Y-108979362D01*
X162784108Y-108784163D01*
X162785233Y-108778506D01*
X162785235Y-108778500D01*
X162823981Y-108583707D01*
X162823981Y-108583705D01*
X162825108Y-108578040D01*
X162825426Y-108553800D01*
X162827389Y-108403801D01*
X162827859Y-108367898D01*
X162826722Y-108361278D01*
X162793247Y-108166469D01*
X162793247Y-108166468D01*
X162792268Y-108160772D01*
X162719528Y-107963601D01*
X162705388Y-107939834D01*
X162615028Y-107787953D01*
X162615027Y-107787952D01*
X162612074Y-107782988D01*
X162473506Y-107624981D01*
X162308463Y-107494872D01*
X162303347Y-107492181D01*
X162303345Y-107492179D01*
X162127590Y-107399710D01*
X162127588Y-107399709D01*
X162122473Y-107397018D01*
X161921766Y-107334696D01*
X161916031Y-107334017D01*
X161916030Y-107334017D01*
X161867742Y-107328302D01*
X161751126Y-107314500D01*
X161629684Y-107314500D01*
X161473721Y-107328831D01*
X161468159Y-107330400D01*
X161468157Y-107330400D01*
X161372586Y-107357354D01*
X161271451Y-107385877D01*
X161082963Y-107478829D01*
X160914571Y-107604573D01*
X160910657Y-107608807D01*
X160910655Y-107608809D01*
X160903486Y-107616565D01*
X160771914Y-107758899D01*
X160659769Y-107936638D01*
X160581892Y-108131837D01*
X160580767Y-108137494D01*
X160580765Y-108137500D01*
X160549885Y-108292749D01*
X160540892Y-108337960D01*
X160540816Y-108343735D01*
X160540816Y-108343739D01*
X160540500Y-108367898D01*
X160538141Y-108548102D01*
X149973407Y-108548102D01*
X149934527Y-108428444D01*
X149920301Y-108403803D01*
X149877538Y-108329736D01*
X149839040Y-108263056D01*
X149755385Y-108170147D01*
X149715675Y-108126045D01*
X149715674Y-108126044D01*
X149711253Y-108121134D01*
X149612157Y-108049136D01*
X149562094Y-108012763D01*
X149562093Y-108012762D01*
X149556752Y-108008882D01*
X149550724Y-108006198D01*
X149550722Y-108006197D01*
X149388319Y-107933891D01*
X149388316Y-107933890D01*
X149382288Y-107931206D01*
X149284522Y-107910425D01*
X149201944Y-107892872D01*
X149201939Y-107892872D01*
X149195487Y-107891500D01*
X149004513Y-107891500D01*
X148998061Y-107892872D01*
X148998056Y-107892872D01*
X148915478Y-107910425D01*
X148817712Y-107931206D01*
X148811684Y-107933890D01*
X148811681Y-107933891D01*
X148649278Y-108006197D01*
X148649276Y-108006198D01*
X148643248Y-108008882D01*
X148637907Y-108012762D01*
X148637906Y-108012763D01*
X148604773Y-108036836D01*
X148539060Y-108084579D01*
X148472194Y-108108437D01*
X148403042Y-108092357D01*
X148390944Y-108084582D01*
X148325227Y-108036836D01*
X148292094Y-108012763D01*
X148292093Y-108012762D01*
X148286752Y-108008882D01*
X148280724Y-108006198D01*
X148280722Y-108006197D01*
X148118319Y-107933891D01*
X148118316Y-107933890D01*
X148112288Y-107931206D01*
X147986016Y-107904366D01*
X147923543Y-107870637D01*
X147889221Y-107808488D01*
X147886903Y-107767948D01*
X147888236Y-107755271D01*
X147903504Y-107610000D01*
X147883542Y-107420072D01*
X147824527Y-107238444D01*
X147729040Y-107073056D01*
X147601253Y-106931134D01*
X147461852Y-106829853D01*
X147452094Y-106822763D01*
X147452093Y-106822762D01*
X147446752Y-106818882D01*
X147440724Y-106816198D01*
X147440722Y-106816197D01*
X147278319Y-106743891D01*
X147278318Y-106743891D01*
X147272288Y-106741206D01*
X147178888Y-106721353D01*
X147091944Y-106702872D01*
X147091939Y-106702872D01*
X147085487Y-106701500D01*
X146894513Y-106701500D01*
X146888061Y-106702872D01*
X146888056Y-106702872D01*
X146801112Y-106721353D01*
X146707712Y-106741206D01*
X146701682Y-106743891D01*
X146701681Y-106743891D01*
X146539278Y-106816197D01*
X146539276Y-106816198D01*
X146533248Y-106818882D01*
X146527908Y-106822762D01*
X146527906Y-106822763D01*
X146509061Y-106836455D01*
X146442194Y-106860313D01*
X146373042Y-106844233D01*
X146360939Y-106836455D01*
X146342094Y-106822763D01*
X146342092Y-106822762D01*
X146336752Y-106818882D01*
X146330724Y-106816198D01*
X146330722Y-106816197D01*
X146168319Y-106743891D01*
X146168318Y-106743891D01*
X146162288Y-106741206D01*
X146068888Y-106721353D01*
X145981944Y-106702872D01*
X145981939Y-106702872D01*
X145975487Y-106701500D01*
X145784513Y-106701500D01*
X145778061Y-106702872D01*
X145778056Y-106702872D01*
X145691112Y-106721353D01*
X145597712Y-106741206D01*
X145591682Y-106743891D01*
X145591681Y-106743891D01*
X145429278Y-106816197D01*
X145429276Y-106816198D01*
X145423248Y-106818882D01*
X145417907Y-106822762D01*
X145417906Y-106822763D01*
X145408148Y-106829853D01*
X145268747Y-106931134D01*
X145140960Y-107073056D01*
X145045473Y-107238444D01*
X144986458Y-107420072D01*
X144966496Y-107610000D01*
X144967186Y-107616564D01*
X144967186Y-107616565D01*
X144984678Y-107782988D01*
X144986458Y-107799928D01*
X144988500Y-107806212D01*
X144988500Y-107806213D01*
X144990085Y-107811091D01*
X144992114Y-107882059D01*
X144955453Y-107942858D01*
X144921501Y-107965137D01*
X144829281Y-108006195D01*
X144829274Y-108006199D01*
X144823248Y-108008882D01*
X144817907Y-108012762D01*
X144817906Y-108012763D01*
X144729061Y-108077313D01*
X144662193Y-108101172D01*
X144593042Y-108085091D01*
X144580939Y-108077313D01*
X144492094Y-108012763D01*
X144492093Y-108012762D01*
X144486752Y-108008882D01*
X144480724Y-108006198D01*
X144480722Y-108006197D01*
X144318319Y-107933891D01*
X144318316Y-107933890D01*
X144312288Y-107931206D01*
X144207345Y-107908900D01*
X144137109Y-107893970D01*
X144074635Y-107860241D01*
X144040314Y-107798092D01*
X144037996Y-107757553D01*
X144052814Y-107616565D01*
X144052814Y-107616564D01*
X144053504Y-107610000D01*
X144033542Y-107420072D01*
X143974527Y-107238444D01*
X143879040Y-107073056D01*
X143751253Y-106931134D01*
X143611852Y-106829853D01*
X143602094Y-106822763D01*
X143602093Y-106822762D01*
X143596752Y-106818882D01*
X143590724Y-106816198D01*
X143590722Y-106816197D01*
X143428319Y-106743891D01*
X143428318Y-106743891D01*
X143422288Y-106741206D01*
X143328888Y-106721353D01*
X143241944Y-106702872D01*
X143241939Y-106702872D01*
X143235487Y-106701500D01*
X143044513Y-106701500D01*
X143038061Y-106702872D01*
X143038056Y-106702872D01*
X142951112Y-106721353D01*
X142857712Y-106741206D01*
X142851682Y-106743891D01*
X142851681Y-106743891D01*
X142689279Y-106816197D01*
X142683248Y-106818882D01*
X142677907Y-106822762D01*
X142673003Y-106825594D01*
X142604008Y-106842334D01*
X142546997Y-106825594D01*
X142542093Y-106822762D01*
X142536752Y-106818882D01*
X142530722Y-106816197D01*
X142368319Y-106743891D01*
X142368318Y-106743891D01*
X142362288Y-106741206D01*
X142268888Y-106721353D01*
X142181944Y-106702872D01*
X142181939Y-106702872D01*
X142175487Y-106701500D01*
X141984513Y-106701500D01*
X141978061Y-106702872D01*
X141978056Y-106702872D01*
X141891112Y-106721353D01*
X141797712Y-106741206D01*
X141791682Y-106743891D01*
X141791681Y-106743891D01*
X141629278Y-106816197D01*
X141629276Y-106816198D01*
X141623248Y-106818882D01*
X141617907Y-106822762D01*
X141617906Y-106822763D01*
X141608148Y-106829853D01*
X141468747Y-106931134D01*
X141340960Y-107073056D01*
X141245473Y-107238444D01*
X141186458Y-107420072D01*
X141166496Y-107610000D01*
X141167186Y-107616564D01*
X141167186Y-107616565D01*
X141184678Y-107782988D01*
X141186458Y-107799928D01*
X141188500Y-107806212D01*
X141188500Y-107806213D01*
X141190085Y-107811091D01*
X141192114Y-107882059D01*
X141155453Y-107942858D01*
X141121501Y-107965137D01*
X141029281Y-108006195D01*
X141029274Y-108006199D01*
X141023248Y-108008882D01*
X141017907Y-108012762D01*
X141017906Y-108012763D01*
X140984773Y-108036836D01*
X140919060Y-108084579D01*
X140852194Y-108108437D01*
X140783042Y-108092357D01*
X140770944Y-108084582D01*
X140705227Y-108036836D01*
X140672094Y-108012763D01*
X140672093Y-108012762D01*
X140666752Y-108008882D01*
X140660724Y-108006198D01*
X140660722Y-108006197D01*
X140498319Y-107933891D01*
X140498316Y-107933890D01*
X140492288Y-107931206D01*
X140366016Y-107904366D01*
X140303543Y-107870637D01*
X140269221Y-107808488D01*
X140266903Y-107767948D01*
X140268236Y-107755271D01*
X140283504Y-107610000D01*
X140263542Y-107420072D01*
X140204527Y-107238444D01*
X140109040Y-107073056D01*
X139981253Y-106931134D01*
X139841852Y-106829853D01*
X139832094Y-106822763D01*
X139832093Y-106822762D01*
X139826752Y-106818882D01*
X139820724Y-106816198D01*
X139820722Y-106816197D01*
X139658319Y-106743891D01*
X139658318Y-106743891D01*
X139652288Y-106741206D01*
X139558888Y-106721353D01*
X139471944Y-106702872D01*
X139471939Y-106702872D01*
X139465487Y-106701500D01*
X139274513Y-106701500D01*
X139268061Y-106702872D01*
X139268056Y-106702872D01*
X139181112Y-106721353D01*
X139087712Y-106741206D01*
X139081682Y-106743891D01*
X139081681Y-106743891D01*
X138919278Y-106816197D01*
X138919276Y-106816198D01*
X138913248Y-106818882D01*
X138907907Y-106822762D01*
X138902189Y-106826064D01*
X138901381Y-106824665D01*
X138842193Y-106845783D01*
X138773041Y-106829702D01*
X138763572Y-106823617D01*
X138762096Y-106822765D01*
X138756752Y-106818882D01*
X138750724Y-106816198D01*
X138750722Y-106816197D01*
X138588319Y-106743891D01*
X138588318Y-106743891D01*
X138582288Y-106741206D01*
X138488888Y-106721353D01*
X138401944Y-106702872D01*
X138401939Y-106702872D01*
X138395487Y-106701500D01*
X138204513Y-106701500D01*
X138198061Y-106702872D01*
X138198056Y-106702872D01*
X138111112Y-106721353D01*
X138017712Y-106741206D01*
X138011682Y-106743891D01*
X138011681Y-106743891D01*
X137849278Y-106816197D01*
X137849276Y-106816198D01*
X137843248Y-106818882D01*
X137837907Y-106822762D01*
X137837906Y-106822763D01*
X137828148Y-106829853D01*
X137688747Y-106931134D01*
X137560960Y-107073056D01*
X137465473Y-107238444D01*
X137406458Y-107420072D01*
X137386496Y-107610000D01*
X137387186Y-107616564D01*
X137387186Y-107616565D01*
X137404678Y-107782988D01*
X137406458Y-107799928D01*
X137408499Y-107806210D01*
X137409760Y-107812141D01*
X137404358Y-107882932D01*
X137361541Y-107939564D01*
X137337762Y-107953445D01*
X137219278Y-108006197D01*
X137219276Y-108006198D01*
X137213248Y-108008882D01*
X137207907Y-108012762D01*
X137207906Y-108012763D01*
X137174773Y-108036836D01*
X137109060Y-108084579D01*
X137042194Y-108108437D01*
X136973042Y-108092357D01*
X136960944Y-108084582D01*
X136895227Y-108036836D01*
X136862094Y-108012763D01*
X136862093Y-108012762D01*
X136856752Y-108008882D01*
X136850724Y-108006198D01*
X136850722Y-108006197D01*
X136688319Y-107933891D01*
X136688316Y-107933890D01*
X136682288Y-107931206D01*
X136584522Y-107910425D01*
X136501944Y-107892872D01*
X136501939Y-107892872D01*
X136495487Y-107891500D01*
X136304513Y-107891500D01*
X136298061Y-107892872D01*
X136298056Y-107892872D01*
X136215478Y-107910425D01*
X136117712Y-107931206D01*
X136111684Y-107933890D01*
X136111681Y-107933891D01*
X135949278Y-108006197D01*
X135949276Y-108006198D01*
X135943248Y-108008882D01*
X135937907Y-108012762D01*
X135937906Y-108012763D01*
X135887843Y-108049136D01*
X135788747Y-108121134D01*
X135784326Y-108126044D01*
X135784325Y-108126045D01*
X135744616Y-108170147D01*
X135660960Y-108263056D01*
X135622462Y-108329736D01*
X135579700Y-108403803D01*
X135565473Y-108428444D01*
X135506458Y-108610072D01*
X135505768Y-108616633D01*
X135505768Y-108616635D01*
X135492753Y-108740470D01*
X135486496Y-108800000D01*
X134773504Y-108800000D01*
X134767247Y-108740470D01*
X134754232Y-108616635D01*
X134754232Y-108616633D01*
X134753542Y-108610072D01*
X134694527Y-108428444D01*
X134680301Y-108403803D01*
X134637538Y-108329736D01*
X134599040Y-108263056D01*
X134515385Y-108170147D01*
X134475675Y-108126045D01*
X134475674Y-108126044D01*
X134471253Y-108121134D01*
X134372157Y-108049136D01*
X134322094Y-108012763D01*
X134322093Y-108012762D01*
X134316752Y-108008882D01*
X134310724Y-108006198D01*
X134310722Y-108006197D01*
X134148319Y-107933891D01*
X134148316Y-107933890D01*
X134142288Y-107931206D01*
X134044522Y-107910425D01*
X133961944Y-107892872D01*
X133961939Y-107892872D01*
X133955487Y-107891500D01*
X133764513Y-107891500D01*
X133758061Y-107892872D01*
X133758056Y-107892872D01*
X133675478Y-107910425D01*
X133577712Y-107931206D01*
X133571684Y-107933890D01*
X133571681Y-107933891D01*
X133409278Y-108006197D01*
X133409276Y-108006198D01*
X133403248Y-108008882D01*
X133397907Y-108012762D01*
X133397906Y-108012763D01*
X133364773Y-108036836D01*
X133299060Y-108084579D01*
X133232194Y-108108437D01*
X133163042Y-108092357D01*
X133150944Y-108084582D01*
X133085227Y-108036836D01*
X133052094Y-108012763D01*
X133052093Y-108012762D01*
X133046752Y-108008882D01*
X133040724Y-108006198D01*
X133040722Y-108006197D01*
X132878319Y-107933891D01*
X132878316Y-107933890D01*
X132872288Y-107931206D01*
X132865833Y-107929834D01*
X132865824Y-107929831D01*
X132775360Y-107910602D01*
X132712887Y-107876874D01*
X132678566Y-107814724D01*
X132676248Y-107774186D01*
X132692814Y-107616565D01*
X132692814Y-107616564D01*
X132693504Y-107610000D01*
X132673542Y-107420072D01*
X132614527Y-107238444D01*
X132519040Y-107073056D01*
X132391253Y-106931134D01*
X132251852Y-106829853D01*
X132242094Y-106822763D01*
X132242093Y-106822762D01*
X132236752Y-106818882D01*
X132230724Y-106816198D01*
X132230722Y-106816197D01*
X132068319Y-106743891D01*
X132068318Y-106743891D01*
X132062288Y-106741206D01*
X131968888Y-106721353D01*
X131881944Y-106702872D01*
X131881939Y-106702872D01*
X131875487Y-106701500D01*
X131684513Y-106701500D01*
X131678061Y-106702872D01*
X131678056Y-106702872D01*
X131591112Y-106721353D01*
X131497712Y-106741206D01*
X131491682Y-106743891D01*
X131491681Y-106743891D01*
X131329276Y-106816198D01*
X131327173Y-106817135D01*
X131327171Y-106817135D01*
X131323248Y-106818882D01*
X131322929Y-106818165D01*
X131259006Y-106833673D01*
X131206969Y-106818393D01*
X131206752Y-106818882D01*
X131200724Y-106816198D01*
X131038319Y-106743891D01*
X131038318Y-106743891D01*
X131032288Y-106741206D01*
X130938888Y-106721353D01*
X130851944Y-106702872D01*
X130851939Y-106702872D01*
X130845487Y-106701500D01*
X130654513Y-106701500D01*
X130648061Y-106702872D01*
X130648056Y-106702872D01*
X130561112Y-106721353D01*
X130467712Y-106741206D01*
X130461682Y-106743891D01*
X130461681Y-106743891D01*
X130299278Y-106816197D01*
X130299276Y-106816198D01*
X130293248Y-106818882D01*
X130287907Y-106822762D01*
X130287906Y-106822763D01*
X130278148Y-106829853D01*
X130138747Y-106931134D01*
X130010960Y-107073056D01*
X129915473Y-107238444D01*
X129856458Y-107420072D01*
X129836496Y-107610000D01*
X129855768Y-107793358D01*
X129855948Y-107795073D01*
X129843176Y-107864912D01*
X129794674Y-107916759D01*
X129769574Y-107928077D01*
X129764167Y-107929834D01*
X129757712Y-107931206D01*
X129738940Y-107939564D01*
X129589278Y-108006197D01*
X129589276Y-108006198D01*
X129583248Y-108008882D01*
X129577907Y-108012762D01*
X129577906Y-108012763D01*
X129484061Y-108080946D01*
X129417194Y-108104804D01*
X129348042Y-108088724D01*
X129335939Y-108080946D01*
X129242094Y-108012763D01*
X129242093Y-108012762D01*
X129236752Y-108008882D01*
X129230724Y-108006198D01*
X129230722Y-108006197D01*
X129062288Y-107931206D01*
X129062893Y-107929847D01*
X129010643Y-107894119D01*
X128983006Y-107828722D01*
X128992880Y-107764408D01*
X128994527Y-107761556D01*
X129053542Y-107579928D01*
X129073504Y-107390000D01*
X129053542Y-107200072D01*
X128994527Y-107018444D01*
X128899040Y-106853056D01*
X128892492Y-106845783D01*
X128775675Y-106716045D01*
X128775671Y-106716041D01*
X128771253Y-106711134D01*
X128616752Y-106598882D01*
X128610724Y-106596198D01*
X128610722Y-106596197D01*
X128448319Y-106523891D01*
X128448318Y-106523891D01*
X128442288Y-106521206D01*
X128348888Y-106501353D01*
X128261944Y-106482872D01*
X128261939Y-106482872D01*
X128255487Y-106481500D01*
X128064513Y-106481500D01*
X128058061Y-106482872D01*
X128058056Y-106482872D01*
X127971113Y-106501353D01*
X127877712Y-106521206D01*
X127871682Y-106523891D01*
X127871681Y-106523891D01*
X127709278Y-106596197D01*
X127709276Y-106596198D01*
X127703248Y-106598882D01*
X127548747Y-106711134D01*
X127505837Y-106758791D01*
X127445392Y-106796029D01*
X127374408Y-106794677D01*
X127360954Y-106789586D01*
X127258323Y-106743892D01*
X127258315Y-106743889D01*
X127252288Y-106741206D01*
X127158888Y-106721353D01*
X127071944Y-106702872D01*
X127071939Y-106702872D01*
X127065487Y-106701500D01*
X126874513Y-106701500D01*
X126868061Y-106702872D01*
X126868056Y-106702872D01*
X126781112Y-106721353D01*
X126687712Y-106741206D01*
X126681682Y-106743891D01*
X126681681Y-106743891D01*
X126519278Y-106816197D01*
X126519276Y-106816198D01*
X126513248Y-106818882D01*
X126507907Y-106822762D01*
X126507906Y-106822763D01*
X126498148Y-106829853D01*
X126358747Y-106931134D01*
X126230960Y-107073056D01*
X126135473Y-107238444D01*
X126076458Y-107420072D01*
X126056496Y-107610000D01*
X126057186Y-107616564D01*
X126057186Y-107616565D01*
X126075282Y-107788740D01*
X126062510Y-107858578D01*
X126014008Y-107910425D01*
X125976170Y-107925156D01*
X125954176Y-107929831D01*
X125954167Y-107929834D01*
X125947712Y-107931206D01*
X125941684Y-107933890D01*
X125941681Y-107933891D01*
X125779278Y-108006197D01*
X125779276Y-108006198D01*
X125773248Y-108008882D01*
X125767907Y-108012762D01*
X125767906Y-108012763D01*
X125734773Y-108036836D01*
X125669060Y-108084579D01*
X125602194Y-108108437D01*
X125533042Y-108092357D01*
X125520944Y-108084582D01*
X125455227Y-108036836D01*
X125422094Y-108012763D01*
X125422093Y-108012762D01*
X125416752Y-108008882D01*
X125410724Y-108006198D01*
X125410722Y-108006197D01*
X125248319Y-107933891D01*
X125248316Y-107933890D01*
X125242288Y-107931206D01*
X125144522Y-107910425D01*
X125061944Y-107892872D01*
X125061939Y-107892872D01*
X125055487Y-107891500D01*
X124864513Y-107891500D01*
X124858061Y-107892872D01*
X124858056Y-107892872D01*
X124775478Y-107910425D01*
X124677712Y-107931206D01*
X124671684Y-107933890D01*
X124671681Y-107933891D01*
X124509278Y-108006197D01*
X124509276Y-108006198D01*
X124503248Y-108008882D01*
X124497907Y-108012762D01*
X124497906Y-108012763D01*
X124447843Y-108049136D01*
X124348747Y-108121134D01*
X124344326Y-108126044D01*
X124344325Y-108126045D01*
X124304616Y-108170147D01*
X124220960Y-108263056D01*
X124182462Y-108329736D01*
X124139700Y-108403803D01*
X124125473Y-108428444D01*
X124066458Y-108610072D01*
X124065768Y-108616633D01*
X124065768Y-108616635D01*
X124052753Y-108740470D01*
X124046496Y-108800000D01*
X123353504Y-108800000D01*
X123347247Y-108740470D01*
X123334232Y-108616635D01*
X123334232Y-108616633D01*
X123333542Y-108610072D01*
X123274527Y-108428444D01*
X123260301Y-108403803D01*
X123217538Y-108329736D01*
X123179040Y-108263056D01*
X123095385Y-108170147D01*
X123055675Y-108126045D01*
X123055674Y-108126044D01*
X123051253Y-108121134D01*
X122952157Y-108049136D01*
X122902094Y-108012763D01*
X122902093Y-108012762D01*
X122896752Y-108008882D01*
X122890724Y-108006198D01*
X122890722Y-108006197D01*
X122728319Y-107933891D01*
X122728316Y-107933890D01*
X122722288Y-107931206D01*
X122624522Y-107910425D01*
X122541944Y-107892872D01*
X122541939Y-107892872D01*
X122535487Y-107891500D01*
X122344513Y-107891500D01*
X122338061Y-107892872D01*
X122338056Y-107892872D01*
X122255478Y-107910425D01*
X122157712Y-107931206D01*
X122151684Y-107933890D01*
X122151681Y-107933891D01*
X121989278Y-108006197D01*
X121989276Y-108006198D01*
X121983248Y-108008882D01*
X121977907Y-108012762D01*
X121977906Y-108012763D01*
X121869061Y-108091844D01*
X121802193Y-108115702D01*
X121733042Y-108099622D01*
X121720939Y-108091844D01*
X121612094Y-108012763D01*
X121612093Y-108012762D01*
X121606752Y-108008882D01*
X121600724Y-108006198D01*
X121600722Y-108006197D01*
X121438319Y-107933891D01*
X121438316Y-107933890D01*
X121432288Y-107931206D01*
X121334522Y-107910425D01*
X121251944Y-107892872D01*
X121251939Y-107892872D01*
X121245487Y-107891500D01*
X121054513Y-107891500D01*
X121048061Y-107892872D01*
X121048056Y-107892872D01*
X120965478Y-107910425D01*
X120867712Y-107931206D01*
X120861684Y-107933890D01*
X120861681Y-107933891D01*
X120699278Y-108006197D01*
X120699276Y-108006198D01*
X120693248Y-108008882D01*
X120687907Y-108012762D01*
X120687906Y-108012763D01*
X120637843Y-108049136D01*
X120538747Y-108121134D01*
X120534326Y-108126044D01*
X120534325Y-108126045D01*
X120494616Y-108170147D01*
X120410960Y-108263056D01*
X120372462Y-108329736D01*
X120329700Y-108403803D01*
X120315473Y-108428444D01*
X120256458Y-108610072D01*
X120255768Y-108616633D01*
X120255768Y-108616635D01*
X120242753Y-108740470D01*
X120236496Y-108800000D01*
X119523504Y-108800000D01*
X119517247Y-108740470D01*
X119504232Y-108616635D01*
X119504232Y-108616633D01*
X119503542Y-108610072D01*
X119444527Y-108428444D01*
X119430301Y-108403803D01*
X119387538Y-108329736D01*
X119349040Y-108263056D01*
X119265385Y-108170147D01*
X119225675Y-108126045D01*
X119225674Y-108126044D01*
X119221253Y-108121134D01*
X119122157Y-108049136D01*
X119072094Y-108012763D01*
X119072093Y-108012762D01*
X119066752Y-108008882D01*
X119060724Y-108006198D01*
X119060722Y-108006197D01*
X118898319Y-107933891D01*
X118898316Y-107933890D01*
X118892288Y-107931206D01*
X118794522Y-107910425D01*
X118711944Y-107892872D01*
X118711939Y-107892872D01*
X118705487Y-107891500D01*
X118514513Y-107891500D01*
X118508061Y-107892872D01*
X118508056Y-107892872D01*
X118425478Y-107910425D01*
X118327712Y-107931206D01*
X118321684Y-107933890D01*
X118321681Y-107933891D01*
X118159278Y-108006197D01*
X118159276Y-108006198D01*
X118153248Y-108008882D01*
X118147907Y-108012762D01*
X118147906Y-108012763D01*
X118054061Y-108080946D01*
X117987194Y-108104804D01*
X117918042Y-108088724D01*
X117905939Y-108080946D01*
X117812094Y-108012763D01*
X117812093Y-108012762D01*
X117806752Y-108008882D01*
X117800724Y-108006198D01*
X117800722Y-108006197D01*
X117638319Y-107933891D01*
X117638316Y-107933890D01*
X117632288Y-107931206D01*
X117534522Y-107910425D01*
X117451944Y-107892872D01*
X117451939Y-107892872D01*
X117445487Y-107891500D01*
X117254513Y-107891500D01*
X117248061Y-107892872D01*
X117248056Y-107892872D01*
X117165478Y-107910425D01*
X117067712Y-107931206D01*
X117061684Y-107933890D01*
X117061681Y-107933891D01*
X116899278Y-108006197D01*
X116899276Y-108006198D01*
X116893248Y-108008882D01*
X116887907Y-108012762D01*
X116887906Y-108012763D01*
X116837843Y-108049136D01*
X116738747Y-108121134D01*
X116734326Y-108126044D01*
X116734325Y-108126045D01*
X116694616Y-108170147D01*
X116610960Y-108263056D01*
X116572462Y-108329736D01*
X116529700Y-108403803D01*
X116515473Y-108428444D01*
X116456458Y-108610072D01*
X116455768Y-108616633D01*
X116455768Y-108616635D01*
X116442753Y-108740470D01*
X116436496Y-108800000D01*
X115722453Y-108800000D01*
X115703542Y-108620072D01*
X115644527Y-108438444D01*
X115638754Y-108428444D01*
X115599975Y-108361278D01*
X115549040Y-108273056D01*
X115536199Y-108258794D01*
X115425675Y-108136045D01*
X115425674Y-108136044D01*
X115421253Y-108131134D01*
X115266752Y-108018882D01*
X115260724Y-108016198D01*
X115260722Y-108016197D01*
X115098319Y-107943891D01*
X115098318Y-107943891D01*
X115092288Y-107941206D01*
X114977275Y-107916759D01*
X114911944Y-107902872D01*
X114911939Y-107902872D01*
X114905487Y-107901500D01*
X114714513Y-107901500D01*
X114708061Y-107902872D01*
X114708056Y-107902872D01*
X114642725Y-107916759D01*
X114527712Y-107941206D01*
X114521682Y-107943891D01*
X114521681Y-107943891D01*
X114359278Y-108016197D01*
X114359276Y-108016198D01*
X114353248Y-108018882D01*
X114249060Y-108094579D01*
X114182194Y-108118437D01*
X114113042Y-108102357D01*
X114100944Y-108094582D01*
X113996752Y-108018882D01*
X113990724Y-108016198D01*
X113990722Y-108016197D01*
X113828319Y-107943891D01*
X113828318Y-107943891D01*
X113822288Y-107941206D01*
X113707275Y-107916759D01*
X113641944Y-107902872D01*
X113641939Y-107902872D01*
X113635487Y-107901500D01*
X113444513Y-107901500D01*
X113438061Y-107902872D01*
X113438056Y-107902872D01*
X113372725Y-107916759D01*
X113257712Y-107941206D01*
X113251682Y-107943891D01*
X113251681Y-107943891D01*
X113089278Y-108016197D01*
X113089276Y-108016198D01*
X113083248Y-108018882D01*
X112928747Y-108131134D01*
X112924326Y-108136044D01*
X112924325Y-108136045D01*
X112813802Y-108258794D01*
X112800960Y-108273056D01*
X112750025Y-108361278D01*
X112711247Y-108428444D01*
X112705473Y-108438444D01*
X112646458Y-108620072D01*
X112626496Y-108810000D01*
X109364057Y-108810000D01*
X109372326Y-105495102D01*
X160540141Y-105495102D01*
X160575732Y-105702228D01*
X160648472Y-105899399D01*
X160755926Y-106080012D01*
X160894494Y-106238019D01*
X161059537Y-106368128D01*
X161064653Y-106370819D01*
X161064655Y-106370821D01*
X161240410Y-106463290D01*
X161245527Y-106465982D01*
X161446234Y-106528304D01*
X161451969Y-106528983D01*
X161451970Y-106528983D01*
X161482532Y-106532600D01*
X161616874Y-106548500D01*
X161738316Y-106548500D01*
X161894279Y-106534169D01*
X161899841Y-106532600D01*
X161899843Y-106532600D01*
X161995414Y-106505646D01*
X162096549Y-106477123D01*
X162285037Y-106384171D01*
X162453429Y-106258427D01*
X162596086Y-106104101D01*
X162708231Y-105926362D01*
X162786108Y-105731163D01*
X162787233Y-105725506D01*
X162787235Y-105725500D01*
X162825981Y-105530707D01*
X162825981Y-105530705D01*
X162827108Y-105525040D01*
X162827426Y-105500800D01*
X162829783Y-105320680D01*
X162829859Y-105314898D01*
X162794268Y-105107772D01*
X162721528Y-104910601D01*
X162614074Y-104729988D01*
X162475506Y-104571981D01*
X162310463Y-104441872D01*
X162305347Y-104439181D01*
X162305345Y-104439179D01*
X162129590Y-104346710D01*
X162129588Y-104346709D01*
X162124473Y-104344018D01*
X161923766Y-104281696D01*
X161918031Y-104281017D01*
X161918030Y-104281017D01*
X161869742Y-104275302D01*
X161753126Y-104261500D01*
X161631684Y-104261500D01*
X161475721Y-104275831D01*
X161470159Y-104277400D01*
X161470157Y-104277400D01*
X161413575Y-104293358D01*
X161273451Y-104332877D01*
X161084963Y-104425829D01*
X160916571Y-104551573D01*
X160773914Y-104705899D01*
X160661769Y-104883638D01*
X160583892Y-105078837D01*
X160582767Y-105084494D01*
X160582765Y-105084500D01*
X160577003Y-105113469D01*
X160542892Y-105284960D01*
X160542816Y-105290735D01*
X160542816Y-105290739D01*
X160542500Y-105314898D01*
X160540141Y-105495102D01*
X109372326Y-105495102D01*
X109375047Y-104404192D01*
X109381214Y-104365570D01*
X109400500Y-104306214D01*
X109400501Y-104306210D01*
X109402542Y-104299928D01*
X109404279Y-104283410D01*
X109421814Y-104116565D01*
X109422504Y-104110000D01*
X109402542Y-103920072D01*
X109382672Y-103858919D01*
X109376505Y-103819669D01*
X109378856Y-102877282D01*
X109399028Y-102809211D01*
X109452800Y-102762852D01*
X109504850Y-102751596D01*
X137140439Y-102750795D01*
X164414157Y-102750004D01*
X164482279Y-102770004D01*
G37*
G04 #@! TD.AperFunction*
G04 #@! TA.AperFunction,Conductor*
G36*
X107803297Y-113338762D02*
G01*
X107849801Y-113392408D01*
X107861199Y-113444689D01*
X107882766Y-145956970D01*
X107865885Y-146020052D01*
X107854984Y-146038933D01*
X107795969Y-146220561D01*
X107776007Y-146410489D01*
X107795969Y-146600417D01*
X107854984Y-146782045D01*
X107866488Y-146801970D01*
X107883368Y-146864885D01*
X107891126Y-158559620D01*
X106220000Y-158560000D01*
X106219671Y-158435916D01*
X106219354Y-158316116D01*
X106100324Y-113445435D01*
X106120146Y-113377262D01*
X106173678Y-113330627D01*
X106226297Y-113319101D01*
X107119409Y-113318908D01*
X107735173Y-113318775D01*
X107803297Y-113338762D01*
G37*
G04 #@! TD.AperFunction*
G04 #@! TA.AperFunction,Conductor*
G36*
X150430161Y-159578916D02*
G01*
X150360786Y-159578876D01*
X150347046Y-159578868D01*
X150347045Y-159578868D01*
X133597905Y-159569264D01*
X133597904Y-159569264D01*
X133579791Y-159569254D01*
X132990161Y-159568916D01*
X132989999Y-158284991D01*
X132989998Y-158279764D01*
X133024375Y-158274878D01*
X150369592Y-158264933D01*
X150429998Y-158264898D01*
X150430161Y-159578916D01*
G37*
G04 #@! TD.AperFunction*
M02*
