G04 #@! TF.GenerationSoftware,KiCad,Pcbnew,(6.0.4-0)*
G04 #@! TF.CreationDate,2022-07-08T14:42:33+02:00*
G04 #@! TF.ProjectId,adapter_hybrid_assistor_hpc_3HDMI,61646170-7465-4725-9f68-79627269645f,rev?*
G04 #@! TF.SameCoordinates,Original*
G04 #@! TF.FileFunction,Soldermask,Bot*
G04 #@! TF.FilePolarity,Negative*
%FSLAX46Y46*%
G04 Gerber Fmt 4.6, Leading zero omitted, Abs format (unit mm)*
G04 Created by KiCad (PCBNEW (6.0.4-0)) date 2022-07-08 14:42:33*
%MOMM*%
%LPD*%
G01*
G04 APERTURE LIST*
G04 Aperture macros list*
%AMRoundRect*
0 Rectangle with rounded corners*
0 $1 Rounding radius*
0 $2 $3 $4 $5 $6 $7 $8 $9 X,Y pos of 4 corners*
0 Add a 4 corners polygon primitive as box body*
4,1,4,$2,$3,$4,$5,$6,$7,$8,$9,$2,$3,0*
0 Add four circle primitives for the rounded corners*
1,1,$1+$1,$2,$3*
1,1,$1+$1,$4,$5*
1,1,$1+$1,$6,$7*
1,1,$1+$1,$8,$9*
0 Add four rect primitives between the rounded corners*
20,1,$1+$1,$2,$3,$4,$5,0*
20,1,$1+$1,$4,$5,$6,$7,0*
20,1,$1+$1,$6,$7,$8,$9,0*
20,1,$1+$1,$8,$9,$2,$3,0*%
G04 Aperture macros list end*
%ADD10C,0.545000*%
%ADD11C,1.372000*%
%ADD12C,4.102000*%
%ADD13C,2.097000*%
%ADD14RoundRect,0.051000X-0.500000X0.475000X-0.500000X-0.475000X0.500000X-0.475000X0.500000X0.475000X0*%
%ADD15RoundRect,0.051000X-0.150000X-0.425000X0.150000X-0.425000X0.150000X0.425000X-0.150000X0.425000X0*%
%ADD16RoundRect,0.051000X0.425000X-0.150000X0.425000X0.150000X-0.425000X0.150000X-0.425000X-0.150000X0*%
%ADD17RoundRect,0.051000X1.200000X-1.200000X1.200000X1.200000X-1.200000X1.200000X-1.200000X-1.200000X0*%
%ADD18RoundRect,0.251000X-0.200000X-0.275000X0.200000X-0.275000X0.200000X0.275000X-0.200000X0.275000X0*%
%ADD19RoundRect,0.251000X0.275000X-0.200000X0.275000X0.200000X-0.275000X0.200000X-0.275000X-0.200000X0*%
%ADD20RoundRect,0.051000X-0.764000X0.325000X-0.764000X-0.325000X0.764000X-0.325000X0.764000X0.325000X0*%
%ADD21RoundRect,0.251000X0.200000X0.275000X-0.200000X0.275000X-0.200000X-0.275000X0.200000X-0.275000X0*%
G04 APERTURE END LIST*
D10*
X150642500Y-105280000D02*
G75*
G03*
X150642500Y-105280000I-272500J0D01*
G01*
X136672500Y-110360000D02*
G75*
G03*
X136672500Y-110360000I-272500J0D01*
G01*
X141752500Y-110360000D02*
G75*
G03*
X141752500Y-110360000I-272500J0D01*
G01*
X123972500Y-105280000D02*
G75*
G03*
X123972500Y-105280000I-272500J0D01*
G01*
X110002500Y-105280000D02*
G75*
G03*
X110002500Y-105280000I-272500J0D01*
G01*
X144292500Y-106550000D02*
G75*
G03*
X144292500Y-106550000I-272500J0D01*
G01*
X117622500Y-105280000D02*
G75*
G03*
X117622500Y-105280000I-272500J0D01*
G01*
X146832500Y-110360000D02*
G75*
G03*
X146832500Y-110360000I-272500J0D01*
G01*
X153182500Y-106550000D02*
G75*
G03*
X153182500Y-106550000I-272500J0D01*
G01*
X134132500Y-111630000D02*
G75*
G03*
X134132500Y-111630000I-272500J0D01*
G01*
X113812500Y-110360000D02*
G75*
G03*
X113812500Y-110360000I-272500J0D01*
G01*
X140482500Y-106550000D02*
G75*
G03*
X140482500Y-106550000I-272500J0D01*
G01*
X144292500Y-110360000D02*
G75*
G03*
X144292500Y-110360000I-272500J0D01*
G01*
X159532500Y-105280000D02*
G75*
G03*
X159532500Y-105280000I-272500J0D01*
G01*
X149372500Y-111630000D02*
G75*
G03*
X149372500Y-111630000I-272500J0D01*
G01*
X115082500Y-106550000D02*
G75*
G03*
X115082500Y-106550000I-272500J0D01*
G01*
X153182500Y-111630000D02*
G75*
G03*
X153182500Y-111630000I-272500J0D01*
G01*
X115082500Y-105280000D02*
G75*
G03*
X115082500Y-105280000I-272500J0D01*
G01*
X156992500Y-111630000D02*
G75*
G03*
X156992500Y-111630000I-272500J0D01*
G01*
X145562500Y-105280000D02*
G75*
G03*
X145562500Y-105280000I-272500J0D01*
G01*
X121432500Y-111630000D02*
G75*
G03*
X121432500Y-111630000I-272500J0D01*
G01*
X131592500Y-111630000D02*
G75*
G03*
X131592500Y-111630000I-272500J0D01*
G01*
X118892500Y-105280000D02*
G75*
G03*
X118892500Y-105280000I-272500J0D01*
G01*
X150642500Y-110360000D02*
G75*
G03*
X150642500Y-110360000I-272500J0D01*
G01*
X137942500Y-110360000D02*
G75*
G03*
X137942500Y-110360000I-272500J0D01*
G01*
X143022500Y-110360000D02*
G75*
G03*
X143022500Y-110360000I-272500J0D01*
G01*
X111272500Y-111630000D02*
G75*
G03*
X111272500Y-111630000I-272500J0D01*
G01*
X139212500Y-110360000D02*
G75*
G03*
X139212500Y-110360000I-272500J0D01*
G01*
X126512500Y-106550000D02*
G75*
G03*
X126512500Y-106550000I-272500J0D01*
G01*
X111272500Y-110360000D02*
G75*
G03*
X111272500Y-110360000I-272500J0D01*
G01*
X139212500Y-105280000D02*
G75*
G03*
X139212500Y-105280000I-272500J0D01*
G01*
X140482500Y-111630000D02*
G75*
G03*
X140482500Y-111630000I-272500J0D01*
G01*
X144292500Y-105280000D02*
G75*
G03*
X144292500Y-105280000I-272500J0D01*
G01*
X151912500Y-105280000D02*
G75*
G03*
X151912500Y-105280000I-272500J0D01*
G01*
X131592500Y-105280000D02*
G75*
G03*
X131592500Y-105280000I-272500J0D01*
G01*
X153182500Y-105280000D02*
G75*
G03*
X153182500Y-105280000I-272500J0D01*
G01*
X110002500Y-110360000D02*
G75*
G03*
X110002500Y-110360000I-272500J0D01*
G01*
X112542500Y-110360000D02*
G75*
G03*
X112542500Y-110360000I-272500J0D01*
G01*
X150642500Y-106550000D02*
G75*
G03*
X150642500Y-106550000I-272500J0D01*
G01*
X117622500Y-110360000D02*
G75*
G03*
X117622500Y-110360000I-272500J0D01*
G01*
X127782500Y-105280000D02*
G75*
G03*
X127782500Y-105280000I-272500J0D01*
G01*
X137942500Y-111630000D02*
G75*
G03*
X137942500Y-111630000I-272500J0D01*
G01*
X113812500Y-106550000D02*
G75*
G03*
X113812500Y-106550000I-272500J0D01*
G01*
X132862500Y-111630000D02*
G75*
G03*
X132862500Y-111630000I-272500J0D01*
G01*
X120162500Y-105280000D02*
G75*
G03*
X120162500Y-105280000I-272500J0D01*
G01*
X135402500Y-110360000D02*
G75*
G03*
X135402500Y-110360000I-272500J0D01*
G01*
X112542500Y-105280000D02*
G75*
G03*
X112542500Y-105280000I-272500J0D01*
G01*
X136672500Y-105280000D02*
G75*
G03*
X136672500Y-105280000I-272500J0D01*
G01*
X125242500Y-106550000D02*
G75*
G03*
X125242500Y-106550000I-272500J0D01*
G01*
X155722500Y-110360000D02*
G75*
G03*
X155722500Y-110360000I-272500J0D01*
G01*
X132862500Y-106550000D02*
G75*
G03*
X132862500Y-106550000I-272500J0D01*
G01*
X158262500Y-110360000D02*
G75*
G03*
X158262500Y-110360000I-272500J0D01*
G01*
X139212500Y-111630000D02*
G75*
G03*
X139212500Y-111630000I-272500J0D01*
G01*
X115082500Y-111630000D02*
G75*
G03*
X115082500Y-111630000I-272500J0D01*
G01*
X131592500Y-110360000D02*
G75*
G03*
X131592500Y-110360000I-272500J0D01*
G01*
X136672500Y-111630000D02*
G75*
G03*
X136672500Y-111630000I-272500J0D01*
G01*
X149372500Y-105280000D02*
G75*
G03*
X149372500Y-105280000I-272500J0D01*
G01*
X159532500Y-110360000D02*
G75*
G03*
X159532500Y-110360000I-272500J0D01*
G01*
X129052500Y-106550000D02*
G75*
G03*
X129052500Y-106550000I-272500J0D01*
G01*
X151912500Y-106550000D02*
G75*
G03*
X151912500Y-106550000I-272500J0D01*
G01*
X134132500Y-106550000D02*
G75*
G03*
X134132500Y-106550000I-272500J0D01*
G01*
X118892500Y-106550000D02*
G75*
G03*
X118892500Y-106550000I-272500J0D01*
G01*
X129052500Y-110360000D02*
G75*
G03*
X129052500Y-110360000I-272500J0D01*
G01*
X116352500Y-110360000D02*
G75*
G03*
X116352500Y-110360000I-272500J0D01*
G01*
X126512500Y-105280000D02*
G75*
G03*
X126512500Y-105280000I-272500J0D01*
G01*
X123972500Y-110360000D02*
G75*
G03*
X123972500Y-110360000I-272500J0D01*
G01*
X116352500Y-106550000D02*
G75*
G03*
X116352500Y-106550000I-272500J0D01*
G01*
X136672500Y-106550000D02*
G75*
G03*
X136672500Y-106550000I-272500J0D01*
G01*
X154452500Y-111630000D02*
G75*
G03*
X154452500Y-111630000I-272500J0D01*
G01*
X145562500Y-106550000D02*
G75*
G03*
X145562500Y-106550000I-272500J0D01*
G01*
X141752500Y-105280000D02*
G75*
G03*
X141752500Y-105280000I-272500J0D01*
G01*
X122702500Y-106550000D02*
G75*
G03*
X122702500Y-106550000I-272500J0D01*
G01*
X122702500Y-105280000D02*
G75*
G03*
X122702500Y-105280000I-272500J0D01*
G01*
X150642500Y-111630000D02*
G75*
G03*
X150642500Y-111630000I-272500J0D01*
G01*
X130322500Y-105280000D02*
G75*
G03*
X130322500Y-105280000I-272500J0D01*
G01*
X159532500Y-111630000D02*
G75*
G03*
X159532500Y-111630000I-272500J0D01*
G01*
X145562500Y-111630000D02*
G75*
G03*
X145562500Y-111630000I-272500J0D01*
G01*
X145562500Y-110360000D02*
G75*
G03*
X145562500Y-110360000I-272500J0D01*
G01*
X120162500Y-106550000D02*
G75*
G03*
X120162500Y-106550000I-272500J0D01*
G01*
X126512500Y-110360000D02*
G75*
G03*
X126512500Y-110360000I-272500J0D01*
G01*
X156992500Y-105280000D02*
G75*
G03*
X156992500Y-105280000I-272500J0D01*
G01*
X141752500Y-111630000D02*
G75*
G03*
X141752500Y-111630000I-272500J0D01*
G01*
X117622500Y-106550000D02*
G75*
G03*
X117622500Y-106550000I-272500J0D01*
G01*
X141752500Y-106550000D02*
G75*
G03*
X141752500Y-106550000I-272500J0D01*
G01*
X159532500Y-106550000D02*
G75*
G03*
X159532500Y-106550000I-272500J0D01*
G01*
X120162500Y-110360000D02*
G75*
G03*
X120162500Y-110360000I-272500J0D01*
G01*
X129052500Y-105280000D02*
G75*
G03*
X129052500Y-105280000I-272500J0D01*
G01*
X132862500Y-105280000D02*
G75*
G03*
X132862500Y-105280000I-272500J0D01*
G01*
X139212500Y-106550000D02*
G75*
G03*
X139212500Y-106550000I-272500J0D01*
G01*
X127782500Y-106550000D02*
G75*
G03*
X127782500Y-106550000I-272500J0D01*
G01*
X132862500Y-110360000D02*
G75*
G03*
X132862500Y-110360000I-272500J0D01*
G01*
X137942500Y-105280000D02*
G75*
G03*
X137942500Y-105280000I-272500J0D01*
G01*
X111272500Y-105280000D02*
G75*
G03*
X111272500Y-105280000I-272500J0D01*
G01*
X121432500Y-105280000D02*
G75*
G03*
X121432500Y-105280000I-272500J0D01*
G01*
X121432500Y-110360000D02*
G75*
G03*
X121432500Y-110360000I-272500J0D01*
G01*
X112542500Y-106550000D02*
G75*
G03*
X112542500Y-106550000I-272500J0D01*
G01*
X148102500Y-105280000D02*
G75*
G03*
X148102500Y-105280000I-272500J0D01*
G01*
X126512500Y-111630000D02*
G75*
G03*
X126512500Y-111630000I-272500J0D01*
G01*
X148102500Y-106550000D02*
G75*
G03*
X148102500Y-106550000I-272500J0D01*
G01*
X134132500Y-110360000D02*
G75*
G03*
X134132500Y-110360000I-272500J0D01*
G01*
X148102500Y-111630000D02*
G75*
G03*
X148102500Y-111630000I-272500J0D01*
G01*
X156992500Y-106550000D02*
G75*
G03*
X156992500Y-106550000I-272500J0D01*
G01*
X130322500Y-106550000D02*
G75*
G03*
X130322500Y-106550000I-272500J0D01*
G01*
X144292500Y-111630000D02*
G75*
G03*
X144292500Y-111630000I-272500J0D01*
G01*
X118892500Y-111630000D02*
G75*
G03*
X118892500Y-111630000I-272500J0D01*
G01*
X153182500Y-110360000D02*
G75*
G03*
X153182500Y-110360000I-272500J0D01*
G01*
X140482500Y-105280000D02*
G75*
G03*
X140482500Y-105280000I-272500J0D01*
G01*
X143022500Y-106550000D02*
G75*
G03*
X143022500Y-106550000I-272500J0D01*
G01*
X151912500Y-110360000D02*
G75*
G03*
X151912500Y-110360000I-272500J0D01*
G01*
X146832500Y-111630000D02*
G75*
G03*
X146832500Y-111630000I-272500J0D01*
G01*
X156992500Y-110360000D02*
G75*
G03*
X156992500Y-110360000I-272500J0D01*
G01*
X112542500Y-111630000D02*
G75*
G03*
X112542500Y-111630000I-272500J0D01*
G01*
X116352500Y-111630000D02*
G75*
G03*
X116352500Y-111630000I-272500J0D01*
G01*
X158262500Y-106550000D02*
G75*
G03*
X158262500Y-106550000I-272500J0D01*
G01*
X134132500Y-105280000D02*
G75*
G03*
X134132500Y-105280000I-272500J0D01*
G01*
X123972500Y-111630000D02*
G75*
G03*
X123972500Y-111630000I-272500J0D01*
G01*
X135402500Y-105280000D02*
G75*
G03*
X135402500Y-105280000I-272500J0D01*
G01*
X135402500Y-106550000D02*
G75*
G03*
X135402500Y-106550000I-272500J0D01*
G01*
X129052500Y-111630000D02*
G75*
G03*
X129052500Y-111630000I-272500J0D01*
G01*
X154452500Y-110360000D02*
G75*
G03*
X154452500Y-110360000I-272500J0D01*
G01*
X135402500Y-111630000D02*
G75*
G03*
X135402500Y-111630000I-272500J0D01*
G01*
X146832500Y-105280000D02*
G75*
G03*
X146832500Y-105280000I-272500J0D01*
G01*
X158262500Y-111630000D02*
G75*
G03*
X158262500Y-111630000I-272500J0D01*
G01*
X115082500Y-110360000D02*
G75*
G03*
X115082500Y-110360000I-272500J0D01*
G01*
X154452500Y-106550000D02*
G75*
G03*
X154452500Y-106550000I-272500J0D01*
G01*
X154452500Y-105280000D02*
G75*
G03*
X154452500Y-105280000I-272500J0D01*
G01*
X111272500Y-106550000D02*
G75*
G03*
X111272500Y-106550000I-272500J0D01*
G01*
X113812500Y-105280000D02*
G75*
G03*
X113812500Y-105280000I-272500J0D01*
G01*
X125242500Y-110360000D02*
G75*
G03*
X125242500Y-110360000I-272500J0D01*
G01*
X113812500Y-111630000D02*
G75*
G03*
X113812500Y-111630000I-272500J0D01*
G01*
X149372500Y-106550000D02*
G75*
G03*
X149372500Y-106550000I-272500J0D01*
G01*
X143022500Y-105280000D02*
G75*
G03*
X143022500Y-105280000I-272500J0D01*
G01*
X127782500Y-111630000D02*
G75*
G03*
X127782500Y-111630000I-272500J0D01*
G01*
X148102500Y-110360000D02*
G75*
G03*
X148102500Y-110360000I-272500J0D01*
G01*
X125242500Y-105280000D02*
G75*
G03*
X125242500Y-105280000I-272500J0D01*
G01*
X131592500Y-106550000D02*
G75*
G03*
X131592500Y-106550000I-272500J0D01*
G01*
X155722500Y-105280000D02*
G75*
G03*
X155722500Y-105280000I-272500J0D01*
G01*
X117622500Y-111630000D02*
G75*
G03*
X117622500Y-111630000I-272500J0D01*
G01*
X140482500Y-110360000D02*
G75*
G03*
X140482500Y-110360000I-272500J0D01*
G01*
X122702500Y-111630000D02*
G75*
G03*
X122702500Y-111630000I-272500J0D01*
G01*
X110002500Y-111630000D02*
G75*
G03*
X110002500Y-111630000I-272500J0D01*
G01*
X158262500Y-105280000D02*
G75*
G03*
X158262500Y-105280000I-272500J0D01*
G01*
X149372500Y-110360000D02*
G75*
G03*
X149372500Y-110360000I-272500J0D01*
G01*
X123972500Y-106550000D02*
G75*
G03*
X123972500Y-106550000I-272500J0D01*
G01*
X127782500Y-110360000D02*
G75*
G03*
X127782500Y-110360000I-272500J0D01*
G01*
X155722500Y-106550000D02*
G75*
G03*
X155722500Y-106550000I-272500J0D01*
G01*
X121432500Y-106550000D02*
G75*
G03*
X121432500Y-106550000I-272500J0D01*
G01*
X143022500Y-111630000D02*
G75*
G03*
X143022500Y-111630000I-272500J0D01*
G01*
X120162500Y-111630000D02*
G75*
G03*
X120162500Y-111630000I-272500J0D01*
G01*
X146832500Y-106550000D02*
G75*
G03*
X146832500Y-106550000I-272500J0D01*
G01*
X118892500Y-110360000D02*
G75*
G03*
X118892500Y-110360000I-272500J0D01*
G01*
X151912500Y-111630000D02*
G75*
G03*
X151912500Y-111630000I-272500J0D01*
G01*
X110002500Y-106550000D02*
G75*
G03*
X110002500Y-106550000I-272500J0D01*
G01*
X137942500Y-106550000D02*
G75*
G03*
X137942500Y-106550000I-272500J0D01*
G01*
X125242500Y-111630000D02*
G75*
G03*
X125242500Y-111630000I-272500J0D01*
G01*
X122702500Y-110360000D02*
G75*
G03*
X122702500Y-110360000I-272500J0D01*
G01*
X155722500Y-111630000D02*
G75*
G03*
X155722500Y-111630000I-272500J0D01*
G01*
X130322500Y-111630000D02*
G75*
G03*
X130322500Y-111630000I-272500J0D01*
G01*
X130322500Y-110360000D02*
G75*
G03*
X130322500Y-110360000I-272500J0D01*
G01*
X116352500Y-105280000D02*
G75*
G03*
X116352500Y-105280000I-272500J0D01*
G01*
X150642500Y-105280000D02*
G75*
G03*
X150642500Y-105280000I-272500J0D01*
G01*
X136672500Y-110360000D02*
G75*
G03*
X136672500Y-110360000I-272500J0D01*
G01*
X141752500Y-110360000D02*
G75*
G03*
X141752500Y-110360000I-272500J0D01*
G01*
X123972500Y-105280000D02*
G75*
G03*
X123972500Y-105280000I-272500J0D01*
G01*
X110002500Y-105280000D02*
G75*
G03*
X110002500Y-105280000I-272500J0D01*
G01*
X144292500Y-106550000D02*
G75*
G03*
X144292500Y-106550000I-272500J0D01*
G01*
X117622500Y-105280000D02*
G75*
G03*
X117622500Y-105280000I-272500J0D01*
G01*
X146832500Y-110360000D02*
G75*
G03*
X146832500Y-110360000I-272500J0D01*
G01*
X153182500Y-106550000D02*
G75*
G03*
X153182500Y-106550000I-272500J0D01*
G01*
X134132500Y-111630000D02*
G75*
G03*
X134132500Y-111630000I-272500J0D01*
G01*
X113812500Y-110360000D02*
G75*
G03*
X113812500Y-110360000I-272500J0D01*
G01*
X140482500Y-106550000D02*
G75*
G03*
X140482500Y-106550000I-272500J0D01*
G01*
X144292500Y-110360000D02*
G75*
G03*
X144292500Y-110360000I-272500J0D01*
G01*
X159532500Y-105280000D02*
G75*
G03*
X159532500Y-105280000I-272500J0D01*
G01*
X149372500Y-111630000D02*
G75*
G03*
X149372500Y-111630000I-272500J0D01*
G01*
X115082500Y-106550000D02*
G75*
G03*
X115082500Y-106550000I-272500J0D01*
G01*
X153182500Y-111630000D02*
G75*
G03*
X153182500Y-111630000I-272500J0D01*
G01*
X115082500Y-105280000D02*
G75*
G03*
X115082500Y-105280000I-272500J0D01*
G01*
X156992500Y-111630000D02*
G75*
G03*
X156992500Y-111630000I-272500J0D01*
G01*
X145562500Y-105280000D02*
G75*
G03*
X145562500Y-105280000I-272500J0D01*
G01*
X121432500Y-111630000D02*
G75*
G03*
X121432500Y-111630000I-272500J0D01*
G01*
X131592500Y-111630000D02*
G75*
G03*
X131592500Y-111630000I-272500J0D01*
G01*
X118892500Y-105280000D02*
G75*
G03*
X118892500Y-105280000I-272500J0D01*
G01*
X150642500Y-110360000D02*
G75*
G03*
X150642500Y-110360000I-272500J0D01*
G01*
X137942500Y-110360000D02*
G75*
G03*
X137942500Y-110360000I-272500J0D01*
G01*
X143022500Y-110360000D02*
G75*
G03*
X143022500Y-110360000I-272500J0D01*
G01*
X111272500Y-111630000D02*
G75*
G03*
X111272500Y-111630000I-272500J0D01*
G01*
X139212500Y-110360000D02*
G75*
G03*
X139212500Y-110360000I-272500J0D01*
G01*
X126512500Y-106550000D02*
G75*
G03*
X126512500Y-106550000I-272500J0D01*
G01*
X111272500Y-110360000D02*
G75*
G03*
X111272500Y-110360000I-272500J0D01*
G01*
X139212500Y-105280000D02*
G75*
G03*
X139212500Y-105280000I-272500J0D01*
G01*
X140482500Y-111630000D02*
G75*
G03*
X140482500Y-111630000I-272500J0D01*
G01*
X144292500Y-105280000D02*
G75*
G03*
X144292500Y-105280000I-272500J0D01*
G01*
X151912500Y-105280000D02*
G75*
G03*
X151912500Y-105280000I-272500J0D01*
G01*
X131592500Y-105280000D02*
G75*
G03*
X131592500Y-105280000I-272500J0D01*
G01*
X153182500Y-105280000D02*
G75*
G03*
X153182500Y-105280000I-272500J0D01*
G01*
X110002500Y-110360000D02*
G75*
G03*
X110002500Y-110360000I-272500J0D01*
G01*
X112542500Y-110360000D02*
G75*
G03*
X112542500Y-110360000I-272500J0D01*
G01*
X150642500Y-106550000D02*
G75*
G03*
X150642500Y-106550000I-272500J0D01*
G01*
X117622500Y-110360000D02*
G75*
G03*
X117622500Y-110360000I-272500J0D01*
G01*
X127782500Y-105280000D02*
G75*
G03*
X127782500Y-105280000I-272500J0D01*
G01*
X137942500Y-111630000D02*
G75*
G03*
X137942500Y-111630000I-272500J0D01*
G01*
X113812500Y-106550000D02*
G75*
G03*
X113812500Y-106550000I-272500J0D01*
G01*
X132862500Y-111630000D02*
G75*
G03*
X132862500Y-111630000I-272500J0D01*
G01*
X120162500Y-105280000D02*
G75*
G03*
X120162500Y-105280000I-272500J0D01*
G01*
X135402500Y-110360000D02*
G75*
G03*
X135402500Y-110360000I-272500J0D01*
G01*
X112542500Y-105280000D02*
G75*
G03*
X112542500Y-105280000I-272500J0D01*
G01*
X136672500Y-105280000D02*
G75*
G03*
X136672500Y-105280000I-272500J0D01*
G01*
X125242500Y-106550000D02*
G75*
G03*
X125242500Y-106550000I-272500J0D01*
G01*
X155722500Y-110360000D02*
G75*
G03*
X155722500Y-110360000I-272500J0D01*
G01*
X132862500Y-106550000D02*
G75*
G03*
X132862500Y-106550000I-272500J0D01*
G01*
X158262500Y-110360000D02*
G75*
G03*
X158262500Y-110360000I-272500J0D01*
G01*
X139212500Y-111630000D02*
G75*
G03*
X139212500Y-111630000I-272500J0D01*
G01*
X115082500Y-111630000D02*
G75*
G03*
X115082500Y-111630000I-272500J0D01*
G01*
X131592500Y-110360000D02*
G75*
G03*
X131592500Y-110360000I-272500J0D01*
G01*
X136672500Y-111630000D02*
G75*
G03*
X136672500Y-111630000I-272500J0D01*
G01*
X149372500Y-105280000D02*
G75*
G03*
X149372500Y-105280000I-272500J0D01*
G01*
X159532500Y-110360000D02*
G75*
G03*
X159532500Y-110360000I-272500J0D01*
G01*
X129052500Y-106550000D02*
G75*
G03*
X129052500Y-106550000I-272500J0D01*
G01*
X151912500Y-106550000D02*
G75*
G03*
X151912500Y-106550000I-272500J0D01*
G01*
X134132500Y-106550000D02*
G75*
G03*
X134132500Y-106550000I-272500J0D01*
G01*
X118892500Y-106550000D02*
G75*
G03*
X118892500Y-106550000I-272500J0D01*
G01*
X129052500Y-110360000D02*
G75*
G03*
X129052500Y-110360000I-272500J0D01*
G01*
X116352500Y-110360000D02*
G75*
G03*
X116352500Y-110360000I-272500J0D01*
G01*
X126512500Y-105280000D02*
G75*
G03*
X126512500Y-105280000I-272500J0D01*
G01*
X123972500Y-110360000D02*
G75*
G03*
X123972500Y-110360000I-272500J0D01*
G01*
X116352500Y-106550000D02*
G75*
G03*
X116352500Y-106550000I-272500J0D01*
G01*
X136672500Y-106550000D02*
G75*
G03*
X136672500Y-106550000I-272500J0D01*
G01*
X154452500Y-111630000D02*
G75*
G03*
X154452500Y-111630000I-272500J0D01*
G01*
X145562500Y-106550000D02*
G75*
G03*
X145562500Y-106550000I-272500J0D01*
G01*
X141752500Y-105280000D02*
G75*
G03*
X141752500Y-105280000I-272500J0D01*
G01*
X122702500Y-106550000D02*
G75*
G03*
X122702500Y-106550000I-272500J0D01*
G01*
X122702500Y-105280000D02*
G75*
G03*
X122702500Y-105280000I-272500J0D01*
G01*
X150642500Y-111630000D02*
G75*
G03*
X150642500Y-111630000I-272500J0D01*
G01*
X130322500Y-105280000D02*
G75*
G03*
X130322500Y-105280000I-272500J0D01*
G01*
X159532500Y-111630000D02*
G75*
G03*
X159532500Y-111630000I-272500J0D01*
G01*
X145562500Y-111630000D02*
G75*
G03*
X145562500Y-111630000I-272500J0D01*
G01*
X145562500Y-110360000D02*
G75*
G03*
X145562500Y-110360000I-272500J0D01*
G01*
X120162500Y-106550000D02*
G75*
G03*
X120162500Y-106550000I-272500J0D01*
G01*
X126512500Y-110360000D02*
G75*
G03*
X126512500Y-110360000I-272500J0D01*
G01*
X156992500Y-105280000D02*
G75*
G03*
X156992500Y-105280000I-272500J0D01*
G01*
X141752500Y-111630000D02*
G75*
G03*
X141752500Y-111630000I-272500J0D01*
G01*
X117622500Y-106550000D02*
G75*
G03*
X117622500Y-106550000I-272500J0D01*
G01*
X141752500Y-106550000D02*
G75*
G03*
X141752500Y-106550000I-272500J0D01*
G01*
X159532500Y-106550000D02*
G75*
G03*
X159532500Y-106550000I-272500J0D01*
G01*
X120162500Y-110360000D02*
G75*
G03*
X120162500Y-110360000I-272500J0D01*
G01*
X129052500Y-105280000D02*
G75*
G03*
X129052500Y-105280000I-272500J0D01*
G01*
X132862500Y-105280000D02*
G75*
G03*
X132862500Y-105280000I-272500J0D01*
G01*
X139212500Y-106550000D02*
G75*
G03*
X139212500Y-106550000I-272500J0D01*
G01*
X127782500Y-106550000D02*
G75*
G03*
X127782500Y-106550000I-272500J0D01*
G01*
X132862500Y-110360000D02*
G75*
G03*
X132862500Y-110360000I-272500J0D01*
G01*
X137942500Y-105280000D02*
G75*
G03*
X137942500Y-105280000I-272500J0D01*
G01*
X111272500Y-105280000D02*
G75*
G03*
X111272500Y-105280000I-272500J0D01*
G01*
X121432500Y-105280000D02*
G75*
G03*
X121432500Y-105280000I-272500J0D01*
G01*
X121432500Y-110360000D02*
G75*
G03*
X121432500Y-110360000I-272500J0D01*
G01*
X112542500Y-106550000D02*
G75*
G03*
X112542500Y-106550000I-272500J0D01*
G01*
X148102500Y-105280000D02*
G75*
G03*
X148102500Y-105280000I-272500J0D01*
G01*
X126512500Y-111630000D02*
G75*
G03*
X126512500Y-111630000I-272500J0D01*
G01*
X148102500Y-106550000D02*
G75*
G03*
X148102500Y-106550000I-272500J0D01*
G01*
X134132500Y-110360000D02*
G75*
G03*
X134132500Y-110360000I-272500J0D01*
G01*
X148102500Y-111630000D02*
G75*
G03*
X148102500Y-111630000I-272500J0D01*
G01*
X156992500Y-106550000D02*
G75*
G03*
X156992500Y-106550000I-272500J0D01*
G01*
X130322500Y-106550000D02*
G75*
G03*
X130322500Y-106550000I-272500J0D01*
G01*
X144292500Y-111630000D02*
G75*
G03*
X144292500Y-111630000I-272500J0D01*
G01*
X118892500Y-111630000D02*
G75*
G03*
X118892500Y-111630000I-272500J0D01*
G01*
X153182500Y-110360000D02*
G75*
G03*
X153182500Y-110360000I-272500J0D01*
G01*
X140482500Y-105280000D02*
G75*
G03*
X140482500Y-105280000I-272500J0D01*
G01*
X143022500Y-106550000D02*
G75*
G03*
X143022500Y-106550000I-272500J0D01*
G01*
X151912500Y-110360000D02*
G75*
G03*
X151912500Y-110360000I-272500J0D01*
G01*
X146832500Y-111630000D02*
G75*
G03*
X146832500Y-111630000I-272500J0D01*
G01*
X156992500Y-110360000D02*
G75*
G03*
X156992500Y-110360000I-272500J0D01*
G01*
X112542500Y-111630000D02*
G75*
G03*
X112542500Y-111630000I-272500J0D01*
G01*
X116352500Y-111630000D02*
G75*
G03*
X116352500Y-111630000I-272500J0D01*
G01*
X158262500Y-106550000D02*
G75*
G03*
X158262500Y-106550000I-272500J0D01*
G01*
X134132500Y-105280000D02*
G75*
G03*
X134132500Y-105280000I-272500J0D01*
G01*
X123972500Y-111630000D02*
G75*
G03*
X123972500Y-111630000I-272500J0D01*
G01*
X135402500Y-105280000D02*
G75*
G03*
X135402500Y-105280000I-272500J0D01*
G01*
X135402500Y-106550000D02*
G75*
G03*
X135402500Y-106550000I-272500J0D01*
G01*
X129052500Y-111630000D02*
G75*
G03*
X129052500Y-111630000I-272500J0D01*
G01*
X154452500Y-110360000D02*
G75*
G03*
X154452500Y-110360000I-272500J0D01*
G01*
X135402500Y-111630000D02*
G75*
G03*
X135402500Y-111630000I-272500J0D01*
G01*
X146832500Y-105280000D02*
G75*
G03*
X146832500Y-105280000I-272500J0D01*
G01*
X158262500Y-111630000D02*
G75*
G03*
X158262500Y-111630000I-272500J0D01*
G01*
X115082500Y-110360000D02*
G75*
G03*
X115082500Y-110360000I-272500J0D01*
G01*
X154452500Y-106550000D02*
G75*
G03*
X154452500Y-106550000I-272500J0D01*
G01*
X154452500Y-105280000D02*
G75*
G03*
X154452500Y-105280000I-272500J0D01*
G01*
X111272500Y-106550000D02*
G75*
G03*
X111272500Y-106550000I-272500J0D01*
G01*
X113812500Y-105280000D02*
G75*
G03*
X113812500Y-105280000I-272500J0D01*
G01*
X125242500Y-110360000D02*
G75*
G03*
X125242500Y-110360000I-272500J0D01*
G01*
X113812500Y-111630000D02*
G75*
G03*
X113812500Y-111630000I-272500J0D01*
G01*
X149372500Y-106550000D02*
G75*
G03*
X149372500Y-106550000I-272500J0D01*
G01*
X143022500Y-105280000D02*
G75*
G03*
X143022500Y-105280000I-272500J0D01*
G01*
X127782500Y-111630000D02*
G75*
G03*
X127782500Y-111630000I-272500J0D01*
G01*
X148102500Y-110360000D02*
G75*
G03*
X148102500Y-110360000I-272500J0D01*
G01*
X125242500Y-105280000D02*
G75*
G03*
X125242500Y-105280000I-272500J0D01*
G01*
X131592500Y-106550000D02*
G75*
G03*
X131592500Y-106550000I-272500J0D01*
G01*
X155722500Y-105280000D02*
G75*
G03*
X155722500Y-105280000I-272500J0D01*
G01*
X117622500Y-111630000D02*
G75*
G03*
X117622500Y-111630000I-272500J0D01*
G01*
X140482500Y-110360000D02*
G75*
G03*
X140482500Y-110360000I-272500J0D01*
G01*
X122702500Y-111630000D02*
G75*
G03*
X122702500Y-111630000I-272500J0D01*
G01*
X110002500Y-111630000D02*
G75*
G03*
X110002500Y-111630000I-272500J0D01*
G01*
X158262500Y-105280000D02*
G75*
G03*
X158262500Y-105280000I-272500J0D01*
G01*
X149372500Y-110360000D02*
G75*
G03*
X149372500Y-110360000I-272500J0D01*
G01*
X123972500Y-106550000D02*
G75*
G03*
X123972500Y-106550000I-272500J0D01*
G01*
X127782500Y-110360000D02*
G75*
G03*
X127782500Y-110360000I-272500J0D01*
G01*
X155722500Y-106550000D02*
G75*
G03*
X155722500Y-106550000I-272500J0D01*
G01*
X121432500Y-106550000D02*
G75*
G03*
X121432500Y-106550000I-272500J0D01*
G01*
X143022500Y-111630000D02*
G75*
G03*
X143022500Y-111630000I-272500J0D01*
G01*
X120162500Y-111630000D02*
G75*
G03*
X120162500Y-111630000I-272500J0D01*
G01*
X146832500Y-106550000D02*
G75*
G03*
X146832500Y-106550000I-272500J0D01*
G01*
X118892500Y-110360000D02*
G75*
G03*
X118892500Y-110360000I-272500J0D01*
G01*
X151912500Y-111630000D02*
G75*
G03*
X151912500Y-111630000I-272500J0D01*
G01*
X110002500Y-106550000D02*
G75*
G03*
X110002500Y-106550000I-272500J0D01*
G01*
X137942500Y-106550000D02*
G75*
G03*
X137942500Y-106550000I-272500J0D01*
G01*
X125242500Y-111630000D02*
G75*
G03*
X125242500Y-111630000I-272500J0D01*
G01*
X122702500Y-110360000D02*
G75*
G03*
X122702500Y-110360000I-272500J0D01*
G01*
X155722500Y-111630000D02*
G75*
G03*
X155722500Y-111630000I-272500J0D01*
G01*
X130322500Y-111630000D02*
G75*
G03*
X130322500Y-111630000I-272500J0D01*
G01*
X130322500Y-110360000D02*
G75*
G03*
X130322500Y-110360000I-272500J0D01*
G01*
X116352500Y-105280000D02*
G75*
G03*
X116352500Y-105280000I-272500J0D01*
G01*
D11*
X161683000Y-108458000D03*
X107303000Y-111508000D03*
D12*
X165683000Y-110458000D03*
X103303000Y-110458000D03*
D13*
X106189000Y-167050000D03*
X120689000Y-167050000D03*
X105589000Y-171950000D03*
X121289000Y-171950000D03*
X147369000Y-167060000D03*
X161869000Y-167060000D03*
X146769000Y-171960000D03*
X162469000Y-171960000D03*
X126819000Y-167050000D03*
X141319000Y-167050000D03*
X126219000Y-171950000D03*
X141919000Y-171950000D03*
D14*
X123490000Y-124380000D03*
X123490000Y-125980000D03*
X144140000Y-124400000D03*
X144140000Y-126000000D03*
D11*
X161685000Y-105405000D03*
X107305000Y-108455000D03*
D15*
X140170000Y-127760000D03*
X139670000Y-127760000D03*
X139170000Y-127760000D03*
X138670000Y-127760000D03*
D16*
X137470000Y-126560000D03*
X137470000Y-126060000D03*
X137470000Y-125560000D03*
X137470000Y-125060000D03*
D15*
X138670000Y-123860000D03*
X139170000Y-123860000D03*
X139670000Y-123860000D03*
X140170000Y-123860000D03*
D16*
X141370000Y-125060000D03*
X141370000Y-125560000D03*
X141370000Y-126060000D03*
X141370000Y-126560000D03*
D17*
X139420000Y-125810000D03*
D15*
X159120000Y-128270000D03*
X158620000Y-128270000D03*
X158120000Y-128270000D03*
X157620000Y-128270000D03*
D16*
X156420000Y-127070000D03*
X156420000Y-126570000D03*
X156420000Y-126070000D03*
X156420000Y-125570000D03*
D15*
X157620000Y-124370000D03*
X158120000Y-124370000D03*
X158620000Y-124370000D03*
X159120000Y-124370000D03*
D16*
X160320000Y-125570000D03*
X160320000Y-126070000D03*
X160320000Y-126570000D03*
X160320000Y-127070000D03*
D17*
X158370000Y-126320000D03*
D15*
X119540000Y-127760000D03*
X119040000Y-127760000D03*
X118540000Y-127760000D03*
X118040000Y-127760000D03*
D16*
X116840000Y-126560000D03*
X116840000Y-126060000D03*
X116840000Y-125560000D03*
X116840000Y-125060000D03*
D15*
X118040000Y-123860000D03*
X118540000Y-123860000D03*
X119040000Y-123860000D03*
X119540000Y-123860000D03*
D16*
X120740000Y-125060000D03*
X120740000Y-125560000D03*
X120740000Y-126060000D03*
X120740000Y-126560000D03*
D17*
X118790000Y-125810000D03*
D14*
X163090000Y-124960000D03*
X163090000Y-126560000D03*
X162700000Y-158210000D03*
X162700000Y-159810000D03*
D18*
X142130000Y-152720000D03*
X143780000Y-152720000D03*
D19*
X111600000Y-155850000D03*
X111600000Y-154200000D03*
D20*
X114168000Y-155345000D03*
X114168000Y-154075000D03*
X114168000Y-152805000D03*
X114168000Y-151535000D03*
X119590000Y-151535000D03*
X119590000Y-152805000D03*
X119590000Y-154075000D03*
X119590000Y-155345000D03*
X153649000Y-155395000D03*
X153649000Y-154125000D03*
X153649000Y-152855000D03*
X153649000Y-151585000D03*
X159071000Y-151585000D03*
X159071000Y-152855000D03*
X159071000Y-154125000D03*
X159071000Y-155395000D03*
X134759000Y-155395000D03*
X134759000Y-154125000D03*
X134759000Y-152855000D03*
X134759000Y-151585000D03*
X140181000Y-151585000D03*
X140181000Y-152855000D03*
X140181000Y-154125000D03*
X140181000Y-155395000D03*
D18*
X161080000Y-152720000D03*
X162730000Y-152720000D03*
X121460000Y-152650000D03*
X123110000Y-152650000D03*
D21*
X143760000Y-154270000D03*
X142110000Y-154270000D03*
D19*
X132350000Y-155870000D03*
X132350000Y-154220000D03*
D14*
X123230000Y-158230000D03*
X123230000Y-159830000D03*
D19*
X132330000Y-152830000D03*
X132330000Y-151180000D03*
X151150000Y-155870000D03*
X151150000Y-154220000D03*
D14*
X143800000Y-158210000D03*
X143800000Y-159810000D03*
D19*
X151160000Y-152830000D03*
X151160000Y-151180000D03*
X111590000Y-152745000D03*
X111590000Y-151095000D03*
D21*
X162710000Y-154270000D03*
X161060000Y-154270000D03*
X123105000Y-154190000D03*
X121455000Y-154190000D03*
G36*
X157934632Y-127808518D02*
G01*
X157935196Y-127810437D01*
X157934915Y-127811076D01*
X157924767Y-127826262D01*
X157921000Y-127845199D01*
X157921000Y-128694801D01*
X157924767Y-128713738D01*
X157934814Y-128728773D01*
X157934945Y-128730768D01*
X157933282Y-128731880D01*
X157932553Y-128731793D01*
X157872212Y-128712898D01*
X157807310Y-128731955D01*
X157805367Y-128731483D01*
X157804803Y-128729564D01*
X157805084Y-128728925D01*
X157815233Y-128713737D01*
X157819000Y-128694801D01*
X157819000Y-127845199D01*
X157815233Y-127826262D01*
X157805187Y-127811228D01*
X157805056Y-127809232D01*
X157806719Y-127808121D01*
X157807448Y-127808208D01*
X157867788Y-127827102D01*
X157932689Y-127808046D01*
X157934632Y-127808518D01*
G37*
G36*
X158934633Y-127808516D02*
G01*
X158935197Y-127810435D01*
X158934916Y-127811074D01*
X158924767Y-127826262D01*
X158921000Y-127845199D01*
X158921000Y-128694801D01*
X158924767Y-128713738D01*
X158934814Y-128728773D01*
X158934945Y-128730768D01*
X158933282Y-128731880D01*
X158932553Y-128731793D01*
X158872212Y-128712898D01*
X158807310Y-128731955D01*
X158805367Y-128731483D01*
X158804803Y-128729564D01*
X158805084Y-128728925D01*
X158815233Y-128713737D01*
X158819000Y-128694801D01*
X158819000Y-127845199D01*
X158815233Y-127826262D01*
X158805186Y-127811227D01*
X158805055Y-127809232D01*
X158806718Y-127808120D01*
X158807447Y-127808207D01*
X158867786Y-127827102D01*
X158932690Y-127808044D01*
X158934633Y-127808516D01*
G37*
G36*
X158434633Y-127808515D02*
G01*
X158435197Y-127810434D01*
X158434916Y-127811074D01*
X158424767Y-127826262D01*
X158421000Y-127845199D01*
X158421000Y-128694801D01*
X158424767Y-128713738D01*
X158434814Y-128728773D01*
X158434945Y-128730768D01*
X158433282Y-128731880D01*
X158432553Y-128731793D01*
X158372212Y-128712898D01*
X158307310Y-128731955D01*
X158305367Y-128731483D01*
X158304803Y-128729564D01*
X158305084Y-128728925D01*
X158315233Y-128713737D01*
X158319000Y-128694801D01*
X158319000Y-127845199D01*
X158315233Y-127826262D01*
X158305188Y-127811229D01*
X158305057Y-127809233D01*
X158306720Y-127808122D01*
X158307449Y-127808209D01*
X158367792Y-127827102D01*
X158432689Y-127808044D01*
X158434633Y-127808515D01*
G37*
G36*
X118854633Y-127298515D02*
G01*
X118855197Y-127300434D01*
X118854916Y-127301074D01*
X118844767Y-127316262D01*
X118841000Y-127335199D01*
X118841000Y-128184801D01*
X118844767Y-128203738D01*
X118854814Y-128218773D01*
X118854945Y-128220768D01*
X118853282Y-128221880D01*
X118852553Y-128221793D01*
X118792212Y-128202898D01*
X118727310Y-128221955D01*
X118725367Y-128221483D01*
X118724803Y-128219564D01*
X118725084Y-128218925D01*
X118735233Y-128203737D01*
X118739000Y-128184801D01*
X118739000Y-127335199D01*
X118735233Y-127316262D01*
X118725188Y-127301229D01*
X118725057Y-127299233D01*
X118726720Y-127298122D01*
X118727449Y-127298209D01*
X118787792Y-127317102D01*
X118852689Y-127298044D01*
X118854633Y-127298515D01*
G37*
G36*
X119354633Y-127298516D02*
G01*
X119355197Y-127300435D01*
X119354916Y-127301074D01*
X119344767Y-127316262D01*
X119341000Y-127335199D01*
X119341000Y-128184801D01*
X119344767Y-128203738D01*
X119354814Y-128218773D01*
X119354945Y-128220768D01*
X119353282Y-128221880D01*
X119352553Y-128221793D01*
X119292212Y-128202898D01*
X119227310Y-128221955D01*
X119225367Y-128221483D01*
X119224803Y-128219564D01*
X119225084Y-128218925D01*
X119235233Y-128203737D01*
X119239000Y-128184801D01*
X119239000Y-127335199D01*
X119235233Y-127316262D01*
X119225186Y-127301227D01*
X119225055Y-127299232D01*
X119226718Y-127298120D01*
X119227447Y-127298207D01*
X119287786Y-127317102D01*
X119352690Y-127298044D01*
X119354633Y-127298516D01*
G37*
G36*
X139984633Y-127298516D02*
G01*
X139985197Y-127300435D01*
X139984916Y-127301074D01*
X139974767Y-127316262D01*
X139971000Y-127335199D01*
X139971000Y-128184801D01*
X139974767Y-128203738D01*
X139984814Y-128218773D01*
X139984945Y-128220768D01*
X139983282Y-128221880D01*
X139982553Y-128221793D01*
X139922212Y-128202898D01*
X139857310Y-128221955D01*
X139855367Y-128221483D01*
X139854803Y-128219564D01*
X139855084Y-128218925D01*
X139865233Y-128203737D01*
X139869000Y-128184801D01*
X139869000Y-127335199D01*
X139865233Y-127316262D01*
X139855186Y-127301227D01*
X139855055Y-127299232D01*
X139856718Y-127298120D01*
X139857447Y-127298207D01*
X139917786Y-127317102D01*
X139982690Y-127298044D01*
X139984633Y-127298516D01*
G37*
G36*
X118354632Y-127298518D02*
G01*
X118355196Y-127300437D01*
X118354915Y-127301076D01*
X118344767Y-127316262D01*
X118341000Y-127335199D01*
X118341000Y-128184801D01*
X118344767Y-128203738D01*
X118354814Y-128218773D01*
X118354945Y-128220768D01*
X118353282Y-128221880D01*
X118352553Y-128221793D01*
X118292212Y-128202898D01*
X118227310Y-128221955D01*
X118225367Y-128221483D01*
X118224803Y-128219564D01*
X118225084Y-128218925D01*
X118235233Y-128203737D01*
X118239000Y-128184801D01*
X118239000Y-127335199D01*
X118235233Y-127316262D01*
X118225187Y-127301228D01*
X118225056Y-127299232D01*
X118226719Y-127298121D01*
X118227448Y-127298208D01*
X118287788Y-127317102D01*
X118352689Y-127298046D01*
X118354632Y-127298518D01*
G37*
G36*
X138984632Y-127298518D02*
G01*
X138985196Y-127300437D01*
X138984915Y-127301076D01*
X138974767Y-127316262D01*
X138971000Y-127335199D01*
X138971000Y-128184801D01*
X138974767Y-128203738D01*
X138984814Y-128218773D01*
X138984945Y-128220768D01*
X138983282Y-128221880D01*
X138982553Y-128221793D01*
X138922212Y-128202898D01*
X138857310Y-128221955D01*
X138855367Y-128221483D01*
X138854803Y-128219564D01*
X138855084Y-128218925D01*
X138865233Y-128203737D01*
X138869000Y-128184801D01*
X138869000Y-127335199D01*
X138865233Y-127316262D01*
X138855187Y-127301228D01*
X138855056Y-127299232D01*
X138856719Y-127298121D01*
X138857448Y-127298208D01*
X138917788Y-127317102D01*
X138982689Y-127298046D01*
X138984632Y-127298518D01*
G37*
G36*
X139484633Y-127298515D02*
G01*
X139485197Y-127300434D01*
X139484916Y-127301074D01*
X139474767Y-127316262D01*
X139471000Y-127335199D01*
X139471000Y-128184801D01*
X139474767Y-128203738D01*
X139484814Y-128218773D01*
X139484945Y-128220768D01*
X139483282Y-128221880D01*
X139482553Y-128221793D01*
X139422212Y-128202898D01*
X139357310Y-128221955D01*
X139355367Y-128221483D01*
X139354803Y-128219564D01*
X139355084Y-128218925D01*
X139365233Y-128203737D01*
X139369000Y-128184801D01*
X139369000Y-127335199D01*
X139365233Y-127316262D01*
X139355188Y-127301229D01*
X139355057Y-127299233D01*
X139356720Y-127298122D01*
X139357449Y-127298209D01*
X139417792Y-127317102D01*
X139482689Y-127298044D01*
X139484633Y-127298515D01*
G37*
G36*
X158859435Y-127570000D02*
G01*
X158859435Y-127572000D01*
X158858266Y-127572919D01*
X158791254Y-127592595D01*
X158745899Y-127644938D01*
X158736042Y-127713491D01*
X158764880Y-127776636D01*
X158786219Y-127795463D01*
X158786856Y-127797359D01*
X158785533Y-127798859D01*
X158784506Y-127798925D01*
X158769801Y-127796000D01*
X158470199Y-127796000D01*
X158454435Y-127799136D01*
X158452541Y-127798493D01*
X158452151Y-127796531D01*
X158452510Y-127795892D01*
X158494996Y-127745052D01*
X158503626Y-127676334D01*
X158473734Y-127613860D01*
X158414671Y-127577377D01*
X158382029Y-127572982D01*
X158380446Y-127571760D01*
X158380713Y-127569778D01*
X158382296Y-127569000D01*
X158857703Y-127569000D01*
X158859435Y-127570000D01*
G37*
G36*
X159359435Y-127570000D02*
G01*
X159359435Y-127572000D01*
X159358266Y-127572919D01*
X159291254Y-127592595D01*
X159245899Y-127644938D01*
X159236042Y-127713491D01*
X159264880Y-127776636D01*
X159286219Y-127795463D01*
X159286856Y-127797359D01*
X159285533Y-127798859D01*
X159284506Y-127798925D01*
X159269801Y-127796000D01*
X158970199Y-127796000D01*
X158954435Y-127799136D01*
X158952541Y-127798493D01*
X158952151Y-127796531D01*
X158952510Y-127795892D01*
X158994996Y-127745052D01*
X159003626Y-127676334D01*
X158973734Y-127613860D01*
X158914671Y-127577377D01*
X158882034Y-127572982D01*
X158880451Y-127571760D01*
X158880718Y-127569778D01*
X158882301Y-127569000D01*
X159357703Y-127569000D01*
X159359435Y-127570000D01*
G37*
G36*
X158359433Y-127570000D02*
G01*
X158359433Y-127572000D01*
X158358265Y-127572919D01*
X158291250Y-127592599D01*
X158245897Y-127644943D01*
X158236043Y-127713497D01*
X158264883Y-127776641D01*
X158286219Y-127795463D01*
X158286856Y-127797359D01*
X158285533Y-127798859D01*
X158284506Y-127798925D01*
X158269801Y-127796000D01*
X157970199Y-127796000D01*
X157954434Y-127799136D01*
X157952540Y-127798493D01*
X157952150Y-127796531D01*
X157952509Y-127795891D01*
X157994994Y-127745053D01*
X158003625Y-127676338D01*
X157973734Y-127613863D01*
X157914672Y-127577379D01*
X157882160Y-127573000D01*
X157857994Y-127573000D01*
X157791255Y-127592596D01*
X157745900Y-127644939D01*
X157736043Y-127713492D01*
X157764881Y-127776637D01*
X157786219Y-127795463D01*
X157786856Y-127797359D01*
X157785533Y-127798859D01*
X157784506Y-127798925D01*
X157769801Y-127796000D01*
X157470199Y-127796000D01*
X157454434Y-127799136D01*
X157452540Y-127798493D01*
X157452150Y-127796531D01*
X157452509Y-127795891D01*
X157494994Y-127745053D01*
X157503625Y-127676338D01*
X157473735Y-127613863D01*
X157414673Y-127577379D01*
X157382026Y-127572982D01*
X157380443Y-127571760D01*
X157380710Y-127569778D01*
X157382293Y-127569000D01*
X158357701Y-127569000D01*
X158359433Y-127570000D01*
G37*
G36*
X159622919Y-126831731D02*
G01*
X159642596Y-126898745D01*
X159694939Y-126944100D01*
X159763492Y-126953957D01*
X159826637Y-126925119D01*
X159845463Y-126903781D01*
X159847359Y-126903144D01*
X159848859Y-126904467D01*
X159848925Y-126905494D01*
X159846000Y-126920199D01*
X159846000Y-127219801D01*
X159849136Y-127235566D01*
X159848493Y-127237460D01*
X159846531Y-127237850D01*
X159845891Y-127237491D01*
X159795053Y-127195006D01*
X159726338Y-127186375D01*
X159663863Y-127216265D01*
X159627379Y-127275327D01*
X159622982Y-127307973D01*
X159621760Y-127309556D01*
X159619778Y-127309289D01*
X159619000Y-127307706D01*
X159619000Y-126832294D01*
X159620000Y-126830562D01*
X159622000Y-126830562D01*
X159622919Y-126831731D01*
G37*
G36*
X157120222Y-126830718D02*
G01*
X157121000Y-126832301D01*
X157121000Y-127307703D01*
X157120000Y-127309435D01*
X157118000Y-127309435D01*
X157117081Y-127308266D01*
X157097405Y-127241254D01*
X157045062Y-127195899D01*
X156976509Y-127186042D01*
X156913364Y-127214880D01*
X156894537Y-127236219D01*
X156892641Y-127236856D01*
X156891141Y-127235533D01*
X156891075Y-127234506D01*
X156894000Y-127219801D01*
X156894000Y-126920199D01*
X156890864Y-126904435D01*
X156891507Y-126902541D01*
X156893469Y-126902151D01*
X156894108Y-126902510D01*
X156944948Y-126944996D01*
X157013666Y-126953626D01*
X157076140Y-126923734D01*
X157112623Y-126864671D01*
X157117018Y-126832034D01*
X157118240Y-126830451D01*
X157120222Y-126830718D01*
G37*
G36*
X140409435Y-127060000D02*
G01*
X140409435Y-127062000D01*
X140408266Y-127062919D01*
X140341254Y-127082595D01*
X140295899Y-127134938D01*
X140286042Y-127203491D01*
X140314880Y-127266636D01*
X140336219Y-127285463D01*
X140336856Y-127287359D01*
X140335533Y-127288859D01*
X140334506Y-127288925D01*
X140319801Y-127286000D01*
X140020199Y-127286000D01*
X140004435Y-127289136D01*
X140002541Y-127288493D01*
X140002151Y-127286531D01*
X140002510Y-127285892D01*
X140044996Y-127235052D01*
X140053626Y-127166334D01*
X140023734Y-127103860D01*
X139964671Y-127067377D01*
X139932034Y-127062982D01*
X139930451Y-127061760D01*
X139930718Y-127059778D01*
X139932301Y-127059000D01*
X140407703Y-127059000D01*
X140409435Y-127060000D01*
G37*
G36*
X139409433Y-127060000D02*
G01*
X139409433Y-127062000D01*
X139408265Y-127062919D01*
X139341250Y-127082599D01*
X139295897Y-127134943D01*
X139286043Y-127203497D01*
X139314883Y-127266641D01*
X139336219Y-127285463D01*
X139336856Y-127287359D01*
X139335533Y-127288859D01*
X139334506Y-127288925D01*
X139319801Y-127286000D01*
X139020199Y-127286000D01*
X139004434Y-127289136D01*
X139002540Y-127288493D01*
X139002150Y-127286531D01*
X139002509Y-127285891D01*
X139044994Y-127235053D01*
X139053625Y-127166338D01*
X139023734Y-127103863D01*
X138964672Y-127067379D01*
X138932160Y-127063000D01*
X138907994Y-127063000D01*
X138841255Y-127082596D01*
X138795900Y-127134939D01*
X138786043Y-127203492D01*
X138814881Y-127266637D01*
X138836219Y-127285463D01*
X138836856Y-127287359D01*
X138835533Y-127288859D01*
X138834506Y-127288925D01*
X138819801Y-127286000D01*
X138520199Y-127286000D01*
X138504434Y-127289136D01*
X138502540Y-127288493D01*
X138502150Y-127286531D01*
X138502509Y-127285891D01*
X138544994Y-127235053D01*
X138553625Y-127166338D01*
X138523735Y-127103863D01*
X138464673Y-127067379D01*
X138432026Y-127062982D01*
X138430443Y-127061760D01*
X138430710Y-127059778D01*
X138432293Y-127059000D01*
X139407701Y-127059000D01*
X139409433Y-127060000D01*
G37*
G36*
X119779435Y-127060000D02*
G01*
X119779435Y-127062000D01*
X119778266Y-127062919D01*
X119711254Y-127082595D01*
X119665899Y-127134938D01*
X119656042Y-127203491D01*
X119684880Y-127266636D01*
X119706219Y-127285463D01*
X119706856Y-127287359D01*
X119705533Y-127288859D01*
X119704506Y-127288925D01*
X119689801Y-127286000D01*
X119390199Y-127286000D01*
X119374435Y-127289136D01*
X119372541Y-127288493D01*
X119372151Y-127286531D01*
X119372510Y-127285892D01*
X119414996Y-127235052D01*
X119423626Y-127166334D01*
X119393734Y-127103860D01*
X119334671Y-127067377D01*
X119302034Y-127062982D01*
X119300451Y-127061760D01*
X119300718Y-127059778D01*
X119302301Y-127059000D01*
X119777703Y-127059000D01*
X119779435Y-127060000D01*
G37*
G36*
X139909435Y-127060000D02*
G01*
X139909435Y-127062000D01*
X139908266Y-127062919D01*
X139841254Y-127082595D01*
X139795899Y-127134938D01*
X139786042Y-127203491D01*
X139814880Y-127266636D01*
X139836219Y-127285463D01*
X139836856Y-127287359D01*
X139835533Y-127288859D01*
X139834506Y-127288925D01*
X139819801Y-127286000D01*
X139520199Y-127286000D01*
X139504435Y-127289136D01*
X139502541Y-127288493D01*
X139502151Y-127286531D01*
X139502510Y-127285892D01*
X139544996Y-127235052D01*
X139553626Y-127166334D01*
X139523734Y-127103860D01*
X139464671Y-127067377D01*
X139432029Y-127062982D01*
X139430446Y-127061760D01*
X139430713Y-127059778D01*
X139432296Y-127059000D01*
X139907703Y-127059000D01*
X139909435Y-127060000D01*
G37*
G36*
X119279435Y-127060000D02*
G01*
X119279435Y-127062000D01*
X119278266Y-127062919D01*
X119211254Y-127082595D01*
X119165899Y-127134938D01*
X119156042Y-127203491D01*
X119184880Y-127266636D01*
X119206219Y-127285463D01*
X119206856Y-127287359D01*
X119205533Y-127288859D01*
X119204506Y-127288925D01*
X119189801Y-127286000D01*
X118890199Y-127286000D01*
X118874435Y-127289136D01*
X118872541Y-127288493D01*
X118872151Y-127286531D01*
X118872510Y-127285892D01*
X118914996Y-127235052D01*
X118923626Y-127166334D01*
X118893734Y-127103860D01*
X118834671Y-127067377D01*
X118802029Y-127062982D01*
X118800446Y-127061760D01*
X118800713Y-127059778D01*
X118802296Y-127059000D01*
X119277703Y-127059000D01*
X119279435Y-127060000D01*
G37*
G36*
X118779433Y-127060000D02*
G01*
X118779433Y-127062000D01*
X118778265Y-127062919D01*
X118711250Y-127082599D01*
X118665897Y-127134943D01*
X118656043Y-127203497D01*
X118684883Y-127266641D01*
X118706219Y-127285463D01*
X118706856Y-127287359D01*
X118705533Y-127288859D01*
X118704506Y-127288925D01*
X118689801Y-127286000D01*
X118390199Y-127286000D01*
X118374434Y-127289136D01*
X118372540Y-127288493D01*
X118372150Y-127286531D01*
X118372509Y-127285891D01*
X118414994Y-127235053D01*
X118423625Y-127166338D01*
X118393734Y-127103863D01*
X118334672Y-127067379D01*
X118302160Y-127063000D01*
X118277994Y-127063000D01*
X118211255Y-127082596D01*
X118165900Y-127134939D01*
X118156043Y-127203492D01*
X118184881Y-127266637D01*
X118206219Y-127285463D01*
X118206856Y-127287359D01*
X118205533Y-127288859D01*
X118204506Y-127288925D01*
X118189801Y-127286000D01*
X117890199Y-127286000D01*
X117874434Y-127289136D01*
X117872540Y-127288493D01*
X117872150Y-127286531D01*
X117872509Y-127285891D01*
X117914994Y-127235053D01*
X117923625Y-127166338D01*
X117893735Y-127103863D01*
X117834673Y-127067379D01*
X117802026Y-127062982D01*
X117800443Y-127061760D01*
X117800710Y-127059778D01*
X117802293Y-127059000D01*
X118777701Y-127059000D01*
X118779433Y-127060000D01*
G37*
G36*
X155961075Y-126755084D02*
G01*
X155976263Y-126765233D01*
X155995199Y-126769000D01*
X156844801Y-126769000D01*
X156863738Y-126765233D01*
X156878773Y-126755186D01*
X156880768Y-126755055D01*
X156881880Y-126756718D01*
X156881793Y-126757447D01*
X156862898Y-126817786D01*
X156881956Y-126882690D01*
X156881484Y-126884633D01*
X156879565Y-126885197D01*
X156878926Y-126884916D01*
X156863738Y-126874767D01*
X156844801Y-126871000D01*
X155995199Y-126871000D01*
X155976262Y-126874767D01*
X155961227Y-126884814D01*
X155959232Y-126884945D01*
X155958120Y-126883282D01*
X155958207Y-126882553D01*
X155977102Y-126822212D01*
X155958045Y-126757310D01*
X155958517Y-126755367D01*
X155960436Y-126754803D01*
X155961075Y-126755084D01*
G37*
G36*
X159861076Y-126755085D02*
G01*
X159876262Y-126765233D01*
X159895199Y-126769000D01*
X160744801Y-126769000D01*
X160763738Y-126765233D01*
X160778773Y-126755186D01*
X160780768Y-126755055D01*
X160781880Y-126756718D01*
X160781793Y-126757447D01*
X160762898Y-126817788D01*
X160781955Y-126882690D01*
X160781483Y-126884633D01*
X160779564Y-126885197D01*
X160778925Y-126884916D01*
X160763737Y-126874767D01*
X160744801Y-126871000D01*
X159895199Y-126871000D01*
X159876262Y-126874767D01*
X159861228Y-126884813D01*
X159859232Y-126884944D01*
X159858121Y-126883281D01*
X159858208Y-126882552D01*
X159877102Y-126822212D01*
X159858046Y-126757311D01*
X159858518Y-126755368D01*
X159860437Y-126754804D01*
X159861076Y-126755085D01*
G37*
G36*
X159622919Y-126331735D02*
G01*
X159642599Y-126398750D01*
X159694943Y-126444103D01*
X159763497Y-126453957D01*
X159826641Y-126425117D01*
X159845463Y-126403781D01*
X159847359Y-126403144D01*
X159848859Y-126404467D01*
X159848925Y-126405494D01*
X159846000Y-126420199D01*
X159846000Y-126719801D01*
X159849136Y-126735566D01*
X159848493Y-126737460D01*
X159846531Y-126737850D01*
X159845891Y-126737491D01*
X159795053Y-126695006D01*
X159726338Y-126686375D01*
X159663863Y-126716266D01*
X159627379Y-126775328D01*
X159622982Y-126807973D01*
X159621760Y-126809556D01*
X159619778Y-126809289D01*
X159619000Y-126807706D01*
X159619000Y-126332299D01*
X159620000Y-126330567D01*
X159622000Y-126330567D01*
X159622919Y-126331735D01*
G37*
G36*
X157120222Y-126330716D02*
G01*
X157121000Y-126332299D01*
X157121000Y-126807703D01*
X157120000Y-126809435D01*
X157118000Y-126809435D01*
X157117081Y-126808266D01*
X157097405Y-126741254D01*
X157045062Y-126695899D01*
X156976509Y-126686042D01*
X156913364Y-126714880D01*
X156894537Y-126736219D01*
X156892641Y-126736856D01*
X156891141Y-126735533D01*
X156891075Y-126734506D01*
X156894000Y-126719801D01*
X156894000Y-126420199D01*
X156890864Y-126404435D01*
X156891507Y-126402541D01*
X156893469Y-126402151D01*
X156894108Y-126402510D01*
X156944948Y-126444996D01*
X157013666Y-126453626D01*
X157076140Y-126423734D01*
X157112623Y-126364671D01*
X157117018Y-126332032D01*
X157118240Y-126330449D01*
X157120222Y-126330716D01*
G37*
G36*
X140672919Y-126321731D02*
G01*
X140692596Y-126388745D01*
X140744939Y-126434100D01*
X140813492Y-126443957D01*
X140876637Y-126415119D01*
X140895463Y-126393781D01*
X140897359Y-126393144D01*
X140898859Y-126394467D01*
X140898925Y-126395494D01*
X140896000Y-126410199D01*
X140896000Y-126709801D01*
X140899136Y-126725566D01*
X140898493Y-126727460D01*
X140896531Y-126727850D01*
X140895891Y-126727491D01*
X140845053Y-126685006D01*
X140776338Y-126676375D01*
X140713863Y-126706265D01*
X140677379Y-126765327D01*
X140672982Y-126797973D01*
X140671760Y-126799556D01*
X140669778Y-126799289D01*
X140669000Y-126797706D01*
X140669000Y-126322294D01*
X140670000Y-126320562D01*
X140672000Y-126320562D01*
X140672919Y-126321731D01*
G37*
G36*
X120042919Y-126321731D02*
G01*
X120062596Y-126388745D01*
X120114939Y-126434100D01*
X120183492Y-126443957D01*
X120246637Y-126415119D01*
X120265463Y-126393781D01*
X120267359Y-126393144D01*
X120268859Y-126394467D01*
X120268925Y-126395494D01*
X120266000Y-126410199D01*
X120266000Y-126709801D01*
X120269136Y-126725566D01*
X120268493Y-126727460D01*
X120266531Y-126727850D01*
X120265891Y-126727491D01*
X120215053Y-126685006D01*
X120146338Y-126676375D01*
X120083863Y-126706265D01*
X120047379Y-126765327D01*
X120042982Y-126797973D01*
X120041760Y-126799556D01*
X120039778Y-126799289D01*
X120039000Y-126797706D01*
X120039000Y-126322294D01*
X120040000Y-126320562D01*
X120042000Y-126320562D01*
X120042919Y-126321731D01*
G37*
G36*
X117540222Y-126320718D02*
G01*
X117541000Y-126322301D01*
X117541000Y-126797703D01*
X117540000Y-126799435D01*
X117538000Y-126799435D01*
X117537081Y-126798266D01*
X117517405Y-126731254D01*
X117465062Y-126685899D01*
X117396509Y-126676042D01*
X117333364Y-126704880D01*
X117314537Y-126726219D01*
X117312641Y-126726856D01*
X117311141Y-126725533D01*
X117311075Y-126724506D01*
X117314000Y-126709801D01*
X117314000Y-126410199D01*
X117310864Y-126394435D01*
X117311507Y-126392541D01*
X117313469Y-126392151D01*
X117314108Y-126392510D01*
X117364948Y-126434996D01*
X117433666Y-126443626D01*
X117496140Y-126413734D01*
X117532623Y-126354671D01*
X117537018Y-126322034D01*
X117538240Y-126320451D01*
X117540222Y-126320718D01*
G37*
G36*
X138170222Y-126320718D02*
G01*
X138171000Y-126322301D01*
X138171000Y-126797703D01*
X138170000Y-126799435D01*
X138168000Y-126799435D01*
X138167081Y-126798266D01*
X138147405Y-126731254D01*
X138095062Y-126685899D01*
X138026509Y-126676042D01*
X137963364Y-126704880D01*
X137944537Y-126726219D01*
X137942641Y-126726856D01*
X137941141Y-126725533D01*
X137941075Y-126724506D01*
X137944000Y-126709801D01*
X137944000Y-126410199D01*
X137940864Y-126394435D01*
X137941507Y-126392541D01*
X137943469Y-126392151D01*
X137944108Y-126392510D01*
X137994948Y-126434996D01*
X138063666Y-126443626D01*
X138126140Y-126413734D01*
X138162623Y-126354671D01*
X138167018Y-126322034D01*
X138168240Y-126320451D01*
X138170222Y-126320718D01*
G37*
G36*
X155961075Y-126255084D02*
G01*
X155976263Y-126265233D01*
X155995199Y-126269000D01*
X156844801Y-126269000D01*
X156863738Y-126265233D01*
X156878771Y-126255188D01*
X156880767Y-126255057D01*
X156881878Y-126256720D01*
X156881791Y-126257449D01*
X156862898Y-126317792D01*
X156881956Y-126382689D01*
X156881485Y-126384633D01*
X156879566Y-126385197D01*
X156878926Y-126384916D01*
X156863738Y-126374767D01*
X156844801Y-126371000D01*
X155995199Y-126371000D01*
X155976262Y-126374767D01*
X155961227Y-126384814D01*
X155959232Y-126384945D01*
X155958120Y-126383282D01*
X155958207Y-126382553D01*
X155977102Y-126322212D01*
X155958045Y-126257310D01*
X155958517Y-126255367D01*
X155960436Y-126254803D01*
X155961075Y-126255084D01*
G37*
G36*
X159861074Y-126255084D02*
G01*
X159876262Y-126265233D01*
X159895199Y-126269000D01*
X160744801Y-126269000D01*
X160763738Y-126265233D01*
X160778773Y-126255186D01*
X160780768Y-126255055D01*
X160781880Y-126256718D01*
X160781793Y-126257447D01*
X160762898Y-126317788D01*
X160781955Y-126382690D01*
X160781483Y-126384633D01*
X160779564Y-126385197D01*
X160778925Y-126384916D01*
X160763737Y-126374767D01*
X160744801Y-126371000D01*
X159895199Y-126371000D01*
X159876262Y-126374767D01*
X159861229Y-126384812D01*
X159859233Y-126384943D01*
X159858122Y-126383280D01*
X159858209Y-126382551D01*
X159877102Y-126322208D01*
X159858044Y-126257311D01*
X159858515Y-126255367D01*
X159860434Y-126254803D01*
X159861074Y-126255084D01*
G37*
G36*
X116381075Y-126245084D02*
G01*
X116396263Y-126255233D01*
X116415199Y-126259000D01*
X117264801Y-126259000D01*
X117283738Y-126255233D01*
X117298773Y-126245186D01*
X117300768Y-126245055D01*
X117301880Y-126246718D01*
X117301793Y-126247447D01*
X117282898Y-126307786D01*
X117301956Y-126372690D01*
X117301484Y-126374633D01*
X117299565Y-126375197D01*
X117298926Y-126374916D01*
X117283738Y-126364767D01*
X117264801Y-126361000D01*
X116415199Y-126361000D01*
X116396262Y-126364767D01*
X116381227Y-126374814D01*
X116379232Y-126374945D01*
X116378120Y-126373282D01*
X116378207Y-126372553D01*
X116397102Y-126312212D01*
X116378045Y-126247310D01*
X116378517Y-126245367D01*
X116380436Y-126244803D01*
X116381075Y-126245084D01*
G37*
G36*
X140911076Y-126245085D02*
G01*
X140926262Y-126255233D01*
X140945199Y-126259000D01*
X141794801Y-126259000D01*
X141813738Y-126255233D01*
X141828773Y-126245186D01*
X141830768Y-126245055D01*
X141831880Y-126246718D01*
X141831793Y-126247447D01*
X141812898Y-126307788D01*
X141831955Y-126372690D01*
X141831483Y-126374633D01*
X141829564Y-126375197D01*
X141828925Y-126374916D01*
X141813737Y-126364767D01*
X141794801Y-126361000D01*
X140945199Y-126361000D01*
X140926262Y-126364767D01*
X140911228Y-126374813D01*
X140909232Y-126374944D01*
X140908121Y-126373281D01*
X140908208Y-126372552D01*
X140927102Y-126312212D01*
X140908046Y-126247311D01*
X140908518Y-126245368D01*
X140910437Y-126244804D01*
X140911076Y-126245085D01*
G37*
G36*
X137011075Y-126245084D02*
G01*
X137026263Y-126255233D01*
X137045199Y-126259000D01*
X137894801Y-126259000D01*
X137913738Y-126255233D01*
X137928773Y-126245186D01*
X137930768Y-126245055D01*
X137931880Y-126246718D01*
X137931793Y-126247447D01*
X137912898Y-126307786D01*
X137931956Y-126372690D01*
X137931484Y-126374633D01*
X137929565Y-126375197D01*
X137928926Y-126374916D01*
X137913738Y-126364767D01*
X137894801Y-126361000D01*
X137045199Y-126361000D01*
X137026262Y-126364767D01*
X137011227Y-126374814D01*
X137009232Y-126374945D01*
X137008120Y-126373282D01*
X137008207Y-126372553D01*
X137027102Y-126312212D01*
X137008045Y-126247310D01*
X137008517Y-126245367D01*
X137010436Y-126244803D01*
X137011075Y-126245084D01*
G37*
G36*
X120281076Y-126245085D02*
G01*
X120296262Y-126255233D01*
X120315199Y-126259000D01*
X121164801Y-126259000D01*
X121183738Y-126255233D01*
X121198773Y-126245186D01*
X121200768Y-126245055D01*
X121201880Y-126246718D01*
X121201793Y-126247447D01*
X121182898Y-126307788D01*
X121201955Y-126372690D01*
X121201483Y-126374633D01*
X121199564Y-126375197D01*
X121198925Y-126374916D01*
X121183737Y-126364767D01*
X121164801Y-126361000D01*
X120315199Y-126361000D01*
X120296262Y-126364767D01*
X120281228Y-126374813D01*
X120279232Y-126374944D01*
X120278121Y-126373281D01*
X120278208Y-126372552D01*
X120297102Y-126312212D01*
X120278046Y-126247311D01*
X120278518Y-126245368D01*
X120280437Y-126244804D01*
X120281076Y-126245085D01*
G37*
G36*
X159622919Y-125831734D02*
G01*
X159642595Y-125898746D01*
X159694938Y-125944101D01*
X159763491Y-125953958D01*
X159826636Y-125925120D01*
X159845463Y-125903781D01*
X159847359Y-125903144D01*
X159848859Y-125904467D01*
X159848925Y-125905494D01*
X159846000Y-125920199D01*
X159846000Y-126219801D01*
X159849136Y-126235565D01*
X159848493Y-126237459D01*
X159846531Y-126237849D01*
X159845892Y-126237490D01*
X159795052Y-126195004D01*
X159726334Y-126186374D01*
X159663860Y-126216266D01*
X159627377Y-126275329D01*
X159622982Y-126307968D01*
X159621760Y-126309551D01*
X159619778Y-126309284D01*
X159619000Y-126307701D01*
X159619000Y-125832297D01*
X159620000Y-125830565D01*
X159622000Y-125830565D01*
X159622919Y-125831734D01*
G37*
G36*
X157120222Y-125830711D02*
G01*
X157121000Y-125832294D01*
X157121000Y-126307701D01*
X157120000Y-126309433D01*
X157118000Y-126309433D01*
X157117081Y-126308265D01*
X157097401Y-126241250D01*
X157045057Y-126195897D01*
X156976503Y-126186043D01*
X156913359Y-126214883D01*
X156894537Y-126236219D01*
X156892641Y-126236856D01*
X156891141Y-126235533D01*
X156891075Y-126234506D01*
X156894000Y-126219801D01*
X156894000Y-125920199D01*
X156890864Y-125904434D01*
X156891507Y-125902540D01*
X156893469Y-125902150D01*
X156894109Y-125902509D01*
X156944947Y-125944994D01*
X157013662Y-125953625D01*
X157076137Y-125923734D01*
X157112621Y-125864672D01*
X157117018Y-125832027D01*
X157118240Y-125830444D01*
X157120222Y-125830711D01*
G37*
G36*
X120042919Y-125821735D02*
G01*
X120062599Y-125888750D01*
X120114943Y-125934103D01*
X120183497Y-125943957D01*
X120246641Y-125915117D01*
X120265463Y-125893781D01*
X120267359Y-125893144D01*
X120268859Y-125894467D01*
X120268925Y-125895494D01*
X120266000Y-125910199D01*
X120266000Y-126209801D01*
X120269136Y-126225566D01*
X120268493Y-126227460D01*
X120266531Y-126227850D01*
X120265891Y-126227491D01*
X120215053Y-126185006D01*
X120146338Y-126176375D01*
X120083863Y-126206266D01*
X120047379Y-126265328D01*
X120042982Y-126297973D01*
X120041760Y-126299556D01*
X120039778Y-126299289D01*
X120039000Y-126297706D01*
X120039000Y-125822299D01*
X120040000Y-125820567D01*
X120042000Y-125820567D01*
X120042919Y-125821735D01*
G37*
G36*
X140672919Y-125821735D02*
G01*
X140692599Y-125888750D01*
X140744943Y-125934103D01*
X140813497Y-125943957D01*
X140876641Y-125915117D01*
X140895463Y-125893781D01*
X140897359Y-125893144D01*
X140898859Y-125894467D01*
X140898925Y-125895494D01*
X140896000Y-125910199D01*
X140896000Y-126209801D01*
X140899136Y-126225566D01*
X140898493Y-126227460D01*
X140896531Y-126227850D01*
X140895891Y-126227491D01*
X140845053Y-126185006D01*
X140776338Y-126176375D01*
X140713863Y-126206266D01*
X140677379Y-126265328D01*
X140672982Y-126297973D01*
X140671760Y-126299556D01*
X140669778Y-126299289D01*
X140669000Y-126297706D01*
X140669000Y-125822299D01*
X140670000Y-125820567D01*
X140672000Y-125820567D01*
X140672919Y-125821735D01*
G37*
G36*
X138170222Y-125820716D02*
G01*
X138171000Y-125822299D01*
X138171000Y-126297703D01*
X138170000Y-126299435D01*
X138168000Y-126299435D01*
X138167081Y-126298266D01*
X138147405Y-126231254D01*
X138095062Y-126185899D01*
X138026509Y-126176042D01*
X137963364Y-126204880D01*
X137944537Y-126226219D01*
X137942641Y-126226856D01*
X137941141Y-126225533D01*
X137941075Y-126224506D01*
X137944000Y-126209801D01*
X137944000Y-125910199D01*
X137940864Y-125894435D01*
X137941507Y-125892541D01*
X137943469Y-125892151D01*
X137944108Y-125892510D01*
X137994948Y-125934996D01*
X138063666Y-125943626D01*
X138126140Y-125913734D01*
X138162623Y-125854671D01*
X138167018Y-125822032D01*
X138168240Y-125820449D01*
X138170222Y-125820716D01*
G37*
G36*
X117540222Y-125820716D02*
G01*
X117541000Y-125822299D01*
X117541000Y-126297703D01*
X117540000Y-126299435D01*
X117538000Y-126299435D01*
X117537081Y-126298266D01*
X117517405Y-126231254D01*
X117465062Y-126185899D01*
X117396509Y-126176042D01*
X117333364Y-126204880D01*
X117314537Y-126226219D01*
X117312641Y-126226856D01*
X117311141Y-126225533D01*
X117311075Y-126224506D01*
X117314000Y-126209801D01*
X117314000Y-125910199D01*
X117310864Y-125894435D01*
X117311507Y-125892541D01*
X117313469Y-125892151D01*
X117314108Y-125892510D01*
X117364948Y-125934996D01*
X117433666Y-125943626D01*
X117496140Y-125913734D01*
X117532623Y-125854671D01*
X117537018Y-125822032D01*
X117538240Y-125820449D01*
X117540222Y-125820716D01*
G37*
G36*
X159861074Y-125755084D02*
G01*
X159876262Y-125765233D01*
X159895199Y-125769000D01*
X160744801Y-125769000D01*
X160763738Y-125765233D01*
X160778773Y-125755186D01*
X160780768Y-125755055D01*
X160781880Y-125756718D01*
X160781793Y-125757447D01*
X160762898Y-125817788D01*
X160781955Y-125882690D01*
X160781483Y-125884633D01*
X160779564Y-125885197D01*
X160778925Y-125884916D01*
X160763737Y-125874767D01*
X160744801Y-125871000D01*
X159895199Y-125871000D01*
X159876262Y-125874767D01*
X159861227Y-125884814D01*
X159859232Y-125884945D01*
X159858120Y-125883282D01*
X159858207Y-125882553D01*
X159877102Y-125822214D01*
X159858044Y-125757310D01*
X159858516Y-125755367D01*
X159860435Y-125754803D01*
X159861074Y-125755084D01*
G37*
G36*
X155961075Y-125755084D02*
G01*
X155976263Y-125765233D01*
X155995199Y-125769000D01*
X156844801Y-125769000D01*
X156863738Y-125765233D01*
X156878772Y-125755187D01*
X156880768Y-125755056D01*
X156881879Y-125756719D01*
X156881792Y-125757448D01*
X156862898Y-125817788D01*
X156881954Y-125882689D01*
X156881482Y-125884632D01*
X156879563Y-125885196D01*
X156878924Y-125884915D01*
X156863738Y-125874767D01*
X156844801Y-125871000D01*
X155995199Y-125871000D01*
X155976262Y-125874767D01*
X155961227Y-125884814D01*
X155959232Y-125884945D01*
X155958120Y-125883282D01*
X155958207Y-125882553D01*
X155977102Y-125822212D01*
X155958045Y-125757310D01*
X155958517Y-125755367D01*
X155960436Y-125754803D01*
X155961075Y-125755084D01*
G37*
G36*
X116381075Y-125745084D02*
G01*
X116396263Y-125755233D01*
X116415199Y-125759000D01*
X117264801Y-125759000D01*
X117283738Y-125755233D01*
X117298771Y-125745188D01*
X117300767Y-125745057D01*
X117301878Y-125746720D01*
X117301791Y-125747449D01*
X117282898Y-125807792D01*
X117301956Y-125872689D01*
X117301485Y-125874633D01*
X117299566Y-125875197D01*
X117298926Y-125874916D01*
X117283738Y-125864767D01*
X117264801Y-125861000D01*
X116415199Y-125861000D01*
X116396262Y-125864767D01*
X116381227Y-125874814D01*
X116379232Y-125874945D01*
X116378120Y-125873282D01*
X116378207Y-125872553D01*
X116397102Y-125812212D01*
X116378045Y-125747310D01*
X116378517Y-125745367D01*
X116380436Y-125744803D01*
X116381075Y-125745084D01*
G37*
G36*
X120281074Y-125745084D02*
G01*
X120296262Y-125755233D01*
X120315199Y-125759000D01*
X121164801Y-125759000D01*
X121183738Y-125755233D01*
X121198773Y-125745186D01*
X121200768Y-125745055D01*
X121201880Y-125746718D01*
X121201793Y-125747447D01*
X121182898Y-125807788D01*
X121201955Y-125872690D01*
X121201483Y-125874633D01*
X121199564Y-125875197D01*
X121198925Y-125874916D01*
X121183737Y-125864767D01*
X121164801Y-125861000D01*
X120315199Y-125861000D01*
X120296262Y-125864767D01*
X120281229Y-125874812D01*
X120279233Y-125874943D01*
X120278122Y-125873280D01*
X120278209Y-125872551D01*
X120297102Y-125812208D01*
X120278044Y-125747311D01*
X120278515Y-125745367D01*
X120280434Y-125744803D01*
X120281074Y-125745084D01*
G37*
G36*
X137011075Y-125745084D02*
G01*
X137026263Y-125755233D01*
X137045199Y-125759000D01*
X137894801Y-125759000D01*
X137913738Y-125755233D01*
X137928771Y-125745188D01*
X137930767Y-125745057D01*
X137931878Y-125746720D01*
X137931791Y-125747449D01*
X137912898Y-125807792D01*
X137931956Y-125872689D01*
X137931485Y-125874633D01*
X137929566Y-125875197D01*
X137928926Y-125874916D01*
X137913738Y-125864767D01*
X137894801Y-125861000D01*
X137045199Y-125861000D01*
X137026262Y-125864767D01*
X137011227Y-125874814D01*
X137009232Y-125874945D01*
X137008120Y-125873282D01*
X137008207Y-125872553D01*
X137027102Y-125812212D01*
X137008045Y-125747310D01*
X137008517Y-125745367D01*
X137010436Y-125744803D01*
X137011075Y-125745084D01*
G37*
G36*
X140911074Y-125745084D02*
G01*
X140926262Y-125755233D01*
X140945199Y-125759000D01*
X141794801Y-125759000D01*
X141813738Y-125755233D01*
X141828773Y-125745186D01*
X141830768Y-125745055D01*
X141831880Y-125746718D01*
X141831793Y-125747447D01*
X141812898Y-125807788D01*
X141831955Y-125872690D01*
X141831483Y-125874633D01*
X141829564Y-125875197D01*
X141828925Y-125874916D01*
X141813737Y-125864767D01*
X141794801Y-125861000D01*
X140945199Y-125861000D01*
X140926262Y-125864767D01*
X140911229Y-125874812D01*
X140909233Y-125874943D01*
X140908122Y-125873280D01*
X140908209Y-125872551D01*
X140927102Y-125812208D01*
X140908044Y-125747311D01*
X140908515Y-125745367D01*
X140910434Y-125744803D01*
X140911074Y-125745084D01*
G37*
G36*
X159622919Y-125331734D02*
G01*
X159642595Y-125398746D01*
X159694938Y-125444101D01*
X159763491Y-125453958D01*
X159826636Y-125425120D01*
X159845463Y-125403781D01*
X159847359Y-125403144D01*
X159848859Y-125404467D01*
X159848925Y-125405494D01*
X159846000Y-125420199D01*
X159846000Y-125719801D01*
X159849136Y-125735565D01*
X159848493Y-125737459D01*
X159846531Y-125737849D01*
X159845892Y-125737490D01*
X159795052Y-125695004D01*
X159726334Y-125686374D01*
X159663860Y-125716266D01*
X159627377Y-125775329D01*
X159622982Y-125807966D01*
X159621760Y-125809549D01*
X159619778Y-125809282D01*
X159619000Y-125807699D01*
X159619000Y-125332297D01*
X159620000Y-125330565D01*
X159622000Y-125330565D01*
X159622919Y-125331734D01*
G37*
G36*
X157120222Y-125330711D02*
G01*
X157121000Y-125332294D01*
X157121000Y-125807706D01*
X157120000Y-125809438D01*
X157118000Y-125809438D01*
X157117081Y-125808269D01*
X157097404Y-125741255D01*
X157045061Y-125695900D01*
X156976508Y-125686043D01*
X156913363Y-125714881D01*
X156894537Y-125736219D01*
X156892641Y-125736856D01*
X156891141Y-125735533D01*
X156891075Y-125734506D01*
X156894000Y-125719801D01*
X156894000Y-125420199D01*
X156890864Y-125404434D01*
X156891507Y-125402540D01*
X156893469Y-125402150D01*
X156894109Y-125402509D01*
X156944947Y-125444994D01*
X157013662Y-125453625D01*
X157076137Y-125423735D01*
X157112621Y-125364673D01*
X157117018Y-125332027D01*
X157118240Y-125330444D01*
X157120222Y-125330711D01*
G37*
G36*
X140672919Y-125321734D02*
G01*
X140692595Y-125388746D01*
X140744938Y-125434101D01*
X140813491Y-125443958D01*
X140876636Y-125415120D01*
X140895463Y-125393781D01*
X140897359Y-125393144D01*
X140898859Y-125394467D01*
X140898925Y-125395494D01*
X140896000Y-125410199D01*
X140896000Y-125709801D01*
X140899136Y-125725565D01*
X140898493Y-125727459D01*
X140896531Y-125727849D01*
X140895892Y-125727490D01*
X140845052Y-125685004D01*
X140776334Y-125676374D01*
X140713860Y-125706266D01*
X140677377Y-125765329D01*
X140672982Y-125797968D01*
X140671760Y-125799551D01*
X140669778Y-125799284D01*
X140669000Y-125797701D01*
X140669000Y-125322297D01*
X140670000Y-125320565D01*
X140672000Y-125320565D01*
X140672919Y-125321734D01*
G37*
G36*
X120042919Y-125321734D02*
G01*
X120062595Y-125388746D01*
X120114938Y-125434101D01*
X120183491Y-125443958D01*
X120246636Y-125415120D01*
X120265463Y-125393781D01*
X120267359Y-125393144D01*
X120268859Y-125394467D01*
X120268925Y-125395494D01*
X120266000Y-125410199D01*
X120266000Y-125709801D01*
X120269136Y-125725565D01*
X120268493Y-125727459D01*
X120266531Y-125727849D01*
X120265892Y-125727490D01*
X120215052Y-125685004D01*
X120146334Y-125676374D01*
X120083860Y-125706266D01*
X120047377Y-125765329D01*
X120042982Y-125797968D01*
X120041760Y-125799551D01*
X120039778Y-125799284D01*
X120039000Y-125797701D01*
X120039000Y-125322297D01*
X120040000Y-125320565D01*
X120042000Y-125320565D01*
X120042919Y-125321734D01*
G37*
G36*
X117540222Y-125320711D02*
G01*
X117541000Y-125322294D01*
X117541000Y-125797701D01*
X117540000Y-125799433D01*
X117538000Y-125799433D01*
X117537081Y-125798265D01*
X117517401Y-125731250D01*
X117465057Y-125685897D01*
X117396503Y-125676043D01*
X117333359Y-125704883D01*
X117314537Y-125726219D01*
X117312641Y-125726856D01*
X117311141Y-125725533D01*
X117311075Y-125724506D01*
X117314000Y-125709801D01*
X117314000Y-125410199D01*
X117310864Y-125394434D01*
X117311507Y-125392540D01*
X117313469Y-125392150D01*
X117314109Y-125392509D01*
X117364947Y-125434994D01*
X117433662Y-125443625D01*
X117496137Y-125413734D01*
X117532621Y-125354672D01*
X117537018Y-125322027D01*
X117538240Y-125320444D01*
X117540222Y-125320711D01*
G37*
G36*
X138170222Y-125320711D02*
G01*
X138171000Y-125322294D01*
X138171000Y-125797701D01*
X138170000Y-125799433D01*
X138168000Y-125799433D01*
X138167081Y-125798265D01*
X138147401Y-125731250D01*
X138095057Y-125685897D01*
X138026503Y-125676043D01*
X137963359Y-125704883D01*
X137944537Y-125726219D01*
X137942641Y-125726856D01*
X137941141Y-125725533D01*
X137941075Y-125724506D01*
X137944000Y-125709801D01*
X137944000Y-125410199D01*
X137940864Y-125394434D01*
X137941507Y-125392540D01*
X137943469Y-125392150D01*
X137944109Y-125392509D01*
X137994947Y-125434994D01*
X138063662Y-125443625D01*
X138126137Y-125413734D01*
X138162621Y-125354672D01*
X138167018Y-125322027D01*
X138168240Y-125320444D01*
X138170222Y-125320711D01*
G37*
G36*
X120281074Y-125245084D02*
G01*
X120296262Y-125255233D01*
X120315199Y-125259000D01*
X121164801Y-125259000D01*
X121183738Y-125255233D01*
X121198773Y-125245186D01*
X121200768Y-125245055D01*
X121201880Y-125246718D01*
X121201793Y-125247447D01*
X121182898Y-125307788D01*
X121201955Y-125372690D01*
X121201483Y-125374633D01*
X121199564Y-125375197D01*
X121198925Y-125374916D01*
X121183737Y-125364767D01*
X121164801Y-125361000D01*
X120315199Y-125361000D01*
X120296262Y-125364767D01*
X120281227Y-125374814D01*
X120279232Y-125374945D01*
X120278120Y-125373282D01*
X120278207Y-125372553D01*
X120297102Y-125312214D01*
X120278044Y-125247310D01*
X120278516Y-125245367D01*
X120280435Y-125244803D01*
X120281074Y-125245084D01*
G37*
G36*
X140911074Y-125245084D02*
G01*
X140926262Y-125255233D01*
X140945199Y-125259000D01*
X141794801Y-125259000D01*
X141813738Y-125255233D01*
X141828773Y-125245186D01*
X141830768Y-125245055D01*
X141831880Y-125246718D01*
X141831793Y-125247447D01*
X141812898Y-125307788D01*
X141831955Y-125372690D01*
X141831483Y-125374633D01*
X141829564Y-125375197D01*
X141828925Y-125374916D01*
X141813737Y-125364767D01*
X141794801Y-125361000D01*
X140945199Y-125361000D01*
X140926262Y-125364767D01*
X140911227Y-125374814D01*
X140909232Y-125374945D01*
X140908120Y-125373282D01*
X140908207Y-125372553D01*
X140927102Y-125312214D01*
X140908044Y-125247310D01*
X140908516Y-125245367D01*
X140910435Y-125244803D01*
X140911074Y-125245084D01*
G37*
G36*
X137011075Y-125245084D02*
G01*
X137026263Y-125255233D01*
X137045199Y-125259000D01*
X137894801Y-125259000D01*
X137913738Y-125255233D01*
X137928772Y-125245187D01*
X137930768Y-125245056D01*
X137931879Y-125246719D01*
X137931792Y-125247448D01*
X137912898Y-125307788D01*
X137931954Y-125372689D01*
X137931482Y-125374632D01*
X137929563Y-125375196D01*
X137928924Y-125374915D01*
X137913738Y-125364767D01*
X137894801Y-125361000D01*
X137045199Y-125361000D01*
X137026262Y-125364767D01*
X137011227Y-125374814D01*
X137009232Y-125374945D01*
X137008120Y-125373282D01*
X137008207Y-125372553D01*
X137027102Y-125312212D01*
X137008045Y-125247310D01*
X137008517Y-125245367D01*
X137010436Y-125244803D01*
X137011075Y-125245084D01*
G37*
G36*
X116381075Y-125245084D02*
G01*
X116396263Y-125255233D01*
X116415199Y-125259000D01*
X117264801Y-125259000D01*
X117283738Y-125255233D01*
X117298772Y-125245187D01*
X117300768Y-125245056D01*
X117301879Y-125246719D01*
X117301792Y-125247448D01*
X117282898Y-125307788D01*
X117301954Y-125372689D01*
X117301482Y-125374632D01*
X117299563Y-125375196D01*
X117298924Y-125374915D01*
X117283738Y-125364767D01*
X117264801Y-125361000D01*
X116415199Y-125361000D01*
X116396262Y-125364767D01*
X116381227Y-125374814D01*
X116379232Y-125374945D01*
X116378120Y-125373282D01*
X116378207Y-125372553D01*
X116397102Y-125312212D01*
X116378045Y-125247310D01*
X116378517Y-125245367D01*
X116380436Y-125244803D01*
X116381075Y-125245084D01*
G37*
G36*
X120042919Y-124821734D02*
G01*
X120062595Y-124888746D01*
X120114938Y-124934101D01*
X120183491Y-124943958D01*
X120246636Y-124915120D01*
X120265463Y-124893781D01*
X120267359Y-124893144D01*
X120268859Y-124894467D01*
X120268925Y-124895494D01*
X120266000Y-124910199D01*
X120266000Y-125209801D01*
X120269136Y-125225565D01*
X120268493Y-125227459D01*
X120266531Y-125227849D01*
X120265892Y-125227490D01*
X120215052Y-125185004D01*
X120146334Y-125176374D01*
X120083860Y-125206266D01*
X120047377Y-125265329D01*
X120042982Y-125297966D01*
X120041760Y-125299549D01*
X120039778Y-125299282D01*
X120039000Y-125297699D01*
X120039000Y-124822297D01*
X120040000Y-124820565D01*
X120042000Y-124820565D01*
X120042919Y-124821734D01*
G37*
G36*
X140672919Y-124821734D02*
G01*
X140692595Y-124888746D01*
X140744938Y-124934101D01*
X140813491Y-124943958D01*
X140876636Y-124915120D01*
X140895463Y-124893781D01*
X140897359Y-124893144D01*
X140898859Y-124894467D01*
X140898925Y-124895494D01*
X140896000Y-124910199D01*
X140896000Y-125209801D01*
X140899136Y-125225565D01*
X140898493Y-125227459D01*
X140896531Y-125227849D01*
X140895892Y-125227490D01*
X140845052Y-125185004D01*
X140776334Y-125176374D01*
X140713860Y-125206266D01*
X140677377Y-125265329D01*
X140672982Y-125297966D01*
X140671760Y-125299549D01*
X140669778Y-125299282D01*
X140669000Y-125297699D01*
X140669000Y-124822297D01*
X140670000Y-124820565D01*
X140672000Y-124820565D01*
X140672919Y-124821734D01*
G37*
G36*
X138170222Y-124820711D02*
G01*
X138171000Y-124822294D01*
X138171000Y-125297706D01*
X138170000Y-125299438D01*
X138168000Y-125299438D01*
X138167081Y-125298269D01*
X138147404Y-125231255D01*
X138095061Y-125185900D01*
X138026508Y-125176043D01*
X137963363Y-125204881D01*
X137944537Y-125226219D01*
X137942641Y-125226856D01*
X137941141Y-125225533D01*
X137941075Y-125224506D01*
X137944000Y-125209801D01*
X137944000Y-124910199D01*
X137940864Y-124894434D01*
X137941507Y-124892540D01*
X137943469Y-124892150D01*
X137944109Y-124892509D01*
X137994947Y-124934994D01*
X138063662Y-124943625D01*
X138126137Y-124913735D01*
X138162621Y-124854673D01*
X138167018Y-124822027D01*
X138168240Y-124820444D01*
X138170222Y-124820711D01*
G37*
G36*
X117540222Y-124820711D02*
G01*
X117541000Y-124822294D01*
X117541000Y-125297706D01*
X117540000Y-125299438D01*
X117538000Y-125299438D01*
X117537081Y-125298269D01*
X117517404Y-125231255D01*
X117465061Y-125185900D01*
X117396508Y-125176043D01*
X117333363Y-125204881D01*
X117314537Y-125226219D01*
X117312641Y-125226856D01*
X117311141Y-125225533D01*
X117311075Y-125224506D01*
X117314000Y-125209801D01*
X117314000Y-124910199D01*
X117310864Y-124894434D01*
X117311507Y-124892540D01*
X117313469Y-124892150D01*
X117314109Y-124892509D01*
X117364947Y-124934994D01*
X117433662Y-124943625D01*
X117496137Y-124913735D01*
X117532621Y-124854673D01*
X117537018Y-124822027D01*
X117538240Y-124820444D01*
X117540222Y-124820711D01*
G37*
G36*
X159287460Y-124841507D02*
G01*
X159287850Y-124843469D01*
X159287491Y-124844109D01*
X159245006Y-124894947D01*
X159236375Y-124963662D01*
X159266265Y-125026137D01*
X159325327Y-125062621D01*
X159357974Y-125067018D01*
X159359557Y-125068240D01*
X159359290Y-125070222D01*
X159357707Y-125071000D01*
X158882293Y-125071000D01*
X158880561Y-125070000D01*
X158880561Y-125068000D01*
X158881730Y-125067081D01*
X158948745Y-125047404D01*
X158994100Y-124995061D01*
X159003957Y-124926508D01*
X158975119Y-124863363D01*
X158953781Y-124844537D01*
X158953144Y-124842641D01*
X158954467Y-124841141D01*
X158955494Y-124841075D01*
X158970199Y-124844000D01*
X159269801Y-124844000D01*
X159285566Y-124840864D01*
X159287460Y-124841507D01*
G37*
G36*
X157787459Y-124841507D02*
G01*
X157787849Y-124843469D01*
X157787490Y-124844108D01*
X157745004Y-124894948D01*
X157736374Y-124963666D01*
X157766266Y-125026140D01*
X157825329Y-125062623D01*
X157857966Y-125067018D01*
X157859549Y-125068240D01*
X157859282Y-125070222D01*
X157857699Y-125071000D01*
X157382297Y-125071000D01*
X157380565Y-125070000D01*
X157380565Y-125068000D01*
X157381734Y-125067081D01*
X157448746Y-125047405D01*
X157494101Y-124995062D01*
X157503958Y-124926509D01*
X157475120Y-124863364D01*
X157453781Y-124844537D01*
X157453144Y-124842641D01*
X157454467Y-124841141D01*
X157455494Y-124841075D01*
X157470199Y-124844000D01*
X157769801Y-124844000D01*
X157785565Y-124840864D01*
X157787459Y-124841507D01*
G37*
G36*
X158287459Y-124841507D02*
G01*
X158287849Y-124843469D01*
X158287490Y-124844108D01*
X158245004Y-124894948D01*
X158236374Y-124963666D01*
X158266266Y-125026140D01*
X158325329Y-125062623D01*
X158357971Y-125067018D01*
X158359554Y-125068240D01*
X158359287Y-125070222D01*
X158357704Y-125071000D01*
X157882297Y-125071000D01*
X157880565Y-125070000D01*
X157880565Y-125068000D01*
X157881734Y-125067081D01*
X157948746Y-125047405D01*
X157994101Y-124995062D01*
X158003958Y-124926509D01*
X157975120Y-124863364D01*
X157953781Y-124844537D01*
X157953144Y-124842641D01*
X157954467Y-124841141D01*
X157955494Y-124841075D01*
X157970199Y-124844000D01*
X158269801Y-124844000D01*
X158285565Y-124840864D01*
X158287459Y-124841507D01*
G37*
G36*
X158787460Y-124841507D02*
G01*
X158787850Y-124843469D01*
X158787491Y-124844109D01*
X158745006Y-124894947D01*
X158736375Y-124963662D01*
X158766266Y-125026137D01*
X158825328Y-125062621D01*
X158857974Y-125067018D01*
X158859557Y-125068240D01*
X158859290Y-125070222D01*
X158857707Y-125071000D01*
X158382299Y-125071000D01*
X158380567Y-125070000D01*
X158380567Y-125068000D01*
X158381735Y-125067081D01*
X158448750Y-125047401D01*
X158494103Y-124995057D01*
X158503957Y-124926503D01*
X158475117Y-124863359D01*
X158453781Y-124844537D01*
X158453144Y-124842641D01*
X158454467Y-124841141D01*
X158455494Y-124841075D01*
X158470199Y-124844000D01*
X158769801Y-124844000D01*
X158785566Y-124840864D01*
X158787460Y-124841507D01*
G37*
G36*
X157934633Y-123908517D02*
G01*
X157935197Y-123910436D01*
X157934916Y-123911075D01*
X157924767Y-123926263D01*
X157921000Y-123945199D01*
X157921000Y-124794801D01*
X157924767Y-124813738D01*
X157934814Y-124828773D01*
X157934945Y-124830768D01*
X157933282Y-124831880D01*
X157932553Y-124831793D01*
X157872214Y-124812898D01*
X157807310Y-124831956D01*
X157805367Y-124831484D01*
X157804803Y-124829565D01*
X157805084Y-124828926D01*
X157815233Y-124813738D01*
X157819000Y-124794801D01*
X157819000Y-123945199D01*
X157815233Y-123926262D01*
X157805186Y-123911227D01*
X157805055Y-123909232D01*
X157806718Y-123908120D01*
X157807447Y-123908207D01*
X157867788Y-123927102D01*
X157932690Y-123908045D01*
X157934633Y-123908517D01*
G37*
G36*
X158434633Y-123908517D02*
G01*
X158435197Y-123910436D01*
X158434916Y-123911075D01*
X158424767Y-123926263D01*
X158421000Y-123945199D01*
X158421000Y-124794801D01*
X158424767Y-124813738D01*
X158434812Y-124828771D01*
X158434943Y-124830767D01*
X158433280Y-124831878D01*
X158432551Y-124831791D01*
X158372208Y-124812898D01*
X158307311Y-124831956D01*
X158305367Y-124831485D01*
X158304803Y-124829566D01*
X158305084Y-124828926D01*
X158315233Y-124813738D01*
X158319000Y-124794801D01*
X158319000Y-123945199D01*
X158315233Y-123926262D01*
X158305186Y-123911227D01*
X158305055Y-123909232D01*
X158306718Y-123908120D01*
X158307447Y-123908207D01*
X158367788Y-123927102D01*
X158432690Y-123908045D01*
X158434633Y-123908517D01*
G37*
G36*
X158934633Y-123908517D02*
G01*
X158935197Y-123910436D01*
X158934916Y-123911075D01*
X158924767Y-123926263D01*
X158921000Y-123945199D01*
X158921000Y-124794801D01*
X158924767Y-124813738D01*
X158934813Y-124828772D01*
X158934944Y-124830768D01*
X158933281Y-124831879D01*
X158932552Y-124831792D01*
X158872212Y-124812898D01*
X158807311Y-124831954D01*
X158805368Y-124831482D01*
X158804804Y-124829563D01*
X158805085Y-124828924D01*
X158815233Y-124813738D01*
X158819000Y-124794801D01*
X158819000Y-123945199D01*
X158815233Y-123926262D01*
X158805186Y-123911227D01*
X158805055Y-123909232D01*
X158806718Y-123908120D01*
X158807447Y-123908207D01*
X158867788Y-123927102D01*
X158932690Y-123908045D01*
X158934633Y-123908517D01*
G37*
G36*
X140337460Y-124331507D02*
G01*
X140337850Y-124333469D01*
X140337491Y-124334109D01*
X140295006Y-124384947D01*
X140286375Y-124453662D01*
X140316265Y-124516137D01*
X140375327Y-124552621D01*
X140407974Y-124557018D01*
X140409557Y-124558240D01*
X140409290Y-124560222D01*
X140407707Y-124561000D01*
X139932293Y-124561000D01*
X139930561Y-124560000D01*
X139930561Y-124558000D01*
X139931730Y-124557081D01*
X139998745Y-124537404D01*
X140044100Y-124485061D01*
X140053957Y-124416508D01*
X140025119Y-124353363D01*
X140003781Y-124334537D01*
X140003144Y-124332641D01*
X140004467Y-124331141D01*
X140005494Y-124331075D01*
X140020199Y-124334000D01*
X140319801Y-124334000D01*
X140335566Y-124330864D01*
X140337460Y-124331507D01*
G37*
G36*
X118707459Y-124331507D02*
G01*
X118707849Y-124333469D01*
X118707490Y-124334108D01*
X118665004Y-124384948D01*
X118656374Y-124453666D01*
X118686266Y-124516140D01*
X118745329Y-124552623D01*
X118777971Y-124557018D01*
X118779554Y-124558240D01*
X118779287Y-124560222D01*
X118777704Y-124561000D01*
X118302297Y-124561000D01*
X118300565Y-124560000D01*
X118300565Y-124558000D01*
X118301734Y-124557081D01*
X118368746Y-124537405D01*
X118414101Y-124485062D01*
X118423958Y-124416509D01*
X118395120Y-124353364D01*
X118373781Y-124334537D01*
X118373144Y-124332641D01*
X118374467Y-124331141D01*
X118375494Y-124331075D01*
X118390199Y-124334000D01*
X118689801Y-124334000D01*
X118705565Y-124330864D01*
X118707459Y-124331507D01*
G37*
G36*
X138837459Y-124331507D02*
G01*
X138837849Y-124333469D01*
X138837490Y-124334108D01*
X138795004Y-124384948D01*
X138786374Y-124453666D01*
X138816266Y-124516140D01*
X138875329Y-124552623D01*
X138907966Y-124557018D01*
X138909549Y-124558240D01*
X138909282Y-124560222D01*
X138907699Y-124561000D01*
X138432297Y-124561000D01*
X138430565Y-124560000D01*
X138430565Y-124558000D01*
X138431734Y-124557081D01*
X138498746Y-124537405D01*
X138544101Y-124485062D01*
X138553958Y-124416509D01*
X138525120Y-124353364D01*
X138503781Y-124334537D01*
X138503144Y-124332641D01*
X138504467Y-124331141D01*
X138505494Y-124331075D01*
X138520199Y-124334000D01*
X138819801Y-124334000D01*
X138835565Y-124330864D01*
X138837459Y-124331507D01*
G37*
G36*
X119207460Y-124331507D02*
G01*
X119207850Y-124333469D01*
X119207491Y-124334109D01*
X119165006Y-124384947D01*
X119156375Y-124453662D01*
X119186266Y-124516137D01*
X119245328Y-124552621D01*
X119277974Y-124557018D01*
X119279557Y-124558240D01*
X119279290Y-124560222D01*
X119277707Y-124561000D01*
X118802299Y-124561000D01*
X118800567Y-124560000D01*
X118800567Y-124558000D01*
X118801735Y-124557081D01*
X118868750Y-124537401D01*
X118914103Y-124485057D01*
X118923957Y-124416503D01*
X118895117Y-124353359D01*
X118873781Y-124334537D01*
X118873144Y-124332641D01*
X118874467Y-124331141D01*
X118875494Y-124331075D01*
X118890199Y-124334000D01*
X119189801Y-124334000D01*
X119205566Y-124330864D01*
X119207460Y-124331507D01*
G37*
G36*
X139337459Y-124331507D02*
G01*
X139337849Y-124333469D01*
X139337490Y-124334108D01*
X139295004Y-124384948D01*
X139286374Y-124453666D01*
X139316266Y-124516140D01*
X139375329Y-124552623D01*
X139407971Y-124557018D01*
X139409554Y-124558240D01*
X139409287Y-124560222D01*
X139407704Y-124561000D01*
X138932297Y-124561000D01*
X138930565Y-124560000D01*
X138930565Y-124558000D01*
X138931734Y-124557081D01*
X138998746Y-124537405D01*
X139044101Y-124485062D01*
X139053958Y-124416509D01*
X139025120Y-124353364D01*
X139003781Y-124334537D01*
X139003144Y-124332641D01*
X139004467Y-124331141D01*
X139005494Y-124331075D01*
X139020199Y-124334000D01*
X139319801Y-124334000D01*
X139335565Y-124330864D01*
X139337459Y-124331507D01*
G37*
G36*
X119707460Y-124331507D02*
G01*
X119707850Y-124333469D01*
X119707491Y-124334109D01*
X119665006Y-124384947D01*
X119656375Y-124453662D01*
X119686265Y-124516137D01*
X119745327Y-124552621D01*
X119777974Y-124557018D01*
X119779557Y-124558240D01*
X119779290Y-124560222D01*
X119777707Y-124561000D01*
X119302293Y-124561000D01*
X119300561Y-124560000D01*
X119300561Y-124558000D01*
X119301730Y-124557081D01*
X119368745Y-124537404D01*
X119414100Y-124485061D01*
X119423957Y-124416508D01*
X119395119Y-124353363D01*
X119373781Y-124334537D01*
X119373144Y-124332641D01*
X119374467Y-124331141D01*
X119375494Y-124331075D01*
X119390199Y-124334000D01*
X119689801Y-124334000D01*
X119705566Y-124330864D01*
X119707460Y-124331507D01*
G37*
G36*
X139837460Y-124331507D02*
G01*
X139837850Y-124333469D01*
X139837491Y-124334109D01*
X139795006Y-124384947D01*
X139786375Y-124453662D01*
X139816266Y-124516137D01*
X139875328Y-124552621D01*
X139907974Y-124557018D01*
X139909557Y-124558240D01*
X139909290Y-124560222D01*
X139907707Y-124561000D01*
X139432299Y-124561000D01*
X139430567Y-124560000D01*
X139430567Y-124558000D01*
X139431735Y-124557081D01*
X139498750Y-124537401D01*
X139544103Y-124485057D01*
X139553957Y-124416503D01*
X139525117Y-124353359D01*
X139503781Y-124334537D01*
X139503144Y-124332641D01*
X139504467Y-124331141D01*
X139505494Y-124331075D01*
X139520199Y-124334000D01*
X139819801Y-124334000D01*
X139835566Y-124330864D01*
X139837460Y-124331507D01*
G37*
G36*
X118207459Y-124331507D02*
G01*
X118207849Y-124333469D01*
X118207490Y-124334108D01*
X118165004Y-124384948D01*
X118156374Y-124453666D01*
X118186266Y-124516140D01*
X118245329Y-124552623D01*
X118277966Y-124557018D01*
X118279549Y-124558240D01*
X118279282Y-124560222D01*
X118277699Y-124561000D01*
X117802297Y-124561000D01*
X117800565Y-124560000D01*
X117800565Y-124558000D01*
X117801734Y-124557081D01*
X117868746Y-124537405D01*
X117914101Y-124485062D01*
X117923958Y-124416509D01*
X117895120Y-124353364D01*
X117873781Y-124334537D01*
X117873144Y-124332641D01*
X117874467Y-124331141D01*
X117875494Y-124331075D01*
X117890199Y-124334000D01*
X118189801Y-124334000D01*
X118205565Y-124330864D01*
X118207459Y-124331507D01*
G37*
G36*
X118854633Y-123398517D02*
G01*
X118855197Y-123400436D01*
X118854916Y-123401075D01*
X118844767Y-123416263D01*
X118841000Y-123435199D01*
X118841000Y-124284801D01*
X118844767Y-124303738D01*
X118854812Y-124318771D01*
X118854943Y-124320767D01*
X118853280Y-124321878D01*
X118852551Y-124321791D01*
X118792208Y-124302898D01*
X118727311Y-124321956D01*
X118725367Y-124321485D01*
X118724803Y-124319566D01*
X118725084Y-124318926D01*
X118735233Y-124303738D01*
X118739000Y-124284801D01*
X118739000Y-123435199D01*
X118735233Y-123416262D01*
X118725186Y-123401227D01*
X118725055Y-123399232D01*
X118726718Y-123398120D01*
X118727447Y-123398207D01*
X118787788Y-123417102D01*
X118852690Y-123398045D01*
X118854633Y-123398517D01*
G37*
G36*
X139484633Y-123398517D02*
G01*
X139485197Y-123400436D01*
X139484916Y-123401075D01*
X139474767Y-123416263D01*
X139471000Y-123435199D01*
X139471000Y-124284801D01*
X139474767Y-124303738D01*
X139484812Y-124318771D01*
X139484943Y-124320767D01*
X139483280Y-124321878D01*
X139482551Y-124321791D01*
X139422208Y-124302898D01*
X139357311Y-124321956D01*
X139355367Y-124321485D01*
X139354803Y-124319566D01*
X139355084Y-124318926D01*
X139365233Y-124303738D01*
X139369000Y-124284801D01*
X139369000Y-123435199D01*
X139365233Y-123416262D01*
X139355186Y-123401227D01*
X139355055Y-123399232D01*
X139356718Y-123398120D01*
X139357447Y-123398207D01*
X139417788Y-123417102D01*
X139482690Y-123398045D01*
X139484633Y-123398517D01*
G37*
G36*
X138984633Y-123398517D02*
G01*
X138985197Y-123400436D01*
X138984916Y-123401075D01*
X138974767Y-123416263D01*
X138971000Y-123435199D01*
X138971000Y-124284801D01*
X138974767Y-124303738D01*
X138984814Y-124318773D01*
X138984945Y-124320768D01*
X138983282Y-124321880D01*
X138982553Y-124321793D01*
X138922214Y-124302898D01*
X138857310Y-124321956D01*
X138855367Y-124321484D01*
X138854803Y-124319565D01*
X138855084Y-124318926D01*
X138865233Y-124303738D01*
X138869000Y-124284801D01*
X138869000Y-123435199D01*
X138865233Y-123416262D01*
X138855186Y-123401227D01*
X138855055Y-123399232D01*
X138856718Y-123398120D01*
X138857447Y-123398207D01*
X138917788Y-123417102D01*
X138982690Y-123398045D01*
X138984633Y-123398517D01*
G37*
G36*
X118354633Y-123398517D02*
G01*
X118355197Y-123400436D01*
X118354916Y-123401075D01*
X118344767Y-123416263D01*
X118341000Y-123435199D01*
X118341000Y-124284801D01*
X118344767Y-124303738D01*
X118354814Y-124318773D01*
X118354945Y-124320768D01*
X118353282Y-124321880D01*
X118352553Y-124321793D01*
X118292214Y-124302898D01*
X118227310Y-124321956D01*
X118225367Y-124321484D01*
X118224803Y-124319565D01*
X118225084Y-124318926D01*
X118235233Y-124303738D01*
X118239000Y-124284801D01*
X118239000Y-123435199D01*
X118235233Y-123416262D01*
X118225186Y-123401227D01*
X118225055Y-123399232D01*
X118226718Y-123398120D01*
X118227447Y-123398207D01*
X118287788Y-123417102D01*
X118352690Y-123398045D01*
X118354633Y-123398517D01*
G37*
G36*
X119354633Y-123398517D02*
G01*
X119355197Y-123400436D01*
X119354916Y-123401075D01*
X119344767Y-123416263D01*
X119341000Y-123435199D01*
X119341000Y-124284801D01*
X119344767Y-124303738D01*
X119354813Y-124318772D01*
X119354944Y-124320768D01*
X119353281Y-124321879D01*
X119352552Y-124321792D01*
X119292212Y-124302898D01*
X119227311Y-124321954D01*
X119225368Y-124321482D01*
X119224804Y-124319563D01*
X119225085Y-124318924D01*
X119235233Y-124303738D01*
X119239000Y-124284801D01*
X119239000Y-123435199D01*
X119235233Y-123416262D01*
X119225186Y-123401227D01*
X119225055Y-123399232D01*
X119226718Y-123398120D01*
X119227447Y-123398207D01*
X119287788Y-123417102D01*
X119352690Y-123398045D01*
X119354633Y-123398517D01*
G37*
G36*
X139984633Y-123398517D02*
G01*
X139985197Y-123400436D01*
X139984916Y-123401075D01*
X139974767Y-123416263D01*
X139971000Y-123435199D01*
X139971000Y-124284801D01*
X139974767Y-124303738D01*
X139984813Y-124318772D01*
X139984944Y-124320768D01*
X139983281Y-124321879D01*
X139982552Y-124321792D01*
X139922212Y-124302898D01*
X139857311Y-124321954D01*
X139855368Y-124321482D01*
X139854804Y-124319563D01*
X139855085Y-124318924D01*
X139865233Y-124303738D01*
X139869000Y-124284801D01*
X139869000Y-123435199D01*
X139865233Y-123416262D01*
X139855186Y-123401227D01*
X139855055Y-123399232D01*
X139856718Y-123398120D01*
X139857447Y-123398207D01*
X139917788Y-123417102D01*
X139982690Y-123398045D01*
X139984633Y-123398517D01*
G37*
M02*
