G04 #@! TF.GenerationSoftware,KiCad,Pcbnew,(6.0.4-0)*
G04 #@! TF.CreationDate,2022-07-08T14:42:34+02:00*
G04 #@! TF.ProjectId,adapter_hybrid_assistor_hpc_3HDMI,61646170-7465-4725-9f68-79627269645f,rev?*
G04 #@! TF.SameCoordinates,Original*
G04 #@! TF.FileFunction,AssemblyDrawing,Bot*
%FSLAX46Y46*%
G04 Gerber Fmt 4.6, Leading zero omitted, Abs format (unit mm)*
G04 Created by KiCad (PCBNEW (6.0.4-0)) date 2022-07-08 14:42:34*
%MOMM*%
%LPD*%
G01*
G04 APERTURE LIST*
%ADD10C,0.060000*%
%ADD11C,0.150000*%
%ADD12C,0.254000*%
%ADD13C,0.100000*%
%ADD14C,0.200000*%
G04 APERTURE END LIST*
D10*
X123632857Y-125113333D02*
X123651904Y-125094285D01*
X123670952Y-125037142D01*
X123670952Y-124999047D01*
X123651904Y-124941904D01*
X123613809Y-124903809D01*
X123575714Y-124884761D01*
X123499523Y-124865714D01*
X123442380Y-124865714D01*
X123366190Y-124884761D01*
X123328095Y-124903809D01*
X123290000Y-124941904D01*
X123270952Y-124999047D01*
X123270952Y-125037142D01*
X123290000Y-125094285D01*
X123309047Y-125113333D01*
X123270952Y-125475238D02*
X123270952Y-125284761D01*
X123461428Y-125265714D01*
X123442380Y-125284761D01*
X123423333Y-125322857D01*
X123423333Y-125418095D01*
X123442380Y-125456190D01*
X123461428Y-125475238D01*
X123499523Y-125494285D01*
X123594761Y-125494285D01*
X123632857Y-125475238D01*
X123651904Y-125456190D01*
X123670952Y-125418095D01*
X123670952Y-125322857D01*
X123651904Y-125284761D01*
X123632857Y-125265714D01*
X144282857Y-125133333D02*
X144301904Y-125114285D01*
X144320952Y-125057142D01*
X144320952Y-125019047D01*
X144301904Y-124961904D01*
X144263809Y-124923809D01*
X144225714Y-124904761D01*
X144149523Y-124885714D01*
X144092380Y-124885714D01*
X144016190Y-124904761D01*
X143978095Y-124923809D01*
X143940000Y-124961904D01*
X143920952Y-125019047D01*
X143920952Y-125057142D01*
X143940000Y-125114285D01*
X143959047Y-125133333D01*
X143920952Y-125266666D02*
X143920952Y-125533333D01*
X144320952Y-125361904D01*
D11*
X133581904Y-117296666D02*
X133105714Y-117296666D01*
X133677142Y-117582380D02*
X133343809Y-116582380D01*
X133010476Y-117582380D01*
X132724761Y-117534761D02*
X132581904Y-117582380D01*
X132343809Y-117582380D01*
X132248571Y-117534761D01*
X132200952Y-117487142D01*
X132153333Y-117391904D01*
X132153333Y-117296666D01*
X132200952Y-117201428D01*
X132248571Y-117153809D01*
X132343809Y-117106190D01*
X132534285Y-117058571D01*
X132629523Y-117010952D01*
X132677142Y-116963333D01*
X132724761Y-116868095D01*
X132724761Y-116772857D01*
X132677142Y-116677619D01*
X132629523Y-116630000D01*
X132534285Y-116582380D01*
X132296190Y-116582380D01*
X132153333Y-116630000D01*
X131724761Y-117582380D02*
X131724761Y-116582380D01*
X131343809Y-116582380D01*
X131248571Y-116630000D01*
X131200952Y-116677619D01*
X131153333Y-116772857D01*
X131153333Y-116915714D01*
X131200952Y-117010952D01*
X131248571Y-117058571D01*
X131343809Y-117106190D01*
X131724761Y-117106190D01*
X130724761Y-117201428D02*
X129962857Y-117201428D01*
X128962857Y-117582380D02*
X129534285Y-117582380D01*
X129248571Y-117582380D02*
X129248571Y-116582380D01*
X129343809Y-116725238D01*
X129439047Y-116820476D01*
X129534285Y-116868095D01*
X128629523Y-116582380D02*
X128010476Y-116582380D01*
X128343809Y-116963333D01*
X128200952Y-116963333D01*
X128105714Y-117010952D01*
X128058095Y-117058571D01*
X128010476Y-117153809D01*
X128010476Y-117391904D01*
X128058095Y-117487142D01*
X128105714Y-117534761D01*
X128200952Y-117582380D01*
X128486666Y-117582380D01*
X128581904Y-117534761D01*
X128629523Y-117487142D01*
X127153333Y-116915714D02*
X127153333Y-117582380D01*
X127391428Y-116534761D02*
X127629523Y-117249047D01*
X127010476Y-117249047D01*
X126200952Y-116582380D02*
X126391428Y-116582380D01*
X126486666Y-116630000D01*
X126534285Y-116677619D01*
X126629523Y-116820476D01*
X126677142Y-117010952D01*
X126677142Y-117391904D01*
X126629523Y-117487142D01*
X126581904Y-117534761D01*
X126486666Y-117582380D01*
X126296190Y-117582380D01*
X126200952Y-117534761D01*
X126153333Y-117487142D01*
X126105714Y-117391904D01*
X126105714Y-117153809D01*
X126153333Y-117058571D01*
X126200952Y-117010952D01*
X126296190Y-116963333D01*
X126486666Y-116963333D01*
X126581904Y-117010952D01*
X126629523Y-117058571D01*
X126677142Y-117153809D01*
X125486666Y-116582380D02*
X125391428Y-116582380D01*
X125296190Y-116630000D01*
X125248571Y-116677619D01*
X125200952Y-116772857D01*
X125153333Y-116963333D01*
X125153333Y-117201428D01*
X125200952Y-117391904D01*
X125248571Y-117487142D01*
X125296190Y-117534761D01*
X125391428Y-117582380D01*
X125486666Y-117582380D01*
X125581904Y-117534761D01*
X125629523Y-117487142D01*
X125677142Y-117391904D01*
X125724761Y-117201428D01*
X125724761Y-116963333D01*
X125677142Y-116772857D01*
X125629523Y-116677619D01*
X125581904Y-116630000D01*
X125486666Y-116582380D01*
X124820000Y-116582380D02*
X124200952Y-116582380D01*
X124534285Y-116963333D01*
X124391428Y-116963333D01*
X124296190Y-117010952D01*
X124248571Y-117058571D01*
X124200952Y-117153809D01*
X124200952Y-117391904D01*
X124248571Y-117487142D01*
X124296190Y-117534761D01*
X124391428Y-117582380D01*
X124677142Y-117582380D01*
X124772380Y-117534761D01*
X124820000Y-117487142D01*
X123772380Y-117201428D02*
X123010476Y-117201428D01*
X122343809Y-116582380D02*
X122248571Y-116582380D01*
X122153333Y-116630000D01*
X122105714Y-116677619D01*
X122058095Y-116772857D01*
X122010476Y-116963333D01*
X122010476Y-117201428D01*
X122058095Y-117391904D01*
X122105714Y-117487142D01*
X122153333Y-117534761D01*
X122248571Y-117582380D01*
X122343809Y-117582380D01*
X122439047Y-117534761D01*
X122486666Y-117487142D01*
X122534285Y-117391904D01*
X122581904Y-117201428D01*
X122581904Y-116963333D01*
X122534285Y-116772857D01*
X122486666Y-116677619D01*
X122439047Y-116630000D01*
X122343809Y-116582380D01*
X121058095Y-117582380D02*
X121629523Y-117582380D01*
X121343809Y-117582380D02*
X121343809Y-116582380D01*
X121439047Y-116725238D01*
X121534285Y-116820476D01*
X121629523Y-116868095D01*
D12*
X138724523Y-124842380D02*
X139752619Y-124842380D01*
X139873571Y-124902857D01*
X139934047Y-124963333D01*
X139994523Y-125084285D01*
X139994523Y-125326190D01*
X139934047Y-125447142D01*
X139873571Y-125507619D01*
X139752619Y-125568095D01*
X138724523Y-125568095D01*
X138724523Y-126051904D02*
X138724523Y-126898571D01*
X139994523Y-126354285D01*
X157674523Y-125352380D02*
X158702619Y-125352380D01*
X158823571Y-125412857D01*
X158884047Y-125473333D01*
X158944523Y-125594285D01*
X158944523Y-125836190D01*
X158884047Y-125957142D01*
X158823571Y-126017619D01*
X158702619Y-126078095D01*
X157674523Y-126078095D01*
X158944523Y-126743333D02*
X158944523Y-126985238D01*
X158884047Y-127106190D01*
X158823571Y-127166666D01*
X158642142Y-127287619D01*
X158400238Y-127348095D01*
X157916428Y-127348095D01*
X157795476Y-127287619D01*
X157735000Y-127227142D01*
X157674523Y-127106190D01*
X157674523Y-126864285D01*
X157735000Y-126743333D01*
X157795476Y-126682857D01*
X157916428Y-126622380D01*
X158218809Y-126622380D01*
X158339761Y-126682857D01*
X158400238Y-126743333D01*
X158460714Y-126864285D01*
X158460714Y-127106190D01*
X158400238Y-127227142D01*
X158339761Y-127287619D01*
X158218809Y-127348095D01*
X118094523Y-124842380D02*
X119122619Y-124842380D01*
X119243571Y-124902857D01*
X119304047Y-124963333D01*
X119364523Y-125084285D01*
X119364523Y-125326190D01*
X119304047Y-125447142D01*
X119243571Y-125507619D01*
X119122619Y-125568095D01*
X118094523Y-125568095D01*
X118094523Y-126777619D02*
X118094523Y-126172857D01*
X118699285Y-126112380D01*
X118638809Y-126172857D01*
X118578333Y-126293809D01*
X118578333Y-126596190D01*
X118638809Y-126717142D01*
X118699285Y-126777619D01*
X118820238Y-126838095D01*
X119122619Y-126838095D01*
X119243571Y-126777619D01*
X119304047Y-126717142D01*
X119364523Y-126596190D01*
X119364523Y-126293809D01*
X119304047Y-126172857D01*
X119243571Y-126112380D01*
D10*
X163486857Y-124804333D02*
X163505904Y-124785285D01*
X163524952Y-124728142D01*
X163524952Y-124690047D01*
X163505904Y-124632904D01*
X163467809Y-124594809D01*
X163429714Y-124575761D01*
X163353523Y-124556714D01*
X163296380Y-124556714D01*
X163220190Y-124575761D01*
X163182095Y-124594809D01*
X163144000Y-124632904D01*
X163124952Y-124690047D01*
X163124952Y-124728142D01*
X163144000Y-124785285D01*
X163163047Y-124804333D01*
X163524952Y-124994809D02*
X163524952Y-125071000D01*
X163505904Y-125109095D01*
X163486857Y-125128142D01*
X163429714Y-125166238D01*
X163353523Y-125185285D01*
X163201142Y-125185285D01*
X163163047Y-125166238D01*
X163144000Y-125147190D01*
X163124952Y-125109095D01*
X163124952Y-125032904D01*
X163144000Y-124994809D01*
X163163047Y-124975761D01*
X163201142Y-124956714D01*
X163296380Y-124956714D01*
X163334476Y-124975761D01*
X163353523Y-124994809D01*
X163372571Y-125032904D01*
X163372571Y-125109095D01*
X163353523Y-125147190D01*
X163334476Y-125166238D01*
X163296380Y-125185285D01*
X162842857Y-158943333D02*
X162861904Y-158924285D01*
X162880952Y-158867142D01*
X162880952Y-158829047D01*
X162861904Y-158771904D01*
X162823809Y-158733809D01*
X162785714Y-158714761D01*
X162709523Y-158695714D01*
X162652380Y-158695714D01*
X162576190Y-158714761D01*
X162538095Y-158733809D01*
X162500000Y-158771904D01*
X162480952Y-158829047D01*
X162480952Y-158867142D01*
X162500000Y-158924285D01*
X162519047Y-158943333D01*
X162480952Y-159076666D02*
X162480952Y-159324285D01*
X162633333Y-159190952D01*
X162633333Y-159248095D01*
X162652380Y-159286190D01*
X162671428Y-159305238D01*
X162709523Y-159324285D01*
X162804761Y-159324285D01*
X162842857Y-159305238D01*
X162861904Y-159286190D01*
X162880952Y-159248095D01*
X162880952Y-159133809D01*
X162861904Y-159095714D01*
X162842857Y-159076666D01*
X143212142Y-152900952D02*
X143345476Y-152710476D01*
X143440714Y-152900952D02*
X143440714Y-152500952D01*
X143288333Y-152500952D01*
X143250238Y-152520000D01*
X143231190Y-152539047D01*
X143212142Y-152577142D01*
X143212142Y-152634285D01*
X143231190Y-152672380D01*
X143250238Y-152691428D01*
X143288333Y-152710476D01*
X143440714Y-152710476D01*
X143059761Y-152539047D02*
X143040714Y-152520000D01*
X143002619Y-152500952D01*
X142907380Y-152500952D01*
X142869285Y-152520000D01*
X142850238Y-152539047D01*
X142831190Y-152577142D01*
X142831190Y-152615238D01*
X142850238Y-152672380D01*
X143078809Y-152900952D01*
X142831190Y-152900952D01*
X142488333Y-152500952D02*
X142564523Y-152500952D01*
X142602619Y-152520000D01*
X142621666Y-152539047D01*
X142659761Y-152596190D01*
X142678809Y-152672380D01*
X142678809Y-152824761D01*
X142659761Y-152862857D01*
X142640714Y-152881904D01*
X142602619Y-152900952D01*
X142526428Y-152900952D01*
X142488333Y-152881904D01*
X142469285Y-152862857D01*
X142450238Y-152824761D01*
X142450238Y-152729523D01*
X142469285Y-152691428D01*
X142488333Y-152672380D01*
X142526428Y-152653333D01*
X142602619Y-152653333D01*
X142640714Y-152672380D01*
X142659761Y-152691428D01*
X142678809Y-152729523D01*
X111780952Y-154767857D02*
X111590476Y-154634523D01*
X111780952Y-154539285D02*
X111380952Y-154539285D01*
X111380952Y-154691666D01*
X111400000Y-154729761D01*
X111419047Y-154748809D01*
X111457142Y-154767857D01*
X111514285Y-154767857D01*
X111552380Y-154748809D01*
X111571428Y-154729761D01*
X111590476Y-154691666D01*
X111590476Y-154539285D01*
X111780952Y-155148809D02*
X111780952Y-154920238D01*
X111780952Y-155034523D02*
X111380952Y-155034523D01*
X111438095Y-154996428D01*
X111476190Y-154958333D01*
X111495238Y-154920238D01*
X111419047Y-155301190D02*
X111400000Y-155320238D01*
X111380952Y-155358333D01*
X111380952Y-155453571D01*
X111400000Y-155491666D01*
X111419047Y-155510714D01*
X111457142Y-155529761D01*
X111495238Y-155529761D01*
X111552380Y-155510714D01*
X111780952Y-155282142D01*
X111780952Y-155529761D01*
D12*
X117846619Y-152744523D02*
X117846619Y-153772619D01*
X117786142Y-153893571D01*
X117725666Y-153954047D01*
X117604714Y-154014523D01*
X117362809Y-154014523D01*
X117241857Y-153954047D01*
X117181380Y-153893571D01*
X117120904Y-153772619D01*
X117120904Y-152744523D01*
X115850904Y-154014523D02*
X116576619Y-154014523D01*
X116213761Y-154014523D02*
X116213761Y-152744523D01*
X116334714Y-152925952D01*
X116455666Y-153046904D01*
X116576619Y-153107380D01*
X157327619Y-152794523D02*
X157327619Y-153822619D01*
X157267142Y-153943571D01*
X157206666Y-154004047D01*
X157085714Y-154064523D01*
X156843809Y-154064523D01*
X156722857Y-154004047D01*
X156662380Y-153943571D01*
X156601904Y-153822619D01*
X156601904Y-152794523D01*
X156118095Y-152794523D02*
X155331904Y-152794523D01*
X155755238Y-153278333D01*
X155573809Y-153278333D01*
X155452857Y-153338809D01*
X155392380Y-153399285D01*
X155331904Y-153520238D01*
X155331904Y-153822619D01*
X155392380Y-153943571D01*
X155452857Y-154004047D01*
X155573809Y-154064523D01*
X155936666Y-154064523D01*
X156057619Y-154004047D01*
X156118095Y-153943571D01*
X138437619Y-152794523D02*
X138437619Y-153822619D01*
X138377142Y-153943571D01*
X138316666Y-154004047D01*
X138195714Y-154064523D01*
X137953809Y-154064523D01*
X137832857Y-154004047D01*
X137772380Y-153943571D01*
X137711904Y-153822619D01*
X137711904Y-152794523D01*
X137167619Y-152915476D02*
X137107142Y-152855000D01*
X136986190Y-152794523D01*
X136683809Y-152794523D01*
X136562857Y-152855000D01*
X136502380Y-152915476D01*
X136441904Y-153036428D01*
X136441904Y-153157380D01*
X136502380Y-153338809D01*
X137228095Y-154064523D01*
X136441904Y-154064523D01*
D10*
X162162142Y-152900952D02*
X162295476Y-152710476D01*
X162390714Y-152900952D02*
X162390714Y-152500952D01*
X162238333Y-152500952D01*
X162200238Y-152520000D01*
X162181190Y-152539047D01*
X162162142Y-152577142D01*
X162162142Y-152634285D01*
X162181190Y-152672380D01*
X162200238Y-152691428D01*
X162238333Y-152710476D01*
X162390714Y-152710476D01*
X162028809Y-152500952D02*
X161781190Y-152500952D01*
X161914523Y-152653333D01*
X161857380Y-152653333D01*
X161819285Y-152672380D01*
X161800238Y-152691428D01*
X161781190Y-152729523D01*
X161781190Y-152824761D01*
X161800238Y-152862857D01*
X161819285Y-152881904D01*
X161857380Y-152900952D01*
X161971666Y-152900952D01*
X162009761Y-152881904D01*
X162028809Y-152862857D01*
X161438333Y-152500952D02*
X161514523Y-152500952D01*
X161552619Y-152520000D01*
X161571666Y-152539047D01*
X161609761Y-152596190D01*
X161628809Y-152672380D01*
X161628809Y-152824761D01*
X161609761Y-152862857D01*
X161590714Y-152881904D01*
X161552619Y-152900952D01*
X161476428Y-152900952D01*
X161438333Y-152881904D01*
X161419285Y-152862857D01*
X161400238Y-152824761D01*
X161400238Y-152729523D01*
X161419285Y-152691428D01*
X161438333Y-152672380D01*
X161476428Y-152653333D01*
X161552619Y-152653333D01*
X161590714Y-152672380D01*
X161609761Y-152691428D01*
X161628809Y-152729523D01*
X122542142Y-152830952D02*
X122675476Y-152640476D01*
X122770714Y-152830952D02*
X122770714Y-152430952D01*
X122618333Y-152430952D01*
X122580238Y-152450000D01*
X122561190Y-152469047D01*
X122542142Y-152507142D01*
X122542142Y-152564285D01*
X122561190Y-152602380D01*
X122580238Y-152621428D01*
X122618333Y-152640476D01*
X122770714Y-152640476D01*
X122161190Y-152830952D02*
X122389761Y-152830952D01*
X122275476Y-152830952D02*
X122275476Y-152430952D01*
X122313571Y-152488095D01*
X122351666Y-152526190D01*
X122389761Y-152545238D01*
X121818333Y-152430952D02*
X121894523Y-152430952D01*
X121932619Y-152450000D01*
X121951666Y-152469047D01*
X121989761Y-152526190D01*
X122008809Y-152602380D01*
X122008809Y-152754761D01*
X121989761Y-152792857D01*
X121970714Y-152811904D01*
X121932619Y-152830952D01*
X121856428Y-152830952D01*
X121818333Y-152811904D01*
X121799285Y-152792857D01*
X121780238Y-152754761D01*
X121780238Y-152659523D01*
X121799285Y-152621428D01*
X121818333Y-152602380D01*
X121856428Y-152583333D01*
X121932619Y-152583333D01*
X121970714Y-152602380D01*
X121989761Y-152621428D01*
X122008809Y-152659523D01*
X143192142Y-154450952D02*
X143325476Y-154260476D01*
X143420714Y-154450952D02*
X143420714Y-154050952D01*
X143268333Y-154050952D01*
X143230238Y-154070000D01*
X143211190Y-154089047D01*
X143192142Y-154127142D01*
X143192142Y-154184285D01*
X143211190Y-154222380D01*
X143230238Y-154241428D01*
X143268333Y-154260476D01*
X143420714Y-154260476D01*
X143039761Y-154089047D02*
X143020714Y-154070000D01*
X142982619Y-154050952D01*
X142887380Y-154050952D01*
X142849285Y-154070000D01*
X142830238Y-154089047D01*
X142811190Y-154127142D01*
X142811190Y-154165238D01*
X142830238Y-154222380D01*
X143058809Y-154450952D01*
X142811190Y-154450952D01*
X142677857Y-154050952D02*
X142411190Y-154050952D01*
X142582619Y-154450952D01*
X132530952Y-154787857D02*
X132340476Y-154654523D01*
X132530952Y-154559285D02*
X132130952Y-154559285D01*
X132130952Y-154711666D01*
X132150000Y-154749761D01*
X132169047Y-154768809D01*
X132207142Y-154787857D01*
X132264285Y-154787857D01*
X132302380Y-154768809D01*
X132321428Y-154749761D01*
X132340476Y-154711666D01*
X132340476Y-154559285D01*
X132169047Y-154940238D02*
X132150000Y-154959285D01*
X132130952Y-154997380D01*
X132130952Y-155092619D01*
X132150000Y-155130714D01*
X132169047Y-155149761D01*
X132207142Y-155168809D01*
X132245238Y-155168809D01*
X132302380Y-155149761D01*
X132530952Y-154921190D01*
X132530952Y-155168809D01*
X132169047Y-155321190D02*
X132150000Y-155340238D01*
X132130952Y-155378333D01*
X132130952Y-155473571D01*
X132150000Y-155511666D01*
X132169047Y-155530714D01*
X132207142Y-155549761D01*
X132245238Y-155549761D01*
X132302380Y-155530714D01*
X132530952Y-155302142D01*
X132530952Y-155549761D01*
X123372857Y-158963333D02*
X123391904Y-158944285D01*
X123410952Y-158887142D01*
X123410952Y-158849047D01*
X123391904Y-158791904D01*
X123353809Y-158753809D01*
X123315714Y-158734761D01*
X123239523Y-158715714D01*
X123182380Y-158715714D01*
X123106190Y-158734761D01*
X123068095Y-158753809D01*
X123030000Y-158791904D01*
X123010952Y-158849047D01*
X123010952Y-158887142D01*
X123030000Y-158944285D01*
X123049047Y-158963333D01*
X123410952Y-159344285D02*
X123410952Y-159115714D01*
X123410952Y-159230000D02*
X123010952Y-159230000D01*
X123068095Y-159191904D01*
X123106190Y-159153809D01*
X123125238Y-159115714D01*
X132510952Y-151747857D02*
X132320476Y-151614523D01*
X132510952Y-151519285D02*
X132110952Y-151519285D01*
X132110952Y-151671666D01*
X132130000Y-151709761D01*
X132149047Y-151728809D01*
X132187142Y-151747857D01*
X132244285Y-151747857D01*
X132282380Y-151728809D01*
X132301428Y-151709761D01*
X132320476Y-151671666D01*
X132320476Y-151519285D01*
X132149047Y-151900238D02*
X132130000Y-151919285D01*
X132110952Y-151957380D01*
X132110952Y-152052619D01*
X132130000Y-152090714D01*
X132149047Y-152109761D01*
X132187142Y-152128809D01*
X132225238Y-152128809D01*
X132282380Y-152109761D01*
X132510952Y-151881190D01*
X132510952Y-152128809D01*
X132110952Y-152262142D02*
X132110952Y-152509761D01*
X132263333Y-152376428D01*
X132263333Y-152433571D01*
X132282380Y-152471666D01*
X132301428Y-152490714D01*
X132339523Y-152509761D01*
X132434761Y-152509761D01*
X132472857Y-152490714D01*
X132491904Y-152471666D01*
X132510952Y-152433571D01*
X132510952Y-152319285D01*
X132491904Y-152281190D01*
X132472857Y-152262142D01*
X151330952Y-154787857D02*
X151140476Y-154654523D01*
X151330952Y-154559285D02*
X150930952Y-154559285D01*
X150930952Y-154711666D01*
X150950000Y-154749761D01*
X150969047Y-154768809D01*
X151007142Y-154787857D01*
X151064285Y-154787857D01*
X151102380Y-154768809D01*
X151121428Y-154749761D01*
X151140476Y-154711666D01*
X151140476Y-154559285D01*
X150930952Y-154921190D02*
X150930952Y-155168809D01*
X151083333Y-155035476D01*
X151083333Y-155092619D01*
X151102380Y-155130714D01*
X151121428Y-155149761D01*
X151159523Y-155168809D01*
X151254761Y-155168809D01*
X151292857Y-155149761D01*
X151311904Y-155130714D01*
X151330952Y-155092619D01*
X151330952Y-154978333D01*
X151311904Y-154940238D01*
X151292857Y-154921190D01*
X150969047Y-155321190D02*
X150950000Y-155340238D01*
X150930952Y-155378333D01*
X150930952Y-155473571D01*
X150950000Y-155511666D01*
X150969047Y-155530714D01*
X151007142Y-155549761D01*
X151045238Y-155549761D01*
X151102380Y-155530714D01*
X151330952Y-155302142D01*
X151330952Y-155549761D01*
X143942857Y-158943333D02*
X143961904Y-158924285D01*
X143980952Y-158867142D01*
X143980952Y-158829047D01*
X143961904Y-158771904D01*
X143923809Y-158733809D01*
X143885714Y-158714761D01*
X143809523Y-158695714D01*
X143752380Y-158695714D01*
X143676190Y-158714761D01*
X143638095Y-158733809D01*
X143600000Y-158771904D01*
X143580952Y-158829047D01*
X143580952Y-158867142D01*
X143600000Y-158924285D01*
X143619047Y-158943333D01*
X143619047Y-159095714D02*
X143600000Y-159114761D01*
X143580952Y-159152857D01*
X143580952Y-159248095D01*
X143600000Y-159286190D01*
X143619047Y-159305238D01*
X143657142Y-159324285D01*
X143695238Y-159324285D01*
X143752380Y-159305238D01*
X143980952Y-159076666D01*
X143980952Y-159324285D01*
X151340952Y-151747857D02*
X151150476Y-151614523D01*
X151340952Y-151519285D02*
X150940952Y-151519285D01*
X150940952Y-151671666D01*
X150960000Y-151709761D01*
X150979047Y-151728809D01*
X151017142Y-151747857D01*
X151074285Y-151747857D01*
X151112380Y-151728809D01*
X151131428Y-151709761D01*
X151150476Y-151671666D01*
X151150476Y-151519285D01*
X150940952Y-151881190D02*
X150940952Y-152128809D01*
X151093333Y-151995476D01*
X151093333Y-152052619D01*
X151112380Y-152090714D01*
X151131428Y-152109761D01*
X151169523Y-152128809D01*
X151264761Y-152128809D01*
X151302857Y-152109761D01*
X151321904Y-152090714D01*
X151340952Y-152052619D01*
X151340952Y-151938333D01*
X151321904Y-151900238D01*
X151302857Y-151881190D01*
X150940952Y-152262142D02*
X150940952Y-152509761D01*
X151093333Y-152376428D01*
X151093333Y-152433571D01*
X151112380Y-152471666D01*
X151131428Y-152490714D01*
X151169523Y-152509761D01*
X151264761Y-152509761D01*
X151302857Y-152490714D01*
X151321904Y-152471666D01*
X151340952Y-152433571D01*
X151340952Y-152319285D01*
X151321904Y-152281190D01*
X151302857Y-152262142D01*
X111770952Y-151662857D02*
X111580476Y-151529523D01*
X111770952Y-151434285D02*
X111370952Y-151434285D01*
X111370952Y-151586666D01*
X111390000Y-151624761D01*
X111409047Y-151643809D01*
X111447142Y-151662857D01*
X111504285Y-151662857D01*
X111542380Y-151643809D01*
X111561428Y-151624761D01*
X111580476Y-151586666D01*
X111580476Y-151434285D01*
X111770952Y-152043809D02*
X111770952Y-151815238D01*
X111770952Y-151929523D02*
X111370952Y-151929523D01*
X111428095Y-151891428D01*
X111466190Y-151853333D01*
X111485238Y-151815238D01*
X111370952Y-152177142D02*
X111370952Y-152424761D01*
X111523333Y-152291428D01*
X111523333Y-152348571D01*
X111542380Y-152386666D01*
X111561428Y-152405714D01*
X111599523Y-152424761D01*
X111694761Y-152424761D01*
X111732857Y-152405714D01*
X111751904Y-152386666D01*
X111770952Y-152348571D01*
X111770952Y-152234285D01*
X111751904Y-152196190D01*
X111732857Y-152177142D01*
X162142142Y-154450952D02*
X162275476Y-154260476D01*
X162370714Y-154450952D02*
X162370714Y-154050952D01*
X162218333Y-154050952D01*
X162180238Y-154070000D01*
X162161190Y-154089047D01*
X162142142Y-154127142D01*
X162142142Y-154184285D01*
X162161190Y-154222380D01*
X162180238Y-154241428D01*
X162218333Y-154260476D01*
X162370714Y-154260476D01*
X162008809Y-154050952D02*
X161761190Y-154050952D01*
X161894523Y-154203333D01*
X161837380Y-154203333D01*
X161799285Y-154222380D01*
X161780238Y-154241428D01*
X161761190Y-154279523D01*
X161761190Y-154374761D01*
X161780238Y-154412857D01*
X161799285Y-154431904D01*
X161837380Y-154450952D01*
X161951666Y-154450952D01*
X161989761Y-154431904D01*
X162008809Y-154412857D01*
X161627857Y-154050952D02*
X161361190Y-154050952D01*
X161532619Y-154450952D01*
X122537142Y-154370952D02*
X122670476Y-154180476D01*
X122765714Y-154370952D02*
X122765714Y-153970952D01*
X122613333Y-153970952D01*
X122575238Y-153990000D01*
X122556190Y-154009047D01*
X122537142Y-154047142D01*
X122537142Y-154104285D01*
X122556190Y-154142380D01*
X122575238Y-154161428D01*
X122613333Y-154180476D01*
X122765714Y-154180476D01*
X122156190Y-154370952D02*
X122384761Y-154370952D01*
X122270476Y-154370952D02*
X122270476Y-153970952D01*
X122308571Y-154028095D01*
X122346666Y-154066190D01*
X122384761Y-154085238D01*
X122022857Y-153970952D02*
X121756190Y-153970952D01*
X121927619Y-154370952D01*
D13*
X123890000Y-125980000D02*
X123090000Y-125980000D01*
X123890000Y-124380000D02*
X123890000Y-125980000D01*
X123090000Y-125980000D02*
X123090000Y-124380000D01*
X123090000Y-124380000D02*
X123890000Y-124380000D01*
X143740000Y-124400000D02*
X144540000Y-124400000D01*
X143740000Y-126000000D02*
X143740000Y-124400000D01*
X144540000Y-124400000D02*
X144540000Y-126000000D01*
X144540000Y-126000000D02*
X143740000Y-126000000D01*
X105730000Y-115055000D02*
X162360000Y-115055000D01*
X162360000Y-115055000D02*
X162360000Y-111305000D01*
X105730000Y-101855000D02*
X105730000Y-115055000D01*
X162360000Y-111305000D02*
X163160000Y-111305000D01*
X162360000Y-105605000D02*
X162360000Y-101855000D01*
X163160000Y-111305000D02*
X163160000Y-105605000D01*
X163160000Y-105605000D02*
X162360000Y-105605000D01*
X162360000Y-101855000D02*
X105730000Y-101855000D01*
D14*
X163895000Y-105755000D02*
G75*
G03*
X163895000Y-105755000I-100000J0D01*
G01*
D13*
X141420000Y-123810000D02*
X137420000Y-123810000D01*
X141420000Y-127810000D02*
X141420000Y-123810000D01*
X140920000Y-127810000D02*
X141420000Y-127310000D01*
X137420000Y-127810000D02*
X141420000Y-127810000D01*
X137420000Y-123810000D02*
X137420000Y-127810000D01*
X159870000Y-128320000D02*
X160370000Y-127820000D01*
X156370000Y-128320000D02*
X160370000Y-128320000D01*
X160370000Y-124320000D02*
X156370000Y-124320000D01*
X156370000Y-124320000D02*
X156370000Y-128320000D01*
X160370000Y-128320000D02*
X160370000Y-124320000D01*
X120290000Y-127810000D02*
X120790000Y-127310000D01*
X120790000Y-123810000D02*
X116790000Y-123810000D01*
X120790000Y-127810000D02*
X120790000Y-123810000D01*
X116790000Y-127810000D02*
X120790000Y-127810000D01*
X116790000Y-123810000D02*
X116790000Y-127810000D01*
X163490000Y-124960000D02*
X163490000Y-126560000D01*
X162690000Y-124960000D02*
X163490000Y-124960000D01*
X163490000Y-126560000D02*
X162690000Y-126560000D01*
X162690000Y-126560000D02*
X162690000Y-124960000D01*
X163100000Y-159810000D02*
X162300000Y-159810000D01*
X162300000Y-159810000D02*
X162300000Y-158210000D01*
X162300000Y-158210000D02*
X163100000Y-158210000D01*
X163100000Y-158210000D02*
X163100000Y-159810000D01*
X143755000Y-153132500D02*
X143755000Y-152307500D01*
X142155000Y-152307500D02*
X142155000Y-153132500D01*
X142155000Y-153132500D02*
X143755000Y-153132500D01*
X143755000Y-152307500D02*
X142155000Y-152307500D01*
X112012500Y-154225000D02*
X111187500Y-154225000D01*
X111187500Y-155825000D02*
X112012500Y-155825000D01*
X111187500Y-154225000D02*
X111187500Y-155825000D01*
X112012500Y-155825000D02*
X112012500Y-154225000D01*
X118827000Y-150988000D02*
X114931000Y-150988000D01*
X114931000Y-155892000D02*
X118827000Y-155892000D01*
X118827000Y-155892000D02*
X118827000Y-150988000D01*
X114931000Y-150988000D02*
X114931000Y-155892000D01*
X114931000Y-154622000D02*
X116201000Y-155892000D01*
X158308000Y-151038000D02*
X154412000Y-151038000D01*
X154412000Y-151038000D02*
X154412000Y-155942000D01*
X154412000Y-154672000D02*
X155682000Y-155942000D01*
X154412000Y-155942000D02*
X158308000Y-155942000D01*
X158308000Y-155942000D02*
X158308000Y-151038000D01*
X135522000Y-151038000D02*
X135522000Y-155942000D01*
X135522000Y-155942000D02*
X139418000Y-155942000D01*
X135522000Y-154672000D02*
X136792000Y-155942000D01*
X139418000Y-155942000D02*
X139418000Y-151038000D01*
X139418000Y-151038000D02*
X135522000Y-151038000D01*
X162705000Y-153132500D02*
X162705000Y-152307500D01*
X161105000Y-153132500D02*
X162705000Y-153132500D01*
X162705000Y-152307500D02*
X161105000Y-152307500D01*
X161105000Y-152307500D02*
X161105000Y-153132500D01*
X123085000Y-153062500D02*
X123085000Y-152237500D01*
X123085000Y-152237500D02*
X121485000Y-152237500D01*
X121485000Y-153062500D02*
X123085000Y-153062500D01*
X121485000Y-152237500D02*
X121485000Y-153062500D01*
X143735000Y-153857500D02*
X142135000Y-153857500D01*
X143735000Y-154682500D02*
X143735000Y-153857500D01*
X142135000Y-154682500D02*
X143735000Y-154682500D01*
X142135000Y-153857500D02*
X142135000Y-154682500D01*
X131937500Y-154245000D02*
X131937500Y-155845000D01*
X132762500Y-155845000D02*
X132762500Y-154245000D01*
X132762500Y-154245000D02*
X131937500Y-154245000D01*
X131937500Y-155845000D02*
X132762500Y-155845000D01*
X123630000Y-158230000D02*
X123630000Y-159830000D01*
X122830000Y-158230000D02*
X123630000Y-158230000D01*
X122830000Y-159830000D02*
X122830000Y-158230000D01*
X123630000Y-159830000D02*
X122830000Y-159830000D01*
X131917500Y-151205000D02*
X131917500Y-152805000D01*
X132742500Y-152805000D02*
X132742500Y-151205000D01*
X131917500Y-152805000D02*
X132742500Y-152805000D01*
X132742500Y-151205000D02*
X131917500Y-151205000D01*
X150737500Y-155845000D02*
X151562500Y-155845000D01*
X151562500Y-155845000D02*
X151562500Y-154245000D01*
X150737500Y-154245000D02*
X150737500Y-155845000D01*
X151562500Y-154245000D02*
X150737500Y-154245000D01*
X143400000Y-158210000D02*
X144200000Y-158210000D01*
X144200000Y-158210000D02*
X144200000Y-159810000D01*
X143400000Y-159810000D02*
X143400000Y-158210000D01*
X144200000Y-159810000D02*
X143400000Y-159810000D01*
X151572500Y-152805000D02*
X151572500Y-151205000D01*
X150747500Y-152805000D02*
X151572500Y-152805000D01*
X151572500Y-151205000D02*
X150747500Y-151205000D01*
X150747500Y-151205000D02*
X150747500Y-152805000D01*
X111177500Y-152720000D02*
X112002500Y-152720000D01*
X112002500Y-152720000D02*
X112002500Y-151120000D01*
X112002500Y-151120000D02*
X111177500Y-151120000D01*
X111177500Y-151120000D02*
X111177500Y-152720000D01*
X162685000Y-153857500D02*
X161085000Y-153857500D01*
X161085000Y-153857500D02*
X161085000Y-154682500D01*
X162685000Y-154682500D02*
X162685000Y-153857500D01*
X161085000Y-154682500D02*
X162685000Y-154682500D01*
X123080000Y-154602500D02*
X123080000Y-153777500D01*
X123080000Y-153777500D02*
X121480000Y-153777500D01*
X121480000Y-153777500D02*
X121480000Y-154602500D01*
X121480000Y-154602500D02*
X123080000Y-154602500D01*
M02*
