G04 #@! TF.GenerationSoftware,KiCad,Pcbnew,(6.0.4-0)*
G04 #@! TF.CreationDate,2022-07-08T14:42:32+02:00*
G04 #@! TF.ProjectId,adapter_hybrid_assistor_hpc_3HDMI,61646170-7465-4725-9f68-79627269645f,rev?*
G04 #@! TF.SameCoordinates,Original*
G04 #@! TF.FileFunction,Copper,L5,Inr*
G04 #@! TF.FilePolarity,Positive*
%FSLAX46Y46*%
G04 Gerber Fmt 4.6, Leading zero omitted, Abs format (unit mm)*
G04 Created by KiCad (PCBNEW (6.0.4-0)) date 2022-07-08 14:42:32*
%MOMM*%
%LPD*%
G01*
G04 APERTURE LIST*
G04 #@! TA.AperFunction,ComponentPad*
%ADD10C,4.000000*%
G04 #@! TD*
G04 #@! TA.AperFunction,ComponentPad*
%ADD11C,1.995000*%
G04 #@! TD*
G04 #@! TA.AperFunction,ViaPad*
%ADD12C,0.800000*%
G04 #@! TD*
G04 #@! TA.AperFunction,Conductor*
%ADD13C,0.200000*%
G04 #@! TD*
G04 APERTURE END LIST*
D10*
X165683000Y-110458000D03*
X103303000Y-110458000D03*
D11*
X106189000Y-167050000D03*
X120689000Y-167050000D03*
X105589000Y-171950000D03*
X121289000Y-171950000D03*
X147369000Y-167060000D03*
X161869000Y-167060000D03*
X146769000Y-171960000D03*
X162469000Y-171960000D03*
X126819000Y-167050000D03*
X141319000Y-167050000D03*
X126219000Y-171950000D03*
X141919000Y-171950000D03*
D12*
X164120000Y-158870000D03*
X107030000Y-114310000D03*
X132370000Y-158974000D03*
X145510000Y-158974000D03*
X151170000Y-158974000D03*
X111580000Y-158974000D03*
X125146000Y-158974000D03*
X166040000Y-151100000D03*
X166040000Y-138400000D03*
X115550000Y-126570000D03*
X163090000Y-127880000D03*
X102540000Y-118080000D03*
X102540000Y-125700000D03*
X161090000Y-137530000D03*
X131670000Y-136470000D03*
X143800000Y-161460000D03*
X102540000Y-163800000D03*
X155150000Y-127090000D03*
X162680000Y-161630000D03*
X123490000Y-127360000D03*
X132330000Y-149630000D03*
X150790000Y-136470000D03*
X111540000Y-149560000D03*
X121320000Y-137550000D03*
X102540000Y-151100000D03*
X166040000Y-163800000D03*
X123220000Y-161420000D03*
X108509000Y-104110000D03*
X102540000Y-138400000D03*
X136200000Y-126570000D03*
X166040000Y-125700000D03*
X111020000Y-136490000D03*
X144140000Y-127360000D03*
X159182000Y-114087000D03*
X166040000Y-118080000D03*
X141970000Y-137530000D03*
X151110000Y-149620000D03*
X121290000Y-136500000D03*
X161280000Y-156720000D03*
X136230000Y-125040000D03*
X141940000Y-136480000D03*
X161790000Y-127630000D03*
X110280000Y-108530000D03*
X161060000Y-136480000D03*
X142330000Y-156690000D03*
X144140000Y-122970000D03*
X123490000Y-122970000D03*
X130960000Y-149630000D03*
X131660000Y-137960000D03*
X124750000Y-152650000D03*
X110170000Y-149560000D03*
X155180000Y-125560000D03*
X115580000Y-125040000D03*
X122190000Y-127110000D03*
X163090000Y-123490000D03*
X142840000Y-127110000D03*
X150780000Y-137960000D03*
X121770000Y-156500000D03*
X164000000Y-152760000D03*
X111010000Y-137980000D03*
X149640000Y-151090000D03*
X145540000Y-152720000D03*
X118190000Y-122610000D03*
X126230000Y-108800000D03*
X109830489Y-146399511D03*
X114810000Y-108810000D03*
X108689511Y-146410489D03*
X113540000Y-108810000D03*
X145280000Y-108800000D03*
X138840000Y-122610000D03*
X140020000Y-122620000D03*
X147830000Y-108800000D03*
X141180000Y-122630000D03*
X149100000Y-108800000D03*
X118610000Y-108800000D03*
X113720000Y-133740000D03*
X117350000Y-108800000D03*
X112590000Y-133750000D03*
X122440000Y-108800000D03*
X116060000Y-133740000D03*
X121150000Y-108800000D03*
X114900000Y-133750000D03*
X117060000Y-122600000D03*
X124960000Y-108800000D03*
X140210000Y-108800000D03*
X135550000Y-133730000D03*
X133240000Y-133730000D03*
X136400000Y-108800000D03*
X134370000Y-133720000D03*
X137670000Y-108800000D03*
X141480000Y-108800000D03*
X136710000Y-133720000D03*
X144030000Y-108800000D03*
X137710000Y-122600000D03*
X132590000Y-108800000D03*
X129479511Y-146480489D03*
X130620489Y-146469511D03*
X133860000Y-108800000D03*
X120530000Y-129010000D03*
X120530000Y-162460000D03*
X119370000Y-129020000D03*
X119370000Y-162460000D03*
X118190000Y-162460000D03*
X118190000Y-129010000D03*
X117060000Y-162470000D03*
X117060000Y-129020000D03*
X116120000Y-140720000D03*
X116120000Y-161450000D03*
X114960000Y-161450000D03*
X114960000Y-140730000D03*
X113780000Y-161450000D03*
X113780000Y-140720000D03*
X112650000Y-140730000D03*
X112650000Y-161460000D03*
X111190000Y-162450000D03*
X109260000Y-162450000D03*
X129910000Y-162490000D03*
X131840000Y-162490000D03*
X133300000Y-140710000D03*
X133300000Y-161500000D03*
X134430000Y-140700000D03*
X134430000Y-161490000D03*
X135610000Y-161490000D03*
X135610000Y-140710000D03*
X136770000Y-161490000D03*
X136770000Y-140700000D03*
X137710000Y-162510000D03*
X137710000Y-129020000D03*
X138840000Y-129010000D03*
X138840000Y-162500000D03*
X140020000Y-129020000D03*
X140020000Y-162500000D03*
X141180000Y-129010000D03*
X141180000Y-162500000D03*
X130040000Y-108800000D03*
X120530000Y-122630000D03*
X119370000Y-122620000D03*
X128780000Y-108800000D03*
X146990000Y-107610000D03*
X160130000Y-123150000D03*
X158970000Y-123140000D03*
X145880000Y-107610000D03*
X143140000Y-107610000D03*
X157790000Y-123130000D03*
X156660000Y-123120000D03*
X142080000Y-107610000D03*
X155830000Y-133720000D03*
X139370000Y-107610000D03*
X154670000Y-133730000D03*
X138300000Y-107610000D03*
X153490000Y-133720000D03*
X131780000Y-107610000D03*
X130750000Y-107610000D03*
X152360000Y-133730000D03*
X128160000Y-107390000D03*
X162950000Y-149910000D03*
X161500000Y-149880000D03*
X126970000Y-107610000D03*
X151640000Y-112640000D03*
X150370000Y-112640000D03*
X147830000Y-112640000D03*
X136400000Y-112640000D03*
X135130000Y-112640000D03*
X128780000Y-112640000D03*
X131320000Y-112640000D03*
X132590000Y-112640000D03*
X140210000Y-112640000D03*
X138940000Y-112640000D03*
X144020000Y-112640000D03*
X142750000Y-112640000D03*
X146560000Y-112640000D03*
X123700000Y-112640000D03*
X119890000Y-112640000D03*
X121160000Y-112640000D03*
X124970000Y-112640000D03*
X127510000Y-112640000D03*
X116080000Y-112640000D03*
X117350000Y-112640000D03*
X160130000Y-129530000D03*
X160160000Y-162440000D03*
X159000000Y-162440000D03*
X158970000Y-129540000D03*
X157790000Y-129530000D03*
X157820000Y-162440000D03*
X156660000Y-129540000D03*
X156690000Y-162450000D03*
X155750000Y-161430000D03*
X155890000Y-140700000D03*
X154590000Y-161430000D03*
X154730000Y-140710000D03*
X153410000Y-161430000D03*
X153550000Y-140700000D03*
X152280000Y-161440000D03*
X152420000Y-140710000D03*
X150820000Y-162430000D03*
X148890000Y-162430000D03*
D13*
X141930000Y-117550000D02*
X138840000Y-120640000D01*
X141930000Y-112150000D02*
X141930000Y-117550000D01*
X138840000Y-120640000D02*
X138840000Y-122610000D01*
X145280000Y-108800000D02*
X141930000Y-112150000D01*
X145372497Y-111257503D02*
X145372497Y-116162497D01*
X147830000Y-108800000D02*
X145372497Y-111257503D01*
X140020000Y-121514994D02*
X140020000Y-122620000D01*
X145372497Y-116162497D02*
X140020000Y-121514994D01*
X149100000Y-108800000D02*
X145860489Y-112039511D01*
X145860489Y-116249511D02*
X141190000Y-120920000D01*
X141190000Y-120920000D02*
X141190000Y-122620000D01*
X141190000Y-122620000D02*
X141180000Y-122630000D01*
X145860489Y-112039511D02*
X145860489Y-116249511D01*
X135100969Y-133280969D02*
X135100969Y-122684013D01*
X135550000Y-133730000D02*
X135100969Y-133280969D01*
X135100969Y-122684013D02*
X137840969Y-119944013D01*
X137840969Y-119944013D02*
X137840969Y-111169031D01*
X137840969Y-111169031D02*
X140210000Y-108800000D01*
X133640000Y-133330000D02*
X133240000Y-133730000D01*
X136400000Y-109815735D02*
X133640000Y-112575735D01*
X133640000Y-112575735D02*
X133640000Y-133330000D01*
X136400000Y-108800000D02*
X136400000Y-109815735D01*
X134039520Y-112741221D02*
X134039520Y-133389520D01*
X137670000Y-108800000D02*
X137670000Y-109110741D01*
X137670000Y-109110741D02*
X134039520Y-112741221D01*
X134039520Y-133389520D02*
X134370000Y-133720000D01*
X138240489Y-112039511D02*
X138240489Y-120109499D01*
X135500489Y-132510489D02*
X136710000Y-133720000D01*
X141480000Y-108800000D02*
X138240489Y-112039511D01*
X138240489Y-120109499D02*
X135500489Y-122849499D01*
X135500489Y-122849499D02*
X135500489Y-132510489D01*
X141530480Y-111299520D02*
X141530480Y-117384514D01*
X141530480Y-117384514D02*
X137710000Y-121204994D01*
X144030000Y-108800000D02*
X141530480Y-111299520D01*
X137710000Y-121204994D02*
X137710000Y-122600000D01*
X129479511Y-146220489D02*
X129479511Y-146480489D01*
X132590000Y-108800000D02*
X129479511Y-111910489D01*
X129479511Y-111910489D02*
X129479511Y-146220489D01*
X130620489Y-112039511D02*
X130620489Y-146469511D01*
X133860000Y-108800000D02*
X130620489Y-112039511D01*
X133670000Y-161130000D02*
X133300000Y-161500000D01*
X133670000Y-141080000D02*
X133670000Y-161130000D01*
X133300000Y-140710000D02*
X133670000Y-141080000D01*
X134410000Y-140700000D02*
X134069520Y-141040480D01*
X134069520Y-141040480D02*
X134069520Y-161129520D01*
X134430000Y-140700000D02*
X134410000Y-140700000D01*
X134069520Y-161129520D02*
X134430000Y-161490000D01*
X136010480Y-141110480D02*
X136010480Y-161089520D01*
X136010480Y-161089520D02*
X135610000Y-161490000D01*
X135610000Y-140710000D02*
X136010480Y-141110480D01*
X136410000Y-161130000D02*
X136770000Y-161490000D01*
X136770000Y-140700000D02*
X136410000Y-141060000D01*
X136410000Y-141060000D02*
X136410000Y-161130000D01*
X138070480Y-162149520D02*
X138070480Y-129380480D01*
X138070480Y-129380480D02*
X137710000Y-129020000D01*
X137710000Y-162510000D02*
X138070480Y-162149520D01*
X138840000Y-129010000D02*
X138470000Y-129380000D01*
X138470000Y-129380000D02*
X138470000Y-162130000D01*
X138470000Y-162130000D02*
X138840000Y-162500000D01*
X140380480Y-129380480D02*
X140020000Y-129020000D01*
X140020000Y-162500000D02*
X140380480Y-162139520D01*
X140380480Y-162139520D02*
X140380480Y-129380480D01*
X140780000Y-162100000D02*
X141180000Y-162500000D01*
X140780000Y-129410000D02*
X140780000Y-162100000D01*
X141180000Y-129010000D02*
X140780000Y-129410000D01*
M02*
