G04 #@! TF.GenerationSoftware,KiCad,Pcbnew,(6.0.4-0)*
G04 #@! TF.CreationDate,2022-11-09T17:11:16+01:00*
G04 #@! TF.ProjectId,adapter_hybrid_assistor_hpc_2HDMI,61646170-7465-4725-9f68-79627269645f,rev?*
G04 #@! TF.SameCoordinates,Original*
G04 #@! TF.FileFunction,Copper,L2,Inr*
G04 #@! TF.FilePolarity,Positive*
%FSLAX46Y46*%
G04 Gerber Fmt 4.6, Leading zero omitted, Abs format (unit mm)*
G04 Created by KiCad (PCBNEW (6.0.4-0)) date 2022-11-09 17:11:16*
%MOMM*%
%LPD*%
G01*
G04 APERTURE LIST*
G04 #@! TA.AperFunction,Profile*
%ADD10C,0.100000*%
G04 #@! TD*
G04 #@! TA.AperFunction,Profile*
%ADD11C,0.050000*%
G04 #@! TD*
G04 #@! TA.AperFunction,ComponentPad*
%ADD12C,4.000000*%
G04 #@! TD*
G04 #@! TA.AperFunction,ComponentPad*
%ADD13C,1.995000*%
G04 #@! TD*
G04 #@! TA.AperFunction,ViaPad*
%ADD14C,0.800000*%
G04 #@! TD*
G04 APERTURE END LIST*
D10*
X100000000Y-100000000D02*
X100000000Y-176500000D01*
X100000000Y-176500000D02*
X169000000Y-176500000D01*
X169000000Y-100000000D02*
X169000000Y-176500000D01*
X100000000Y-100000000D02*
X169000000Y-100000000D01*
D11*
X168050000Y-173800000D02*
G75*
G03*
X168050000Y-173800000I-1350000J0D01*
G01*
X103350000Y-173800000D02*
G75*
G03*
X103350000Y-173800000I-1350000J0D01*
G01*
X104500000Y-110450000D02*
G75*
G03*
X104500000Y-110450000I-1350000J0D01*
G01*
X167200000Y-110450000D02*
G75*
G03*
X167200000Y-110450000I-1350000J0D01*
G01*
X101666666Y-176500000D02*
G75*
G03*
X101666666Y-176500000I-1666666J0D01*
G01*
X97500000Y-176500000D02*
X102500000Y-176500000D01*
X100000000Y-174000000D02*
X100000000Y-179000000D01*
X101666666Y-176500000D02*
G75*
G03*
X101666666Y-176500000I-1666666J0D01*
G01*
X97500000Y-176500000D02*
X102500000Y-176500000D01*
X100000000Y-174000000D02*
X100000000Y-179000000D01*
X101666666Y-176500000D02*
G75*
G03*
X101666666Y-176500000I-1666666J0D01*
G01*
X97500000Y-176500000D02*
X102500000Y-176500000D01*
X100000000Y-174000000D02*
X100000000Y-179000000D01*
D12*
X165683000Y-110458000D03*
X103303000Y-110458000D03*
D13*
X141216000Y-167076000D03*
X155716000Y-167076000D03*
X140616000Y-171976000D03*
X156316000Y-171976000D03*
X114800000Y-167076000D03*
X129300000Y-167076000D03*
X114200000Y-171976000D03*
X129900000Y-171976000D03*
D14*
X106426000Y-148590000D03*
X135382000Y-148590000D03*
X144018000Y-150749000D03*
X104394000Y-116957000D03*
X114973000Y-150711000D03*
X166040000Y-151100000D03*
X166040000Y-138400000D03*
X102540000Y-118080000D03*
X102540000Y-125700000D03*
X120645800Y-160151200D03*
X140335000Y-160045000D03*
X126996000Y-133481000D03*
X145542000Y-160020000D03*
X126238000Y-160147000D03*
X102540000Y-163800000D03*
X118110000Y-154940000D03*
X130302000Y-160147000D03*
X148971000Y-160020000D03*
X145411000Y-133481000D03*
X116967000Y-130810000D03*
X102540000Y-151100000D03*
X166040000Y-163800000D03*
X137795000Y-132207000D03*
X108509000Y-104110000D03*
X102540000Y-138400000D03*
X166040000Y-125700000D03*
X126238000Y-124714000D03*
X122809000Y-160147000D03*
X113919000Y-160045000D03*
X152400000Y-160020000D03*
X148348000Y-124448000D03*
X147193000Y-154178000D03*
X135890000Y-126873000D03*
X159182000Y-114087000D03*
X109513000Y-139739000D03*
X166040000Y-118080000D03*
X135509000Y-130810000D03*
X138557000Y-139700000D03*
X157353000Y-126873000D03*
X156337000Y-160020000D03*
X155829000Y-125683000D03*
X136017000Y-120650000D03*
X126365000Y-122301000D03*
X145415000Y-132080000D03*
X127000000Y-132207000D03*
X118364000Y-139700000D03*
X108331000Y-107940000D03*
X158115000Y-120650000D03*
X127000000Y-134874000D03*
X133858000Y-126873000D03*
X147459000Y-122948000D03*
X135509000Y-136398000D03*
X145415000Y-135128000D03*
X116967000Y-136398000D03*
X114935000Y-148590000D03*
X106553000Y-139700000D03*
X135382000Y-139700000D03*
X143979000Y-148551000D03*
X147193000Y-139827000D03*
X147828000Y-116840000D03*
X136403000Y-116835000D03*
X135128000Y-116840000D03*
X128778000Y-116840000D03*
X131318000Y-116840000D03*
X132583000Y-116835000D03*
X146553000Y-116835000D03*
X127503000Y-116835000D03*
X116078000Y-116967000D03*
X117348000Y-116967000D03*
X157480000Y-160020000D03*
X155067000Y-160020000D03*
X153797000Y-160020000D03*
X151130000Y-160020000D03*
X143002000Y-160020000D03*
X141732000Y-160020000D03*
X114935000Y-160020000D03*
X115951000Y-160020000D03*
X124841000Y-160147000D03*
X127635000Y-160147000D03*
X129032000Y-160147000D03*
X131426000Y-160147000D03*
X151633000Y-116835000D03*
X150373000Y-116835000D03*
G04 #@! TA.AperFunction,Conductor*
G36*
X168433621Y-100604002D02*
G01*
X168480114Y-100657658D01*
X168491500Y-100710000D01*
X168491500Y-172714521D01*
X168471498Y-172782642D01*
X168417842Y-172829135D01*
X168347568Y-172839239D01*
X168282988Y-172809745D01*
X168264149Y-172789380D01*
X168119477Y-172593510D01*
X168116824Y-172589918D01*
X167932187Y-172402358D01*
X167928647Y-172399657D01*
X167928641Y-172399651D01*
X167726506Y-172245386D01*
X167726502Y-172245383D01*
X167722965Y-172242684D01*
X167493332Y-172114084D01*
X167247870Y-172019122D01*
X167243545Y-172018119D01*
X167243540Y-172018118D01*
X167102794Y-171985495D01*
X166991476Y-171959693D01*
X166729267Y-171936983D01*
X166724832Y-171937227D01*
X166724828Y-171937227D01*
X166470916Y-171951200D01*
X166470909Y-171951201D01*
X166466473Y-171951445D01*
X166357938Y-171973034D01*
X166212711Y-172001921D01*
X166212706Y-172001922D01*
X166208339Y-172002791D01*
X166204136Y-172004267D01*
X165964223Y-172088518D01*
X165964220Y-172088519D01*
X165960015Y-172089996D01*
X165956062Y-172092049D01*
X165956056Y-172092052D01*
X165824615Y-172160331D01*
X165726456Y-172211321D01*
X165722841Y-172213904D01*
X165722835Y-172213908D01*
X165619585Y-172287692D01*
X165512322Y-172364344D01*
X165509095Y-172367422D01*
X165509093Y-172367424D01*
X165475311Y-172399651D01*
X165321885Y-172546011D01*
X165158945Y-172752700D01*
X165130529Y-172801622D01*
X165028987Y-172976438D01*
X165028984Y-172976444D01*
X165026753Y-172980285D01*
X165025083Y-172984408D01*
X164930975Y-173216750D01*
X164927947Y-173224225D01*
X164864498Y-173479654D01*
X164837672Y-173741474D01*
X164837847Y-173745925D01*
X164839972Y-173799999D01*
X164839972Y-173800000D01*
X164844694Y-173920176D01*
X164848005Y-174004462D01*
X164895290Y-174263371D01*
X164978584Y-174513034D01*
X165037652Y-174631247D01*
X165076848Y-174709690D01*
X165096225Y-174748470D01*
X165245865Y-174964982D01*
X165424520Y-175158249D01*
X165628623Y-175324415D01*
X165632431Y-175326708D01*
X165632433Y-175326709D01*
X165850288Y-175457868D01*
X165850292Y-175457870D01*
X165854104Y-175460165D01*
X165990026Y-175517721D01*
X166092359Y-175561054D01*
X166092364Y-175561056D01*
X166096462Y-175562791D01*
X166100760Y-175563930D01*
X166100764Y-175563932D01*
X166223662Y-175596517D01*
X166350862Y-175630244D01*
X166612229Y-175661179D01*
X166875347Y-175654978D01*
X166879745Y-175654246D01*
X167130576Y-175612496D01*
X167130580Y-175612495D01*
X167134966Y-175611765D01*
X167139207Y-175610424D01*
X167139210Y-175610423D01*
X167381661Y-175533746D01*
X167381663Y-175533745D01*
X167385907Y-175532403D01*
X167389918Y-175530477D01*
X167389923Y-175530475D01*
X167619143Y-175420405D01*
X167619144Y-175420404D01*
X167623162Y-175418475D01*
X167733187Y-175344958D01*
X167838289Y-175274732D01*
X167838293Y-175274729D01*
X167841997Y-175272254D01*
X167845314Y-175269283D01*
X167845318Y-175269280D01*
X168034729Y-175099629D01*
X168034730Y-175099628D01*
X168038047Y-175096657D01*
X168207398Y-174895189D01*
X168258588Y-174813109D01*
X168311608Y-174765893D01*
X168381738Y-174754837D01*
X168446713Y-174783451D01*
X168485904Y-174842651D01*
X168491500Y-174879786D01*
X168491500Y-175865500D01*
X168471498Y-175933621D01*
X168417842Y-175980114D01*
X168365500Y-175991500D01*
X102216537Y-175991500D01*
X102148416Y-175971498D01*
X102101923Y-175917842D01*
X102097764Y-175907561D01*
X102067552Y-175822243D01*
X102063668Y-175751356D01*
X102098725Y-175689619D01*
X102161596Y-175656637D01*
X102172410Y-175655047D01*
X102175347Y-175654978D01*
X102179743Y-175654246D01*
X102179746Y-175654246D01*
X102430576Y-175612496D01*
X102430580Y-175612495D01*
X102434966Y-175611765D01*
X102439207Y-175610424D01*
X102439210Y-175610423D01*
X102681661Y-175533746D01*
X102681663Y-175533745D01*
X102685907Y-175532403D01*
X102689918Y-175530477D01*
X102689923Y-175530475D01*
X102919143Y-175420405D01*
X102919144Y-175420404D01*
X102923162Y-175418475D01*
X103033187Y-175344958D01*
X103138289Y-175274732D01*
X103138293Y-175274729D01*
X103141997Y-175272254D01*
X103145314Y-175269283D01*
X103145318Y-175269280D01*
X103334729Y-175099629D01*
X103334730Y-175099628D01*
X103338047Y-175096657D01*
X103507398Y-174895189D01*
X103517005Y-174879786D01*
X103601383Y-174744490D01*
X103646674Y-174671869D01*
X103753093Y-174431152D01*
X103824534Y-174177843D01*
X103829757Y-174138955D01*
X103859143Y-173920176D01*
X103859144Y-173920168D01*
X103859570Y-173916994D01*
X103863247Y-173800000D01*
X103844659Y-173537466D01*
X103833529Y-173485767D01*
X103790201Y-173284523D01*
X103789264Y-173280171D01*
X103770218Y-173228543D01*
X103762215Y-173206851D01*
X113333978Y-173206851D01*
X113339705Y-173214502D01*
X113510181Y-173318970D01*
X113518976Y-173323452D01*
X113728763Y-173410349D01*
X113738148Y-173413398D01*
X113958947Y-173466407D01*
X113968694Y-173467950D01*
X114195070Y-173485767D01*
X114204930Y-173485767D01*
X114431306Y-173467950D01*
X114441053Y-173466407D01*
X114661852Y-173413398D01*
X114671237Y-173410349D01*
X114881024Y-173323452D01*
X114889819Y-173318970D01*
X115056626Y-173216750D01*
X115065582Y-173206851D01*
X129033978Y-173206851D01*
X129039705Y-173214502D01*
X129210181Y-173318970D01*
X129218976Y-173323452D01*
X129428763Y-173410349D01*
X129438148Y-173413398D01*
X129658947Y-173466407D01*
X129668694Y-173467950D01*
X129895070Y-173485767D01*
X129904930Y-173485767D01*
X130131306Y-173467950D01*
X130141053Y-173466407D01*
X130361852Y-173413398D01*
X130371237Y-173410349D01*
X130581024Y-173323452D01*
X130589819Y-173318970D01*
X130756626Y-173216750D01*
X130765582Y-173206851D01*
X139749978Y-173206851D01*
X139755705Y-173214502D01*
X139926181Y-173318970D01*
X139934976Y-173323452D01*
X140144763Y-173410349D01*
X140154148Y-173413398D01*
X140374947Y-173466407D01*
X140384694Y-173467950D01*
X140611070Y-173485767D01*
X140620930Y-173485767D01*
X140847306Y-173467950D01*
X140857053Y-173466407D01*
X141077852Y-173413398D01*
X141087237Y-173410349D01*
X141297024Y-173323452D01*
X141305819Y-173318970D01*
X141472626Y-173216750D01*
X141481582Y-173206851D01*
X155449978Y-173206851D01*
X155455705Y-173214502D01*
X155626181Y-173318970D01*
X155634976Y-173323452D01*
X155844763Y-173410349D01*
X155854148Y-173413398D01*
X156074947Y-173466407D01*
X156084694Y-173467950D01*
X156311070Y-173485767D01*
X156320930Y-173485767D01*
X156547306Y-173467950D01*
X156557053Y-173466407D01*
X156777852Y-173413398D01*
X156787237Y-173410349D01*
X156997024Y-173323452D01*
X157005819Y-173318970D01*
X157172626Y-173216750D01*
X157182088Y-173206292D01*
X157178305Y-173197516D01*
X156328811Y-172348021D01*
X156314868Y-172340408D01*
X156313034Y-172340539D01*
X156306420Y-172344790D01*
X155456735Y-173194476D01*
X155449978Y-173206851D01*
X141481582Y-173206851D01*
X141482088Y-173206292D01*
X141478305Y-173197516D01*
X140628811Y-172348021D01*
X140614868Y-172340408D01*
X140613034Y-172340539D01*
X140606420Y-172344790D01*
X139756735Y-173194476D01*
X139749978Y-173206851D01*
X130765582Y-173206851D01*
X130766088Y-173206292D01*
X130762305Y-173197516D01*
X129912811Y-172348021D01*
X129898868Y-172340408D01*
X129897034Y-172340539D01*
X129890420Y-172344790D01*
X129040735Y-173194476D01*
X129033978Y-173206851D01*
X115065582Y-173206851D01*
X115066088Y-173206292D01*
X115062305Y-173197516D01*
X114212811Y-172348021D01*
X114198868Y-172340408D01*
X114197034Y-172340539D01*
X114190420Y-172344790D01*
X113340735Y-173194476D01*
X113333978Y-173206851D01*
X103762215Y-173206851D01*
X103699710Y-173037424D01*
X103698169Y-173033247D01*
X103696055Y-173029329D01*
X103575304Y-172805538D01*
X103573191Y-172801622D01*
X103416824Y-172589918D01*
X103232187Y-172402358D01*
X103228647Y-172399657D01*
X103228641Y-172399651D01*
X103026506Y-172245386D01*
X103026502Y-172245383D01*
X103022965Y-172242684D01*
X102793332Y-172114084D01*
X102547870Y-172019122D01*
X102543545Y-172018119D01*
X102543540Y-172018118D01*
X102402794Y-171985495D01*
X102383099Y-171980930D01*
X112690233Y-171980930D01*
X112708050Y-172207306D01*
X112709593Y-172217053D01*
X112762602Y-172437852D01*
X112765651Y-172447237D01*
X112852548Y-172657024D01*
X112857030Y-172665819D01*
X112959250Y-172832626D01*
X112969708Y-172842088D01*
X112978484Y-172838305D01*
X113827979Y-171988811D01*
X113834356Y-171977132D01*
X114564408Y-171977132D01*
X114564539Y-171978966D01*
X114568790Y-171985580D01*
X115418476Y-172835265D01*
X115430851Y-172842022D01*
X115438502Y-172836295D01*
X115542970Y-172665819D01*
X115547452Y-172657024D01*
X115634349Y-172447237D01*
X115637398Y-172437852D01*
X115690407Y-172217053D01*
X115691950Y-172207306D01*
X115709767Y-171980930D01*
X128390233Y-171980930D01*
X128408050Y-172207306D01*
X128409593Y-172217053D01*
X128462602Y-172437852D01*
X128465651Y-172447237D01*
X128552548Y-172657024D01*
X128557030Y-172665819D01*
X128659250Y-172832626D01*
X128669708Y-172842088D01*
X128678484Y-172838305D01*
X129527979Y-171988811D01*
X129534356Y-171977132D01*
X130264408Y-171977132D01*
X130264539Y-171978966D01*
X130268790Y-171985580D01*
X131118476Y-172835265D01*
X131130851Y-172842022D01*
X131138502Y-172836295D01*
X131242970Y-172665819D01*
X131247452Y-172657024D01*
X131334349Y-172447237D01*
X131337398Y-172437852D01*
X131390407Y-172217053D01*
X131391950Y-172207306D01*
X131409767Y-171980930D01*
X139106233Y-171980930D01*
X139124050Y-172207306D01*
X139125593Y-172217053D01*
X139178602Y-172437852D01*
X139181651Y-172447237D01*
X139268548Y-172657024D01*
X139273030Y-172665819D01*
X139375250Y-172832626D01*
X139385708Y-172842088D01*
X139394484Y-172838305D01*
X140243979Y-171988811D01*
X140250356Y-171977132D01*
X140980408Y-171977132D01*
X140980539Y-171978966D01*
X140984790Y-171985580D01*
X141834476Y-172835265D01*
X141846851Y-172842022D01*
X141854502Y-172836295D01*
X141958970Y-172665819D01*
X141963452Y-172657024D01*
X142050349Y-172447237D01*
X142053398Y-172437852D01*
X142106407Y-172217053D01*
X142107950Y-172207306D01*
X142125767Y-171980930D01*
X154806233Y-171980930D01*
X154824050Y-172207306D01*
X154825593Y-172217053D01*
X154878602Y-172437852D01*
X154881651Y-172447237D01*
X154968548Y-172657024D01*
X154973030Y-172665819D01*
X155075250Y-172832626D01*
X155085708Y-172842088D01*
X155094484Y-172838305D01*
X155943979Y-171988811D01*
X155950356Y-171977132D01*
X156680408Y-171977132D01*
X156680539Y-171978966D01*
X156684790Y-171985580D01*
X157534476Y-172835265D01*
X157546851Y-172842022D01*
X157554502Y-172836295D01*
X157658970Y-172665819D01*
X157663452Y-172657024D01*
X157750349Y-172447237D01*
X157753398Y-172437852D01*
X157806407Y-172217053D01*
X157807950Y-172207306D01*
X157825767Y-171980930D01*
X157825767Y-171971070D01*
X157807950Y-171744694D01*
X157806407Y-171734947D01*
X157753398Y-171514148D01*
X157750349Y-171504763D01*
X157663452Y-171294976D01*
X157658970Y-171286181D01*
X157556750Y-171119374D01*
X157546292Y-171109912D01*
X157537516Y-171113695D01*
X156688021Y-171963189D01*
X156680408Y-171977132D01*
X155950356Y-171977132D01*
X155951592Y-171974868D01*
X155951461Y-171973034D01*
X155947210Y-171966420D01*
X155097524Y-171116735D01*
X155085149Y-171109978D01*
X155077498Y-171115705D01*
X154973030Y-171286181D01*
X154968548Y-171294976D01*
X154881651Y-171504763D01*
X154878602Y-171514148D01*
X154825593Y-171734947D01*
X154824050Y-171744694D01*
X154806233Y-171971070D01*
X154806233Y-171980930D01*
X142125767Y-171980930D01*
X142125767Y-171971070D01*
X142107950Y-171744694D01*
X142106407Y-171734947D01*
X142053398Y-171514148D01*
X142050349Y-171504763D01*
X141963452Y-171294976D01*
X141958970Y-171286181D01*
X141856750Y-171119374D01*
X141846292Y-171109912D01*
X141837516Y-171113695D01*
X140988021Y-171963189D01*
X140980408Y-171977132D01*
X140250356Y-171977132D01*
X140251592Y-171974868D01*
X140251461Y-171973034D01*
X140247210Y-171966420D01*
X139397524Y-171116735D01*
X139385149Y-171109978D01*
X139377498Y-171115705D01*
X139273030Y-171286181D01*
X139268548Y-171294976D01*
X139181651Y-171504763D01*
X139178602Y-171514148D01*
X139125593Y-171734947D01*
X139124050Y-171744694D01*
X139106233Y-171971070D01*
X139106233Y-171980930D01*
X131409767Y-171980930D01*
X131409767Y-171971070D01*
X131391950Y-171744694D01*
X131390407Y-171734947D01*
X131337398Y-171514148D01*
X131334349Y-171504763D01*
X131247452Y-171294976D01*
X131242970Y-171286181D01*
X131140750Y-171119374D01*
X131130292Y-171109912D01*
X131121516Y-171113695D01*
X130272021Y-171963189D01*
X130264408Y-171977132D01*
X129534356Y-171977132D01*
X129535592Y-171974868D01*
X129535461Y-171973034D01*
X129531210Y-171966420D01*
X128681524Y-171116735D01*
X128669149Y-171109978D01*
X128661498Y-171115705D01*
X128557030Y-171286181D01*
X128552548Y-171294976D01*
X128465651Y-171504763D01*
X128462602Y-171514148D01*
X128409593Y-171734947D01*
X128408050Y-171744694D01*
X128390233Y-171971070D01*
X128390233Y-171980930D01*
X115709767Y-171980930D01*
X115709767Y-171971070D01*
X115691950Y-171744694D01*
X115690407Y-171734947D01*
X115637398Y-171514148D01*
X115634349Y-171504763D01*
X115547452Y-171294976D01*
X115542970Y-171286181D01*
X115440750Y-171119374D01*
X115430292Y-171109912D01*
X115421516Y-171113695D01*
X114572021Y-171963189D01*
X114564408Y-171977132D01*
X113834356Y-171977132D01*
X113835592Y-171974868D01*
X113835461Y-171973034D01*
X113831210Y-171966420D01*
X112981524Y-171116735D01*
X112969149Y-171109978D01*
X112961498Y-171115705D01*
X112857030Y-171286181D01*
X112852548Y-171294976D01*
X112765651Y-171504763D01*
X112762602Y-171514148D01*
X112709593Y-171734947D01*
X112708050Y-171744694D01*
X112690233Y-171971070D01*
X112690233Y-171980930D01*
X102383099Y-171980930D01*
X102291476Y-171959693D01*
X102029267Y-171936983D01*
X102024832Y-171937227D01*
X102024828Y-171937227D01*
X101770916Y-171951200D01*
X101770909Y-171951201D01*
X101766473Y-171951445D01*
X101657938Y-171973034D01*
X101512711Y-172001921D01*
X101512706Y-172001922D01*
X101508339Y-172002791D01*
X101504136Y-172004267D01*
X101264223Y-172088518D01*
X101264220Y-172088519D01*
X101260015Y-172089996D01*
X101256062Y-172092049D01*
X101256056Y-172092052D01*
X101124615Y-172160331D01*
X101026456Y-172211321D01*
X101022841Y-172213904D01*
X101022835Y-172213908D01*
X100919585Y-172287692D01*
X100812322Y-172364344D01*
X100809095Y-172367422D01*
X100809093Y-172367424D01*
X100721471Y-172451011D01*
X100658375Y-172483558D01*
X100587698Y-172476826D01*
X100531881Y-172432952D01*
X100508500Y-172359841D01*
X100508500Y-170745708D01*
X113333912Y-170745708D01*
X113337695Y-170754484D01*
X114187189Y-171603979D01*
X114201132Y-171611592D01*
X114202966Y-171611461D01*
X114209580Y-171607210D01*
X115059265Y-170757524D01*
X115065717Y-170745708D01*
X129033912Y-170745708D01*
X129037695Y-170754484D01*
X129887189Y-171603979D01*
X129901132Y-171611592D01*
X129902966Y-171611461D01*
X129909580Y-171607210D01*
X130759265Y-170757524D01*
X130765717Y-170745708D01*
X139749912Y-170745708D01*
X139753695Y-170754484D01*
X140603189Y-171603979D01*
X140617132Y-171611592D01*
X140618966Y-171611461D01*
X140625580Y-171607210D01*
X141475265Y-170757524D01*
X141481717Y-170745708D01*
X155449912Y-170745708D01*
X155453695Y-170754484D01*
X156303189Y-171603979D01*
X156317132Y-171611592D01*
X156318966Y-171611461D01*
X156325580Y-171607210D01*
X157175265Y-170757524D01*
X157182022Y-170745149D01*
X157176295Y-170737498D01*
X157005819Y-170633030D01*
X156997024Y-170628548D01*
X156787237Y-170541651D01*
X156777852Y-170538602D01*
X156557053Y-170485593D01*
X156547306Y-170484050D01*
X156320930Y-170466233D01*
X156311070Y-170466233D01*
X156084694Y-170484050D01*
X156074947Y-170485593D01*
X155854148Y-170538602D01*
X155844763Y-170541651D01*
X155634976Y-170628548D01*
X155626181Y-170633030D01*
X155459374Y-170735250D01*
X155449912Y-170745708D01*
X141481717Y-170745708D01*
X141482022Y-170745149D01*
X141476295Y-170737498D01*
X141305819Y-170633030D01*
X141297024Y-170628548D01*
X141087237Y-170541651D01*
X141077852Y-170538602D01*
X140857053Y-170485593D01*
X140847306Y-170484050D01*
X140620930Y-170466233D01*
X140611070Y-170466233D01*
X140384694Y-170484050D01*
X140374947Y-170485593D01*
X140154148Y-170538602D01*
X140144763Y-170541651D01*
X139934976Y-170628548D01*
X139926181Y-170633030D01*
X139759374Y-170735250D01*
X139749912Y-170745708D01*
X130765717Y-170745708D01*
X130766022Y-170745149D01*
X130760295Y-170737498D01*
X130589819Y-170633030D01*
X130581024Y-170628548D01*
X130371237Y-170541651D01*
X130361852Y-170538602D01*
X130141053Y-170485593D01*
X130131306Y-170484050D01*
X129904930Y-170466233D01*
X129895070Y-170466233D01*
X129668694Y-170484050D01*
X129658947Y-170485593D01*
X129438148Y-170538602D01*
X129428763Y-170541651D01*
X129218976Y-170628548D01*
X129210181Y-170633030D01*
X129043374Y-170735250D01*
X129033912Y-170745708D01*
X115065717Y-170745708D01*
X115066022Y-170745149D01*
X115060295Y-170737498D01*
X114889819Y-170633030D01*
X114881024Y-170628548D01*
X114671237Y-170541651D01*
X114661852Y-170538602D01*
X114441053Y-170485593D01*
X114431306Y-170484050D01*
X114204930Y-170466233D01*
X114195070Y-170466233D01*
X113968694Y-170484050D01*
X113958947Y-170485593D01*
X113738148Y-170538602D01*
X113728763Y-170541651D01*
X113518976Y-170628548D01*
X113510181Y-170633030D01*
X113343374Y-170735250D01*
X113333912Y-170745708D01*
X100508500Y-170745708D01*
X100508500Y-168306851D01*
X113933978Y-168306851D01*
X113939705Y-168314502D01*
X114110181Y-168418970D01*
X114118976Y-168423452D01*
X114328763Y-168510349D01*
X114338148Y-168513398D01*
X114558947Y-168566407D01*
X114568694Y-168567950D01*
X114795070Y-168585767D01*
X114804930Y-168585767D01*
X115031306Y-168567950D01*
X115041053Y-168566407D01*
X115261852Y-168513398D01*
X115271237Y-168510349D01*
X115481024Y-168423452D01*
X115489819Y-168418970D01*
X115656626Y-168316750D01*
X115665582Y-168306851D01*
X128433978Y-168306851D01*
X128439705Y-168314502D01*
X128610181Y-168418970D01*
X128618976Y-168423452D01*
X128828763Y-168510349D01*
X128838148Y-168513398D01*
X129058947Y-168566407D01*
X129068694Y-168567950D01*
X129295070Y-168585767D01*
X129304930Y-168585767D01*
X129531306Y-168567950D01*
X129541053Y-168566407D01*
X129761852Y-168513398D01*
X129771237Y-168510349D01*
X129981024Y-168423452D01*
X129989819Y-168418970D01*
X130156626Y-168316750D01*
X130165582Y-168306851D01*
X140349978Y-168306851D01*
X140355705Y-168314502D01*
X140526181Y-168418970D01*
X140534976Y-168423452D01*
X140744763Y-168510349D01*
X140754148Y-168513398D01*
X140974947Y-168566407D01*
X140984694Y-168567950D01*
X141211070Y-168585767D01*
X141220930Y-168585767D01*
X141447306Y-168567950D01*
X141457053Y-168566407D01*
X141677852Y-168513398D01*
X141687237Y-168510349D01*
X141897024Y-168423452D01*
X141905819Y-168418970D01*
X142072626Y-168316750D01*
X142081582Y-168306851D01*
X154849978Y-168306851D01*
X154855705Y-168314502D01*
X155026181Y-168418970D01*
X155034976Y-168423452D01*
X155244763Y-168510349D01*
X155254148Y-168513398D01*
X155474947Y-168566407D01*
X155484694Y-168567950D01*
X155711070Y-168585767D01*
X155720930Y-168585767D01*
X155947306Y-168567950D01*
X155957053Y-168566407D01*
X156177852Y-168513398D01*
X156187237Y-168510349D01*
X156397024Y-168423452D01*
X156405819Y-168418970D01*
X156572626Y-168316750D01*
X156582088Y-168306292D01*
X156578305Y-168297516D01*
X155728811Y-167448021D01*
X155714868Y-167440408D01*
X155713034Y-167440539D01*
X155706420Y-167444790D01*
X154856735Y-168294476D01*
X154849978Y-168306851D01*
X142081582Y-168306851D01*
X142082088Y-168306292D01*
X142078305Y-168297516D01*
X141228811Y-167448021D01*
X141214868Y-167440408D01*
X141213034Y-167440539D01*
X141206420Y-167444790D01*
X140356735Y-168294476D01*
X140349978Y-168306851D01*
X130165582Y-168306851D01*
X130166088Y-168306292D01*
X130162305Y-168297516D01*
X129312811Y-167448021D01*
X129298868Y-167440408D01*
X129297034Y-167440539D01*
X129290420Y-167444790D01*
X128440735Y-168294476D01*
X128433978Y-168306851D01*
X115665582Y-168306851D01*
X115666088Y-168306292D01*
X115662305Y-168297516D01*
X114812811Y-167448021D01*
X114798868Y-167440408D01*
X114797034Y-167440539D01*
X114790420Y-167444790D01*
X113940735Y-168294476D01*
X113933978Y-168306851D01*
X100508500Y-168306851D01*
X100508500Y-167080930D01*
X113290233Y-167080930D01*
X113308050Y-167307306D01*
X113309593Y-167317053D01*
X113362602Y-167537852D01*
X113365651Y-167547237D01*
X113452548Y-167757024D01*
X113457030Y-167765819D01*
X113559250Y-167932626D01*
X113569708Y-167942088D01*
X113578484Y-167938305D01*
X114427979Y-167088811D01*
X114434356Y-167077132D01*
X115164408Y-167077132D01*
X115164539Y-167078966D01*
X115168790Y-167085580D01*
X116018476Y-167935265D01*
X116030851Y-167942022D01*
X116038502Y-167936295D01*
X116142970Y-167765819D01*
X116147452Y-167757024D01*
X116234349Y-167547237D01*
X116237398Y-167537852D01*
X116290407Y-167317053D01*
X116291950Y-167307306D01*
X116309767Y-167080930D01*
X127790233Y-167080930D01*
X127808050Y-167307306D01*
X127809593Y-167317053D01*
X127862602Y-167537852D01*
X127865651Y-167547237D01*
X127952548Y-167757024D01*
X127957030Y-167765819D01*
X128059250Y-167932626D01*
X128069708Y-167942088D01*
X128078484Y-167938305D01*
X128927979Y-167088811D01*
X128934356Y-167077132D01*
X129664408Y-167077132D01*
X129664539Y-167078966D01*
X129668790Y-167085580D01*
X130518476Y-167935265D01*
X130530851Y-167942022D01*
X130538502Y-167936295D01*
X130642970Y-167765819D01*
X130647452Y-167757024D01*
X130734349Y-167547237D01*
X130737398Y-167537852D01*
X130790407Y-167317053D01*
X130791950Y-167307306D01*
X130809767Y-167080930D01*
X139706233Y-167080930D01*
X139724050Y-167307306D01*
X139725593Y-167317053D01*
X139778602Y-167537852D01*
X139781651Y-167547237D01*
X139868548Y-167757024D01*
X139873030Y-167765819D01*
X139975250Y-167932626D01*
X139985708Y-167942088D01*
X139994484Y-167938305D01*
X140843979Y-167088811D01*
X140850356Y-167077132D01*
X141580408Y-167077132D01*
X141580539Y-167078966D01*
X141584790Y-167085580D01*
X142434476Y-167935265D01*
X142446851Y-167942022D01*
X142454502Y-167936295D01*
X142558970Y-167765819D01*
X142563452Y-167757024D01*
X142650349Y-167547237D01*
X142653398Y-167537852D01*
X142706407Y-167317053D01*
X142707950Y-167307306D01*
X142725767Y-167080930D01*
X154206233Y-167080930D01*
X154224050Y-167307306D01*
X154225593Y-167317053D01*
X154278602Y-167537852D01*
X154281651Y-167547237D01*
X154368548Y-167757024D01*
X154373030Y-167765819D01*
X154475250Y-167932626D01*
X154485708Y-167942088D01*
X154494484Y-167938305D01*
X155343979Y-167088811D01*
X155350356Y-167077132D01*
X156080408Y-167077132D01*
X156080539Y-167078966D01*
X156084790Y-167085580D01*
X156934476Y-167935265D01*
X156946851Y-167942022D01*
X156954502Y-167936295D01*
X157058970Y-167765819D01*
X157063452Y-167757024D01*
X157150349Y-167547237D01*
X157153398Y-167537852D01*
X157206407Y-167317053D01*
X157207950Y-167307306D01*
X157225767Y-167080930D01*
X157225767Y-167071070D01*
X157207950Y-166844694D01*
X157206407Y-166834947D01*
X157153398Y-166614148D01*
X157150349Y-166604763D01*
X157063452Y-166394976D01*
X157058970Y-166386181D01*
X156956750Y-166219374D01*
X156946292Y-166209912D01*
X156937516Y-166213695D01*
X156088021Y-167063189D01*
X156080408Y-167077132D01*
X155350356Y-167077132D01*
X155351592Y-167074868D01*
X155351461Y-167073034D01*
X155347210Y-167066420D01*
X154497524Y-166216735D01*
X154485149Y-166209978D01*
X154477498Y-166215705D01*
X154373030Y-166386181D01*
X154368548Y-166394976D01*
X154281651Y-166604763D01*
X154278602Y-166614148D01*
X154225593Y-166834947D01*
X154224050Y-166844694D01*
X154206233Y-167071070D01*
X154206233Y-167080930D01*
X142725767Y-167080930D01*
X142725767Y-167071070D01*
X142707950Y-166844694D01*
X142706407Y-166834947D01*
X142653398Y-166614148D01*
X142650349Y-166604763D01*
X142563452Y-166394976D01*
X142558970Y-166386181D01*
X142456750Y-166219374D01*
X142446292Y-166209912D01*
X142437516Y-166213695D01*
X141588021Y-167063189D01*
X141580408Y-167077132D01*
X140850356Y-167077132D01*
X140851592Y-167074868D01*
X140851461Y-167073034D01*
X140847210Y-167066420D01*
X139997524Y-166216735D01*
X139985149Y-166209978D01*
X139977498Y-166215705D01*
X139873030Y-166386181D01*
X139868548Y-166394976D01*
X139781651Y-166604763D01*
X139778602Y-166614148D01*
X139725593Y-166834947D01*
X139724050Y-166844694D01*
X139706233Y-167071070D01*
X139706233Y-167080930D01*
X130809767Y-167080930D01*
X130809767Y-167071070D01*
X130791950Y-166844694D01*
X130790407Y-166834947D01*
X130737398Y-166614148D01*
X130734349Y-166604763D01*
X130647452Y-166394976D01*
X130642970Y-166386181D01*
X130540750Y-166219374D01*
X130530292Y-166209912D01*
X130521516Y-166213695D01*
X129672021Y-167063189D01*
X129664408Y-167077132D01*
X128934356Y-167077132D01*
X128935592Y-167074868D01*
X128935461Y-167073034D01*
X128931210Y-167066420D01*
X128081524Y-166216735D01*
X128069149Y-166209978D01*
X128061498Y-166215705D01*
X127957030Y-166386181D01*
X127952548Y-166394976D01*
X127865651Y-166604763D01*
X127862602Y-166614148D01*
X127809593Y-166834947D01*
X127808050Y-166844694D01*
X127790233Y-167071070D01*
X127790233Y-167080930D01*
X116309767Y-167080930D01*
X116309767Y-167071070D01*
X116291950Y-166844694D01*
X116290407Y-166834947D01*
X116237398Y-166614148D01*
X116234349Y-166604763D01*
X116147452Y-166394976D01*
X116142970Y-166386181D01*
X116040750Y-166219374D01*
X116030292Y-166209912D01*
X116021516Y-166213695D01*
X115172021Y-167063189D01*
X115164408Y-167077132D01*
X114434356Y-167077132D01*
X114435592Y-167074868D01*
X114435461Y-167073034D01*
X114431210Y-167066420D01*
X113581524Y-166216735D01*
X113569149Y-166209978D01*
X113561498Y-166215705D01*
X113457030Y-166386181D01*
X113452548Y-166394976D01*
X113365651Y-166604763D01*
X113362602Y-166614148D01*
X113309593Y-166834947D01*
X113308050Y-166844694D01*
X113290233Y-167071070D01*
X113290233Y-167080930D01*
X100508500Y-167080930D01*
X100508500Y-165845708D01*
X113933912Y-165845708D01*
X113937695Y-165854484D01*
X114787189Y-166703979D01*
X114801132Y-166711592D01*
X114802966Y-166711461D01*
X114809580Y-166707210D01*
X115659265Y-165857524D01*
X115665717Y-165845708D01*
X128433912Y-165845708D01*
X128437695Y-165854484D01*
X129287189Y-166703979D01*
X129301132Y-166711592D01*
X129302966Y-166711461D01*
X129309580Y-166707210D01*
X130159265Y-165857524D01*
X130165717Y-165845708D01*
X140349912Y-165845708D01*
X140353695Y-165854484D01*
X141203189Y-166703979D01*
X141217132Y-166711592D01*
X141218966Y-166711461D01*
X141225580Y-166707210D01*
X142075265Y-165857524D01*
X142081717Y-165845708D01*
X154849912Y-165845708D01*
X154853695Y-165854484D01*
X155703189Y-166703979D01*
X155717132Y-166711592D01*
X155718966Y-166711461D01*
X155725580Y-166707210D01*
X156575265Y-165857524D01*
X156582022Y-165845149D01*
X156576295Y-165837498D01*
X156405819Y-165733030D01*
X156397024Y-165728548D01*
X156187237Y-165641651D01*
X156177852Y-165638602D01*
X155957053Y-165585593D01*
X155947306Y-165584050D01*
X155720930Y-165566233D01*
X155711070Y-165566233D01*
X155484694Y-165584050D01*
X155474947Y-165585593D01*
X155254148Y-165638602D01*
X155244763Y-165641651D01*
X155034976Y-165728548D01*
X155026181Y-165733030D01*
X154859374Y-165835250D01*
X154849912Y-165845708D01*
X142081717Y-165845708D01*
X142082022Y-165845149D01*
X142076295Y-165837498D01*
X141905819Y-165733030D01*
X141897024Y-165728548D01*
X141687237Y-165641651D01*
X141677852Y-165638602D01*
X141457053Y-165585593D01*
X141447306Y-165584050D01*
X141220930Y-165566233D01*
X141211070Y-165566233D01*
X140984694Y-165584050D01*
X140974947Y-165585593D01*
X140754148Y-165638602D01*
X140744763Y-165641651D01*
X140534976Y-165728548D01*
X140526181Y-165733030D01*
X140359374Y-165835250D01*
X140349912Y-165845708D01*
X130165717Y-165845708D01*
X130166022Y-165845149D01*
X130160295Y-165837498D01*
X129989819Y-165733030D01*
X129981024Y-165728548D01*
X129771237Y-165641651D01*
X129761852Y-165638602D01*
X129541053Y-165585593D01*
X129531306Y-165584050D01*
X129304930Y-165566233D01*
X129295070Y-165566233D01*
X129068694Y-165584050D01*
X129058947Y-165585593D01*
X128838148Y-165638602D01*
X128828763Y-165641651D01*
X128618976Y-165728548D01*
X128610181Y-165733030D01*
X128443374Y-165835250D01*
X128433912Y-165845708D01*
X115665717Y-165845708D01*
X115666022Y-165845149D01*
X115660295Y-165837498D01*
X115489819Y-165733030D01*
X115481024Y-165728548D01*
X115271237Y-165641651D01*
X115261852Y-165638602D01*
X115041053Y-165585593D01*
X115031306Y-165584050D01*
X114804930Y-165566233D01*
X114795070Y-165566233D01*
X114568694Y-165584050D01*
X114558947Y-165585593D01*
X114338148Y-165638602D01*
X114328763Y-165641651D01*
X114118976Y-165728548D01*
X114110181Y-165733030D01*
X113943374Y-165835250D01*
X113933912Y-165845708D01*
X100508500Y-165845708D01*
X100508500Y-161131420D01*
X100512217Y-160020000D01*
X114021496Y-160020000D01*
X114041458Y-160209928D01*
X114100473Y-160391556D01*
X114195960Y-160556944D01*
X114323747Y-160698866D01*
X114478248Y-160811118D01*
X114484276Y-160813802D01*
X114484278Y-160813803D01*
X114520094Y-160829749D01*
X114652712Y-160888794D01*
X114746113Y-160908647D01*
X114833056Y-160927128D01*
X114833061Y-160927128D01*
X114839513Y-160928500D01*
X115030487Y-160928500D01*
X115036939Y-160927128D01*
X115036944Y-160927128D01*
X115123887Y-160908647D01*
X115217288Y-160888794D01*
X115391752Y-160811118D01*
X115462118Y-160801684D01*
X115494247Y-160811118D01*
X115494248Y-160811118D01*
X115668712Y-160888794D01*
X115762113Y-160908647D01*
X115849056Y-160927128D01*
X115849061Y-160927128D01*
X115855513Y-160928500D01*
X116046487Y-160928500D01*
X116052939Y-160927128D01*
X116052944Y-160927128D01*
X116139887Y-160908647D01*
X116233288Y-160888794D01*
X116365906Y-160829749D01*
X116401722Y-160813803D01*
X116401724Y-160813802D01*
X116407752Y-160811118D01*
X116562253Y-160698866D01*
X116690040Y-160556944D01*
X116785527Y-160391556D01*
X116844542Y-160209928D01*
X116851156Y-160147000D01*
X123927496Y-160147000D01*
X123947458Y-160336928D01*
X124006473Y-160518556D01*
X124101960Y-160683944D01*
X124229747Y-160825866D01*
X124312664Y-160886109D01*
X124369122Y-160927128D01*
X124384248Y-160938118D01*
X124390276Y-160940802D01*
X124390278Y-160940803D01*
X124552681Y-161013109D01*
X124558712Y-161015794D01*
X124652112Y-161035647D01*
X124739056Y-161054128D01*
X124739061Y-161054128D01*
X124745513Y-161055500D01*
X124936487Y-161055500D01*
X124942939Y-161054128D01*
X124942944Y-161054128D01*
X125029888Y-161035647D01*
X125123288Y-161015794D01*
X125129319Y-161013109D01*
X125291722Y-160940803D01*
X125291724Y-160940802D01*
X125297752Y-160938118D01*
X125312879Y-160927128D01*
X125369336Y-160886109D01*
X125452253Y-160825866D01*
X125580040Y-160683944D01*
X125675527Y-160518556D01*
X125734542Y-160336928D01*
X125754504Y-160147000D01*
X126721496Y-160147000D01*
X126741458Y-160336928D01*
X126800473Y-160518556D01*
X126895960Y-160683944D01*
X127023747Y-160825866D01*
X127106664Y-160886109D01*
X127163122Y-160927128D01*
X127178248Y-160938118D01*
X127184276Y-160940802D01*
X127184278Y-160940803D01*
X127346681Y-161013109D01*
X127352712Y-161015794D01*
X127446112Y-161035647D01*
X127533056Y-161054128D01*
X127533061Y-161054128D01*
X127539513Y-161055500D01*
X127730487Y-161055500D01*
X127736939Y-161054128D01*
X127736944Y-161054128D01*
X127823888Y-161035647D01*
X127917288Y-161015794D01*
X127923319Y-161013109D01*
X128085722Y-160940803D01*
X128085724Y-160940802D01*
X128091752Y-160938118D01*
X128104990Y-160928500D01*
X128240909Y-160829749D01*
X128240911Y-160829747D01*
X128246253Y-160825866D01*
X128249683Y-160822056D01*
X128313196Y-160791576D01*
X128383649Y-160800339D01*
X128417145Y-160821865D01*
X128420747Y-160825866D01*
X128426089Y-160829747D01*
X128426091Y-160829749D01*
X128562010Y-160928500D01*
X128575248Y-160938118D01*
X128581276Y-160940802D01*
X128581278Y-160940803D01*
X128743681Y-161013109D01*
X128749712Y-161015794D01*
X128843112Y-161035647D01*
X128930056Y-161054128D01*
X128930061Y-161054128D01*
X128936513Y-161055500D01*
X129127487Y-161055500D01*
X129133939Y-161054128D01*
X129133944Y-161054128D01*
X129220888Y-161035647D01*
X129314288Y-161015794D01*
X129320319Y-161013109D01*
X129482722Y-160940803D01*
X129482724Y-160940802D01*
X129488752Y-160938118D01*
X129503879Y-160927128D01*
X129560336Y-160886109D01*
X129643253Y-160825866D01*
X129771040Y-160683944D01*
X129866527Y-160518556D01*
X129925542Y-160336928D01*
X129945504Y-160147000D01*
X130512496Y-160147000D01*
X130532458Y-160336928D01*
X130591473Y-160518556D01*
X130686960Y-160683944D01*
X130814747Y-160825866D01*
X130897664Y-160886109D01*
X130954122Y-160927128D01*
X130969248Y-160938118D01*
X130975276Y-160940802D01*
X130975278Y-160940803D01*
X131137681Y-161013109D01*
X131143712Y-161015794D01*
X131237112Y-161035647D01*
X131324056Y-161054128D01*
X131324061Y-161054128D01*
X131330513Y-161055500D01*
X131521487Y-161055500D01*
X131527939Y-161054128D01*
X131527944Y-161054128D01*
X131614888Y-161035647D01*
X131708288Y-161015794D01*
X131714319Y-161013109D01*
X131876722Y-160940803D01*
X131876724Y-160940802D01*
X131882752Y-160938118D01*
X131897879Y-160927128D01*
X131954336Y-160886109D01*
X132037253Y-160825866D01*
X132165040Y-160683944D01*
X132260527Y-160518556D01*
X132319542Y-160336928D01*
X132339504Y-160147000D01*
X132326156Y-160020000D01*
X140818496Y-160020000D01*
X140838458Y-160209928D01*
X140897473Y-160391556D01*
X140992960Y-160556944D01*
X141120747Y-160698866D01*
X141275248Y-160811118D01*
X141281276Y-160813802D01*
X141281278Y-160813803D01*
X141317094Y-160829749D01*
X141449712Y-160888794D01*
X141543113Y-160908647D01*
X141630056Y-160927128D01*
X141630061Y-160927128D01*
X141636513Y-160928500D01*
X141827487Y-160928500D01*
X141833939Y-160927128D01*
X141833944Y-160927128D01*
X141920887Y-160908647D01*
X142014288Y-160888794D01*
X142146906Y-160829749D01*
X142182722Y-160813803D01*
X142182724Y-160813802D01*
X142188752Y-160811118D01*
X142292940Y-160735421D01*
X142359806Y-160711563D01*
X142428958Y-160727643D01*
X142441056Y-160735418D01*
X142545248Y-160811118D01*
X142551276Y-160813802D01*
X142551278Y-160813803D01*
X142587094Y-160829749D01*
X142719712Y-160888794D01*
X142813113Y-160908647D01*
X142900056Y-160927128D01*
X142900061Y-160927128D01*
X142906513Y-160928500D01*
X143097487Y-160928500D01*
X143103939Y-160927128D01*
X143103944Y-160927128D01*
X143190887Y-160908647D01*
X143284288Y-160888794D01*
X143416906Y-160829749D01*
X143452722Y-160813803D01*
X143452724Y-160813802D01*
X143458752Y-160811118D01*
X143613253Y-160698866D01*
X143741040Y-160556944D01*
X143836527Y-160391556D01*
X143895542Y-160209928D01*
X143915504Y-160020000D01*
X150216496Y-160020000D01*
X150236458Y-160209928D01*
X150295473Y-160391556D01*
X150390960Y-160556944D01*
X150518747Y-160698866D01*
X150673248Y-160811118D01*
X150679276Y-160813802D01*
X150679278Y-160813803D01*
X150715094Y-160829749D01*
X150847712Y-160888794D01*
X150941113Y-160908647D01*
X151028056Y-160927128D01*
X151028061Y-160927128D01*
X151034513Y-160928500D01*
X151225487Y-160928500D01*
X151231939Y-160927128D01*
X151231944Y-160927128D01*
X151318887Y-160908647D01*
X151412288Y-160888794D01*
X151544906Y-160829749D01*
X151580722Y-160813803D01*
X151580724Y-160813802D01*
X151586752Y-160811118D01*
X151741253Y-160698866D01*
X151869040Y-160556944D01*
X151964527Y-160391556D01*
X152023542Y-160209928D01*
X152043504Y-160020000D01*
X152883496Y-160020000D01*
X152903458Y-160209928D01*
X152962473Y-160391556D01*
X153057960Y-160556944D01*
X153185747Y-160698866D01*
X153340248Y-160811118D01*
X153346276Y-160813802D01*
X153346278Y-160813803D01*
X153382094Y-160829749D01*
X153514712Y-160888794D01*
X153608113Y-160908647D01*
X153695056Y-160927128D01*
X153695061Y-160927128D01*
X153701513Y-160928500D01*
X153892487Y-160928500D01*
X153898939Y-160927128D01*
X153898944Y-160927128D01*
X153985887Y-160908647D01*
X154079288Y-160888794D01*
X154211906Y-160829749D01*
X154247722Y-160813803D01*
X154247724Y-160813802D01*
X154253752Y-160811118D01*
X154357940Y-160735421D01*
X154424806Y-160711563D01*
X154493958Y-160727643D01*
X154506056Y-160735418D01*
X154610248Y-160811118D01*
X154616276Y-160813802D01*
X154616278Y-160813803D01*
X154652094Y-160829749D01*
X154784712Y-160888794D01*
X154878113Y-160908647D01*
X154965056Y-160927128D01*
X154965061Y-160927128D01*
X154971513Y-160928500D01*
X155162487Y-160928500D01*
X155168939Y-160927128D01*
X155168944Y-160927128D01*
X155255887Y-160908647D01*
X155349288Y-160888794D01*
X155481906Y-160829749D01*
X155517722Y-160813803D01*
X155517724Y-160813802D01*
X155523752Y-160811118D01*
X155678253Y-160698866D01*
X155806040Y-160556944D01*
X155901527Y-160391556D01*
X155960542Y-160209928D01*
X155980504Y-160020000D01*
X156566496Y-160020000D01*
X156586458Y-160209928D01*
X156645473Y-160391556D01*
X156740960Y-160556944D01*
X156868747Y-160698866D01*
X157023248Y-160811118D01*
X157029276Y-160813802D01*
X157029278Y-160813803D01*
X157065094Y-160829749D01*
X157197712Y-160888794D01*
X157291113Y-160908647D01*
X157378056Y-160927128D01*
X157378061Y-160927128D01*
X157384513Y-160928500D01*
X157575487Y-160928500D01*
X157581939Y-160927128D01*
X157581944Y-160927128D01*
X157668887Y-160908647D01*
X157762288Y-160888794D01*
X157894906Y-160829749D01*
X157930722Y-160813803D01*
X157930724Y-160813802D01*
X157936752Y-160811118D01*
X158091253Y-160698866D01*
X158219040Y-160556944D01*
X158314527Y-160391556D01*
X158373542Y-160209928D01*
X158393504Y-160020000D01*
X158373542Y-159830072D01*
X158314527Y-159648444D01*
X158219040Y-159483056D01*
X158208821Y-159471706D01*
X158095675Y-159346045D01*
X158095674Y-159346044D01*
X158091253Y-159341134D01*
X157988000Y-159266116D01*
X157942094Y-159232763D01*
X157942093Y-159232762D01*
X157936752Y-159228882D01*
X157930724Y-159226198D01*
X157930722Y-159226197D01*
X157768319Y-159153891D01*
X157768318Y-159153891D01*
X157762288Y-159151206D01*
X157668887Y-159131353D01*
X157581944Y-159112872D01*
X157581939Y-159112872D01*
X157575487Y-159111500D01*
X157384513Y-159111500D01*
X157378061Y-159112872D01*
X157378056Y-159112872D01*
X157291113Y-159131353D01*
X157197712Y-159151206D01*
X157191682Y-159153891D01*
X157191681Y-159153891D01*
X157029278Y-159226197D01*
X157029276Y-159226198D01*
X157023248Y-159228882D01*
X157017907Y-159232762D01*
X157017906Y-159232763D01*
X156972000Y-159266116D01*
X156868747Y-159341134D01*
X156864326Y-159346044D01*
X156864325Y-159346045D01*
X156751180Y-159471706D01*
X156740960Y-159483056D01*
X156645473Y-159648444D01*
X156586458Y-159830072D01*
X156566496Y-160020000D01*
X155980504Y-160020000D01*
X155960542Y-159830072D01*
X155901527Y-159648444D01*
X155806040Y-159483056D01*
X155795821Y-159471706D01*
X155682675Y-159346045D01*
X155682674Y-159346044D01*
X155678253Y-159341134D01*
X155575000Y-159266116D01*
X155529094Y-159232763D01*
X155529093Y-159232762D01*
X155523752Y-159228882D01*
X155517724Y-159226198D01*
X155517722Y-159226197D01*
X155355319Y-159153891D01*
X155355318Y-159153891D01*
X155349288Y-159151206D01*
X155255887Y-159131353D01*
X155168944Y-159112872D01*
X155168939Y-159112872D01*
X155162487Y-159111500D01*
X154971513Y-159111500D01*
X154965061Y-159112872D01*
X154965056Y-159112872D01*
X154878113Y-159131353D01*
X154784712Y-159151206D01*
X154778682Y-159153891D01*
X154778681Y-159153891D01*
X154616278Y-159226197D01*
X154616276Y-159226198D01*
X154610248Y-159228882D01*
X154604907Y-159232762D01*
X154604906Y-159232763D01*
X154571773Y-159256836D01*
X154506060Y-159304579D01*
X154439194Y-159328437D01*
X154370042Y-159312357D01*
X154357944Y-159304582D01*
X154292227Y-159256836D01*
X154259094Y-159232763D01*
X154259093Y-159232762D01*
X154253752Y-159228882D01*
X154247724Y-159226198D01*
X154247722Y-159226197D01*
X154085319Y-159153891D01*
X154085318Y-159153891D01*
X154079288Y-159151206D01*
X153985887Y-159131353D01*
X153898944Y-159112872D01*
X153898939Y-159112872D01*
X153892487Y-159111500D01*
X153701513Y-159111500D01*
X153695061Y-159112872D01*
X153695056Y-159112872D01*
X153608113Y-159131353D01*
X153514712Y-159151206D01*
X153508682Y-159153891D01*
X153508681Y-159153891D01*
X153346278Y-159226197D01*
X153346276Y-159226198D01*
X153340248Y-159228882D01*
X153334907Y-159232762D01*
X153334906Y-159232763D01*
X153289000Y-159266116D01*
X153185747Y-159341134D01*
X153181326Y-159346044D01*
X153181325Y-159346045D01*
X153068180Y-159471706D01*
X153057960Y-159483056D01*
X152962473Y-159648444D01*
X152903458Y-159830072D01*
X152883496Y-160020000D01*
X152043504Y-160020000D01*
X152023542Y-159830072D01*
X151964527Y-159648444D01*
X151869040Y-159483056D01*
X151858821Y-159471706D01*
X151745675Y-159346045D01*
X151745674Y-159346044D01*
X151741253Y-159341134D01*
X151638000Y-159266116D01*
X151592094Y-159232763D01*
X151592093Y-159232762D01*
X151586752Y-159228882D01*
X151580724Y-159226198D01*
X151580722Y-159226197D01*
X151418319Y-159153891D01*
X151418318Y-159153891D01*
X151412288Y-159151206D01*
X151318887Y-159131353D01*
X151231944Y-159112872D01*
X151231939Y-159112872D01*
X151225487Y-159111500D01*
X151034513Y-159111500D01*
X151028061Y-159112872D01*
X151028056Y-159112872D01*
X150941113Y-159131353D01*
X150847712Y-159151206D01*
X150841682Y-159153891D01*
X150841681Y-159153891D01*
X150679278Y-159226197D01*
X150679276Y-159226198D01*
X150673248Y-159228882D01*
X150667907Y-159232762D01*
X150667906Y-159232763D01*
X150622000Y-159266116D01*
X150518747Y-159341134D01*
X150514326Y-159346044D01*
X150514325Y-159346045D01*
X150401180Y-159471706D01*
X150390960Y-159483056D01*
X150295473Y-159648444D01*
X150236458Y-159830072D01*
X150216496Y-160020000D01*
X143915504Y-160020000D01*
X143895542Y-159830072D01*
X143836527Y-159648444D01*
X143741040Y-159483056D01*
X143730821Y-159471706D01*
X143617675Y-159346045D01*
X143617674Y-159346044D01*
X143613253Y-159341134D01*
X143510000Y-159266116D01*
X143464094Y-159232763D01*
X143464093Y-159232762D01*
X143458752Y-159228882D01*
X143452724Y-159226198D01*
X143452722Y-159226197D01*
X143290319Y-159153891D01*
X143290318Y-159153891D01*
X143284288Y-159151206D01*
X143190887Y-159131353D01*
X143103944Y-159112872D01*
X143103939Y-159112872D01*
X143097487Y-159111500D01*
X142906513Y-159111500D01*
X142900061Y-159112872D01*
X142900056Y-159112872D01*
X142813113Y-159131353D01*
X142719712Y-159151206D01*
X142713682Y-159153891D01*
X142713681Y-159153891D01*
X142551278Y-159226197D01*
X142551276Y-159226198D01*
X142545248Y-159228882D01*
X142539907Y-159232762D01*
X142539906Y-159232763D01*
X142506773Y-159256836D01*
X142441060Y-159304579D01*
X142374194Y-159328437D01*
X142305042Y-159312357D01*
X142292944Y-159304582D01*
X142227227Y-159256836D01*
X142194094Y-159232763D01*
X142194093Y-159232762D01*
X142188752Y-159228882D01*
X142182724Y-159226198D01*
X142182722Y-159226197D01*
X142020319Y-159153891D01*
X142020318Y-159153891D01*
X142014288Y-159151206D01*
X141920887Y-159131353D01*
X141833944Y-159112872D01*
X141833939Y-159112872D01*
X141827487Y-159111500D01*
X141636513Y-159111500D01*
X141630061Y-159112872D01*
X141630056Y-159112872D01*
X141543113Y-159131353D01*
X141449712Y-159151206D01*
X141443682Y-159153891D01*
X141443681Y-159153891D01*
X141281278Y-159226197D01*
X141281276Y-159226198D01*
X141275248Y-159228882D01*
X141269907Y-159232762D01*
X141269906Y-159232763D01*
X141224000Y-159266116D01*
X141120747Y-159341134D01*
X141116326Y-159346044D01*
X141116325Y-159346045D01*
X141003180Y-159471706D01*
X140992960Y-159483056D01*
X140897473Y-159648444D01*
X140838458Y-159830072D01*
X140818496Y-160020000D01*
X132326156Y-160020000D01*
X132319542Y-159957072D01*
X132260527Y-159775444D01*
X132165040Y-159610056D01*
X132037253Y-159468134D01*
X131882752Y-159355882D01*
X131876724Y-159353198D01*
X131876722Y-159353197D01*
X131714319Y-159280891D01*
X131714318Y-159280891D01*
X131708288Y-159278206D01*
X131614887Y-159258353D01*
X131527944Y-159239872D01*
X131527939Y-159239872D01*
X131521487Y-159238500D01*
X131330513Y-159238500D01*
X131324061Y-159239872D01*
X131324056Y-159239872D01*
X131237113Y-159258353D01*
X131143712Y-159278206D01*
X131137682Y-159280891D01*
X131137681Y-159280891D01*
X130975278Y-159353197D01*
X130975276Y-159353198D01*
X130969248Y-159355882D01*
X130814747Y-159468134D01*
X130686960Y-159610056D01*
X130591473Y-159775444D01*
X130532458Y-159957072D01*
X130512496Y-160147000D01*
X129945504Y-160147000D01*
X129925542Y-159957072D01*
X129866527Y-159775444D01*
X129771040Y-159610056D01*
X129643253Y-159468134D01*
X129488752Y-159355882D01*
X129482724Y-159353198D01*
X129482722Y-159353197D01*
X129320319Y-159280891D01*
X129320318Y-159280891D01*
X129314288Y-159278206D01*
X129220887Y-159258353D01*
X129133944Y-159239872D01*
X129133939Y-159239872D01*
X129127487Y-159238500D01*
X128936513Y-159238500D01*
X128930061Y-159239872D01*
X128930056Y-159239872D01*
X128843113Y-159258353D01*
X128749712Y-159278206D01*
X128743682Y-159280891D01*
X128743681Y-159280891D01*
X128581278Y-159353197D01*
X128581276Y-159353198D01*
X128575248Y-159355882D01*
X128420747Y-159468134D01*
X128417317Y-159471944D01*
X128353804Y-159502424D01*
X128283351Y-159493661D01*
X128249855Y-159472135D01*
X128246253Y-159468134D01*
X128091752Y-159355882D01*
X128085724Y-159353198D01*
X128085722Y-159353197D01*
X127923319Y-159280891D01*
X127923318Y-159280891D01*
X127917288Y-159278206D01*
X127823887Y-159258353D01*
X127736944Y-159239872D01*
X127736939Y-159239872D01*
X127730487Y-159238500D01*
X127539513Y-159238500D01*
X127533061Y-159239872D01*
X127533056Y-159239872D01*
X127446113Y-159258353D01*
X127352712Y-159278206D01*
X127346682Y-159280891D01*
X127346681Y-159280891D01*
X127184278Y-159353197D01*
X127184276Y-159353198D01*
X127178248Y-159355882D01*
X127023747Y-159468134D01*
X126895960Y-159610056D01*
X126800473Y-159775444D01*
X126741458Y-159957072D01*
X126721496Y-160147000D01*
X125754504Y-160147000D01*
X125734542Y-159957072D01*
X125675527Y-159775444D01*
X125580040Y-159610056D01*
X125452253Y-159468134D01*
X125297752Y-159355882D01*
X125291724Y-159353198D01*
X125291722Y-159353197D01*
X125129319Y-159280891D01*
X125129318Y-159280891D01*
X125123288Y-159278206D01*
X125029887Y-159258353D01*
X124942944Y-159239872D01*
X124942939Y-159239872D01*
X124936487Y-159238500D01*
X124745513Y-159238500D01*
X124739061Y-159239872D01*
X124739056Y-159239872D01*
X124652113Y-159258353D01*
X124558712Y-159278206D01*
X124552682Y-159280891D01*
X124552681Y-159280891D01*
X124390278Y-159353197D01*
X124390276Y-159353198D01*
X124384248Y-159355882D01*
X124229747Y-159468134D01*
X124101960Y-159610056D01*
X124006473Y-159775444D01*
X123947458Y-159957072D01*
X123927496Y-160147000D01*
X116851156Y-160147000D01*
X116864504Y-160020000D01*
X116844542Y-159830072D01*
X116785527Y-159648444D01*
X116690040Y-159483056D01*
X116679821Y-159471706D01*
X116566675Y-159346045D01*
X116566674Y-159346044D01*
X116562253Y-159341134D01*
X116459000Y-159266116D01*
X116413094Y-159232763D01*
X116413093Y-159232762D01*
X116407752Y-159228882D01*
X116401724Y-159226198D01*
X116401722Y-159226197D01*
X116239319Y-159153891D01*
X116239318Y-159153891D01*
X116233288Y-159151206D01*
X116139887Y-159131353D01*
X116052944Y-159112872D01*
X116052939Y-159112872D01*
X116046487Y-159111500D01*
X115855513Y-159111500D01*
X115849061Y-159112872D01*
X115849056Y-159112872D01*
X115762113Y-159131353D01*
X115668712Y-159151206D01*
X115494248Y-159228882D01*
X115423882Y-159238316D01*
X115391753Y-159228882D01*
X115391752Y-159228882D01*
X115217288Y-159151206D01*
X115123887Y-159131353D01*
X115036944Y-159112872D01*
X115036939Y-159112872D01*
X115030487Y-159111500D01*
X114839513Y-159111500D01*
X114833061Y-159112872D01*
X114833056Y-159112872D01*
X114746113Y-159131353D01*
X114652712Y-159151206D01*
X114646682Y-159153891D01*
X114646681Y-159153891D01*
X114484278Y-159226197D01*
X114484276Y-159226198D01*
X114478248Y-159228882D01*
X114472907Y-159232762D01*
X114472906Y-159232763D01*
X114427000Y-159266116D01*
X114323747Y-159341134D01*
X114319326Y-159346044D01*
X114319325Y-159346045D01*
X114206180Y-159471706D01*
X114195960Y-159483056D01*
X114100473Y-159648444D01*
X114041458Y-159830072D01*
X114021496Y-160020000D01*
X100512217Y-160020000D01*
X100543351Y-150711000D01*
X114059496Y-150711000D01*
X114079458Y-150900928D01*
X114138473Y-151082556D01*
X114141776Y-151088278D01*
X114141777Y-151088279D01*
X114175686Y-151147010D01*
X114233960Y-151247944D01*
X114361747Y-151389866D01*
X114516248Y-151502118D01*
X114522276Y-151504802D01*
X114522278Y-151504803D01*
X114607628Y-151542803D01*
X114690712Y-151579794D01*
X114784113Y-151599647D01*
X114871056Y-151618128D01*
X114871061Y-151618128D01*
X114877513Y-151619500D01*
X115068487Y-151619500D01*
X115074939Y-151618128D01*
X115074944Y-151618128D01*
X115161887Y-151599647D01*
X115255288Y-151579794D01*
X115338372Y-151542803D01*
X115423722Y-151504803D01*
X115423724Y-151504802D01*
X115429752Y-151502118D01*
X115584253Y-151389866D01*
X115712040Y-151247944D01*
X115770314Y-151147010D01*
X115804223Y-151088279D01*
X115804224Y-151088278D01*
X115807527Y-151082556D01*
X115866542Y-150900928D01*
X115882510Y-150749000D01*
X143104496Y-150749000D01*
X143124458Y-150938928D01*
X143183473Y-151120556D01*
X143278960Y-151285944D01*
X143406747Y-151427866D01*
X143561248Y-151540118D01*
X143567276Y-151542802D01*
X143567278Y-151542803D01*
X143729681Y-151615109D01*
X143735712Y-151617794D01*
X143829113Y-151637647D01*
X143916056Y-151656128D01*
X143916061Y-151656128D01*
X143922513Y-151657500D01*
X144113487Y-151657500D01*
X144119939Y-151656128D01*
X144119944Y-151656128D01*
X144206887Y-151637647D01*
X144300288Y-151617794D01*
X144306319Y-151615109D01*
X144468722Y-151542803D01*
X144468724Y-151542802D01*
X144474752Y-151540118D01*
X144629253Y-151427866D01*
X144757040Y-151285944D01*
X144852527Y-151120556D01*
X144911542Y-150938928D01*
X144931504Y-150749000D01*
X144911542Y-150559072D01*
X144852527Y-150377444D01*
X144827284Y-150333721D01*
X144760341Y-150217774D01*
X144757040Y-150212056D01*
X144629253Y-150070134D01*
X144474752Y-149957882D01*
X144468724Y-149955198D01*
X144468722Y-149955197D01*
X144306319Y-149882891D01*
X144306318Y-149882891D01*
X144300288Y-149880206D01*
X144206888Y-149860353D01*
X144119944Y-149841872D01*
X144119939Y-149841872D01*
X144113487Y-149840500D01*
X143922513Y-149840500D01*
X143916061Y-149841872D01*
X143916056Y-149841872D01*
X143829112Y-149860353D01*
X143735712Y-149880206D01*
X143729682Y-149882891D01*
X143729681Y-149882891D01*
X143567278Y-149955197D01*
X143567276Y-149955198D01*
X143561248Y-149957882D01*
X143406747Y-150070134D01*
X143278960Y-150212056D01*
X143275659Y-150217774D01*
X143208717Y-150333721D01*
X143183473Y-150377444D01*
X143124458Y-150559072D01*
X143104496Y-150749000D01*
X115882510Y-150749000D01*
X115886504Y-150711000D01*
X115866542Y-150521072D01*
X115807527Y-150339444D01*
X115712040Y-150174056D01*
X115584253Y-150032134D01*
X115429752Y-149919882D01*
X115423724Y-149917198D01*
X115423722Y-149917197D01*
X115261319Y-149844891D01*
X115261318Y-149844891D01*
X115255288Y-149842206D01*
X115161887Y-149822353D01*
X115074944Y-149803872D01*
X115074939Y-149803872D01*
X115068487Y-149802500D01*
X114877513Y-149802500D01*
X114871061Y-149803872D01*
X114871056Y-149803872D01*
X114784113Y-149822353D01*
X114690712Y-149842206D01*
X114684682Y-149844891D01*
X114684681Y-149844891D01*
X114522278Y-149917197D01*
X114522276Y-149917198D01*
X114516248Y-149919882D01*
X114361747Y-150032134D01*
X114233960Y-150174056D01*
X114138473Y-150339444D01*
X114079458Y-150521072D01*
X114059496Y-150711000D01*
X100543351Y-150711000D01*
X100550445Y-148590000D01*
X105512496Y-148590000D01*
X105532458Y-148779928D01*
X105591473Y-148961556D01*
X105686960Y-149126944D01*
X105691378Y-149131851D01*
X105691379Y-149131852D01*
X105810325Y-149263955D01*
X105814747Y-149268866D01*
X105969248Y-149381118D01*
X105975276Y-149383802D01*
X105975278Y-149383803D01*
X106137681Y-149456109D01*
X106143712Y-149458794D01*
X106237113Y-149478647D01*
X106324056Y-149497128D01*
X106324061Y-149497128D01*
X106330513Y-149498500D01*
X106521487Y-149498500D01*
X106527939Y-149497128D01*
X106527944Y-149497128D01*
X106614887Y-149478647D01*
X106708288Y-149458794D01*
X106714319Y-149456109D01*
X106876722Y-149383803D01*
X106876724Y-149383802D01*
X106882752Y-149381118D01*
X107037253Y-149268866D01*
X107041675Y-149263955D01*
X107160621Y-149131852D01*
X107160622Y-149131851D01*
X107165040Y-149126944D01*
X107260527Y-148961556D01*
X107319542Y-148779928D01*
X107339504Y-148590000D01*
X114021496Y-148590000D01*
X114041458Y-148779928D01*
X114100473Y-148961556D01*
X114195960Y-149126944D01*
X114200378Y-149131851D01*
X114200379Y-149131852D01*
X114319325Y-149263955D01*
X114323747Y-149268866D01*
X114478248Y-149381118D01*
X114484276Y-149383802D01*
X114484278Y-149383803D01*
X114646681Y-149456109D01*
X114652712Y-149458794D01*
X114746113Y-149478647D01*
X114833056Y-149497128D01*
X114833061Y-149497128D01*
X114839513Y-149498500D01*
X115030487Y-149498500D01*
X115036939Y-149497128D01*
X115036944Y-149497128D01*
X115123887Y-149478647D01*
X115217288Y-149458794D01*
X115223319Y-149456109D01*
X115385722Y-149383803D01*
X115385724Y-149383802D01*
X115391752Y-149381118D01*
X115546253Y-149268866D01*
X115550675Y-149263955D01*
X115669621Y-149131852D01*
X115669622Y-149131851D01*
X115674040Y-149126944D01*
X115769527Y-148961556D01*
X115828542Y-148779928D01*
X115848504Y-148590000D01*
X134468496Y-148590000D01*
X134488458Y-148779928D01*
X134547473Y-148961556D01*
X134642960Y-149126944D01*
X134647378Y-149131851D01*
X134647379Y-149131852D01*
X134766325Y-149263955D01*
X134770747Y-149268866D01*
X134925248Y-149381118D01*
X134931276Y-149383802D01*
X134931278Y-149383803D01*
X135093681Y-149456109D01*
X135099712Y-149458794D01*
X135193113Y-149478647D01*
X135280056Y-149497128D01*
X135280061Y-149497128D01*
X135286513Y-149498500D01*
X135477487Y-149498500D01*
X135483939Y-149497128D01*
X135483944Y-149497128D01*
X135570887Y-149478647D01*
X135664288Y-149458794D01*
X135670319Y-149456109D01*
X135832722Y-149383803D01*
X135832724Y-149383802D01*
X135838752Y-149381118D01*
X135993253Y-149268866D01*
X135997675Y-149263955D01*
X136116621Y-149131852D01*
X136116622Y-149131851D01*
X136121040Y-149126944D01*
X136216527Y-148961556D01*
X136275542Y-148779928D01*
X136295504Y-148590000D01*
X136291405Y-148551000D01*
X143065496Y-148551000D01*
X143085458Y-148740928D01*
X143144473Y-148922556D01*
X143239960Y-149087944D01*
X143367747Y-149229866D01*
X143522248Y-149342118D01*
X143528276Y-149344802D01*
X143528278Y-149344803D01*
X143615874Y-149383803D01*
X143696712Y-149419794D01*
X143790112Y-149439647D01*
X143877056Y-149458128D01*
X143877061Y-149458128D01*
X143883513Y-149459500D01*
X144074487Y-149459500D01*
X144080939Y-149458128D01*
X144080944Y-149458128D01*
X144167888Y-149439647D01*
X144261288Y-149419794D01*
X144342126Y-149383803D01*
X144429722Y-149344803D01*
X144429724Y-149344802D01*
X144435752Y-149342118D01*
X144590253Y-149229866D01*
X144718040Y-149087944D01*
X144813527Y-148922556D01*
X144872542Y-148740928D01*
X144892504Y-148551000D01*
X144872542Y-148361072D01*
X144813527Y-148179444D01*
X144718040Y-148014056D01*
X144621873Y-147907251D01*
X144594675Y-147877045D01*
X144594674Y-147877044D01*
X144590253Y-147872134D01*
X144435752Y-147759882D01*
X144429724Y-147757198D01*
X144429722Y-147757197D01*
X144267319Y-147684891D01*
X144267318Y-147684891D01*
X144261288Y-147682206D01*
X144167888Y-147662353D01*
X144080944Y-147643872D01*
X144080939Y-147643872D01*
X144074487Y-147642500D01*
X143883513Y-147642500D01*
X143877061Y-147643872D01*
X143877056Y-147643872D01*
X143790112Y-147662353D01*
X143696712Y-147682206D01*
X143690682Y-147684891D01*
X143690681Y-147684891D01*
X143528278Y-147757197D01*
X143528276Y-147757198D01*
X143522248Y-147759882D01*
X143367747Y-147872134D01*
X143363326Y-147877044D01*
X143363325Y-147877045D01*
X143336128Y-147907251D01*
X143239960Y-148014056D01*
X143144473Y-148179444D01*
X143085458Y-148361072D01*
X143065496Y-148551000D01*
X136291405Y-148551000D01*
X136275542Y-148400072D01*
X136216527Y-148218444D01*
X136121040Y-148053056D01*
X135993253Y-147911134D01*
X135838752Y-147798882D01*
X135832724Y-147796198D01*
X135832722Y-147796197D01*
X135670319Y-147723891D01*
X135670318Y-147723891D01*
X135664288Y-147721206D01*
X135570888Y-147701353D01*
X135483944Y-147682872D01*
X135483939Y-147682872D01*
X135477487Y-147681500D01*
X135286513Y-147681500D01*
X135280061Y-147682872D01*
X135280056Y-147682872D01*
X135193112Y-147701353D01*
X135099712Y-147721206D01*
X135093682Y-147723891D01*
X135093681Y-147723891D01*
X134931278Y-147796197D01*
X134931276Y-147796198D01*
X134925248Y-147798882D01*
X134770747Y-147911134D01*
X134642960Y-148053056D01*
X134547473Y-148218444D01*
X134488458Y-148400072D01*
X134468496Y-148590000D01*
X115848504Y-148590000D01*
X115828542Y-148400072D01*
X115769527Y-148218444D01*
X115674040Y-148053056D01*
X115546253Y-147911134D01*
X115391752Y-147798882D01*
X115385724Y-147796198D01*
X115385722Y-147796197D01*
X115223319Y-147723891D01*
X115223318Y-147723891D01*
X115217288Y-147721206D01*
X115123888Y-147701353D01*
X115036944Y-147682872D01*
X115036939Y-147682872D01*
X115030487Y-147681500D01*
X114839513Y-147681500D01*
X114833061Y-147682872D01*
X114833056Y-147682872D01*
X114746112Y-147701353D01*
X114652712Y-147721206D01*
X114646682Y-147723891D01*
X114646681Y-147723891D01*
X114484278Y-147796197D01*
X114484276Y-147796198D01*
X114478248Y-147798882D01*
X114323747Y-147911134D01*
X114195960Y-148053056D01*
X114100473Y-148218444D01*
X114041458Y-148400072D01*
X114021496Y-148590000D01*
X107339504Y-148590000D01*
X107319542Y-148400072D01*
X107260527Y-148218444D01*
X107165040Y-148053056D01*
X107037253Y-147911134D01*
X106882752Y-147798882D01*
X106876724Y-147796198D01*
X106876722Y-147796197D01*
X106714319Y-147723891D01*
X106714318Y-147723891D01*
X106708288Y-147721206D01*
X106614888Y-147701353D01*
X106527944Y-147682872D01*
X106527939Y-147682872D01*
X106521487Y-147681500D01*
X106330513Y-147681500D01*
X106324061Y-147682872D01*
X106324056Y-147682872D01*
X106237112Y-147701353D01*
X106143712Y-147721206D01*
X106137682Y-147723891D01*
X106137681Y-147723891D01*
X105975278Y-147796197D01*
X105975276Y-147796198D01*
X105969248Y-147798882D01*
X105814747Y-147911134D01*
X105686960Y-148053056D01*
X105591473Y-148218444D01*
X105532458Y-148400072D01*
X105512496Y-148590000D01*
X100550445Y-148590000D01*
X100580177Y-139700000D01*
X105639496Y-139700000D01*
X105659458Y-139889928D01*
X105718473Y-140071556D01*
X105813960Y-140236944D01*
X105941747Y-140378866D01*
X106096248Y-140491118D01*
X106102276Y-140493802D01*
X106102278Y-140493803D01*
X106138094Y-140509749D01*
X106270712Y-140568794D01*
X106364113Y-140588647D01*
X106451056Y-140607128D01*
X106451061Y-140607128D01*
X106457513Y-140608500D01*
X106648487Y-140608500D01*
X106654939Y-140607128D01*
X106654944Y-140607128D01*
X106741887Y-140588647D01*
X106835288Y-140568794D01*
X106967906Y-140509749D01*
X107003722Y-140493803D01*
X107003724Y-140493802D01*
X107009752Y-140491118D01*
X107164253Y-140378866D01*
X107292040Y-140236944D01*
X107387527Y-140071556D01*
X107446542Y-139889928D01*
X107466504Y-139700000D01*
X117450496Y-139700000D01*
X117470458Y-139889928D01*
X117529473Y-140071556D01*
X117624960Y-140236944D01*
X117752747Y-140378866D01*
X117907248Y-140491118D01*
X117913276Y-140493802D01*
X117913278Y-140493803D01*
X117949094Y-140509749D01*
X118081712Y-140568794D01*
X118175113Y-140588647D01*
X118262056Y-140607128D01*
X118262061Y-140607128D01*
X118268513Y-140608500D01*
X118459487Y-140608500D01*
X118465939Y-140607128D01*
X118465944Y-140607128D01*
X118552887Y-140588647D01*
X118646288Y-140568794D01*
X118778906Y-140509749D01*
X118814722Y-140493803D01*
X118814724Y-140493802D01*
X118820752Y-140491118D01*
X118975253Y-140378866D01*
X119103040Y-140236944D01*
X119198527Y-140071556D01*
X119257542Y-139889928D01*
X119277504Y-139700000D01*
X134468496Y-139700000D01*
X134488458Y-139889928D01*
X134547473Y-140071556D01*
X134642960Y-140236944D01*
X134770747Y-140378866D01*
X134925248Y-140491118D01*
X134931276Y-140493802D01*
X134931278Y-140493803D01*
X134967094Y-140509749D01*
X135099712Y-140568794D01*
X135193113Y-140588647D01*
X135280056Y-140607128D01*
X135280061Y-140607128D01*
X135286513Y-140608500D01*
X135477487Y-140608500D01*
X135483939Y-140607128D01*
X135483944Y-140607128D01*
X135570887Y-140588647D01*
X135664288Y-140568794D01*
X135796906Y-140509749D01*
X135832722Y-140493803D01*
X135832724Y-140493802D01*
X135838752Y-140491118D01*
X135993253Y-140378866D01*
X136121040Y-140236944D01*
X136216527Y-140071556D01*
X136275542Y-139889928D01*
X136282156Y-139827000D01*
X146279496Y-139827000D01*
X146299458Y-140016928D01*
X146358473Y-140198556D01*
X146453960Y-140363944D01*
X146581747Y-140505866D01*
X146664664Y-140566109D01*
X146721122Y-140607128D01*
X146736248Y-140618118D01*
X146742276Y-140620802D01*
X146742278Y-140620803D01*
X146904681Y-140693109D01*
X146910712Y-140695794D01*
X147004113Y-140715647D01*
X147091056Y-140734128D01*
X147091061Y-140734128D01*
X147097513Y-140735500D01*
X147288487Y-140735500D01*
X147294939Y-140734128D01*
X147294944Y-140734128D01*
X147381887Y-140715647D01*
X147475288Y-140695794D01*
X147481319Y-140693109D01*
X147643722Y-140620803D01*
X147643724Y-140620802D01*
X147649752Y-140618118D01*
X147664879Y-140607128D01*
X147721336Y-140566109D01*
X147804253Y-140505866D01*
X147932040Y-140363944D01*
X148027527Y-140198556D01*
X148086542Y-140016928D01*
X148106504Y-139827000D01*
X148086542Y-139637072D01*
X148027527Y-139455444D01*
X147932040Y-139290056D01*
X147804253Y-139148134D01*
X147649752Y-139035882D01*
X147643724Y-139033198D01*
X147643722Y-139033197D01*
X147481319Y-138960891D01*
X147481318Y-138960891D01*
X147475288Y-138958206D01*
X147381888Y-138938353D01*
X147294944Y-138919872D01*
X147294939Y-138919872D01*
X147288487Y-138918500D01*
X147097513Y-138918500D01*
X147091061Y-138919872D01*
X147091056Y-138919872D01*
X147004112Y-138938353D01*
X146910712Y-138958206D01*
X146904682Y-138960891D01*
X146904681Y-138960891D01*
X146742278Y-139033197D01*
X146742276Y-139033198D01*
X146736248Y-139035882D01*
X146581747Y-139148134D01*
X146453960Y-139290056D01*
X146358473Y-139455444D01*
X146299458Y-139637072D01*
X146279496Y-139827000D01*
X136282156Y-139827000D01*
X136295504Y-139700000D01*
X136275542Y-139510072D01*
X136216527Y-139328444D01*
X136121040Y-139163056D01*
X135993253Y-139021134D01*
X135894157Y-138949136D01*
X135844094Y-138912763D01*
X135844093Y-138912762D01*
X135838752Y-138908882D01*
X135832724Y-138906198D01*
X135832722Y-138906197D01*
X135670319Y-138833891D01*
X135670318Y-138833891D01*
X135664288Y-138831206D01*
X135570888Y-138811353D01*
X135483944Y-138792872D01*
X135483939Y-138792872D01*
X135477487Y-138791500D01*
X135286513Y-138791500D01*
X135280061Y-138792872D01*
X135280056Y-138792872D01*
X135193112Y-138811353D01*
X135099712Y-138831206D01*
X135093682Y-138833891D01*
X135093681Y-138833891D01*
X134931278Y-138906197D01*
X134931276Y-138906198D01*
X134925248Y-138908882D01*
X134919907Y-138912762D01*
X134919906Y-138912763D01*
X134869843Y-138949136D01*
X134770747Y-139021134D01*
X134642960Y-139163056D01*
X134547473Y-139328444D01*
X134488458Y-139510072D01*
X134468496Y-139700000D01*
X119277504Y-139700000D01*
X119257542Y-139510072D01*
X119198527Y-139328444D01*
X119103040Y-139163056D01*
X118975253Y-139021134D01*
X118876157Y-138949136D01*
X118826094Y-138912763D01*
X118826093Y-138912762D01*
X118820752Y-138908882D01*
X118814724Y-138906198D01*
X118814722Y-138906197D01*
X118652319Y-138833891D01*
X118652318Y-138833891D01*
X118646288Y-138831206D01*
X118552888Y-138811353D01*
X118465944Y-138792872D01*
X118465939Y-138792872D01*
X118459487Y-138791500D01*
X118268513Y-138791500D01*
X118262061Y-138792872D01*
X118262056Y-138792872D01*
X118175112Y-138811353D01*
X118081712Y-138831206D01*
X118075682Y-138833891D01*
X118075681Y-138833891D01*
X117913278Y-138906197D01*
X117913276Y-138906198D01*
X117907248Y-138908882D01*
X117901907Y-138912762D01*
X117901906Y-138912763D01*
X117851843Y-138949136D01*
X117752747Y-139021134D01*
X117624960Y-139163056D01*
X117529473Y-139328444D01*
X117470458Y-139510072D01*
X117450496Y-139700000D01*
X107466504Y-139700000D01*
X107446542Y-139510072D01*
X107387527Y-139328444D01*
X107292040Y-139163056D01*
X107164253Y-139021134D01*
X107065157Y-138949136D01*
X107015094Y-138912763D01*
X107015093Y-138912762D01*
X107009752Y-138908882D01*
X107003724Y-138906198D01*
X107003722Y-138906197D01*
X106841319Y-138833891D01*
X106841318Y-138833891D01*
X106835288Y-138831206D01*
X106741888Y-138811353D01*
X106654944Y-138792872D01*
X106654939Y-138792872D01*
X106648487Y-138791500D01*
X106457513Y-138791500D01*
X106451061Y-138792872D01*
X106451056Y-138792872D01*
X106364112Y-138811353D01*
X106270712Y-138831206D01*
X106264682Y-138833891D01*
X106264681Y-138833891D01*
X106102278Y-138906197D01*
X106102276Y-138906198D01*
X106096248Y-138908882D01*
X106090907Y-138912762D01*
X106090906Y-138912763D01*
X106040843Y-138949136D01*
X105941747Y-139021134D01*
X105813960Y-139163056D01*
X105718473Y-139328444D01*
X105659458Y-139510072D01*
X105639496Y-139700000D01*
X100580177Y-139700000D01*
X100591220Y-136398000D01*
X116053496Y-136398000D01*
X116073458Y-136587928D01*
X116132473Y-136769556D01*
X116227960Y-136934944D01*
X116355747Y-137076866D01*
X116510248Y-137189118D01*
X116516276Y-137191802D01*
X116516278Y-137191803D01*
X116678681Y-137264109D01*
X116684712Y-137266794D01*
X116778112Y-137286647D01*
X116865056Y-137305128D01*
X116865061Y-137305128D01*
X116871513Y-137306500D01*
X117062487Y-137306500D01*
X117068939Y-137305128D01*
X117068944Y-137305128D01*
X117155888Y-137286647D01*
X117249288Y-137266794D01*
X117255319Y-137264109D01*
X117417722Y-137191803D01*
X117417724Y-137191802D01*
X117423752Y-137189118D01*
X117578253Y-137076866D01*
X117706040Y-136934944D01*
X117801527Y-136769556D01*
X117860542Y-136587928D01*
X117880504Y-136398000D01*
X134595496Y-136398000D01*
X134615458Y-136587928D01*
X134674473Y-136769556D01*
X134769960Y-136934944D01*
X134897747Y-137076866D01*
X135052248Y-137189118D01*
X135058276Y-137191802D01*
X135058278Y-137191803D01*
X135220681Y-137264109D01*
X135226712Y-137266794D01*
X135320112Y-137286647D01*
X135407056Y-137305128D01*
X135407061Y-137305128D01*
X135413513Y-137306500D01*
X135604487Y-137306500D01*
X135610939Y-137305128D01*
X135610944Y-137305128D01*
X135697888Y-137286647D01*
X135791288Y-137266794D01*
X135797319Y-137264109D01*
X135959722Y-137191803D01*
X135959724Y-137191802D01*
X135965752Y-137189118D01*
X136120253Y-137076866D01*
X136248040Y-136934944D01*
X136343527Y-136769556D01*
X136402542Y-136587928D01*
X136422504Y-136398000D01*
X136402542Y-136208072D01*
X136343527Y-136026444D01*
X136248040Y-135861056D01*
X136202744Y-135810749D01*
X136124675Y-135724045D01*
X136124674Y-135724044D01*
X136120253Y-135719134D01*
X135965752Y-135606882D01*
X135959724Y-135604198D01*
X135959722Y-135604197D01*
X135797319Y-135531891D01*
X135797318Y-135531891D01*
X135791288Y-135529206D01*
X135678721Y-135505279D01*
X135610944Y-135490872D01*
X135610939Y-135490872D01*
X135604487Y-135489500D01*
X135413513Y-135489500D01*
X135407061Y-135490872D01*
X135407056Y-135490872D01*
X135339279Y-135505279D01*
X135226712Y-135529206D01*
X135220682Y-135531891D01*
X135220681Y-135531891D01*
X135058278Y-135604197D01*
X135058276Y-135604198D01*
X135052248Y-135606882D01*
X134897747Y-135719134D01*
X134893326Y-135724044D01*
X134893325Y-135724045D01*
X134815257Y-135810749D01*
X134769960Y-135861056D01*
X134674473Y-136026444D01*
X134615458Y-136208072D01*
X134595496Y-136398000D01*
X117880504Y-136398000D01*
X117860542Y-136208072D01*
X117801527Y-136026444D01*
X117706040Y-135861056D01*
X117660744Y-135810749D01*
X117582675Y-135724045D01*
X117582674Y-135724044D01*
X117578253Y-135719134D01*
X117423752Y-135606882D01*
X117417724Y-135604198D01*
X117417722Y-135604197D01*
X117255319Y-135531891D01*
X117255318Y-135531891D01*
X117249288Y-135529206D01*
X117136721Y-135505279D01*
X117068944Y-135490872D01*
X117068939Y-135490872D01*
X117062487Y-135489500D01*
X116871513Y-135489500D01*
X116865061Y-135490872D01*
X116865056Y-135490872D01*
X116797279Y-135505279D01*
X116684712Y-135529206D01*
X116678682Y-135531891D01*
X116678681Y-135531891D01*
X116516278Y-135604197D01*
X116516276Y-135604198D01*
X116510248Y-135606882D01*
X116355747Y-135719134D01*
X116351326Y-135724044D01*
X116351325Y-135724045D01*
X116273257Y-135810749D01*
X116227960Y-135861056D01*
X116132473Y-136026444D01*
X116073458Y-136208072D01*
X116053496Y-136398000D01*
X100591220Y-136398000D01*
X100596317Y-134874000D01*
X126086496Y-134874000D01*
X126106458Y-135063928D01*
X126165473Y-135245556D01*
X126260960Y-135410944D01*
X126265378Y-135415851D01*
X126265379Y-135415852D01*
X126366208Y-135527834D01*
X126388747Y-135552866D01*
X126543248Y-135665118D01*
X126549276Y-135667802D01*
X126549278Y-135667803D01*
X126711681Y-135740109D01*
X126717712Y-135742794D01*
X126811113Y-135762647D01*
X126898056Y-135781128D01*
X126898061Y-135781128D01*
X126904513Y-135782500D01*
X127095487Y-135782500D01*
X127101939Y-135781128D01*
X127101944Y-135781128D01*
X127188887Y-135762647D01*
X127282288Y-135742794D01*
X127288319Y-135740109D01*
X127450722Y-135667803D01*
X127450724Y-135667802D01*
X127456752Y-135665118D01*
X127611253Y-135552866D01*
X127633792Y-135527834D01*
X127734621Y-135415852D01*
X127734622Y-135415851D01*
X127739040Y-135410944D01*
X127834527Y-135245556D01*
X127872724Y-135128000D01*
X144501496Y-135128000D01*
X144521458Y-135317928D01*
X144580473Y-135499556D01*
X144675960Y-135664944D01*
X144680378Y-135669851D01*
X144680379Y-135669852D01*
X144724753Y-135719134D01*
X144803747Y-135806866D01*
X144958248Y-135919118D01*
X144964276Y-135921802D01*
X144964278Y-135921803D01*
X145126681Y-135994109D01*
X145132712Y-135996794D01*
X145226112Y-136016647D01*
X145313056Y-136035128D01*
X145313061Y-136035128D01*
X145319513Y-136036500D01*
X145510487Y-136036500D01*
X145516939Y-136035128D01*
X145516944Y-136035128D01*
X145603888Y-136016647D01*
X145697288Y-135996794D01*
X145703319Y-135994109D01*
X145865722Y-135921803D01*
X145865724Y-135921802D01*
X145871752Y-135919118D01*
X146026253Y-135806866D01*
X146105247Y-135719134D01*
X146149621Y-135669852D01*
X146149622Y-135669851D01*
X146154040Y-135664944D01*
X146249527Y-135499556D01*
X146308542Y-135317928D01*
X146328504Y-135128000D01*
X146308542Y-134938072D01*
X146249527Y-134756444D01*
X146154040Y-134591056D01*
X146074254Y-134502444D01*
X146030675Y-134454045D01*
X146030674Y-134454044D01*
X146026253Y-134449134D01*
X145871752Y-134336882D01*
X145865724Y-134334198D01*
X145865722Y-134334197D01*
X145703319Y-134261891D01*
X145703318Y-134261891D01*
X145697288Y-134259206D01*
X145603888Y-134239353D01*
X145516944Y-134220872D01*
X145516939Y-134220872D01*
X145510487Y-134219500D01*
X145319513Y-134219500D01*
X145313061Y-134220872D01*
X145313056Y-134220872D01*
X145226112Y-134239353D01*
X145132712Y-134259206D01*
X145126682Y-134261891D01*
X145126681Y-134261891D01*
X144964278Y-134334197D01*
X144964276Y-134334198D01*
X144958248Y-134336882D01*
X144803747Y-134449134D01*
X144799326Y-134454044D01*
X144799325Y-134454045D01*
X144755747Y-134502444D01*
X144675960Y-134591056D01*
X144580473Y-134756444D01*
X144521458Y-134938072D01*
X144501496Y-135128000D01*
X127872724Y-135128000D01*
X127893542Y-135063928D01*
X127913504Y-134874000D01*
X127893542Y-134684072D01*
X127834527Y-134502444D01*
X127739040Y-134337056D01*
X127611253Y-134195134D01*
X127456752Y-134082882D01*
X127450724Y-134080198D01*
X127450722Y-134080197D01*
X127288319Y-134007891D01*
X127288318Y-134007891D01*
X127282288Y-134005206D01*
X127188888Y-133985353D01*
X127101944Y-133966872D01*
X127101939Y-133966872D01*
X127095487Y-133965500D01*
X126904513Y-133965500D01*
X126898061Y-133966872D01*
X126898056Y-133966872D01*
X126811112Y-133985353D01*
X126717712Y-134005206D01*
X126711682Y-134007891D01*
X126711681Y-134007891D01*
X126549278Y-134080197D01*
X126549276Y-134080198D01*
X126543248Y-134082882D01*
X126388747Y-134195134D01*
X126260960Y-134337056D01*
X126165473Y-134502444D01*
X126106458Y-134684072D01*
X126086496Y-134874000D01*
X100596317Y-134874000D01*
X100605237Y-132207000D01*
X126086496Y-132207000D01*
X126106458Y-132396928D01*
X126165473Y-132578556D01*
X126260960Y-132743944D01*
X126388747Y-132885866D01*
X126471664Y-132946109D01*
X126528122Y-132987128D01*
X126543248Y-132998118D01*
X126549276Y-133000802D01*
X126549278Y-133000803D01*
X126711681Y-133073109D01*
X126717712Y-133075794D01*
X126811112Y-133095647D01*
X126898056Y-133114128D01*
X126898061Y-133114128D01*
X126904513Y-133115500D01*
X127095487Y-133115500D01*
X127101939Y-133114128D01*
X127101944Y-133114128D01*
X127188888Y-133095647D01*
X127282288Y-133075794D01*
X127288319Y-133073109D01*
X127450722Y-133000803D01*
X127450724Y-133000802D01*
X127456752Y-132998118D01*
X127471879Y-132987128D01*
X127528336Y-132946109D01*
X127611253Y-132885866D01*
X127739040Y-132743944D01*
X127834527Y-132578556D01*
X127893542Y-132396928D01*
X127913504Y-132207000D01*
X127900156Y-132080000D01*
X144501496Y-132080000D01*
X144521458Y-132269928D01*
X144580473Y-132451556D01*
X144675960Y-132616944D01*
X144803747Y-132758866D01*
X144958248Y-132871118D01*
X144964276Y-132873802D01*
X144964278Y-132873803D01*
X145000094Y-132889749D01*
X145132712Y-132948794D01*
X145226113Y-132968647D01*
X145313056Y-132987128D01*
X145313061Y-132987128D01*
X145319513Y-132988500D01*
X145510487Y-132988500D01*
X145516939Y-132987128D01*
X145516944Y-132987128D01*
X145603887Y-132968647D01*
X145697288Y-132948794D01*
X145829906Y-132889749D01*
X145865722Y-132873803D01*
X145865724Y-132873802D01*
X145871752Y-132871118D01*
X146026253Y-132758866D01*
X146154040Y-132616944D01*
X146249527Y-132451556D01*
X146308542Y-132269928D01*
X146328504Y-132080000D01*
X146308542Y-131890072D01*
X146249527Y-131708444D01*
X146154040Y-131543056D01*
X146026253Y-131401134D01*
X145927157Y-131329136D01*
X145877094Y-131292763D01*
X145877093Y-131292762D01*
X145871752Y-131288882D01*
X145865724Y-131286198D01*
X145865722Y-131286197D01*
X145703319Y-131213891D01*
X145703318Y-131213891D01*
X145697288Y-131211206D01*
X145603887Y-131191353D01*
X145516944Y-131172872D01*
X145516939Y-131172872D01*
X145510487Y-131171500D01*
X145319513Y-131171500D01*
X145313061Y-131172872D01*
X145313056Y-131172872D01*
X145226113Y-131191353D01*
X145132712Y-131211206D01*
X145126682Y-131213891D01*
X145126681Y-131213891D01*
X144964278Y-131286197D01*
X144964276Y-131286198D01*
X144958248Y-131288882D01*
X144952907Y-131292762D01*
X144952906Y-131292763D01*
X144902843Y-131329136D01*
X144803747Y-131401134D01*
X144675960Y-131543056D01*
X144580473Y-131708444D01*
X144521458Y-131890072D01*
X144501496Y-132080000D01*
X127900156Y-132080000D01*
X127893542Y-132017072D01*
X127834527Y-131835444D01*
X127739040Y-131670056D01*
X127611253Y-131528134D01*
X127456752Y-131415882D01*
X127450724Y-131413198D01*
X127450722Y-131413197D01*
X127288319Y-131340891D01*
X127288318Y-131340891D01*
X127282288Y-131338206D01*
X127188887Y-131318353D01*
X127101944Y-131299872D01*
X127101939Y-131299872D01*
X127095487Y-131298500D01*
X126904513Y-131298500D01*
X126898061Y-131299872D01*
X126898056Y-131299872D01*
X126811113Y-131318353D01*
X126717712Y-131338206D01*
X126711682Y-131340891D01*
X126711681Y-131340891D01*
X126549278Y-131413197D01*
X126549276Y-131413198D01*
X126543248Y-131415882D01*
X126388747Y-131528134D01*
X126260960Y-131670056D01*
X126165473Y-131835444D01*
X126106458Y-132017072D01*
X126086496Y-132207000D01*
X100605237Y-132207000D01*
X100623077Y-126873000D01*
X132944496Y-126873000D01*
X132964458Y-127062928D01*
X133023473Y-127244556D01*
X133118960Y-127409944D01*
X133246747Y-127551866D01*
X133401248Y-127664118D01*
X133407276Y-127666802D01*
X133407278Y-127666803D01*
X133569681Y-127739109D01*
X133575712Y-127741794D01*
X133669113Y-127761647D01*
X133756056Y-127780128D01*
X133756061Y-127780128D01*
X133762513Y-127781500D01*
X133953487Y-127781500D01*
X133959939Y-127780128D01*
X133959944Y-127780128D01*
X134046887Y-127761647D01*
X134140288Y-127741794D01*
X134146319Y-127739109D01*
X134308722Y-127666803D01*
X134308724Y-127666802D01*
X134314752Y-127664118D01*
X134469253Y-127551866D01*
X134597040Y-127409944D01*
X134692527Y-127244556D01*
X134751542Y-127062928D01*
X134771504Y-126873000D01*
X134751542Y-126683072D01*
X134692527Y-126501444D01*
X134678301Y-126476803D01*
X134600341Y-126341774D01*
X134597040Y-126336056D01*
X134492493Y-126219944D01*
X134473675Y-126199045D01*
X134473674Y-126199044D01*
X134469253Y-126194134D01*
X134314752Y-126081882D01*
X134308724Y-126079198D01*
X134308722Y-126079197D01*
X134146319Y-126006891D01*
X134146318Y-126006891D01*
X134140288Y-126004206D01*
X134046888Y-125984353D01*
X133959944Y-125965872D01*
X133959939Y-125965872D01*
X133953487Y-125964500D01*
X133762513Y-125964500D01*
X133756061Y-125965872D01*
X133756056Y-125965872D01*
X133669112Y-125984353D01*
X133575712Y-126004206D01*
X133569682Y-126006891D01*
X133569681Y-126006891D01*
X133407278Y-126079197D01*
X133407276Y-126079198D01*
X133401248Y-126081882D01*
X133246747Y-126194134D01*
X133242326Y-126199044D01*
X133242325Y-126199045D01*
X133223508Y-126219944D01*
X133118960Y-126336056D01*
X133115659Y-126341774D01*
X133037700Y-126476803D01*
X133023473Y-126501444D01*
X132964458Y-126683072D01*
X132944496Y-126873000D01*
X100623077Y-126873000D01*
X100627057Y-125683000D01*
X154915496Y-125683000D01*
X154935458Y-125872928D01*
X154994473Y-126054556D01*
X154997776Y-126060278D01*
X154997777Y-126060279D01*
X155010250Y-126081882D01*
X155089960Y-126219944D01*
X155094378Y-126224851D01*
X155094379Y-126224852D01*
X155199656Y-126341774D01*
X155217747Y-126361866D01*
X155372248Y-126474118D01*
X155378276Y-126476802D01*
X155378278Y-126476803D01*
X155540681Y-126549109D01*
X155546712Y-126551794D01*
X155640113Y-126571647D01*
X155727056Y-126590128D01*
X155727061Y-126590128D01*
X155733513Y-126591500D01*
X155924487Y-126591500D01*
X155930939Y-126590128D01*
X155930944Y-126590128D01*
X156017887Y-126571647D01*
X156111288Y-126551794D01*
X156117319Y-126549109D01*
X156279722Y-126476803D01*
X156279724Y-126476802D01*
X156285752Y-126474118D01*
X156440253Y-126361866D01*
X156458344Y-126341774D01*
X156563621Y-126224852D01*
X156563622Y-126224851D01*
X156568040Y-126219944D01*
X156647750Y-126081882D01*
X156660223Y-126060279D01*
X156660224Y-126060278D01*
X156663527Y-126054556D01*
X156722542Y-125872928D01*
X156742504Y-125683000D01*
X156722542Y-125493072D01*
X156663527Y-125311444D01*
X156568040Y-125146056D01*
X156440253Y-125004134D01*
X156285752Y-124891882D01*
X156279724Y-124889198D01*
X156279722Y-124889197D01*
X156117319Y-124816891D01*
X156117318Y-124816891D01*
X156111288Y-124814206D01*
X156017888Y-124794353D01*
X155930944Y-124775872D01*
X155930939Y-124775872D01*
X155924487Y-124774500D01*
X155733513Y-124774500D01*
X155727061Y-124775872D01*
X155727056Y-124775872D01*
X155640112Y-124794353D01*
X155546712Y-124814206D01*
X155540682Y-124816891D01*
X155540681Y-124816891D01*
X155378278Y-124889197D01*
X155378276Y-124889198D01*
X155372248Y-124891882D01*
X155217747Y-125004134D01*
X155089960Y-125146056D01*
X154994473Y-125311444D01*
X154935458Y-125493072D01*
X154915496Y-125683000D01*
X100627057Y-125683000D01*
X100638368Y-122301000D01*
X125451496Y-122301000D01*
X125471458Y-122490928D01*
X125530473Y-122672556D01*
X125625960Y-122837944D01*
X125630378Y-122842851D01*
X125630379Y-122842852D01*
X125725055Y-122948000D01*
X125753747Y-122979866D01*
X125908248Y-123092118D01*
X125914276Y-123094802D01*
X125914278Y-123094803D01*
X126011139Y-123137928D01*
X126082712Y-123169794D01*
X126176112Y-123189647D01*
X126263056Y-123208128D01*
X126263061Y-123208128D01*
X126269513Y-123209500D01*
X126460487Y-123209500D01*
X126466939Y-123208128D01*
X126466944Y-123208128D01*
X126553888Y-123189647D01*
X126647288Y-123169794D01*
X126718861Y-123137928D01*
X126815722Y-123094803D01*
X126815724Y-123094802D01*
X126821752Y-123092118D01*
X126976253Y-122979866D01*
X127004945Y-122948000D01*
X146545496Y-122948000D01*
X146565458Y-123137928D01*
X146624473Y-123319556D01*
X146719960Y-123484944D01*
X146847747Y-123626866D01*
X147002248Y-123739118D01*
X147008276Y-123741802D01*
X147008278Y-123741803D01*
X147170681Y-123814109D01*
X147176712Y-123816794D01*
X147270113Y-123836647D01*
X147357056Y-123855128D01*
X147357061Y-123855128D01*
X147363513Y-123856500D01*
X147554487Y-123856500D01*
X147560939Y-123855128D01*
X147560944Y-123855128D01*
X147647887Y-123836647D01*
X147741288Y-123816794D01*
X147747319Y-123814109D01*
X147909722Y-123741803D01*
X147909724Y-123741802D01*
X147915752Y-123739118D01*
X148070253Y-123626866D01*
X148198040Y-123484944D01*
X148293527Y-123319556D01*
X148352542Y-123137928D01*
X148372504Y-122948000D01*
X148352542Y-122758072D01*
X148293527Y-122576444D01*
X148198040Y-122411056D01*
X148104857Y-122307565D01*
X148074675Y-122274045D01*
X148074674Y-122274044D01*
X148070253Y-122269134D01*
X147915752Y-122156882D01*
X147909724Y-122154198D01*
X147909722Y-122154197D01*
X147747319Y-122081891D01*
X147747318Y-122081891D01*
X147741288Y-122079206D01*
X147647887Y-122059353D01*
X147560944Y-122040872D01*
X147560939Y-122040872D01*
X147554487Y-122039500D01*
X147363513Y-122039500D01*
X147357061Y-122040872D01*
X147357056Y-122040872D01*
X147270113Y-122059353D01*
X147176712Y-122079206D01*
X147170682Y-122081891D01*
X147170681Y-122081891D01*
X147008278Y-122154197D01*
X147008276Y-122154198D01*
X147002248Y-122156882D01*
X146847747Y-122269134D01*
X146843326Y-122274044D01*
X146843325Y-122274045D01*
X146813144Y-122307565D01*
X146719960Y-122411056D01*
X146624473Y-122576444D01*
X146565458Y-122758072D01*
X146545496Y-122948000D01*
X127004945Y-122948000D01*
X127099621Y-122842852D01*
X127099622Y-122842851D01*
X127104040Y-122837944D01*
X127199527Y-122672556D01*
X127258542Y-122490928D01*
X127278504Y-122301000D01*
X127258542Y-122111072D01*
X127199527Y-121929444D01*
X127104040Y-121764056D01*
X126976253Y-121622134D01*
X126835907Y-121520166D01*
X126827094Y-121513763D01*
X126827093Y-121513762D01*
X126821752Y-121509882D01*
X126815724Y-121507198D01*
X126815722Y-121507197D01*
X126653319Y-121434891D01*
X126653318Y-121434891D01*
X126647288Y-121432206D01*
X126553888Y-121412353D01*
X126466944Y-121393872D01*
X126466939Y-121393872D01*
X126460487Y-121392500D01*
X126269513Y-121392500D01*
X126263061Y-121393872D01*
X126263056Y-121393872D01*
X126176112Y-121412353D01*
X126082712Y-121432206D01*
X126076682Y-121434891D01*
X126076681Y-121434891D01*
X125914278Y-121507197D01*
X125914276Y-121507198D01*
X125908248Y-121509882D01*
X125902907Y-121513762D01*
X125902906Y-121513763D01*
X125894093Y-121520166D01*
X125753747Y-121622134D01*
X125625960Y-121764056D01*
X125530473Y-121929444D01*
X125471458Y-122111072D01*
X125451496Y-122301000D01*
X100638368Y-122301000D01*
X100643889Y-120650000D01*
X135103496Y-120650000D01*
X135123458Y-120839928D01*
X135182473Y-121021556D01*
X135277960Y-121186944D01*
X135405747Y-121328866D01*
X135493331Y-121392500D01*
X135547982Y-121432206D01*
X135560248Y-121441118D01*
X135566276Y-121443802D01*
X135566278Y-121443803D01*
X135714695Y-121509882D01*
X135734712Y-121518794D01*
X135828113Y-121538647D01*
X135915056Y-121557128D01*
X135915061Y-121557128D01*
X135921513Y-121558500D01*
X136112487Y-121558500D01*
X136118939Y-121557128D01*
X136118944Y-121557128D01*
X136205887Y-121538647D01*
X136299288Y-121518794D01*
X136319305Y-121509882D01*
X136467722Y-121443803D01*
X136467724Y-121443802D01*
X136473752Y-121441118D01*
X136486019Y-121432206D01*
X136540669Y-121392500D01*
X136628253Y-121328866D01*
X136756040Y-121186944D01*
X136851527Y-121021556D01*
X136910542Y-120839928D01*
X136930504Y-120650000D01*
X157201496Y-120650000D01*
X157221458Y-120839928D01*
X157280473Y-121021556D01*
X157375960Y-121186944D01*
X157503747Y-121328866D01*
X157591331Y-121392500D01*
X157645982Y-121432206D01*
X157658248Y-121441118D01*
X157664276Y-121443802D01*
X157664278Y-121443803D01*
X157812695Y-121509882D01*
X157832712Y-121518794D01*
X157926113Y-121538647D01*
X158013056Y-121557128D01*
X158013061Y-121557128D01*
X158019513Y-121558500D01*
X158210487Y-121558500D01*
X158216939Y-121557128D01*
X158216944Y-121557128D01*
X158303887Y-121538647D01*
X158397288Y-121518794D01*
X158417305Y-121509882D01*
X158565722Y-121443803D01*
X158565724Y-121443802D01*
X158571752Y-121441118D01*
X158584019Y-121432206D01*
X158638669Y-121392500D01*
X158726253Y-121328866D01*
X158854040Y-121186944D01*
X158949527Y-121021556D01*
X159008542Y-120839928D01*
X159028504Y-120650000D01*
X159008542Y-120460072D01*
X158949527Y-120278444D01*
X158854040Y-120113056D01*
X158726253Y-119971134D01*
X158571752Y-119858882D01*
X158565724Y-119856198D01*
X158565722Y-119856197D01*
X158403319Y-119783891D01*
X158403318Y-119783891D01*
X158397288Y-119781206D01*
X158303888Y-119761353D01*
X158216944Y-119742872D01*
X158216939Y-119742872D01*
X158210487Y-119741500D01*
X158019513Y-119741500D01*
X158013061Y-119742872D01*
X158013056Y-119742872D01*
X157926112Y-119761353D01*
X157832712Y-119781206D01*
X157826682Y-119783891D01*
X157826681Y-119783891D01*
X157664278Y-119856197D01*
X157664276Y-119856198D01*
X157658248Y-119858882D01*
X157503747Y-119971134D01*
X157375960Y-120113056D01*
X157280473Y-120278444D01*
X157221458Y-120460072D01*
X157201496Y-120650000D01*
X136930504Y-120650000D01*
X136910542Y-120460072D01*
X136851527Y-120278444D01*
X136756040Y-120113056D01*
X136628253Y-119971134D01*
X136473752Y-119858882D01*
X136467724Y-119856198D01*
X136467722Y-119856197D01*
X136305319Y-119783891D01*
X136305318Y-119783891D01*
X136299288Y-119781206D01*
X136205888Y-119761353D01*
X136118944Y-119742872D01*
X136118939Y-119742872D01*
X136112487Y-119741500D01*
X135921513Y-119741500D01*
X135915061Y-119742872D01*
X135915056Y-119742872D01*
X135828112Y-119761353D01*
X135734712Y-119781206D01*
X135728682Y-119783891D01*
X135728681Y-119783891D01*
X135566278Y-119856197D01*
X135566276Y-119856198D01*
X135560248Y-119858882D01*
X135405747Y-119971134D01*
X135277960Y-120113056D01*
X135182473Y-120278444D01*
X135123458Y-120460072D01*
X135103496Y-120650000D01*
X100643889Y-120650000D01*
X100645111Y-120284729D01*
X100656241Y-116957000D01*
X103480496Y-116957000D01*
X103500458Y-117146928D01*
X103559473Y-117328556D01*
X103562776Y-117334278D01*
X103562777Y-117334279D01*
X103596686Y-117393010D01*
X103654960Y-117493944D01*
X103659378Y-117498851D01*
X103659379Y-117498852D01*
X103702080Y-117546276D01*
X103782747Y-117635866D01*
X103878130Y-117705166D01*
X103929004Y-117742128D01*
X103937248Y-117748118D01*
X103943276Y-117750802D01*
X103943278Y-117750803D01*
X103959708Y-117758118D01*
X104111712Y-117825794D01*
X104205113Y-117845647D01*
X104292056Y-117864128D01*
X104292061Y-117864128D01*
X104298513Y-117865500D01*
X104489487Y-117865500D01*
X104495939Y-117864128D01*
X104495944Y-117864128D01*
X104582887Y-117845647D01*
X104676288Y-117825794D01*
X104828292Y-117758118D01*
X104844722Y-117750803D01*
X104844724Y-117750802D01*
X104850752Y-117748118D01*
X104858997Y-117742128D01*
X104909870Y-117705166D01*
X105005253Y-117635866D01*
X105085920Y-117546276D01*
X105128621Y-117498852D01*
X105128622Y-117498851D01*
X105133040Y-117493944D01*
X105191314Y-117393010D01*
X105225223Y-117334279D01*
X105225224Y-117334278D01*
X105228527Y-117328556D01*
X105287542Y-117146928D01*
X105306453Y-116967000D01*
X115164496Y-116967000D01*
X115184458Y-117156928D01*
X115243473Y-117338556D01*
X115338960Y-117503944D01*
X115343378Y-117508851D01*
X115343379Y-117508852D01*
X115377076Y-117546276D01*
X115466747Y-117645866D01*
X115542782Y-117701109D01*
X115606122Y-117747128D01*
X115621248Y-117758118D01*
X115627276Y-117760802D01*
X115627278Y-117760803D01*
X115776333Y-117827166D01*
X115795712Y-117835794D01*
X115889113Y-117855647D01*
X115976056Y-117874128D01*
X115976061Y-117874128D01*
X115982513Y-117875500D01*
X116173487Y-117875500D01*
X116179939Y-117874128D01*
X116179944Y-117874128D01*
X116266887Y-117855647D01*
X116360288Y-117835794D01*
X116379667Y-117827166D01*
X116528722Y-117760803D01*
X116528724Y-117760802D01*
X116534752Y-117758118D01*
X116549879Y-117747128D01*
X116609522Y-117703794D01*
X116638940Y-117682421D01*
X116705806Y-117658563D01*
X116774958Y-117674643D01*
X116787056Y-117682418D01*
X116816478Y-117703794D01*
X116876122Y-117747128D01*
X116891248Y-117758118D01*
X116897276Y-117760802D01*
X116897278Y-117760803D01*
X117046333Y-117827166D01*
X117065712Y-117835794D01*
X117159113Y-117855647D01*
X117246056Y-117874128D01*
X117246061Y-117874128D01*
X117252513Y-117875500D01*
X117443487Y-117875500D01*
X117449939Y-117874128D01*
X117449944Y-117874128D01*
X117536887Y-117855647D01*
X117630288Y-117835794D01*
X117649667Y-117827166D01*
X117798722Y-117760803D01*
X117798724Y-117760802D01*
X117804752Y-117758118D01*
X117819879Y-117747128D01*
X117883218Y-117701109D01*
X117959253Y-117645866D01*
X118048924Y-117546276D01*
X118082621Y-117508852D01*
X118082622Y-117508851D01*
X118087040Y-117503944D01*
X118182527Y-117338556D01*
X118241542Y-117156928D01*
X118261504Y-116967000D01*
X118248846Y-116846565D01*
X118247631Y-116835000D01*
X126589496Y-116835000D01*
X126590186Y-116841565D01*
X126604060Y-116973565D01*
X126609458Y-117024928D01*
X126668473Y-117206556D01*
X126763960Y-117371944D01*
X126891747Y-117513866D01*
X127046248Y-117626118D01*
X127052276Y-117628802D01*
X127052278Y-117628803D01*
X127155237Y-117674643D01*
X127220712Y-117703794D01*
X127314112Y-117723647D01*
X127401056Y-117742128D01*
X127401061Y-117742128D01*
X127407513Y-117743500D01*
X127598487Y-117743500D01*
X127604939Y-117742128D01*
X127604944Y-117742128D01*
X127691888Y-117723647D01*
X127785288Y-117703794D01*
X127850763Y-117674643D01*
X127953722Y-117628803D01*
X127953724Y-117628802D01*
X127959752Y-117626118D01*
X128062998Y-117551105D01*
X128129865Y-117527247D01*
X128199017Y-117543327D01*
X128211120Y-117551105D01*
X128321248Y-117631118D01*
X128327276Y-117633802D01*
X128327278Y-117633803D01*
X128487563Y-117705166D01*
X128495712Y-117708794D01*
X128589113Y-117728647D01*
X128676056Y-117747128D01*
X128676061Y-117747128D01*
X128682513Y-117748500D01*
X128873487Y-117748500D01*
X128879939Y-117747128D01*
X128879944Y-117747128D01*
X128966887Y-117728647D01*
X129060288Y-117708794D01*
X129068437Y-117705166D01*
X129228722Y-117633803D01*
X129228724Y-117633802D01*
X129234752Y-117631118D01*
X129389253Y-117518866D01*
X129517040Y-117376944D01*
X129612527Y-117211556D01*
X129671542Y-117029928D01*
X129672758Y-117018365D01*
X129690814Y-116846565D01*
X129691504Y-116840000D01*
X130404496Y-116840000D01*
X130405186Y-116846565D01*
X130423243Y-117018365D01*
X130424458Y-117029928D01*
X130483473Y-117211556D01*
X130578960Y-117376944D01*
X130706747Y-117518866D01*
X130861248Y-117631118D01*
X130867276Y-117633802D01*
X130867278Y-117633803D01*
X131027563Y-117705166D01*
X131035712Y-117708794D01*
X131129113Y-117728647D01*
X131216056Y-117747128D01*
X131216061Y-117747128D01*
X131222513Y-117748500D01*
X131413487Y-117748500D01*
X131419939Y-117747128D01*
X131419944Y-117747128D01*
X131506887Y-117728647D01*
X131600288Y-117708794D01*
X131608437Y-117705166D01*
X131768722Y-117633803D01*
X131768724Y-117633802D01*
X131774752Y-117631118D01*
X131879879Y-117554738D01*
X131946748Y-117530879D01*
X132015899Y-117546960D01*
X132028002Y-117554738D01*
X132126248Y-117626118D01*
X132132276Y-117628802D01*
X132132278Y-117628803D01*
X132235237Y-117674643D01*
X132300712Y-117703794D01*
X132394112Y-117723647D01*
X132481056Y-117742128D01*
X132481061Y-117742128D01*
X132487513Y-117743500D01*
X132678487Y-117743500D01*
X132684939Y-117742128D01*
X132684944Y-117742128D01*
X132771888Y-117723647D01*
X132865288Y-117703794D01*
X132930763Y-117674643D01*
X133033722Y-117628803D01*
X133033724Y-117628802D01*
X133039752Y-117626118D01*
X133194253Y-117513866D01*
X133322040Y-117371944D01*
X133417527Y-117206556D01*
X133476542Y-117024928D01*
X133481941Y-116973565D01*
X133495814Y-116841565D01*
X133495978Y-116840000D01*
X134214496Y-116840000D01*
X134215186Y-116846565D01*
X134233243Y-117018365D01*
X134234458Y-117029928D01*
X134293473Y-117211556D01*
X134388960Y-117376944D01*
X134516747Y-117518866D01*
X134671248Y-117631118D01*
X134677276Y-117633802D01*
X134677278Y-117633803D01*
X134837563Y-117705166D01*
X134845712Y-117708794D01*
X134939113Y-117728647D01*
X135026056Y-117747128D01*
X135026061Y-117747128D01*
X135032513Y-117748500D01*
X135223487Y-117748500D01*
X135229939Y-117747128D01*
X135229944Y-117747128D01*
X135316887Y-117728647D01*
X135410288Y-117708794D01*
X135418437Y-117705166D01*
X135578722Y-117633803D01*
X135578724Y-117633802D01*
X135584752Y-117631118D01*
X135694880Y-117551105D01*
X135761748Y-117527247D01*
X135830899Y-117543327D01*
X135843001Y-117551104D01*
X135946248Y-117626118D01*
X135952276Y-117628802D01*
X135952278Y-117628803D01*
X136055237Y-117674643D01*
X136120712Y-117703794D01*
X136214112Y-117723647D01*
X136301056Y-117742128D01*
X136301061Y-117742128D01*
X136307513Y-117743500D01*
X136498487Y-117743500D01*
X136504939Y-117742128D01*
X136504944Y-117742128D01*
X136591888Y-117723647D01*
X136685288Y-117703794D01*
X136750763Y-117674643D01*
X136853722Y-117628803D01*
X136853724Y-117628802D01*
X136859752Y-117626118D01*
X137014253Y-117513866D01*
X137142040Y-117371944D01*
X137237527Y-117206556D01*
X137296542Y-117024928D01*
X137301941Y-116973565D01*
X137315814Y-116841565D01*
X137316504Y-116835000D01*
X145639496Y-116835000D01*
X145640186Y-116841565D01*
X145654060Y-116973565D01*
X145659458Y-117024928D01*
X145718473Y-117206556D01*
X145813960Y-117371944D01*
X145941747Y-117513866D01*
X146096248Y-117626118D01*
X146102276Y-117628802D01*
X146102278Y-117628803D01*
X146205237Y-117674643D01*
X146270712Y-117703794D01*
X146364112Y-117723647D01*
X146451056Y-117742128D01*
X146451061Y-117742128D01*
X146457513Y-117743500D01*
X146648487Y-117743500D01*
X146654939Y-117742128D01*
X146654944Y-117742128D01*
X146741888Y-117723647D01*
X146835288Y-117703794D01*
X146900763Y-117674643D01*
X147003722Y-117628803D01*
X147003724Y-117628802D01*
X147009752Y-117626118D01*
X147112998Y-117551105D01*
X147179865Y-117527247D01*
X147249017Y-117543327D01*
X147261120Y-117551105D01*
X147371248Y-117631118D01*
X147377276Y-117633802D01*
X147377278Y-117633803D01*
X147537563Y-117705166D01*
X147545712Y-117708794D01*
X147639113Y-117728647D01*
X147726056Y-117747128D01*
X147726061Y-117747128D01*
X147732513Y-117748500D01*
X147923487Y-117748500D01*
X147929939Y-117747128D01*
X147929944Y-117747128D01*
X148016887Y-117728647D01*
X148110288Y-117708794D01*
X148118437Y-117705166D01*
X148278722Y-117633803D01*
X148278724Y-117633802D01*
X148284752Y-117631118D01*
X148439253Y-117518866D01*
X148567040Y-117376944D01*
X148662527Y-117211556D01*
X148721542Y-117029928D01*
X148722758Y-117018365D01*
X148740814Y-116846565D01*
X148741504Y-116840000D01*
X148740978Y-116835000D01*
X149459496Y-116835000D01*
X149460186Y-116841565D01*
X149474060Y-116973565D01*
X149479458Y-117024928D01*
X149538473Y-117206556D01*
X149633960Y-117371944D01*
X149761747Y-117513866D01*
X149916248Y-117626118D01*
X149922276Y-117628802D01*
X149922278Y-117628803D01*
X150025237Y-117674643D01*
X150090712Y-117703794D01*
X150184112Y-117723647D01*
X150271056Y-117742128D01*
X150271061Y-117742128D01*
X150277513Y-117743500D01*
X150468487Y-117743500D01*
X150474939Y-117742128D01*
X150474944Y-117742128D01*
X150561888Y-117723647D01*
X150655288Y-117703794D01*
X150720763Y-117674643D01*
X150823722Y-117628803D01*
X150823724Y-117628802D01*
X150829752Y-117626118D01*
X150928939Y-117554054D01*
X150995806Y-117530196D01*
X151064958Y-117546276D01*
X151077059Y-117554053D01*
X151176248Y-117626118D01*
X151182276Y-117628802D01*
X151182278Y-117628803D01*
X151285237Y-117674643D01*
X151350712Y-117703794D01*
X151444112Y-117723647D01*
X151531056Y-117742128D01*
X151531061Y-117742128D01*
X151537513Y-117743500D01*
X151728487Y-117743500D01*
X151734939Y-117742128D01*
X151734944Y-117742128D01*
X151821888Y-117723647D01*
X151915288Y-117703794D01*
X151980763Y-117674643D01*
X152083722Y-117628803D01*
X152083724Y-117628802D01*
X152089752Y-117626118D01*
X152244253Y-117513866D01*
X152372040Y-117371944D01*
X152467527Y-117206556D01*
X152526542Y-117024928D01*
X152531941Y-116973565D01*
X152545814Y-116841565D01*
X152546504Y-116835000D01*
X152538705Y-116760794D01*
X152527232Y-116651635D01*
X152527232Y-116651633D01*
X152526542Y-116645072D01*
X152467527Y-116463444D01*
X152372040Y-116298056D01*
X152244253Y-116156134D01*
X152101976Y-116052763D01*
X152095094Y-116047763D01*
X152095093Y-116047762D01*
X152089752Y-116043882D01*
X152083724Y-116041198D01*
X152083722Y-116041197D01*
X151921319Y-115968891D01*
X151921318Y-115968891D01*
X151915288Y-115966206D01*
X151821887Y-115946353D01*
X151734944Y-115927872D01*
X151734939Y-115927872D01*
X151728487Y-115926500D01*
X151537513Y-115926500D01*
X151531061Y-115927872D01*
X151531056Y-115927872D01*
X151444113Y-115946353D01*
X151350712Y-115966206D01*
X151344682Y-115968891D01*
X151344681Y-115968891D01*
X151182278Y-116041197D01*
X151182276Y-116041198D01*
X151176248Y-116043882D01*
X151170907Y-116047762D01*
X151170906Y-116047763D01*
X151077061Y-116115946D01*
X151010194Y-116139804D01*
X150941042Y-116123724D01*
X150928939Y-116115946D01*
X150835094Y-116047763D01*
X150835093Y-116047762D01*
X150829752Y-116043882D01*
X150823724Y-116041198D01*
X150823722Y-116041197D01*
X150661319Y-115968891D01*
X150661318Y-115968891D01*
X150655288Y-115966206D01*
X150561887Y-115946353D01*
X150474944Y-115927872D01*
X150474939Y-115927872D01*
X150468487Y-115926500D01*
X150277513Y-115926500D01*
X150271061Y-115927872D01*
X150271056Y-115927872D01*
X150184113Y-115946353D01*
X150090712Y-115966206D01*
X150084682Y-115968891D01*
X150084681Y-115968891D01*
X149922278Y-116041197D01*
X149922276Y-116041198D01*
X149916248Y-116043882D01*
X149910907Y-116047762D01*
X149910906Y-116047763D01*
X149904024Y-116052763D01*
X149761747Y-116156134D01*
X149633960Y-116298056D01*
X149538473Y-116463444D01*
X149479458Y-116645072D01*
X149478768Y-116651633D01*
X149478768Y-116651635D01*
X149467295Y-116760794D01*
X149459496Y-116835000D01*
X148740978Y-116835000D01*
X148721542Y-116650072D01*
X148662527Y-116468444D01*
X148631757Y-116415148D01*
X148570341Y-116308774D01*
X148567040Y-116303056D01*
X148439253Y-116161134D01*
X148336988Y-116086834D01*
X148290094Y-116052763D01*
X148290093Y-116052762D01*
X148284752Y-116048882D01*
X148278724Y-116046198D01*
X148278722Y-116046197D01*
X148116319Y-115973891D01*
X148116318Y-115973891D01*
X148110288Y-115971206D01*
X148016888Y-115951353D01*
X147929944Y-115932872D01*
X147929939Y-115932872D01*
X147923487Y-115931500D01*
X147732513Y-115931500D01*
X147726061Y-115932872D01*
X147726056Y-115932872D01*
X147639112Y-115951353D01*
X147545712Y-115971206D01*
X147539682Y-115973891D01*
X147539681Y-115973891D01*
X147377278Y-116046197D01*
X147377276Y-116046198D01*
X147371248Y-116048882D01*
X147365907Y-116052762D01*
X147365906Y-116052763D01*
X147268002Y-116123895D01*
X147201135Y-116147753D01*
X147131983Y-116131673D01*
X147119880Y-116123895D01*
X147015094Y-116047763D01*
X147015093Y-116047762D01*
X147009752Y-116043882D01*
X147003724Y-116041198D01*
X147003722Y-116041197D01*
X146841319Y-115968891D01*
X146841318Y-115968891D01*
X146835288Y-115966206D01*
X146741887Y-115946353D01*
X146654944Y-115927872D01*
X146654939Y-115927872D01*
X146648487Y-115926500D01*
X146457513Y-115926500D01*
X146451061Y-115927872D01*
X146451056Y-115927872D01*
X146364113Y-115946353D01*
X146270712Y-115966206D01*
X146264682Y-115968891D01*
X146264681Y-115968891D01*
X146102278Y-116041197D01*
X146102276Y-116041198D01*
X146096248Y-116043882D01*
X146090907Y-116047762D01*
X146090906Y-116047763D01*
X146084024Y-116052763D01*
X145941747Y-116156134D01*
X145813960Y-116298056D01*
X145718473Y-116463444D01*
X145659458Y-116645072D01*
X145658768Y-116651633D01*
X145658768Y-116651635D01*
X145647295Y-116760794D01*
X145639496Y-116835000D01*
X137316504Y-116835000D01*
X137308705Y-116760794D01*
X137297232Y-116651635D01*
X137297232Y-116651633D01*
X137296542Y-116645072D01*
X137237527Y-116463444D01*
X137142040Y-116298056D01*
X137014253Y-116156134D01*
X136871976Y-116052763D01*
X136865094Y-116047763D01*
X136865093Y-116047762D01*
X136859752Y-116043882D01*
X136853724Y-116041198D01*
X136853722Y-116041197D01*
X136691319Y-115968891D01*
X136691318Y-115968891D01*
X136685288Y-115966206D01*
X136591887Y-115946353D01*
X136504944Y-115927872D01*
X136504939Y-115927872D01*
X136498487Y-115926500D01*
X136307513Y-115926500D01*
X136301061Y-115927872D01*
X136301056Y-115927872D01*
X136214113Y-115946353D01*
X136120712Y-115966206D01*
X136114682Y-115968891D01*
X136114681Y-115968891D01*
X135952278Y-116041197D01*
X135952276Y-116041198D01*
X135946248Y-116043882D01*
X135940907Y-116047762D01*
X135940906Y-116047763D01*
X135836120Y-116123895D01*
X135769252Y-116147753D01*
X135700101Y-116131673D01*
X135687998Y-116123895D01*
X135590094Y-116052763D01*
X135590093Y-116052762D01*
X135584752Y-116048882D01*
X135578724Y-116046198D01*
X135578722Y-116046197D01*
X135416319Y-115973891D01*
X135416318Y-115973891D01*
X135410288Y-115971206D01*
X135316888Y-115951353D01*
X135229944Y-115932872D01*
X135229939Y-115932872D01*
X135223487Y-115931500D01*
X135032513Y-115931500D01*
X135026061Y-115932872D01*
X135026056Y-115932872D01*
X134939112Y-115951353D01*
X134845712Y-115971206D01*
X134839682Y-115973891D01*
X134839681Y-115973891D01*
X134677278Y-116046197D01*
X134677276Y-116046198D01*
X134671248Y-116048882D01*
X134665907Y-116052762D01*
X134665906Y-116052763D01*
X134619012Y-116086834D01*
X134516747Y-116161134D01*
X134388960Y-116303056D01*
X134385659Y-116308774D01*
X134324244Y-116415148D01*
X134293473Y-116468444D01*
X134234458Y-116650072D01*
X134214496Y-116840000D01*
X133495978Y-116840000D01*
X133496504Y-116835000D01*
X133488705Y-116760794D01*
X133477232Y-116651635D01*
X133477232Y-116651633D01*
X133476542Y-116645072D01*
X133417527Y-116463444D01*
X133322040Y-116298056D01*
X133194253Y-116156134D01*
X133051976Y-116052763D01*
X133045094Y-116047763D01*
X133045093Y-116047762D01*
X133039752Y-116043882D01*
X133033724Y-116041198D01*
X133033722Y-116041197D01*
X132871319Y-115968891D01*
X132871318Y-115968891D01*
X132865288Y-115966206D01*
X132771887Y-115946353D01*
X132684944Y-115927872D01*
X132684939Y-115927872D01*
X132678487Y-115926500D01*
X132487513Y-115926500D01*
X132481061Y-115927872D01*
X132481056Y-115927872D01*
X132394113Y-115946353D01*
X132300712Y-115966206D01*
X132294682Y-115968891D01*
X132294681Y-115968891D01*
X132132278Y-116041197D01*
X132132276Y-116041198D01*
X132126248Y-116043882D01*
X132120907Y-116047762D01*
X132120906Y-116047763D01*
X132021120Y-116120262D01*
X131954252Y-116144121D01*
X131885101Y-116128040D01*
X131872998Y-116120262D01*
X131780094Y-116052763D01*
X131780093Y-116052762D01*
X131774752Y-116048882D01*
X131768724Y-116046198D01*
X131768722Y-116046197D01*
X131606319Y-115973891D01*
X131606318Y-115973891D01*
X131600288Y-115971206D01*
X131506888Y-115951353D01*
X131419944Y-115932872D01*
X131419939Y-115932872D01*
X131413487Y-115931500D01*
X131222513Y-115931500D01*
X131216061Y-115932872D01*
X131216056Y-115932872D01*
X131129112Y-115951353D01*
X131035712Y-115971206D01*
X131029682Y-115973891D01*
X131029681Y-115973891D01*
X130867278Y-116046197D01*
X130867276Y-116046198D01*
X130861248Y-116048882D01*
X130855907Y-116052762D01*
X130855906Y-116052763D01*
X130809012Y-116086834D01*
X130706747Y-116161134D01*
X130578960Y-116303056D01*
X130575659Y-116308774D01*
X130514244Y-116415148D01*
X130483473Y-116468444D01*
X130424458Y-116650072D01*
X130404496Y-116840000D01*
X129691504Y-116840000D01*
X129671542Y-116650072D01*
X129612527Y-116468444D01*
X129581757Y-116415148D01*
X129520341Y-116308774D01*
X129517040Y-116303056D01*
X129389253Y-116161134D01*
X129286988Y-116086834D01*
X129240094Y-116052763D01*
X129240093Y-116052762D01*
X129234752Y-116048882D01*
X129228724Y-116046198D01*
X129228722Y-116046197D01*
X129066319Y-115973891D01*
X129066318Y-115973891D01*
X129060288Y-115971206D01*
X128966888Y-115951353D01*
X128879944Y-115932872D01*
X128879939Y-115932872D01*
X128873487Y-115931500D01*
X128682513Y-115931500D01*
X128676061Y-115932872D01*
X128676056Y-115932872D01*
X128589112Y-115951353D01*
X128495712Y-115971206D01*
X128489682Y-115973891D01*
X128489681Y-115973891D01*
X128327278Y-116046197D01*
X128327276Y-116046198D01*
X128321248Y-116048882D01*
X128315907Y-116052762D01*
X128315906Y-116052763D01*
X128218002Y-116123895D01*
X128151135Y-116147753D01*
X128081983Y-116131673D01*
X128069880Y-116123895D01*
X127965094Y-116047763D01*
X127965093Y-116047762D01*
X127959752Y-116043882D01*
X127953724Y-116041198D01*
X127953722Y-116041197D01*
X127791319Y-115968891D01*
X127791318Y-115968891D01*
X127785288Y-115966206D01*
X127691887Y-115946353D01*
X127604944Y-115927872D01*
X127604939Y-115927872D01*
X127598487Y-115926500D01*
X127407513Y-115926500D01*
X127401061Y-115927872D01*
X127401056Y-115927872D01*
X127314113Y-115946353D01*
X127220712Y-115966206D01*
X127214682Y-115968891D01*
X127214681Y-115968891D01*
X127052278Y-116041197D01*
X127052276Y-116041198D01*
X127046248Y-116043882D01*
X127040907Y-116047762D01*
X127040906Y-116047763D01*
X127034024Y-116052763D01*
X126891747Y-116156134D01*
X126763960Y-116298056D01*
X126668473Y-116463444D01*
X126609458Y-116645072D01*
X126608768Y-116651633D01*
X126608768Y-116651635D01*
X126597295Y-116760794D01*
X126589496Y-116835000D01*
X118247631Y-116835000D01*
X118242232Y-116783635D01*
X118242232Y-116783633D01*
X118241542Y-116777072D01*
X118182527Y-116595444D01*
X118176754Y-116585444D01*
X118109203Y-116468444D01*
X118087040Y-116430056D01*
X117959253Y-116288134D01*
X117804752Y-116175882D01*
X117798724Y-116173198D01*
X117798722Y-116173197D01*
X117636319Y-116100891D01*
X117636318Y-116100891D01*
X117630288Y-116098206D01*
X117536887Y-116078353D01*
X117449944Y-116059872D01*
X117449939Y-116059872D01*
X117443487Y-116058500D01*
X117252513Y-116058500D01*
X117246061Y-116059872D01*
X117246056Y-116059872D01*
X117159113Y-116078353D01*
X117065712Y-116098206D01*
X117059682Y-116100891D01*
X117059681Y-116100891D01*
X116897278Y-116173197D01*
X116897276Y-116173198D01*
X116891248Y-116175882D01*
X116787060Y-116251579D01*
X116720194Y-116275437D01*
X116651042Y-116259357D01*
X116638944Y-116251582D01*
X116534752Y-116175882D01*
X116528724Y-116173198D01*
X116528722Y-116173197D01*
X116366319Y-116100891D01*
X116366318Y-116100891D01*
X116360288Y-116098206D01*
X116266887Y-116078353D01*
X116179944Y-116059872D01*
X116179939Y-116059872D01*
X116173487Y-116058500D01*
X115982513Y-116058500D01*
X115976061Y-116059872D01*
X115976056Y-116059872D01*
X115889113Y-116078353D01*
X115795712Y-116098206D01*
X115789682Y-116100891D01*
X115789681Y-116100891D01*
X115627278Y-116173197D01*
X115627276Y-116173198D01*
X115621248Y-116175882D01*
X115466747Y-116288134D01*
X115338960Y-116430056D01*
X115316797Y-116468444D01*
X115249247Y-116585444D01*
X115243473Y-116595444D01*
X115184458Y-116777072D01*
X115183768Y-116783633D01*
X115183768Y-116783635D01*
X115177154Y-116846565D01*
X115164496Y-116967000D01*
X105306453Y-116967000D01*
X105307504Y-116957000D01*
X105295897Y-116846565D01*
X105288232Y-116773635D01*
X105288232Y-116773633D01*
X105287542Y-116767072D01*
X105228527Y-116585444D01*
X105133040Y-116420056D01*
X105005253Y-116278134D01*
X104906157Y-116206136D01*
X104856094Y-116169763D01*
X104856093Y-116169762D01*
X104850752Y-116165882D01*
X104844724Y-116163198D01*
X104844722Y-116163197D01*
X104682319Y-116090891D01*
X104682318Y-116090891D01*
X104676288Y-116088206D01*
X104582887Y-116068353D01*
X104495944Y-116049872D01*
X104495939Y-116049872D01*
X104489487Y-116048500D01*
X104298513Y-116048500D01*
X104292061Y-116049872D01*
X104292056Y-116049872D01*
X104205113Y-116068353D01*
X104111712Y-116088206D01*
X104105682Y-116090891D01*
X104105681Y-116090891D01*
X103943278Y-116163197D01*
X103943276Y-116163198D01*
X103937248Y-116165882D01*
X103931907Y-116169762D01*
X103931906Y-116169763D01*
X103881843Y-116206136D01*
X103782747Y-116278134D01*
X103654960Y-116420056D01*
X103559473Y-116585444D01*
X103500458Y-116767072D01*
X103499768Y-116773633D01*
X103499768Y-116773635D01*
X103492103Y-116846565D01*
X103480496Y-116957000D01*
X100656241Y-116957000D01*
X100675222Y-111281697D01*
X100695451Y-111213643D01*
X100749262Y-111167330D01*
X100819570Y-111157461D01*
X100884051Y-111187170D01*
X100921054Y-111243182D01*
X100965284Y-111379309D01*
X100968199Y-111386672D01*
X101099189Y-111665041D01*
X101103001Y-111671974D01*
X101267851Y-111931736D01*
X101272495Y-111938129D01*
X101347497Y-112028790D01*
X101360014Y-112037245D01*
X101370752Y-112031038D01*
X101646886Y-111754904D01*
X101709198Y-111720878D01*
X101780013Y-111725943D01*
X101828502Y-111758467D01*
X101874520Y-111808249D01*
X102005002Y-111914478D01*
X102007416Y-111916443D01*
X102047615Y-111974963D01*
X102049794Y-112045926D01*
X102016960Y-112103250D01*
X101728334Y-112391876D01*
X101721721Y-112403987D01*
X101730548Y-112415605D01*
X101953281Y-112577430D01*
X101959961Y-112581670D01*
X102229572Y-112729890D01*
X102236707Y-112733247D01*
X102522770Y-112846508D01*
X102530296Y-112848953D01*
X102828279Y-112925462D01*
X102836050Y-112926945D01*
X103141278Y-112965503D01*
X103149169Y-112966000D01*
X103456831Y-112966000D01*
X103464722Y-112965503D01*
X103769950Y-112926945D01*
X103777721Y-112925462D01*
X104075704Y-112848953D01*
X104083230Y-112846508D01*
X104369293Y-112733247D01*
X104376428Y-112729890D01*
X104646039Y-112581670D01*
X104652719Y-112577430D01*
X104875823Y-112415336D01*
X104884246Y-112404413D01*
X104877342Y-112391552D01*
X104447347Y-111961557D01*
X104413321Y-111899245D01*
X104418386Y-111828430D01*
X104452377Y-111778606D01*
X104484724Y-111749634D01*
X104484729Y-111749629D01*
X104488047Y-111746657D01*
X104505459Y-111725943D01*
X104611014Y-111600370D01*
X104670158Y-111561095D01*
X104741147Y-111560030D01*
X104796560Y-111592350D01*
X105234145Y-112029935D01*
X105247407Y-112037177D01*
X105257512Y-112029988D01*
X105333505Y-111938129D01*
X105338149Y-111931736D01*
X105502999Y-111671974D01*
X105506811Y-111665041D01*
X105538310Y-111598102D01*
X106158141Y-111598102D01*
X106159120Y-111603799D01*
X106159120Y-111603800D01*
X106161604Y-111618258D01*
X106193732Y-111805228D01*
X106266472Y-112002399D01*
X106269424Y-112007360D01*
X106269424Y-112007361D01*
X106283511Y-112031038D01*
X106373926Y-112183012D01*
X106512494Y-112341019D01*
X106677537Y-112471128D01*
X106682653Y-112473819D01*
X106682655Y-112473821D01*
X106858410Y-112566290D01*
X106863527Y-112568982D01*
X107064234Y-112631304D01*
X107069969Y-112631983D01*
X107069970Y-112631983D01*
X107100532Y-112635600D01*
X107234874Y-112651500D01*
X107356316Y-112651500D01*
X107512279Y-112637169D01*
X107517841Y-112635600D01*
X107517843Y-112635600D01*
X107613414Y-112608646D01*
X107714549Y-112580123D01*
X107903037Y-112487171D01*
X108071429Y-112361427D01*
X108146474Y-112280244D01*
X108210167Y-112211341D01*
X108210169Y-112211338D01*
X108214086Y-112207101D01*
X108326231Y-112029362D01*
X108404108Y-111834163D01*
X108405233Y-111828506D01*
X108405235Y-111828500D01*
X108443981Y-111633707D01*
X108443981Y-111633705D01*
X108445108Y-111628040D01*
X108445426Y-111603800D01*
X108447783Y-111423680D01*
X108447859Y-111417898D01*
X108412268Y-111210772D01*
X108339528Y-111013601D01*
X108232074Y-110832988D01*
X108093506Y-110674981D01*
X107928463Y-110544872D01*
X107923347Y-110542181D01*
X107923345Y-110542179D01*
X107770870Y-110461958D01*
X163170290Y-110461958D01*
X163189607Y-110768994D01*
X163190600Y-110776855D01*
X163248246Y-111079046D01*
X163250217Y-111086723D01*
X163345284Y-111379309D01*
X163348199Y-111386672D01*
X163479189Y-111665041D01*
X163483001Y-111671974D01*
X163647851Y-111931736D01*
X163652495Y-111938129D01*
X163727497Y-112028790D01*
X163740014Y-112037245D01*
X163750752Y-112031038D01*
X164195412Y-111586378D01*
X164257724Y-111552352D01*
X164328539Y-111557417D01*
X164388159Y-111603833D01*
X164395865Y-111614982D01*
X164493755Y-111720878D01*
X164548699Y-111780316D01*
X164580252Y-111843916D01*
X164572411Y-111914478D01*
X164545270Y-111954940D01*
X164108334Y-112391876D01*
X164101721Y-112403987D01*
X164110548Y-112415605D01*
X164333281Y-112577430D01*
X164339961Y-112581670D01*
X164609572Y-112729890D01*
X164616707Y-112733247D01*
X164902770Y-112846508D01*
X164910296Y-112848953D01*
X165208279Y-112925462D01*
X165216050Y-112926945D01*
X165521278Y-112965503D01*
X165529169Y-112966000D01*
X165836831Y-112966000D01*
X165844722Y-112965503D01*
X166149950Y-112926945D01*
X166157721Y-112925462D01*
X166455704Y-112848953D01*
X166463230Y-112846508D01*
X166749293Y-112733247D01*
X166756428Y-112729890D01*
X167026039Y-112581670D01*
X167032719Y-112577430D01*
X167255823Y-112415336D01*
X167264246Y-112404413D01*
X167257342Y-112391552D01*
X166977973Y-112112183D01*
X166943947Y-112049871D01*
X166949012Y-111979056D01*
X166989599Y-111923857D01*
X166991997Y-111922254D01*
X167174555Y-111758742D01*
X167238642Y-111728193D01*
X167309072Y-111737141D01*
X167347714Y-111763504D01*
X167614145Y-112029935D01*
X167627407Y-112037177D01*
X167637512Y-112029988D01*
X167713505Y-111938129D01*
X167718149Y-111931736D01*
X167882999Y-111671974D01*
X167886811Y-111665041D01*
X168017801Y-111386672D01*
X168020716Y-111379309D01*
X168115783Y-111086723D01*
X168117754Y-111079046D01*
X168175400Y-110776855D01*
X168176393Y-110768994D01*
X168195710Y-110461958D01*
X168195710Y-110454042D01*
X168176393Y-110147006D01*
X168175400Y-110139145D01*
X168117754Y-109836954D01*
X168115783Y-109829277D01*
X168020716Y-109536691D01*
X168017801Y-109529328D01*
X167886811Y-109250959D01*
X167882999Y-109244026D01*
X167718149Y-108984264D01*
X167713505Y-108977871D01*
X167638503Y-108887210D01*
X167625986Y-108878755D01*
X167615248Y-108884962D01*
X167353382Y-109146828D01*
X167291070Y-109180854D01*
X167220255Y-109175789D01*
X167174495Y-109146127D01*
X167092038Y-109062365D01*
X167082187Y-109052358D01*
X166996633Y-108987065D01*
X166954617Y-108929837D01*
X166950211Y-108858977D01*
X166983982Y-108797808D01*
X167257666Y-108524124D01*
X167264279Y-108512013D01*
X167255452Y-108500395D01*
X167032719Y-108338570D01*
X167026039Y-108334330D01*
X166756428Y-108186110D01*
X166749293Y-108182753D01*
X166463230Y-108069492D01*
X166455704Y-108067047D01*
X166157721Y-107990538D01*
X166149950Y-107989055D01*
X165844722Y-107950497D01*
X165836831Y-107950000D01*
X165529169Y-107950000D01*
X165521278Y-107950497D01*
X165216050Y-107989055D01*
X165208279Y-107990538D01*
X164910296Y-108067047D01*
X164902770Y-108069492D01*
X164616707Y-108182753D01*
X164609572Y-108186110D01*
X164339961Y-108334330D01*
X164333281Y-108338570D01*
X164110177Y-108500664D01*
X164101754Y-108511587D01*
X164108658Y-108524448D01*
X164538467Y-108954257D01*
X164572493Y-109016569D01*
X164567428Y-109087384D01*
X164536344Y-109134520D01*
X164508229Y-109161341D01*
X164487774Y-109180854D01*
X164471885Y-109196011D01*
X164469129Y-109199507D01*
X164378894Y-109313970D01*
X164321013Y-109355083D01*
X164250093Y-109358377D01*
X164190849Y-109325059D01*
X163751855Y-108886065D01*
X163738593Y-108878823D01*
X163728488Y-108886012D01*
X163652495Y-108977871D01*
X163647851Y-108984264D01*
X163483001Y-109244026D01*
X163479189Y-109250959D01*
X163348199Y-109529328D01*
X163345284Y-109536691D01*
X163250217Y-109829277D01*
X163248246Y-109836954D01*
X163190600Y-110139145D01*
X163189607Y-110147006D01*
X163170290Y-110454042D01*
X163170290Y-110461958D01*
X107770870Y-110461958D01*
X107747590Y-110449710D01*
X107747588Y-110449709D01*
X107742473Y-110447018D01*
X107541766Y-110384696D01*
X107536031Y-110384017D01*
X107536030Y-110384017D01*
X107487742Y-110378302D01*
X107371126Y-110364500D01*
X107249684Y-110364500D01*
X107093721Y-110378831D01*
X107088159Y-110380400D01*
X107088157Y-110380400D01*
X107048892Y-110391474D01*
X106891451Y-110435877D01*
X106702963Y-110528829D01*
X106534571Y-110654573D01*
X106530657Y-110658807D01*
X106530655Y-110658809D01*
X106407287Y-110792269D01*
X106391914Y-110808899D01*
X106279769Y-110986638D01*
X106201892Y-111181837D01*
X106200767Y-111187494D01*
X106200765Y-111187500D01*
X106174038Y-111321869D01*
X106160892Y-111387960D01*
X106160816Y-111393735D01*
X106160816Y-111393739D01*
X106160500Y-111417898D01*
X106158141Y-111598102D01*
X105538310Y-111598102D01*
X105637801Y-111386672D01*
X105640716Y-111379309D01*
X105735783Y-111086723D01*
X105737754Y-111079046D01*
X105795400Y-110776855D01*
X105796393Y-110768994D01*
X105815710Y-110461958D01*
X105815710Y-110454042D01*
X105796393Y-110147006D01*
X105795400Y-110139145D01*
X105737754Y-109836954D01*
X105735783Y-109829277D01*
X105640716Y-109536691D01*
X105637801Y-109529328D01*
X105506811Y-109250959D01*
X105502999Y-109244026D01*
X105338149Y-108984264D01*
X105333505Y-108977871D01*
X105258503Y-108887210D01*
X105245986Y-108878755D01*
X105235248Y-108884962D01*
X104803485Y-109316725D01*
X104741173Y-109350751D01*
X104670358Y-109345686D01*
X104613042Y-109302492D01*
X104566824Y-109239918D01*
X104453638Y-109124940D01*
X104420104Y-109062365D01*
X104425725Y-108991591D01*
X104454336Y-108947454D01*
X104877666Y-108524124D01*
X104884279Y-108512013D01*
X104875452Y-108500395D01*
X104652719Y-108338570D01*
X104646039Y-108334330D01*
X104376428Y-108186110D01*
X104369293Y-108182753D01*
X104083230Y-108069492D01*
X104075704Y-108067047D01*
X103777721Y-107990538D01*
X103769950Y-107989055D01*
X103464722Y-107950497D01*
X103456831Y-107950000D01*
X103149169Y-107950000D01*
X103141278Y-107950497D01*
X102836050Y-107989055D01*
X102828279Y-107990538D01*
X102530296Y-108067047D01*
X102522770Y-108069492D01*
X102236707Y-108182753D01*
X102229572Y-108186110D01*
X101959961Y-108334330D01*
X101953281Y-108338570D01*
X101730177Y-108500664D01*
X101721754Y-108511587D01*
X101728658Y-108524448D01*
X102006612Y-108802402D01*
X102040638Y-108864714D01*
X102035573Y-108935529D01*
X101990777Y-108994010D01*
X101962322Y-109014344D01*
X101922473Y-109052358D01*
X101814827Y-109155046D01*
X101751731Y-109187593D01*
X101681054Y-109180861D01*
X101638761Y-109152971D01*
X101371855Y-108886065D01*
X101358593Y-108878823D01*
X101348488Y-108886012D01*
X101272495Y-108977871D01*
X101267851Y-108984264D01*
X101103001Y-109244026D01*
X101099189Y-109250959D01*
X100968199Y-109529328D01*
X100965284Y-109536691D01*
X100926624Y-109655676D01*
X100886551Y-109714282D01*
X100821154Y-109741919D01*
X100751198Y-109729812D01*
X100698891Y-109681806D01*
X100680792Y-109616319D01*
X100686398Y-107940000D01*
X107417496Y-107940000D01*
X107437458Y-108129928D01*
X107496473Y-108311556D01*
X107499776Y-108317278D01*
X107499777Y-108317279D01*
X107515054Y-108343739D01*
X107591960Y-108476944D01*
X107596378Y-108481851D01*
X107596379Y-108481852D01*
X107715325Y-108613955D01*
X107719747Y-108618866D01*
X107874248Y-108731118D01*
X107880276Y-108733802D01*
X107880278Y-108733803D01*
X108005435Y-108789526D01*
X108048712Y-108808794D01*
X108142112Y-108828647D01*
X108229056Y-108847128D01*
X108229061Y-108847128D01*
X108235513Y-108848500D01*
X108426487Y-108848500D01*
X108432939Y-108847128D01*
X108432944Y-108847128D01*
X108519887Y-108828647D01*
X108613288Y-108808794D01*
X108656565Y-108789526D01*
X108781722Y-108733803D01*
X108781724Y-108733802D01*
X108787752Y-108731118D01*
X108942253Y-108618866D01*
X108946675Y-108613955D01*
X109005969Y-108548102D01*
X160538141Y-108548102D01*
X160539120Y-108553799D01*
X160539120Y-108553800D01*
X160550968Y-108622749D01*
X160573732Y-108755228D01*
X160646472Y-108952399D01*
X160649424Y-108957360D01*
X160649424Y-108957361D01*
X160683326Y-109014344D01*
X160753926Y-109133012D01*
X160892494Y-109291019D01*
X161057537Y-109421128D01*
X161062653Y-109423819D01*
X161062655Y-109423821D01*
X161238410Y-109516290D01*
X161243527Y-109518982D01*
X161444234Y-109581304D01*
X161449969Y-109581983D01*
X161449970Y-109581983D01*
X161480532Y-109585600D01*
X161614874Y-109601500D01*
X161736316Y-109601500D01*
X161892279Y-109587169D01*
X161897841Y-109585600D01*
X161897843Y-109585600D01*
X161993414Y-109558646D01*
X162094549Y-109530123D01*
X162283037Y-109437171D01*
X162329200Y-109402700D01*
X162446805Y-109314880D01*
X162446806Y-109314879D01*
X162451429Y-109311427D01*
X162517531Y-109239918D01*
X162590167Y-109161341D01*
X162590169Y-109161338D01*
X162594086Y-109157101D01*
X162706231Y-108979362D01*
X162784108Y-108784163D01*
X162785233Y-108778506D01*
X162785235Y-108778500D01*
X162823981Y-108583707D01*
X162823981Y-108583705D01*
X162825108Y-108578040D01*
X162825426Y-108553800D01*
X162827783Y-108373680D01*
X162827859Y-108367898D01*
X162822820Y-108338570D01*
X162793247Y-108166469D01*
X162793247Y-108166468D01*
X162792268Y-108160772D01*
X162719528Y-107963601D01*
X162612074Y-107782988D01*
X162473506Y-107624981D01*
X162308463Y-107494872D01*
X162303347Y-107492181D01*
X162303345Y-107492179D01*
X162127590Y-107399710D01*
X162127588Y-107399709D01*
X162122473Y-107397018D01*
X161921766Y-107334696D01*
X161916031Y-107334017D01*
X161916030Y-107334017D01*
X161867742Y-107328302D01*
X161751126Y-107314500D01*
X161629684Y-107314500D01*
X161473721Y-107328831D01*
X161468159Y-107330400D01*
X161468157Y-107330400D01*
X161372586Y-107357354D01*
X161271451Y-107385877D01*
X161082963Y-107478829D01*
X160914571Y-107604573D01*
X160910657Y-107608807D01*
X160910655Y-107608809D01*
X160780074Y-107750072D01*
X160771914Y-107758899D01*
X160659769Y-107936638D01*
X160581892Y-108131837D01*
X160580767Y-108137494D01*
X160580765Y-108137500D01*
X160542019Y-108332293D01*
X160540892Y-108337960D01*
X160540816Y-108343735D01*
X160540816Y-108343739D01*
X160540500Y-108367898D01*
X160538141Y-108548102D01*
X109005969Y-108548102D01*
X109065621Y-108481852D01*
X109065622Y-108481851D01*
X109070040Y-108476944D01*
X109146946Y-108343739D01*
X109162223Y-108317279D01*
X109162224Y-108317278D01*
X109165527Y-108311556D01*
X109224542Y-108129928D01*
X109244504Y-107940000D01*
X109243637Y-107931755D01*
X109225232Y-107756635D01*
X109225232Y-107756633D01*
X109224542Y-107750072D01*
X109165527Y-107568444D01*
X109070040Y-107403056D01*
X109064604Y-107397018D01*
X108946675Y-107266045D01*
X108946674Y-107266044D01*
X108942253Y-107261134D01*
X108787752Y-107148882D01*
X108781724Y-107146198D01*
X108781722Y-107146197D01*
X108619319Y-107073891D01*
X108619318Y-107073891D01*
X108613288Y-107071206D01*
X108519888Y-107051353D01*
X108432944Y-107032872D01*
X108432939Y-107032872D01*
X108426487Y-107031500D01*
X108235513Y-107031500D01*
X108229061Y-107032872D01*
X108229056Y-107032872D01*
X108142112Y-107051353D01*
X108048712Y-107071206D01*
X108042682Y-107073891D01*
X108042681Y-107073891D01*
X107880278Y-107146197D01*
X107880276Y-107146198D01*
X107874248Y-107148882D01*
X107719747Y-107261134D01*
X107715326Y-107266044D01*
X107715325Y-107266045D01*
X107597397Y-107397018D01*
X107591960Y-107403056D01*
X107496473Y-107568444D01*
X107437458Y-107750072D01*
X107436768Y-107756633D01*
X107436768Y-107756635D01*
X107418363Y-107931755D01*
X107417496Y-107940000D01*
X100686398Y-107940000D01*
X100710580Y-100709579D01*
X100730809Y-100641525D01*
X100784620Y-100595212D01*
X100836579Y-100584000D01*
X168365500Y-100584000D01*
X168433621Y-100604002D01*
G37*
G04 #@! TD.AperFunction*
M02*
