G04 #@! TF.GenerationSoftware,KiCad,Pcbnew,(6.0.4-0)*
G04 #@! TF.CreationDate,2022-11-09T17:11:16+01:00*
G04 #@! TF.ProjectId,adapter_hybrid_assistor_hpc_2HDMI,61646170-7465-4725-9f68-79627269645f,rev?*
G04 #@! TF.SameCoordinates,Original*
G04 #@! TF.FileFunction,Legend,Top*
G04 #@! TF.FilePolarity,Positive*
%FSLAX46Y46*%
G04 Gerber Fmt 4.6, Leading zero omitted, Abs format (unit mm)*
G04 Created by KiCad (PCBNEW (6.0.4-0)) date 2022-11-09 17:11:16*
%MOMM*%
%LPD*%
G01*
G04 APERTURE LIST*
G04 #@! TA.AperFunction,Profile*
%ADD10C,0.100000*%
G04 #@! TD*
G04 #@! TA.AperFunction,Profile*
%ADD11C,0.050000*%
G04 #@! TD*
%ADD12C,0.254000*%
%ADD13C,0.150000*%
%ADD14C,0.330000*%
%ADD15C,0.120000*%
%ADD16C,0.300000*%
%ADD17C,0.250000*%
G04 APERTURE END LIST*
D10*
X100000000Y-100000000D02*
X100000000Y-176500000D01*
X100000000Y-176500000D02*
X169000000Y-176500000D01*
X169000000Y-100000000D02*
X169000000Y-176500000D01*
X100000000Y-100000000D02*
X169000000Y-100000000D01*
D11*
X168050000Y-173800000D02*
G75*
G03*
X168050000Y-173800000I-1350000J0D01*
G01*
X103350000Y-173800000D02*
G75*
G03*
X103350000Y-173800000I-1350000J0D01*
G01*
X104500000Y-110450000D02*
G75*
G03*
X104500000Y-110450000I-1350000J0D01*
G01*
X167200000Y-110450000D02*
G75*
G03*
X167200000Y-110450000I-1350000J0D01*
G01*
X101666666Y-176500000D02*
G75*
G03*
X101666666Y-176500000I-1666666J0D01*
G01*
X97500000Y-176500000D02*
X102500000Y-176500000D01*
X100000000Y-174000000D02*
X100000000Y-179000000D01*
X101666666Y-176500000D02*
G75*
G03*
X101666666Y-176500000I-1666666J0D01*
G01*
X97500000Y-176500000D02*
X102500000Y-176500000D01*
X100000000Y-174000000D02*
X100000000Y-179000000D01*
X101666666Y-176500000D02*
G75*
G03*
X101666666Y-176500000I-1666666J0D01*
G01*
X97500000Y-176500000D02*
X102500000Y-176500000D01*
X100000000Y-174000000D02*
X100000000Y-179000000D01*
D12*
X114273571Y-134541666D02*
X114334047Y-134602142D01*
X114394523Y-134783571D01*
X114394523Y-134904523D01*
X114334047Y-135085952D01*
X114213095Y-135206904D01*
X114092142Y-135267380D01*
X113850238Y-135327857D01*
X113668809Y-135327857D01*
X113426904Y-135267380D01*
X113305952Y-135206904D01*
X113185000Y-135085952D01*
X113124523Y-134904523D01*
X113124523Y-134783571D01*
X113185000Y-134602142D01*
X113245476Y-134541666D01*
X113668809Y-133815952D02*
X113608333Y-133936904D01*
X113547857Y-133997380D01*
X113426904Y-134057857D01*
X113366428Y-134057857D01*
X113245476Y-133997380D01*
X113185000Y-133936904D01*
X113124523Y-133815952D01*
X113124523Y-133574047D01*
X113185000Y-133453095D01*
X113245476Y-133392619D01*
X113366428Y-133332142D01*
X113426904Y-133332142D01*
X113547857Y-133392619D01*
X113608333Y-133453095D01*
X113668809Y-133574047D01*
X113668809Y-133815952D01*
X113729285Y-133936904D01*
X113789761Y-133997380D01*
X113910714Y-134057857D01*
X114152619Y-134057857D01*
X114273571Y-133997380D01*
X114334047Y-133936904D01*
X114394523Y-133815952D01*
X114394523Y-133574047D01*
X114334047Y-133453095D01*
X114273571Y-133392619D01*
X114152619Y-133332142D01*
X113910714Y-133332142D01*
X113789761Y-133392619D01*
X113729285Y-133453095D01*
X113668809Y-133574047D01*
X115984523Y-136425476D02*
X115984523Y-137151190D01*
X115984523Y-136788333D02*
X114714523Y-136788333D01*
X114895952Y-136909285D01*
X115016904Y-137030238D01*
X115077380Y-137151190D01*
X114714523Y-135639285D02*
X114714523Y-135518333D01*
X114775000Y-135397380D01*
X114835476Y-135336904D01*
X114956428Y-135276428D01*
X115198333Y-135215952D01*
X115500714Y-135215952D01*
X115742619Y-135276428D01*
X115863571Y-135336904D01*
X115924047Y-135397380D01*
X115984523Y-135518333D01*
X115984523Y-135639285D01*
X115924047Y-135760238D01*
X115863571Y-135820714D01*
X115742619Y-135881190D01*
X115500714Y-135941666D01*
X115198333Y-135941666D01*
X114956428Y-135881190D01*
X114835476Y-135820714D01*
X114775000Y-135760238D01*
X114714523Y-135639285D01*
X114714523Y-134429761D02*
X114714523Y-134308809D01*
X114775000Y-134187857D01*
X114835476Y-134127380D01*
X114956428Y-134066904D01*
X115198333Y-134006428D01*
X115500714Y-134006428D01*
X115742619Y-134066904D01*
X115863571Y-134127380D01*
X115924047Y-134187857D01*
X115984523Y-134308809D01*
X115984523Y-134429761D01*
X115924047Y-134550714D01*
X115863571Y-134611190D01*
X115742619Y-134671666D01*
X115500714Y-134732142D01*
X115198333Y-134732142D01*
X114956428Y-134671666D01*
X114835476Y-134611190D01*
X114775000Y-134550714D01*
X114714523Y-134429761D01*
X115137857Y-133462142D02*
X115984523Y-133462142D01*
X115258809Y-133462142D02*
X115198333Y-133401666D01*
X115137857Y-133280714D01*
X115137857Y-133099285D01*
X115198333Y-132978333D01*
X115319285Y-132917857D01*
X115984523Y-132917857D01*
X115319285Y-131889761D02*
X115319285Y-132313095D01*
X115984523Y-132313095D02*
X114714523Y-132313095D01*
X114714523Y-131708333D01*
D13*
X134159666Y-101712380D02*
X134159666Y-102426666D01*
X134112047Y-102569523D01*
X134016809Y-102664761D01*
X133873952Y-102712380D01*
X133778714Y-102712380D01*
X135159666Y-102712380D02*
X134588238Y-102712380D01*
X134873952Y-102712380D02*
X134873952Y-101712380D01*
X134778714Y-101855238D01*
X134683476Y-101950476D01*
X134588238Y-101998095D01*
D12*
X148293666Y-169230523D02*
X148293666Y-170137666D01*
X148233190Y-170319095D01*
X148112238Y-170440047D01*
X147930809Y-170500523D01*
X147809857Y-170500523D01*
X148837952Y-169351476D02*
X148898428Y-169291000D01*
X149019380Y-169230523D01*
X149321761Y-169230523D01*
X149442714Y-169291000D01*
X149503190Y-169351476D01*
X149563666Y-169472428D01*
X149563666Y-169593380D01*
X149503190Y-169774809D01*
X148777476Y-170500523D01*
X149563666Y-170500523D01*
X121877666Y-169230523D02*
X121877666Y-170137666D01*
X121817190Y-170319095D01*
X121696238Y-170440047D01*
X121514809Y-170500523D01*
X121393857Y-170500523D01*
X122361476Y-169230523D02*
X123147666Y-169230523D01*
X122724333Y-169714333D01*
X122905761Y-169714333D01*
X123026714Y-169774809D01*
X123087190Y-169835285D01*
X123147666Y-169956238D01*
X123147666Y-170258619D01*
X123087190Y-170379571D01*
X123026714Y-170440047D01*
X122905761Y-170500523D01*
X122542904Y-170500523D01*
X122421952Y-170440047D01*
X122361476Y-170379571D01*
X129334523Y-134667619D02*
X130362619Y-134667619D01*
X130483571Y-134607142D01*
X130544047Y-134546666D01*
X130604523Y-134425714D01*
X130604523Y-134183809D01*
X130544047Y-134062857D01*
X130483571Y-134002380D01*
X130362619Y-133941904D01*
X129334523Y-133941904D01*
X129878809Y-133155714D02*
X129818333Y-133276666D01*
X129757857Y-133337142D01*
X129636904Y-133397619D01*
X129576428Y-133397619D01*
X129455476Y-133337142D01*
X129395000Y-133276666D01*
X129334523Y-133155714D01*
X129334523Y-132913809D01*
X129395000Y-132792857D01*
X129455476Y-132732380D01*
X129576428Y-132671904D01*
X129636904Y-132671904D01*
X129757857Y-132732380D01*
X129818333Y-132792857D01*
X129878809Y-132913809D01*
X129878809Y-133155714D01*
X129939285Y-133276666D01*
X129999761Y-133337142D01*
X130120714Y-133397619D01*
X130362619Y-133397619D01*
X130483571Y-133337142D01*
X130544047Y-133276666D01*
X130604523Y-133155714D01*
X130604523Y-132913809D01*
X130544047Y-132792857D01*
X130483571Y-132732380D01*
X130362619Y-132671904D01*
X130120714Y-132671904D01*
X129999761Y-132732380D01*
X129939285Y-132792857D01*
X129878809Y-132913809D01*
X128854523Y-140625000D02*
X127584523Y-140625000D01*
X127584523Y-140322619D01*
X127645000Y-140141190D01*
X127765952Y-140020238D01*
X127886904Y-139959761D01*
X128128809Y-139899285D01*
X128310238Y-139899285D01*
X128552142Y-139959761D01*
X128673095Y-140020238D01*
X128794047Y-140141190D01*
X128854523Y-140322619D01*
X128854523Y-140625000D01*
X128794047Y-139415476D02*
X128854523Y-139234047D01*
X128854523Y-138931666D01*
X128794047Y-138810714D01*
X128733571Y-138750238D01*
X128612619Y-138689761D01*
X128491666Y-138689761D01*
X128370714Y-138750238D01*
X128310238Y-138810714D01*
X128249761Y-138931666D01*
X128189285Y-139173571D01*
X128128809Y-139294523D01*
X128068333Y-139355000D01*
X127947380Y-139415476D01*
X127826428Y-139415476D01*
X127705476Y-139355000D01*
X127645000Y-139294523D01*
X127584523Y-139173571D01*
X127584523Y-138871190D01*
X127645000Y-138689761D01*
X127705476Y-138205952D02*
X127645000Y-138145476D01*
X127584523Y-138024523D01*
X127584523Y-137722142D01*
X127645000Y-137601190D01*
X127705476Y-137540714D01*
X127826428Y-137480238D01*
X127947380Y-137480238D01*
X128128809Y-137540714D01*
X128854523Y-138266428D01*
X128854523Y-137480238D01*
X127584523Y-136331190D02*
X127584523Y-136935952D01*
X128189285Y-136996428D01*
X128128809Y-136935952D01*
X128068333Y-136815000D01*
X128068333Y-136512619D01*
X128128809Y-136391666D01*
X128189285Y-136331190D01*
X128310238Y-136270714D01*
X128612619Y-136270714D01*
X128733571Y-136331190D01*
X128794047Y-136391666D01*
X128854523Y-136512619D01*
X128854523Y-136815000D01*
X128794047Y-136935952D01*
X128733571Y-136996428D01*
X128733571Y-135000714D02*
X128794047Y-135061190D01*
X128854523Y-135242619D01*
X128854523Y-135363571D01*
X128794047Y-135545000D01*
X128673095Y-135665952D01*
X128552142Y-135726428D01*
X128310238Y-135786904D01*
X128128809Y-135786904D01*
X127886904Y-135726428D01*
X127765952Y-135665952D01*
X127645000Y-135545000D01*
X127584523Y-135363571D01*
X127584523Y-135242619D01*
X127645000Y-135061190D01*
X127705476Y-135000714D01*
X128854523Y-134456428D02*
X127584523Y-134456428D01*
X127584523Y-133972619D01*
X127645000Y-133851666D01*
X127705476Y-133791190D01*
X127826428Y-133730714D01*
X128007857Y-133730714D01*
X128128809Y-133791190D01*
X128189285Y-133851666D01*
X128249761Y-133972619D01*
X128249761Y-134456428D01*
X128854523Y-132521190D02*
X128854523Y-133246904D01*
X128854523Y-132884047D02*
X127584523Y-132884047D01*
X127765952Y-133005000D01*
X127886904Y-133125952D01*
X127947380Y-133246904D01*
X127584523Y-131735000D02*
X127584523Y-131614047D01*
X127645000Y-131493095D01*
X127705476Y-131432619D01*
X127826428Y-131372142D01*
X128068333Y-131311666D01*
X128370714Y-131311666D01*
X128612619Y-131372142D01*
X128733571Y-131432619D01*
X128794047Y-131493095D01*
X128854523Y-131614047D01*
X128854523Y-131735000D01*
X128794047Y-131855952D01*
X128733571Y-131916428D01*
X128612619Y-131976904D01*
X128370714Y-132037380D01*
X128068333Y-132037380D01*
X127826428Y-131976904D01*
X127705476Y-131916428D01*
X127645000Y-131855952D01*
X127584523Y-131735000D01*
X127705476Y-130827857D02*
X127645000Y-130767380D01*
X127584523Y-130646428D01*
X127584523Y-130344047D01*
X127645000Y-130223095D01*
X127705476Y-130162619D01*
X127826428Y-130102142D01*
X127947380Y-130102142D01*
X128128809Y-130162619D01*
X128854523Y-130888333D01*
X128854523Y-130102142D01*
X127584523Y-129739285D02*
X127584523Y-129013571D01*
X128854523Y-129376428D02*
X127584523Y-129376428D01*
X128794047Y-128650714D02*
X128854523Y-128469285D01*
X128854523Y-128166904D01*
X128794047Y-128045952D01*
X128733571Y-127985476D01*
X128612619Y-127925000D01*
X128491666Y-127925000D01*
X128370714Y-127985476D01*
X128310238Y-128045952D01*
X128249761Y-128166904D01*
X128189285Y-128408809D01*
X128128809Y-128529761D01*
X128068333Y-128590238D01*
X127947380Y-128650714D01*
X127826428Y-128650714D01*
X127705476Y-128590238D01*
X127645000Y-128529761D01*
X127584523Y-128408809D01*
X127584523Y-128106428D01*
X127645000Y-127925000D01*
X128975476Y-126534047D02*
X128915000Y-126655000D01*
X128794047Y-126775952D01*
X128612619Y-126957380D01*
X128552142Y-127078333D01*
X128552142Y-127199285D01*
X128854523Y-127138809D02*
X128794047Y-127259761D01*
X128673095Y-127380714D01*
X128431190Y-127441190D01*
X128007857Y-127441190D01*
X127765952Y-127380714D01*
X127645000Y-127259761D01*
X127584523Y-127138809D01*
X127584523Y-126896904D01*
X127645000Y-126775952D01*
X127765952Y-126655000D01*
X128007857Y-126594523D01*
X128431190Y-126594523D01*
X128673095Y-126655000D01*
X128794047Y-126775952D01*
X128854523Y-126896904D01*
X128854523Y-127138809D01*
X147824523Y-134887619D02*
X148852619Y-134887619D01*
X148973571Y-134827142D01*
X149034047Y-134766666D01*
X149094523Y-134645714D01*
X149094523Y-134403809D01*
X149034047Y-134282857D01*
X148973571Y-134222380D01*
X148852619Y-134161904D01*
X147824523Y-134161904D01*
X147824523Y-133012857D02*
X147824523Y-133254761D01*
X147885000Y-133375714D01*
X147945476Y-133436190D01*
X148126904Y-133557142D01*
X148368809Y-133617619D01*
X148852619Y-133617619D01*
X148973571Y-133557142D01*
X149034047Y-133496666D01*
X149094523Y-133375714D01*
X149094523Y-133133809D01*
X149034047Y-133012857D01*
X148973571Y-132952380D01*
X148852619Y-132891904D01*
X148550238Y-132891904D01*
X148429285Y-132952380D01*
X148368809Y-133012857D01*
X148308333Y-133133809D01*
X148308333Y-133375714D01*
X148368809Y-133496666D01*
X148429285Y-133557142D01*
X148550238Y-133617619D01*
X147434523Y-139035000D02*
X146164523Y-139035000D01*
X146164523Y-138732619D01*
X146225000Y-138551190D01*
X146345952Y-138430238D01*
X146466904Y-138369761D01*
X146708809Y-138309285D01*
X146890238Y-138309285D01*
X147132142Y-138369761D01*
X147253095Y-138430238D01*
X147374047Y-138551190D01*
X147434523Y-138732619D01*
X147434523Y-139035000D01*
X147374047Y-137825476D02*
X147434523Y-137644047D01*
X147434523Y-137341666D01*
X147374047Y-137220714D01*
X147313571Y-137160238D01*
X147192619Y-137099761D01*
X147071666Y-137099761D01*
X146950714Y-137160238D01*
X146890238Y-137220714D01*
X146829761Y-137341666D01*
X146769285Y-137583571D01*
X146708809Y-137704523D01*
X146648333Y-137765000D01*
X146527380Y-137825476D01*
X146406428Y-137825476D01*
X146285476Y-137765000D01*
X146225000Y-137704523D01*
X146164523Y-137583571D01*
X146164523Y-137281190D01*
X146225000Y-137099761D01*
X146285476Y-136615952D02*
X146225000Y-136555476D01*
X146164523Y-136434523D01*
X146164523Y-136132142D01*
X146225000Y-136011190D01*
X146285476Y-135950714D01*
X146406428Y-135890238D01*
X146527380Y-135890238D01*
X146708809Y-135950714D01*
X147434523Y-136676428D01*
X147434523Y-135890238D01*
X146164523Y-134741190D02*
X146164523Y-135345952D01*
X146769285Y-135406428D01*
X146708809Y-135345952D01*
X146648333Y-135225000D01*
X146648333Y-134922619D01*
X146708809Y-134801666D01*
X146769285Y-134741190D01*
X146890238Y-134680714D01*
X147192619Y-134680714D01*
X147313571Y-134741190D01*
X147374047Y-134801666D01*
X147434523Y-134922619D01*
X147434523Y-135225000D01*
X147374047Y-135345952D01*
X147313571Y-135406428D01*
X147313571Y-133410714D02*
X147374047Y-133471190D01*
X147434523Y-133652619D01*
X147434523Y-133773571D01*
X147374047Y-133955000D01*
X147253095Y-134075952D01*
X147132142Y-134136428D01*
X146890238Y-134196904D01*
X146708809Y-134196904D01*
X146466904Y-134136428D01*
X146345952Y-134075952D01*
X146225000Y-133955000D01*
X146164523Y-133773571D01*
X146164523Y-133652619D01*
X146225000Y-133471190D01*
X146285476Y-133410714D01*
X147434523Y-132866428D02*
X146164523Y-132866428D01*
X146164523Y-132382619D01*
X146225000Y-132261666D01*
X146285476Y-132201190D01*
X146406428Y-132140714D01*
X146587857Y-132140714D01*
X146708809Y-132201190D01*
X146769285Y-132261666D01*
X146829761Y-132382619D01*
X146829761Y-132866428D01*
X147434523Y-130931190D02*
X147434523Y-131656904D01*
X147434523Y-131294047D02*
X146164523Y-131294047D01*
X146345952Y-131415000D01*
X146466904Y-131535952D01*
X146527380Y-131656904D01*
X146164523Y-130145000D02*
X146164523Y-130024047D01*
X146225000Y-129903095D01*
X146285476Y-129842619D01*
X146406428Y-129782142D01*
X146648333Y-129721666D01*
X146950714Y-129721666D01*
X147192619Y-129782142D01*
X147313571Y-129842619D01*
X147374047Y-129903095D01*
X147434523Y-130024047D01*
X147434523Y-130145000D01*
X147374047Y-130265952D01*
X147313571Y-130326428D01*
X147192619Y-130386904D01*
X146950714Y-130447380D01*
X146648333Y-130447380D01*
X146406428Y-130386904D01*
X146285476Y-130326428D01*
X146225000Y-130265952D01*
X146164523Y-130145000D01*
X146285476Y-129237857D02*
X146225000Y-129177380D01*
X146164523Y-129056428D01*
X146164523Y-128754047D01*
X146225000Y-128633095D01*
X146285476Y-128572619D01*
X146406428Y-128512142D01*
X146527380Y-128512142D01*
X146708809Y-128572619D01*
X147434523Y-129298333D01*
X147434523Y-128512142D01*
X146164523Y-128149285D02*
X146164523Y-127423571D01*
X147434523Y-127786428D02*
X146164523Y-127786428D01*
X147374047Y-127060714D02*
X147434523Y-126879285D01*
X147434523Y-126576904D01*
X147374047Y-126455952D01*
X147313571Y-126395476D01*
X147192619Y-126335000D01*
X147071666Y-126335000D01*
X146950714Y-126395476D01*
X146890238Y-126455952D01*
X146829761Y-126576904D01*
X146769285Y-126818809D01*
X146708809Y-126939761D01*
X146648333Y-127000238D01*
X146527380Y-127060714D01*
X146406428Y-127060714D01*
X146285476Y-127000238D01*
X146225000Y-126939761D01*
X146164523Y-126818809D01*
X146164523Y-126516428D01*
X146225000Y-126335000D01*
X147555476Y-124944047D02*
X147495000Y-125065000D01*
X147374047Y-125185952D01*
X147192619Y-125367380D01*
X147132142Y-125488333D01*
X147132142Y-125609285D01*
X147434523Y-125548809D02*
X147374047Y-125669761D01*
X147253095Y-125790714D01*
X147011190Y-125851190D01*
X146587857Y-125851190D01*
X146345952Y-125790714D01*
X146225000Y-125669761D01*
X146164523Y-125548809D01*
X146164523Y-125306904D01*
X146225000Y-125185952D01*
X146345952Y-125065000D01*
X146587857Y-125004523D01*
X147011190Y-125004523D01*
X147253095Y-125065000D01*
X147374047Y-125185952D01*
X147434523Y-125306904D01*
X147434523Y-125548809D01*
X132483571Y-134421666D02*
X132544047Y-134482142D01*
X132604523Y-134663571D01*
X132604523Y-134784523D01*
X132544047Y-134965952D01*
X132423095Y-135086904D01*
X132302142Y-135147380D01*
X132060238Y-135207857D01*
X131878809Y-135207857D01*
X131636904Y-135147380D01*
X131515952Y-135086904D01*
X131395000Y-134965952D01*
X131334523Y-134784523D01*
X131334523Y-134663571D01*
X131395000Y-134482142D01*
X131455476Y-134421666D01*
X131334523Y-133333095D02*
X131334523Y-133575000D01*
X131395000Y-133695952D01*
X131455476Y-133756428D01*
X131636904Y-133877380D01*
X131878809Y-133937857D01*
X132362619Y-133937857D01*
X132483571Y-133877380D01*
X132544047Y-133816904D01*
X132604523Y-133695952D01*
X132604523Y-133454047D01*
X132544047Y-133333095D01*
X132483571Y-133272619D01*
X132362619Y-133212142D01*
X132060238Y-133212142D01*
X131939285Y-133272619D01*
X131878809Y-133333095D01*
X131818333Y-133454047D01*
X131818333Y-133695952D01*
X131878809Y-133816904D01*
X131939285Y-133877380D01*
X132060238Y-133937857D01*
X134544523Y-136075476D02*
X134544523Y-136801190D01*
X134544523Y-136438333D02*
X133274523Y-136438333D01*
X133455952Y-136559285D01*
X133576904Y-136680238D01*
X133637380Y-136801190D01*
X133274523Y-135289285D02*
X133274523Y-135168333D01*
X133335000Y-135047380D01*
X133395476Y-134986904D01*
X133516428Y-134926428D01*
X133758333Y-134865952D01*
X134060714Y-134865952D01*
X134302619Y-134926428D01*
X134423571Y-134986904D01*
X134484047Y-135047380D01*
X134544523Y-135168333D01*
X134544523Y-135289285D01*
X134484047Y-135410238D01*
X134423571Y-135470714D01*
X134302619Y-135531190D01*
X134060714Y-135591666D01*
X133758333Y-135591666D01*
X133516428Y-135531190D01*
X133395476Y-135470714D01*
X133335000Y-135410238D01*
X133274523Y-135289285D01*
X133274523Y-134079761D02*
X133274523Y-133958809D01*
X133335000Y-133837857D01*
X133395476Y-133777380D01*
X133516428Y-133716904D01*
X133758333Y-133656428D01*
X134060714Y-133656428D01*
X134302619Y-133716904D01*
X134423571Y-133777380D01*
X134484047Y-133837857D01*
X134544523Y-133958809D01*
X134544523Y-134079761D01*
X134484047Y-134200714D01*
X134423571Y-134261190D01*
X134302619Y-134321666D01*
X134060714Y-134382142D01*
X133758333Y-134382142D01*
X133516428Y-134321666D01*
X133395476Y-134261190D01*
X133335000Y-134200714D01*
X133274523Y-134079761D01*
X133697857Y-133112142D02*
X134544523Y-133112142D01*
X133818809Y-133112142D02*
X133758333Y-133051666D01*
X133697857Y-132930714D01*
X133697857Y-132749285D01*
X133758333Y-132628333D01*
X133879285Y-132567857D01*
X134544523Y-132567857D01*
X133879285Y-131539761D02*
X133879285Y-131963095D01*
X134544523Y-131963095D02*
X133274523Y-131963095D01*
X133274523Y-131358333D01*
D14*
X117007000Y-136920000D02*
G75*
G03*
X117007000Y-136920000I-100000J0D01*
G01*
D15*
X105883000Y-115908000D02*
X105883000Y-101008000D01*
X105883000Y-101008000D02*
X163103000Y-101008000D01*
X163103000Y-101008000D02*
X163103000Y-115908000D01*
X163103000Y-115908000D02*
X105883000Y-115908000D01*
X163393000Y-100718000D02*
X161493000Y-100718000D01*
X163393000Y-102618000D02*
X163393000Y-100718000D01*
D16*
X153366000Y-164326000D02*
X153366000Y-164326000D01*
X153366000Y-164426000D02*
X153366000Y-164426000D01*
X153366000Y-164426000D02*
G75*
G03*
X153366000Y-164326000I0J50000D01*
G01*
X153366000Y-164326000D02*
G75*
G03*
X153366000Y-164426000I0J-50000D01*
G01*
X126950000Y-164326000D02*
X126950000Y-164326000D01*
X126950000Y-164426000D02*
X126950000Y-164426000D01*
X126950000Y-164326000D02*
G75*
G03*
X126950000Y-164426000I0J-50000D01*
G01*
X126950000Y-164426000D02*
G75*
G03*
X126950000Y-164326000I0J50000D01*
G01*
D17*
X124180000Y-131356000D02*
G75*
G03*
X124180000Y-131356000I-125000J0D01*
G01*
X142976000Y-131356000D02*
G75*
G03*
X142976000Y-131356000I-125000J0D01*
G01*
D14*
X135549000Y-136793000D02*
G75*
G03*
X135549000Y-136793000I-100000J0D01*
G01*
M02*
