G04 #@! TF.GenerationSoftware,KiCad,Pcbnew,(6.0.4-0)*
G04 #@! TF.CreationDate,2022-11-09T17:11:16+01:00*
G04 #@! TF.ProjectId,adapter_hybrid_assistor_hpc_2HDMI,61646170-7465-4725-9f68-79627269645f,rev?*
G04 #@! TF.SameCoordinates,Original*
G04 #@! TF.FileFunction,Copper,L3,Inr*
G04 #@! TF.FilePolarity,Positive*
%FSLAX46Y46*%
G04 Gerber Fmt 4.6, Leading zero omitted, Abs format (unit mm)*
G04 Created by KiCad (PCBNEW (6.0.4-0)) date 2022-11-09 17:11:16*
%MOMM*%
%LPD*%
G01*
G04 APERTURE LIST*
G04 #@! TA.AperFunction,Profile*
%ADD10C,0.100000*%
G04 #@! TD*
G04 #@! TA.AperFunction,Profile*
%ADD11C,0.050000*%
G04 #@! TD*
G04 #@! TA.AperFunction,ComponentPad*
%ADD12C,4.000000*%
G04 #@! TD*
G04 #@! TA.AperFunction,ComponentPad*
%ADD13C,1.995000*%
G04 #@! TD*
G04 #@! TA.AperFunction,ViaPad*
%ADD14C,0.800000*%
G04 #@! TD*
G04 #@! TA.AperFunction,Conductor*
%ADD15C,0.600000*%
G04 #@! TD*
G04 APERTURE END LIST*
D10*
X100000000Y-100000000D02*
X100000000Y-176500000D01*
X100000000Y-176500000D02*
X169000000Y-176500000D01*
X169000000Y-100000000D02*
X169000000Y-176500000D01*
X100000000Y-100000000D02*
X169000000Y-100000000D01*
D11*
X168050000Y-173800000D02*
G75*
G03*
X168050000Y-173800000I-1350000J0D01*
G01*
X103350000Y-173800000D02*
G75*
G03*
X103350000Y-173800000I-1350000J0D01*
G01*
X104500000Y-110450000D02*
G75*
G03*
X104500000Y-110450000I-1350000J0D01*
G01*
X167200000Y-110450000D02*
G75*
G03*
X167200000Y-110450000I-1350000J0D01*
G01*
X101666666Y-176500000D02*
G75*
G03*
X101666666Y-176500000I-1666666J0D01*
G01*
X97500000Y-176500000D02*
X102500000Y-176500000D01*
X100000000Y-174000000D02*
X100000000Y-179000000D01*
X101666666Y-176500000D02*
G75*
G03*
X101666666Y-176500000I-1666666J0D01*
G01*
X97500000Y-176500000D02*
X102500000Y-176500000D01*
X100000000Y-174000000D02*
X100000000Y-179000000D01*
X101666666Y-176500000D02*
G75*
G03*
X101666666Y-176500000I-1666666J0D01*
G01*
X97500000Y-176500000D02*
X102500000Y-176500000D01*
X100000000Y-174000000D02*
X100000000Y-179000000D01*
D12*
X165683000Y-110458000D03*
X103303000Y-110458000D03*
D13*
X141216000Y-167076000D03*
X155716000Y-167076000D03*
X140616000Y-171976000D03*
X156316000Y-171976000D03*
X114800000Y-167076000D03*
X129300000Y-167076000D03*
X114200000Y-171976000D03*
X129900000Y-171976000D03*
D14*
X106426000Y-148590000D03*
X135382000Y-148590000D03*
X144018000Y-150749000D03*
X104394000Y-116957000D03*
X114973000Y-150711000D03*
X166040000Y-151100000D03*
X166040000Y-138400000D03*
X102540000Y-118080000D03*
X102540000Y-125700000D03*
X120645800Y-160151200D03*
X140335000Y-160045000D03*
X126996000Y-133481000D03*
X145542000Y-160020000D03*
X126238000Y-160147000D03*
X102540000Y-163800000D03*
X118110000Y-154940000D03*
X130302000Y-160147000D03*
X148971000Y-160020000D03*
X145411000Y-133481000D03*
X116967000Y-130810000D03*
X102540000Y-151100000D03*
X166040000Y-163800000D03*
X137795000Y-132207000D03*
X108509000Y-104110000D03*
X102540000Y-138400000D03*
X166040000Y-125700000D03*
X126238000Y-124714000D03*
X122809000Y-160147000D03*
X113919000Y-160045000D03*
X152400000Y-160020000D03*
X148348000Y-124448000D03*
X147193000Y-154178000D03*
X135890000Y-126873000D03*
X159182000Y-114087000D03*
X109513000Y-139739000D03*
X166040000Y-118080000D03*
X135509000Y-130810000D03*
X138557000Y-139700000D03*
X157353000Y-126873000D03*
X156337000Y-160020000D03*
X155829000Y-125683000D03*
X136017000Y-120650000D03*
X126365000Y-122301000D03*
X145415000Y-132080000D03*
X127000000Y-132207000D03*
X118364000Y-139700000D03*
X108331000Y-107940000D03*
X158115000Y-120650000D03*
X127000000Y-134874000D03*
X133858000Y-126873000D03*
X147459000Y-122948000D03*
X135509000Y-136398000D03*
X145415000Y-135128000D03*
X116967000Y-136398000D03*
X114935000Y-148590000D03*
X106553000Y-139700000D03*
X135382000Y-139700000D03*
X143979000Y-148551000D03*
X147193000Y-139827000D03*
X147828000Y-116840000D03*
X136403000Y-116835000D03*
X135128000Y-116840000D03*
X128778000Y-116840000D03*
X131318000Y-116840000D03*
X132583000Y-116835000D03*
X146553000Y-116835000D03*
X127503000Y-116835000D03*
X116078000Y-116967000D03*
X117348000Y-116967000D03*
X157480000Y-160020000D03*
X155067000Y-160020000D03*
X153797000Y-160020000D03*
X151130000Y-160020000D03*
X143002000Y-160020000D03*
X141732000Y-160020000D03*
X114935000Y-160020000D03*
X115951000Y-160020000D03*
X124841000Y-160147000D03*
X127635000Y-160147000D03*
X129032000Y-160147000D03*
X131426000Y-160147000D03*
X151633000Y-116835000D03*
X150373000Y-116835000D03*
D15*
X114973000Y-150711000D02*
X133261000Y-150711000D01*
X104394000Y-116957000D02*
X104394000Y-146558000D01*
X106426000Y-148590000D02*
X106426000Y-149155685D01*
X133261000Y-150711000D02*
X135382000Y-148590000D01*
X106426000Y-149155685D02*
X107981315Y-150711000D01*
X133299000Y-150749000D02*
X144018000Y-150749000D01*
X107981315Y-150711000D02*
X114407315Y-150711000D01*
X133261000Y-150711000D02*
X133299000Y-150749000D01*
X104394000Y-146558000D02*
X106426000Y-148590000D01*
X114407315Y-150711000D02*
X114973000Y-150711000D01*
G04 #@! TA.AperFunction,Conductor*
G36*
X168433621Y-100528502D02*
G01*
X168480114Y-100582158D01*
X168491500Y-100634500D01*
X168491500Y-157354000D01*
X168471498Y-157422121D01*
X168417842Y-157468614D01*
X168365500Y-157480000D01*
X100634500Y-157480000D01*
X100566379Y-157459998D01*
X100519886Y-157406342D01*
X100508500Y-157354000D01*
X100508500Y-154940000D01*
X117196496Y-154940000D01*
X117197186Y-154946565D01*
X117211894Y-155086500D01*
X117216458Y-155129928D01*
X117275473Y-155311556D01*
X117370960Y-155476944D01*
X117498747Y-155618866D01*
X117653248Y-155731118D01*
X117659276Y-155733802D01*
X117659278Y-155733803D01*
X117821681Y-155806109D01*
X117827712Y-155808794D01*
X117921112Y-155828647D01*
X118008056Y-155847128D01*
X118008061Y-155847128D01*
X118014513Y-155848500D01*
X118205487Y-155848500D01*
X118211939Y-155847128D01*
X118211944Y-155847128D01*
X118298888Y-155828647D01*
X118392288Y-155808794D01*
X118398319Y-155806109D01*
X118560722Y-155733803D01*
X118560724Y-155733802D01*
X118566752Y-155731118D01*
X118721253Y-155618866D01*
X118849040Y-155476944D01*
X118944527Y-155311556D01*
X119003542Y-155129928D01*
X119008107Y-155086500D01*
X119022814Y-154946565D01*
X119023504Y-154940000D01*
X119022814Y-154933435D01*
X119004232Y-154756635D01*
X119004232Y-154756633D01*
X119003542Y-154750072D01*
X118944527Y-154568444D01*
X118849040Y-154403056D01*
X118823064Y-154374206D01*
X118725675Y-154266045D01*
X118725674Y-154266044D01*
X118721253Y-154261134D01*
X118606829Y-154178000D01*
X146279496Y-154178000D01*
X146280186Y-154184565D01*
X146287826Y-154257251D01*
X146299458Y-154367928D01*
X146358473Y-154549556D01*
X146453960Y-154714944D01*
X146458378Y-154719851D01*
X146458379Y-154719852D01*
X146485589Y-154750072D01*
X146581747Y-154856866D01*
X146680843Y-154928864D01*
X146705207Y-154946565D01*
X146736248Y-154969118D01*
X146742276Y-154971802D01*
X146742278Y-154971803D01*
X146904681Y-155044109D01*
X146910712Y-155046794D01*
X147004113Y-155066647D01*
X147091056Y-155085128D01*
X147091061Y-155085128D01*
X147097513Y-155086500D01*
X147288487Y-155086500D01*
X147294939Y-155085128D01*
X147294944Y-155085128D01*
X147381887Y-155066647D01*
X147475288Y-155046794D01*
X147481319Y-155044109D01*
X147643722Y-154971803D01*
X147643724Y-154971802D01*
X147649752Y-154969118D01*
X147680794Y-154946565D01*
X147705157Y-154928864D01*
X147804253Y-154856866D01*
X147900411Y-154750072D01*
X147927621Y-154719852D01*
X147927622Y-154719851D01*
X147932040Y-154714944D01*
X148027527Y-154549556D01*
X148086542Y-154367928D01*
X148098175Y-154257251D01*
X148105814Y-154184565D01*
X148106504Y-154178000D01*
X148095280Y-154071206D01*
X148087232Y-153994635D01*
X148087232Y-153994633D01*
X148086542Y-153988072D01*
X148027527Y-153806444D01*
X147932040Y-153641056D01*
X147804253Y-153499134D01*
X147649752Y-153386882D01*
X147643724Y-153384198D01*
X147643722Y-153384197D01*
X147481319Y-153311891D01*
X147481318Y-153311891D01*
X147475288Y-153309206D01*
X147381887Y-153289353D01*
X147294944Y-153270872D01*
X147294939Y-153270872D01*
X147288487Y-153269500D01*
X147097513Y-153269500D01*
X147091061Y-153270872D01*
X147091056Y-153270872D01*
X147004113Y-153289353D01*
X146910712Y-153309206D01*
X146904682Y-153311891D01*
X146904681Y-153311891D01*
X146742278Y-153384197D01*
X146742276Y-153384198D01*
X146736248Y-153386882D01*
X146581747Y-153499134D01*
X146453960Y-153641056D01*
X146358473Y-153806444D01*
X146299458Y-153988072D01*
X146298768Y-153994633D01*
X146298768Y-153994635D01*
X146290720Y-154071206D01*
X146279496Y-154178000D01*
X118606829Y-154178000D01*
X118572094Y-154152763D01*
X118572093Y-154152762D01*
X118566752Y-154148882D01*
X118560724Y-154146198D01*
X118560722Y-154146197D01*
X118398319Y-154073891D01*
X118398318Y-154073891D01*
X118392288Y-154071206D01*
X118298887Y-154051353D01*
X118211944Y-154032872D01*
X118211939Y-154032872D01*
X118205487Y-154031500D01*
X118014513Y-154031500D01*
X118008061Y-154032872D01*
X118008056Y-154032872D01*
X117921113Y-154051353D01*
X117827712Y-154071206D01*
X117821682Y-154073891D01*
X117821681Y-154073891D01*
X117659278Y-154146197D01*
X117659276Y-154146198D01*
X117653248Y-154148882D01*
X117647907Y-154152762D01*
X117647906Y-154152763D01*
X117613171Y-154178000D01*
X117498747Y-154261134D01*
X117494326Y-154266044D01*
X117494325Y-154266045D01*
X117396937Y-154374206D01*
X117370960Y-154403056D01*
X117275473Y-154568444D01*
X117216458Y-154750072D01*
X117215768Y-154756633D01*
X117215768Y-154756635D01*
X117197186Y-154933435D01*
X117196496Y-154940000D01*
X100508500Y-154940000D01*
X100508500Y-151100000D01*
X101626496Y-151100000D01*
X101627186Y-151106565D01*
X101641860Y-151246176D01*
X101646458Y-151289928D01*
X101705473Y-151471556D01*
X101800960Y-151636944D01*
X101928747Y-151778866D01*
X102083248Y-151891118D01*
X102089276Y-151893802D01*
X102089278Y-151893803D01*
X102251681Y-151966109D01*
X102257712Y-151968794D01*
X102351113Y-151988647D01*
X102438056Y-152007128D01*
X102438061Y-152007128D01*
X102444513Y-152008500D01*
X102635487Y-152008500D01*
X102641939Y-152007128D01*
X102641944Y-152007128D01*
X102728887Y-151988647D01*
X102822288Y-151968794D01*
X102828319Y-151966109D01*
X102990722Y-151893803D01*
X102990724Y-151893802D01*
X102996752Y-151891118D01*
X103151253Y-151778866D01*
X103279040Y-151636944D01*
X103279899Y-151637718D01*
X103330951Y-151598354D01*
X103401688Y-151592282D01*
X103464478Y-151625416D01*
X103499387Y-151687238D01*
X103502658Y-151715086D01*
X103505000Y-152146000D01*
X144780000Y-152146000D01*
X144780000Y-151279937D01*
X144796881Y-151216937D01*
X144849223Y-151126279D01*
X144849224Y-151126278D01*
X144852527Y-151120556D01*
X144859206Y-151100000D01*
X165126496Y-151100000D01*
X165127186Y-151106565D01*
X165141860Y-151246176D01*
X165146458Y-151289928D01*
X165205473Y-151471556D01*
X165300960Y-151636944D01*
X165428747Y-151778866D01*
X165583248Y-151891118D01*
X165589276Y-151893802D01*
X165589278Y-151893803D01*
X165751681Y-151966109D01*
X165757712Y-151968794D01*
X165851113Y-151988647D01*
X165938056Y-152007128D01*
X165938061Y-152007128D01*
X165944513Y-152008500D01*
X166135487Y-152008500D01*
X166141939Y-152007128D01*
X166141944Y-152007128D01*
X166228887Y-151988647D01*
X166322288Y-151968794D01*
X166328319Y-151966109D01*
X166490722Y-151893803D01*
X166490724Y-151893802D01*
X166496752Y-151891118D01*
X166651253Y-151778866D01*
X166779040Y-151636944D01*
X166874527Y-151471556D01*
X166933542Y-151289928D01*
X166938141Y-151246176D01*
X166952814Y-151106565D01*
X166953504Y-151100000D01*
X166933542Y-150910072D01*
X166874527Y-150728444D01*
X166779040Y-150563056D01*
X166651253Y-150421134D01*
X166496752Y-150308882D01*
X166490724Y-150306198D01*
X166490722Y-150306197D01*
X166328319Y-150233891D01*
X166328318Y-150233891D01*
X166322288Y-150231206D01*
X166228888Y-150211353D01*
X166141944Y-150192872D01*
X166141939Y-150192872D01*
X166135487Y-150191500D01*
X165944513Y-150191500D01*
X165938061Y-150192872D01*
X165938056Y-150192872D01*
X165851112Y-150211353D01*
X165757712Y-150231206D01*
X165751682Y-150233891D01*
X165751681Y-150233891D01*
X165589278Y-150306197D01*
X165589276Y-150306198D01*
X165583248Y-150308882D01*
X165428747Y-150421134D01*
X165300960Y-150563056D01*
X165205473Y-150728444D01*
X165146458Y-150910072D01*
X165126496Y-151100000D01*
X144859206Y-151100000D01*
X144911542Y-150938928D01*
X144931504Y-150749000D01*
X144911542Y-150559072D01*
X144852527Y-150377444D01*
X144796881Y-150281062D01*
X144780000Y-150218063D01*
X144780000Y-149479000D01*
X138048000Y-149479000D01*
X137979879Y-149458998D01*
X137933386Y-149405342D01*
X137922000Y-149353000D01*
X137922000Y-147828000D01*
X135919770Y-147828000D01*
X135851649Y-147807998D01*
X135845707Y-147803935D01*
X135844091Y-147802761D01*
X135838752Y-147798882D01*
X135664288Y-147721206D01*
X135570888Y-147701353D01*
X135483944Y-147682872D01*
X135483939Y-147682872D01*
X135477487Y-147681500D01*
X135286513Y-147681500D01*
X135280061Y-147682872D01*
X135280056Y-147682872D01*
X135193112Y-147701353D01*
X135099712Y-147721206D01*
X134925248Y-147798882D01*
X134919909Y-147802761D01*
X134918293Y-147803935D01*
X134917199Y-147804325D01*
X134914186Y-147806065D01*
X134913868Y-147805514D01*
X134851425Y-147827794D01*
X134844230Y-147828000D01*
X133223000Y-147828000D01*
X133223000Y-149353000D01*
X133202998Y-149421121D01*
X133149342Y-149467614D01*
X133097000Y-149479000D01*
X107944897Y-149479000D01*
X107876776Y-149458998D01*
X107855802Y-149442095D01*
X107731143Y-149317436D01*
X107697117Y-149255124D01*
X107694241Y-149229228D01*
X107632628Y-140480114D01*
X107632628Y-140480113D01*
X107632500Y-140462000D01*
X105663000Y-140462000D01*
X105594879Y-140441998D01*
X105548386Y-140388342D01*
X105537000Y-140336000D01*
X105537000Y-139739000D01*
X108599496Y-139739000D01*
X108619458Y-139928928D01*
X108678473Y-140110556D01*
X108773960Y-140275944D01*
X108778378Y-140280851D01*
X108778379Y-140280852D01*
X108897325Y-140412955D01*
X108901747Y-140417866D01*
X109056248Y-140530118D01*
X109062276Y-140532802D01*
X109062278Y-140532803D01*
X109224681Y-140605109D01*
X109230712Y-140607794D01*
X109324112Y-140627647D01*
X109411056Y-140646128D01*
X109411061Y-140646128D01*
X109417513Y-140647500D01*
X109608487Y-140647500D01*
X109614939Y-140646128D01*
X109614944Y-140646128D01*
X109701888Y-140627647D01*
X109795288Y-140607794D01*
X109801319Y-140605109D01*
X109963722Y-140532803D01*
X109963724Y-140532802D01*
X109969752Y-140530118D01*
X110124253Y-140417866D01*
X110128675Y-140412955D01*
X110247621Y-140280852D01*
X110247622Y-140280851D01*
X110252040Y-140275944D01*
X110347527Y-140110556D01*
X110406542Y-139928928D01*
X110426504Y-139739000D01*
X110422405Y-139700000D01*
X137643496Y-139700000D01*
X137663458Y-139889928D01*
X137722473Y-140071556D01*
X137817960Y-140236944D01*
X137945747Y-140378866D01*
X138100248Y-140491118D01*
X138106276Y-140493802D01*
X138106278Y-140493803D01*
X138268681Y-140566109D01*
X138274712Y-140568794D01*
X138368113Y-140588647D01*
X138455056Y-140607128D01*
X138455061Y-140607128D01*
X138461513Y-140608500D01*
X138652487Y-140608500D01*
X138658939Y-140607128D01*
X138658944Y-140607128D01*
X138745887Y-140588647D01*
X138839288Y-140568794D01*
X138845319Y-140566109D01*
X139007722Y-140493803D01*
X139007724Y-140493802D01*
X139013752Y-140491118D01*
X139168253Y-140378866D01*
X139296040Y-140236944D01*
X139391527Y-140071556D01*
X139450542Y-139889928D01*
X139470504Y-139700000D01*
X139450542Y-139510072D01*
X139391527Y-139328444D01*
X139296040Y-139163056D01*
X139215820Y-139073962D01*
X139172675Y-139026045D01*
X139172674Y-139026044D01*
X139168253Y-139021134D01*
X139013752Y-138908882D01*
X139007724Y-138906198D01*
X139007722Y-138906197D01*
X138845319Y-138833891D01*
X138845318Y-138833891D01*
X138839288Y-138831206D01*
X138745888Y-138811353D01*
X138658944Y-138792872D01*
X138658939Y-138792872D01*
X138652487Y-138791500D01*
X138461513Y-138791500D01*
X138455061Y-138792872D01*
X138455056Y-138792872D01*
X138368112Y-138811353D01*
X138274712Y-138831206D01*
X138268682Y-138833891D01*
X138268681Y-138833891D01*
X138106278Y-138906197D01*
X138106276Y-138906198D01*
X138100248Y-138908882D01*
X137945747Y-139021134D01*
X137941326Y-139026044D01*
X137941325Y-139026045D01*
X137898181Y-139073962D01*
X137817960Y-139163056D01*
X137722473Y-139328444D01*
X137663458Y-139510072D01*
X137643496Y-139700000D01*
X110422405Y-139700000D01*
X110406542Y-139549072D01*
X110347527Y-139367444D01*
X110252040Y-139202056D01*
X110242192Y-139191118D01*
X110128675Y-139065045D01*
X110128674Y-139065044D01*
X110124253Y-139060134D01*
X109969752Y-138947882D01*
X109963724Y-138945198D01*
X109963722Y-138945197D01*
X109801319Y-138872891D01*
X109801318Y-138872891D01*
X109795288Y-138870206D01*
X109701887Y-138850353D01*
X109614944Y-138831872D01*
X109614939Y-138831872D01*
X109608487Y-138830500D01*
X109417513Y-138830500D01*
X109411061Y-138831872D01*
X109411056Y-138831872D01*
X109324113Y-138850353D01*
X109230712Y-138870206D01*
X109224682Y-138872891D01*
X109224681Y-138872891D01*
X109062278Y-138945197D01*
X109062276Y-138945198D01*
X109056248Y-138947882D01*
X108901747Y-139060134D01*
X108897326Y-139065044D01*
X108897325Y-139065045D01*
X108783809Y-139191118D01*
X108773960Y-139202056D01*
X108678473Y-139367444D01*
X108619458Y-139549072D01*
X108599496Y-139739000D01*
X105537000Y-139739000D01*
X105537000Y-138400000D01*
X165126496Y-138400000D01*
X165146458Y-138589928D01*
X165205473Y-138771556D01*
X165300960Y-138936944D01*
X165305378Y-138941851D01*
X165305379Y-138941852D01*
X165420351Y-139069541D01*
X165428747Y-139078866D01*
X165583248Y-139191118D01*
X165589276Y-139193802D01*
X165589278Y-139193803D01*
X165607815Y-139202056D01*
X165757712Y-139268794D01*
X165851113Y-139288647D01*
X165938056Y-139307128D01*
X165938061Y-139307128D01*
X165944513Y-139308500D01*
X166135487Y-139308500D01*
X166141939Y-139307128D01*
X166141944Y-139307128D01*
X166228887Y-139288647D01*
X166322288Y-139268794D01*
X166472185Y-139202056D01*
X166490722Y-139193803D01*
X166490724Y-139193802D01*
X166496752Y-139191118D01*
X166651253Y-139078866D01*
X166659649Y-139069541D01*
X166774621Y-138941852D01*
X166774622Y-138941851D01*
X166779040Y-138936944D01*
X166874527Y-138771556D01*
X166933542Y-138589928D01*
X166953504Y-138400000D01*
X166933542Y-138210072D01*
X166874527Y-138028444D01*
X166779040Y-137863056D01*
X166668192Y-137739946D01*
X166655675Y-137726045D01*
X166655674Y-137726044D01*
X166651253Y-137721134D01*
X166496752Y-137608882D01*
X166490724Y-137606198D01*
X166490722Y-137606197D01*
X166328319Y-137533891D01*
X166328318Y-137533891D01*
X166322288Y-137531206D01*
X166228887Y-137511353D01*
X166141944Y-137492872D01*
X166141939Y-137492872D01*
X166135487Y-137491500D01*
X165944513Y-137491500D01*
X165938061Y-137492872D01*
X165938056Y-137492872D01*
X165851113Y-137511353D01*
X165757712Y-137531206D01*
X165751682Y-137533891D01*
X165751681Y-137533891D01*
X165589278Y-137606197D01*
X165589276Y-137606198D01*
X165583248Y-137608882D01*
X165428747Y-137721134D01*
X165424326Y-137726044D01*
X165424325Y-137726045D01*
X165411809Y-137739946D01*
X165300960Y-137863056D01*
X165205473Y-138028444D01*
X165146458Y-138210072D01*
X165126496Y-138400000D01*
X105537000Y-138400000D01*
X105537000Y-133481000D01*
X126082496Y-133481000D01*
X126102458Y-133670928D01*
X126161473Y-133852556D01*
X126256960Y-134017944D01*
X126384747Y-134159866D01*
X126539248Y-134272118D01*
X126545276Y-134274802D01*
X126545278Y-134274803D01*
X126707681Y-134347109D01*
X126713712Y-134349794D01*
X126807113Y-134369647D01*
X126894056Y-134388128D01*
X126894061Y-134388128D01*
X126900513Y-134389500D01*
X127091487Y-134389500D01*
X127097939Y-134388128D01*
X127097944Y-134388128D01*
X127184887Y-134369647D01*
X127278288Y-134349794D01*
X127284319Y-134347109D01*
X127446722Y-134274803D01*
X127446724Y-134274802D01*
X127452752Y-134272118D01*
X127607253Y-134159866D01*
X127735040Y-134017944D01*
X127830527Y-133852556D01*
X127889542Y-133670928D01*
X127909504Y-133481000D01*
X144497496Y-133481000D01*
X144517458Y-133670928D01*
X144576473Y-133852556D01*
X144671960Y-134017944D01*
X144799747Y-134159866D01*
X144954248Y-134272118D01*
X144960276Y-134274802D01*
X144960278Y-134274803D01*
X145122681Y-134347109D01*
X145128712Y-134349794D01*
X145222113Y-134369647D01*
X145309056Y-134388128D01*
X145309061Y-134388128D01*
X145315513Y-134389500D01*
X145506487Y-134389500D01*
X145512939Y-134388128D01*
X145512944Y-134388128D01*
X145599887Y-134369647D01*
X145693288Y-134349794D01*
X145699319Y-134347109D01*
X145861722Y-134274803D01*
X145861724Y-134274802D01*
X145867752Y-134272118D01*
X146022253Y-134159866D01*
X146150040Y-134017944D01*
X146245527Y-133852556D01*
X146304542Y-133670928D01*
X146324504Y-133481000D01*
X146304542Y-133291072D01*
X146245527Y-133109444D01*
X146150040Y-132944056D01*
X146022253Y-132802134D01*
X145867752Y-132689882D01*
X145861724Y-132687198D01*
X145861722Y-132687197D01*
X145699319Y-132614891D01*
X145699318Y-132614891D01*
X145693288Y-132612206D01*
X145599888Y-132592353D01*
X145512944Y-132573872D01*
X145512939Y-132573872D01*
X145506487Y-132572500D01*
X145315513Y-132572500D01*
X145309061Y-132573872D01*
X145309056Y-132573872D01*
X145222112Y-132592353D01*
X145128712Y-132612206D01*
X145122682Y-132614891D01*
X145122681Y-132614891D01*
X144960278Y-132687197D01*
X144960276Y-132687198D01*
X144954248Y-132689882D01*
X144799747Y-132802134D01*
X144671960Y-132944056D01*
X144576473Y-133109444D01*
X144517458Y-133291072D01*
X144497496Y-133481000D01*
X127909504Y-133481000D01*
X127889542Y-133291072D01*
X127830527Y-133109444D01*
X127735040Y-132944056D01*
X127607253Y-132802134D01*
X127452752Y-132689882D01*
X127446724Y-132687198D01*
X127446722Y-132687197D01*
X127284319Y-132614891D01*
X127284318Y-132614891D01*
X127278288Y-132612206D01*
X127184888Y-132592353D01*
X127097944Y-132573872D01*
X127097939Y-132573872D01*
X127091487Y-132572500D01*
X126900513Y-132572500D01*
X126894061Y-132573872D01*
X126894056Y-132573872D01*
X126807112Y-132592353D01*
X126713712Y-132612206D01*
X126707682Y-132614891D01*
X126707681Y-132614891D01*
X126545278Y-132687197D01*
X126545276Y-132687198D01*
X126539248Y-132689882D01*
X126384747Y-132802134D01*
X126256960Y-132944056D01*
X126161473Y-133109444D01*
X126102458Y-133291072D01*
X126082496Y-133481000D01*
X105537000Y-133481000D01*
X105537000Y-132207000D01*
X136881496Y-132207000D01*
X136901458Y-132396928D01*
X136960473Y-132578556D01*
X137055960Y-132743944D01*
X137183747Y-132885866D01*
X137338248Y-132998118D01*
X137344276Y-133000802D01*
X137344278Y-133000803D01*
X137506681Y-133073109D01*
X137512712Y-133075794D01*
X137606112Y-133095647D01*
X137693056Y-133114128D01*
X137693061Y-133114128D01*
X137699513Y-133115500D01*
X137890487Y-133115500D01*
X137896939Y-133114128D01*
X137896944Y-133114128D01*
X137983888Y-133095647D01*
X138077288Y-133075794D01*
X138083319Y-133073109D01*
X138245722Y-133000803D01*
X138245724Y-133000802D01*
X138251752Y-132998118D01*
X138406253Y-132885866D01*
X138534040Y-132743944D01*
X138629527Y-132578556D01*
X138688542Y-132396928D01*
X138708504Y-132207000D01*
X138688542Y-132017072D01*
X138629527Y-131835444D01*
X138534040Y-131670056D01*
X138406253Y-131528134D01*
X138251752Y-131415882D01*
X138245724Y-131413198D01*
X138245722Y-131413197D01*
X138083319Y-131340891D01*
X138083318Y-131340891D01*
X138077288Y-131338206D01*
X137983887Y-131318353D01*
X137896944Y-131299872D01*
X137896939Y-131299872D01*
X137890487Y-131298500D01*
X137699513Y-131298500D01*
X137693061Y-131299872D01*
X137693056Y-131299872D01*
X137606113Y-131318353D01*
X137512712Y-131338206D01*
X137506682Y-131340891D01*
X137506681Y-131340891D01*
X137344278Y-131413197D01*
X137344276Y-131413198D01*
X137338248Y-131415882D01*
X137183747Y-131528134D01*
X137055960Y-131670056D01*
X136960473Y-131835444D01*
X136901458Y-132017072D01*
X136881496Y-132207000D01*
X105537000Y-132207000D01*
X105537000Y-130810000D01*
X116053496Y-130810000D01*
X116073458Y-130999928D01*
X116132473Y-131181556D01*
X116227960Y-131346944D01*
X116355747Y-131488866D01*
X116510248Y-131601118D01*
X116516276Y-131603802D01*
X116516278Y-131603803D01*
X116654062Y-131665148D01*
X116684712Y-131678794D01*
X116778113Y-131698647D01*
X116865056Y-131717128D01*
X116865061Y-131717128D01*
X116871513Y-131718500D01*
X117062487Y-131718500D01*
X117068939Y-131717128D01*
X117068944Y-131717128D01*
X117155887Y-131698647D01*
X117249288Y-131678794D01*
X117279938Y-131665148D01*
X117417722Y-131603803D01*
X117417724Y-131603802D01*
X117423752Y-131601118D01*
X117578253Y-131488866D01*
X117706040Y-131346944D01*
X117801527Y-131181556D01*
X117860542Y-130999928D01*
X117880504Y-130810000D01*
X134595496Y-130810000D01*
X134615458Y-130999928D01*
X134674473Y-131181556D01*
X134769960Y-131346944D01*
X134897747Y-131488866D01*
X135052248Y-131601118D01*
X135058276Y-131603802D01*
X135058278Y-131603803D01*
X135196062Y-131665148D01*
X135226712Y-131678794D01*
X135320113Y-131698647D01*
X135407056Y-131717128D01*
X135407061Y-131717128D01*
X135413513Y-131718500D01*
X135604487Y-131718500D01*
X135610939Y-131717128D01*
X135610944Y-131717128D01*
X135697887Y-131698647D01*
X135791288Y-131678794D01*
X135821938Y-131665148D01*
X135959722Y-131603803D01*
X135959724Y-131603802D01*
X135965752Y-131601118D01*
X136120253Y-131488866D01*
X136248040Y-131346944D01*
X136343527Y-131181556D01*
X136402542Y-130999928D01*
X136422504Y-130810000D01*
X136402542Y-130620072D01*
X136343527Y-130438444D01*
X136248040Y-130273056D01*
X136120253Y-130131134D01*
X135965752Y-130018882D01*
X135959724Y-130016198D01*
X135959722Y-130016197D01*
X135797319Y-129943891D01*
X135797318Y-129943891D01*
X135791288Y-129941206D01*
X135697888Y-129921353D01*
X135610944Y-129902872D01*
X135610939Y-129902872D01*
X135604487Y-129901500D01*
X135413513Y-129901500D01*
X135407061Y-129902872D01*
X135407056Y-129902872D01*
X135320112Y-129921353D01*
X135226712Y-129941206D01*
X135220682Y-129943891D01*
X135220681Y-129943891D01*
X135058278Y-130016197D01*
X135058276Y-130016198D01*
X135052248Y-130018882D01*
X134897747Y-130131134D01*
X134769960Y-130273056D01*
X134674473Y-130438444D01*
X134615458Y-130620072D01*
X134595496Y-130810000D01*
X117880504Y-130810000D01*
X117860542Y-130620072D01*
X117801527Y-130438444D01*
X117706040Y-130273056D01*
X117578253Y-130131134D01*
X117423752Y-130018882D01*
X117417724Y-130016198D01*
X117417722Y-130016197D01*
X117255319Y-129943891D01*
X117255318Y-129943891D01*
X117249288Y-129941206D01*
X117155888Y-129921353D01*
X117068944Y-129902872D01*
X117068939Y-129902872D01*
X117062487Y-129901500D01*
X116871513Y-129901500D01*
X116865061Y-129902872D01*
X116865056Y-129902872D01*
X116778112Y-129921353D01*
X116684712Y-129941206D01*
X116678682Y-129943891D01*
X116678681Y-129943891D01*
X116516278Y-130016197D01*
X116516276Y-130016198D01*
X116510248Y-130018882D01*
X116355747Y-130131134D01*
X116227960Y-130273056D01*
X116132473Y-130438444D01*
X116073458Y-130620072D01*
X116053496Y-130810000D01*
X105537000Y-130810000D01*
X105537000Y-126873000D01*
X134976496Y-126873000D01*
X134996458Y-127062928D01*
X135055473Y-127244556D01*
X135150960Y-127409944D01*
X135278747Y-127551866D01*
X135433248Y-127664118D01*
X135439276Y-127666802D01*
X135439278Y-127666803D01*
X135601681Y-127739109D01*
X135607712Y-127741794D01*
X135701113Y-127761647D01*
X135788056Y-127780128D01*
X135788061Y-127780128D01*
X135794513Y-127781500D01*
X135985487Y-127781500D01*
X135991939Y-127780128D01*
X135991944Y-127780128D01*
X136078887Y-127761647D01*
X136172288Y-127741794D01*
X136178319Y-127739109D01*
X136340722Y-127666803D01*
X136340724Y-127666802D01*
X136346752Y-127664118D01*
X136501253Y-127551866D01*
X136629040Y-127409944D01*
X136724527Y-127244556D01*
X136783542Y-127062928D01*
X136803504Y-126873000D01*
X156439496Y-126873000D01*
X156459458Y-127062928D01*
X156518473Y-127244556D01*
X156613960Y-127409944D01*
X156741747Y-127551866D01*
X156896248Y-127664118D01*
X156902276Y-127666802D01*
X156902278Y-127666803D01*
X157064681Y-127739109D01*
X157070712Y-127741794D01*
X157164113Y-127761647D01*
X157251056Y-127780128D01*
X157251061Y-127780128D01*
X157257513Y-127781500D01*
X157448487Y-127781500D01*
X157454939Y-127780128D01*
X157454944Y-127780128D01*
X157541887Y-127761647D01*
X157635288Y-127741794D01*
X157641319Y-127739109D01*
X157803722Y-127666803D01*
X157803724Y-127666802D01*
X157809752Y-127664118D01*
X157964253Y-127551866D01*
X158092040Y-127409944D01*
X158187527Y-127244556D01*
X158246542Y-127062928D01*
X158266504Y-126873000D01*
X158246542Y-126683072D01*
X158187527Y-126501444D01*
X158183116Y-126493803D01*
X158113921Y-126373955D01*
X158092040Y-126336056D01*
X158007219Y-126241852D01*
X157968675Y-126199045D01*
X157968674Y-126199044D01*
X157964253Y-126194134D01*
X157809752Y-126081882D01*
X157803724Y-126079198D01*
X157803722Y-126079197D01*
X157641319Y-126006891D01*
X157641318Y-126006891D01*
X157635288Y-126004206D01*
X157541888Y-125984353D01*
X157454944Y-125965872D01*
X157454939Y-125965872D01*
X157448487Y-125964500D01*
X157257513Y-125964500D01*
X157251061Y-125965872D01*
X157251056Y-125965872D01*
X157164112Y-125984353D01*
X157070712Y-126004206D01*
X157064682Y-126006891D01*
X157064681Y-126006891D01*
X156902278Y-126079197D01*
X156902276Y-126079198D01*
X156896248Y-126081882D01*
X156741747Y-126194134D01*
X156737326Y-126199044D01*
X156737325Y-126199045D01*
X156698782Y-126241852D01*
X156613960Y-126336056D01*
X156592079Y-126373955D01*
X156522885Y-126493803D01*
X156518473Y-126501444D01*
X156459458Y-126683072D01*
X156439496Y-126873000D01*
X136803504Y-126873000D01*
X136783542Y-126683072D01*
X136724527Y-126501444D01*
X136720116Y-126493803D01*
X136650921Y-126373955D01*
X136629040Y-126336056D01*
X136544219Y-126241852D01*
X136505675Y-126199045D01*
X136505674Y-126199044D01*
X136501253Y-126194134D01*
X136346752Y-126081882D01*
X136340724Y-126079198D01*
X136340722Y-126079197D01*
X136178319Y-126006891D01*
X136178318Y-126006891D01*
X136172288Y-126004206D01*
X136078888Y-125984353D01*
X135991944Y-125965872D01*
X135991939Y-125965872D01*
X135985487Y-125964500D01*
X135794513Y-125964500D01*
X135788061Y-125965872D01*
X135788056Y-125965872D01*
X135701112Y-125984353D01*
X135607712Y-126004206D01*
X135601682Y-126006891D01*
X135601681Y-126006891D01*
X135439278Y-126079197D01*
X135439276Y-126079198D01*
X135433248Y-126081882D01*
X135278747Y-126194134D01*
X135274326Y-126199044D01*
X135274325Y-126199045D01*
X135235782Y-126241852D01*
X135150960Y-126336056D01*
X135129079Y-126373955D01*
X135059885Y-126493803D01*
X135055473Y-126501444D01*
X134996458Y-126683072D01*
X134976496Y-126873000D01*
X105537000Y-126873000D01*
X105537000Y-125700000D01*
X165126496Y-125700000D01*
X165146458Y-125889928D01*
X165205473Y-126071556D01*
X165208776Y-126077278D01*
X165208777Y-126077279D01*
X165211435Y-126081882D01*
X165300960Y-126236944D01*
X165305378Y-126241851D01*
X165305379Y-126241852D01*
X165389321Y-126335079D01*
X165428747Y-126378866D01*
X165583248Y-126491118D01*
X165589276Y-126493802D01*
X165589278Y-126493803D01*
X165620557Y-126507729D01*
X165757712Y-126568794D01*
X165851113Y-126588647D01*
X165938056Y-126607128D01*
X165938061Y-126607128D01*
X165944513Y-126608500D01*
X166135487Y-126608500D01*
X166141939Y-126607128D01*
X166141944Y-126607128D01*
X166228887Y-126588647D01*
X166322288Y-126568794D01*
X166459443Y-126507729D01*
X166490722Y-126493803D01*
X166490724Y-126493802D01*
X166496752Y-126491118D01*
X166651253Y-126378866D01*
X166690679Y-126335079D01*
X166774621Y-126241852D01*
X166774622Y-126241851D01*
X166779040Y-126236944D01*
X166868565Y-126081882D01*
X166871223Y-126077279D01*
X166871224Y-126077278D01*
X166874527Y-126071556D01*
X166933542Y-125889928D01*
X166953504Y-125700000D01*
X166933542Y-125510072D01*
X166874527Y-125328444D01*
X166779040Y-125163056D01*
X166746455Y-125126866D01*
X166655675Y-125026045D01*
X166655674Y-125026044D01*
X166651253Y-125021134D01*
X166496752Y-124908882D01*
X166490724Y-124906198D01*
X166490722Y-124906197D01*
X166328319Y-124833891D01*
X166328318Y-124833891D01*
X166322288Y-124831206D01*
X166228887Y-124811353D01*
X166141944Y-124792872D01*
X166141939Y-124792872D01*
X166135487Y-124791500D01*
X165944513Y-124791500D01*
X165938061Y-124792872D01*
X165938056Y-124792872D01*
X165851113Y-124811353D01*
X165757712Y-124831206D01*
X165751682Y-124833891D01*
X165751681Y-124833891D01*
X165589278Y-124906197D01*
X165589276Y-124906198D01*
X165583248Y-124908882D01*
X165428747Y-125021134D01*
X165424326Y-125026044D01*
X165424325Y-125026045D01*
X165333546Y-125126866D01*
X165300960Y-125163056D01*
X165205473Y-125328444D01*
X165146458Y-125510072D01*
X165126496Y-125700000D01*
X105537000Y-125700000D01*
X105537000Y-124714000D01*
X125324496Y-124714000D01*
X125344458Y-124903928D01*
X125403473Y-125085556D01*
X125498960Y-125250944D01*
X125503378Y-125255851D01*
X125503379Y-125255852D01*
X125594003Y-125356500D01*
X125626747Y-125392866D01*
X125781248Y-125505118D01*
X125787276Y-125507802D01*
X125787278Y-125507803D01*
X125949681Y-125580109D01*
X125955712Y-125582794D01*
X126049113Y-125602647D01*
X126136056Y-125621128D01*
X126136061Y-125621128D01*
X126142513Y-125622500D01*
X126333487Y-125622500D01*
X126339939Y-125621128D01*
X126339944Y-125621128D01*
X126426887Y-125602647D01*
X126520288Y-125582794D01*
X126526319Y-125580109D01*
X126688722Y-125507803D01*
X126688724Y-125507802D01*
X126694752Y-125505118D01*
X126849253Y-125392866D01*
X126881997Y-125356500D01*
X126972621Y-125255852D01*
X126972622Y-125255851D01*
X126977040Y-125250944D01*
X127072527Y-125085556D01*
X127131542Y-124903928D01*
X127151504Y-124714000D01*
X127150814Y-124707435D01*
X127132232Y-124530635D01*
X127132232Y-124530633D01*
X127131542Y-124524072D01*
X127106825Y-124448000D01*
X147434496Y-124448000D01*
X147435186Y-124454565D01*
X147441832Y-124517794D01*
X147454458Y-124637928D01*
X147513473Y-124819556D01*
X147608960Y-124984944D01*
X147613378Y-124989851D01*
X147613379Y-124989852D01*
X147645961Y-125026038D01*
X147736747Y-125126866D01*
X147891248Y-125239118D01*
X147897276Y-125241802D01*
X147897278Y-125241803D01*
X147928833Y-125255852D01*
X148065712Y-125316794D01*
X148150089Y-125334729D01*
X148246056Y-125355128D01*
X148246061Y-125355128D01*
X148252513Y-125356500D01*
X148443487Y-125356500D01*
X148449939Y-125355128D01*
X148449944Y-125355128D01*
X148545911Y-125334729D01*
X148630288Y-125316794D01*
X148767167Y-125255852D01*
X148798722Y-125241803D01*
X148798724Y-125241802D01*
X148804752Y-125239118D01*
X148959253Y-125126866D01*
X149050039Y-125026038D01*
X149082621Y-124989852D01*
X149082622Y-124989851D01*
X149087040Y-124984944D01*
X149182527Y-124819556D01*
X149241542Y-124637928D01*
X149254169Y-124517794D01*
X149260814Y-124454565D01*
X149261504Y-124448000D01*
X149241542Y-124258072D01*
X149182527Y-124076444D01*
X149087040Y-123911056D01*
X149027749Y-123845206D01*
X148963675Y-123774045D01*
X148963674Y-123774044D01*
X148959253Y-123769134D01*
X148804752Y-123656882D01*
X148798724Y-123654198D01*
X148798722Y-123654197D01*
X148636319Y-123581891D01*
X148636318Y-123581891D01*
X148630288Y-123579206D01*
X148536887Y-123559353D01*
X148449944Y-123540872D01*
X148449939Y-123540872D01*
X148443487Y-123539500D01*
X148252513Y-123539500D01*
X148246061Y-123540872D01*
X148246056Y-123540872D01*
X148159113Y-123559353D01*
X148065712Y-123579206D01*
X148059682Y-123581891D01*
X148059681Y-123581891D01*
X147897278Y-123654197D01*
X147897276Y-123654198D01*
X147891248Y-123656882D01*
X147736747Y-123769134D01*
X147732326Y-123774044D01*
X147732325Y-123774045D01*
X147668252Y-123845206D01*
X147608960Y-123911056D01*
X147513473Y-124076444D01*
X147454458Y-124258072D01*
X147434496Y-124448000D01*
X127106825Y-124448000D01*
X127072527Y-124342444D01*
X126977040Y-124177056D01*
X126849253Y-124035134D01*
X126694752Y-123922882D01*
X126688724Y-123920198D01*
X126688722Y-123920197D01*
X126526319Y-123847891D01*
X126526318Y-123847891D01*
X126520288Y-123845206D01*
X126426888Y-123825353D01*
X126339944Y-123806872D01*
X126339939Y-123806872D01*
X126333487Y-123805500D01*
X126142513Y-123805500D01*
X126136061Y-123806872D01*
X126136056Y-123806872D01*
X126049112Y-123825353D01*
X125955712Y-123845206D01*
X125949682Y-123847891D01*
X125949681Y-123847891D01*
X125787278Y-123920197D01*
X125787276Y-123920198D01*
X125781248Y-123922882D01*
X125626747Y-124035134D01*
X125498960Y-124177056D01*
X125403473Y-124342444D01*
X125344458Y-124524072D01*
X125343768Y-124530633D01*
X125343768Y-124530635D01*
X125325186Y-124707435D01*
X125324496Y-124714000D01*
X105537000Y-124714000D01*
X105537000Y-118080000D01*
X165126496Y-118080000D01*
X165146458Y-118269928D01*
X165205473Y-118451556D01*
X165300960Y-118616944D01*
X165305378Y-118621851D01*
X165305379Y-118621852D01*
X165389321Y-118715079D01*
X165428747Y-118758866D01*
X165583248Y-118871118D01*
X165589276Y-118873802D01*
X165589278Y-118873803D01*
X165751681Y-118946109D01*
X165757712Y-118948794D01*
X165851113Y-118968647D01*
X165938056Y-118987128D01*
X165938061Y-118987128D01*
X165944513Y-118988500D01*
X166135487Y-118988500D01*
X166141939Y-118987128D01*
X166141944Y-118987128D01*
X166228887Y-118968647D01*
X166322288Y-118948794D01*
X166328319Y-118946109D01*
X166490722Y-118873803D01*
X166490724Y-118873802D01*
X166496752Y-118871118D01*
X166651253Y-118758866D01*
X166690679Y-118715079D01*
X166774621Y-118621852D01*
X166774622Y-118621851D01*
X166779040Y-118616944D01*
X166874527Y-118451556D01*
X166933542Y-118269928D01*
X166953504Y-118080000D01*
X166933542Y-117890072D01*
X166874527Y-117708444D01*
X166779040Y-117543056D01*
X166752838Y-117513955D01*
X166655675Y-117406045D01*
X166655674Y-117406044D01*
X166651253Y-117401134D01*
X166496752Y-117288882D01*
X166490724Y-117286198D01*
X166490722Y-117286197D01*
X166328319Y-117213891D01*
X166328318Y-117213891D01*
X166322288Y-117211206D01*
X166228887Y-117191353D01*
X166141944Y-117172872D01*
X166141939Y-117172872D01*
X166135487Y-117171500D01*
X165944513Y-117171500D01*
X165938061Y-117172872D01*
X165938056Y-117172872D01*
X165851113Y-117191353D01*
X165757712Y-117211206D01*
X165751682Y-117213891D01*
X165751681Y-117213891D01*
X165589278Y-117286197D01*
X165589276Y-117286198D01*
X165583248Y-117288882D01*
X165428747Y-117401134D01*
X165424326Y-117406044D01*
X165424325Y-117406045D01*
X165327163Y-117513955D01*
X165300960Y-117543056D01*
X165205473Y-117708444D01*
X165146458Y-117890072D01*
X165126496Y-118080000D01*
X105537000Y-118080000D01*
X105537000Y-116967000D01*
X115164496Y-116967000D01*
X115184458Y-117156928D01*
X115243473Y-117338556D01*
X115338960Y-117503944D01*
X115343378Y-117508851D01*
X115343379Y-117508852D01*
X115377076Y-117546276D01*
X115466747Y-117645866D01*
X115542782Y-117701109D01*
X115606122Y-117747128D01*
X115621248Y-117758118D01*
X115627276Y-117760802D01*
X115627278Y-117760803D01*
X115789681Y-117833109D01*
X115795712Y-117835794D01*
X115889113Y-117855647D01*
X115976056Y-117874128D01*
X115976061Y-117874128D01*
X115982513Y-117875500D01*
X116173487Y-117875500D01*
X116179939Y-117874128D01*
X116179944Y-117874128D01*
X116266887Y-117855647D01*
X116360288Y-117835794D01*
X116366319Y-117833109D01*
X116528722Y-117760803D01*
X116528724Y-117760802D01*
X116534752Y-117758118D01*
X116549879Y-117747128D01*
X116588410Y-117719133D01*
X116638940Y-117682421D01*
X116705806Y-117658563D01*
X116774958Y-117674643D01*
X116787056Y-117682418D01*
X116837590Y-117719133D01*
X116876122Y-117747128D01*
X116891248Y-117758118D01*
X116897276Y-117760802D01*
X116897278Y-117760803D01*
X117059681Y-117833109D01*
X117065712Y-117835794D01*
X117159113Y-117855647D01*
X117246056Y-117874128D01*
X117246061Y-117874128D01*
X117252513Y-117875500D01*
X117443487Y-117875500D01*
X117449939Y-117874128D01*
X117449944Y-117874128D01*
X117536887Y-117855647D01*
X117630288Y-117835794D01*
X117636319Y-117833109D01*
X117798722Y-117760803D01*
X117798724Y-117760802D01*
X117804752Y-117758118D01*
X117819879Y-117747128D01*
X117883218Y-117701109D01*
X117959253Y-117645866D01*
X118048924Y-117546276D01*
X118082621Y-117508852D01*
X118082622Y-117508851D01*
X118087040Y-117503944D01*
X118182527Y-117338556D01*
X118241542Y-117156928D01*
X118261504Y-116967000D01*
X118248846Y-116846565D01*
X118247631Y-116835000D01*
X126589496Y-116835000D01*
X126590186Y-116841565D01*
X126604060Y-116973565D01*
X126609458Y-117024928D01*
X126668473Y-117206556D01*
X126763960Y-117371944D01*
X126768378Y-117376851D01*
X126768379Y-117376852D01*
X126867751Y-117487216D01*
X126891747Y-117513866D01*
X127046248Y-117626118D01*
X127052276Y-117628802D01*
X127052278Y-117628803D01*
X127155237Y-117674643D01*
X127220712Y-117703794D01*
X127292876Y-117719133D01*
X127401056Y-117742128D01*
X127401061Y-117742128D01*
X127407513Y-117743500D01*
X127598487Y-117743500D01*
X127604939Y-117742128D01*
X127604944Y-117742128D01*
X127713124Y-117719133D01*
X127785288Y-117703794D01*
X127850763Y-117674643D01*
X127953722Y-117628803D01*
X127953724Y-117628802D01*
X127959752Y-117626118D01*
X128062998Y-117551105D01*
X128129865Y-117527247D01*
X128199017Y-117543327D01*
X128211120Y-117551105D01*
X128321248Y-117631118D01*
X128327276Y-117633802D01*
X128327278Y-117633803D01*
X128487563Y-117705166D01*
X128495712Y-117708794D01*
X128589113Y-117728647D01*
X128676056Y-117747128D01*
X128676061Y-117747128D01*
X128682513Y-117748500D01*
X128873487Y-117748500D01*
X128879939Y-117747128D01*
X128879944Y-117747128D01*
X128966887Y-117728647D01*
X129060288Y-117708794D01*
X129068437Y-117705166D01*
X129228722Y-117633803D01*
X129228724Y-117633802D01*
X129234752Y-117631118D01*
X129389253Y-117518866D01*
X129417751Y-117487216D01*
X129512621Y-117381852D01*
X129512622Y-117381851D01*
X129517040Y-117376944D01*
X129612527Y-117211556D01*
X129671542Y-117029928D01*
X129672758Y-117018365D01*
X129690814Y-116846565D01*
X129691504Y-116840000D01*
X130404496Y-116840000D01*
X130405186Y-116846565D01*
X130423243Y-117018365D01*
X130424458Y-117029928D01*
X130483473Y-117211556D01*
X130578960Y-117376944D01*
X130583378Y-117381851D01*
X130583379Y-117381852D01*
X130678249Y-117487216D01*
X130706747Y-117518866D01*
X130861248Y-117631118D01*
X130867276Y-117633802D01*
X130867278Y-117633803D01*
X131027563Y-117705166D01*
X131035712Y-117708794D01*
X131129113Y-117728647D01*
X131216056Y-117747128D01*
X131216061Y-117747128D01*
X131222513Y-117748500D01*
X131413487Y-117748500D01*
X131419939Y-117747128D01*
X131419944Y-117747128D01*
X131506887Y-117728647D01*
X131600288Y-117708794D01*
X131608437Y-117705166D01*
X131768722Y-117633803D01*
X131768724Y-117633802D01*
X131774752Y-117631118D01*
X131879879Y-117554738D01*
X131946748Y-117530879D01*
X132015899Y-117546960D01*
X132028002Y-117554738D01*
X132126248Y-117626118D01*
X132132276Y-117628802D01*
X132132278Y-117628803D01*
X132235237Y-117674643D01*
X132300712Y-117703794D01*
X132372876Y-117719133D01*
X132481056Y-117742128D01*
X132481061Y-117742128D01*
X132487513Y-117743500D01*
X132678487Y-117743500D01*
X132684939Y-117742128D01*
X132684944Y-117742128D01*
X132793124Y-117719133D01*
X132865288Y-117703794D01*
X132930763Y-117674643D01*
X133033722Y-117628803D01*
X133033724Y-117628802D01*
X133039752Y-117626118D01*
X133194253Y-117513866D01*
X133218249Y-117487216D01*
X133317621Y-117376852D01*
X133317622Y-117376851D01*
X133322040Y-117371944D01*
X133417527Y-117206556D01*
X133476542Y-117024928D01*
X133481941Y-116973565D01*
X133495814Y-116841565D01*
X133495978Y-116840000D01*
X134214496Y-116840000D01*
X134215186Y-116846565D01*
X134233243Y-117018365D01*
X134234458Y-117029928D01*
X134293473Y-117211556D01*
X134388960Y-117376944D01*
X134393378Y-117381851D01*
X134393379Y-117381852D01*
X134488249Y-117487216D01*
X134516747Y-117518866D01*
X134671248Y-117631118D01*
X134677276Y-117633802D01*
X134677278Y-117633803D01*
X134837563Y-117705166D01*
X134845712Y-117708794D01*
X134939113Y-117728647D01*
X135026056Y-117747128D01*
X135026061Y-117747128D01*
X135032513Y-117748500D01*
X135223487Y-117748500D01*
X135229939Y-117747128D01*
X135229944Y-117747128D01*
X135316887Y-117728647D01*
X135410288Y-117708794D01*
X135418437Y-117705166D01*
X135578722Y-117633803D01*
X135578724Y-117633802D01*
X135584752Y-117631118D01*
X135694880Y-117551105D01*
X135761748Y-117527247D01*
X135830899Y-117543327D01*
X135843001Y-117551104D01*
X135946248Y-117626118D01*
X135952276Y-117628802D01*
X135952278Y-117628803D01*
X136055237Y-117674643D01*
X136120712Y-117703794D01*
X136192876Y-117719133D01*
X136301056Y-117742128D01*
X136301061Y-117742128D01*
X136307513Y-117743500D01*
X136498487Y-117743500D01*
X136504939Y-117742128D01*
X136504944Y-117742128D01*
X136613124Y-117719133D01*
X136685288Y-117703794D01*
X136750763Y-117674643D01*
X136853722Y-117628803D01*
X136853724Y-117628802D01*
X136859752Y-117626118D01*
X137014253Y-117513866D01*
X137038249Y-117487216D01*
X137137621Y-117376852D01*
X137137622Y-117376851D01*
X137142040Y-117371944D01*
X137237527Y-117206556D01*
X137296542Y-117024928D01*
X137301941Y-116973565D01*
X137315814Y-116841565D01*
X137316504Y-116835000D01*
X145639496Y-116835000D01*
X145640186Y-116841565D01*
X145654060Y-116973565D01*
X145659458Y-117024928D01*
X145718473Y-117206556D01*
X145813960Y-117371944D01*
X145818378Y-117376851D01*
X145818379Y-117376852D01*
X145917751Y-117487216D01*
X145941747Y-117513866D01*
X146096248Y-117626118D01*
X146102276Y-117628802D01*
X146102278Y-117628803D01*
X146205237Y-117674643D01*
X146270712Y-117703794D01*
X146342876Y-117719133D01*
X146451056Y-117742128D01*
X146451061Y-117742128D01*
X146457513Y-117743500D01*
X146648487Y-117743500D01*
X146654939Y-117742128D01*
X146654944Y-117742128D01*
X146763124Y-117719133D01*
X146835288Y-117703794D01*
X146900763Y-117674643D01*
X147003722Y-117628803D01*
X147003724Y-117628802D01*
X147009752Y-117626118D01*
X147112998Y-117551105D01*
X147179865Y-117527247D01*
X147249017Y-117543327D01*
X147261120Y-117551105D01*
X147371248Y-117631118D01*
X147377276Y-117633802D01*
X147377278Y-117633803D01*
X147537563Y-117705166D01*
X147545712Y-117708794D01*
X147639113Y-117728647D01*
X147726056Y-117747128D01*
X147726061Y-117747128D01*
X147732513Y-117748500D01*
X147923487Y-117748500D01*
X147929939Y-117747128D01*
X147929944Y-117747128D01*
X148016887Y-117728647D01*
X148110288Y-117708794D01*
X148118437Y-117705166D01*
X148278722Y-117633803D01*
X148278724Y-117633802D01*
X148284752Y-117631118D01*
X148439253Y-117518866D01*
X148467751Y-117487216D01*
X148562621Y-117381852D01*
X148562622Y-117381851D01*
X148567040Y-117376944D01*
X148662527Y-117211556D01*
X148721542Y-117029928D01*
X148722758Y-117018365D01*
X148740814Y-116846565D01*
X148741504Y-116840000D01*
X148740978Y-116835000D01*
X149459496Y-116835000D01*
X149460186Y-116841565D01*
X149474060Y-116973565D01*
X149479458Y-117024928D01*
X149538473Y-117206556D01*
X149633960Y-117371944D01*
X149638378Y-117376851D01*
X149638379Y-117376852D01*
X149737751Y-117487216D01*
X149761747Y-117513866D01*
X149916248Y-117626118D01*
X149922276Y-117628802D01*
X149922278Y-117628803D01*
X150025237Y-117674643D01*
X150090712Y-117703794D01*
X150162876Y-117719133D01*
X150271056Y-117742128D01*
X150271061Y-117742128D01*
X150277513Y-117743500D01*
X150468487Y-117743500D01*
X150474939Y-117742128D01*
X150474944Y-117742128D01*
X150583124Y-117719133D01*
X150655288Y-117703794D01*
X150720763Y-117674643D01*
X150823722Y-117628803D01*
X150823724Y-117628802D01*
X150829752Y-117626118D01*
X150928939Y-117554054D01*
X150995806Y-117530196D01*
X151064958Y-117546276D01*
X151077059Y-117554053D01*
X151176248Y-117626118D01*
X151182276Y-117628802D01*
X151182278Y-117628803D01*
X151285237Y-117674643D01*
X151350712Y-117703794D01*
X151422876Y-117719133D01*
X151531056Y-117742128D01*
X151531061Y-117742128D01*
X151537513Y-117743500D01*
X151728487Y-117743500D01*
X151734939Y-117742128D01*
X151734944Y-117742128D01*
X151843124Y-117719133D01*
X151915288Y-117703794D01*
X151980763Y-117674643D01*
X152083722Y-117628803D01*
X152083724Y-117628802D01*
X152089752Y-117626118D01*
X152244253Y-117513866D01*
X152268249Y-117487216D01*
X152367621Y-117376852D01*
X152367622Y-117376851D01*
X152372040Y-117371944D01*
X152467527Y-117206556D01*
X152526542Y-117024928D01*
X152531941Y-116973565D01*
X152545814Y-116841565D01*
X152546504Y-116835000D01*
X152539756Y-116770794D01*
X152527232Y-116651635D01*
X152527232Y-116651633D01*
X152526542Y-116645072D01*
X152467527Y-116463444D01*
X152372040Y-116298056D01*
X152244253Y-116156134D01*
X152144784Y-116083865D01*
X152095094Y-116047763D01*
X152095093Y-116047762D01*
X152089752Y-116043882D01*
X152083724Y-116041198D01*
X152083722Y-116041197D01*
X151921319Y-115968891D01*
X151921318Y-115968891D01*
X151915288Y-115966206D01*
X151821887Y-115946353D01*
X151734944Y-115927872D01*
X151734939Y-115927872D01*
X151728487Y-115926500D01*
X151537513Y-115926500D01*
X151531061Y-115927872D01*
X151531056Y-115927872D01*
X151444113Y-115946353D01*
X151350712Y-115966206D01*
X151344682Y-115968891D01*
X151344681Y-115968891D01*
X151182278Y-116041197D01*
X151182276Y-116041198D01*
X151176248Y-116043882D01*
X151170907Y-116047762D01*
X151170906Y-116047763D01*
X151077061Y-116115946D01*
X151010194Y-116139804D01*
X150941042Y-116123724D01*
X150928939Y-116115946D01*
X150835094Y-116047763D01*
X150835093Y-116047762D01*
X150829752Y-116043882D01*
X150823724Y-116041198D01*
X150823722Y-116041197D01*
X150661319Y-115968891D01*
X150661318Y-115968891D01*
X150655288Y-115966206D01*
X150561887Y-115946353D01*
X150474944Y-115927872D01*
X150474939Y-115927872D01*
X150468487Y-115926500D01*
X150277513Y-115926500D01*
X150271061Y-115927872D01*
X150271056Y-115927872D01*
X150184113Y-115946353D01*
X150090712Y-115966206D01*
X150084682Y-115968891D01*
X150084681Y-115968891D01*
X149922278Y-116041197D01*
X149922276Y-116041198D01*
X149916248Y-116043882D01*
X149910907Y-116047762D01*
X149910906Y-116047763D01*
X149861216Y-116083865D01*
X149761747Y-116156134D01*
X149633960Y-116298056D01*
X149538473Y-116463444D01*
X149479458Y-116645072D01*
X149478768Y-116651633D01*
X149478768Y-116651635D01*
X149466244Y-116770794D01*
X149459496Y-116835000D01*
X148740978Y-116835000D01*
X148721542Y-116650072D01*
X148662527Y-116468444D01*
X148567040Y-116303056D01*
X148439253Y-116161134D01*
X148321040Y-116075247D01*
X148290094Y-116052763D01*
X148290093Y-116052762D01*
X148284752Y-116048882D01*
X148278724Y-116046198D01*
X148278722Y-116046197D01*
X148116319Y-115973891D01*
X148116318Y-115973891D01*
X148110288Y-115971206D01*
X148016888Y-115951353D01*
X147929944Y-115932872D01*
X147929939Y-115932872D01*
X147923487Y-115931500D01*
X147732513Y-115931500D01*
X147726061Y-115932872D01*
X147726056Y-115932872D01*
X147639112Y-115951353D01*
X147545712Y-115971206D01*
X147539682Y-115973891D01*
X147539681Y-115973891D01*
X147377278Y-116046197D01*
X147377276Y-116046198D01*
X147371248Y-116048882D01*
X147365907Y-116052762D01*
X147365906Y-116052763D01*
X147268002Y-116123895D01*
X147201135Y-116147753D01*
X147131983Y-116131673D01*
X147119880Y-116123895D01*
X147015094Y-116047763D01*
X147015093Y-116047762D01*
X147009752Y-116043882D01*
X147003724Y-116041198D01*
X147003722Y-116041197D01*
X146841319Y-115968891D01*
X146841318Y-115968891D01*
X146835288Y-115966206D01*
X146741887Y-115946353D01*
X146654944Y-115927872D01*
X146654939Y-115927872D01*
X146648487Y-115926500D01*
X146457513Y-115926500D01*
X146451061Y-115927872D01*
X146451056Y-115927872D01*
X146364113Y-115946353D01*
X146270712Y-115966206D01*
X146264682Y-115968891D01*
X146264681Y-115968891D01*
X146102278Y-116041197D01*
X146102276Y-116041198D01*
X146096248Y-116043882D01*
X146090907Y-116047762D01*
X146090906Y-116047763D01*
X146041216Y-116083865D01*
X145941747Y-116156134D01*
X145813960Y-116298056D01*
X145718473Y-116463444D01*
X145659458Y-116645072D01*
X145658768Y-116651633D01*
X145658768Y-116651635D01*
X145646244Y-116770794D01*
X145639496Y-116835000D01*
X137316504Y-116835000D01*
X137309756Y-116770794D01*
X137297232Y-116651635D01*
X137297232Y-116651633D01*
X137296542Y-116645072D01*
X137237527Y-116463444D01*
X137142040Y-116298056D01*
X137014253Y-116156134D01*
X136914784Y-116083865D01*
X136865094Y-116047763D01*
X136865093Y-116047762D01*
X136859752Y-116043882D01*
X136853724Y-116041198D01*
X136853722Y-116041197D01*
X136691319Y-115968891D01*
X136691318Y-115968891D01*
X136685288Y-115966206D01*
X136591887Y-115946353D01*
X136504944Y-115927872D01*
X136504939Y-115927872D01*
X136498487Y-115926500D01*
X136307513Y-115926500D01*
X136301061Y-115927872D01*
X136301056Y-115927872D01*
X136214113Y-115946353D01*
X136120712Y-115966206D01*
X136114682Y-115968891D01*
X136114681Y-115968891D01*
X135952278Y-116041197D01*
X135952276Y-116041198D01*
X135946248Y-116043882D01*
X135940907Y-116047762D01*
X135940906Y-116047763D01*
X135836120Y-116123895D01*
X135769252Y-116147753D01*
X135700101Y-116131673D01*
X135687998Y-116123895D01*
X135590094Y-116052763D01*
X135590093Y-116052762D01*
X135584752Y-116048882D01*
X135578724Y-116046198D01*
X135578722Y-116046197D01*
X135416319Y-115973891D01*
X135416318Y-115973891D01*
X135410288Y-115971206D01*
X135316888Y-115951353D01*
X135229944Y-115932872D01*
X135229939Y-115932872D01*
X135223487Y-115931500D01*
X135032513Y-115931500D01*
X135026061Y-115932872D01*
X135026056Y-115932872D01*
X134939112Y-115951353D01*
X134845712Y-115971206D01*
X134839682Y-115973891D01*
X134839681Y-115973891D01*
X134677278Y-116046197D01*
X134677276Y-116046198D01*
X134671248Y-116048882D01*
X134665907Y-116052762D01*
X134665906Y-116052763D01*
X134634960Y-116075247D01*
X134516747Y-116161134D01*
X134388960Y-116303056D01*
X134293473Y-116468444D01*
X134234458Y-116650072D01*
X134214496Y-116840000D01*
X133495978Y-116840000D01*
X133496504Y-116835000D01*
X133489756Y-116770794D01*
X133477232Y-116651635D01*
X133477232Y-116651633D01*
X133476542Y-116645072D01*
X133417527Y-116463444D01*
X133322040Y-116298056D01*
X133194253Y-116156134D01*
X133094784Y-116083865D01*
X133045094Y-116047763D01*
X133045093Y-116047762D01*
X133039752Y-116043882D01*
X133033724Y-116041198D01*
X133033722Y-116041197D01*
X132871319Y-115968891D01*
X132871318Y-115968891D01*
X132865288Y-115966206D01*
X132771887Y-115946353D01*
X132684944Y-115927872D01*
X132684939Y-115927872D01*
X132678487Y-115926500D01*
X132487513Y-115926500D01*
X132481061Y-115927872D01*
X132481056Y-115927872D01*
X132394113Y-115946353D01*
X132300712Y-115966206D01*
X132294682Y-115968891D01*
X132294681Y-115968891D01*
X132132278Y-116041197D01*
X132132276Y-116041198D01*
X132126248Y-116043882D01*
X132120907Y-116047762D01*
X132120906Y-116047763D01*
X132021120Y-116120262D01*
X131954252Y-116144121D01*
X131885101Y-116128040D01*
X131872998Y-116120262D01*
X131780094Y-116052763D01*
X131780093Y-116052762D01*
X131774752Y-116048882D01*
X131768724Y-116046198D01*
X131768722Y-116046197D01*
X131606319Y-115973891D01*
X131606318Y-115973891D01*
X131600288Y-115971206D01*
X131506888Y-115951353D01*
X131419944Y-115932872D01*
X131419939Y-115932872D01*
X131413487Y-115931500D01*
X131222513Y-115931500D01*
X131216061Y-115932872D01*
X131216056Y-115932872D01*
X131129112Y-115951353D01*
X131035712Y-115971206D01*
X131029682Y-115973891D01*
X131029681Y-115973891D01*
X130867278Y-116046197D01*
X130867276Y-116046198D01*
X130861248Y-116048882D01*
X130855907Y-116052762D01*
X130855906Y-116052763D01*
X130824960Y-116075247D01*
X130706747Y-116161134D01*
X130578960Y-116303056D01*
X130483473Y-116468444D01*
X130424458Y-116650072D01*
X130404496Y-116840000D01*
X129691504Y-116840000D01*
X129671542Y-116650072D01*
X129612527Y-116468444D01*
X129517040Y-116303056D01*
X129389253Y-116161134D01*
X129271040Y-116075247D01*
X129240094Y-116052763D01*
X129240093Y-116052762D01*
X129234752Y-116048882D01*
X129228724Y-116046198D01*
X129228722Y-116046197D01*
X129066319Y-115973891D01*
X129066318Y-115973891D01*
X129060288Y-115971206D01*
X128966888Y-115951353D01*
X128879944Y-115932872D01*
X128879939Y-115932872D01*
X128873487Y-115931500D01*
X128682513Y-115931500D01*
X128676061Y-115932872D01*
X128676056Y-115932872D01*
X128589112Y-115951353D01*
X128495712Y-115971206D01*
X128489682Y-115973891D01*
X128489681Y-115973891D01*
X128327278Y-116046197D01*
X128327276Y-116046198D01*
X128321248Y-116048882D01*
X128315907Y-116052762D01*
X128315906Y-116052763D01*
X128218002Y-116123895D01*
X128151135Y-116147753D01*
X128081983Y-116131673D01*
X128069880Y-116123895D01*
X127965094Y-116047763D01*
X127965093Y-116047762D01*
X127959752Y-116043882D01*
X127953724Y-116041198D01*
X127953722Y-116041197D01*
X127791319Y-115968891D01*
X127791318Y-115968891D01*
X127785288Y-115966206D01*
X127691887Y-115946353D01*
X127604944Y-115927872D01*
X127604939Y-115927872D01*
X127598487Y-115926500D01*
X127407513Y-115926500D01*
X127401061Y-115927872D01*
X127401056Y-115927872D01*
X127314113Y-115946353D01*
X127220712Y-115966206D01*
X127214682Y-115968891D01*
X127214681Y-115968891D01*
X127052278Y-116041197D01*
X127052276Y-116041198D01*
X127046248Y-116043882D01*
X127040907Y-116047762D01*
X127040906Y-116047763D01*
X126991216Y-116083865D01*
X126891747Y-116156134D01*
X126763960Y-116298056D01*
X126668473Y-116463444D01*
X126609458Y-116645072D01*
X126608768Y-116651633D01*
X126608768Y-116651635D01*
X126596244Y-116770794D01*
X126589496Y-116835000D01*
X118247631Y-116835000D01*
X118242232Y-116783635D01*
X118242232Y-116783633D01*
X118241542Y-116777072D01*
X118182527Y-116595444D01*
X118087040Y-116430056D01*
X117959253Y-116288134D01*
X117804752Y-116175882D01*
X117798724Y-116173198D01*
X117798722Y-116173197D01*
X117636319Y-116100891D01*
X117636318Y-116100891D01*
X117630288Y-116098206D01*
X117522275Y-116075247D01*
X117449944Y-116059872D01*
X117449939Y-116059872D01*
X117443487Y-116058500D01*
X117252513Y-116058500D01*
X117246061Y-116059872D01*
X117246056Y-116059872D01*
X117173725Y-116075247D01*
X117065712Y-116098206D01*
X117059682Y-116100891D01*
X117059681Y-116100891D01*
X116897278Y-116173197D01*
X116897276Y-116173198D01*
X116891248Y-116175882D01*
X116787060Y-116251579D01*
X116720194Y-116275437D01*
X116651042Y-116259357D01*
X116638944Y-116251582D01*
X116534752Y-116175882D01*
X116528724Y-116173198D01*
X116528722Y-116173197D01*
X116366319Y-116100891D01*
X116366318Y-116100891D01*
X116360288Y-116098206D01*
X116252275Y-116075247D01*
X116179944Y-116059872D01*
X116179939Y-116059872D01*
X116173487Y-116058500D01*
X115982513Y-116058500D01*
X115976061Y-116059872D01*
X115976056Y-116059872D01*
X115903725Y-116075247D01*
X115795712Y-116098206D01*
X115789682Y-116100891D01*
X115789681Y-116100891D01*
X115627278Y-116173197D01*
X115627276Y-116173198D01*
X115621248Y-116175882D01*
X115466747Y-116288134D01*
X115338960Y-116430056D01*
X115243473Y-116595444D01*
X115184458Y-116777072D01*
X115183768Y-116783633D01*
X115183768Y-116783635D01*
X115177154Y-116846565D01*
X115164496Y-116967000D01*
X105537000Y-116967000D01*
X105537000Y-116078000D01*
X104641518Y-116078000D01*
X104615321Y-116075247D01*
X104495944Y-116049872D01*
X104495940Y-116049872D01*
X104489487Y-116048500D01*
X104298513Y-116048500D01*
X104292060Y-116049872D01*
X104292056Y-116049872D01*
X104172679Y-116075247D01*
X104146482Y-116078000D01*
X103378000Y-116078000D01*
X103378000Y-117324722D01*
X103357998Y-117392843D01*
X103304342Y-117439336D01*
X103234068Y-117449440D01*
X103169488Y-117419946D01*
X103158375Y-117409043D01*
X103151253Y-117401134D01*
X102996752Y-117288882D01*
X102990724Y-117286198D01*
X102990722Y-117286197D01*
X102828319Y-117213891D01*
X102828318Y-117213891D01*
X102822288Y-117211206D01*
X102728887Y-117191353D01*
X102641944Y-117172872D01*
X102641939Y-117172872D01*
X102635487Y-117171500D01*
X102444513Y-117171500D01*
X102438061Y-117172872D01*
X102438056Y-117172872D01*
X102351113Y-117191353D01*
X102257712Y-117211206D01*
X102251682Y-117213891D01*
X102251681Y-117213891D01*
X102089278Y-117286197D01*
X102089276Y-117286198D01*
X102083248Y-117288882D01*
X101928747Y-117401134D01*
X101924326Y-117406044D01*
X101924325Y-117406045D01*
X101827163Y-117513955D01*
X101800960Y-117543056D01*
X101705473Y-117708444D01*
X101646458Y-117890072D01*
X101626496Y-118080000D01*
X101646458Y-118269928D01*
X101705473Y-118451556D01*
X101800960Y-118616944D01*
X101805378Y-118621851D01*
X101805379Y-118621852D01*
X101889321Y-118715079D01*
X101928747Y-118758866D01*
X102083248Y-118871118D01*
X102089276Y-118873802D01*
X102089278Y-118873803D01*
X102251681Y-118946109D01*
X102257712Y-118948794D01*
X102351113Y-118968647D01*
X102438056Y-118987128D01*
X102438061Y-118987128D01*
X102444513Y-118988500D01*
X102635487Y-118988500D01*
X102641939Y-118987128D01*
X102641944Y-118987128D01*
X102728887Y-118968647D01*
X102822288Y-118948794D01*
X102828319Y-118946109D01*
X102990722Y-118873803D01*
X102990724Y-118873802D01*
X102996752Y-118871118D01*
X103151253Y-118758866D01*
X103158365Y-118750968D01*
X103160353Y-118749743D01*
X103160577Y-118749541D01*
X103160614Y-118749582D01*
X103218807Y-118713729D01*
X103289790Y-118715079D01*
X103348776Y-118754591D01*
X103377036Y-118819721D01*
X103378000Y-118835278D01*
X103378000Y-124944722D01*
X103357998Y-125012843D01*
X103304342Y-125059336D01*
X103234068Y-125069440D01*
X103169488Y-125039946D01*
X103158375Y-125029043D01*
X103151253Y-125021134D01*
X102996752Y-124908882D01*
X102990724Y-124906198D01*
X102990722Y-124906197D01*
X102828319Y-124833891D01*
X102828318Y-124833891D01*
X102822288Y-124831206D01*
X102728887Y-124811353D01*
X102641944Y-124792872D01*
X102641939Y-124792872D01*
X102635487Y-124791500D01*
X102444513Y-124791500D01*
X102438061Y-124792872D01*
X102438056Y-124792872D01*
X102351113Y-124811353D01*
X102257712Y-124831206D01*
X102251682Y-124833891D01*
X102251681Y-124833891D01*
X102089278Y-124906197D01*
X102089276Y-124906198D01*
X102083248Y-124908882D01*
X101928747Y-125021134D01*
X101924326Y-125026044D01*
X101924325Y-125026045D01*
X101833546Y-125126866D01*
X101800960Y-125163056D01*
X101705473Y-125328444D01*
X101646458Y-125510072D01*
X101626496Y-125700000D01*
X101646458Y-125889928D01*
X101705473Y-126071556D01*
X101708776Y-126077278D01*
X101708777Y-126077279D01*
X101711435Y-126081882D01*
X101800960Y-126236944D01*
X101805378Y-126241851D01*
X101805379Y-126241852D01*
X101889321Y-126335079D01*
X101928747Y-126378866D01*
X102083248Y-126491118D01*
X102089276Y-126493802D01*
X102089278Y-126493803D01*
X102120557Y-126507729D01*
X102257712Y-126568794D01*
X102351113Y-126588647D01*
X102438056Y-126607128D01*
X102438061Y-126607128D01*
X102444513Y-126608500D01*
X102635487Y-126608500D01*
X102641939Y-126607128D01*
X102641944Y-126607128D01*
X102728887Y-126588647D01*
X102822288Y-126568794D01*
X102959443Y-126507729D01*
X102990722Y-126493803D01*
X102990724Y-126493802D01*
X102996752Y-126491118D01*
X103151253Y-126378866D01*
X103158365Y-126370968D01*
X103160353Y-126369743D01*
X103160577Y-126369541D01*
X103160614Y-126369582D01*
X103218807Y-126333729D01*
X103289790Y-126335079D01*
X103348776Y-126374591D01*
X103377036Y-126439721D01*
X103378000Y-126455278D01*
X103378000Y-137644722D01*
X103357998Y-137712843D01*
X103304342Y-137759336D01*
X103234068Y-137769440D01*
X103169488Y-137739946D01*
X103158375Y-137729043D01*
X103151253Y-137721134D01*
X102996752Y-137608882D01*
X102990724Y-137606198D01*
X102990722Y-137606197D01*
X102828319Y-137533891D01*
X102828318Y-137533891D01*
X102822288Y-137531206D01*
X102728887Y-137511353D01*
X102641944Y-137492872D01*
X102641939Y-137492872D01*
X102635487Y-137491500D01*
X102444513Y-137491500D01*
X102438061Y-137492872D01*
X102438056Y-137492872D01*
X102351113Y-137511353D01*
X102257712Y-137531206D01*
X102251682Y-137533891D01*
X102251681Y-137533891D01*
X102089278Y-137606197D01*
X102089276Y-137606198D01*
X102083248Y-137608882D01*
X101928747Y-137721134D01*
X101924326Y-137726044D01*
X101924325Y-137726045D01*
X101911809Y-137739946D01*
X101800960Y-137863056D01*
X101705473Y-138028444D01*
X101646458Y-138210072D01*
X101626496Y-138400000D01*
X101646458Y-138589928D01*
X101705473Y-138771556D01*
X101800960Y-138936944D01*
X101805378Y-138941851D01*
X101805379Y-138941852D01*
X101920351Y-139069541D01*
X101928747Y-139078866D01*
X102083248Y-139191118D01*
X102089276Y-139193802D01*
X102089278Y-139193803D01*
X102107815Y-139202056D01*
X102257712Y-139268794D01*
X102351113Y-139288647D01*
X102438056Y-139307128D01*
X102438061Y-139307128D01*
X102444513Y-139308500D01*
X102635487Y-139308500D01*
X102641939Y-139307128D01*
X102641944Y-139307128D01*
X102728887Y-139288647D01*
X102822288Y-139268794D01*
X102972185Y-139202056D01*
X102990722Y-139193803D01*
X102990724Y-139193802D01*
X102996752Y-139191118D01*
X103151253Y-139078866D01*
X103158365Y-139070968D01*
X103160353Y-139069743D01*
X103160577Y-139069541D01*
X103160614Y-139069582D01*
X103218807Y-139033729D01*
X103289790Y-139035079D01*
X103348776Y-139074591D01*
X103377036Y-139139721D01*
X103378000Y-139155278D01*
X103378000Y-140462000D01*
X103385794Y-140462000D01*
X103398588Y-140473086D01*
X103436972Y-140532812D01*
X103442074Y-140567626D01*
X103495918Y-150475001D01*
X103476287Y-150543230D01*
X103422884Y-150590013D01*
X103352666Y-150600499D01*
X103287926Y-150571357D01*
X103276298Y-150560010D01*
X103151253Y-150421134D01*
X102996752Y-150308882D01*
X102990724Y-150306198D01*
X102990722Y-150306197D01*
X102828319Y-150233891D01*
X102828318Y-150233891D01*
X102822288Y-150231206D01*
X102728888Y-150211353D01*
X102641944Y-150192872D01*
X102641939Y-150192872D01*
X102635487Y-150191500D01*
X102444513Y-150191500D01*
X102438061Y-150192872D01*
X102438056Y-150192872D01*
X102351112Y-150211353D01*
X102257712Y-150231206D01*
X102251682Y-150233891D01*
X102251681Y-150233891D01*
X102089278Y-150306197D01*
X102089276Y-150306198D01*
X102083248Y-150308882D01*
X101928747Y-150421134D01*
X101800960Y-150563056D01*
X101705473Y-150728444D01*
X101646458Y-150910072D01*
X101626496Y-151100000D01*
X100508500Y-151100000D01*
X100508500Y-114087000D01*
X158268496Y-114087000D01*
X158288458Y-114276928D01*
X158347473Y-114458556D01*
X158442960Y-114623944D01*
X158570747Y-114765866D01*
X158725248Y-114878118D01*
X158731276Y-114880802D01*
X158731278Y-114880803D01*
X158893681Y-114953109D01*
X158899712Y-114955794D01*
X158993112Y-114975647D01*
X159080056Y-114994128D01*
X159080061Y-114994128D01*
X159086513Y-114995500D01*
X159277487Y-114995500D01*
X159283939Y-114994128D01*
X159283944Y-114994128D01*
X159370888Y-114975647D01*
X159464288Y-114955794D01*
X159470319Y-114953109D01*
X159632722Y-114880803D01*
X159632724Y-114880802D01*
X159638752Y-114878118D01*
X159793253Y-114765866D01*
X159921040Y-114623944D01*
X160016527Y-114458556D01*
X160075542Y-114276928D01*
X160095504Y-114087000D01*
X160075542Y-113897072D01*
X160016527Y-113715444D01*
X159921040Y-113550056D01*
X159793253Y-113408134D01*
X159638752Y-113295882D01*
X159632724Y-113293198D01*
X159632722Y-113293197D01*
X159470319Y-113220891D01*
X159470318Y-113220891D01*
X159464288Y-113218206D01*
X159370888Y-113198353D01*
X159283944Y-113179872D01*
X159283939Y-113179872D01*
X159277487Y-113178500D01*
X159086513Y-113178500D01*
X159080061Y-113179872D01*
X159080056Y-113179872D01*
X158993113Y-113198353D01*
X158899712Y-113218206D01*
X158893682Y-113220891D01*
X158893681Y-113220891D01*
X158731278Y-113293197D01*
X158731276Y-113293198D01*
X158725248Y-113295882D01*
X158570747Y-113408134D01*
X158442960Y-113550056D01*
X158347473Y-113715444D01*
X158288458Y-113897072D01*
X158268496Y-114087000D01*
X100508500Y-114087000D01*
X100508500Y-110458000D01*
X100789540Y-110458000D01*
X100809359Y-110773020D01*
X100868505Y-111083072D01*
X100966044Y-111383266D01*
X100967731Y-111386852D01*
X100967733Y-111386856D01*
X101098750Y-111665283D01*
X101098754Y-111665290D01*
X101100438Y-111668869D01*
X101269568Y-111935375D01*
X101470767Y-112178582D01*
X101700860Y-112394654D01*
X101956221Y-112580184D01*
X101959690Y-112582091D01*
X101959693Y-112582093D01*
X102229352Y-112730340D01*
X102232821Y-112732247D01*
X102236490Y-112733700D01*
X102236495Y-112733702D01*
X102522628Y-112846990D01*
X102526298Y-112848443D01*
X102832025Y-112926940D01*
X103145179Y-112966500D01*
X103460821Y-112966500D01*
X103773975Y-112926940D01*
X104079702Y-112848443D01*
X104083372Y-112846990D01*
X104369505Y-112733702D01*
X104369510Y-112733700D01*
X104373179Y-112732247D01*
X104376648Y-112730340D01*
X104646307Y-112582093D01*
X104646310Y-112582091D01*
X104649779Y-112580184D01*
X104905140Y-112394654D01*
X105135233Y-112178582D01*
X105336432Y-111935375D01*
X105505562Y-111668869D01*
X105507246Y-111665290D01*
X105507250Y-111665283D01*
X105538863Y-111598102D01*
X106158141Y-111598102D01*
X106193732Y-111805228D01*
X106266472Y-112002399D01*
X106373926Y-112183012D01*
X106512494Y-112341019D01*
X106677537Y-112471128D01*
X106682653Y-112473819D01*
X106682655Y-112473821D01*
X106858410Y-112566290D01*
X106863527Y-112568982D01*
X107064234Y-112631304D01*
X107069969Y-112631983D01*
X107069970Y-112631983D01*
X107100532Y-112635600D01*
X107234874Y-112651500D01*
X107356316Y-112651500D01*
X107512279Y-112637169D01*
X107517841Y-112635600D01*
X107517843Y-112635600D01*
X107613414Y-112608646D01*
X107714549Y-112580123D01*
X107903037Y-112487171D01*
X108071429Y-112361427D01*
X108214086Y-112207101D01*
X108326231Y-112029362D01*
X108404108Y-111834163D01*
X108405233Y-111828506D01*
X108405235Y-111828500D01*
X108443981Y-111633707D01*
X108443981Y-111633705D01*
X108445108Y-111628040D01*
X108445426Y-111603800D01*
X108447783Y-111423680D01*
X108447859Y-111417898D01*
X108412268Y-111210772D01*
X108339528Y-111013601D01*
X108232074Y-110832988D01*
X108093506Y-110674981D01*
X107928463Y-110544872D01*
X107923347Y-110542181D01*
X107923345Y-110542179D01*
X107763347Y-110458000D01*
X163169540Y-110458000D01*
X163189359Y-110773020D01*
X163248505Y-111083072D01*
X163346044Y-111383266D01*
X163347731Y-111386852D01*
X163347733Y-111386856D01*
X163478750Y-111665283D01*
X163478754Y-111665290D01*
X163480438Y-111668869D01*
X163649568Y-111935375D01*
X163850767Y-112178582D01*
X164080860Y-112394654D01*
X164336221Y-112580184D01*
X164339690Y-112582091D01*
X164339693Y-112582093D01*
X164609352Y-112730340D01*
X164612821Y-112732247D01*
X164616490Y-112733700D01*
X164616495Y-112733702D01*
X164902628Y-112846990D01*
X164906298Y-112848443D01*
X165212025Y-112926940D01*
X165525179Y-112966500D01*
X165840821Y-112966500D01*
X166153975Y-112926940D01*
X166459702Y-112848443D01*
X166463372Y-112846990D01*
X166749505Y-112733702D01*
X166749510Y-112733700D01*
X166753179Y-112732247D01*
X166756648Y-112730340D01*
X167026307Y-112582093D01*
X167026310Y-112582091D01*
X167029779Y-112580184D01*
X167285140Y-112394654D01*
X167515233Y-112178582D01*
X167716432Y-111935375D01*
X167885562Y-111668869D01*
X167887246Y-111665290D01*
X167887250Y-111665283D01*
X168018267Y-111386856D01*
X168018269Y-111386852D01*
X168019956Y-111383266D01*
X168117495Y-111083072D01*
X168176641Y-110773020D01*
X168196460Y-110458000D01*
X168176641Y-110142980D01*
X168117495Y-109832928D01*
X168019956Y-109532734D01*
X168017525Y-109527567D01*
X167887250Y-109250717D01*
X167887246Y-109250710D01*
X167885562Y-109247131D01*
X167716432Y-108980625D01*
X167515233Y-108737418D01*
X167285140Y-108521346D01*
X167029779Y-108335816D01*
X166753179Y-108183753D01*
X166749510Y-108182300D01*
X166749505Y-108182298D01*
X166463372Y-108069010D01*
X166463371Y-108069010D01*
X166459702Y-108067557D01*
X166153975Y-107989060D01*
X165840821Y-107949500D01*
X165525179Y-107949500D01*
X165212025Y-107989060D01*
X164906298Y-108067557D01*
X164902629Y-108069010D01*
X164902628Y-108069010D01*
X164616495Y-108182298D01*
X164616490Y-108182300D01*
X164612821Y-108183753D01*
X164336221Y-108335816D01*
X164080860Y-108521346D01*
X163850767Y-108737418D01*
X163649568Y-108980625D01*
X163480438Y-109247131D01*
X163478754Y-109250710D01*
X163478750Y-109250717D01*
X163348475Y-109527567D01*
X163346044Y-109532734D01*
X163248505Y-109832928D01*
X163189359Y-110142980D01*
X163169540Y-110458000D01*
X107763347Y-110458000D01*
X107747590Y-110449710D01*
X107747588Y-110449709D01*
X107742473Y-110447018D01*
X107541766Y-110384696D01*
X107536031Y-110384017D01*
X107536030Y-110384017D01*
X107487742Y-110378302D01*
X107371126Y-110364500D01*
X107249684Y-110364500D01*
X107093721Y-110378831D01*
X107088159Y-110380400D01*
X107088157Y-110380400D01*
X106992586Y-110407354D01*
X106891451Y-110435877D01*
X106702963Y-110528829D01*
X106534571Y-110654573D01*
X106530657Y-110658807D01*
X106530655Y-110658809D01*
X106421477Y-110776918D01*
X106391914Y-110808899D01*
X106279769Y-110986638D01*
X106201892Y-111181837D01*
X106200767Y-111187494D01*
X106200765Y-111187500D01*
X106195003Y-111216469D01*
X106160892Y-111387960D01*
X106160816Y-111393735D01*
X106160816Y-111393739D01*
X106160500Y-111417898D01*
X106158141Y-111598102D01*
X105538863Y-111598102D01*
X105638267Y-111386856D01*
X105638269Y-111386852D01*
X105639956Y-111383266D01*
X105737495Y-111083072D01*
X105796641Y-110773020D01*
X105816460Y-110458000D01*
X105796641Y-110142980D01*
X105737495Y-109832928D01*
X105639956Y-109532734D01*
X105637525Y-109527567D01*
X105507250Y-109250717D01*
X105507246Y-109250710D01*
X105505562Y-109247131D01*
X105336432Y-108980625D01*
X105135233Y-108737418D01*
X104933632Y-108548102D01*
X160538141Y-108548102D01*
X160573732Y-108755228D01*
X160646472Y-108952399D01*
X160753926Y-109133012D01*
X160892494Y-109291019D01*
X161057537Y-109421128D01*
X161062653Y-109423819D01*
X161062655Y-109423821D01*
X161238410Y-109516290D01*
X161243527Y-109518982D01*
X161444234Y-109581304D01*
X161449969Y-109581983D01*
X161449970Y-109581983D01*
X161480532Y-109585600D01*
X161614874Y-109601500D01*
X161736316Y-109601500D01*
X161892279Y-109587169D01*
X161897841Y-109585600D01*
X161897843Y-109585600D01*
X161993414Y-109558646D01*
X162094549Y-109530123D01*
X162283037Y-109437171D01*
X162451429Y-109311427D01*
X162507549Y-109250717D01*
X162590167Y-109161341D01*
X162590169Y-109161338D01*
X162594086Y-109157101D01*
X162706231Y-108979362D01*
X162784108Y-108784163D01*
X162785233Y-108778506D01*
X162785235Y-108778500D01*
X162823981Y-108583707D01*
X162823981Y-108583705D01*
X162825108Y-108578040D01*
X162825426Y-108553800D01*
X162827783Y-108373680D01*
X162827859Y-108367898D01*
X162792268Y-108160772D01*
X162719528Y-107963601D01*
X162716576Y-107958639D01*
X162615028Y-107787953D01*
X162615027Y-107787952D01*
X162612074Y-107782988D01*
X162473506Y-107624981D01*
X162308463Y-107494872D01*
X162303347Y-107492181D01*
X162303345Y-107492179D01*
X162127590Y-107399710D01*
X162127588Y-107399709D01*
X162122473Y-107397018D01*
X161921766Y-107334696D01*
X161916031Y-107334017D01*
X161916030Y-107334017D01*
X161867742Y-107328302D01*
X161751126Y-107314500D01*
X161629684Y-107314500D01*
X161473721Y-107328831D01*
X161468159Y-107330400D01*
X161468157Y-107330400D01*
X161372586Y-107357354D01*
X161271451Y-107385877D01*
X161082963Y-107478829D01*
X160914571Y-107604573D01*
X160771914Y-107758899D01*
X160659769Y-107936638D01*
X160581892Y-108131837D01*
X160580767Y-108137494D01*
X160580765Y-108137500D01*
X160571565Y-108183753D01*
X160540892Y-108337960D01*
X160540816Y-108343735D01*
X160540816Y-108343739D01*
X160540500Y-108367898D01*
X160538141Y-108548102D01*
X104933632Y-108548102D01*
X104905140Y-108521346D01*
X104649779Y-108335816D01*
X104373179Y-108183753D01*
X104369510Y-108182300D01*
X104369505Y-108182298D01*
X104083372Y-108069010D01*
X104083371Y-108069010D01*
X104079702Y-108067557D01*
X103773975Y-107989060D01*
X103460821Y-107949500D01*
X103145179Y-107949500D01*
X102832025Y-107989060D01*
X102526298Y-108067557D01*
X102522629Y-108069010D01*
X102522628Y-108069010D01*
X102236495Y-108182298D01*
X102236490Y-108182300D01*
X102232821Y-108183753D01*
X101956221Y-108335816D01*
X101700860Y-108521346D01*
X101470767Y-108737418D01*
X101269568Y-108980625D01*
X101100438Y-109247131D01*
X101098754Y-109250710D01*
X101098750Y-109250717D01*
X100968475Y-109527567D01*
X100966044Y-109532734D01*
X100868505Y-109832928D01*
X100809359Y-110142980D01*
X100789540Y-110458000D01*
X100508500Y-110458000D01*
X100508500Y-104110000D01*
X107595496Y-104110000D01*
X107615458Y-104299928D01*
X107674473Y-104481556D01*
X107769960Y-104646944D01*
X107897747Y-104788866D01*
X108052248Y-104901118D01*
X108058276Y-104903802D01*
X108058278Y-104903803D01*
X108220681Y-104976109D01*
X108226712Y-104978794D01*
X108320113Y-104998647D01*
X108407056Y-105017128D01*
X108407061Y-105017128D01*
X108413513Y-105018500D01*
X108604487Y-105018500D01*
X108610939Y-105017128D01*
X108610944Y-105017128D01*
X108697887Y-104998647D01*
X108791288Y-104978794D01*
X108797319Y-104976109D01*
X108959722Y-104903803D01*
X108959724Y-104903802D01*
X108965752Y-104901118D01*
X109120253Y-104788866D01*
X109248040Y-104646944D01*
X109343527Y-104481556D01*
X109402542Y-104299928D01*
X109422504Y-104110000D01*
X109402542Y-103920072D01*
X109343527Y-103738444D01*
X109248040Y-103573056D01*
X109120253Y-103431134D01*
X108965752Y-103318882D01*
X108959724Y-103316198D01*
X108959722Y-103316197D01*
X108797319Y-103243891D01*
X108797318Y-103243891D01*
X108791288Y-103241206D01*
X108697887Y-103221353D01*
X108610944Y-103202872D01*
X108610939Y-103202872D01*
X108604487Y-103201500D01*
X108413513Y-103201500D01*
X108407061Y-103202872D01*
X108407056Y-103202872D01*
X108320112Y-103221353D01*
X108226712Y-103241206D01*
X108220682Y-103243891D01*
X108220681Y-103243891D01*
X108058278Y-103316197D01*
X108058276Y-103316198D01*
X108052248Y-103318882D01*
X107897747Y-103431134D01*
X107769960Y-103573056D01*
X107674473Y-103738444D01*
X107615458Y-103920072D01*
X107595496Y-104110000D01*
X100508500Y-104110000D01*
X100508500Y-100634500D01*
X100528502Y-100566379D01*
X100582158Y-100519886D01*
X100634500Y-100508500D01*
X168365500Y-100508500D01*
X168433621Y-100528502D01*
G37*
G04 #@! TD.AperFunction*
M02*
