G04 #@! TF.GenerationSoftware,KiCad,Pcbnew,(6.0.4-0)*
G04 #@! TF.CreationDate,2022-11-09T17:11:16+01:00*
G04 #@! TF.ProjectId,adapter_hybrid_assistor_hpc_2HDMI,61646170-7465-4725-9f68-79627269645f,rev?*
G04 #@! TF.SameCoordinates,Original*
G04 #@! TF.FileFunction,Paste,Bot*
G04 #@! TF.FilePolarity,Positive*
%FSLAX46Y46*%
G04 Gerber Fmt 4.6, Leading zero omitted, Abs format (unit mm)*
G04 Created by KiCad (PCBNEW (6.0.4-0)) date 2022-11-09 17:11:16*
%MOMM*%
%LPD*%
G01*
G04 APERTURE LIST*
G04 Aperture macros list*
%AMRoundRect*
0 Rectangle with rounded corners*
0 $1 Rounding radius*
0 $2 $3 $4 $5 $6 $7 $8 $9 X,Y pos of 4 corners*
0 Add a 4 corners polygon primitive as box body*
4,1,4,$2,$3,$4,$5,$6,$7,$8,$9,$2,$3,0*
0 Add four circle primitives for the rounded corners*
1,1,$1+$1,$2,$3*
1,1,$1+$1,$4,$5*
1,1,$1+$1,$6,$7*
1,1,$1+$1,$8,$9*
0 Add four rect primitives between the rounded corners*
20,1,$1+$1,$2,$3,$4,$5,0*
20,1,$1+$1,$4,$5,$6,$7,0*
20,1,$1+$1,$6,$7,$8,$9,0*
20,1,$1+$1,$8,$9,$2,$3,0*%
G04 Aperture macros list end*
G04 #@! TA.AperFunction,Profile*
%ADD10C,0.100000*%
G04 #@! TD*
G04 #@! TA.AperFunction,Profile*
%ADD11C,0.050000*%
G04 #@! TD*
%ADD12R,1.000000X0.950000*%
%ADD13RoundRect,0.218750X-0.256250X0.218750X-0.256250X-0.218750X0.256250X-0.218750X0.256250X0.218750X0*%
%ADD14RoundRect,0.218750X0.256250X-0.218750X0.256250X0.218750X-0.256250X0.218750X-0.256250X-0.218750X0*%
%ADD15R,1.528000X0.650000*%
%ADD16R,0.300000X0.850000*%
%ADD17R,0.850000X0.300000*%
%ADD18R,2.400000X2.400000*%
G04 APERTURE END LIST*
D10*
X100000000Y-100000000D02*
X100000000Y-176500000D01*
X100000000Y-176500000D02*
X169000000Y-176500000D01*
X169000000Y-100000000D02*
X169000000Y-176500000D01*
X100000000Y-100000000D02*
X169000000Y-100000000D01*
D11*
X168050000Y-173800000D02*
G75*
G03*
X168050000Y-173800000I-1350000J0D01*
G01*
X103350000Y-173800000D02*
G75*
G03*
X103350000Y-173800000I-1350000J0D01*
G01*
X104500000Y-110450000D02*
G75*
G03*
X104500000Y-110450000I-1350000J0D01*
G01*
X167200000Y-110450000D02*
G75*
G03*
X167200000Y-110450000I-1350000J0D01*
G01*
X101666666Y-176500000D02*
G75*
G03*
X101666666Y-176500000I-1666666J0D01*
G01*
X97500000Y-176500000D02*
X102500000Y-176500000D01*
X100000000Y-174000000D02*
X100000000Y-179000000D01*
X101666666Y-176500000D02*
G75*
G03*
X101666666Y-176500000I-1666666J0D01*
G01*
X97500000Y-176500000D02*
X102500000Y-176500000D01*
X100000000Y-174000000D02*
X100000000Y-179000000D01*
X101666666Y-176500000D02*
G75*
G03*
X101666666Y-176500000I-1666666J0D01*
G01*
X97500000Y-176500000D02*
X102500000Y-176500000D01*
X100000000Y-174000000D02*
X100000000Y-179000000D01*
D12*
X147193000Y-150749000D03*
X147193000Y-152349000D03*
X118110000Y-150711000D03*
X118110000Y-152311000D03*
X157353000Y-122936000D03*
X157353000Y-124536000D03*
D13*
X147193000Y-141554000D03*
X147193000Y-143129000D03*
D14*
X135382000Y-146837500D03*
X135382000Y-145262500D03*
D13*
X106400500Y-141554000D03*
X106400500Y-143129000D03*
X118135500Y-141554000D03*
X118135500Y-143129000D03*
D14*
X106426000Y-146837500D03*
X106426000Y-145262500D03*
X118110000Y-146837500D03*
X118110000Y-145262500D03*
D15*
X138557000Y-145669000D03*
X138557000Y-144399000D03*
X138557000Y-143129000D03*
X138557000Y-141859000D03*
X143979000Y-141859000D03*
X143979000Y-143129000D03*
X143979000Y-144399000D03*
X143979000Y-145669000D03*
D16*
X152769000Y-125648000D03*
X152269000Y-125648000D03*
X151769000Y-125648000D03*
X151269000Y-125648000D03*
D17*
X150069000Y-124448000D03*
X150069000Y-123948000D03*
X150069000Y-123448000D03*
X150069000Y-122948000D03*
D16*
X151269000Y-121748000D03*
X151769000Y-121748000D03*
X152269000Y-121748000D03*
X152769000Y-121748000D03*
D17*
X153969000Y-122948000D03*
X153969000Y-123448000D03*
X153969000Y-123948000D03*
X153969000Y-124448000D03*
D18*
X152019000Y-123698000D03*
D16*
X130798000Y-125521000D03*
X130298000Y-125521000D03*
X129798000Y-125521000D03*
X129298000Y-125521000D03*
D17*
X128098000Y-124321000D03*
X128098000Y-123821000D03*
X128098000Y-123321000D03*
X128098000Y-122821000D03*
D16*
X129298000Y-121621000D03*
X129798000Y-121621000D03*
X130298000Y-121621000D03*
X130798000Y-121621000D03*
D17*
X131998000Y-122821000D03*
X131998000Y-123321000D03*
X131998000Y-123821000D03*
X131998000Y-124321000D03*
D18*
X130048000Y-123571000D03*
D15*
X109513000Y-145669000D03*
X109513000Y-144399000D03*
X109513000Y-143129000D03*
X109513000Y-141859000D03*
X114935000Y-141859000D03*
X114935000Y-143129000D03*
X114935000Y-144399000D03*
X114935000Y-145669000D03*
D13*
X135382000Y-141554000D03*
X135382000Y-143129000D03*
D12*
X135509000Y-122936000D03*
X135509000Y-124536000D03*
D14*
X147193000Y-146837500D03*
X147193000Y-145262500D03*
M02*
