G04 #@! TF.GenerationSoftware,KiCad,Pcbnew,(6.0.4-0)*
G04 #@! TF.CreationDate,2022-11-09T17:11:16+01:00*
G04 #@! TF.ProjectId,adapter_hybrid_assistor_hpc_2HDMI,61646170-7465-4725-9f68-79627269645f,rev?*
G04 #@! TF.SameCoordinates,Original*
G04 #@! TF.FileFunction,AssemblyDrawing,Top*
%FSLAX46Y46*%
G04 Gerber Fmt 4.6, Leading zero omitted, Abs format (unit mm)*
G04 Created by KiCad (PCBNEW (6.0.4-0)) date 2022-11-09 17:11:16*
%MOMM*%
%LPD*%
G01*
G04 APERTURE LIST*
G04 #@! TA.AperFunction,Profile*
%ADD10C,0.100000*%
G04 #@! TD*
G04 #@! TA.AperFunction,Profile*
%ADD11C,0.050000*%
G04 #@! TD*
%ADD12C,0.060000*%
%ADD13C,0.150000*%
%ADD14C,0.254000*%
%ADD15C,0.100000*%
%ADD16C,0.200000*%
G04 APERTURE END LIST*
D10*
X100000000Y-100000000D02*
X100000000Y-176500000D01*
X100000000Y-176500000D02*
X169000000Y-176500000D01*
X169000000Y-100000000D02*
X169000000Y-176500000D01*
X100000000Y-100000000D02*
X169000000Y-100000000D01*
D11*
X168050000Y-173800000D02*
G75*
G03*
X168050000Y-173800000I-1350000J0D01*
G01*
X103350000Y-173800000D02*
G75*
G03*
X103350000Y-173800000I-1350000J0D01*
G01*
X104500000Y-110450000D02*
G75*
G03*
X104500000Y-110450000I-1350000J0D01*
G01*
X167200000Y-110450000D02*
G75*
G03*
X167200000Y-110450000I-1350000J0D01*
G01*
X101666666Y-176500000D02*
G75*
G03*
X101666666Y-176500000I-1666666J0D01*
G01*
X97500000Y-176500000D02*
X102500000Y-176500000D01*
X100000000Y-174000000D02*
X100000000Y-179000000D01*
X101666666Y-176500000D02*
G75*
G03*
X101666666Y-176500000I-1666666J0D01*
G01*
X97500000Y-176500000D02*
X102500000Y-176500000D01*
X100000000Y-174000000D02*
X100000000Y-179000000D01*
X101666666Y-176500000D02*
G75*
G03*
X101666666Y-176500000I-1666666J0D01*
G01*
X97500000Y-176500000D02*
X102500000Y-176500000D01*
X100000000Y-174000000D02*
X100000000Y-179000000D01*
D12*
X117109857Y-134216666D02*
X117128904Y-134235714D01*
X117147952Y-134292857D01*
X117147952Y-134330952D01*
X117128904Y-134388095D01*
X117090809Y-134426190D01*
X117052714Y-134445238D01*
X116976523Y-134464285D01*
X116919380Y-134464285D01*
X116843190Y-134445238D01*
X116805095Y-134426190D01*
X116767000Y-134388095D01*
X116747952Y-134330952D01*
X116747952Y-134292857D01*
X116767000Y-134235714D01*
X116786047Y-134216666D01*
X116919380Y-133988095D02*
X116900333Y-134026190D01*
X116881285Y-134045238D01*
X116843190Y-134064285D01*
X116824142Y-134064285D01*
X116786047Y-134045238D01*
X116767000Y-134026190D01*
X116747952Y-133988095D01*
X116747952Y-133911904D01*
X116767000Y-133873809D01*
X116786047Y-133854761D01*
X116824142Y-133835714D01*
X116843190Y-133835714D01*
X116881285Y-133854761D01*
X116900333Y-133873809D01*
X116919380Y-133911904D01*
X116919380Y-133988095D01*
X116938428Y-134026190D01*
X116957476Y-134045238D01*
X116995571Y-134064285D01*
X117071761Y-134064285D01*
X117109857Y-134045238D01*
X117128904Y-134026190D01*
X117147952Y-133988095D01*
X117147952Y-133911904D01*
X117128904Y-133873809D01*
X117109857Y-133854761D01*
X117071761Y-133835714D01*
X116995571Y-133835714D01*
X116957476Y-133854761D01*
X116938428Y-133873809D01*
X116919380Y-133911904D01*
D13*
X128231095Y-117624666D02*
X128707285Y-117624666D01*
X128135857Y-117910380D02*
X128469190Y-116910380D01*
X128802523Y-117910380D01*
X129088238Y-117862761D02*
X129231095Y-117910380D01*
X129469190Y-117910380D01*
X129564428Y-117862761D01*
X129612047Y-117815142D01*
X129659666Y-117719904D01*
X129659666Y-117624666D01*
X129612047Y-117529428D01*
X129564428Y-117481809D01*
X129469190Y-117434190D01*
X129278714Y-117386571D01*
X129183476Y-117338952D01*
X129135857Y-117291333D01*
X129088238Y-117196095D01*
X129088238Y-117100857D01*
X129135857Y-117005619D01*
X129183476Y-116958000D01*
X129278714Y-116910380D01*
X129516809Y-116910380D01*
X129659666Y-116958000D01*
X130088238Y-117910380D02*
X130088238Y-116910380D01*
X130469190Y-116910380D01*
X130564428Y-116958000D01*
X130612047Y-117005619D01*
X130659666Y-117100857D01*
X130659666Y-117243714D01*
X130612047Y-117338952D01*
X130564428Y-117386571D01*
X130469190Y-117434190D01*
X130088238Y-117434190D01*
X131088238Y-117529428D02*
X131850142Y-117529428D01*
X132850142Y-117910380D02*
X132278714Y-117910380D01*
X132564428Y-117910380D02*
X132564428Y-116910380D01*
X132469190Y-117053238D01*
X132373952Y-117148476D01*
X132278714Y-117196095D01*
X133183476Y-116910380D02*
X133802523Y-116910380D01*
X133469190Y-117291333D01*
X133612047Y-117291333D01*
X133707285Y-117338952D01*
X133754904Y-117386571D01*
X133802523Y-117481809D01*
X133802523Y-117719904D01*
X133754904Y-117815142D01*
X133707285Y-117862761D01*
X133612047Y-117910380D01*
X133326333Y-117910380D01*
X133231095Y-117862761D01*
X133183476Y-117815142D01*
X134659666Y-117243714D02*
X134659666Y-117910380D01*
X134421571Y-116862761D02*
X134183476Y-117577047D01*
X134802523Y-117577047D01*
X135612047Y-116910380D02*
X135421571Y-116910380D01*
X135326333Y-116958000D01*
X135278714Y-117005619D01*
X135183476Y-117148476D01*
X135135857Y-117338952D01*
X135135857Y-117719904D01*
X135183476Y-117815142D01*
X135231095Y-117862761D01*
X135326333Y-117910380D01*
X135516809Y-117910380D01*
X135612047Y-117862761D01*
X135659666Y-117815142D01*
X135707285Y-117719904D01*
X135707285Y-117481809D01*
X135659666Y-117386571D01*
X135612047Y-117338952D01*
X135516809Y-117291333D01*
X135326333Y-117291333D01*
X135231095Y-117338952D01*
X135183476Y-117386571D01*
X135135857Y-117481809D01*
X136326333Y-116910380D02*
X136421571Y-116910380D01*
X136516809Y-116958000D01*
X136564428Y-117005619D01*
X136612047Y-117100857D01*
X136659666Y-117291333D01*
X136659666Y-117529428D01*
X136612047Y-117719904D01*
X136564428Y-117815142D01*
X136516809Y-117862761D01*
X136421571Y-117910380D01*
X136326333Y-117910380D01*
X136231095Y-117862761D01*
X136183476Y-117815142D01*
X136135857Y-117719904D01*
X136088238Y-117529428D01*
X136088238Y-117291333D01*
X136135857Y-117100857D01*
X136183476Y-117005619D01*
X136231095Y-116958000D01*
X136326333Y-116910380D01*
X137516809Y-117243714D02*
X137516809Y-117910380D01*
X137278714Y-116862761D02*
X137040619Y-117577047D01*
X137659666Y-117577047D01*
X138040619Y-117529428D02*
X138802523Y-117529428D01*
X139469190Y-116910380D02*
X139564428Y-116910380D01*
X139659666Y-116958000D01*
X139707285Y-117005619D01*
X139754904Y-117100857D01*
X139802523Y-117291333D01*
X139802523Y-117529428D01*
X139754904Y-117719904D01*
X139707285Y-117815142D01*
X139659666Y-117862761D01*
X139564428Y-117910380D01*
X139469190Y-117910380D01*
X139373952Y-117862761D01*
X139326333Y-117815142D01*
X139278714Y-117719904D01*
X139231095Y-117529428D01*
X139231095Y-117291333D01*
X139278714Y-117100857D01*
X139326333Y-117005619D01*
X139373952Y-116958000D01*
X139469190Y-116910380D01*
X140754904Y-117910380D02*
X140183476Y-117910380D01*
X140469190Y-117910380D02*
X140469190Y-116910380D01*
X140373952Y-117053238D01*
X140278714Y-117148476D01*
X140183476Y-117196095D01*
X134159666Y-101660380D02*
X134159666Y-102374666D01*
X134112047Y-102517523D01*
X134016809Y-102612761D01*
X133873952Y-102660380D01*
X133778714Y-102660380D01*
X135159666Y-102660380D02*
X134588238Y-102660380D01*
X134873952Y-102660380D02*
X134873952Y-101660380D01*
X134778714Y-101803238D01*
X134683476Y-101898476D01*
X134588238Y-101946095D01*
D14*
X148293666Y-169230523D02*
X148293666Y-170137666D01*
X148233190Y-170319095D01*
X148112238Y-170440047D01*
X147930809Y-170500523D01*
X147809857Y-170500523D01*
X148837952Y-169351476D02*
X148898428Y-169291000D01*
X149019380Y-169230523D01*
X149321761Y-169230523D01*
X149442714Y-169291000D01*
X149503190Y-169351476D01*
X149563666Y-169472428D01*
X149563666Y-169593380D01*
X149503190Y-169774809D01*
X148777476Y-170500523D01*
X149563666Y-170500523D01*
X121877666Y-169230523D02*
X121877666Y-170137666D01*
X121817190Y-170319095D01*
X121696238Y-170440047D01*
X121514809Y-170500523D01*
X121393857Y-170500523D01*
X122361476Y-169230523D02*
X123147666Y-169230523D01*
X122724333Y-169714333D01*
X122905761Y-169714333D01*
X123026714Y-169774809D01*
X123087190Y-169835285D01*
X123147666Y-169956238D01*
X123147666Y-170258619D01*
X123087190Y-170379571D01*
X123026714Y-170440047D01*
X122905761Y-170500523D01*
X122542904Y-170500523D01*
X122421952Y-170440047D01*
X122361476Y-170379571D01*
X121859523Y-134698619D02*
X122887619Y-134698619D01*
X123008571Y-134638142D01*
X123069047Y-134577666D01*
X123129523Y-134456714D01*
X123129523Y-134214809D01*
X123069047Y-134093857D01*
X123008571Y-134033380D01*
X122887619Y-133972904D01*
X121859523Y-133972904D01*
X122403809Y-133186714D02*
X122343333Y-133307666D01*
X122282857Y-133368142D01*
X122161904Y-133428619D01*
X122101428Y-133428619D01*
X121980476Y-133368142D01*
X121920000Y-133307666D01*
X121859523Y-133186714D01*
X121859523Y-132944809D01*
X121920000Y-132823857D01*
X121980476Y-132763380D01*
X122101428Y-132702904D01*
X122161904Y-132702904D01*
X122282857Y-132763380D01*
X122343333Y-132823857D01*
X122403809Y-132944809D01*
X122403809Y-133186714D01*
X122464285Y-133307666D01*
X122524761Y-133368142D01*
X122645714Y-133428619D01*
X122887619Y-133428619D01*
X123008571Y-133368142D01*
X123069047Y-133307666D01*
X123129523Y-133186714D01*
X123129523Y-132944809D01*
X123069047Y-132823857D01*
X123008571Y-132763380D01*
X122887619Y-132702904D01*
X122645714Y-132702904D01*
X122524761Y-132763380D01*
X122464285Y-132823857D01*
X122403809Y-132944809D01*
X140655523Y-134698619D02*
X141683619Y-134698619D01*
X141804571Y-134638142D01*
X141865047Y-134577666D01*
X141925523Y-134456714D01*
X141925523Y-134214809D01*
X141865047Y-134093857D01*
X141804571Y-134033380D01*
X141683619Y-133972904D01*
X140655523Y-133972904D01*
X140655523Y-132823857D02*
X140655523Y-133065761D01*
X140716000Y-133186714D01*
X140776476Y-133247190D01*
X140957904Y-133368142D01*
X141199809Y-133428619D01*
X141683619Y-133428619D01*
X141804571Y-133368142D01*
X141865047Y-133307666D01*
X141925523Y-133186714D01*
X141925523Y-132944809D01*
X141865047Y-132823857D01*
X141804571Y-132763380D01*
X141683619Y-132702904D01*
X141381238Y-132702904D01*
X141260285Y-132763380D01*
X141199809Y-132823857D01*
X141139333Y-132944809D01*
X141139333Y-133186714D01*
X141199809Y-133307666D01*
X141260285Y-133368142D01*
X141381238Y-133428619D01*
D12*
X135651857Y-134089666D02*
X135670904Y-134108714D01*
X135689952Y-134165857D01*
X135689952Y-134203952D01*
X135670904Y-134261095D01*
X135632809Y-134299190D01*
X135594714Y-134318238D01*
X135518523Y-134337285D01*
X135461380Y-134337285D01*
X135385190Y-134318238D01*
X135347095Y-134299190D01*
X135309000Y-134261095D01*
X135289952Y-134203952D01*
X135289952Y-134165857D01*
X135309000Y-134108714D01*
X135328047Y-134089666D01*
X135289952Y-133746809D02*
X135289952Y-133823000D01*
X135309000Y-133861095D01*
X135328047Y-133880142D01*
X135385190Y-133918238D01*
X135461380Y-133937285D01*
X135613761Y-133937285D01*
X135651857Y-133918238D01*
X135670904Y-133899190D01*
X135689952Y-133861095D01*
X135689952Y-133784904D01*
X135670904Y-133746809D01*
X135651857Y-133727761D01*
X135613761Y-133708714D01*
X135518523Y-133708714D01*
X135480428Y-133727761D01*
X135461380Y-133746809D01*
X135442333Y-133784904D01*
X135442333Y-133861095D01*
X135461380Y-133899190D01*
X135480428Y-133918238D01*
X135518523Y-133937285D01*
D15*
X117367000Y-133350000D02*
X116567000Y-133350000D01*
X117367000Y-134950000D02*
X117367000Y-133350000D01*
X116567000Y-133350000D02*
X116567000Y-134950000D01*
X116567000Y-134950000D02*
X117367000Y-134950000D01*
X162993000Y-102618000D02*
X162993000Y-115798000D01*
X105993000Y-101118000D02*
X161493000Y-101118000D01*
X162993000Y-102618000D02*
X161493000Y-101118000D01*
X105993000Y-101118000D02*
X105993000Y-115798000D01*
X162993000Y-115798000D02*
X105993000Y-115798000D01*
D16*
X155966000Y-175526000D02*
X140966000Y-175526000D01*
X140966000Y-175526000D02*
X140966000Y-166526000D01*
X155966000Y-166526000D02*
X155966000Y-175526000D01*
X140966000Y-166526000D02*
X155966000Y-166526000D01*
X114550000Y-175526000D02*
X114550000Y-166526000D01*
X129550000Y-175526000D02*
X114550000Y-175526000D01*
X129550000Y-166526000D02*
X129550000Y-175526000D01*
X114550000Y-166526000D02*
X129550000Y-166526000D01*
D15*
X120555000Y-135731000D02*
X120555000Y-131731000D01*
X124555000Y-131731000D02*
X124555000Y-135731000D01*
X124555000Y-135731000D02*
X120555000Y-135731000D01*
X120555000Y-131731000D02*
X124555000Y-131731000D01*
X124055000Y-131731000D02*
X124555000Y-132231000D01*
X139351000Y-131731000D02*
X143351000Y-131731000D01*
X143351000Y-135731000D02*
X139351000Y-135731000D01*
X139351000Y-135731000D02*
X139351000Y-131731000D01*
X142851000Y-131731000D02*
X143351000Y-132231000D01*
X143351000Y-131731000D02*
X143351000Y-135731000D01*
X135109000Y-134823000D02*
X135909000Y-134823000D01*
X135909000Y-134823000D02*
X135909000Y-133223000D01*
X135109000Y-133223000D02*
X135109000Y-134823000D01*
X135909000Y-133223000D02*
X135109000Y-133223000D01*
M02*
