G04 #@! TF.GenerationSoftware,KiCad,Pcbnew,(6.0.4-0)*
G04 #@! TF.CreationDate,2022-11-09T17:11:17+01:00*
G04 #@! TF.ProjectId,adapter_hybrid_assistor_hpc_2HDMI,61646170-7465-4725-9f68-79627269645f,rev?*
G04 #@! TF.SameCoordinates,Original*
G04 #@! TF.FileFunction,AssemblyDrawing,Bot*
%FSLAX46Y46*%
G04 Gerber Fmt 4.6, Leading zero omitted, Abs format (unit mm)*
G04 Created by KiCad (PCBNEW (6.0.4-0)) date 2022-11-09 17:11:17*
%MOMM*%
%LPD*%
G01*
G04 APERTURE LIST*
G04 #@! TA.AperFunction,Profile*
%ADD10C,0.100000*%
G04 #@! TD*
G04 #@! TA.AperFunction,Profile*
%ADD11C,0.050000*%
G04 #@! TD*
%ADD12C,0.060000*%
%ADD13C,0.150000*%
%ADD14C,0.254000*%
%ADD15C,0.100000*%
G04 APERTURE END LIST*
D10*
X100000000Y-100000000D02*
X100000000Y-176500000D01*
X100000000Y-176500000D02*
X169000000Y-176500000D01*
X169000000Y-100000000D02*
X169000000Y-176500000D01*
X100000000Y-100000000D02*
X169000000Y-100000000D01*
D11*
X168050000Y-173800000D02*
G75*
G03*
X168050000Y-173800000I-1350000J0D01*
G01*
X103350000Y-173800000D02*
G75*
G03*
X103350000Y-173800000I-1350000J0D01*
G01*
X104500000Y-110450000D02*
G75*
G03*
X104500000Y-110450000I-1350000J0D01*
G01*
X167200000Y-110450000D02*
G75*
G03*
X167200000Y-110450000I-1350000J0D01*
G01*
X101666666Y-176500000D02*
G75*
G03*
X101666666Y-176500000I-1666666J0D01*
G01*
X97500000Y-176500000D02*
X102500000Y-176500000D01*
X100000000Y-174000000D02*
X100000000Y-179000000D01*
X101666666Y-176500000D02*
G75*
G03*
X101666666Y-176500000I-1666666J0D01*
G01*
X97500000Y-176500000D02*
X102500000Y-176500000D01*
X100000000Y-174000000D02*
X100000000Y-179000000D01*
X101666666Y-176500000D02*
G75*
G03*
X101666666Y-176500000I-1666666J0D01*
G01*
X97500000Y-176500000D02*
X102500000Y-176500000D01*
X100000000Y-174000000D02*
X100000000Y-179000000D01*
D12*
X147335857Y-151482333D02*
X147354904Y-151463285D01*
X147373952Y-151406142D01*
X147373952Y-151368047D01*
X147354904Y-151310904D01*
X147316809Y-151272809D01*
X147278714Y-151253761D01*
X147202523Y-151234714D01*
X147145380Y-151234714D01*
X147069190Y-151253761D01*
X147031095Y-151272809D01*
X146993000Y-151310904D01*
X146973952Y-151368047D01*
X146973952Y-151406142D01*
X146993000Y-151463285D01*
X147012047Y-151482333D01*
X147107285Y-151825190D02*
X147373952Y-151825190D01*
X146954904Y-151729952D02*
X147240619Y-151634714D01*
X147240619Y-151882333D01*
X118252857Y-151444333D02*
X118271904Y-151425285D01*
X118290952Y-151368142D01*
X118290952Y-151330047D01*
X118271904Y-151272904D01*
X118233809Y-151234809D01*
X118195714Y-151215761D01*
X118119523Y-151196714D01*
X118062380Y-151196714D01*
X117986190Y-151215761D01*
X117948095Y-151234809D01*
X117910000Y-151272904D01*
X117890952Y-151330047D01*
X117890952Y-151368142D01*
X117910000Y-151425285D01*
X117929047Y-151444333D01*
X117890952Y-151806238D02*
X117890952Y-151615761D01*
X118081428Y-151596714D01*
X118062380Y-151615761D01*
X118043333Y-151653857D01*
X118043333Y-151749095D01*
X118062380Y-151787190D01*
X118081428Y-151806238D01*
X118119523Y-151825285D01*
X118214761Y-151825285D01*
X118252857Y-151806238D01*
X118271904Y-151787190D01*
X118290952Y-151749095D01*
X118290952Y-151653857D01*
X118271904Y-151615761D01*
X118252857Y-151596714D01*
X157495857Y-123669333D02*
X157514904Y-123650285D01*
X157533952Y-123593142D01*
X157533952Y-123555047D01*
X157514904Y-123497904D01*
X157476809Y-123459809D01*
X157438714Y-123440761D01*
X157362523Y-123421714D01*
X157305380Y-123421714D01*
X157229190Y-123440761D01*
X157191095Y-123459809D01*
X157153000Y-123497904D01*
X157133952Y-123555047D01*
X157133952Y-123593142D01*
X157153000Y-123650285D01*
X157172047Y-123669333D01*
X157133952Y-123802666D02*
X157133952Y-124069333D01*
X157533952Y-123897904D01*
D13*
X148408714Y-141412928D02*
X149075380Y-141412928D01*
X148027761Y-141174833D02*
X148742047Y-140936738D01*
X148742047Y-141555785D01*
X148980142Y-141936738D02*
X149027761Y-141984357D01*
X149075380Y-141936738D01*
X149027761Y-141889119D01*
X148980142Y-141936738D01*
X149075380Y-141936738D01*
X148075380Y-142317690D02*
X148075380Y-142984357D01*
X149075380Y-142555785D01*
X149075380Y-143365309D02*
X148075380Y-143365309D01*
X148694428Y-143460547D02*
X149075380Y-143746261D01*
X148408714Y-143746261D02*
X148789666Y-143365309D01*
D12*
X147373952Y-142084357D02*
X147183476Y-141951023D01*
X147373952Y-141855785D02*
X146973952Y-141855785D01*
X146973952Y-142008166D01*
X146993000Y-142046261D01*
X147012047Y-142065309D01*
X147050142Y-142084357D01*
X147107285Y-142084357D01*
X147145380Y-142065309D01*
X147164428Y-142046261D01*
X147183476Y-142008166D01*
X147183476Y-141855785D01*
X147107285Y-142427214D02*
X147373952Y-142427214D01*
X146954904Y-142331976D02*
X147240619Y-142236738D01*
X147240619Y-142484357D01*
X147012047Y-142617690D02*
X146993000Y-142636738D01*
X146973952Y-142674833D01*
X146973952Y-142770071D01*
X146993000Y-142808166D01*
X147012047Y-142827214D01*
X147050142Y-142846261D01*
X147088238Y-142846261D01*
X147145380Y-142827214D01*
X147373952Y-142598642D01*
X147373952Y-142846261D01*
D13*
X133404380Y-144764285D02*
X133404380Y-145383333D01*
X133785333Y-145050000D01*
X133785333Y-145192857D01*
X133832952Y-145288095D01*
X133880571Y-145335714D01*
X133975809Y-145383333D01*
X134213904Y-145383333D01*
X134309142Y-145335714D01*
X134356761Y-145288095D01*
X134404380Y-145192857D01*
X134404380Y-144907142D01*
X134356761Y-144811904D01*
X134309142Y-144764285D01*
X133404380Y-145716666D02*
X133404380Y-146335714D01*
X133785333Y-146002380D01*
X133785333Y-146145238D01*
X133832952Y-146240476D01*
X133880571Y-146288095D01*
X133975809Y-146335714D01*
X134213904Y-146335714D01*
X134309142Y-146288095D01*
X134356761Y-146240476D01*
X134404380Y-146145238D01*
X134404380Y-145859523D01*
X134356761Y-145764285D01*
X134309142Y-145716666D01*
X133404380Y-146954761D02*
X133404380Y-147050000D01*
X133452000Y-147145238D01*
X133499619Y-147192857D01*
X133594857Y-147240476D01*
X133785333Y-147288095D01*
X134023428Y-147288095D01*
X134213904Y-147240476D01*
X134309142Y-147192857D01*
X134356761Y-147145238D01*
X134404380Y-147050000D01*
X134404380Y-146954761D01*
X134356761Y-146859523D01*
X134309142Y-146811904D01*
X134213904Y-146764285D01*
X134023428Y-146716666D01*
X133785333Y-146716666D01*
X133594857Y-146764285D01*
X133499619Y-146811904D01*
X133452000Y-146859523D01*
X133404380Y-146954761D01*
D12*
X135562952Y-145792857D02*
X135372476Y-145659523D01*
X135562952Y-145564285D02*
X135162952Y-145564285D01*
X135162952Y-145716666D01*
X135182000Y-145754761D01*
X135201047Y-145773809D01*
X135239142Y-145792857D01*
X135296285Y-145792857D01*
X135334380Y-145773809D01*
X135353428Y-145754761D01*
X135372476Y-145716666D01*
X135372476Y-145564285D01*
X135296285Y-146135714D02*
X135562952Y-146135714D01*
X135143904Y-146040476D02*
X135429619Y-145945238D01*
X135429619Y-146192857D01*
X135162952Y-146307142D02*
X135162952Y-146554761D01*
X135315333Y-146421428D01*
X135315333Y-146478571D01*
X135334380Y-146516666D01*
X135353428Y-146535714D01*
X135391523Y-146554761D01*
X135486761Y-146554761D01*
X135524857Y-146535714D01*
X135543904Y-146516666D01*
X135562952Y-146478571D01*
X135562952Y-146364285D01*
X135543904Y-146326190D01*
X135524857Y-146307142D01*
D13*
X107616214Y-141412928D02*
X108282880Y-141412928D01*
X107235261Y-141174833D02*
X107949547Y-140936738D01*
X107949547Y-141555785D01*
X108187642Y-141936738D02*
X108235261Y-141984357D01*
X108282880Y-141936738D01*
X108235261Y-141889119D01*
X108187642Y-141936738D01*
X108282880Y-141936738D01*
X107282880Y-142317690D02*
X107282880Y-142984357D01*
X108282880Y-142555785D01*
X108282880Y-143365309D02*
X107282880Y-143365309D01*
X107901928Y-143460547D02*
X108282880Y-143746261D01*
X107616214Y-143746261D02*
X107997166Y-143365309D01*
D12*
X106581452Y-142084357D02*
X106390976Y-141951023D01*
X106581452Y-141855785D02*
X106181452Y-141855785D01*
X106181452Y-142008166D01*
X106200500Y-142046261D01*
X106219547Y-142065309D01*
X106257642Y-142084357D01*
X106314785Y-142084357D01*
X106352880Y-142065309D01*
X106371928Y-142046261D01*
X106390976Y-142008166D01*
X106390976Y-141855785D01*
X106181452Y-142446261D02*
X106181452Y-142255785D01*
X106371928Y-142236738D01*
X106352880Y-142255785D01*
X106333833Y-142293880D01*
X106333833Y-142389119D01*
X106352880Y-142427214D01*
X106371928Y-142446261D01*
X106410023Y-142465309D01*
X106505261Y-142465309D01*
X106543357Y-142446261D01*
X106562404Y-142427214D01*
X106581452Y-142389119D01*
X106581452Y-142293880D01*
X106562404Y-142255785D01*
X106543357Y-142236738D01*
X106581452Y-142846261D02*
X106581452Y-142617690D01*
X106581452Y-142731976D02*
X106181452Y-142731976D01*
X106238595Y-142693880D01*
X106276690Y-142655785D01*
X106295738Y-142617690D01*
D13*
X119351214Y-141412928D02*
X120017880Y-141412928D01*
X118970261Y-141174833D02*
X119684547Y-140936738D01*
X119684547Y-141555785D01*
X119922642Y-141936738D02*
X119970261Y-141984357D01*
X120017880Y-141936738D01*
X119970261Y-141889119D01*
X119922642Y-141936738D01*
X120017880Y-141936738D01*
X119017880Y-142317690D02*
X119017880Y-142984357D01*
X120017880Y-142555785D01*
X120017880Y-143365309D02*
X119017880Y-143365309D01*
X119636928Y-143460547D02*
X120017880Y-143746261D01*
X119351214Y-143746261D02*
X119732166Y-143365309D01*
D12*
X118316452Y-142084357D02*
X118125976Y-141951023D01*
X118316452Y-141855785D02*
X117916452Y-141855785D01*
X117916452Y-142008166D01*
X117935500Y-142046261D01*
X117954547Y-142065309D01*
X117992642Y-142084357D01*
X118049785Y-142084357D01*
X118087880Y-142065309D01*
X118106928Y-142046261D01*
X118125976Y-142008166D01*
X118125976Y-141855785D01*
X117916452Y-142446261D02*
X117916452Y-142255785D01*
X118106928Y-142236738D01*
X118087880Y-142255785D01*
X118068833Y-142293880D01*
X118068833Y-142389119D01*
X118087880Y-142427214D01*
X118106928Y-142446261D01*
X118145023Y-142465309D01*
X118240261Y-142465309D01*
X118278357Y-142446261D01*
X118297404Y-142427214D01*
X118316452Y-142389119D01*
X118316452Y-142293880D01*
X118297404Y-142255785D01*
X118278357Y-142236738D01*
X117954547Y-142617690D02*
X117935500Y-142636738D01*
X117916452Y-142674833D01*
X117916452Y-142770071D01*
X117935500Y-142808166D01*
X117954547Y-142827214D01*
X117992642Y-142846261D01*
X118030738Y-142846261D01*
X118087880Y-142827214D01*
X118316452Y-142598642D01*
X118316452Y-142846261D01*
D13*
X104448380Y-144764285D02*
X104448380Y-145383333D01*
X104829333Y-145050000D01*
X104829333Y-145192857D01*
X104876952Y-145288095D01*
X104924571Y-145335714D01*
X105019809Y-145383333D01*
X105257904Y-145383333D01*
X105353142Y-145335714D01*
X105400761Y-145288095D01*
X105448380Y-145192857D01*
X105448380Y-144907142D01*
X105400761Y-144811904D01*
X105353142Y-144764285D01*
X104448380Y-145716666D02*
X104448380Y-146335714D01*
X104829333Y-146002380D01*
X104829333Y-146145238D01*
X104876952Y-146240476D01*
X104924571Y-146288095D01*
X105019809Y-146335714D01*
X105257904Y-146335714D01*
X105353142Y-146288095D01*
X105400761Y-146240476D01*
X105448380Y-146145238D01*
X105448380Y-145859523D01*
X105400761Y-145764285D01*
X105353142Y-145716666D01*
X104448380Y-146954761D02*
X104448380Y-147050000D01*
X104496000Y-147145238D01*
X104543619Y-147192857D01*
X104638857Y-147240476D01*
X104829333Y-147288095D01*
X105067428Y-147288095D01*
X105257904Y-147240476D01*
X105353142Y-147192857D01*
X105400761Y-147145238D01*
X105448380Y-147050000D01*
X105448380Y-146954761D01*
X105400761Y-146859523D01*
X105353142Y-146811904D01*
X105257904Y-146764285D01*
X105067428Y-146716666D01*
X104829333Y-146716666D01*
X104638857Y-146764285D01*
X104543619Y-146811904D01*
X104496000Y-146859523D01*
X104448380Y-146954761D01*
D12*
X106606952Y-145792857D02*
X106416476Y-145659523D01*
X106606952Y-145564285D02*
X106206952Y-145564285D01*
X106206952Y-145716666D01*
X106226000Y-145754761D01*
X106245047Y-145773809D01*
X106283142Y-145792857D01*
X106340285Y-145792857D01*
X106378380Y-145773809D01*
X106397428Y-145754761D01*
X106416476Y-145716666D01*
X106416476Y-145564285D01*
X106206952Y-146154761D02*
X106206952Y-145964285D01*
X106397428Y-145945238D01*
X106378380Y-145964285D01*
X106359333Y-146002380D01*
X106359333Y-146097619D01*
X106378380Y-146135714D01*
X106397428Y-146154761D01*
X106435523Y-146173809D01*
X106530761Y-146173809D01*
X106568857Y-146154761D01*
X106587904Y-146135714D01*
X106606952Y-146097619D01*
X106606952Y-146002380D01*
X106587904Y-145964285D01*
X106568857Y-145945238D01*
X106206952Y-146307142D02*
X106206952Y-146554761D01*
X106359333Y-146421428D01*
X106359333Y-146478571D01*
X106378380Y-146516666D01*
X106397428Y-146535714D01*
X106435523Y-146554761D01*
X106530761Y-146554761D01*
X106568857Y-146535714D01*
X106587904Y-146516666D01*
X106606952Y-146478571D01*
X106606952Y-146364285D01*
X106587904Y-146326190D01*
X106568857Y-146307142D01*
D13*
X116132380Y-144764285D02*
X116132380Y-145383333D01*
X116513333Y-145050000D01*
X116513333Y-145192857D01*
X116560952Y-145288095D01*
X116608571Y-145335714D01*
X116703809Y-145383333D01*
X116941904Y-145383333D01*
X117037142Y-145335714D01*
X117084761Y-145288095D01*
X117132380Y-145192857D01*
X117132380Y-144907142D01*
X117084761Y-144811904D01*
X117037142Y-144764285D01*
X116132380Y-145716666D02*
X116132380Y-146335714D01*
X116513333Y-146002380D01*
X116513333Y-146145238D01*
X116560952Y-146240476D01*
X116608571Y-146288095D01*
X116703809Y-146335714D01*
X116941904Y-146335714D01*
X117037142Y-146288095D01*
X117084761Y-146240476D01*
X117132380Y-146145238D01*
X117132380Y-145859523D01*
X117084761Y-145764285D01*
X117037142Y-145716666D01*
X116132380Y-146954761D02*
X116132380Y-147050000D01*
X116180000Y-147145238D01*
X116227619Y-147192857D01*
X116322857Y-147240476D01*
X116513333Y-147288095D01*
X116751428Y-147288095D01*
X116941904Y-147240476D01*
X117037142Y-147192857D01*
X117084761Y-147145238D01*
X117132380Y-147050000D01*
X117132380Y-146954761D01*
X117084761Y-146859523D01*
X117037142Y-146811904D01*
X116941904Y-146764285D01*
X116751428Y-146716666D01*
X116513333Y-146716666D01*
X116322857Y-146764285D01*
X116227619Y-146811904D01*
X116180000Y-146859523D01*
X116132380Y-146954761D01*
D12*
X118290952Y-145792857D02*
X118100476Y-145659523D01*
X118290952Y-145564285D02*
X117890952Y-145564285D01*
X117890952Y-145716666D01*
X117910000Y-145754761D01*
X117929047Y-145773809D01*
X117967142Y-145792857D01*
X118024285Y-145792857D01*
X118062380Y-145773809D01*
X118081428Y-145754761D01*
X118100476Y-145716666D01*
X118100476Y-145564285D01*
X117890952Y-146154761D02*
X117890952Y-145964285D01*
X118081428Y-145945238D01*
X118062380Y-145964285D01*
X118043333Y-146002380D01*
X118043333Y-146097619D01*
X118062380Y-146135714D01*
X118081428Y-146154761D01*
X118119523Y-146173809D01*
X118214761Y-146173809D01*
X118252857Y-146154761D01*
X118271904Y-146135714D01*
X118290952Y-146097619D01*
X118290952Y-146002380D01*
X118271904Y-145964285D01*
X118252857Y-145945238D01*
X118024285Y-146516666D02*
X118290952Y-146516666D01*
X117871904Y-146421428D02*
X118157619Y-146326190D01*
X118157619Y-146573809D01*
D14*
X142235619Y-143068523D02*
X142235619Y-144096619D01*
X142175142Y-144217571D01*
X142114666Y-144278047D01*
X141993714Y-144338523D01*
X141751809Y-144338523D01*
X141630857Y-144278047D01*
X141570380Y-144217571D01*
X141509904Y-144096619D01*
X141509904Y-143068523D01*
X140360857Y-143491857D02*
X140360857Y-144338523D01*
X140663238Y-143008047D02*
X140965619Y-143915190D01*
X140179428Y-143915190D01*
X151323523Y-122730380D02*
X152351619Y-122730380D01*
X152472571Y-122790857D01*
X152533047Y-122851333D01*
X152593523Y-122972285D01*
X152593523Y-123214190D01*
X152533047Y-123335142D01*
X152472571Y-123395619D01*
X152351619Y-123456095D01*
X151323523Y-123456095D01*
X151323523Y-123939904D02*
X151323523Y-124786571D01*
X152593523Y-124242285D01*
X129352523Y-122603380D02*
X130380619Y-122603380D01*
X130501571Y-122663857D01*
X130562047Y-122724333D01*
X130622523Y-122845285D01*
X130622523Y-123087190D01*
X130562047Y-123208142D01*
X130501571Y-123268619D01*
X130380619Y-123329095D01*
X129352523Y-123329095D01*
X130622523Y-123994333D02*
X130622523Y-124236238D01*
X130562047Y-124357190D01*
X130501571Y-124417666D01*
X130320142Y-124538619D01*
X130078238Y-124599095D01*
X129594428Y-124599095D01*
X129473476Y-124538619D01*
X129413000Y-124478142D01*
X129352523Y-124357190D01*
X129352523Y-124115285D01*
X129413000Y-123994333D01*
X129473476Y-123933857D01*
X129594428Y-123873380D01*
X129896809Y-123873380D01*
X130017761Y-123933857D01*
X130078238Y-123994333D01*
X130138714Y-124115285D01*
X130138714Y-124357190D01*
X130078238Y-124478142D01*
X130017761Y-124538619D01*
X129896809Y-124599095D01*
X113191619Y-143068523D02*
X113191619Y-144096619D01*
X113131142Y-144217571D01*
X113070666Y-144278047D01*
X112949714Y-144338523D01*
X112707809Y-144338523D01*
X112586857Y-144278047D01*
X112526380Y-144217571D01*
X112465904Y-144096619D01*
X112465904Y-143068523D01*
X111256380Y-143068523D02*
X111861142Y-143068523D01*
X111921619Y-143673285D01*
X111861142Y-143612809D01*
X111740190Y-143552333D01*
X111437809Y-143552333D01*
X111316857Y-143612809D01*
X111256380Y-143673285D01*
X111195904Y-143794238D01*
X111195904Y-144096619D01*
X111256380Y-144217571D01*
X111316857Y-144278047D01*
X111437809Y-144338523D01*
X111740190Y-144338523D01*
X111861142Y-144278047D01*
X111921619Y-144217571D01*
D13*
X136597714Y-141412928D02*
X137264380Y-141412928D01*
X136216761Y-141174833D02*
X136931047Y-140936738D01*
X136931047Y-141555785D01*
X137169142Y-141936738D02*
X137216761Y-141984357D01*
X137264380Y-141936738D01*
X137216761Y-141889119D01*
X137169142Y-141936738D01*
X137264380Y-141936738D01*
X136264380Y-142317690D02*
X136264380Y-142984357D01*
X137264380Y-142555785D01*
X137264380Y-143365309D02*
X136264380Y-143365309D01*
X136883428Y-143460547D02*
X137264380Y-143746261D01*
X136597714Y-143746261D02*
X136978666Y-143365309D01*
D12*
X135562952Y-142084357D02*
X135372476Y-141951023D01*
X135562952Y-141855785D02*
X135162952Y-141855785D01*
X135162952Y-142008166D01*
X135182000Y-142046261D01*
X135201047Y-142065309D01*
X135239142Y-142084357D01*
X135296285Y-142084357D01*
X135334380Y-142065309D01*
X135353428Y-142046261D01*
X135372476Y-142008166D01*
X135372476Y-141855785D01*
X135296285Y-142427214D02*
X135562952Y-142427214D01*
X135143904Y-142331976D02*
X135429619Y-142236738D01*
X135429619Y-142484357D01*
X135562952Y-142846261D02*
X135562952Y-142617690D01*
X135562952Y-142731976D02*
X135162952Y-142731976D01*
X135220095Y-142693880D01*
X135258190Y-142655785D01*
X135277238Y-142617690D01*
X135905857Y-122780333D02*
X135924904Y-122761285D01*
X135943952Y-122704142D01*
X135943952Y-122666047D01*
X135924904Y-122608904D01*
X135886809Y-122570809D01*
X135848714Y-122551761D01*
X135772523Y-122532714D01*
X135715380Y-122532714D01*
X135639190Y-122551761D01*
X135601095Y-122570809D01*
X135563000Y-122608904D01*
X135543952Y-122666047D01*
X135543952Y-122704142D01*
X135563000Y-122761285D01*
X135582047Y-122780333D01*
X135943952Y-122970809D02*
X135943952Y-123047000D01*
X135924904Y-123085095D01*
X135905857Y-123104142D01*
X135848714Y-123142238D01*
X135772523Y-123161285D01*
X135620142Y-123161285D01*
X135582047Y-123142238D01*
X135563000Y-123123190D01*
X135543952Y-123085095D01*
X135543952Y-123008904D01*
X135563000Y-122970809D01*
X135582047Y-122951761D01*
X135620142Y-122932714D01*
X135715380Y-122932714D01*
X135753476Y-122951761D01*
X135772523Y-122970809D01*
X135791571Y-123008904D01*
X135791571Y-123085095D01*
X135772523Y-123123190D01*
X135753476Y-123142238D01*
X135715380Y-123161285D01*
D13*
X145215380Y-144764285D02*
X145215380Y-145383333D01*
X145596333Y-145050000D01*
X145596333Y-145192857D01*
X145643952Y-145288095D01*
X145691571Y-145335714D01*
X145786809Y-145383333D01*
X146024904Y-145383333D01*
X146120142Y-145335714D01*
X146167761Y-145288095D01*
X146215380Y-145192857D01*
X146215380Y-144907142D01*
X146167761Y-144811904D01*
X146120142Y-144764285D01*
X145215380Y-145716666D02*
X145215380Y-146335714D01*
X145596333Y-146002380D01*
X145596333Y-146145238D01*
X145643952Y-146240476D01*
X145691571Y-146288095D01*
X145786809Y-146335714D01*
X146024904Y-146335714D01*
X146120142Y-146288095D01*
X146167761Y-146240476D01*
X146215380Y-146145238D01*
X146215380Y-145859523D01*
X146167761Y-145764285D01*
X146120142Y-145716666D01*
X145215380Y-146954761D02*
X145215380Y-147050000D01*
X145263000Y-147145238D01*
X145310619Y-147192857D01*
X145405857Y-147240476D01*
X145596333Y-147288095D01*
X145834428Y-147288095D01*
X146024904Y-147240476D01*
X146120142Y-147192857D01*
X146167761Y-147145238D01*
X146215380Y-147050000D01*
X146215380Y-146954761D01*
X146167761Y-146859523D01*
X146120142Y-146811904D01*
X146024904Y-146764285D01*
X145834428Y-146716666D01*
X145596333Y-146716666D01*
X145405857Y-146764285D01*
X145310619Y-146811904D01*
X145263000Y-146859523D01*
X145215380Y-146954761D01*
D12*
X147373952Y-145792857D02*
X147183476Y-145659523D01*
X147373952Y-145564285D02*
X146973952Y-145564285D01*
X146973952Y-145716666D01*
X146993000Y-145754761D01*
X147012047Y-145773809D01*
X147050142Y-145792857D01*
X147107285Y-145792857D01*
X147145380Y-145773809D01*
X147164428Y-145754761D01*
X147183476Y-145716666D01*
X147183476Y-145564285D01*
X147107285Y-146135714D02*
X147373952Y-146135714D01*
X146954904Y-146040476D02*
X147240619Y-145945238D01*
X147240619Y-146192857D01*
X147107285Y-146516666D02*
X147373952Y-146516666D01*
X146954904Y-146421428D02*
X147240619Y-146326190D01*
X147240619Y-146573809D01*
D15*
X147593000Y-152349000D02*
X146793000Y-152349000D01*
X146793000Y-150749000D02*
X147593000Y-150749000D01*
X146793000Y-152349000D02*
X146793000Y-150749000D01*
X147593000Y-150749000D02*
X147593000Y-152349000D01*
X118510000Y-152311000D02*
X117710000Y-152311000D01*
X117710000Y-152311000D02*
X117710000Y-150711000D01*
X118510000Y-150711000D02*
X118510000Y-152311000D01*
X117710000Y-150711000D02*
X118510000Y-150711000D01*
X157753000Y-124536000D02*
X156953000Y-124536000D01*
X156953000Y-122936000D02*
X157753000Y-122936000D01*
X156953000Y-124536000D02*
X156953000Y-122936000D01*
X157753000Y-122936000D02*
X157753000Y-124536000D01*
X147593000Y-143141500D02*
X147593000Y-141541500D01*
X147593000Y-141541500D02*
X146793000Y-141541500D01*
X146793000Y-143141500D02*
X147593000Y-143141500D01*
X146793000Y-141541500D02*
X146793000Y-143141500D01*
X134982000Y-146850000D02*
X135782000Y-146850000D01*
X135782000Y-145250000D02*
X134982000Y-145250000D01*
X134982000Y-145250000D02*
X134982000Y-146850000D01*
X135782000Y-146850000D02*
X135782000Y-145250000D01*
X106800500Y-141541500D02*
X106000500Y-141541500D01*
X106800500Y-143141500D02*
X106800500Y-141541500D01*
X106000500Y-143141500D02*
X106800500Y-143141500D01*
X106000500Y-141541500D02*
X106000500Y-143141500D01*
X117735500Y-141541500D02*
X117735500Y-143141500D01*
X118535500Y-143141500D02*
X118535500Y-141541500D01*
X118535500Y-141541500D02*
X117735500Y-141541500D01*
X117735500Y-143141500D02*
X118535500Y-143141500D01*
X106826000Y-146850000D02*
X106826000Y-145250000D01*
X106026000Y-145250000D02*
X106026000Y-146850000D01*
X106026000Y-146850000D02*
X106826000Y-146850000D01*
X106826000Y-145250000D02*
X106026000Y-145250000D01*
X118510000Y-145250000D02*
X117710000Y-145250000D01*
X117710000Y-146850000D02*
X118510000Y-146850000D01*
X117710000Y-145250000D02*
X117710000Y-146850000D01*
X118510000Y-146850000D02*
X118510000Y-145250000D01*
X139320000Y-146216000D02*
X143216000Y-146216000D01*
X139320000Y-141312000D02*
X139320000Y-146216000D01*
X143216000Y-146216000D02*
X143216000Y-141312000D01*
X139320000Y-144946000D02*
X140590000Y-146216000D01*
X143216000Y-141312000D02*
X139320000Y-141312000D01*
X153519000Y-125698000D02*
X154019000Y-125198000D01*
X154019000Y-125698000D02*
X154019000Y-121698000D01*
X150019000Y-121698000D02*
X150019000Y-125698000D01*
X154019000Y-121698000D02*
X150019000Y-121698000D01*
X150019000Y-125698000D02*
X154019000Y-125698000D01*
X128048000Y-121571000D02*
X128048000Y-125571000D01*
X131548000Y-125571000D02*
X132048000Y-125071000D01*
X132048000Y-125571000D02*
X132048000Y-121571000D01*
X128048000Y-125571000D02*
X132048000Y-125571000D01*
X132048000Y-121571000D02*
X128048000Y-121571000D01*
X110276000Y-144946000D02*
X111546000Y-146216000D01*
X114172000Y-141312000D02*
X110276000Y-141312000D01*
X110276000Y-146216000D02*
X114172000Y-146216000D01*
X114172000Y-146216000D02*
X114172000Y-141312000D01*
X110276000Y-141312000D02*
X110276000Y-146216000D01*
X135782000Y-141541500D02*
X134982000Y-141541500D01*
X134982000Y-143141500D02*
X135782000Y-143141500D01*
X134982000Y-141541500D02*
X134982000Y-143141500D01*
X135782000Y-143141500D02*
X135782000Y-141541500D01*
X135109000Y-124536000D02*
X135109000Y-122936000D01*
X135909000Y-124536000D02*
X135109000Y-124536000D01*
X135909000Y-122936000D02*
X135909000Y-124536000D01*
X135109000Y-122936000D02*
X135909000Y-122936000D01*
X146793000Y-146850000D02*
X147593000Y-146850000D01*
X146793000Y-145250000D02*
X146793000Y-146850000D01*
X147593000Y-145250000D02*
X146793000Y-145250000D01*
X147593000Y-146850000D02*
X147593000Y-145250000D01*
M02*
