G04 #@! TF.GenerationSoftware,KiCad,Pcbnew,(6.0.4-0)*
G04 #@! TF.CreationDate,2022-11-09T17:11:16+01:00*
G04 #@! TF.ProjectId,adapter_hybrid_assistor_hpc_2HDMI,61646170-7465-4725-9f68-79627269645f,rev?*
G04 #@! TF.SameCoordinates,Original*
G04 #@! TF.FileFunction,Soldermask,Top*
G04 #@! TF.FilePolarity,Negative*
%FSLAX46Y46*%
G04 Gerber Fmt 4.6, Leading zero omitted, Abs format (unit mm)*
G04 Created by KiCad (PCBNEW (6.0.4-0)) date 2022-11-09 17:11:16*
%MOMM*%
%LPD*%
G01*
G04 APERTURE LIST*
G04 Aperture macros list*
%AMRoundRect*
0 Rectangle with rounded corners*
0 $1 Rounding radius*
0 $2 $3 $4 $5 $6 $7 $8 $9 X,Y pos of 4 corners*
0 Add a 4 corners polygon primitive as box body*
4,1,4,$2,$3,$4,$5,$6,$7,$8,$9,$2,$3,0*
0 Add four circle primitives for the rounded corners*
1,1,$1+$1,$2,$3*
1,1,$1+$1,$4,$5*
1,1,$1+$1,$6,$7*
1,1,$1+$1,$8,$9*
0 Add four rect primitives between the rounded corners*
20,1,$1+$1,$2,$3,$4,$5,0*
20,1,$1+$1,$4,$5,$6,$7,0*
20,1,$1+$1,$6,$7,$8,$9,0*
20,1,$1+$1,$8,$9,$2,$3,0*%
G04 Aperture macros list end*
G04 #@! TA.AperFunction,Profile*
%ADD10C,0.100000*%
G04 #@! TD*
G04 #@! TA.AperFunction,Profile*
%ADD11C,0.050000*%
G04 #@! TD*
%ADD12RoundRect,0.051000X0.500000X-0.475000X0.500000X0.475000X-0.500000X0.475000X-0.500000X-0.475000X0*%
%ADD13C,1.372000*%
%ADD14C,0.742000*%
%ADD15C,4.102000*%
%ADD16RoundRect,0.051000X-0.150000X-0.950000X0.150000X-0.950000X0.150000X0.950000X-0.150000X0.950000X0*%
%ADD17C,2.097000*%
%ADD18RoundRect,0.051000X-0.150000X-0.425000X0.150000X-0.425000X0.150000X0.425000X-0.150000X0.425000X0*%
%ADD19RoundRect,0.051000X-0.425000X0.150000X-0.425000X-0.150000X0.425000X-0.150000X0.425000X0.150000X0*%
%ADD20RoundRect,0.051000X-1.200000X1.200000X-1.200000X-1.200000X1.200000X-1.200000X1.200000X1.200000X0*%
G04 APERTURE END LIST*
D10*
X100000000Y-100000000D02*
X100000000Y-176500000D01*
X100000000Y-176500000D02*
X169000000Y-176500000D01*
X169000000Y-100000000D02*
X169000000Y-176500000D01*
X100000000Y-100000000D02*
X169000000Y-100000000D01*
D11*
X168050000Y-173800000D02*
G75*
G03*
X168050000Y-173800000I-1350000J0D01*
G01*
X103350000Y-173800000D02*
G75*
G03*
X103350000Y-173800000I-1350000J0D01*
G01*
X104500000Y-110450000D02*
G75*
G03*
X104500000Y-110450000I-1350000J0D01*
G01*
X167200000Y-110450000D02*
G75*
G03*
X167200000Y-110450000I-1350000J0D01*
G01*
X101666666Y-176500000D02*
G75*
G03*
X101666666Y-176500000I-1666666J0D01*
G01*
X97500000Y-176500000D02*
X102500000Y-176500000D01*
X100000000Y-174000000D02*
X100000000Y-179000000D01*
X101666666Y-176500000D02*
G75*
G03*
X101666666Y-176500000I-1666666J0D01*
G01*
X97500000Y-176500000D02*
X102500000Y-176500000D01*
X100000000Y-174000000D02*
X100000000Y-179000000D01*
X101666666Y-176500000D02*
G75*
G03*
X101666666Y-176500000I-1666666J0D01*
G01*
X97500000Y-176500000D02*
X102500000Y-176500000D01*
X100000000Y-174000000D02*
X100000000Y-179000000D01*
D10*
X100000000Y-100000000D02*
X100000000Y-176500000D01*
X100000000Y-176500000D02*
X169000000Y-176500000D01*
X169000000Y-100000000D02*
X169000000Y-176500000D01*
X100000000Y-100000000D02*
X169000000Y-100000000D01*
D11*
X168050000Y-173800000D02*
G75*
G03*
X168050000Y-173800000I-1350000J0D01*
G01*
X103350000Y-173800000D02*
G75*
G03*
X103350000Y-173800000I-1350000J0D01*
G01*
X104500000Y-110450000D02*
G75*
G03*
X104500000Y-110450000I-1350000J0D01*
G01*
X167200000Y-110450000D02*
G75*
G03*
X167200000Y-110450000I-1350000J0D01*
G01*
X101666666Y-176500000D02*
G75*
G03*
X101666666Y-176500000I-1666666J0D01*
G01*
X97500000Y-176500000D02*
X102500000Y-176500000D01*
X100000000Y-174000000D02*
X100000000Y-179000000D01*
X101666666Y-176500000D02*
G75*
G03*
X101666666Y-176500000I-1666666J0D01*
G01*
X97500000Y-176500000D02*
X102500000Y-176500000D01*
X100000000Y-174000000D02*
X100000000Y-179000000D01*
X101666666Y-176500000D02*
G75*
G03*
X101666666Y-176500000I-1666666J0D01*
G01*
X97500000Y-176500000D02*
X102500000Y-176500000D01*
X100000000Y-174000000D02*
X100000000Y-179000000D01*
D12*
X116967000Y-134950000D03*
X116967000Y-133350000D03*
D13*
X107303000Y-111508000D03*
X161683000Y-108458000D03*
D14*
X159263000Y-105288000D03*
D15*
X165683000Y-110458000D03*
D14*
X157993000Y-105288000D03*
X156723000Y-105288000D03*
X155443000Y-105288000D03*
X154173000Y-105288000D03*
X152903000Y-105288000D03*
X151633000Y-105288000D03*
X150373000Y-105288000D03*
X149103000Y-105288000D03*
X147833000Y-105288000D03*
X146553000Y-105288000D03*
X145283000Y-105288000D03*
X144023000Y-105288000D03*
X142753000Y-105288000D03*
X141483000Y-105288000D03*
X140203000Y-105288000D03*
X138943000Y-105288000D03*
X137663000Y-105288000D03*
X136403000Y-105288000D03*
X135133000Y-105288000D03*
X133853000Y-105288000D03*
X132583000Y-105288000D03*
X131323000Y-105288000D03*
X130043000Y-105288000D03*
X128783000Y-105288000D03*
X127503000Y-105288000D03*
X126233000Y-105288000D03*
X124963000Y-105288000D03*
X123703000Y-105288000D03*
X122433000Y-105288000D03*
X121153000Y-105288000D03*
X119883000Y-105288000D03*
X118613000Y-105288000D03*
X117353000Y-105288000D03*
X116083000Y-105288000D03*
X114813000Y-105288000D03*
X113543000Y-105288000D03*
X112263000Y-105288000D03*
X110993000Y-105288000D03*
X109723000Y-105288000D03*
X159263000Y-106548000D03*
X157993000Y-106548000D03*
X156723000Y-106548000D03*
X155443000Y-106548000D03*
X154173000Y-106548000D03*
X152903000Y-106548000D03*
X151633000Y-106548000D03*
X150373000Y-106548000D03*
X149103000Y-106548000D03*
X147833000Y-106548000D03*
X146553000Y-106548000D03*
X145283000Y-106548000D03*
X144023000Y-106548000D03*
X142753000Y-106548000D03*
X141483000Y-106548000D03*
X140203000Y-106548000D03*
X138943000Y-106548000D03*
X137663000Y-106548000D03*
X136403000Y-106548000D03*
X135133000Y-106548000D03*
X133873000Y-106548000D03*
X132583000Y-106548000D03*
X131323000Y-106548000D03*
X130043000Y-106548000D03*
X128783000Y-106548000D03*
X127503000Y-106548000D03*
X126233000Y-106548000D03*
X124963000Y-106548000D03*
X123703000Y-106548000D03*
X122433000Y-106548000D03*
X121153000Y-106548000D03*
X119883000Y-106548000D03*
X118613000Y-106548000D03*
X117353000Y-106548000D03*
X116083000Y-106548000D03*
X114813000Y-106548000D03*
X113543000Y-106548000D03*
X112263000Y-106548000D03*
X110993000Y-106548000D03*
X109723000Y-106548000D03*
X159263000Y-110368000D03*
X157993000Y-110368000D03*
X156723000Y-110368000D03*
X155443000Y-110368000D03*
X154173000Y-110368000D03*
X152903000Y-110368000D03*
X151633000Y-110368000D03*
X150373000Y-110368000D03*
X149103000Y-110368000D03*
X147833000Y-110368000D03*
X146553000Y-110368000D03*
X145283000Y-110368000D03*
X144023000Y-110368000D03*
X142753000Y-110368000D03*
X141483000Y-110368000D03*
X140203000Y-110368000D03*
X138943000Y-110368000D03*
X137663000Y-110368000D03*
X136403000Y-110368000D03*
X135133000Y-110368000D03*
X133853000Y-110368000D03*
X132583000Y-110368000D03*
X131323000Y-110368000D03*
X130043000Y-110368000D03*
X128783000Y-110368000D03*
X127503000Y-110368000D03*
X126233000Y-110368000D03*
X124963000Y-110368000D03*
X123703000Y-110368000D03*
X122433000Y-110368000D03*
X121153000Y-110368000D03*
X119883000Y-110368000D03*
X118613000Y-110368000D03*
X117353000Y-110368000D03*
X116083000Y-110368000D03*
X114813000Y-110368000D03*
X113543000Y-110368000D03*
X112263000Y-110368000D03*
X110993000Y-110368000D03*
X109723000Y-110368000D03*
D15*
X103303000Y-110458000D03*
D14*
X159263000Y-111628000D03*
X157993000Y-111628000D03*
X156723000Y-111628000D03*
X155443000Y-111628000D03*
X154173000Y-111628000D03*
X152903000Y-111628000D03*
X151633000Y-111628000D03*
X150373000Y-111628000D03*
X149103000Y-111628000D03*
X147833000Y-111628000D03*
X146553000Y-111628000D03*
X145283000Y-111628000D03*
X144023000Y-111628000D03*
X142753000Y-111628000D03*
X141483000Y-111628000D03*
X140203000Y-111628000D03*
X138943000Y-111628000D03*
X137663000Y-111628000D03*
X136403000Y-111628000D03*
X135133000Y-111628000D03*
X133873000Y-111628000D03*
X132583000Y-111628000D03*
X131323000Y-111628000D03*
X130043000Y-111628000D03*
X128783000Y-111628000D03*
X127503000Y-111628000D03*
X126233000Y-111628000D03*
X124963000Y-111628000D03*
X123703000Y-111628000D03*
X122433000Y-111628000D03*
X121153000Y-111628000D03*
X119883000Y-111628000D03*
X118613000Y-111628000D03*
X117353000Y-111628000D03*
X116083000Y-111628000D03*
X114813000Y-111628000D03*
X113543000Y-111628000D03*
X112263000Y-111628000D03*
X110993000Y-111628000D03*
X109723000Y-111628000D03*
D16*
X153216000Y-166076000D03*
X152716000Y-166076000D03*
X152216000Y-166076000D03*
X151716000Y-166076000D03*
X151216000Y-166076000D03*
X150716000Y-166076000D03*
X150216000Y-166076000D03*
X149716000Y-166076000D03*
X149216000Y-166076000D03*
X148716000Y-166076000D03*
X148216000Y-166076000D03*
X147716000Y-166076000D03*
X147216000Y-166076000D03*
X146716000Y-166076000D03*
X146216000Y-166076000D03*
X145716000Y-166076000D03*
X145216000Y-166076000D03*
X144716000Y-166076000D03*
X144216000Y-166076000D03*
D17*
X141216000Y-167076000D03*
X155716000Y-167076000D03*
X140616000Y-171976000D03*
X156316000Y-171976000D03*
D16*
X126800000Y-166076000D03*
X126300000Y-166076000D03*
X125800000Y-166076000D03*
X125300000Y-166076000D03*
X124800000Y-166076000D03*
X124300000Y-166076000D03*
X123800000Y-166076000D03*
X123300000Y-166076000D03*
X122800000Y-166076000D03*
X122300000Y-166076000D03*
X121800000Y-166076000D03*
X121300000Y-166076000D03*
X120800000Y-166076000D03*
X120300000Y-166076000D03*
X119800000Y-166076000D03*
X119300000Y-166076000D03*
X118800000Y-166076000D03*
X118300000Y-166076000D03*
X117800000Y-166076000D03*
D17*
X114800000Y-167076000D03*
X129300000Y-167076000D03*
X114200000Y-171976000D03*
X129900000Y-171976000D03*
D18*
X123305000Y-131781000D03*
X122805000Y-131781000D03*
X122305000Y-131781000D03*
X121805000Y-131781000D03*
D19*
X120605000Y-132981000D03*
X120605000Y-133481000D03*
X120605000Y-133981000D03*
X120605000Y-134481000D03*
D18*
X121805000Y-135681000D03*
X122305000Y-135681000D03*
X122805000Y-135681000D03*
X123305000Y-135681000D03*
D19*
X124505000Y-134481000D03*
X124505000Y-133981000D03*
X124505000Y-133481000D03*
X124505000Y-132981000D03*
D20*
X122555000Y-133731000D03*
D18*
X142101000Y-131781000D03*
X141601000Y-131781000D03*
X141101000Y-131781000D03*
X140601000Y-131781000D03*
D19*
X139401000Y-132981000D03*
X139401000Y-133481000D03*
X139401000Y-133981000D03*
X139401000Y-134481000D03*
D18*
X140601000Y-135681000D03*
X141101000Y-135681000D03*
X141601000Y-135681000D03*
X142101000Y-135681000D03*
D19*
X143301000Y-134481000D03*
X143301000Y-133981000D03*
X143301000Y-133481000D03*
X143301000Y-132981000D03*
D20*
X141351000Y-133731000D03*
D12*
X135509000Y-134823000D03*
X135509000Y-133223000D03*
G36*
X168512100Y-116830002D02*
G01*
X168558593Y-116883658D01*
X168569979Y-116936021D01*
X168560021Y-176374021D01*
X168540008Y-176442139D01*
X168486344Y-176488622D01*
X168434021Y-176500000D01*
X164916000Y-176500000D01*
X164847879Y-176479998D01*
X164801386Y-176426342D01*
X164790000Y-176374000D01*
X164790000Y-173805475D01*
X165350479Y-173805475D01*
X165370031Y-174028945D01*
X165371934Y-174039740D01*
X165429992Y-174256417D01*
X165433738Y-174266709D01*
X165528540Y-174470013D01*
X165534023Y-174479509D01*
X165662681Y-174663252D01*
X165669737Y-174671660D01*
X165828340Y-174830263D01*
X165836748Y-174837319D01*
X166020491Y-174965977D01*
X166029987Y-174971460D01*
X166233291Y-175066262D01*
X166243583Y-175070008D01*
X166460260Y-175128066D01*
X166471055Y-175129969D01*
X166694525Y-175149521D01*
X166705475Y-175149521D01*
X166928945Y-175129969D01*
X166939740Y-175128066D01*
X167156417Y-175070008D01*
X167166709Y-175066262D01*
X167370013Y-174971460D01*
X167379509Y-174965977D01*
X167563252Y-174837319D01*
X167571660Y-174830263D01*
X167730263Y-174671660D01*
X167737319Y-174663252D01*
X167865977Y-174479509D01*
X167871460Y-174470013D01*
X167966262Y-174266709D01*
X167970008Y-174256417D01*
X168028066Y-174039740D01*
X168029969Y-174028945D01*
X168049521Y-173805475D01*
X168049521Y-173794525D01*
X168029969Y-173571055D01*
X168028066Y-173560260D01*
X167970008Y-173343583D01*
X167966262Y-173333291D01*
X167871460Y-173129987D01*
X167865977Y-173120491D01*
X167737319Y-172936748D01*
X167730263Y-172928340D01*
X167571660Y-172769737D01*
X167563252Y-172762681D01*
X167379509Y-172634023D01*
X167370013Y-172628540D01*
X167166709Y-172533738D01*
X167156417Y-172529992D01*
X166939740Y-172471934D01*
X166928945Y-172470031D01*
X166705475Y-172450479D01*
X166694525Y-172450479D01*
X166471055Y-172470031D01*
X166460260Y-172471934D01*
X166243583Y-172529992D01*
X166233291Y-172533738D01*
X166029987Y-172628540D01*
X166020491Y-172634023D01*
X165836748Y-172762681D01*
X165828340Y-172769737D01*
X165669737Y-172928340D01*
X165662681Y-172936748D01*
X165534023Y-173120491D01*
X165528540Y-173129987D01*
X165433738Y-173333291D01*
X165429992Y-173343583D01*
X165371934Y-173560260D01*
X165370031Y-173571055D01*
X165350479Y-173794525D01*
X165350479Y-173805475D01*
X164790000Y-173805475D01*
X164790000Y-116936000D01*
X164810002Y-116867879D01*
X164863658Y-116821386D01*
X164916000Y-116810000D01*
X168443979Y-116810000D01*
X168512100Y-116830002D01*
G37*
G36*
X103762121Y-116820002D02*
G01*
X103808614Y-116873658D01*
X103820000Y-116926000D01*
X103820000Y-176374000D01*
X103799998Y-176442121D01*
X103746342Y-176488614D01*
X103694000Y-176500000D01*
X100126000Y-176500000D01*
X100057879Y-176479998D01*
X100011386Y-176426342D01*
X100000000Y-176374000D01*
X100000000Y-173805475D01*
X100650479Y-173805475D01*
X100670031Y-174028945D01*
X100671934Y-174039740D01*
X100729992Y-174256417D01*
X100733738Y-174266709D01*
X100828540Y-174470013D01*
X100834023Y-174479509D01*
X100962681Y-174663252D01*
X100969737Y-174671660D01*
X101128340Y-174830263D01*
X101136748Y-174837319D01*
X101320491Y-174965977D01*
X101329987Y-174971460D01*
X101533291Y-175066262D01*
X101543583Y-175070008D01*
X101760260Y-175128066D01*
X101771055Y-175129969D01*
X101994525Y-175149521D01*
X102005475Y-175149521D01*
X102228945Y-175129969D01*
X102239740Y-175128066D01*
X102456417Y-175070008D01*
X102466709Y-175066262D01*
X102670013Y-174971460D01*
X102679509Y-174965977D01*
X102863252Y-174837319D01*
X102871660Y-174830263D01*
X103030263Y-174671660D01*
X103037319Y-174663252D01*
X103165977Y-174479509D01*
X103171460Y-174470013D01*
X103266262Y-174266709D01*
X103270008Y-174256417D01*
X103328066Y-174039740D01*
X103329969Y-174028945D01*
X103349521Y-173805475D01*
X103349521Y-173794525D01*
X103329969Y-173571055D01*
X103328066Y-173560260D01*
X103270008Y-173343583D01*
X103266262Y-173333291D01*
X103171460Y-173129987D01*
X103165977Y-173120491D01*
X103037319Y-172936748D01*
X103030263Y-172928340D01*
X102871660Y-172769737D01*
X102863252Y-172762681D01*
X102679509Y-172634023D01*
X102670013Y-172628540D01*
X102466709Y-172533738D01*
X102456417Y-172529992D01*
X102239740Y-172471934D01*
X102228945Y-172470031D01*
X102005475Y-172450479D01*
X101994525Y-172450479D01*
X101771055Y-172470031D01*
X101760260Y-172471934D01*
X101543583Y-172529992D01*
X101533291Y-172533738D01*
X101329987Y-172628540D01*
X101320491Y-172634023D01*
X101136748Y-172762681D01*
X101128340Y-172769737D01*
X100969737Y-172928340D01*
X100962681Y-172936748D01*
X100834023Y-173120491D01*
X100828540Y-173129987D01*
X100733738Y-173333291D01*
X100729992Y-173343583D01*
X100671934Y-173560260D01*
X100670031Y-173571055D01*
X100650479Y-173794525D01*
X100650479Y-173805475D01*
X100000000Y-173805475D01*
X100000000Y-116926000D01*
X100020002Y-116857879D01*
X100073658Y-116811386D01*
X100126000Y-116800000D01*
X103694000Y-116800000D01*
X103762121Y-116820002D01*
G37*
G36*
X168552590Y-116803081D02*
G01*
X168569620Y-116808081D01*
X168570185Y-116808673D01*
X168571000Y-116808673D01*
X168571512Y-116809096D01*
X168574398Y-116812428D01*
X168574840Y-116813312D01*
X168576952Y-116823022D01*
X168576998Y-116823447D01*
X168567003Y-176482027D01*
X168566922Y-176482591D01*
X168561919Y-176499619D01*
X168561327Y-176500183D01*
X168561327Y-176501000D01*
X168560904Y-176501512D01*
X168557563Y-176504406D01*
X168556679Y-176504848D01*
X168546993Y-176506954D01*
X168546568Y-176507000D01*
X164807973Y-176507000D01*
X164807410Y-176506919D01*
X164790380Y-176501919D01*
X164789815Y-176501327D01*
X164789000Y-176501327D01*
X164788488Y-176500905D01*
X164785971Y-176498000D01*
X164792000Y-176498000D01*
X168558000Y-176498000D01*
X168568000Y-116812000D01*
X164792000Y-116812000D01*
X164792000Y-176498000D01*
X164785971Y-176498000D01*
X164785597Y-176497568D01*
X164785155Y-176496683D01*
X164783046Y-176486987D01*
X164783000Y-176486562D01*
X164783000Y-116827973D01*
X164783081Y-116827410D01*
X164788081Y-116810380D01*
X164788673Y-116809815D01*
X164788673Y-116809000D01*
X164789095Y-116808488D01*
X164792432Y-116805597D01*
X164793317Y-116805155D01*
X164803013Y-116803046D01*
X164803438Y-116803000D01*
X168552027Y-116803000D01*
X168552590Y-116803081D01*
G37*
G36*
X166934599Y-172468518D02*
G01*
X166934943Y-172468578D01*
X167162245Y-172529483D01*
X167162572Y-172529602D01*
X167375845Y-172629053D01*
X167376147Y-172629228D01*
X167568910Y-172764202D01*
X167569177Y-172764426D01*
X167735574Y-172930823D01*
X167735798Y-172931090D01*
X167870772Y-173123853D01*
X167870947Y-173124155D01*
X167970398Y-173337428D01*
X167970517Y-173337755D01*
X168031422Y-173565057D01*
X168031482Y-173565401D01*
X168051992Y-173799826D01*
X168051992Y-173800174D01*
X168031482Y-174034599D01*
X168031422Y-174034943D01*
X167970517Y-174262245D01*
X167970398Y-174262572D01*
X167870947Y-174475845D01*
X167870772Y-174476147D01*
X167735798Y-174668910D01*
X167735574Y-174669177D01*
X167569177Y-174835574D01*
X167568910Y-174835798D01*
X167376147Y-174970772D01*
X167375845Y-174970947D01*
X167162572Y-175070398D01*
X167162245Y-175070517D01*
X166934943Y-175131422D01*
X166934599Y-175131482D01*
X166700174Y-175151992D01*
X166699826Y-175151992D01*
X166465401Y-175131482D01*
X166465057Y-175131422D01*
X166237755Y-175070517D01*
X166237428Y-175070398D01*
X166024155Y-174970947D01*
X166023853Y-174970772D01*
X165831090Y-174835798D01*
X165830823Y-174835574D01*
X165664426Y-174669177D01*
X165664202Y-174668910D01*
X165529228Y-174476147D01*
X165529053Y-174475845D01*
X165429602Y-174262572D01*
X165429483Y-174262245D01*
X165368578Y-174034943D01*
X165368518Y-174034599D01*
X165348939Y-173810812D01*
X165357972Y-173810812D01*
X165376484Y-174022390D01*
X165380238Y-174043685D01*
X165435211Y-174248850D01*
X165442599Y-174269147D01*
X165532368Y-174461659D01*
X165543176Y-174480376D01*
X165664997Y-174654355D01*
X165678898Y-174670923D01*
X165829077Y-174821102D01*
X165845645Y-174835003D01*
X166019624Y-174956824D01*
X166038341Y-174967632D01*
X166230853Y-175057401D01*
X166251150Y-175064789D01*
X166456315Y-175119762D01*
X166477610Y-175123516D01*
X166689188Y-175142028D01*
X166710812Y-175142028D01*
X166922390Y-175123516D01*
X166943685Y-175119762D01*
X167148850Y-175064789D01*
X167169147Y-175057401D01*
X167361659Y-174967632D01*
X167380376Y-174956824D01*
X167554355Y-174835003D01*
X167570923Y-174821102D01*
X167721102Y-174670923D01*
X167735003Y-174654355D01*
X167856824Y-174480376D01*
X167867632Y-174461659D01*
X167957401Y-174269147D01*
X167964789Y-174248850D01*
X168019762Y-174043685D01*
X168023516Y-174022390D01*
X168042028Y-173810812D01*
X168042028Y-173789188D01*
X168023516Y-173577610D01*
X168019762Y-173556315D01*
X167964789Y-173351150D01*
X167957401Y-173330853D01*
X167867632Y-173138341D01*
X167856824Y-173119624D01*
X167735003Y-172945645D01*
X167721102Y-172929077D01*
X167570923Y-172778898D01*
X167554355Y-172764997D01*
X167380376Y-172643176D01*
X167361659Y-172632368D01*
X167169147Y-172542599D01*
X167148850Y-172535211D01*
X166943685Y-172480238D01*
X166922390Y-172476484D01*
X166710812Y-172457972D01*
X166689188Y-172457972D01*
X166477610Y-172476484D01*
X166456315Y-172480238D01*
X166251150Y-172535211D01*
X166230853Y-172542599D01*
X166038341Y-172632368D01*
X166019624Y-172643176D01*
X165845645Y-172764997D01*
X165829077Y-172778898D01*
X165678898Y-172929077D01*
X165664997Y-172945645D01*
X165543176Y-173119624D01*
X165532368Y-173138341D01*
X165442599Y-173330853D01*
X165435211Y-173351150D01*
X165380238Y-173556315D01*
X165376484Y-173577610D01*
X165357972Y-173789188D01*
X165357972Y-173810812D01*
X165348939Y-173810812D01*
X165348008Y-173800174D01*
X165348008Y-173799826D01*
X165368518Y-173565401D01*
X165368578Y-173565057D01*
X165429483Y-173337755D01*
X165429602Y-173337428D01*
X165529053Y-173124155D01*
X165529228Y-173123853D01*
X165664202Y-172931090D01*
X165664426Y-172930823D01*
X165830823Y-172764426D01*
X165831090Y-172764202D01*
X166023853Y-172629228D01*
X166024155Y-172629053D01*
X166237428Y-172529602D01*
X166237755Y-172529483D01*
X166465057Y-172468578D01*
X166465401Y-172468518D01*
X166699826Y-172448008D01*
X166700174Y-172448008D01*
X166934599Y-172468518D01*
G37*
G36*
X103802590Y-116793081D02*
G01*
X103819620Y-116798081D01*
X103820185Y-116798673D01*
X103821000Y-116798673D01*
X103821512Y-116799095D01*
X103824403Y-116802432D01*
X103824845Y-116803317D01*
X103826954Y-116813013D01*
X103827000Y-116813438D01*
X103827000Y-176482027D01*
X103826919Y-176482590D01*
X103821919Y-176499620D01*
X103821327Y-176500185D01*
X103821327Y-176501000D01*
X103820905Y-176501512D01*
X103817568Y-176504403D01*
X103816683Y-176504845D01*
X103806987Y-176506954D01*
X103806562Y-176507000D01*
X100017973Y-176507000D01*
X100017410Y-176506919D01*
X100000380Y-176501919D01*
X99999815Y-176501327D01*
X99999000Y-176501327D01*
X99998488Y-176500905D01*
X99995971Y-176498000D01*
X100002000Y-176498000D01*
X103818000Y-176498000D01*
X103818000Y-116802000D01*
X100002000Y-116802000D01*
X100002000Y-176498000D01*
X99995971Y-176498000D01*
X99995597Y-176497568D01*
X99995155Y-176496683D01*
X99993046Y-176486987D01*
X99993000Y-176486562D01*
X99993000Y-116817973D01*
X99993081Y-116817410D01*
X99998081Y-116800380D01*
X99998673Y-116799815D01*
X99998673Y-116799000D01*
X99999095Y-116798488D01*
X100002432Y-116795597D01*
X100003317Y-116795155D01*
X100013013Y-116793046D01*
X100013438Y-116793000D01*
X103802027Y-116793000D01*
X103802590Y-116793081D01*
G37*
G36*
X102234599Y-172468518D02*
G01*
X102234943Y-172468578D01*
X102462245Y-172529483D01*
X102462572Y-172529602D01*
X102675845Y-172629053D01*
X102676147Y-172629228D01*
X102868910Y-172764202D01*
X102869177Y-172764426D01*
X103035574Y-172930823D01*
X103035798Y-172931090D01*
X103170772Y-173123853D01*
X103170947Y-173124155D01*
X103270398Y-173337428D01*
X103270517Y-173337755D01*
X103331422Y-173565057D01*
X103331482Y-173565401D01*
X103351992Y-173799826D01*
X103351992Y-173800174D01*
X103331482Y-174034599D01*
X103331422Y-174034943D01*
X103270517Y-174262245D01*
X103270398Y-174262572D01*
X103170947Y-174475845D01*
X103170772Y-174476147D01*
X103035798Y-174668910D01*
X103035574Y-174669177D01*
X102869177Y-174835574D01*
X102868910Y-174835798D01*
X102676147Y-174970772D01*
X102675845Y-174970947D01*
X102462572Y-175070398D01*
X102462245Y-175070517D01*
X102234943Y-175131422D01*
X102234599Y-175131482D01*
X102000174Y-175151992D01*
X101999826Y-175151992D01*
X101765401Y-175131482D01*
X101765057Y-175131422D01*
X101537755Y-175070517D01*
X101537428Y-175070398D01*
X101324155Y-174970947D01*
X101323853Y-174970772D01*
X101131090Y-174835798D01*
X101130823Y-174835574D01*
X100964426Y-174669177D01*
X100964202Y-174668910D01*
X100829228Y-174476147D01*
X100829053Y-174475845D01*
X100729602Y-174262572D01*
X100729483Y-174262245D01*
X100668578Y-174034943D01*
X100668518Y-174034599D01*
X100648939Y-173810812D01*
X100657972Y-173810812D01*
X100676484Y-174022390D01*
X100680238Y-174043685D01*
X100735211Y-174248850D01*
X100742599Y-174269147D01*
X100832368Y-174461659D01*
X100843176Y-174480376D01*
X100964997Y-174654355D01*
X100978898Y-174670923D01*
X101129077Y-174821102D01*
X101145645Y-174835003D01*
X101319624Y-174956824D01*
X101338341Y-174967632D01*
X101530853Y-175057401D01*
X101551150Y-175064789D01*
X101756315Y-175119762D01*
X101777610Y-175123516D01*
X101989188Y-175142028D01*
X102010812Y-175142028D01*
X102222390Y-175123516D01*
X102243685Y-175119762D01*
X102448850Y-175064789D01*
X102469147Y-175057401D01*
X102661659Y-174967632D01*
X102680376Y-174956824D01*
X102854355Y-174835003D01*
X102870923Y-174821102D01*
X103021102Y-174670923D01*
X103035003Y-174654355D01*
X103156824Y-174480376D01*
X103167632Y-174461659D01*
X103257401Y-174269147D01*
X103264789Y-174248850D01*
X103319762Y-174043685D01*
X103323516Y-174022390D01*
X103342028Y-173810812D01*
X103342028Y-173789188D01*
X103323516Y-173577610D01*
X103319762Y-173556315D01*
X103264789Y-173351150D01*
X103257401Y-173330853D01*
X103167632Y-173138341D01*
X103156824Y-173119624D01*
X103035003Y-172945645D01*
X103021102Y-172929077D01*
X102870923Y-172778898D01*
X102854355Y-172764997D01*
X102680376Y-172643176D01*
X102661659Y-172632368D01*
X102469147Y-172542599D01*
X102448850Y-172535211D01*
X102243685Y-172480238D01*
X102222390Y-172476484D01*
X102010812Y-172457972D01*
X101989188Y-172457972D01*
X101777610Y-172476484D01*
X101756315Y-172480238D01*
X101551150Y-172535211D01*
X101530853Y-172542599D01*
X101338341Y-172632368D01*
X101319624Y-172643176D01*
X101145645Y-172764997D01*
X101129077Y-172778898D01*
X100978898Y-172929077D01*
X100964997Y-172945645D01*
X100843176Y-173119624D01*
X100832368Y-173138341D01*
X100742599Y-173330853D01*
X100735211Y-173351150D01*
X100680238Y-173556315D01*
X100676484Y-173577610D01*
X100657972Y-173789188D01*
X100657972Y-173810812D01*
X100648939Y-173810812D01*
X100648008Y-173800174D01*
X100648008Y-173799826D01*
X100668518Y-173565401D01*
X100668578Y-173565057D01*
X100729483Y-173337755D01*
X100729602Y-173337428D01*
X100829053Y-173124155D01*
X100829228Y-173123853D01*
X100964202Y-172931090D01*
X100964426Y-172930823D01*
X101130823Y-172764426D01*
X101131090Y-172764202D01*
X101323853Y-172629228D01*
X101324155Y-172629053D01*
X101537428Y-172529602D01*
X101537755Y-172529483D01*
X101765057Y-172468578D01*
X101765401Y-172468518D01*
X101999826Y-172448008D01*
X102000174Y-172448008D01*
X102234599Y-172468518D01*
G37*
G36*
X150530633Y-165089517D02*
G01*
X150531197Y-165091436D01*
X150530916Y-165092075D01*
X150520767Y-165107263D01*
X150517000Y-165126199D01*
X150517000Y-167025801D01*
X150520767Y-167044738D01*
X150530814Y-167059773D01*
X150530945Y-167061768D01*
X150529282Y-167062880D01*
X150528553Y-167062793D01*
X150468212Y-167043898D01*
X150403310Y-167062955D01*
X150401367Y-167062483D01*
X150400803Y-167060564D01*
X150401084Y-167059925D01*
X150411233Y-167044737D01*
X150415000Y-167025801D01*
X150415000Y-165126199D01*
X150411233Y-165107262D01*
X150401186Y-165092227D01*
X150401055Y-165090232D01*
X150402718Y-165089120D01*
X150403447Y-165089207D01*
X150463788Y-165108102D01*
X150528690Y-165089045D01*
X150530633Y-165089517D01*
G37*
G36*
X151530633Y-165089517D02*
G01*
X151531197Y-165091436D01*
X151530916Y-165092075D01*
X151520767Y-165107263D01*
X151517000Y-165126199D01*
X151517000Y-167025801D01*
X151520767Y-167044738D01*
X151530814Y-167059773D01*
X151530945Y-167061768D01*
X151529282Y-167062880D01*
X151528553Y-167062793D01*
X151468212Y-167043898D01*
X151403310Y-167062955D01*
X151401367Y-167062483D01*
X151400803Y-167060564D01*
X151401084Y-167059925D01*
X151411233Y-167044737D01*
X151415000Y-167025801D01*
X151415000Y-165126199D01*
X151411233Y-165107262D01*
X151401186Y-165092227D01*
X151401055Y-165090232D01*
X151402718Y-165089120D01*
X151403447Y-165089207D01*
X151463788Y-165108102D01*
X151528690Y-165089045D01*
X151530633Y-165089517D01*
G37*
G36*
X118614633Y-165089517D02*
G01*
X118615197Y-165091436D01*
X118614916Y-165092075D01*
X118604767Y-165107263D01*
X118601000Y-165126199D01*
X118601000Y-167025801D01*
X118604767Y-167044738D01*
X118614814Y-167059773D01*
X118614945Y-167061768D01*
X118613282Y-167062880D01*
X118612553Y-167062793D01*
X118552212Y-167043898D01*
X118487310Y-167062955D01*
X118485367Y-167062483D01*
X118484803Y-167060564D01*
X118485084Y-167059925D01*
X118495233Y-167044737D01*
X118499000Y-167025801D01*
X118499000Y-165126199D01*
X118495233Y-165107262D01*
X118485186Y-165092227D01*
X118485055Y-165090232D01*
X118486718Y-165089120D01*
X118487447Y-165089207D01*
X118547788Y-165108102D01*
X118612690Y-165089045D01*
X118614633Y-165089517D01*
G37*
G36*
X153030633Y-165089517D02*
G01*
X153031197Y-165091436D01*
X153030916Y-165092075D01*
X153020767Y-165107263D01*
X153017000Y-165126199D01*
X153017000Y-167025801D01*
X153020767Y-167044738D01*
X153030814Y-167059773D01*
X153030945Y-167061768D01*
X153029282Y-167062880D01*
X153028553Y-167062793D01*
X152968212Y-167043898D01*
X152903310Y-167062955D01*
X152901367Y-167062483D01*
X152900803Y-167060564D01*
X152901084Y-167059925D01*
X152911233Y-167044737D01*
X152915000Y-167025801D01*
X152915000Y-165126199D01*
X152911233Y-165107262D01*
X152901186Y-165092227D01*
X152901055Y-165090232D01*
X152902718Y-165089120D01*
X152903447Y-165089207D01*
X152963788Y-165108102D01*
X153028690Y-165089045D01*
X153030633Y-165089517D01*
G37*
G36*
X150030633Y-165089517D02*
G01*
X150031197Y-165091436D01*
X150030916Y-165092075D01*
X150020767Y-165107263D01*
X150017000Y-165126199D01*
X150017000Y-167025801D01*
X150020767Y-167044738D01*
X150030814Y-167059773D01*
X150030945Y-167061768D01*
X150029282Y-167062880D01*
X150028553Y-167062793D01*
X149968212Y-167043898D01*
X149903310Y-167062955D01*
X149901367Y-167062483D01*
X149900803Y-167060564D01*
X149901084Y-167059925D01*
X149911233Y-167044737D01*
X149915000Y-167025801D01*
X149915000Y-165126199D01*
X149911233Y-165107262D01*
X149901186Y-165092227D01*
X149901055Y-165090232D01*
X149902718Y-165089120D01*
X149903447Y-165089207D01*
X149963788Y-165108102D01*
X150028690Y-165089045D01*
X150030633Y-165089517D01*
G37*
G36*
X147030633Y-165089517D02*
G01*
X147031197Y-165091436D01*
X147030916Y-165092075D01*
X147020767Y-165107263D01*
X147017000Y-165126199D01*
X147017000Y-167025801D01*
X147020767Y-167044738D01*
X147030814Y-167059773D01*
X147030945Y-167061768D01*
X147029282Y-167062880D01*
X147028553Y-167062793D01*
X146968212Y-167043898D01*
X146903310Y-167062955D01*
X146901367Y-167062483D01*
X146900803Y-167060564D01*
X146901084Y-167059925D01*
X146911233Y-167044737D01*
X146915000Y-167025801D01*
X146915000Y-165126199D01*
X146911233Y-165107262D01*
X146901186Y-165092227D01*
X146901055Y-165090232D01*
X146902718Y-165089120D01*
X146903447Y-165089207D01*
X146963788Y-165108102D01*
X147028690Y-165089045D01*
X147030633Y-165089517D01*
G37*
G36*
X152530633Y-165089517D02*
G01*
X152531197Y-165091436D01*
X152530916Y-165092075D01*
X152520767Y-165107263D01*
X152517000Y-165126199D01*
X152517000Y-167025801D01*
X152520767Y-167044738D01*
X152530814Y-167059773D01*
X152530945Y-167061768D01*
X152529282Y-167062880D01*
X152528553Y-167062793D01*
X152468212Y-167043898D01*
X152403310Y-167062955D01*
X152401367Y-167062483D01*
X152400803Y-167060564D01*
X152401084Y-167059925D01*
X152411233Y-167044737D01*
X152415000Y-167025801D01*
X152415000Y-165126199D01*
X152411233Y-165107262D01*
X152401186Y-165092227D01*
X152401055Y-165090232D01*
X152402718Y-165089120D01*
X152403447Y-165089207D01*
X152463788Y-165108102D01*
X152528690Y-165089045D01*
X152530633Y-165089517D01*
G37*
G36*
X122114633Y-165089517D02*
G01*
X122115197Y-165091436D01*
X122114916Y-165092075D01*
X122104767Y-165107263D01*
X122101000Y-165126199D01*
X122101000Y-167025801D01*
X122104767Y-167044738D01*
X122114814Y-167059773D01*
X122114945Y-167061768D01*
X122113282Y-167062880D01*
X122112553Y-167062793D01*
X122052212Y-167043898D01*
X121987310Y-167062955D01*
X121985367Y-167062483D01*
X121984803Y-167060564D01*
X121985084Y-167059925D01*
X121995233Y-167044737D01*
X121999000Y-167025801D01*
X121999000Y-165126199D01*
X121995233Y-165107262D01*
X121985186Y-165092227D01*
X121985055Y-165090232D01*
X121986718Y-165089120D01*
X121987447Y-165089207D01*
X122047788Y-165108102D01*
X122112690Y-165089045D01*
X122114633Y-165089517D01*
G37*
G36*
X145030633Y-165089517D02*
G01*
X145031197Y-165091436D01*
X145030916Y-165092075D01*
X145020767Y-165107263D01*
X145017000Y-165126199D01*
X145017000Y-167025801D01*
X145020767Y-167044738D01*
X145030814Y-167059773D01*
X145030945Y-167061768D01*
X145029282Y-167062880D01*
X145028553Y-167062793D01*
X144968212Y-167043898D01*
X144903310Y-167062955D01*
X144901367Y-167062483D01*
X144900803Y-167060564D01*
X144901084Y-167059925D01*
X144911233Y-167044737D01*
X144915000Y-167025801D01*
X144915000Y-165126199D01*
X144911233Y-165107262D01*
X144901186Y-165092227D01*
X144901055Y-165090232D01*
X144902718Y-165089120D01*
X144903447Y-165089207D01*
X144963788Y-165108102D01*
X145028690Y-165089045D01*
X145030633Y-165089517D01*
G37*
G36*
X151030633Y-165089517D02*
G01*
X151031197Y-165091436D01*
X151030916Y-165092075D01*
X151020767Y-165107263D01*
X151017000Y-165126199D01*
X151017000Y-167025801D01*
X151020767Y-167044738D01*
X151030814Y-167059773D01*
X151030945Y-167061768D01*
X151029282Y-167062880D01*
X151028553Y-167062793D01*
X150968212Y-167043898D01*
X150903310Y-167062955D01*
X150901367Y-167062483D01*
X150900803Y-167060564D01*
X150901084Y-167059925D01*
X150911233Y-167044737D01*
X150915000Y-167025801D01*
X150915000Y-165126199D01*
X150911233Y-165107262D01*
X150901186Y-165092227D01*
X150901055Y-165090232D01*
X150902718Y-165089120D01*
X150903447Y-165089207D01*
X150963788Y-165108102D01*
X151028690Y-165089045D01*
X151030633Y-165089517D01*
G37*
G36*
X120614633Y-165089517D02*
G01*
X120615197Y-165091436D01*
X120614916Y-165092075D01*
X120604767Y-165107263D01*
X120601000Y-165126199D01*
X120601000Y-167025801D01*
X120604767Y-167044738D01*
X120614814Y-167059773D01*
X120614945Y-167061768D01*
X120613282Y-167062880D01*
X120612553Y-167062793D01*
X120552212Y-167043898D01*
X120487310Y-167062955D01*
X120485367Y-167062483D01*
X120484803Y-167060564D01*
X120485084Y-167059925D01*
X120495233Y-167044737D01*
X120499000Y-167025801D01*
X120499000Y-165126199D01*
X120495233Y-165107262D01*
X120485186Y-165092227D01*
X120485055Y-165090232D01*
X120486718Y-165089120D01*
X120487447Y-165089207D01*
X120547788Y-165108102D01*
X120612690Y-165089045D01*
X120614633Y-165089517D01*
G37*
G36*
X149030633Y-165089517D02*
G01*
X149031197Y-165091436D01*
X149030916Y-165092075D01*
X149020767Y-165107263D01*
X149017000Y-165126199D01*
X149017000Y-167025801D01*
X149020767Y-167044738D01*
X149030814Y-167059773D01*
X149030945Y-167061768D01*
X149029282Y-167062880D01*
X149028553Y-167062793D01*
X148968212Y-167043898D01*
X148903310Y-167062955D01*
X148901367Y-167062483D01*
X148900803Y-167060564D01*
X148901084Y-167059925D01*
X148911233Y-167044737D01*
X148915000Y-167025801D01*
X148915000Y-165126199D01*
X148911233Y-165107262D01*
X148901186Y-165092227D01*
X148901055Y-165090232D01*
X148902718Y-165089120D01*
X148903447Y-165089207D01*
X148963788Y-165108102D01*
X149028690Y-165089045D01*
X149030633Y-165089517D01*
G37*
G36*
X126614633Y-165089517D02*
G01*
X126615197Y-165091436D01*
X126614916Y-165092075D01*
X126604767Y-165107263D01*
X126601000Y-165126199D01*
X126601000Y-167025801D01*
X126604767Y-167044738D01*
X126614814Y-167059773D01*
X126614945Y-167061768D01*
X126613282Y-167062880D01*
X126612553Y-167062793D01*
X126552212Y-167043898D01*
X126487310Y-167062955D01*
X126485367Y-167062483D01*
X126484803Y-167060564D01*
X126485084Y-167059925D01*
X126495233Y-167044737D01*
X126499000Y-167025801D01*
X126499000Y-165126199D01*
X126495233Y-165107262D01*
X126485186Y-165092227D01*
X126485055Y-165090232D01*
X126486718Y-165089120D01*
X126487447Y-165089207D01*
X126547788Y-165108102D01*
X126612690Y-165089045D01*
X126614633Y-165089517D01*
G37*
G36*
X126114633Y-165089517D02*
G01*
X126115197Y-165091436D01*
X126114916Y-165092075D01*
X126104767Y-165107263D01*
X126101000Y-165126199D01*
X126101000Y-167025801D01*
X126104767Y-167044738D01*
X126114814Y-167059773D01*
X126114945Y-167061768D01*
X126113282Y-167062880D01*
X126112553Y-167062793D01*
X126052212Y-167043898D01*
X125987310Y-167062955D01*
X125985367Y-167062483D01*
X125984803Y-167060564D01*
X125985084Y-167059925D01*
X125995233Y-167044737D01*
X125999000Y-167025801D01*
X125999000Y-165126199D01*
X125995233Y-165107262D01*
X125985186Y-165092227D01*
X125985055Y-165090232D01*
X125986718Y-165089120D01*
X125987447Y-165089207D01*
X126047788Y-165108102D01*
X126112690Y-165089045D01*
X126114633Y-165089517D01*
G37*
G36*
X122614633Y-165089517D02*
G01*
X122615197Y-165091436D01*
X122614916Y-165092075D01*
X122604767Y-165107263D01*
X122601000Y-165126199D01*
X122601000Y-167025801D01*
X122604767Y-167044738D01*
X122614814Y-167059773D01*
X122614945Y-167061768D01*
X122613282Y-167062880D01*
X122612553Y-167062793D01*
X122552212Y-167043898D01*
X122487310Y-167062955D01*
X122485367Y-167062483D01*
X122484803Y-167060564D01*
X122485084Y-167059925D01*
X122495233Y-167044737D01*
X122499000Y-167025801D01*
X122499000Y-165126199D01*
X122495233Y-165107262D01*
X122485186Y-165092227D01*
X122485055Y-165090232D01*
X122486718Y-165089120D01*
X122487447Y-165089207D01*
X122547788Y-165108102D01*
X122612690Y-165089045D01*
X122614633Y-165089517D01*
G37*
G36*
X120114633Y-165089517D02*
G01*
X120115197Y-165091436D01*
X120114916Y-165092075D01*
X120104767Y-165107263D01*
X120101000Y-165126199D01*
X120101000Y-167025801D01*
X120104767Y-167044738D01*
X120114814Y-167059773D01*
X120114945Y-167061768D01*
X120113282Y-167062880D01*
X120112553Y-167062793D01*
X120052212Y-167043898D01*
X119987310Y-167062955D01*
X119985367Y-167062483D01*
X119984803Y-167060564D01*
X119985084Y-167059925D01*
X119995233Y-167044737D01*
X119999000Y-167025801D01*
X119999000Y-165126199D01*
X119995233Y-165107262D01*
X119985186Y-165092227D01*
X119985055Y-165090232D01*
X119986718Y-165089120D01*
X119987447Y-165089207D01*
X120047788Y-165108102D01*
X120112690Y-165089045D01*
X120114633Y-165089517D01*
G37*
G36*
X149530633Y-165089517D02*
G01*
X149531197Y-165091436D01*
X149530916Y-165092075D01*
X149520767Y-165107263D01*
X149517000Y-165126199D01*
X149517000Y-167025801D01*
X149520767Y-167044738D01*
X149530814Y-167059773D01*
X149530945Y-167061768D01*
X149529282Y-167062880D01*
X149528553Y-167062793D01*
X149468212Y-167043898D01*
X149403310Y-167062955D01*
X149401367Y-167062483D01*
X149400803Y-167060564D01*
X149401084Y-167059925D01*
X149411233Y-167044737D01*
X149415000Y-167025801D01*
X149415000Y-165126199D01*
X149411233Y-165107262D01*
X149401186Y-165092227D01*
X149401055Y-165090232D01*
X149402718Y-165089120D01*
X149403447Y-165089207D01*
X149463788Y-165108102D01*
X149528690Y-165089045D01*
X149530633Y-165089517D01*
G37*
G36*
X145530633Y-165089517D02*
G01*
X145531197Y-165091436D01*
X145530916Y-165092075D01*
X145520767Y-165107263D01*
X145517000Y-165126199D01*
X145517000Y-167025801D01*
X145520767Y-167044738D01*
X145530814Y-167059773D01*
X145530945Y-167061768D01*
X145529282Y-167062880D01*
X145528553Y-167062793D01*
X145468212Y-167043898D01*
X145403310Y-167062955D01*
X145401367Y-167062483D01*
X145400803Y-167060564D01*
X145401084Y-167059925D01*
X145411233Y-167044737D01*
X145415000Y-167025801D01*
X145415000Y-165126199D01*
X145411233Y-165107262D01*
X145401186Y-165092227D01*
X145401055Y-165090232D01*
X145402718Y-165089120D01*
X145403447Y-165089207D01*
X145463788Y-165108102D01*
X145528690Y-165089045D01*
X145530633Y-165089517D01*
G37*
G36*
X148530633Y-165089517D02*
G01*
X148531197Y-165091436D01*
X148530916Y-165092075D01*
X148520767Y-165107263D01*
X148517000Y-165126199D01*
X148517000Y-167025801D01*
X148520767Y-167044738D01*
X148530814Y-167059773D01*
X148530945Y-167061768D01*
X148529282Y-167062880D01*
X148528553Y-167062793D01*
X148468212Y-167043898D01*
X148403310Y-167062955D01*
X148401367Y-167062483D01*
X148400803Y-167060564D01*
X148401084Y-167059925D01*
X148411233Y-167044737D01*
X148415000Y-167025801D01*
X148415000Y-165126199D01*
X148411233Y-165107262D01*
X148401186Y-165092227D01*
X148401055Y-165090232D01*
X148402718Y-165089120D01*
X148403447Y-165089207D01*
X148463788Y-165108102D01*
X148528690Y-165089045D01*
X148530633Y-165089517D01*
G37*
G36*
X124614633Y-165089517D02*
G01*
X124615197Y-165091436D01*
X124614916Y-165092075D01*
X124604767Y-165107263D01*
X124601000Y-165126199D01*
X124601000Y-167025801D01*
X124604767Y-167044738D01*
X124614814Y-167059773D01*
X124614945Y-167061768D01*
X124613282Y-167062880D01*
X124612553Y-167062793D01*
X124552212Y-167043898D01*
X124487310Y-167062955D01*
X124485367Y-167062483D01*
X124484803Y-167060564D01*
X124485084Y-167059925D01*
X124495233Y-167044737D01*
X124499000Y-167025801D01*
X124499000Y-165126199D01*
X124495233Y-165107262D01*
X124485186Y-165092227D01*
X124485055Y-165090232D01*
X124486718Y-165089120D01*
X124487447Y-165089207D01*
X124547788Y-165108102D01*
X124612690Y-165089045D01*
X124614633Y-165089517D01*
G37*
G36*
X125614633Y-165089517D02*
G01*
X125615197Y-165091436D01*
X125614916Y-165092075D01*
X125604767Y-165107263D01*
X125601000Y-165126199D01*
X125601000Y-167025801D01*
X125604767Y-167044738D01*
X125614814Y-167059773D01*
X125614945Y-167061768D01*
X125613282Y-167062880D01*
X125612553Y-167062793D01*
X125552212Y-167043898D01*
X125487310Y-167062955D01*
X125485367Y-167062483D01*
X125484803Y-167060564D01*
X125485084Y-167059925D01*
X125495233Y-167044737D01*
X125499000Y-167025801D01*
X125499000Y-165126199D01*
X125495233Y-165107262D01*
X125485186Y-165092227D01*
X125485055Y-165090232D01*
X125486718Y-165089120D01*
X125487447Y-165089207D01*
X125547788Y-165108102D01*
X125612690Y-165089045D01*
X125614633Y-165089517D01*
G37*
G36*
X123114633Y-165089517D02*
G01*
X123115197Y-165091436D01*
X123114916Y-165092075D01*
X123104767Y-165107263D01*
X123101000Y-165126199D01*
X123101000Y-167025801D01*
X123104767Y-167044738D01*
X123114814Y-167059773D01*
X123114945Y-167061768D01*
X123113282Y-167062880D01*
X123112553Y-167062793D01*
X123052212Y-167043898D01*
X122987310Y-167062955D01*
X122985367Y-167062483D01*
X122984803Y-167060564D01*
X122985084Y-167059925D01*
X122995233Y-167044737D01*
X122999000Y-167025801D01*
X122999000Y-165126199D01*
X122995233Y-165107262D01*
X122985186Y-165092227D01*
X122985055Y-165090232D01*
X122986718Y-165089120D01*
X122987447Y-165089207D01*
X123047788Y-165108102D01*
X123112690Y-165089045D01*
X123114633Y-165089517D01*
G37*
G36*
X146530633Y-165089517D02*
G01*
X146531197Y-165091436D01*
X146530916Y-165092075D01*
X146520767Y-165107263D01*
X146517000Y-165126199D01*
X146517000Y-167025801D01*
X146520767Y-167044738D01*
X146530814Y-167059773D01*
X146530945Y-167061768D01*
X146529282Y-167062880D01*
X146528553Y-167062793D01*
X146468212Y-167043898D01*
X146403310Y-167062955D01*
X146401367Y-167062483D01*
X146400803Y-167060564D01*
X146401084Y-167059925D01*
X146411233Y-167044737D01*
X146415000Y-167025801D01*
X146415000Y-165126199D01*
X146411233Y-165107262D01*
X146401186Y-165092227D01*
X146401055Y-165090232D01*
X146402718Y-165089120D01*
X146403447Y-165089207D01*
X146463788Y-165108102D01*
X146528690Y-165089045D01*
X146530633Y-165089517D01*
G37*
G36*
X119614633Y-165089517D02*
G01*
X119615197Y-165091436D01*
X119614916Y-165092075D01*
X119604767Y-165107263D01*
X119601000Y-165126199D01*
X119601000Y-167025801D01*
X119604767Y-167044738D01*
X119614814Y-167059773D01*
X119614945Y-167061768D01*
X119613282Y-167062880D01*
X119612553Y-167062793D01*
X119552212Y-167043898D01*
X119487310Y-167062955D01*
X119485367Y-167062483D01*
X119484803Y-167060564D01*
X119485084Y-167059925D01*
X119495233Y-167044737D01*
X119499000Y-167025801D01*
X119499000Y-165126199D01*
X119495233Y-165107262D01*
X119485186Y-165092227D01*
X119485055Y-165090232D01*
X119486718Y-165089120D01*
X119487447Y-165089207D01*
X119547788Y-165108102D01*
X119612690Y-165089045D01*
X119614633Y-165089517D01*
G37*
G36*
X144530633Y-165089517D02*
G01*
X144531197Y-165091436D01*
X144530916Y-165092075D01*
X144520767Y-165107263D01*
X144517000Y-165126199D01*
X144517000Y-167025801D01*
X144520767Y-167044738D01*
X144530814Y-167059773D01*
X144530945Y-167061768D01*
X144529282Y-167062880D01*
X144528553Y-167062793D01*
X144468212Y-167043898D01*
X144403310Y-167062955D01*
X144401367Y-167062483D01*
X144400803Y-167060564D01*
X144401084Y-167059925D01*
X144411233Y-167044737D01*
X144415000Y-167025801D01*
X144415000Y-165126199D01*
X144411233Y-165107262D01*
X144401186Y-165092227D01*
X144401055Y-165090232D01*
X144402718Y-165089120D01*
X144403447Y-165089207D01*
X144463788Y-165108102D01*
X144528690Y-165089045D01*
X144530633Y-165089517D01*
G37*
G36*
X124114633Y-165089517D02*
G01*
X124115197Y-165091436D01*
X124114916Y-165092075D01*
X124104767Y-165107263D01*
X124101000Y-165126199D01*
X124101000Y-167025801D01*
X124104767Y-167044738D01*
X124114814Y-167059773D01*
X124114945Y-167061768D01*
X124113282Y-167062880D01*
X124112553Y-167062793D01*
X124052212Y-167043898D01*
X123987310Y-167062955D01*
X123985367Y-167062483D01*
X123984803Y-167060564D01*
X123985084Y-167059925D01*
X123995233Y-167044737D01*
X123999000Y-167025801D01*
X123999000Y-165126199D01*
X123995233Y-165107262D01*
X123985186Y-165092227D01*
X123985055Y-165090232D01*
X123986718Y-165089120D01*
X123987447Y-165089207D01*
X124047788Y-165108102D01*
X124112690Y-165089045D01*
X124114633Y-165089517D01*
G37*
G36*
X148030633Y-165089517D02*
G01*
X148031197Y-165091436D01*
X148030916Y-165092075D01*
X148020767Y-165107263D01*
X148017000Y-165126199D01*
X148017000Y-167025801D01*
X148020767Y-167044738D01*
X148030814Y-167059773D01*
X148030945Y-167061768D01*
X148029282Y-167062880D01*
X148028553Y-167062793D01*
X147968212Y-167043898D01*
X147903310Y-167062955D01*
X147901367Y-167062483D01*
X147900803Y-167060564D01*
X147901084Y-167059925D01*
X147911233Y-167044737D01*
X147915000Y-167025801D01*
X147915000Y-165126199D01*
X147911233Y-165107262D01*
X147901186Y-165092227D01*
X147901055Y-165090232D01*
X147902718Y-165089120D01*
X147903447Y-165089207D01*
X147963788Y-165108102D01*
X148028690Y-165089045D01*
X148030633Y-165089517D01*
G37*
G36*
X146030633Y-165089517D02*
G01*
X146031197Y-165091436D01*
X146030916Y-165092075D01*
X146020767Y-165107263D01*
X146017000Y-165126199D01*
X146017000Y-167025801D01*
X146020767Y-167044738D01*
X146030814Y-167059773D01*
X146030945Y-167061768D01*
X146029282Y-167062880D01*
X146028553Y-167062793D01*
X145968212Y-167043898D01*
X145903310Y-167062955D01*
X145901367Y-167062483D01*
X145900803Y-167060564D01*
X145901084Y-167059925D01*
X145911233Y-167044737D01*
X145915000Y-167025801D01*
X145915000Y-165126199D01*
X145911233Y-165107262D01*
X145901186Y-165092227D01*
X145901055Y-165090232D01*
X145902718Y-165089120D01*
X145903447Y-165089207D01*
X145963788Y-165108102D01*
X146028690Y-165089045D01*
X146030633Y-165089517D01*
G37*
G36*
X121114633Y-165089517D02*
G01*
X121115197Y-165091436D01*
X121114916Y-165092075D01*
X121104767Y-165107263D01*
X121101000Y-165126199D01*
X121101000Y-167025801D01*
X121104767Y-167044738D01*
X121114814Y-167059773D01*
X121114945Y-167061768D01*
X121113282Y-167062880D01*
X121112553Y-167062793D01*
X121052212Y-167043898D01*
X120987310Y-167062955D01*
X120985367Y-167062483D01*
X120984803Y-167060564D01*
X120985084Y-167059925D01*
X120995233Y-167044737D01*
X120999000Y-167025801D01*
X120999000Y-165126199D01*
X120995233Y-165107262D01*
X120985186Y-165092227D01*
X120985055Y-165090232D01*
X120986718Y-165089120D01*
X120987447Y-165089207D01*
X121047788Y-165108102D01*
X121112690Y-165089045D01*
X121114633Y-165089517D01*
G37*
G36*
X152030633Y-165089517D02*
G01*
X152031197Y-165091436D01*
X152030916Y-165092075D01*
X152020767Y-165107263D01*
X152017000Y-165126199D01*
X152017000Y-167025801D01*
X152020767Y-167044738D01*
X152030814Y-167059773D01*
X152030945Y-167061768D01*
X152029282Y-167062880D01*
X152028553Y-167062793D01*
X151968212Y-167043898D01*
X151903310Y-167062955D01*
X151901367Y-167062483D01*
X151900803Y-167060564D01*
X151901084Y-167059925D01*
X151911233Y-167044737D01*
X151915000Y-167025801D01*
X151915000Y-165126199D01*
X151911233Y-165107262D01*
X151901186Y-165092227D01*
X151901055Y-165090232D01*
X151902718Y-165089120D01*
X151903447Y-165089207D01*
X151963788Y-165108102D01*
X152028690Y-165089045D01*
X152030633Y-165089517D01*
G37*
G36*
X121614633Y-165089517D02*
G01*
X121615197Y-165091436D01*
X121614916Y-165092075D01*
X121604767Y-165107263D01*
X121601000Y-165126199D01*
X121601000Y-167025801D01*
X121604767Y-167044738D01*
X121614814Y-167059773D01*
X121614945Y-167061768D01*
X121613282Y-167062880D01*
X121612553Y-167062793D01*
X121552212Y-167043898D01*
X121487310Y-167062955D01*
X121485367Y-167062483D01*
X121484803Y-167060564D01*
X121485084Y-167059925D01*
X121495233Y-167044737D01*
X121499000Y-167025801D01*
X121499000Y-165126199D01*
X121495233Y-165107262D01*
X121485186Y-165092227D01*
X121485055Y-165090232D01*
X121486718Y-165089120D01*
X121487447Y-165089207D01*
X121547788Y-165108102D01*
X121612690Y-165089045D01*
X121614633Y-165089517D01*
G37*
G36*
X118114633Y-165089517D02*
G01*
X118115197Y-165091436D01*
X118114916Y-165092075D01*
X118104767Y-165107263D01*
X118101000Y-165126199D01*
X118101000Y-167025801D01*
X118104767Y-167044738D01*
X118114814Y-167059773D01*
X118114945Y-167061768D01*
X118113282Y-167062880D01*
X118112553Y-167062793D01*
X118052212Y-167043898D01*
X117987310Y-167062955D01*
X117985367Y-167062483D01*
X117984803Y-167060564D01*
X117985084Y-167059925D01*
X117995233Y-167044737D01*
X117999000Y-167025801D01*
X117999000Y-165126199D01*
X117995233Y-165107262D01*
X117985186Y-165092227D01*
X117985055Y-165090232D01*
X117986718Y-165089120D01*
X117987447Y-165089207D01*
X118047788Y-165108102D01*
X118112690Y-165089045D01*
X118114633Y-165089517D01*
G37*
G36*
X123614633Y-165089517D02*
G01*
X123615197Y-165091436D01*
X123614916Y-165092075D01*
X123604767Y-165107263D01*
X123601000Y-165126199D01*
X123601000Y-167025801D01*
X123604767Y-167044738D01*
X123614814Y-167059773D01*
X123614945Y-167061768D01*
X123613282Y-167062880D01*
X123612553Y-167062793D01*
X123552212Y-167043898D01*
X123487310Y-167062955D01*
X123485367Y-167062483D01*
X123484803Y-167060564D01*
X123485084Y-167059925D01*
X123495233Y-167044737D01*
X123499000Y-167025801D01*
X123499000Y-165126199D01*
X123495233Y-165107262D01*
X123485186Y-165092227D01*
X123485055Y-165090232D01*
X123486718Y-165089120D01*
X123487447Y-165089207D01*
X123547788Y-165108102D01*
X123612690Y-165089045D01*
X123614633Y-165089517D01*
G37*
G36*
X125114633Y-165089517D02*
G01*
X125115197Y-165091436D01*
X125114916Y-165092075D01*
X125104767Y-165107263D01*
X125101000Y-165126199D01*
X125101000Y-167025801D01*
X125104767Y-167044738D01*
X125114814Y-167059773D01*
X125114945Y-167061768D01*
X125113282Y-167062880D01*
X125112553Y-167062793D01*
X125052212Y-167043898D01*
X124987310Y-167062955D01*
X124985367Y-167062483D01*
X124984803Y-167060564D01*
X124985084Y-167059925D01*
X124995233Y-167044737D01*
X124999000Y-167025801D01*
X124999000Y-165126199D01*
X124995233Y-165107262D01*
X124985186Y-165092227D01*
X124985055Y-165090232D01*
X124986718Y-165089120D01*
X124987447Y-165089207D01*
X125047788Y-165108102D01*
X125112690Y-165089045D01*
X125114633Y-165089517D01*
G37*
G36*
X147530633Y-165089517D02*
G01*
X147531197Y-165091436D01*
X147530916Y-165092075D01*
X147520767Y-165107263D01*
X147517000Y-165126199D01*
X147517000Y-167025801D01*
X147520767Y-167044738D01*
X147530814Y-167059773D01*
X147530945Y-167061768D01*
X147529282Y-167062880D01*
X147528553Y-167062793D01*
X147468212Y-167043898D01*
X147403310Y-167062955D01*
X147401367Y-167062483D01*
X147400803Y-167060564D01*
X147401084Y-167059925D01*
X147411233Y-167044737D01*
X147415000Y-167025801D01*
X147415000Y-165126199D01*
X147411233Y-165107262D01*
X147401186Y-165092227D01*
X147401055Y-165090232D01*
X147402718Y-165089120D01*
X147403447Y-165089207D01*
X147463788Y-165108102D01*
X147528690Y-165089045D01*
X147530633Y-165089517D01*
G37*
G36*
X119114633Y-165089517D02*
G01*
X119115197Y-165091436D01*
X119114916Y-165092075D01*
X119104767Y-165107263D01*
X119101000Y-165126199D01*
X119101000Y-167025801D01*
X119104767Y-167044738D01*
X119114814Y-167059773D01*
X119114945Y-167061768D01*
X119113282Y-167062880D01*
X119112553Y-167062793D01*
X119052212Y-167043898D01*
X118987310Y-167062955D01*
X118985367Y-167062483D01*
X118984803Y-167060564D01*
X118985084Y-167059925D01*
X118995233Y-167044737D01*
X118999000Y-167025801D01*
X118999000Y-165126199D01*
X118995233Y-165107262D01*
X118985186Y-165092227D01*
X118985055Y-165090232D01*
X118986718Y-165089120D01*
X118987447Y-165089207D01*
X119047788Y-165108102D01*
X119112690Y-165089045D01*
X119114633Y-165089517D01*
G37*
G36*
X122119632Y-135219518D02*
G01*
X122120196Y-135221437D01*
X122119915Y-135222076D01*
X122109767Y-135237262D01*
X122106000Y-135256199D01*
X122106000Y-136105801D01*
X122109767Y-136124738D01*
X122119814Y-136139773D01*
X122119945Y-136141768D01*
X122118282Y-136142880D01*
X122117553Y-136142793D01*
X122057212Y-136123898D01*
X121992310Y-136142955D01*
X121990367Y-136142483D01*
X121989803Y-136140564D01*
X121990084Y-136139925D01*
X122000233Y-136124737D01*
X122004000Y-136105801D01*
X122004000Y-135256199D01*
X122000233Y-135237262D01*
X121990187Y-135222228D01*
X121990056Y-135220232D01*
X121991719Y-135219121D01*
X121992448Y-135219208D01*
X122052788Y-135238102D01*
X122117689Y-135219046D01*
X122119632Y-135219518D01*
G37*
G36*
X122619633Y-135219515D02*
G01*
X122620197Y-135221434D01*
X122619916Y-135222074D01*
X122609767Y-135237262D01*
X122606000Y-135256199D01*
X122606000Y-136105801D01*
X122609767Y-136124738D01*
X122619814Y-136139773D01*
X122619945Y-136141768D01*
X122618282Y-136142880D01*
X122617553Y-136142793D01*
X122557212Y-136123898D01*
X122492310Y-136142955D01*
X122490367Y-136142483D01*
X122489803Y-136140564D01*
X122490084Y-136139925D01*
X122500233Y-136124737D01*
X122504000Y-136105801D01*
X122504000Y-135256199D01*
X122500233Y-135237262D01*
X122490188Y-135222229D01*
X122490057Y-135220233D01*
X122491720Y-135219122D01*
X122492449Y-135219209D01*
X122552792Y-135238102D01*
X122617689Y-135219044D01*
X122619633Y-135219515D01*
G37*
G36*
X123119633Y-135219516D02*
G01*
X123120197Y-135221435D01*
X123119916Y-135222074D01*
X123109767Y-135237262D01*
X123106000Y-135256199D01*
X123106000Y-136105801D01*
X123109767Y-136124738D01*
X123119814Y-136139773D01*
X123119945Y-136141768D01*
X123118282Y-136142880D01*
X123117553Y-136142793D01*
X123057212Y-136123898D01*
X122992310Y-136142955D01*
X122990367Y-136142483D01*
X122989803Y-136140564D01*
X122990084Y-136139925D01*
X123000233Y-136124737D01*
X123004000Y-136105801D01*
X123004000Y-135256199D01*
X123000233Y-135237262D01*
X122990186Y-135222227D01*
X122990055Y-135220232D01*
X122991718Y-135219120D01*
X122992447Y-135219207D01*
X123052786Y-135238102D01*
X123117690Y-135219044D01*
X123119633Y-135219516D01*
G37*
G36*
X141915633Y-135219516D02*
G01*
X141916197Y-135221435D01*
X141915916Y-135222074D01*
X141905767Y-135237262D01*
X141902000Y-135256199D01*
X141902000Y-136105801D01*
X141905767Y-136124738D01*
X141915814Y-136139773D01*
X141915945Y-136141768D01*
X141914282Y-136142880D01*
X141913553Y-136142793D01*
X141853212Y-136123898D01*
X141788310Y-136142955D01*
X141786367Y-136142483D01*
X141785803Y-136140564D01*
X141786084Y-136139925D01*
X141796233Y-136124737D01*
X141800000Y-136105801D01*
X141800000Y-135256199D01*
X141796233Y-135237262D01*
X141786186Y-135222227D01*
X141786055Y-135220232D01*
X141787718Y-135219120D01*
X141788447Y-135219207D01*
X141848786Y-135238102D01*
X141913690Y-135219044D01*
X141915633Y-135219516D01*
G37*
G36*
X141415633Y-135219515D02*
G01*
X141416197Y-135221434D01*
X141415916Y-135222074D01*
X141405767Y-135237262D01*
X141402000Y-135256199D01*
X141402000Y-136105801D01*
X141405767Y-136124738D01*
X141415814Y-136139773D01*
X141415945Y-136141768D01*
X141414282Y-136142880D01*
X141413553Y-136142793D01*
X141353212Y-136123898D01*
X141288310Y-136142955D01*
X141286367Y-136142483D01*
X141285803Y-136140564D01*
X141286084Y-136139925D01*
X141296233Y-136124737D01*
X141300000Y-136105801D01*
X141300000Y-135256199D01*
X141296233Y-135237262D01*
X141286188Y-135222229D01*
X141286057Y-135220233D01*
X141287720Y-135219122D01*
X141288449Y-135219209D01*
X141348792Y-135238102D01*
X141413689Y-135219044D01*
X141415633Y-135219515D01*
G37*
G36*
X140915632Y-135219518D02*
G01*
X140916196Y-135221437D01*
X140915915Y-135222076D01*
X140905767Y-135237262D01*
X140902000Y-135256199D01*
X140902000Y-136105801D01*
X140905767Y-136124738D01*
X140915814Y-136139773D01*
X140915945Y-136141768D01*
X140914282Y-136142880D01*
X140913553Y-136142793D01*
X140853212Y-136123898D01*
X140788310Y-136142955D01*
X140786367Y-136142483D01*
X140785803Y-136140564D01*
X140786084Y-136139925D01*
X140796233Y-136124737D01*
X140800000Y-136105801D01*
X140800000Y-135256199D01*
X140796233Y-135237262D01*
X140786187Y-135222228D01*
X140786056Y-135220232D01*
X140787719Y-135219121D01*
X140788448Y-135219208D01*
X140848788Y-135238102D01*
X140913689Y-135219046D01*
X140915632Y-135219518D01*
G37*
G36*
X123044435Y-134981000D02*
G01*
X123044435Y-134983000D01*
X123043266Y-134983919D01*
X122976254Y-135003595D01*
X122930899Y-135055938D01*
X122921042Y-135124491D01*
X122949880Y-135187636D01*
X122971219Y-135206463D01*
X122971856Y-135208359D01*
X122970533Y-135209859D01*
X122969506Y-135209925D01*
X122954801Y-135207000D01*
X122655199Y-135207000D01*
X122639435Y-135210136D01*
X122637541Y-135209493D01*
X122637151Y-135207531D01*
X122637510Y-135206892D01*
X122679996Y-135156052D01*
X122688626Y-135087334D01*
X122658734Y-135024860D01*
X122599671Y-134988377D01*
X122567029Y-134983982D01*
X122565446Y-134982760D01*
X122565713Y-134980778D01*
X122567296Y-134980000D01*
X123042703Y-134980000D01*
X123044435Y-134981000D01*
G37*
G36*
X142340435Y-134981000D02*
G01*
X142340435Y-134983000D01*
X142339266Y-134983919D01*
X142272254Y-135003595D01*
X142226899Y-135055938D01*
X142217042Y-135124491D01*
X142245880Y-135187636D01*
X142267219Y-135206463D01*
X142267856Y-135208359D01*
X142266533Y-135209859D01*
X142265506Y-135209925D01*
X142250801Y-135207000D01*
X141951199Y-135207000D01*
X141935435Y-135210136D01*
X141933541Y-135209493D01*
X141933151Y-135207531D01*
X141933510Y-135206892D01*
X141975996Y-135156052D01*
X141984626Y-135087334D01*
X141954734Y-135024860D01*
X141895671Y-134988377D01*
X141863034Y-134983982D01*
X141861451Y-134982760D01*
X141861718Y-134980778D01*
X141863301Y-134980000D01*
X142338703Y-134980000D01*
X142340435Y-134981000D01*
G37*
G36*
X123544435Y-134981000D02*
G01*
X123544435Y-134983000D01*
X123543266Y-134983919D01*
X123476254Y-135003595D01*
X123430899Y-135055938D01*
X123421042Y-135124491D01*
X123449880Y-135187636D01*
X123471219Y-135206463D01*
X123471856Y-135208359D01*
X123470533Y-135209859D01*
X123469506Y-135209925D01*
X123454801Y-135207000D01*
X123155199Y-135207000D01*
X123139435Y-135210136D01*
X123137541Y-135209493D01*
X123137151Y-135207531D01*
X123137510Y-135206892D01*
X123179996Y-135156052D01*
X123188626Y-135087334D01*
X123158734Y-135024860D01*
X123099671Y-134988377D01*
X123067034Y-134983982D01*
X123065451Y-134982760D01*
X123065718Y-134980778D01*
X123067301Y-134980000D01*
X123542703Y-134980000D01*
X123544435Y-134981000D01*
G37*
G36*
X141340433Y-134981000D02*
G01*
X141340433Y-134983000D01*
X141339265Y-134983919D01*
X141272250Y-135003599D01*
X141226897Y-135055943D01*
X141217043Y-135124497D01*
X141245883Y-135187641D01*
X141267219Y-135206463D01*
X141267856Y-135208359D01*
X141266533Y-135209859D01*
X141265506Y-135209925D01*
X141250801Y-135207000D01*
X140951199Y-135207000D01*
X140935434Y-135210136D01*
X140933540Y-135209493D01*
X140933150Y-135207531D01*
X140933509Y-135206891D01*
X140975994Y-135156053D01*
X140984625Y-135087338D01*
X140954734Y-135024863D01*
X140895672Y-134988379D01*
X140863160Y-134984000D01*
X140838994Y-134984000D01*
X140772255Y-135003596D01*
X140726900Y-135055939D01*
X140717043Y-135124492D01*
X140745881Y-135187637D01*
X140767219Y-135206463D01*
X140767856Y-135208359D01*
X140766533Y-135209859D01*
X140765506Y-135209925D01*
X140750801Y-135207000D01*
X140451199Y-135207000D01*
X140435434Y-135210136D01*
X140433540Y-135209493D01*
X140433150Y-135207531D01*
X140433509Y-135206891D01*
X140475994Y-135156053D01*
X140484625Y-135087338D01*
X140454735Y-135024863D01*
X140395673Y-134988379D01*
X140363026Y-134983982D01*
X140361443Y-134982760D01*
X140361710Y-134980778D01*
X140363293Y-134980000D01*
X141338701Y-134980000D01*
X141340433Y-134981000D01*
G37*
G36*
X122544433Y-134981000D02*
G01*
X122544433Y-134983000D01*
X122543265Y-134983919D01*
X122476250Y-135003599D01*
X122430897Y-135055943D01*
X122421043Y-135124497D01*
X122449883Y-135187641D01*
X122471219Y-135206463D01*
X122471856Y-135208359D01*
X122470533Y-135209859D01*
X122469506Y-135209925D01*
X122454801Y-135207000D01*
X122155199Y-135207000D01*
X122139434Y-135210136D01*
X122137540Y-135209493D01*
X122137150Y-135207531D01*
X122137509Y-135206891D01*
X122179994Y-135156053D01*
X122188625Y-135087338D01*
X122158734Y-135024863D01*
X122099672Y-134988379D01*
X122067160Y-134984000D01*
X122042994Y-134984000D01*
X121976255Y-135003596D01*
X121930900Y-135055939D01*
X121921043Y-135124492D01*
X121949881Y-135187637D01*
X121971219Y-135206463D01*
X121971856Y-135208359D01*
X121970533Y-135209859D01*
X121969506Y-135209925D01*
X121954801Y-135207000D01*
X121655199Y-135207000D01*
X121639434Y-135210136D01*
X121637540Y-135209493D01*
X121637150Y-135207531D01*
X121637509Y-135206891D01*
X121679994Y-135156053D01*
X121688625Y-135087338D01*
X121658735Y-135024863D01*
X121599673Y-134988379D01*
X121567026Y-134983982D01*
X121565443Y-134982760D01*
X121565710Y-134980778D01*
X121567293Y-134980000D01*
X122542701Y-134980000D01*
X122544433Y-134981000D01*
G37*
G36*
X141840435Y-134981000D02*
G01*
X141840435Y-134983000D01*
X141839266Y-134983919D01*
X141772254Y-135003595D01*
X141726899Y-135055938D01*
X141717042Y-135124491D01*
X141745880Y-135187636D01*
X141767219Y-135206463D01*
X141767856Y-135208359D01*
X141766533Y-135209859D01*
X141765506Y-135209925D01*
X141750801Y-135207000D01*
X141451199Y-135207000D01*
X141435435Y-135210136D01*
X141433541Y-135209493D01*
X141433151Y-135207531D01*
X141433510Y-135206892D01*
X141475996Y-135156052D01*
X141484626Y-135087334D01*
X141454734Y-135024860D01*
X141395671Y-134988377D01*
X141363029Y-134983982D01*
X141361446Y-134982760D01*
X141361713Y-134980778D01*
X141363296Y-134980000D01*
X141838703Y-134980000D01*
X141840435Y-134981000D01*
G37*
G36*
X123807919Y-134242731D02*
G01*
X123827596Y-134309745D01*
X123879939Y-134355100D01*
X123948492Y-134364957D01*
X124011637Y-134336119D01*
X124030463Y-134314781D01*
X124032359Y-134314144D01*
X124033859Y-134315467D01*
X124033925Y-134316494D01*
X124031000Y-134331199D01*
X124031000Y-134630801D01*
X124034136Y-134646566D01*
X124033493Y-134648460D01*
X124031531Y-134648850D01*
X124030891Y-134648491D01*
X123980053Y-134606006D01*
X123911338Y-134597375D01*
X123848863Y-134627265D01*
X123812379Y-134686327D01*
X123807982Y-134718973D01*
X123806760Y-134720556D01*
X123804778Y-134720289D01*
X123804000Y-134718706D01*
X123804000Y-134243294D01*
X123805000Y-134241562D01*
X123807000Y-134241562D01*
X123807919Y-134242731D01*
G37*
G36*
X142603919Y-134242731D02*
G01*
X142623596Y-134309745D01*
X142675939Y-134355100D01*
X142744492Y-134364957D01*
X142807637Y-134336119D01*
X142826463Y-134314781D01*
X142828359Y-134314144D01*
X142829859Y-134315467D01*
X142829925Y-134316494D01*
X142827000Y-134331199D01*
X142827000Y-134630801D01*
X142830136Y-134646566D01*
X142829493Y-134648460D01*
X142827531Y-134648850D01*
X142826891Y-134648491D01*
X142776053Y-134606006D01*
X142707338Y-134597375D01*
X142644863Y-134627265D01*
X142608379Y-134686327D01*
X142603982Y-134718973D01*
X142602760Y-134720556D01*
X142600778Y-134720289D01*
X142600000Y-134718706D01*
X142600000Y-134243294D01*
X142601000Y-134241562D01*
X142603000Y-134241562D01*
X142603919Y-134242731D01*
G37*
G36*
X140101222Y-134241718D02*
G01*
X140102000Y-134243301D01*
X140102000Y-134718703D01*
X140101000Y-134720435D01*
X140099000Y-134720435D01*
X140098081Y-134719266D01*
X140078405Y-134652254D01*
X140026062Y-134606899D01*
X139957509Y-134597042D01*
X139894364Y-134625880D01*
X139875537Y-134647219D01*
X139873641Y-134647856D01*
X139872141Y-134646533D01*
X139872075Y-134645506D01*
X139875000Y-134630801D01*
X139875000Y-134331199D01*
X139871864Y-134315435D01*
X139872507Y-134313541D01*
X139874469Y-134313151D01*
X139875108Y-134313510D01*
X139925948Y-134355996D01*
X139994666Y-134364626D01*
X140057140Y-134334734D01*
X140093623Y-134275671D01*
X140098018Y-134243034D01*
X140099240Y-134241451D01*
X140101222Y-134241718D01*
G37*
G36*
X121305222Y-134241718D02*
G01*
X121306000Y-134243301D01*
X121306000Y-134718703D01*
X121305000Y-134720435D01*
X121303000Y-134720435D01*
X121302081Y-134719266D01*
X121282405Y-134652254D01*
X121230062Y-134606899D01*
X121161509Y-134597042D01*
X121098364Y-134625880D01*
X121079537Y-134647219D01*
X121077641Y-134647856D01*
X121076141Y-134646533D01*
X121076075Y-134645506D01*
X121079000Y-134630801D01*
X121079000Y-134331199D01*
X121075864Y-134315435D01*
X121076507Y-134313541D01*
X121078469Y-134313151D01*
X121079108Y-134313510D01*
X121129948Y-134355996D01*
X121198666Y-134364626D01*
X121261140Y-134334734D01*
X121297623Y-134275671D01*
X121302018Y-134243034D01*
X121303240Y-134241451D01*
X121305222Y-134241718D01*
G37*
G36*
X120146075Y-134166084D02*
G01*
X120161263Y-134176233D01*
X120180199Y-134180000D01*
X121029801Y-134180000D01*
X121048738Y-134176233D01*
X121063773Y-134166186D01*
X121065768Y-134166055D01*
X121066880Y-134167718D01*
X121066793Y-134168447D01*
X121047898Y-134228786D01*
X121066956Y-134293690D01*
X121066484Y-134295633D01*
X121064565Y-134296197D01*
X121063926Y-134295916D01*
X121048738Y-134285767D01*
X121029801Y-134282000D01*
X120180199Y-134282000D01*
X120161262Y-134285767D01*
X120146227Y-134295814D01*
X120144232Y-134295945D01*
X120143120Y-134294282D01*
X120143207Y-134293553D01*
X120162102Y-134233212D01*
X120143045Y-134168310D01*
X120143517Y-134166367D01*
X120145436Y-134165803D01*
X120146075Y-134166084D01*
G37*
G36*
X142842076Y-134166085D02*
G01*
X142857262Y-134176233D01*
X142876199Y-134180000D01*
X143725801Y-134180000D01*
X143744738Y-134176233D01*
X143759773Y-134166186D01*
X143761768Y-134166055D01*
X143762880Y-134167718D01*
X143762793Y-134168447D01*
X143743898Y-134228788D01*
X143762955Y-134293690D01*
X143762483Y-134295633D01*
X143760564Y-134296197D01*
X143759925Y-134295916D01*
X143744737Y-134285767D01*
X143725801Y-134282000D01*
X142876199Y-134282000D01*
X142857262Y-134285767D01*
X142842228Y-134295813D01*
X142840232Y-134295944D01*
X142839121Y-134294281D01*
X142839208Y-134293552D01*
X142858102Y-134233212D01*
X142839046Y-134168311D01*
X142839518Y-134166368D01*
X142841437Y-134165804D01*
X142842076Y-134166085D01*
G37*
G36*
X124046076Y-134166085D02*
G01*
X124061262Y-134176233D01*
X124080199Y-134180000D01*
X124929801Y-134180000D01*
X124948738Y-134176233D01*
X124963773Y-134166186D01*
X124965768Y-134166055D01*
X124966880Y-134167718D01*
X124966793Y-134168447D01*
X124947898Y-134228788D01*
X124966955Y-134293690D01*
X124966483Y-134295633D01*
X124964564Y-134296197D01*
X124963925Y-134295916D01*
X124948737Y-134285767D01*
X124929801Y-134282000D01*
X124080199Y-134282000D01*
X124061262Y-134285767D01*
X124046228Y-134295813D01*
X124044232Y-134295944D01*
X124043121Y-134294281D01*
X124043208Y-134293552D01*
X124062102Y-134233212D01*
X124043046Y-134168311D01*
X124043518Y-134166368D01*
X124045437Y-134165804D01*
X124046076Y-134166085D01*
G37*
G36*
X138942075Y-134166084D02*
G01*
X138957263Y-134176233D01*
X138976199Y-134180000D01*
X139825801Y-134180000D01*
X139844738Y-134176233D01*
X139859773Y-134166186D01*
X139861768Y-134166055D01*
X139862880Y-134167718D01*
X139862793Y-134168447D01*
X139843898Y-134228786D01*
X139862956Y-134293690D01*
X139862484Y-134295633D01*
X139860565Y-134296197D01*
X139859926Y-134295916D01*
X139844738Y-134285767D01*
X139825801Y-134282000D01*
X138976199Y-134282000D01*
X138957262Y-134285767D01*
X138942227Y-134295814D01*
X138940232Y-134295945D01*
X138939120Y-134294282D01*
X138939207Y-134293553D01*
X138958102Y-134233212D01*
X138939045Y-134168310D01*
X138939517Y-134166367D01*
X138941436Y-134165803D01*
X138942075Y-134166084D01*
G37*
G36*
X123807919Y-133742735D02*
G01*
X123827599Y-133809750D01*
X123879943Y-133855103D01*
X123948497Y-133864957D01*
X124011641Y-133836117D01*
X124030463Y-133814781D01*
X124032359Y-133814144D01*
X124033859Y-133815467D01*
X124033925Y-133816494D01*
X124031000Y-133831199D01*
X124031000Y-134130801D01*
X124034136Y-134146566D01*
X124033493Y-134148460D01*
X124031531Y-134148850D01*
X124030891Y-134148491D01*
X123980053Y-134106006D01*
X123911338Y-134097375D01*
X123848863Y-134127266D01*
X123812379Y-134186328D01*
X123807982Y-134218973D01*
X123806760Y-134220556D01*
X123804778Y-134220289D01*
X123804000Y-134218706D01*
X123804000Y-133743299D01*
X123805000Y-133741567D01*
X123807000Y-133741567D01*
X123807919Y-133742735D01*
G37*
G36*
X142603919Y-133742735D02*
G01*
X142623599Y-133809750D01*
X142675943Y-133855103D01*
X142744497Y-133864957D01*
X142807641Y-133836117D01*
X142826463Y-133814781D01*
X142828359Y-133814144D01*
X142829859Y-133815467D01*
X142829925Y-133816494D01*
X142827000Y-133831199D01*
X142827000Y-134130801D01*
X142830136Y-134146566D01*
X142829493Y-134148460D01*
X142827531Y-134148850D01*
X142826891Y-134148491D01*
X142776053Y-134106006D01*
X142707338Y-134097375D01*
X142644863Y-134127266D01*
X142608379Y-134186328D01*
X142603982Y-134218973D01*
X142602760Y-134220556D01*
X142600778Y-134220289D01*
X142600000Y-134218706D01*
X142600000Y-133743299D01*
X142601000Y-133741567D01*
X142603000Y-133741567D01*
X142603919Y-133742735D01*
G37*
G36*
X121305222Y-133741716D02*
G01*
X121306000Y-133743299D01*
X121306000Y-134218703D01*
X121305000Y-134220435D01*
X121303000Y-134220435D01*
X121302081Y-134219266D01*
X121282405Y-134152254D01*
X121230062Y-134106899D01*
X121161509Y-134097042D01*
X121098364Y-134125880D01*
X121079537Y-134147219D01*
X121077641Y-134147856D01*
X121076141Y-134146533D01*
X121076075Y-134145506D01*
X121079000Y-134130801D01*
X121079000Y-133831199D01*
X121075864Y-133815435D01*
X121076507Y-133813541D01*
X121078469Y-133813151D01*
X121079108Y-133813510D01*
X121129948Y-133855996D01*
X121198666Y-133864626D01*
X121261140Y-133834734D01*
X121297623Y-133775671D01*
X121302018Y-133743032D01*
X121303240Y-133741449D01*
X121305222Y-133741716D01*
G37*
G36*
X140101222Y-133741716D02*
G01*
X140102000Y-133743299D01*
X140102000Y-134218703D01*
X140101000Y-134220435D01*
X140099000Y-134220435D01*
X140098081Y-134219266D01*
X140078405Y-134152254D01*
X140026062Y-134106899D01*
X139957509Y-134097042D01*
X139894364Y-134125880D01*
X139875537Y-134147219D01*
X139873641Y-134147856D01*
X139872141Y-134146533D01*
X139872075Y-134145506D01*
X139875000Y-134130801D01*
X139875000Y-133831199D01*
X139871864Y-133815435D01*
X139872507Y-133813541D01*
X139874469Y-133813151D01*
X139875108Y-133813510D01*
X139925948Y-133855996D01*
X139994666Y-133864626D01*
X140057140Y-133834734D01*
X140093623Y-133775671D01*
X140098018Y-133743032D01*
X140099240Y-133741449D01*
X140101222Y-133741716D01*
G37*
G36*
X124046074Y-133666084D02*
G01*
X124061262Y-133676233D01*
X124080199Y-133680000D01*
X124929801Y-133680000D01*
X124948738Y-133676233D01*
X124963773Y-133666186D01*
X124965768Y-133666055D01*
X124966880Y-133667718D01*
X124966793Y-133668447D01*
X124947898Y-133728788D01*
X124966955Y-133793690D01*
X124966483Y-133795633D01*
X124964564Y-133796197D01*
X124963925Y-133795916D01*
X124948737Y-133785767D01*
X124929801Y-133782000D01*
X124080199Y-133782000D01*
X124061262Y-133785767D01*
X124046229Y-133795812D01*
X124044233Y-133795943D01*
X124043122Y-133794280D01*
X124043209Y-133793551D01*
X124062102Y-133733208D01*
X124043044Y-133668311D01*
X124043515Y-133666367D01*
X124045434Y-133665803D01*
X124046074Y-133666084D01*
G37*
G36*
X120146075Y-133666084D02*
G01*
X120161263Y-133676233D01*
X120180199Y-133680000D01*
X121029801Y-133680000D01*
X121048738Y-133676233D01*
X121063771Y-133666188D01*
X121065767Y-133666057D01*
X121066878Y-133667720D01*
X121066791Y-133668449D01*
X121047898Y-133728792D01*
X121066956Y-133793689D01*
X121066485Y-133795633D01*
X121064566Y-133796197D01*
X121063926Y-133795916D01*
X121048738Y-133785767D01*
X121029801Y-133782000D01*
X120180199Y-133782000D01*
X120161262Y-133785767D01*
X120146227Y-133795814D01*
X120144232Y-133795945D01*
X120143120Y-133794282D01*
X120143207Y-133793553D01*
X120162102Y-133733212D01*
X120143045Y-133668310D01*
X120143517Y-133666367D01*
X120145436Y-133665803D01*
X120146075Y-133666084D01*
G37*
G36*
X142842074Y-133666084D02*
G01*
X142857262Y-133676233D01*
X142876199Y-133680000D01*
X143725801Y-133680000D01*
X143744738Y-133676233D01*
X143759773Y-133666186D01*
X143761768Y-133666055D01*
X143762880Y-133667718D01*
X143762793Y-133668447D01*
X143743898Y-133728788D01*
X143762955Y-133793690D01*
X143762483Y-133795633D01*
X143760564Y-133796197D01*
X143759925Y-133795916D01*
X143744737Y-133785767D01*
X143725801Y-133782000D01*
X142876199Y-133782000D01*
X142857262Y-133785767D01*
X142842229Y-133795812D01*
X142840233Y-133795943D01*
X142839122Y-133794280D01*
X142839209Y-133793551D01*
X142858102Y-133733208D01*
X142839044Y-133668311D01*
X142839515Y-133666367D01*
X142841434Y-133665803D01*
X142842074Y-133666084D01*
G37*
G36*
X138942075Y-133666084D02*
G01*
X138957263Y-133676233D01*
X138976199Y-133680000D01*
X139825801Y-133680000D01*
X139844738Y-133676233D01*
X139859771Y-133666188D01*
X139861767Y-133666057D01*
X139862878Y-133667720D01*
X139862791Y-133668449D01*
X139843898Y-133728792D01*
X139862956Y-133793689D01*
X139862485Y-133795633D01*
X139860566Y-133796197D01*
X139859926Y-133795916D01*
X139844738Y-133785767D01*
X139825801Y-133782000D01*
X138976199Y-133782000D01*
X138957262Y-133785767D01*
X138942227Y-133795814D01*
X138940232Y-133795945D01*
X138939120Y-133794282D01*
X138939207Y-133793553D01*
X138958102Y-133733212D01*
X138939045Y-133668310D01*
X138939517Y-133666367D01*
X138941436Y-133665803D01*
X138942075Y-133666084D01*
G37*
G36*
X142603919Y-133242734D02*
G01*
X142623595Y-133309746D01*
X142675938Y-133355101D01*
X142744491Y-133364958D01*
X142807636Y-133336120D01*
X142826463Y-133314781D01*
X142828359Y-133314144D01*
X142829859Y-133315467D01*
X142829925Y-133316494D01*
X142827000Y-133331199D01*
X142827000Y-133630801D01*
X142830136Y-133646565D01*
X142829493Y-133648459D01*
X142827531Y-133648849D01*
X142826892Y-133648490D01*
X142776052Y-133606004D01*
X142707334Y-133597374D01*
X142644860Y-133627266D01*
X142608377Y-133686329D01*
X142603982Y-133718968D01*
X142602760Y-133720551D01*
X142600778Y-133720284D01*
X142600000Y-133718701D01*
X142600000Y-133243297D01*
X142601000Y-133241565D01*
X142603000Y-133241565D01*
X142603919Y-133242734D01*
G37*
G36*
X123807919Y-133242734D02*
G01*
X123827595Y-133309746D01*
X123879938Y-133355101D01*
X123948491Y-133364958D01*
X124011636Y-133336120D01*
X124030463Y-133314781D01*
X124032359Y-133314144D01*
X124033859Y-133315467D01*
X124033925Y-133316494D01*
X124031000Y-133331199D01*
X124031000Y-133630801D01*
X124034136Y-133646565D01*
X124033493Y-133648459D01*
X124031531Y-133648849D01*
X124030892Y-133648490D01*
X123980052Y-133606004D01*
X123911334Y-133597374D01*
X123848860Y-133627266D01*
X123812377Y-133686329D01*
X123807982Y-133718968D01*
X123806760Y-133720551D01*
X123804778Y-133720284D01*
X123804000Y-133718701D01*
X123804000Y-133243297D01*
X123805000Y-133241565D01*
X123807000Y-133241565D01*
X123807919Y-133242734D01*
G37*
G36*
X121305222Y-133241711D02*
G01*
X121306000Y-133243294D01*
X121306000Y-133718701D01*
X121305000Y-133720433D01*
X121303000Y-133720433D01*
X121302081Y-133719265D01*
X121282401Y-133652250D01*
X121230057Y-133606897D01*
X121161503Y-133597043D01*
X121098359Y-133625883D01*
X121079537Y-133647219D01*
X121077641Y-133647856D01*
X121076141Y-133646533D01*
X121076075Y-133645506D01*
X121079000Y-133630801D01*
X121079000Y-133331199D01*
X121075864Y-133315434D01*
X121076507Y-133313540D01*
X121078469Y-133313150D01*
X121079109Y-133313509D01*
X121129947Y-133355994D01*
X121198662Y-133364625D01*
X121261137Y-133334734D01*
X121297621Y-133275672D01*
X121302018Y-133243027D01*
X121303240Y-133241444D01*
X121305222Y-133241711D01*
G37*
G36*
X140101222Y-133241711D02*
G01*
X140102000Y-133243294D01*
X140102000Y-133718701D01*
X140101000Y-133720433D01*
X140099000Y-133720433D01*
X140098081Y-133719265D01*
X140078401Y-133652250D01*
X140026057Y-133606897D01*
X139957503Y-133597043D01*
X139894359Y-133625883D01*
X139875537Y-133647219D01*
X139873641Y-133647856D01*
X139872141Y-133646533D01*
X139872075Y-133645506D01*
X139875000Y-133630801D01*
X139875000Y-133331199D01*
X139871864Y-133315434D01*
X139872507Y-133313540D01*
X139874469Y-133313150D01*
X139875109Y-133313509D01*
X139925947Y-133355994D01*
X139994662Y-133364625D01*
X140057137Y-133334734D01*
X140093621Y-133275672D01*
X140098018Y-133243027D01*
X140099240Y-133241444D01*
X140101222Y-133241711D01*
G37*
G36*
X142842074Y-133166084D02*
G01*
X142857262Y-133176233D01*
X142876199Y-133180000D01*
X143725801Y-133180000D01*
X143744738Y-133176233D01*
X143759773Y-133166186D01*
X143761768Y-133166055D01*
X143762880Y-133167718D01*
X143762793Y-133168447D01*
X143743898Y-133228788D01*
X143762955Y-133293690D01*
X143762483Y-133295633D01*
X143760564Y-133296197D01*
X143759925Y-133295916D01*
X143744737Y-133285767D01*
X143725801Y-133282000D01*
X142876199Y-133282000D01*
X142857262Y-133285767D01*
X142842227Y-133295814D01*
X142840232Y-133295945D01*
X142839120Y-133294282D01*
X142839207Y-133293553D01*
X142858102Y-133233214D01*
X142839044Y-133168310D01*
X142839516Y-133166367D01*
X142841435Y-133165803D01*
X142842074Y-133166084D01*
G37*
G36*
X124046074Y-133166084D02*
G01*
X124061262Y-133176233D01*
X124080199Y-133180000D01*
X124929801Y-133180000D01*
X124948738Y-133176233D01*
X124963773Y-133166186D01*
X124965768Y-133166055D01*
X124966880Y-133167718D01*
X124966793Y-133168447D01*
X124947898Y-133228788D01*
X124966955Y-133293690D01*
X124966483Y-133295633D01*
X124964564Y-133296197D01*
X124963925Y-133295916D01*
X124948737Y-133285767D01*
X124929801Y-133282000D01*
X124080199Y-133282000D01*
X124061262Y-133285767D01*
X124046227Y-133295814D01*
X124044232Y-133295945D01*
X124043120Y-133294282D01*
X124043207Y-133293553D01*
X124062102Y-133233214D01*
X124043044Y-133168310D01*
X124043516Y-133166367D01*
X124045435Y-133165803D01*
X124046074Y-133166084D01*
G37*
G36*
X120146075Y-133166084D02*
G01*
X120161263Y-133176233D01*
X120180199Y-133180000D01*
X121029801Y-133180000D01*
X121048738Y-133176233D01*
X121063772Y-133166187D01*
X121065768Y-133166056D01*
X121066879Y-133167719D01*
X121066792Y-133168448D01*
X121047898Y-133228788D01*
X121066954Y-133293689D01*
X121066482Y-133295632D01*
X121064563Y-133296196D01*
X121063924Y-133295915D01*
X121048738Y-133285767D01*
X121029801Y-133282000D01*
X120180199Y-133282000D01*
X120161262Y-133285767D01*
X120146227Y-133295814D01*
X120144232Y-133295945D01*
X120143120Y-133294282D01*
X120143207Y-133293553D01*
X120162102Y-133233212D01*
X120143045Y-133168310D01*
X120143517Y-133166367D01*
X120145436Y-133165803D01*
X120146075Y-133166084D01*
G37*
G36*
X138942075Y-133166084D02*
G01*
X138957263Y-133176233D01*
X138976199Y-133180000D01*
X139825801Y-133180000D01*
X139844738Y-133176233D01*
X139859772Y-133166187D01*
X139861768Y-133166056D01*
X139862879Y-133167719D01*
X139862792Y-133168448D01*
X139843898Y-133228788D01*
X139862954Y-133293689D01*
X139862482Y-133295632D01*
X139860563Y-133296196D01*
X139859924Y-133295915D01*
X139844738Y-133285767D01*
X139825801Y-133282000D01*
X138976199Y-133282000D01*
X138957262Y-133285767D01*
X138942227Y-133295814D01*
X138940232Y-133295945D01*
X138939120Y-133294282D01*
X138939207Y-133293553D01*
X138958102Y-133233212D01*
X138939045Y-133168310D01*
X138939517Y-133166367D01*
X138941436Y-133165803D01*
X138942075Y-133166084D01*
G37*
G36*
X142603919Y-132742734D02*
G01*
X142623595Y-132809746D01*
X142675938Y-132855101D01*
X142744491Y-132864958D01*
X142807636Y-132836120D01*
X142826463Y-132814781D01*
X142828359Y-132814144D01*
X142829859Y-132815467D01*
X142829925Y-132816494D01*
X142827000Y-132831199D01*
X142827000Y-133130801D01*
X142830136Y-133146565D01*
X142829493Y-133148459D01*
X142827531Y-133148849D01*
X142826892Y-133148490D01*
X142776052Y-133106004D01*
X142707334Y-133097374D01*
X142644860Y-133127266D01*
X142608377Y-133186329D01*
X142603982Y-133218966D01*
X142602760Y-133220549D01*
X142600778Y-133220282D01*
X142600000Y-133218699D01*
X142600000Y-132743297D01*
X142601000Y-132741565D01*
X142603000Y-132741565D01*
X142603919Y-132742734D01*
G37*
G36*
X123807919Y-132742734D02*
G01*
X123827595Y-132809746D01*
X123879938Y-132855101D01*
X123948491Y-132864958D01*
X124011636Y-132836120D01*
X124030463Y-132814781D01*
X124032359Y-132814144D01*
X124033859Y-132815467D01*
X124033925Y-132816494D01*
X124031000Y-132831199D01*
X124031000Y-133130801D01*
X124034136Y-133146565D01*
X124033493Y-133148459D01*
X124031531Y-133148849D01*
X124030892Y-133148490D01*
X123980052Y-133106004D01*
X123911334Y-133097374D01*
X123848860Y-133127266D01*
X123812377Y-133186329D01*
X123807982Y-133218966D01*
X123806760Y-133220549D01*
X123804778Y-133220282D01*
X123804000Y-133218699D01*
X123804000Y-132743297D01*
X123805000Y-132741565D01*
X123807000Y-132741565D01*
X123807919Y-132742734D01*
G37*
G36*
X140101222Y-132741711D02*
G01*
X140102000Y-132743294D01*
X140102000Y-133218706D01*
X140101000Y-133220438D01*
X140099000Y-133220438D01*
X140098081Y-133219269D01*
X140078404Y-133152255D01*
X140026061Y-133106900D01*
X139957508Y-133097043D01*
X139894363Y-133125881D01*
X139875537Y-133147219D01*
X139873641Y-133147856D01*
X139872141Y-133146533D01*
X139872075Y-133145506D01*
X139875000Y-133130801D01*
X139875000Y-132831199D01*
X139871864Y-132815434D01*
X139872507Y-132813540D01*
X139874469Y-132813150D01*
X139875109Y-132813509D01*
X139925947Y-132855994D01*
X139994662Y-132864625D01*
X140057137Y-132834735D01*
X140093621Y-132775673D01*
X140098018Y-132743027D01*
X140099240Y-132741444D01*
X140101222Y-132741711D01*
G37*
G36*
X121305222Y-132741711D02*
G01*
X121306000Y-132743294D01*
X121306000Y-133218706D01*
X121305000Y-133220438D01*
X121303000Y-133220438D01*
X121302081Y-133219269D01*
X121282404Y-133152255D01*
X121230061Y-133106900D01*
X121161508Y-133097043D01*
X121098363Y-133125881D01*
X121079537Y-133147219D01*
X121077641Y-133147856D01*
X121076141Y-133146533D01*
X121076075Y-133145506D01*
X121079000Y-133130801D01*
X121079000Y-132831199D01*
X121075864Y-132815434D01*
X121076507Y-132813540D01*
X121078469Y-132813150D01*
X121079109Y-132813509D01*
X121129947Y-132855994D01*
X121198662Y-132864625D01*
X121261137Y-132834735D01*
X121297621Y-132775673D01*
X121302018Y-132743027D01*
X121303240Y-132741444D01*
X121305222Y-132741711D01*
G37*
G36*
X122972460Y-132252507D02*
G01*
X122972850Y-132254469D01*
X122972491Y-132255109D01*
X122930006Y-132305947D01*
X122921375Y-132374662D01*
X122951266Y-132437137D01*
X123010328Y-132473621D01*
X123042974Y-132478018D01*
X123044557Y-132479240D01*
X123044290Y-132481222D01*
X123042707Y-132482000D01*
X122567299Y-132482000D01*
X122565567Y-132481000D01*
X122565567Y-132479000D01*
X122566735Y-132478081D01*
X122633750Y-132458401D01*
X122679103Y-132406057D01*
X122688957Y-132337503D01*
X122660117Y-132274359D01*
X122638781Y-132255537D01*
X122638144Y-132253641D01*
X122639467Y-132252141D01*
X122640494Y-132252075D01*
X122655199Y-132255000D01*
X122954801Y-132255000D01*
X122970566Y-132251864D01*
X122972460Y-132252507D01*
G37*
G36*
X140768459Y-132252507D02*
G01*
X140768849Y-132254469D01*
X140768490Y-132255108D01*
X140726004Y-132305948D01*
X140717374Y-132374666D01*
X140747266Y-132437140D01*
X140806329Y-132473623D01*
X140838966Y-132478018D01*
X140840549Y-132479240D01*
X140840282Y-132481222D01*
X140838699Y-132482000D01*
X140363297Y-132482000D01*
X140361565Y-132481000D01*
X140361565Y-132479000D01*
X140362734Y-132478081D01*
X140429746Y-132458405D01*
X140475101Y-132406062D01*
X140484958Y-132337509D01*
X140456120Y-132274364D01*
X140434781Y-132255537D01*
X140434144Y-132253641D01*
X140435467Y-132252141D01*
X140436494Y-132252075D01*
X140451199Y-132255000D01*
X140750801Y-132255000D01*
X140766565Y-132251864D01*
X140768459Y-132252507D01*
G37*
G36*
X121972459Y-132252507D02*
G01*
X121972849Y-132254469D01*
X121972490Y-132255108D01*
X121930004Y-132305948D01*
X121921374Y-132374666D01*
X121951266Y-132437140D01*
X122010329Y-132473623D01*
X122042966Y-132478018D01*
X122044549Y-132479240D01*
X122044282Y-132481222D01*
X122042699Y-132482000D01*
X121567297Y-132482000D01*
X121565565Y-132481000D01*
X121565565Y-132479000D01*
X121566734Y-132478081D01*
X121633746Y-132458405D01*
X121679101Y-132406062D01*
X121688958Y-132337509D01*
X121660120Y-132274364D01*
X121638781Y-132255537D01*
X121638144Y-132253641D01*
X121639467Y-132252141D01*
X121640494Y-132252075D01*
X121655199Y-132255000D01*
X121954801Y-132255000D01*
X121970565Y-132251864D01*
X121972459Y-132252507D01*
G37*
G36*
X123472460Y-132252507D02*
G01*
X123472850Y-132254469D01*
X123472491Y-132255109D01*
X123430006Y-132305947D01*
X123421375Y-132374662D01*
X123451265Y-132437137D01*
X123510327Y-132473621D01*
X123542974Y-132478018D01*
X123544557Y-132479240D01*
X123544290Y-132481222D01*
X123542707Y-132482000D01*
X123067293Y-132482000D01*
X123065561Y-132481000D01*
X123065561Y-132479000D01*
X123066730Y-132478081D01*
X123133745Y-132458404D01*
X123179100Y-132406061D01*
X123188957Y-132337508D01*
X123160119Y-132274363D01*
X123138781Y-132255537D01*
X123138144Y-132253641D01*
X123139467Y-132252141D01*
X123140494Y-132252075D01*
X123155199Y-132255000D01*
X123454801Y-132255000D01*
X123470566Y-132251864D01*
X123472460Y-132252507D01*
G37*
G36*
X122472459Y-132252507D02*
G01*
X122472849Y-132254469D01*
X122472490Y-132255108D01*
X122430004Y-132305948D01*
X122421374Y-132374666D01*
X122451266Y-132437140D01*
X122510329Y-132473623D01*
X122542971Y-132478018D01*
X122544554Y-132479240D01*
X122544287Y-132481222D01*
X122542704Y-132482000D01*
X122067297Y-132482000D01*
X122065565Y-132481000D01*
X122065565Y-132479000D01*
X122066734Y-132478081D01*
X122133746Y-132458405D01*
X122179101Y-132406062D01*
X122188958Y-132337509D01*
X122160120Y-132274364D01*
X122138781Y-132255537D01*
X122138144Y-132253641D01*
X122139467Y-132252141D01*
X122140494Y-132252075D01*
X122155199Y-132255000D01*
X122454801Y-132255000D01*
X122470565Y-132251864D01*
X122472459Y-132252507D01*
G37*
G36*
X141768460Y-132252507D02*
G01*
X141768850Y-132254469D01*
X141768491Y-132255109D01*
X141726006Y-132305947D01*
X141717375Y-132374662D01*
X141747266Y-132437137D01*
X141806328Y-132473621D01*
X141838974Y-132478018D01*
X141840557Y-132479240D01*
X141840290Y-132481222D01*
X141838707Y-132482000D01*
X141363299Y-132482000D01*
X141361567Y-132481000D01*
X141361567Y-132479000D01*
X141362735Y-132478081D01*
X141429750Y-132458401D01*
X141475103Y-132406057D01*
X141484957Y-132337503D01*
X141456117Y-132274359D01*
X141434781Y-132255537D01*
X141434144Y-132253641D01*
X141435467Y-132252141D01*
X141436494Y-132252075D01*
X141451199Y-132255000D01*
X141750801Y-132255000D01*
X141766566Y-132251864D01*
X141768460Y-132252507D01*
G37*
G36*
X141268459Y-132252507D02*
G01*
X141268849Y-132254469D01*
X141268490Y-132255108D01*
X141226004Y-132305948D01*
X141217374Y-132374666D01*
X141247266Y-132437140D01*
X141306329Y-132473623D01*
X141338971Y-132478018D01*
X141340554Y-132479240D01*
X141340287Y-132481222D01*
X141338704Y-132482000D01*
X140863297Y-132482000D01*
X140861565Y-132481000D01*
X140861565Y-132479000D01*
X140862734Y-132478081D01*
X140929746Y-132458405D01*
X140975101Y-132406062D01*
X140984958Y-132337509D01*
X140956120Y-132274364D01*
X140934781Y-132255537D01*
X140934144Y-132253641D01*
X140935467Y-132252141D01*
X140936494Y-132252075D01*
X140951199Y-132255000D01*
X141250801Y-132255000D01*
X141266565Y-132251864D01*
X141268459Y-132252507D01*
G37*
G36*
X142268460Y-132252507D02*
G01*
X142268850Y-132254469D01*
X142268491Y-132255109D01*
X142226006Y-132305947D01*
X142217375Y-132374662D01*
X142247265Y-132437137D01*
X142306327Y-132473621D01*
X142338974Y-132478018D01*
X142340557Y-132479240D01*
X142340290Y-132481222D01*
X142338707Y-132482000D01*
X141863293Y-132482000D01*
X141861561Y-132481000D01*
X141861561Y-132479000D01*
X141862730Y-132478081D01*
X141929745Y-132458404D01*
X141975100Y-132406061D01*
X141984957Y-132337508D01*
X141956119Y-132274363D01*
X141934781Y-132255537D01*
X141934144Y-132253641D01*
X141935467Y-132252141D01*
X141936494Y-132252075D01*
X141951199Y-132255000D01*
X142250801Y-132255000D01*
X142266566Y-132251864D01*
X142268460Y-132252507D01*
G37*
G36*
X122119633Y-131319517D02*
G01*
X122120197Y-131321436D01*
X122119916Y-131322075D01*
X122109767Y-131337263D01*
X122106000Y-131356199D01*
X122106000Y-132205801D01*
X122109767Y-132224738D01*
X122119814Y-132239773D01*
X122119945Y-132241768D01*
X122118282Y-132242880D01*
X122117553Y-132242793D01*
X122057214Y-132223898D01*
X121992310Y-132242956D01*
X121990367Y-132242484D01*
X121989803Y-132240565D01*
X121990084Y-132239926D01*
X122000233Y-132224738D01*
X122004000Y-132205801D01*
X122004000Y-131356199D01*
X122000233Y-131337262D01*
X121990186Y-131322227D01*
X121990055Y-131320232D01*
X121991718Y-131319120D01*
X121992447Y-131319207D01*
X122052788Y-131338102D01*
X122117690Y-131319045D01*
X122119633Y-131319517D01*
G37*
G36*
X140915633Y-131319517D02*
G01*
X140916197Y-131321436D01*
X140915916Y-131322075D01*
X140905767Y-131337263D01*
X140902000Y-131356199D01*
X140902000Y-132205801D01*
X140905767Y-132224738D01*
X140915814Y-132239773D01*
X140915945Y-132241768D01*
X140914282Y-132242880D01*
X140913553Y-132242793D01*
X140853214Y-132223898D01*
X140788310Y-132242956D01*
X140786367Y-132242484D01*
X140785803Y-132240565D01*
X140786084Y-132239926D01*
X140796233Y-132224738D01*
X140800000Y-132205801D01*
X140800000Y-131356199D01*
X140796233Y-131337262D01*
X140786186Y-131322227D01*
X140786055Y-131320232D01*
X140787718Y-131319120D01*
X140788447Y-131319207D01*
X140848788Y-131338102D01*
X140913690Y-131319045D01*
X140915633Y-131319517D01*
G37*
G36*
X122619633Y-131319517D02*
G01*
X122620197Y-131321436D01*
X122619916Y-131322075D01*
X122609767Y-131337263D01*
X122606000Y-131356199D01*
X122606000Y-132205801D01*
X122609767Y-132224738D01*
X122619812Y-132239771D01*
X122619943Y-132241767D01*
X122618280Y-132242878D01*
X122617551Y-132242791D01*
X122557208Y-132223898D01*
X122492311Y-132242956D01*
X122490367Y-132242485D01*
X122489803Y-132240566D01*
X122490084Y-132239926D01*
X122500233Y-132224738D01*
X122504000Y-132205801D01*
X122504000Y-131356199D01*
X122500233Y-131337262D01*
X122490186Y-131322227D01*
X122490055Y-131320232D01*
X122491718Y-131319120D01*
X122492447Y-131319207D01*
X122552788Y-131338102D01*
X122617690Y-131319045D01*
X122619633Y-131319517D01*
G37*
G36*
X141415633Y-131319517D02*
G01*
X141416197Y-131321436D01*
X141415916Y-131322075D01*
X141405767Y-131337263D01*
X141402000Y-131356199D01*
X141402000Y-132205801D01*
X141405767Y-132224738D01*
X141415812Y-132239771D01*
X141415943Y-132241767D01*
X141414280Y-132242878D01*
X141413551Y-132242791D01*
X141353208Y-132223898D01*
X141288311Y-132242956D01*
X141286367Y-132242485D01*
X141285803Y-132240566D01*
X141286084Y-132239926D01*
X141296233Y-132224738D01*
X141300000Y-132205801D01*
X141300000Y-131356199D01*
X141296233Y-131337262D01*
X141286186Y-131322227D01*
X141286055Y-131320232D01*
X141287718Y-131319120D01*
X141288447Y-131319207D01*
X141348788Y-131338102D01*
X141413690Y-131319045D01*
X141415633Y-131319517D01*
G37*
G36*
X141915633Y-131319517D02*
G01*
X141916197Y-131321436D01*
X141915916Y-131322075D01*
X141905767Y-131337263D01*
X141902000Y-131356199D01*
X141902000Y-132205801D01*
X141905767Y-132224738D01*
X141915813Y-132239772D01*
X141915944Y-132241768D01*
X141914281Y-132242879D01*
X141913552Y-132242792D01*
X141853212Y-132223898D01*
X141788311Y-132242954D01*
X141786368Y-132242482D01*
X141785804Y-132240563D01*
X141786085Y-132239924D01*
X141796233Y-132224738D01*
X141800000Y-132205801D01*
X141800000Y-131356199D01*
X141796233Y-131337262D01*
X141786186Y-131322227D01*
X141786055Y-131320232D01*
X141787718Y-131319120D01*
X141788447Y-131319207D01*
X141848788Y-131338102D01*
X141913690Y-131319045D01*
X141915633Y-131319517D01*
G37*
G36*
X123119633Y-131319517D02*
G01*
X123120197Y-131321436D01*
X123119916Y-131322075D01*
X123109767Y-131337263D01*
X123106000Y-131356199D01*
X123106000Y-132205801D01*
X123109767Y-132224738D01*
X123119813Y-132239772D01*
X123119944Y-132241768D01*
X123118281Y-132242879D01*
X123117552Y-132242792D01*
X123057212Y-132223898D01*
X122992311Y-132242954D01*
X122990368Y-132242482D01*
X122989804Y-132240563D01*
X122990085Y-132239924D01*
X123000233Y-132224738D01*
X123004000Y-132205801D01*
X123004000Y-131356199D01*
X123000233Y-131337262D01*
X122990186Y-131322227D01*
X122990055Y-131320232D01*
X122991718Y-131319120D01*
X122992447Y-131319207D01*
X123052788Y-131338102D01*
X123117690Y-131319045D01*
X123119633Y-131319517D01*
G37*
M02*
