G04 #@! TF.GenerationSoftware,KiCad,Pcbnew,(6.0.4-0)*
G04 #@! TF.CreationDate,2022-11-09T17:11:16+01:00*
G04 #@! TF.ProjectId,adapter_hybrid_assistor_hpc_2HDMI,61646170-7465-4725-9f68-79627269645f,rev?*
G04 #@! TF.SameCoordinates,Original*
G04 #@! TF.FileFunction,Other,User*
%FSLAX46Y46*%
G04 Gerber Fmt 4.6, Leading zero omitted, Abs format (unit mm)*
G04 Created by KiCad (PCBNEW (6.0.4-0)) date 2022-11-09 17:11:16*
%MOMM*%
%LPD*%
G01*
G04 APERTURE LIST*
G04 #@! TA.AperFunction,Profile*
%ADD10C,0.100000*%
G04 #@! TD*
G04 #@! TA.AperFunction,Profile*
%ADD11C,0.050000*%
G04 #@! TD*
%ADD12C,0.001000*%
%ADD13C,0.050000*%
%ADD14C,0.100000*%
G04 APERTURE END LIST*
D10*
X100000000Y-100000000D02*
X100000000Y-176500000D01*
X100000000Y-176500000D02*
X169000000Y-176500000D01*
X169000000Y-100000000D02*
X169000000Y-176500000D01*
X100000000Y-100000000D02*
X169000000Y-100000000D01*
D11*
X168050000Y-173800000D02*
G75*
G03*
X168050000Y-173800000I-1350000J0D01*
G01*
X103350000Y-173800000D02*
G75*
G03*
X103350000Y-173800000I-1350000J0D01*
G01*
X104500000Y-110450000D02*
G75*
G03*
X104500000Y-110450000I-1350000J0D01*
G01*
X167200000Y-110450000D02*
G75*
G03*
X167200000Y-110450000I-1350000J0D01*
G01*
X101666666Y-176500000D02*
G75*
G03*
X101666666Y-176500000I-1666666J0D01*
G01*
X97500000Y-176500000D02*
X102500000Y-176500000D01*
X100000000Y-174000000D02*
X100000000Y-179000000D01*
X101666666Y-176500000D02*
G75*
G03*
X101666666Y-176500000I-1666666J0D01*
G01*
X97500000Y-176500000D02*
X102500000Y-176500000D01*
X100000000Y-174000000D02*
X100000000Y-179000000D01*
X101666666Y-176500000D02*
G75*
G03*
X101666666Y-176500000I-1666666J0D01*
G01*
X97500000Y-176500000D02*
X102500000Y-176500000D01*
X100000000Y-174000000D02*
X100000000Y-179000000D01*
D12*
X117442000Y-135025000D02*
X117442000Y-133275000D01*
X116492000Y-133275000D02*
X116492000Y-135025000D01*
X116492000Y-135025000D02*
X117442000Y-135025000D01*
D13*
X116217000Y-135700000D02*
X117717000Y-135700000D01*
X116217000Y-132600000D02*
X116217000Y-135700000D01*
D12*
X117442000Y-133275000D02*
X116492000Y-133275000D01*
D13*
X117717000Y-132600000D02*
X116217000Y-132600000D01*
X117717000Y-135700000D02*
X117717000Y-132600000D01*
X167933000Y-116048000D02*
X101053000Y-116048000D01*
X101053000Y-100868000D02*
X101053000Y-116048000D01*
X167933000Y-116048000D02*
X167933000Y-100868000D01*
X101053000Y-100868000D02*
X167933000Y-100868000D01*
D14*
X158565000Y-176526000D02*
X138869000Y-176526000D01*
X138869000Y-163326000D02*
X158565000Y-163326000D01*
X138869000Y-176526000D02*
X138869000Y-163326000D01*
X158565000Y-163326000D02*
X158565000Y-176526000D01*
X112453000Y-163326000D02*
X132149000Y-163326000D01*
X132149000Y-176526000D02*
X112453000Y-176526000D01*
X112453000Y-176526000D02*
X112453000Y-163326000D01*
X132149000Y-163326000D02*
X132149000Y-176526000D01*
D13*
X125180000Y-131106000D02*
X125180000Y-136356000D01*
X119930000Y-131106000D02*
X125180000Y-131106000D01*
X119930000Y-136356000D02*
X119930000Y-131106000D01*
X125180000Y-136356000D02*
X119930000Y-136356000D01*
X138726000Y-136356000D02*
X138726000Y-131106000D01*
X143976000Y-131106000D02*
X143976000Y-136356000D01*
X138726000Y-131106000D02*
X143976000Y-131106000D01*
X143976000Y-136356000D02*
X138726000Y-136356000D01*
D12*
X135984000Y-133148000D02*
X135034000Y-133148000D01*
D13*
X134759000Y-132473000D02*
X134759000Y-135573000D01*
X134759000Y-135573000D02*
X136259000Y-135573000D01*
D12*
X135034000Y-133148000D02*
X135034000Y-134898000D01*
X135984000Y-134898000D02*
X135984000Y-133148000D01*
X135034000Y-134898000D02*
X135984000Y-134898000D01*
D13*
X136259000Y-135573000D02*
X136259000Y-132473000D01*
X136259000Y-132473000D02*
X134759000Y-132473000D01*
M02*
