G04 #@! TF.GenerationSoftware,KiCad,Pcbnew,(6.0.4-0)*
G04 #@! TF.CreationDate,2022-11-09T17:11:16+01:00*
G04 #@! TF.ProjectId,adapter_hybrid_assistor_hpc_2HDMI,61646170-7465-4725-9f68-79627269645f,rev?*
G04 #@! TF.SameCoordinates,Original*
G04 #@! TF.FileFunction,Soldermask,Bot*
G04 #@! TF.FilePolarity,Negative*
%FSLAX46Y46*%
G04 Gerber Fmt 4.6, Leading zero omitted, Abs format (unit mm)*
G04 Created by KiCad (PCBNEW (6.0.4-0)) date 2022-11-09 17:11:16*
%MOMM*%
%LPD*%
G01*
G04 APERTURE LIST*
G04 Aperture macros list*
%AMRoundRect*
0 Rectangle with rounded corners*
0 $1 Rounding radius*
0 $2 $3 $4 $5 $6 $7 $8 $9 X,Y pos of 4 corners*
0 Add a 4 corners polygon primitive as box body*
4,1,4,$2,$3,$4,$5,$6,$7,$8,$9,$2,$3,0*
0 Add four circle primitives for the rounded corners*
1,1,$1+$1,$2,$3*
1,1,$1+$1,$4,$5*
1,1,$1+$1,$6,$7*
1,1,$1+$1,$8,$9*
0 Add four rect primitives between the rounded corners*
20,1,$1+$1,$2,$3,$4,$5,0*
20,1,$1+$1,$4,$5,$6,$7,0*
20,1,$1+$1,$6,$7,$8,$9,0*
20,1,$1+$1,$8,$9,$2,$3,0*%
G04 Aperture macros list end*
G04 #@! TA.AperFunction,Profile*
%ADD10C,0.100000*%
G04 #@! TD*
G04 #@! TA.AperFunction,Profile*
%ADD11C,0.050000*%
G04 #@! TD*
%ADD12C,1.372000*%
%ADD13C,4.102000*%
%ADD14C,2.097000*%
%ADD15RoundRect,0.051000X-0.500000X0.475000X-0.500000X-0.475000X0.500000X-0.475000X0.500000X0.475000X0*%
%ADD16RoundRect,0.269750X-0.256250X0.218750X-0.256250X-0.218750X0.256250X-0.218750X0.256250X0.218750X0*%
%ADD17RoundRect,0.269750X0.256250X-0.218750X0.256250X0.218750X-0.256250X0.218750X-0.256250X-0.218750X0*%
%ADD18RoundRect,0.051000X-0.764000X0.325000X-0.764000X-0.325000X0.764000X-0.325000X0.764000X0.325000X0*%
%ADD19RoundRect,0.051000X-0.150000X-0.425000X0.150000X-0.425000X0.150000X0.425000X-0.150000X0.425000X0*%
%ADD20RoundRect,0.051000X0.425000X-0.150000X0.425000X0.150000X-0.425000X0.150000X-0.425000X-0.150000X0*%
%ADD21RoundRect,0.051000X1.200000X-1.200000X1.200000X1.200000X-1.200000X1.200000X-1.200000X-1.200000X0*%
G04 APERTURE END LIST*
D10*
X100000000Y-100000000D02*
X100000000Y-176500000D01*
X100000000Y-176500000D02*
X169000000Y-176500000D01*
X169000000Y-100000000D02*
X169000000Y-176500000D01*
X100000000Y-100000000D02*
X169000000Y-100000000D01*
D11*
X168050000Y-173800000D02*
G75*
G03*
X168050000Y-173800000I-1350000J0D01*
G01*
X103350000Y-173800000D02*
G75*
G03*
X103350000Y-173800000I-1350000J0D01*
G01*
X104500000Y-110450000D02*
G75*
G03*
X104500000Y-110450000I-1350000J0D01*
G01*
X167200000Y-110450000D02*
G75*
G03*
X167200000Y-110450000I-1350000J0D01*
G01*
X101666666Y-176500000D02*
G75*
G03*
X101666666Y-176500000I-1666666J0D01*
G01*
X97500000Y-176500000D02*
X102500000Y-176500000D01*
X100000000Y-174000000D02*
X100000000Y-179000000D01*
X101666666Y-176500000D02*
G75*
G03*
X101666666Y-176500000I-1666666J0D01*
G01*
X97500000Y-176500000D02*
X102500000Y-176500000D01*
X100000000Y-174000000D02*
X100000000Y-179000000D01*
X101666666Y-176500000D02*
G75*
G03*
X101666666Y-176500000I-1666666J0D01*
G01*
X97500000Y-176500000D02*
X102500000Y-176500000D01*
X100000000Y-174000000D02*
X100000000Y-179000000D01*
D10*
X100000000Y-100000000D02*
X100000000Y-176500000D01*
X100000000Y-176500000D02*
X169000000Y-176500000D01*
X169000000Y-100000000D02*
X169000000Y-176500000D01*
X100000000Y-100000000D02*
X169000000Y-100000000D01*
D11*
X168050000Y-173800000D02*
G75*
G03*
X168050000Y-173800000I-1350000J0D01*
G01*
X103350000Y-173800000D02*
G75*
G03*
X103350000Y-173800000I-1350000J0D01*
G01*
X104500000Y-110450000D02*
G75*
G03*
X104500000Y-110450000I-1350000J0D01*
G01*
X167200000Y-110450000D02*
G75*
G03*
X167200000Y-110450000I-1350000J0D01*
G01*
X101666666Y-176500000D02*
G75*
G03*
X101666666Y-176500000I-1666666J0D01*
G01*
X97500000Y-176500000D02*
X102500000Y-176500000D01*
X100000000Y-174000000D02*
X100000000Y-179000000D01*
X101666666Y-176500000D02*
G75*
G03*
X101666666Y-176500000I-1666666J0D01*
G01*
X97500000Y-176500000D02*
X102500000Y-176500000D01*
X100000000Y-174000000D02*
X100000000Y-179000000D01*
X101666666Y-176500000D02*
G75*
G03*
X101666666Y-176500000I-1666666J0D01*
G01*
X97500000Y-176500000D02*
X102500000Y-176500000D01*
X100000000Y-174000000D02*
X100000000Y-179000000D01*
D12*
X107303000Y-111508000D03*
X161683000Y-108458000D03*
D13*
X165683000Y-110458000D03*
X103303000Y-110458000D03*
D14*
X141216000Y-167076000D03*
X155716000Y-167076000D03*
X140616000Y-171976000D03*
X156316000Y-171976000D03*
X114800000Y-167076000D03*
X129300000Y-167076000D03*
X114200000Y-171976000D03*
X129900000Y-171976000D03*
D15*
X147193000Y-150749000D03*
X147193000Y-152349000D03*
X118110000Y-150711000D03*
X118110000Y-152311000D03*
X157353000Y-122936000D03*
X157353000Y-124536000D03*
D16*
X147193000Y-141554000D03*
X147193000Y-143129000D03*
D17*
X135382000Y-146837500D03*
X135382000Y-145262500D03*
D16*
X106400500Y-141554000D03*
X106400500Y-143129000D03*
X118135500Y-141554000D03*
X118135500Y-143129000D03*
D17*
X106426000Y-146837500D03*
X106426000Y-145262500D03*
X118110000Y-146837500D03*
X118110000Y-145262500D03*
D18*
X138557000Y-145669000D03*
X138557000Y-144399000D03*
X138557000Y-143129000D03*
X138557000Y-141859000D03*
X143979000Y-141859000D03*
X143979000Y-143129000D03*
X143979000Y-144399000D03*
X143979000Y-145669000D03*
D19*
X152769000Y-125648000D03*
X152269000Y-125648000D03*
X151769000Y-125648000D03*
X151269000Y-125648000D03*
D20*
X150069000Y-124448000D03*
X150069000Y-123948000D03*
X150069000Y-123448000D03*
X150069000Y-122948000D03*
D19*
X151269000Y-121748000D03*
X151769000Y-121748000D03*
X152269000Y-121748000D03*
X152769000Y-121748000D03*
D20*
X153969000Y-122948000D03*
X153969000Y-123448000D03*
X153969000Y-123948000D03*
X153969000Y-124448000D03*
D21*
X152019000Y-123698000D03*
D19*
X130798000Y-125521000D03*
X130298000Y-125521000D03*
X129798000Y-125521000D03*
X129298000Y-125521000D03*
D20*
X128098000Y-124321000D03*
X128098000Y-123821000D03*
X128098000Y-123321000D03*
X128098000Y-122821000D03*
D19*
X129298000Y-121621000D03*
X129798000Y-121621000D03*
X130298000Y-121621000D03*
X130798000Y-121621000D03*
D20*
X131998000Y-122821000D03*
X131998000Y-123321000D03*
X131998000Y-123821000D03*
X131998000Y-124321000D03*
D21*
X130048000Y-123571000D03*
D18*
X109513000Y-145669000D03*
X109513000Y-144399000D03*
X109513000Y-143129000D03*
X109513000Y-141859000D03*
X114935000Y-141859000D03*
X114935000Y-143129000D03*
X114935000Y-144399000D03*
X114935000Y-145669000D03*
D16*
X135382000Y-141554000D03*
X135382000Y-143129000D03*
D15*
X135509000Y-122936000D03*
X135509000Y-124536000D03*
D17*
X147193000Y-146837500D03*
X147193000Y-145262500D03*
G36*
X103752121Y-116830002D02*
G01*
X103798614Y-116883658D01*
X103810000Y-116936000D01*
X103810000Y-176374000D01*
X103789998Y-176442121D01*
X103736342Y-176488614D01*
X103684000Y-176500000D01*
X100145948Y-176500000D01*
X100077827Y-176479998D01*
X100031334Y-176426342D01*
X100019948Y-176374042D01*
X100019088Y-173805475D01*
X100650479Y-173805475D01*
X100670031Y-174028945D01*
X100671934Y-174039740D01*
X100729992Y-174256417D01*
X100733738Y-174266709D01*
X100828540Y-174470013D01*
X100834023Y-174479509D01*
X100962681Y-174663252D01*
X100969737Y-174671660D01*
X101128340Y-174830263D01*
X101136748Y-174837319D01*
X101320491Y-174965977D01*
X101329987Y-174971460D01*
X101533291Y-175066262D01*
X101543583Y-175070008D01*
X101760260Y-175128066D01*
X101771055Y-175129969D01*
X101994525Y-175149521D01*
X102005475Y-175149521D01*
X102228945Y-175129969D01*
X102239740Y-175128066D01*
X102456417Y-175070008D01*
X102466709Y-175066262D01*
X102670013Y-174971460D01*
X102679509Y-174965977D01*
X102863252Y-174837319D01*
X102871660Y-174830263D01*
X103030263Y-174671660D01*
X103037319Y-174663252D01*
X103165977Y-174479509D01*
X103171460Y-174470013D01*
X103266262Y-174266709D01*
X103270008Y-174256417D01*
X103328066Y-174039740D01*
X103329969Y-174028945D01*
X103349521Y-173805475D01*
X103349521Y-173794525D01*
X103329969Y-173571055D01*
X103328066Y-173560260D01*
X103270008Y-173343583D01*
X103266262Y-173333291D01*
X103171460Y-173129987D01*
X103165977Y-173120491D01*
X103037319Y-172936748D01*
X103030263Y-172928340D01*
X102871660Y-172769737D01*
X102863252Y-172762681D01*
X102679509Y-172634023D01*
X102670013Y-172628540D01*
X102466709Y-172533738D01*
X102456417Y-172529992D01*
X102239740Y-172471934D01*
X102228945Y-172470031D01*
X102005475Y-172450479D01*
X101994525Y-172450479D01*
X101771055Y-172470031D01*
X101760260Y-172471934D01*
X101543583Y-172529992D01*
X101533291Y-172533738D01*
X101329987Y-172628540D01*
X101320491Y-172634023D01*
X101136748Y-172762681D01*
X101128340Y-172769737D01*
X100969737Y-172928340D01*
X100962681Y-172936748D01*
X100834023Y-173120491D01*
X100828540Y-173129987D01*
X100733738Y-173333291D01*
X100729992Y-173343583D01*
X100671934Y-173560260D01*
X100670031Y-173571055D01*
X100650479Y-173794525D01*
X100650479Y-173805475D01*
X100019088Y-173805475D01*
X100000042Y-116936042D01*
X100020021Y-116867915D01*
X100073661Y-116821404D01*
X100126042Y-116810000D01*
X103684000Y-116810000D01*
X103752121Y-116830002D01*
G37*
G36*
X168522163Y-116830002D02*
G01*
X168568656Y-116883658D01*
X168580042Y-116935958D01*
X168599951Y-176373958D01*
X168579972Y-176442085D01*
X168526332Y-176488596D01*
X168473951Y-176500000D01*
X164886024Y-176500000D01*
X164817903Y-176479998D01*
X164771410Y-176426342D01*
X164760024Y-176373979D01*
X164760454Y-173805475D01*
X165350479Y-173805475D01*
X165370031Y-174028945D01*
X165371934Y-174039740D01*
X165429992Y-174256417D01*
X165433738Y-174266709D01*
X165528540Y-174470013D01*
X165534023Y-174479509D01*
X165662681Y-174663252D01*
X165669737Y-174671660D01*
X165828340Y-174830263D01*
X165836748Y-174837319D01*
X166020491Y-174965977D01*
X166029987Y-174971460D01*
X166233291Y-175066262D01*
X166243583Y-175070008D01*
X166460260Y-175128066D01*
X166471055Y-175129969D01*
X166694525Y-175149521D01*
X166705475Y-175149521D01*
X166928945Y-175129969D01*
X166939740Y-175128066D01*
X167156417Y-175070008D01*
X167166709Y-175066262D01*
X167370013Y-174971460D01*
X167379509Y-174965977D01*
X167563252Y-174837319D01*
X167571660Y-174830263D01*
X167730263Y-174671660D01*
X167737319Y-174663252D01*
X167865977Y-174479509D01*
X167871460Y-174470013D01*
X167966262Y-174266709D01*
X167970008Y-174256417D01*
X168028066Y-174039740D01*
X168029969Y-174028945D01*
X168049521Y-173805475D01*
X168049521Y-173794525D01*
X168029969Y-173571055D01*
X168028066Y-173560260D01*
X167970008Y-173343583D01*
X167966262Y-173333291D01*
X167871460Y-173129987D01*
X167865977Y-173120491D01*
X167737319Y-172936748D01*
X167730263Y-172928340D01*
X167571660Y-172769737D01*
X167563252Y-172762681D01*
X167379509Y-172634023D01*
X167370013Y-172628540D01*
X167166709Y-172533738D01*
X167156417Y-172529992D01*
X166939740Y-172471934D01*
X166928945Y-172470031D01*
X166705475Y-172450479D01*
X166694525Y-172450479D01*
X166471055Y-172470031D01*
X166460260Y-172471934D01*
X166243583Y-172529992D01*
X166233291Y-172533738D01*
X166029987Y-172628540D01*
X166020491Y-172634023D01*
X165836748Y-172762681D01*
X165828340Y-172769737D01*
X165669737Y-172928340D01*
X165662681Y-172936748D01*
X165534023Y-173120491D01*
X165528540Y-173129987D01*
X165433738Y-173333291D01*
X165429992Y-173343583D01*
X165371934Y-173560260D01*
X165370031Y-173571055D01*
X165350479Y-173794525D01*
X165350479Y-173805475D01*
X164760454Y-173805475D01*
X164769979Y-116935979D01*
X164789992Y-116867862D01*
X164843656Y-116821378D01*
X164895979Y-116810000D01*
X168454042Y-116810000D01*
X168522163Y-116830002D01*
G37*
G36*
X168562590Y-116803081D02*
G01*
X168579620Y-116808081D01*
X168580185Y-116808673D01*
X168580999Y-116808673D01*
X168581512Y-116809095D01*
X168584410Y-116812440D01*
X168584852Y-116813325D01*
X168586958Y-116823002D01*
X168587004Y-116823426D01*
X168606481Y-174969131D01*
X168606987Y-176482024D01*
X168606906Y-176482588D01*
X168601912Y-176499620D01*
X168601319Y-176500186D01*
X168601319Y-176501000D01*
X168600897Y-176501511D01*
X168597571Y-176504395D01*
X168596687Y-176504838D01*
X168586969Y-176506954D01*
X168586543Y-176507000D01*
X164777976Y-176507000D01*
X164777413Y-176506919D01*
X164760383Y-176501919D01*
X164759818Y-176501327D01*
X164759003Y-176501327D01*
X164758491Y-176500904D01*
X164755976Y-176498000D01*
X164762003Y-176498000D01*
X168597993Y-176498000D01*
X168597481Y-174969135D01*
X168578001Y-116812000D01*
X164772000Y-116812000D01*
X164762456Y-173800000D01*
X164762260Y-174969134D01*
X164762003Y-176498000D01*
X164755976Y-176498000D01*
X164755605Y-176497572D01*
X164755163Y-176496688D01*
X164753051Y-176486978D01*
X164753005Y-176486553D01*
X164753260Y-174969133D01*
X164753456Y-173800021D01*
X164762997Y-116827973D01*
X164763078Y-116827409D01*
X164768081Y-116810381D01*
X164768673Y-116809817D01*
X164768673Y-116809000D01*
X164769096Y-116808488D01*
X164772437Y-116805594D01*
X164773321Y-116805152D01*
X164783007Y-116803046D01*
X164783432Y-116803000D01*
X168562027Y-116803000D01*
X168562590Y-116803081D01*
G37*
G36*
X166934599Y-172468518D02*
G01*
X166934943Y-172468578D01*
X167162245Y-172529483D01*
X167162572Y-172529602D01*
X167375845Y-172629053D01*
X167376147Y-172629228D01*
X167568910Y-172764202D01*
X167569177Y-172764426D01*
X167735574Y-172930823D01*
X167735798Y-172931090D01*
X167870772Y-173123853D01*
X167870947Y-173124155D01*
X167970398Y-173337428D01*
X167970517Y-173337755D01*
X168031422Y-173565057D01*
X168031482Y-173565401D01*
X168051992Y-173799826D01*
X168051992Y-173800174D01*
X168031482Y-174034599D01*
X168031422Y-174034943D01*
X167970517Y-174262245D01*
X167970398Y-174262572D01*
X167870947Y-174475845D01*
X167870772Y-174476147D01*
X167735798Y-174668910D01*
X167735574Y-174669177D01*
X167569177Y-174835574D01*
X167568910Y-174835798D01*
X167376147Y-174970772D01*
X167375845Y-174970947D01*
X167162572Y-175070398D01*
X167162245Y-175070517D01*
X166934943Y-175131422D01*
X166934599Y-175131482D01*
X166700174Y-175151992D01*
X166699826Y-175151992D01*
X166465401Y-175131482D01*
X166465057Y-175131422D01*
X166237755Y-175070517D01*
X166237428Y-175070398D01*
X166024155Y-174970947D01*
X166023853Y-174970772D01*
X165831090Y-174835798D01*
X165830823Y-174835574D01*
X165664426Y-174669177D01*
X165664202Y-174668910D01*
X165529228Y-174476147D01*
X165529053Y-174475845D01*
X165429602Y-174262572D01*
X165429483Y-174262245D01*
X165368578Y-174034943D01*
X165368518Y-174034599D01*
X165348939Y-173810812D01*
X165357972Y-173810812D01*
X165376484Y-174022390D01*
X165380238Y-174043685D01*
X165435211Y-174248850D01*
X165442599Y-174269147D01*
X165532368Y-174461659D01*
X165543176Y-174480376D01*
X165664997Y-174654355D01*
X165678898Y-174670923D01*
X165829077Y-174821102D01*
X165845645Y-174835003D01*
X166019624Y-174956824D01*
X166038341Y-174967632D01*
X166230853Y-175057401D01*
X166251150Y-175064789D01*
X166456315Y-175119762D01*
X166477610Y-175123516D01*
X166689188Y-175142028D01*
X166710812Y-175142028D01*
X166922390Y-175123516D01*
X166943685Y-175119762D01*
X167148850Y-175064789D01*
X167169147Y-175057401D01*
X167361659Y-174967632D01*
X167380376Y-174956824D01*
X167554355Y-174835003D01*
X167570923Y-174821102D01*
X167721102Y-174670923D01*
X167735003Y-174654355D01*
X167856824Y-174480376D01*
X167867632Y-174461659D01*
X167957401Y-174269147D01*
X167964789Y-174248850D01*
X168019762Y-174043685D01*
X168023516Y-174022390D01*
X168042028Y-173810812D01*
X168042028Y-173789188D01*
X168023516Y-173577610D01*
X168019762Y-173556315D01*
X167964789Y-173351150D01*
X167957401Y-173330853D01*
X167867632Y-173138341D01*
X167856824Y-173119624D01*
X167735003Y-172945645D01*
X167721102Y-172929077D01*
X167570923Y-172778898D01*
X167554355Y-172764997D01*
X167380376Y-172643176D01*
X167361659Y-172632368D01*
X167169147Y-172542599D01*
X167148850Y-172535211D01*
X166943685Y-172480238D01*
X166922390Y-172476484D01*
X166710812Y-172457972D01*
X166689188Y-172457972D01*
X166477610Y-172476484D01*
X166456315Y-172480238D01*
X166251150Y-172535211D01*
X166230853Y-172542599D01*
X166038341Y-172632368D01*
X166019624Y-172643176D01*
X165845645Y-172764997D01*
X165829077Y-172778898D01*
X165678898Y-172929077D01*
X165664997Y-172945645D01*
X165543176Y-173119624D01*
X165532368Y-173138341D01*
X165442599Y-173330853D01*
X165435211Y-173351150D01*
X165380238Y-173556315D01*
X165376484Y-173577610D01*
X165357972Y-173789188D01*
X165357972Y-173810812D01*
X165348939Y-173810812D01*
X165348008Y-173800174D01*
X165348008Y-173799826D01*
X165368518Y-173565401D01*
X165368578Y-173565057D01*
X165429483Y-173337755D01*
X165429602Y-173337428D01*
X165529053Y-173124155D01*
X165529228Y-173123853D01*
X165664202Y-172931090D01*
X165664426Y-172930823D01*
X165830823Y-172764426D01*
X165831090Y-172764202D01*
X166023853Y-172629228D01*
X166024155Y-172629053D01*
X166237428Y-172529602D01*
X166237755Y-172529483D01*
X166465057Y-172468578D01*
X166465401Y-172468518D01*
X166699826Y-172448008D01*
X166700174Y-172448008D01*
X166934599Y-172468518D01*
G37*
G36*
X103792590Y-116803081D02*
G01*
X103809620Y-116808081D01*
X103810185Y-116808673D01*
X103811000Y-116808673D01*
X103811512Y-116809095D01*
X103814403Y-116812432D01*
X103814845Y-116813317D01*
X103816954Y-116823013D01*
X103817000Y-116823438D01*
X103817000Y-176482027D01*
X103816919Y-176482590D01*
X103811919Y-176499620D01*
X103811327Y-176500185D01*
X103811327Y-176501000D01*
X103810905Y-176501512D01*
X103807568Y-176504403D01*
X103806683Y-176504845D01*
X103796987Y-176506954D01*
X103796562Y-176507000D01*
X100037963Y-176507000D01*
X100037400Y-176506919D01*
X100020370Y-176501919D01*
X100019805Y-176501327D01*
X100018991Y-176501327D01*
X100018478Y-176500905D01*
X100015580Y-176497560D01*
X100015138Y-176496675D01*
X100013032Y-176486998D01*
X100012986Y-176486574D01*
X100012086Y-173799959D01*
X99993006Y-116827976D01*
X99993087Y-116827412D01*
X99997606Y-116812000D01*
X100002000Y-116812000D01*
X100021086Y-173799999D01*
X100021989Y-176498000D01*
X103808000Y-176498000D01*
X103808000Y-116812000D01*
X100002000Y-116812000D01*
X99997606Y-116812000D01*
X99998081Y-116810380D01*
X99998674Y-116809814D01*
X99998674Y-116809000D01*
X99999096Y-116808489D01*
X100002422Y-116805605D01*
X100003306Y-116805162D01*
X100013024Y-116803046D01*
X100013450Y-116803000D01*
X103792027Y-116803000D01*
X103792590Y-116803081D01*
G37*
G36*
X102234599Y-172468518D02*
G01*
X102234943Y-172468578D01*
X102462245Y-172529483D01*
X102462572Y-172529602D01*
X102675845Y-172629053D01*
X102676147Y-172629228D01*
X102868910Y-172764202D01*
X102869177Y-172764426D01*
X103035574Y-172930823D01*
X103035798Y-172931090D01*
X103170772Y-173123853D01*
X103170947Y-173124155D01*
X103270398Y-173337428D01*
X103270517Y-173337755D01*
X103331422Y-173565057D01*
X103331482Y-173565401D01*
X103351992Y-173799826D01*
X103351992Y-173800174D01*
X103331482Y-174034599D01*
X103331422Y-174034943D01*
X103270517Y-174262245D01*
X103270398Y-174262572D01*
X103170947Y-174475845D01*
X103170772Y-174476147D01*
X103035798Y-174668910D01*
X103035574Y-174669177D01*
X102869177Y-174835574D01*
X102868910Y-174835798D01*
X102676147Y-174970772D01*
X102675845Y-174970947D01*
X102462572Y-175070398D01*
X102462245Y-175070517D01*
X102234943Y-175131422D01*
X102234599Y-175131482D01*
X102000174Y-175151992D01*
X101999826Y-175151992D01*
X101765401Y-175131482D01*
X101765057Y-175131422D01*
X101537755Y-175070517D01*
X101537428Y-175070398D01*
X101324155Y-174970947D01*
X101323853Y-174970772D01*
X101131090Y-174835798D01*
X101130823Y-174835574D01*
X100964426Y-174669177D01*
X100964202Y-174668910D01*
X100829228Y-174476147D01*
X100829053Y-174475845D01*
X100729602Y-174262572D01*
X100729483Y-174262245D01*
X100668578Y-174034943D01*
X100668518Y-174034599D01*
X100648939Y-173810812D01*
X100657972Y-173810812D01*
X100676484Y-174022390D01*
X100680238Y-174043685D01*
X100735211Y-174248850D01*
X100742599Y-174269147D01*
X100832368Y-174461659D01*
X100843176Y-174480376D01*
X100964997Y-174654355D01*
X100978898Y-174670923D01*
X101129077Y-174821102D01*
X101145645Y-174835003D01*
X101319624Y-174956824D01*
X101338341Y-174967632D01*
X101530853Y-175057401D01*
X101551150Y-175064789D01*
X101756315Y-175119762D01*
X101777610Y-175123516D01*
X101989188Y-175142028D01*
X102010812Y-175142028D01*
X102222390Y-175123516D01*
X102243685Y-175119762D01*
X102448850Y-175064789D01*
X102469147Y-175057401D01*
X102661659Y-174967632D01*
X102680376Y-174956824D01*
X102854355Y-174835003D01*
X102870923Y-174821102D01*
X103021102Y-174670923D01*
X103035003Y-174654355D01*
X103156824Y-174480376D01*
X103167632Y-174461659D01*
X103257401Y-174269147D01*
X103264789Y-174248850D01*
X103319762Y-174043685D01*
X103323516Y-174022390D01*
X103342028Y-173810812D01*
X103342028Y-173789188D01*
X103323516Y-173577610D01*
X103319762Y-173556315D01*
X103264789Y-173351150D01*
X103257401Y-173330853D01*
X103167632Y-173138341D01*
X103156824Y-173119624D01*
X103035003Y-172945645D01*
X103021102Y-172929077D01*
X102870923Y-172778898D01*
X102854355Y-172764997D01*
X102680376Y-172643176D01*
X102661659Y-172632368D01*
X102469147Y-172542599D01*
X102448850Y-172535211D01*
X102243685Y-172480238D01*
X102222390Y-172476484D01*
X102010812Y-172457972D01*
X101989188Y-172457972D01*
X101777610Y-172476484D01*
X101756315Y-172480238D01*
X101551150Y-172535211D01*
X101530853Y-172542599D01*
X101338341Y-172632368D01*
X101319624Y-172643176D01*
X101145645Y-172764997D01*
X101129077Y-172778898D01*
X100978898Y-172929077D01*
X100964997Y-172945645D01*
X100843176Y-173119624D01*
X100832368Y-173138341D01*
X100742599Y-173330853D01*
X100735211Y-173351150D01*
X100680238Y-173556315D01*
X100676484Y-173577610D01*
X100657972Y-173789188D01*
X100657972Y-173810812D01*
X100648939Y-173810812D01*
X100648008Y-173800174D01*
X100648008Y-173799826D01*
X100668518Y-173565401D01*
X100668578Y-173565057D01*
X100729483Y-173337755D01*
X100729602Y-173337428D01*
X100829053Y-173124155D01*
X100829228Y-173123853D01*
X100964202Y-172931090D01*
X100964426Y-172930823D01*
X101130823Y-172764426D01*
X101131090Y-172764202D01*
X101323853Y-172629228D01*
X101324155Y-172629053D01*
X101537428Y-172529602D01*
X101537755Y-172529483D01*
X101765057Y-172468578D01*
X101765401Y-172468518D01*
X101999826Y-172448008D01*
X102000174Y-172448008D01*
X102234599Y-172468518D01*
G37*
G36*
X152583633Y-125186516D02*
G01*
X152584197Y-125188435D01*
X152583916Y-125189074D01*
X152573767Y-125204262D01*
X152570000Y-125223199D01*
X152570000Y-126072801D01*
X152573767Y-126091738D01*
X152583814Y-126106773D01*
X152583945Y-126108768D01*
X152582282Y-126109880D01*
X152581553Y-126109793D01*
X152521212Y-126090898D01*
X152456310Y-126109955D01*
X152454367Y-126109483D01*
X152453803Y-126107564D01*
X152454084Y-126106925D01*
X152464233Y-126091737D01*
X152468000Y-126072801D01*
X152468000Y-125223199D01*
X152464233Y-125204262D01*
X152454186Y-125189227D01*
X152454055Y-125187232D01*
X152455718Y-125186120D01*
X152456447Y-125186207D01*
X152516786Y-125205102D01*
X152581690Y-125186044D01*
X152583633Y-125186516D01*
G37*
G36*
X152083633Y-125186515D02*
G01*
X152084197Y-125188434D01*
X152083916Y-125189074D01*
X152073767Y-125204262D01*
X152070000Y-125223199D01*
X152070000Y-126072801D01*
X152073767Y-126091738D01*
X152083814Y-126106773D01*
X152083945Y-126108768D01*
X152082282Y-126109880D01*
X152081553Y-126109793D01*
X152021212Y-126090898D01*
X151956310Y-126109955D01*
X151954367Y-126109483D01*
X151953803Y-126107564D01*
X151954084Y-126106925D01*
X151964233Y-126091737D01*
X151968000Y-126072801D01*
X151968000Y-125223199D01*
X151964233Y-125204262D01*
X151954188Y-125189229D01*
X151954057Y-125187233D01*
X151955720Y-125186122D01*
X151956449Y-125186209D01*
X152016792Y-125205102D01*
X152081689Y-125186044D01*
X152083633Y-125186515D01*
G37*
G36*
X151583632Y-125186518D02*
G01*
X151584196Y-125188437D01*
X151583915Y-125189076D01*
X151573767Y-125204262D01*
X151570000Y-125223199D01*
X151570000Y-126072801D01*
X151573767Y-126091738D01*
X151583814Y-126106773D01*
X151583945Y-126108768D01*
X151582282Y-126109880D01*
X151581553Y-126109793D01*
X151521212Y-126090898D01*
X151456310Y-126109955D01*
X151454367Y-126109483D01*
X151453803Y-126107564D01*
X151454084Y-126106925D01*
X151464233Y-126091737D01*
X151468000Y-126072801D01*
X151468000Y-125223199D01*
X151464233Y-125204262D01*
X151454187Y-125189228D01*
X151454056Y-125187232D01*
X151455719Y-125186121D01*
X151456448Y-125186208D01*
X151516788Y-125205102D01*
X151581689Y-125186046D01*
X151583632Y-125186518D01*
G37*
G36*
X130112633Y-125059515D02*
G01*
X130113197Y-125061434D01*
X130112916Y-125062074D01*
X130102767Y-125077262D01*
X130099000Y-125096199D01*
X130099000Y-125945801D01*
X130102767Y-125964738D01*
X130112814Y-125979773D01*
X130112945Y-125981768D01*
X130111282Y-125982880D01*
X130110553Y-125982793D01*
X130050212Y-125963898D01*
X129985310Y-125982955D01*
X129983367Y-125982483D01*
X129982803Y-125980564D01*
X129983084Y-125979925D01*
X129993233Y-125964737D01*
X129997000Y-125945801D01*
X129997000Y-125096199D01*
X129993233Y-125077262D01*
X129983188Y-125062229D01*
X129983057Y-125060233D01*
X129984720Y-125059122D01*
X129985449Y-125059209D01*
X130045792Y-125078102D01*
X130110689Y-125059044D01*
X130112633Y-125059515D01*
G37*
G36*
X129612632Y-125059518D02*
G01*
X129613196Y-125061437D01*
X129612915Y-125062076D01*
X129602767Y-125077262D01*
X129599000Y-125096199D01*
X129599000Y-125945801D01*
X129602767Y-125964738D01*
X129612814Y-125979773D01*
X129612945Y-125981768D01*
X129611282Y-125982880D01*
X129610553Y-125982793D01*
X129550212Y-125963898D01*
X129485310Y-125982955D01*
X129483367Y-125982483D01*
X129482803Y-125980564D01*
X129483084Y-125979925D01*
X129493233Y-125964737D01*
X129497000Y-125945801D01*
X129497000Y-125096199D01*
X129493233Y-125077262D01*
X129483187Y-125062228D01*
X129483056Y-125060232D01*
X129484719Y-125059121D01*
X129485448Y-125059208D01*
X129545788Y-125078102D01*
X129610689Y-125059046D01*
X129612632Y-125059518D01*
G37*
G36*
X130612633Y-125059516D02*
G01*
X130613197Y-125061435D01*
X130612916Y-125062074D01*
X130602767Y-125077262D01*
X130599000Y-125096199D01*
X130599000Y-125945801D01*
X130602767Y-125964738D01*
X130612814Y-125979773D01*
X130612945Y-125981768D01*
X130611282Y-125982880D01*
X130610553Y-125982793D01*
X130550212Y-125963898D01*
X130485310Y-125982955D01*
X130483367Y-125982483D01*
X130482803Y-125980564D01*
X130483084Y-125979925D01*
X130493233Y-125964737D01*
X130497000Y-125945801D01*
X130497000Y-125096199D01*
X130493233Y-125077262D01*
X130483186Y-125062227D01*
X130483055Y-125060232D01*
X130484718Y-125059120D01*
X130485447Y-125059207D01*
X130545786Y-125078102D01*
X130610690Y-125059044D01*
X130612633Y-125059516D01*
G37*
G36*
X153008435Y-124948000D02*
G01*
X153008435Y-124950000D01*
X153007266Y-124950919D01*
X152940254Y-124970595D01*
X152894899Y-125022938D01*
X152885042Y-125091491D01*
X152913880Y-125154636D01*
X152935219Y-125173463D01*
X152935856Y-125175359D01*
X152934533Y-125176859D01*
X152933506Y-125176925D01*
X152918801Y-125174000D01*
X152619199Y-125174000D01*
X152603435Y-125177136D01*
X152601541Y-125176493D01*
X152601151Y-125174531D01*
X152601510Y-125173892D01*
X152643996Y-125123052D01*
X152652626Y-125054334D01*
X152622734Y-124991860D01*
X152563671Y-124955377D01*
X152531034Y-124950982D01*
X152529451Y-124949760D01*
X152529718Y-124947778D01*
X152531301Y-124947000D01*
X153006703Y-124947000D01*
X153008435Y-124948000D01*
G37*
G36*
X152508435Y-124948000D02*
G01*
X152508435Y-124950000D01*
X152507266Y-124950919D01*
X152440254Y-124970595D01*
X152394899Y-125022938D01*
X152385042Y-125091491D01*
X152413880Y-125154636D01*
X152435219Y-125173463D01*
X152435856Y-125175359D01*
X152434533Y-125176859D01*
X152433506Y-125176925D01*
X152418801Y-125174000D01*
X152119199Y-125174000D01*
X152103435Y-125177136D01*
X152101541Y-125176493D01*
X152101151Y-125174531D01*
X152101510Y-125173892D01*
X152143996Y-125123052D01*
X152152626Y-125054334D01*
X152122734Y-124991860D01*
X152063671Y-124955377D01*
X152031029Y-124950982D01*
X152029446Y-124949760D01*
X152029713Y-124947778D01*
X152031296Y-124947000D01*
X152506703Y-124947000D01*
X152508435Y-124948000D01*
G37*
G36*
X152008433Y-124948000D02*
G01*
X152008433Y-124950000D01*
X152007265Y-124950919D01*
X151940250Y-124970599D01*
X151894897Y-125022943D01*
X151885043Y-125091497D01*
X151913883Y-125154641D01*
X151935219Y-125173463D01*
X151935856Y-125175359D01*
X151934533Y-125176859D01*
X151933506Y-125176925D01*
X151918801Y-125174000D01*
X151619199Y-125174000D01*
X151603434Y-125177136D01*
X151601540Y-125176493D01*
X151601150Y-125174531D01*
X151601509Y-125173891D01*
X151643994Y-125123053D01*
X151652625Y-125054338D01*
X151622734Y-124991863D01*
X151563672Y-124955379D01*
X151531160Y-124951000D01*
X151506994Y-124951000D01*
X151440255Y-124970596D01*
X151394900Y-125022939D01*
X151385043Y-125091492D01*
X151413881Y-125154637D01*
X151435219Y-125173463D01*
X151435856Y-125175359D01*
X151434533Y-125176859D01*
X151433506Y-125176925D01*
X151418801Y-125174000D01*
X151119199Y-125174000D01*
X151103434Y-125177136D01*
X151101540Y-125176493D01*
X151101150Y-125174531D01*
X151101509Y-125173891D01*
X151143994Y-125123053D01*
X151152625Y-125054338D01*
X151122735Y-124991863D01*
X151063673Y-124955379D01*
X151031026Y-124950982D01*
X151029443Y-124949760D01*
X151029710Y-124947778D01*
X151031293Y-124947000D01*
X152006701Y-124947000D01*
X152008433Y-124948000D01*
G37*
G36*
X130037433Y-124821000D02*
G01*
X130037433Y-124823000D01*
X130036265Y-124823919D01*
X129969250Y-124843599D01*
X129923897Y-124895943D01*
X129914043Y-124964497D01*
X129942883Y-125027641D01*
X129964219Y-125046463D01*
X129964856Y-125048359D01*
X129963533Y-125049859D01*
X129962506Y-125049925D01*
X129947801Y-125047000D01*
X129648199Y-125047000D01*
X129632434Y-125050136D01*
X129630540Y-125049493D01*
X129630150Y-125047531D01*
X129630509Y-125046891D01*
X129672994Y-124996053D01*
X129681625Y-124927338D01*
X129651734Y-124864863D01*
X129592672Y-124828379D01*
X129560160Y-124824000D01*
X129535994Y-124824000D01*
X129469255Y-124843596D01*
X129423900Y-124895939D01*
X129414043Y-124964492D01*
X129442881Y-125027637D01*
X129464219Y-125046463D01*
X129464856Y-125048359D01*
X129463533Y-125049859D01*
X129462506Y-125049925D01*
X129447801Y-125047000D01*
X129148199Y-125047000D01*
X129132434Y-125050136D01*
X129130540Y-125049493D01*
X129130150Y-125047531D01*
X129130509Y-125046891D01*
X129172994Y-124996053D01*
X129181625Y-124927338D01*
X129151735Y-124864863D01*
X129092673Y-124828379D01*
X129060026Y-124823982D01*
X129058443Y-124822760D01*
X129058710Y-124820778D01*
X129060293Y-124820000D01*
X130035701Y-124820000D01*
X130037433Y-124821000D01*
G37*
G36*
X131037435Y-124821000D02*
G01*
X131037435Y-124823000D01*
X131036266Y-124823919D01*
X130969254Y-124843595D01*
X130923899Y-124895938D01*
X130914042Y-124964491D01*
X130942880Y-125027636D01*
X130964219Y-125046463D01*
X130964856Y-125048359D01*
X130963533Y-125049859D01*
X130962506Y-125049925D01*
X130947801Y-125047000D01*
X130648199Y-125047000D01*
X130632435Y-125050136D01*
X130630541Y-125049493D01*
X130630151Y-125047531D01*
X130630510Y-125046892D01*
X130672996Y-124996052D01*
X130681626Y-124927334D01*
X130651734Y-124864860D01*
X130592671Y-124828377D01*
X130560034Y-124823982D01*
X130558451Y-124822760D01*
X130558718Y-124820778D01*
X130560301Y-124820000D01*
X131035703Y-124820000D01*
X131037435Y-124821000D01*
G37*
G36*
X130537435Y-124821000D02*
G01*
X130537435Y-124823000D01*
X130536266Y-124823919D01*
X130469254Y-124843595D01*
X130423899Y-124895938D01*
X130414042Y-124964491D01*
X130442880Y-125027636D01*
X130464219Y-125046463D01*
X130464856Y-125048359D01*
X130463533Y-125049859D01*
X130462506Y-125049925D01*
X130447801Y-125047000D01*
X130148199Y-125047000D01*
X130132435Y-125050136D01*
X130130541Y-125049493D01*
X130130151Y-125047531D01*
X130130510Y-125046892D01*
X130172996Y-124996052D01*
X130181626Y-124927334D01*
X130151734Y-124864860D01*
X130092671Y-124828377D01*
X130060029Y-124823982D01*
X130058446Y-124822760D01*
X130058713Y-124820778D01*
X130060296Y-124820000D01*
X130535703Y-124820000D01*
X130537435Y-124821000D01*
G37*
G36*
X153271919Y-124209731D02*
G01*
X153291596Y-124276745D01*
X153343939Y-124322100D01*
X153412492Y-124331957D01*
X153475637Y-124303119D01*
X153494463Y-124281781D01*
X153496359Y-124281144D01*
X153497859Y-124282467D01*
X153497925Y-124283494D01*
X153495000Y-124298199D01*
X153495000Y-124597801D01*
X153498136Y-124613566D01*
X153497493Y-124615460D01*
X153495531Y-124615850D01*
X153494891Y-124615491D01*
X153444053Y-124573006D01*
X153375338Y-124564375D01*
X153312863Y-124594265D01*
X153276379Y-124653327D01*
X153271982Y-124685973D01*
X153270760Y-124687556D01*
X153268778Y-124687289D01*
X153268000Y-124685706D01*
X153268000Y-124210294D01*
X153269000Y-124208562D01*
X153271000Y-124208562D01*
X153271919Y-124209731D01*
G37*
G36*
X150769222Y-124208718D02*
G01*
X150770000Y-124210301D01*
X150770000Y-124685703D01*
X150769000Y-124687435D01*
X150767000Y-124687435D01*
X150766081Y-124686266D01*
X150746405Y-124619254D01*
X150694062Y-124573899D01*
X150625509Y-124564042D01*
X150562364Y-124592880D01*
X150543537Y-124614219D01*
X150541641Y-124614856D01*
X150540141Y-124613533D01*
X150540075Y-124612506D01*
X150543000Y-124597801D01*
X150543000Y-124298199D01*
X150539864Y-124282435D01*
X150540507Y-124280541D01*
X150542469Y-124280151D01*
X150543108Y-124280510D01*
X150593948Y-124322996D01*
X150662666Y-124331626D01*
X150725140Y-124301734D01*
X150761623Y-124242671D01*
X150766018Y-124210034D01*
X150767240Y-124208451D01*
X150769222Y-124208718D01*
G37*
G36*
X131300919Y-124082731D02*
G01*
X131320596Y-124149745D01*
X131372939Y-124195100D01*
X131441492Y-124204957D01*
X131504637Y-124176119D01*
X131523463Y-124154781D01*
X131525359Y-124154144D01*
X131526859Y-124155467D01*
X131526925Y-124156494D01*
X131524000Y-124171199D01*
X131524000Y-124470801D01*
X131527136Y-124486566D01*
X131526493Y-124488460D01*
X131524531Y-124488850D01*
X131523891Y-124488491D01*
X131473053Y-124446006D01*
X131404338Y-124437375D01*
X131341863Y-124467265D01*
X131305379Y-124526327D01*
X131300982Y-124558973D01*
X131299760Y-124560556D01*
X131297778Y-124560289D01*
X131297000Y-124558706D01*
X131297000Y-124083294D01*
X131298000Y-124081562D01*
X131300000Y-124081562D01*
X131300919Y-124082731D01*
G37*
G36*
X128798222Y-124081718D02*
G01*
X128799000Y-124083301D01*
X128799000Y-124558703D01*
X128798000Y-124560435D01*
X128796000Y-124560435D01*
X128795081Y-124559266D01*
X128775405Y-124492254D01*
X128723062Y-124446899D01*
X128654509Y-124437042D01*
X128591364Y-124465880D01*
X128572537Y-124487219D01*
X128570641Y-124487856D01*
X128569141Y-124486533D01*
X128569075Y-124485506D01*
X128572000Y-124470801D01*
X128572000Y-124171199D01*
X128568864Y-124155435D01*
X128569507Y-124153541D01*
X128571469Y-124153151D01*
X128572108Y-124153510D01*
X128622948Y-124195996D01*
X128691666Y-124204626D01*
X128754140Y-124174734D01*
X128790623Y-124115671D01*
X128795018Y-124083034D01*
X128796240Y-124081451D01*
X128798222Y-124081718D01*
G37*
G36*
X149610075Y-124133084D02*
G01*
X149625263Y-124143233D01*
X149644199Y-124147000D01*
X150493801Y-124147000D01*
X150512738Y-124143233D01*
X150527773Y-124133186D01*
X150529768Y-124133055D01*
X150530880Y-124134718D01*
X150530793Y-124135447D01*
X150511898Y-124195786D01*
X150530956Y-124260690D01*
X150530484Y-124262633D01*
X150528565Y-124263197D01*
X150527926Y-124262916D01*
X150512738Y-124252767D01*
X150493801Y-124249000D01*
X149644199Y-124249000D01*
X149625262Y-124252767D01*
X149610227Y-124262814D01*
X149608232Y-124262945D01*
X149607120Y-124261282D01*
X149607207Y-124260553D01*
X149626102Y-124200212D01*
X149607045Y-124135310D01*
X149607517Y-124133367D01*
X149609436Y-124132803D01*
X149610075Y-124133084D01*
G37*
G36*
X153510076Y-124133085D02*
G01*
X153525262Y-124143233D01*
X153544199Y-124147000D01*
X154393801Y-124147000D01*
X154412738Y-124143233D01*
X154427773Y-124133186D01*
X154429768Y-124133055D01*
X154430880Y-124134718D01*
X154430793Y-124135447D01*
X154411898Y-124195788D01*
X154430955Y-124260690D01*
X154430483Y-124262633D01*
X154428564Y-124263197D01*
X154427925Y-124262916D01*
X154412737Y-124252767D01*
X154393801Y-124249000D01*
X153544199Y-124249000D01*
X153525262Y-124252767D01*
X153510228Y-124262813D01*
X153508232Y-124262944D01*
X153507121Y-124261281D01*
X153507208Y-124260552D01*
X153526102Y-124200212D01*
X153507046Y-124135311D01*
X153507518Y-124133368D01*
X153509437Y-124132804D01*
X153510076Y-124133085D01*
G37*
G36*
X153271919Y-123709735D02*
G01*
X153291599Y-123776750D01*
X153343943Y-123822103D01*
X153412497Y-123831957D01*
X153475641Y-123803117D01*
X153494463Y-123781781D01*
X153496359Y-123781144D01*
X153497859Y-123782467D01*
X153497925Y-123783494D01*
X153495000Y-123798199D01*
X153495000Y-124097801D01*
X153498136Y-124113566D01*
X153497493Y-124115460D01*
X153495531Y-124115850D01*
X153494891Y-124115491D01*
X153444053Y-124073006D01*
X153375338Y-124064375D01*
X153312863Y-124094266D01*
X153276379Y-124153328D01*
X153271982Y-124185973D01*
X153270760Y-124187556D01*
X153268778Y-124187289D01*
X153268000Y-124185706D01*
X153268000Y-123710299D01*
X153269000Y-123708567D01*
X153271000Y-123708567D01*
X153271919Y-123709735D01*
G37*
G36*
X150769222Y-123708716D02*
G01*
X150770000Y-123710299D01*
X150770000Y-124185703D01*
X150769000Y-124187435D01*
X150767000Y-124187435D01*
X150766081Y-124186266D01*
X150746405Y-124119254D01*
X150694062Y-124073899D01*
X150625509Y-124064042D01*
X150562364Y-124092880D01*
X150543537Y-124114219D01*
X150541641Y-124114856D01*
X150540141Y-124113533D01*
X150540075Y-124112506D01*
X150543000Y-124097801D01*
X150543000Y-123798199D01*
X150539864Y-123782435D01*
X150540507Y-123780541D01*
X150542469Y-123780151D01*
X150543108Y-123780510D01*
X150593948Y-123822996D01*
X150662666Y-123831626D01*
X150725140Y-123801734D01*
X150761623Y-123742671D01*
X150766018Y-123710032D01*
X150767240Y-123708449D01*
X150769222Y-123708716D01*
G37*
G36*
X131539076Y-124006085D02*
G01*
X131554262Y-124016233D01*
X131573199Y-124020000D01*
X132422801Y-124020000D01*
X132441738Y-124016233D01*
X132456773Y-124006186D01*
X132458768Y-124006055D01*
X132459880Y-124007718D01*
X132459793Y-124008447D01*
X132440898Y-124068788D01*
X132459955Y-124133690D01*
X132459483Y-124135633D01*
X132457564Y-124136197D01*
X132456925Y-124135916D01*
X132441737Y-124125767D01*
X132422801Y-124122000D01*
X131573199Y-124122000D01*
X131554262Y-124125767D01*
X131539228Y-124135813D01*
X131537232Y-124135944D01*
X131536121Y-124134281D01*
X131536208Y-124133552D01*
X131555102Y-124073212D01*
X131536046Y-124008311D01*
X131536518Y-124006368D01*
X131538437Y-124005804D01*
X131539076Y-124006085D01*
G37*
G36*
X127639075Y-124006084D02*
G01*
X127654263Y-124016233D01*
X127673199Y-124020000D01*
X128522801Y-124020000D01*
X128541738Y-124016233D01*
X128556773Y-124006186D01*
X128558768Y-124006055D01*
X128559880Y-124007718D01*
X128559793Y-124008447D01*
X128540898Y-124068786D01*
X128559956Y-124133690D01*
X128559484Y-124135633D01*
X128557565Y-124136197D01*
X128556926Y-124135916D01*
X128541738Y-124125767D01*
X128522801Y-124122000D01*
X127673199Y-124122000D01*
X127654262Y-124125767D01*
X127639227Y-124135814D01*
X127637232Y-124135945D01*
X127636120Y-124134282D01*
X127636207Y-124133553D01*
X127655102Y-124073212D01*
X127636045Y-124008310D01*
X127636517Y-124006367D01*
X127638436Y-124005803D01*
X127639075Y-124006084D01*
G37*
G36*
X131300919Y-123582735D02*
G01*
X131320599Y-123649750D01*
X131372943Y-123695103D01*
X131441497Y-123704957D01*
X131504641Y-123676117D01*
X131523463Y-123654781D01*
X131525359Y-123654144D01*
X131526859Y-123655467D01*
X131526925Y-123656494D01*
X131524000Y-123671199D01*
X131524000Y-123970801D01*
X131527136Y-123986566D01*
X131526493Y-123988460D01*
X131524531Y-123988850D01*
X131523891Y-123988491D01*
X131473053Y-123946006D01*
X131404338Y-123937375D01*
X131341863Y-123967266D01*
X131305379Y-124026328D01*
X131300982Y-124058973D01*
X131299760Y-124060556D01*
X131297778Y-124060289D01*
X131297000Y-124058706D01*
X131297000Y-123583299D01*
X131298000Y-123581567D01*
X131300000Y-123581567D01*
X131300919Y-123582735D01*
G37*
G36*
X128798222Y-123581716D02*
G01*
X128799000Y-123583299D01*
X128799000Y-124058703D01*
X128798000Y-124060435D01*
X128796000Y-124060435D01*
X128795081Y-124059266D01*
X128775405Y-123992254D01*
X128723062Y-123946899D01*
X128654509Y-123937042D01*
X128591364Y-123965880D01*
X128572537Y-123987219D01*
X128570641Y-123987856D01*
X128569141Y-123986533D01*
X128569075Y-123985506D01*
X128572000Y-123970801D01*
X128572000Y-123671199D01*
X128568864Y-123655435D01*
X128569507Y-123653541D01*
X128571469Y-123653151D01*
X128572108Y-123653510D01*
X128622948Y-123695996D01*
X128691666Y-123704626D01*
X128754140Y-123674734D01*
X128790623Y-123615671D01*
X128795018Y-123583032D01*
X128796240Y-123581449D01*
X128798222Y-123581716D01*
G37*
G36*
X153510074Y-123633084D02*
G01*
X153525262Y-123643233D01*
X153544199Y-123647000D01*
X154393801Y-123647000D01*
X154412738Y-123643233D01*
X154427773Y-123633186D01*
X154429768Y-123633055D01*
X154430880Y-123634718D01*
X154430793Y-123635447D01*
X154411898Y-123695788D01*
X154430955Y-123760690D01*
X154430483Y-123762633D01*
X154428564Y-123763197D01*
X154427925Y-123762916D01*
X154412737Y-123752767D01*
X154393801Y-123749000D01*
X153544199Y-123749000D01*
X153525262Y-123752767D01*
X153510229Y-123762812D01*
X153508233Y-123762943D01*
X153507122Y-123761280D01*
X153507209Y-123760551D01*
X153526102Y-123700208D01*
X153507044Y-123635311D01*
X153507515Y-123633367D01*
X153509434Y-123632803D01*
X153510074Y-123633084D01*
G37*
G36*
X149610075Y-123633084D02*
G01*
X149625263Y-123643233D01*
X149644199Y-123647000D01*
X150493801Y-123647000D01*
X150512738Y-123643233D01*
X150527771Y-123633188D01*
X150529767Y-123633057D01*
X150530878Y-123634720D01*
X150530791Y-123635449D01*
X150511898Y-123695792D01*
X150530956Y-123760689D01*
X150530485Y-123762633D01*
X150528566Y-123763197D01*
X150527926Y-123762916D01*
X150512738Y-123752767D01*
X150493801Y-123749000D01*
X149644199Y-123749000D01*
X149625262Y-123752767D01*
X149610227Y-123762814D01*
X149608232Y-123762945D01*
X149607120Y-123761282D01*
X149607207Y-123760553D01*
X149626102Y-123700212D01*
X149607045Y-123635310D01*
X149607517Y-123633367D01*
X149609436Y-123632803D01*
X149610075Y-123633084D01*
G37*
G36*
X153271919Y-123209734D02*
G01*
X153291595Y-123276746D01*
X153343938Y-123322101D01*
X153412491Y-123331958D01*
X153475636Y-123303120D01*
X153494463Y-123281781D01*
X153496359Y-123281144D01*
X153497859Y-123282467D01*
X153497925Y-123283494D01*
X153495000Y-123298199D01*
X153495000Y-123597801D01*
X153498136Y-123613565D01*
X153497493Y-123615459D01*
X153495531Y-123615849D01*
X153494892Y-123615490D01*
X153444052Y-123573004D01*
X153375334Y-123564374D01*
X153312860Y-123594266D01*
X153276377Y-123653329D01*
X153271982Y-123685968D01*
X153270760Y-123687551D01*
X153268778Y-123687284D01*
X153268000Y-123685701D01*
X153268000Y-123210297D01*
X153269000Y-123208565D01*
X153271000Y-123208565D01*
X153271919Y-123209734D01*
G37*
G36*
X150769222Y-123208711D02*
G01*
X150770000Y-123210294D01*
X150770000Y-123685701D01*
X150769000Y-123687433D01*
X150767000Y-123687433D01*
X150766081Y-123686265D01*
X150746401Y-123619250D01*
X150694057Y-123573897D01*
X150625503Y-123564043D01*
X150562359Y-123592883D01*
X150543537Y-123614219D01*
X150541641Y-123614856D01*
X150540141Y-123613533D01*
X150540075Y-123612506D01*
X150543000Y-123597801D01*
X150543000Y-123298199D01*
X150539864Y-123282434D01*
X150540507Y-123280540D01*
X150542469Y-123280150D01*
X150543109Y-123280509D01*
X150593947Y-123322994D01*
X150662662Y-123331625D01*
X150725137Y-123301734D01*
X150761621Y-123242672D01*
X150766018Y-123210027D01*
X150767240Y-123208444D01*
X150769222Y-123208711D01*
G37*
G36*
X131539074Y-123506084D02*
G01*
X131554262Y-123516233D01*
X131573199Y-123520000D01*
X132422801Y-123520000D01*
X132441738Y-123516233D01*
X132456773Y-123506186D01*
X132458768Y-123506055D01*
X132459880Y-123507718D01*
X132459793Y-123508447D01*
X132440898Y-123568788D01*
X132459955Y-123633690D01*
X132459483Y-123635633D01*
X132457564Y-123636197D01*
X132456925Y-123635916D01*
X132441737Y-123625767D01*
X132422801Y-123622000D01*
X131573199Y-123622000D01*
X131554262Y-123625767D01*
X131539229Y-123635812D01*
X131537233Y-123635943D01*
X131536122Y-123634280D01*
X131536209Y-123633551D01*
X131555102Y-123573208D01*
X131536044Y-123508311D01*
X131536515Y-123506367D01*
X131538434Y-123505803D01*
X131539074Y-123506084D01*
G37*
G36*
X127639075Y-123506084D02*
G01*
X127654263Y-123516233D01*
X127673199Y-123520000D01*
X128522801Y-123520000D01*
X128541738Y-123516233D01*
X128556771Y-123506188D01*
X128558767Y-123506057D01*
X128559878Y-123507720D01*
X128559791Y-123508449D01*
X128540898Y-123568792D01*
X128559956Y-123633689D01*
X128559485Y-123635633D01*
X128557566Y-123636197D01*
X128556926Y-123635916D01*
X128541738Y-123625767D01*
X128522801Y-123622000D01*
X127673199Y-123622000D01*
X127654262Y-123625767D01*
X127639227Y-123635814D01*
X127637232Y-123635945D01*
X127636120Y-123634282D01*
X127636207Y-123633553D01*
X127655102Y-123573212D01*
X127636045Y-123508310D01*
X127636517Y-123506367D01*
X127638436Y-123505803D01*
X127639075Y-123506084D01*
G37*
G36*
X131300919Y-123082734D02*
G01*
X131320595Y-123149746D01*
X131372938Y-123195101D01*
X131441491Y-123204958D01*
X131504636Y-123176120D01*
X131523463Y-123154781D01*
X131525359Y-123154144D01*
X131526859Y-123155467D01*
X131526925Y-123156494D01*
X131524000Y-123171199D01*
X131524000Y-123470801D01*
X131527136Y-123486565D01*
X131526493Y-123488459D01*
X131524531Y-123488849D01*
X131523892Y-123488490D01*
X131473052Y-123446004D01*
X131404334Y-123437374D01*
X131341860Y-123467266D01*
X131305377Y-123526329D01*
X131300982Y-123558968D01*
X131299760Y-123560551D01*
X131297778Y-123560284D01*
X131297000Y-123558701D01*
X131297000Y-123083297D01*
X131298000Y-123081565D01*
X131300000Y-123081565D01*
X131300919Y-123082734D01*
G37*
G36*
X128798222Y-123081711D02*
G01*
X128799000Y-123083294D01*
X128799000Y-123558701D01*
X128798000Y-123560433D01*
X128796000Y-123560433D01*
X128795081Y-123559265D01*
X128775401Y-123492250D01*
X128723057Y-123446897D01*
X128654503Y-123437043D01*
X128591359Y-123465883D01*
X128572537Y-123487219D01*
X128570641Y-123487856D01*
X128569141Y-123486533D01*
X128569075Y-123485506D01*
X128572000Y-123470801D01*
X128572000Y-123171199D01*
X128568864Y-123155434D01*
X128569507Y-123153540D01*
X128571469Y-123153150D01*
X128572109Y-123153509D01*
X128622947Y-123195994D01*
X128691662Y-123204625D01*
X128754137Y-123174734D01*
X128790621Y-123115672D01*
X128795018Y-123083027D01*
X128796240Y-123081444D01*
X128798222Y-123081711D01*
G37*
G36*
X153510074Y-123133084D02*
G01*
X153525262Y-123143233D01*
X153544199Y-123147000D01*
X154393801Y-123147000D01*
X154412738Y-123143233D01*
X154427773Y-123133186D01*
X154429768Y-123133055D01*
X154430880Y-123134718D01*
X154430793Y-123135447D01*
X154411898Y-123195788D01*
X154430955Y-123260690D01*
X154430483Y-123262633D01*
X154428564Y-123263197D01*
X154427925Y-123262916D01*
X154412737Y-123252767D01*
X154393801Y-123249000D01*
X153544199Y-123249000D01*
X153525262Y-123252767D01*
X153510227Y-123262814D01*
X153508232Y-123262945D01*
X153507120Y-123261282D01*
X153507207Y-123260553D01*
X153526102Y-123200214D01*
X153507044Y-123135310D01*
X153507516Y-123133367D01*
X153509435Y-123132803D01*
X153510074Y-123133084D01*
G37*
G36*
X149610075Y-123133084D02*
G01*
X149625263Y-123143233D01*
X149644199Y-123147000D01*
X150493801Y-123147000D01*
X150512738Y-123143233D01*
X150527772Y-123133187D01*
X150529768Y-123133056D01*
X150530879Y-123134719D01*
X150530792Y-123135448D01*
X150511898Y-123195788D01*
X150530954Y-123260689D01*
X150530482Y-123262632D01*
X150528563Y-123263196D01*
X150527924Y-123262915D01*
X150512738Y-123252767D01*
X150493801Y-123249000D01*
X149644199Y-123249000D01*
X149625262Y-123252767D01*
X149610227Y-123262814D01*
X149608232Y-123262945D01*
X149607120Y-123261282D01*
X149607207Y-123260553D01*
X149626102Y-123200212D01*
X149607045Y-123135310D01*
X149607517Y-123133367D01*
X149609436Y-123132803D01*
X149610075Y-123133084D01*
G37*
G36*
X153271919Y-122709734D02*
G01*
X153291595Y-122776746D01*
X153343938Y-122822101D01*
X153412491Y-122831958D01*
X153475636Y-122803120D01*
X153494463Y-122781781D01*
X153496359Y-122781144D01*
X153497859Y-122782467D01*
X153497925Y-122783494D01*
X153495000Y-122798199D01*
X153495000Y-123097801D01*
X153498136Y-123113565D01*
X153497493Y-123115459D01*
X153495531Y-123115849D01*
X153494892Y-123115490D01*
X153444052Y-123073004D01*
X153375334Y-123064374D01*
X153312860Y-123094266D01*
X153276377Y-123153329D01*
X153271982Y-123185966D01*
X153270760Y-123187549D01*
X153268778Y-123187282D01*
X153268000Y-123185699D01*
X153268000Y-122710297D01*
X153269000Y-122708565D01*
X153271000Y-122708565D01*
X153271919Y-122709734D01*
G37*
G36*
X150769222Y-122708711D02*
G01*
X150770000Y-122710294D01*
X150770000Y-123185706D01*
X150769000Y-123187438D01*
X150767000Y-123187438D01*
X150766081Y-123186269D01*
X150746404Y-123119255D01*
X150694061Y-123073900D01*
X150625508Y-123064043D01*
X150562363Y-123092881D01*
X150543537Y-123114219D01*
X150541641Y-123114856D01*
X150540141Y-123113533D01*
X150540075Y-123112506D01*
X150543000Y-123097801D01*
X150543000Y-122798199D01*
X150539864Y-122782434D01*
X150540507Y-122780540D01*
X150542469Y-122780150D01*
X150543109Y-122780509D01*
X150593947Y-122822994D01*
X150662662Y-122831625D01*
X150725137Y-122801735D01*
X150761621Y-122742673D01*
X150766018Y-122710027D01*
X150767240Y-122708444D01*
X150769222Y-122708711D01*
G37*
G36*
X131539074Y-123006084D02*
G01*
X131554262Y-123016233D01*
X131573199Y-123020000D01*
X132422801Y-123020000D01*
X132441738Y-123016233D01*
X132456773Y-123006186D01*
X132458768Y-123006055D01*
X132459880Y-123007718D01*
X132459793Y-123008447D01*
X132440898Y-123068788D01*
X132459955Y-123133690D01*
X132459483Y-123135633D01*
X132457564Y-123136197D01*
X132456925Y-123135916D01*
X132441737Y-123125767D01*
X132422801Y-123122000D01*
X131573199Y-123122000D01*
X131554262Y-123125767D01*
X131539227Y-123135814D01*
X131537232Y-123135945D01*
X131536120Y-123134282D01*
X131536207Y-123133553D01*
X131555102Y-123073214D01*
X131536044Y-123008310D01*
X131536516Y-123006367D01*
X131538435Y-123005803D01*
X131539074Y-123006084D01*
G37*
G36*
X127639075Y-123006084D02*
G01*
X127654263Y-123016233D01*
X127673199Y-123020000D01*
X128522801Y-123020000D01*
X128541738Y-123016233D01*
X128556772Y-123006187D01*
X128558768Y-123006056D01*
X128559879Y-123007719D01*
X128559792Y-123008448D01*
X128540898Y-123068788D01*
X128559954Y-123133689D01*
X128559482Y-123135632D01*
X128557563Y-123136196D01*
X128556924Y-123135915D01*
X128541738Y-123125767D01*
X128522801Y-123122000D01*
X127673199Y-123122000D01*
X127654262Y-123125767D01*
X127639227Y-123135814D01*
X127637232Y-123135945D01*
X127636120Y-123134282D01*
X127636207Y-123133553D01*
X127655102Y-123073212D01*
X127636045Y-123008310D01*
X127636517Y-123006367D01*
X127638436Y-123005803D01*
X127639075Y-123006084D01*
G37*
G36*
X131300919Y-122582734D02*
G01*
X131320595Y-122649746D01*
X131372938Y-122695101D01*
X131441491Y-122704958D01*
X131504636Y-122676120D01*
X131523463Y-122654781D01*
X131525359Y-122654144D01*
X131526859Y-122655467D01*
X131526925Y-122656494D01*
X131524000Y-122671199D01*
X131524000Y-122970801D01*
X131527136Y-122986565D01*
X131526493Y-122988459D01*
X131524531Y-122988849D01*
X131523892Y-122988490D01*
X131473052Y-122946004D01*
X131404334Y-122937374D01*
X131341860Y-122967266D01*
X131305377Y-123026329D01*
X131300982Y-123058966D01*
X131299760Y-123060549D01*
X131297778Y-123060282D01*
X131297000Y-123058699D01*
X131297000Y-122583297D01*
X131298000Y-122581565D01*
X131300000Y-122581565D01*
X131300919Y-122582734D01*
G37*
G36*
X128798222Y-122581711D02*
G01*
X128799000Y-122583294D01*
X128799000Y-123058706D01*
X128798000Y-123060438D01*
X128796000Y-123060438D01*
X128795081Y-123059269D01*
X128775404Y-122992255D01*
X128723061Y-122946900D01*
X128654508Y-122937043D01*
X128591363Y-122965881D01*
X128572537Y-122987219D01*
X128570641Y-122987856D01*
X128569141Y-122986533D01*
X128569075Y-122985506D01*
X128572000Y-122970801D01*
X128572000Y-122671199D01*
X128568864Y-122655434D01*
X128569507Y-122653540D01*
X128571469Y-122653150D01*
X128572109Y-122653509D01*
X128622947Y-122695994D01*
X128691662Y-122704625D01*
X128754137Y-122674735D01*
X128790621Y-122615673D01*
X128795018Y-122583027D01*
X128796240Y-122581444D01*
X128798222Y-122581711D01*
G37*
G36*
X152436460Y-122219507D02*
G01*
X152436850Y-122221469D01*
X152436491Y-122222109D01*
X152394006Y-122272947D01*
X152385375Y-122341662D01*
X152415266Y-122404137D01*
X152474328Y-122440621D01*
X152506974Y-122445018D01*
X152508557Y-122446240D01*
X152508290Y-122448222D01*
X152506707Y-122449000D01*
X152031299Y-122449000D01*
X152029567Y-122448000D01*
X152029567Y-122446000D01*
X152030735Y-122445081D01*
X152097750Y-122425401D01*
X152143103Y-122373057D01*
X152152957Y-122304503D01*
X152124117Y-122241359D01*
X152102781Y-122222537D01*
X152102144Y-122220641D01*
X152103467Y-122219141D01*
X152104494Y-122219075D01*
X152119199Y-122222000D01*
X152418801Y-122222000D01*
X152434566Y-122218864D01*
X152436460Y-122219507D01*
G37*
G36*
X151436459Y-122219507D02*
G01*
X151436849Y-122221469D01*
X151436490Y-122222108D01*
X151394004Y-122272948D01*
X151385374Y-122341666D01*
X151415266Y-122404140D01*
X151474329Y-122440623D01*
X151506966Y-122445018D01*
X151508549Y-122446240D01*
X151508282Y-122448222D01*
X151506699Y-122449000D01*
X151031297Y-122449000D01*
X151029565Y-122448000D01*
X151029565Y-122446000D01*
X151030734Y-122445081D01*
X151097746Y-122425405D01*
X151143101Y-122373062D01*
X151152958Y-122304509D01*
X151124120Y-122241364D01*
X151102781Y-122222537D01*
X151102144Y-122220641D01*
X151103467Y-122219141D01*
X151104494Y-122219075D01*
X151119199Y-122222000D01*
X151418801Y-122222000D01*
X151434565Y-122218864D01*
X151436459Y-122219507D01*
G37*
G36*
X151936459Y-122219507D02*
G01*
X151936849Y-122221469D01*
X151936490Y-122222108D01*
X151894004Y-122272948D01*
X151885374Y-122341666D01*
X151915266Y-122404140D01*
X151974329Y-122440623D01*
X152006971Y-122445018D01*
X152008554Y-122446240D01*
X152008287Y-122448222D01*
X152006704Y-122449000D01*
X151531297Y-122449000D01*
X151529565Y-122448000D01*
X151529565Y-122446000D01*
X151530734Y-122445081D01*
X151597746Y-122425405D01*
X151643101Y-122373062D01*
X151652958Y-122304509D01*
X151624120Y-122241364D01*
X151602781Y-122222537D01*
X151602144Y-122220641D01*
X151603467Y-122219141D01*
X151604494Y-122219075D01*
X151619199Y-122222000D01*
X151918801Y-122222000D01*
X151934565Y-122218864D01*
X151936459Y-122219507D01*
G37*
G36*
X152936460Y-122219507D02*
G01*
X152936850Y-122221469D01*
X152936491Y-122222109D01*
X152894006Y-122272947D01*
X152885375Y-122341662D01*
X152915265Y-122404137D01*
X152974327Y-122440621D01*
X153006974Y-122445018D01*
X153008557Y-122446240D01*
X153008290Y-122448222D01*
X153006707Y-122449000D01*
X152531293Y-122449000D01*
X152529561Y-122448000D01*
X152529561Y-122446000D01*
X152530730Y-122445081D01*
X152597745Y-122425404D01*
X152643100Y-122373061D01*
X152652957Y-122304508D01*
X152624119Y-122241363D01*
X152602781Y-122222537D01*
X152602144Y-122220641D01*
X152603467Y-122219141D01*
X152604494Y-122219075D01*
X152619199Y-122222000D01*
X152918801Y-122222000D01*
X152934566Y-122218864D01*
X152936460Y-122219507D01*
G37*
G36*
X130965460Y-122092507D02*
G01*
X130965850Y-122094469D01*
X130965491Y-122095109D01*
X130923006Y-122145947D01*
X130914375Y-122214662D01*
X130944265Y-122277137D01*
X131003327Y-122313621D01*
X131035974Y-122318018D01*
X131037557Y-122319240D01*
X131037290Y-122321222D01*
X131035707Y-122322000D01*
X130560293Y-122322000D01*
X130558561Y-122321000D01*
X130558561Y-122319000D01*
X130559730Y-122318081D01*
X130626745Y-122298404D01*
X130672100Y-122246061D01*
X130681957Y-122177508D01*
X130653119Y-122114363D01*
X130631781Y-122095537D01*
X130631144Y-122093641D01*
X130632467Y-122092141D01*
X130633494Y-122092075D01*
X130648199Y-122095000D01*
X130947801Y-122095000D01*
X130963566Y-122091864D01*
X130965460Y-122092507D01*
G37*
G36*
X129965459Y-122092507D02*
G01*
X129965849Y-122094469D01*
X129965490Y-122095108D01*
X129923004Y-122145948D01*
X129914374Y-122214666D01*
X129944266Y-122277140D01*
X130003329Y-122313623D01*
X130035971Y-122318018D01*
X130037554Y-122319240D01*
X130037287Y-122321222D01*
X130035704Y-122322000D01*
X129560297Y-122322000D01*
X129558565Y-122321000D01*
X129558565Y-122319000D01*
X129559734Y-122318081D01*
X129626746Y-122298405D01*
X129672101Y-122246062D01*
X129681958Y-122177509D01*
X129653120Y-122114364D01*
X129631781Y-122095537D01*
X129631144Y-122093641D01*
X129632467Y-122092141D01*
X129633494Y-122092075D01*
X129648199Y-122095000D01*
X129947801Y-122095000D01*
X129963565Y-122091864D01*
X129965459Y-122092507D01*
G37*
G36*
X130465460Y-122092507D02*
G01*
X130465850Y-122094469D01*
X130465491Y-122095109D01*
X130423006Y-122145947D01*
X130414375Y-122214662D01*
X130444266Y-122277137D01*
X130503328Y-122313621D01*
X130535974Y-122318018D01*
X130537557Y-122319240D01*
X130537290Y-122321222D01*
X130535707Y-122322000D01*
X130060299Y-122322000D01*
X130058567Y-122321000D01*
X130058567Y-122319000D01*
X130059735Y-122318081D01*
X130126750Y-122298401D01*
X130172103Y-122246057D01*
X130181957Y-122177503D01*
X130153117Y-122114359D01*
X130131781Y-122095537D01*
X130131144Y-122093641D01*
X130132467Y-122092141D01*
X130133494Y-122092075D01*
X130148199Y-122095000D01*
X130447801Y-122095000D01*
X130463566Y-122091864D01*
X130465460Y-122092507D01*
G37*
G36*
X129465459Y-122092507D02*
G01*
X129465849Y-122094469D01*
X129465490Y-122095108D01*
X129423004Y-122145948D01*
X129414374Y-122214666D01*
X129444266Y-122277140D01*
X129503329Y-122313623D01*
X129535966Y-122318018D01*
X129537549Y-122319240D01*
X129537282Y-122321222D01*
X129535699Y-122322000D01*
X129060297Y-122322000D01*
X129058565Y-122321000D01*
X129058565Y-122319000D01*
X129059734Y-122318081D01*
X129126746Y-122298405D01*
X129172101Y-122246062D01*
X129181958Y-122177509D01*
X129153120Y-122114364D01*
X129131781Y-122095537D01*
X129131144Y-122093641D01*
X129132467Y-122092141D01*
X129133494Y-122092075D01*
X129148199Y-122095000D01*
X129447801Y-122095000D01*
X129463565Y-122091864D01*
X129465459Y-122092507D01*
G37*
G36*
X151583633Y-121286517D02*
G01*
X151584197Y-121288436D01*
X151583916Y-121289075D01*
X151573767Y-121304263D01*
X151570000Y-121323199D01*
X151570000Y-122172801D01*
X151573767Y-122191738D01*
X151583814Y-122206773D01*
X151583945Y-122208768D01*
X151582282Y-122209880D01*
X151581553Y-122209793D01*
X151521214Y-122190898D01*
X151456310Y-122209956D01*
X151454367Y-122209484D01*
X151453803Y-122207565D01*
X151454084Y-122206926D01*
X151464233Y-122191738D01*
X151468000Y-122172801D01*
X151468000Y-121323199D01*
X151464233Y-121304262D01*
X151454186Y-121289227D01*
X151454055Y-121287232D01*
X151455718Y-121286120D01*
X151456447Y-121286207D01*
X151516788Y-121305102D01*
X151581690Y-121286045D01*
X151583633Y-121286517D01*
G37*
G36*
X152083633Y-121286517D02*
G01*
X152084197Y-121288436D01*
X152083916Y-121289075D01*
X152073767Y-121304263D01*
X152070000Y-121323199D01*
X152070000Y-122172801D01*
X152073767Y-122191738D01*
X152083812Y-122206771D01*
X152083943Y-122208767D01*
X152082280Y-122209878D01*
X152081551Y-122209791D01*
X152021208Y-122190898D01*
X151956311Y-122209956D01*
X151954367Y-122209485D01*
X151953803Y-122207566D01*
X151954084Y-122206926D01*
X151964233Y-122191738D01*
X151968000Y-122172801D01*
X151968000Y-121323199D01*
X151964233Y-121304262D01*
X151954186Y-121289227D01*
X151954055Y-121287232D01*
X151955718Y-121286120D01*
X151956447Y-121286207D01*
X152016788Y-121305102D01*
X152081690Y-121286045D01*
X152083633Y-121286517D01*
G37*
G36*
X152583633Y-121286517D02*
G01*
X152584197Y-121288436D01*
X152583916Y-121289075D01*
X152573767Y-121304263D01*
X152570000Y-121323199D01*
X152570000Y-122172801D01*
X152573767Y-122191738D01*
X152583813Y-122206772D01*
X152583944Y-122208768D01*
X152582281Y-122209879D01*
X152581552Y-122209792D01*
X152521212Y-122190898D01*
X152456311Y-122209954D01*
X152454368Y-122209482D01*
X152453804Y-122207563D01*
X152454085Y-122206924D01*
X152464233Y-122191738D01*
X152468000Y-122172801D01*
X152468000Y-121323199D01*
X152464233Y-121304262D01*
X152454186Y-121289227D01*
X152454055Y-121287232D01*
X152455718Y-121286120D01*
X152456447Y-121286207D01*
X152516788Y-121305102D01*
X152581690Y-121286045D01*
X152583633Y-121286517D01*
G37*
G36*
X130112633Y-121159517D02*
G01*
X130113197Y-121161436D01*
X130112916Y-121162075D01*
X130102767Y-121177263D01*
X130099000Y-121196199D01*
X130099000Y-122045801D01*
X130102767Y-122064738D01*
X130112812Y-122079771D01*
X130112943Y-122081767D01*
X130111280Y-122082878D01*
X130110551Y-122082791D01*
X130050208Y-122063898D01*
X129985311Y-122082956D01*
X129983367Y-122082485D01*
X129982803Y-122080566D01*
X129983084Y-122079926D01*
X129993233Y-122064738D01*
X129997000Y-122045801D01*
X129997000Y-121196199D01*
X129993233Y-121177262D01*
X129983186Y-121162227D01*
X129983055Y-121160232D01*
X129984718Y-121159120D01*
X129985447Y-121159207D01*
X130045788Y-121178102D01*
X130110690Y-121159045D01*
X130112633Y-121159517D01*
G37*
G36*
X129612633Y-121159517D02*
G01*
X129613197Y-121161436D01*
X129612916Y-121162075D01*
X129602767Y-121177263D01*
X129599000Y-121196199D01*
X129599000Y-122045801D01*
X129602767Y-122064738D01*
X129612814Y-122079773D01*
X129612945Y-122081768D01*
X129611282Y-122082880D01*
X129610553Y-122082793D01*
X129550214Y-122063898D01*
X129485310Y-122082956D01*
X129483367Y-122082484D01*
X129482803Y-122080565D01*
X129483084Y-122079926D01*
X129493233Y-122064738D01*
X129497000Y-122045801D01*
X129497000Y-121196199D01*
X129493233Y-121177262D01*
X129483186Y-121162227D01*
X129483055Y-121160232D01*
X129484718Y-121159120D01*
X129485447Y-121159207D01*
X129545788Y-121178102D01*
X129610690Y-121159045D01*
X129612633Y-121159517D01*
G37*
G36*
X130612633Y-121159517D02*
G01*
X130613197Y-121161436D01*
X130612916Y-121162075D01*
X130602767Y-121177263D01*
X130599000Y-121196199D01*
X130599000Y-122045801D01*
X130602767Y-122064738D01*
X130612813Y-122079772D01*
X130612944Y-122081768D01*
X130611281Y-122082879D01*
X130610552Y-122082792D01*
X130550212Y-122063898D01*
X130485311Y-122082954D01*
X130483368Y-122082482D01*
X130482804Y-122080563D01*
X130483085Y-122079924D01*
X130493233Y-122064738D01*
X130497000Y-122045801D01*
X130497000Y-121196199D01*
X130493233Y-121177262D01*
X130483186Y-121162227D01*
X130483055Y-121160232D01*
X130484718Y-121159120D01*
X130485447Y-121159207D01*
X130545788Y-121178102D01*
X130610690Y-121159045D01*
X130612633Y-121159517D01*
G37*
M02*
